<?xml version="1.0" encoding="UTF-8" standalone="no"?>
<!DOCTYPE svg PUBLIC "-//W3C//DTD SVG 1.1//EN" "http://www.w3.org/Graphics/SVG/1.1/DTD/svg11.dtd">
<svg xmlns="http://www.w3.org/2000/svg" version="1.1" viewBox="0 80 1536 864">
<g stroke-width="2.00" fill="none" stroke-linecap="butt">
<path stroke="#8d9dd4" vector-effect="non-scaling-stroke" d="
  M 0.00 913.94
  L 1444.69 913.95
  A 0.53 0.53 0.0 0 0 1445.22 913.42
  L 1445.18 742.96"
/>
<path stroke="#8b96c9" vector-effect="non-scaling-stroke" d="
  M 1445.18 742.96
  L 1445.15 618.95"
/>
<path stroke="#8a93c3" vector-effect="non-scaling-stroke" d="
  M 1445.15 618.95
  L 1445.18 586.97"
/>
<path stroke="#898fb7" vector-effect="non-scaling-stroke" d="
  M 1445.18 586.97
  L 1445.19 442.96"
/>
<path stroke="#898dad" vector-effect="non-scaling-stroke" d="
  M 1445.19 442.96
  L 1445.16 110.36
  A 0.36 0.36 0.0 0 0 1444.80 110.00
  L 0.00 109.99"
/>
<path stroke="#131d65" vector-effect="non-scaling-stroke" d="
  M 1445.19 442.96
  L 1445.16 449.43
  A 0.25 0.22 87.5 0 1 1444.96 449.68
  L 1444.95 449.68
  A 0.22 0.22 0.0 0 1 1444.71 449.48
  C 1443.16 433.21 1443.93 418.01 1444.38 390.93
  C 1444.50 383.73 1443.39 373.69 1443.55 365.59
  Q 1443.56 365.58 1443.68 355.35
  Q 1443.74 349.93 1442.63 345.38
  C 1439.50 332.57 1435.51 323.07 1421.12 320.33
  C 1399.29 316.16 1378.16 322.13 1355.33 319.95
  C 1352.19 319.65 1346.04 318.88 1346.25 314.42
  C 1346.37 312.02 1343.77 311.31 1341.87 310.92
  Q 1331.46 308.79 1320.69 307.89"
/>
<path stroke="#142377" vector-effect="non-scaling-stroke" d="
  M 1320.69 307.89
  C 1312.67 291.75 1298.11 284.57 1280.07 285.40
  Q 1278.48 285.47 1274.85 286.36
  C 1271.42 287.19 1268.16 288.67 1264.72 289.80"
/>
<path stroke="#142071" vector-effect="non-scaling-stroke" d="
  M 1264.72 289.80
  L 1261.40 288.57"
/>
<path stroke="#142377" vector-effect="non-scaling-stroke" d="
  M 1261.40 288.57
  Q 1260.70 276.08 1258.57 268.69
  Q 1255.22 257.06 1245.71 243.15
  A 1.98 1.98 0.0 0 0 1245.16 242.60
  Q 1243.66 241.58 1241.45 238.37
  A 5.40 4.95 4.6 0 0 1240.41 237.25
  C 1235.11 233.00 1230.12 228.72 1224.03 226.00
  Q 1215.77 222.31 1214.69 221.84
  Q 1210.72 220.10 1204.88 219.18
  C 1190.32 216.88 1175.18 218.18 1162.11 224.44
  Q 1155.04 227.82 1152.01 230.01
  Q 1138.47 239.79 1129.64 255.06
  A 0.59 0.59 0.0 0 1 1128.72 255.20
  Q 1118.43 245.58 1104.83 242.46
  C 1093.62 239.89 1082.54 242.73 1072.66 247.89
  Q 1068.14 250.25 1064.80 253.53
  Q 1060.24 258.01 1056.03 264.49"
/>
<path stroke="#131d65" vector-effect="non-scaling-stroke" d="
  M 1056.03 264.49
  Q 1043.07 262.56 1033.60 263.81
  Q 1015.36 266.23 1009.04 266.67
  C 993.83 267.72 982.66 266.14 965.86 264.10
  Q 953.90 262.64 939.43 262.49
  Q 931.02 262.41 927.73 261.52
  Q 907.81 256.19 887.74 251.45"
/>
<path stroke="#898dad" vector-effect="non-scaling-stroke" d="
  M 887.74 251.45
  Q 891.35 252.12 892.03 248.85
  A 1.56 1.53 38.9 0 0 891.92 247.90
  Q 891.39 246.73 890.24 245.88"
/>
<path stroke="#131d65" vector-effect="non-scaling-stroke" d="
  M 890.24 245.88
  L 887.47 244.65
  A 1.13 1.09 -44.6 0 0 886.54 244.66
  Q 868.01 253.45 847.48 255.65
  C 832.73 257.23 815.57 258.03 798.99 259.53
  C 784.31 260.86 771.13 261.82 757.72 260.64
  Q 751.48 260.09 733.83 257.77
  C 720.16 255.97 707.02 256.44 689.92 258.39
  Q 674.94 260.10 656.96 260.92
  C 646.91 261.37 634.07 263.40 624.98 263.68
  Q 613.98 264.03 601.77 261.27
  Q 585.05 257.50 570.23 253.21
  Q 568.19 252.62 561.17 249.83"
/>
<path stroke="#898dad" vector-effect="non-scaling-stroke" d="
  M 561.17 249.83
  Q 564.14 242.05 556.54 242.07
  A 1.81 1.79 -60.3 0 0 555.61 242.33
  Q 551.85 244.62 554.02 249.47"
/>
<path stroke="#131d65" vector-effect="non-scaling-stroke" d="
  M 554.02 249.47
  C 536.86 257.23 515.40 262.52 496.73 264.53
  Q 489.00 265.36 472.08 265.61
  Q 447.33 265.99 423.24 267.09
  Q 404.26 267.96 389.34 264.02
  Q 373.83 259.93 358.25 256.00"
/>
<path stroke="#142071" vector-effect="non-scaling-stroke" d="
  M 358.25 256.00
  Q 352.54 248.67 343.92 244.84
  Q 336.76 241.67 332.40 240.90
  Q 325.20 239.62 315.96 240.74
  C 311.77 241.24 308.29 242.49 303.47 243.90
  Q 302.88 244.07 300.55 245.22
  Q 298.94 246.01 297.47 246.08"
/>
<path stroke="#142377" vector-effect="non-scaling-stroke" d="
  M 297.47 246.08
  Q 292.73 219.34 270.55 203.98
  Q 263.12 198.84 253.77 195.46
  C 245.39 192.44 235.44 191.97 227.08 192.41
  Q 222.44 192.65 215.95 194.66
  Q 209.18 196.76 205.31 198.50
  Q 193.49 203.84 184.98 213.37
  Q 178.31 220.85 173.86 228.89
  A 0.62 0.62 0.0 0 1 173.02 229.13
  C 164.51 224.32 156.24 221.58 146.27 222.16
  C 135.16 222.82 125.31 227.05 117.35 234.85
  Q 111.92 240.16 110.15 243.13
  Q 102.71 255.61 103.83 270.29
  A 0.64 0.64 0.0 0 1 103.51 270.89
  Q 102.76 271.30 101.50 270.68"
/>
<path stroke="#131d65" vector-effect="non-scaling-stroke" d="
  M 101.50 270.68
  Q 94.10 261.59 82.12 259.37
  Q 73.21 257.71 65.21 257.50
  Q 50.89 257.11 32.16 257.43
  Q 23.27 257.57 0.00 255.98"
/>
<path stroke="#16298d" vector-effect="non-scaling-stroke" d="
  M 297.47 246.08
  C 296.47 247.02 295.53 248.13 294.48 248.96
  Q 283.92 257.25 278.85 269.82
  A 1.18 1.17 -73.8 0 1 277.57 270.53
  C 252.11 266.19 230.23 282.12 228.38 308.10"
/>
<path stroke="#152681" vector-effect="non-scaling-stroke" d="
  M 228.38 308.10
  Q 176.92 307.84 125.25 307.86
  Q 125.19 307.86 94.87 308.05
  Q 86.74 308.10 83.94 306.79
  Q 78.34 304.17 76.17 297.51
  C 72.36 285.82 79.37 274.13 90.90 271.09
  C 94.08 270.25 98.02 270.61 101.50 270.68"
/>
<path stroke="#16298d" vector-effect="non-scaling-stroke" d="
  M 1261.40 288.57
  C 1242.78 275.28 1215.75 274.24 1196.93 288.16
  Q 1183.87 297.82 1177.06 312.05
  A 1.08 1.07 24.1 0 1 1175.67 312.58
  Q 1166.76 308.86 1156.90 309.75
  C 1141.10 311.17 1132.94 320.20 1126.65 333.94
  A 0.88 0.87 -80.5 0 1 1125.94 334.45
  L 1124.71 334.60"
/>
<path stroke="#152681" vector-effect="non-scaling-stroke" d="
  M 1124.71 334.60
  L 1012.05 334.84
  A 2.10 2.08 75.6 0 1 1010.19 333.73
  C 1001.62 317.77 1008.73 300.65 1022.63 290.89
  C 1030.12 285.64 1040.05 284.31 1049.20 285.60
  A 0.86 0.86 0.0 0 0 1050.18 284.78
  Q 1050.66 274.06 1056.03 264.49"
/>
<path stroke="#14237b" vector-effect="non-scaling-stroke" d="
  M 358.25 256.00
  Q 364.12 263.67 365.16 266.11
  Q 373.46 285.44 365.05 304.74
  Q 363.92 307.33 361.75 308.01
  A 2.61 2.57 35.9 0 1 360.97 308.13
  L 228.38 308.10"
/>
<path stroke="#898fb7" vector-effect="non-scaling-stroke" d="
  M 561.17 249.83
  Q 557.38 252.28 554.02 249.47"
/>
<path stroke="#898fb7" vector-effect="non-scaling-stroke" d="
  M 890.24 245.88
  C 886.33 245.30 884.08 249.42 887.74 251.45"
/>
<path stroke="#14237b" vector-effect="non-scaling-stroke" d="
  M 1124.71 334.60
  L 1126.59 341.08
  A 1.16 1.15 -8.0 0 0 1127.70 341.91
  L 1278.91 341.91
  A 1.75 1.74 -80.7 0 0 1280.56 340.72
  L 1283.00 333.43"
/>
<path stroke="#152681" vector-effect="non-scaling-stroke" d="
  M 1283.00 333.43
  L 1321.18 333.12
  A 1.58 1.56 -82.0 0 0 1322.67 331.99
  Q 1326.29 319.65 1320.69 307.89"
/>
<path stroke="#14237b" vector-effect="non-scaling-stroke" d="
  M 1445.18 586.97
  Q 1444.15 567.26 1442.31 547.64
  C 1440.77 531.20 1436.61 515.93 1419.44 510.01
  C 1406.91 505.69 1393.45 502.16 1379.71 502.54
  C 1371.05 502.78 1363.21 503.09 1354.99 502.82
  C 1336.13 502.20 1323.27 501.97 1309.38 503.28
  C 1290.43 505.07 1274.39 507.55 1258.58 506.59
  Q 1232.47 505.02 1223.84 505.19
  Q 1191.22 505.82 1165.22 504.59
  C 1158.61 504.27 1146.88 505.88 1138.44 505.62
  C 1129.06 505.33 1121.05 504.15 1111.22 502.68
  C 1093.87 500.08 1074.73 500.44 1058.40 502.02
  Q 1040.99 503.70 1035.87 503.67
  Q 1023.11 503.61 1010.33 500.92
  Q 998.31 498.39 991.01 497.75
  C 977.01 496.54 963.60 499.45 949.93 500.50
  C 930.08 502.02 909.08 505.37 888.52 506.50
  C 868.84 507.58 861.08 508.29 849.14 508.16
  Q 841.46 508.07 792.07 506.42
  Q 778.01 505.95 738.33 506.61
  C 731.23 506.73 723.40 506.57 717.40 505.38
  Q 706.34 503.18 695.44 501.27
  C 686.07 499.62 673.56 499.21 665.19 498.71
  Q 629.88 496.59 596.20 499.73
  C 586.32 500.65 577.28 501.28 569.88 500.75
  C 548.93 499.27 533.13 497.74 514.95 500.36
  C 498.07 502.80 489.56 504.15 476.29 504.50
  C 465.59 504.79 450.58 502.78 437.90 501.84"
/>
<path stroke="#152681" vector-effect="non-scaling-stroke" d="
  M 437.90 501.84
  Q 426.48 495.12 413.18 496.17
  C 409.94 496.42 404.85 498.06 400.55 497.24"
/>
<path stroke="#172d8c" vector-effect="non-scaling-stroke" d="
  M 400.55 497.24
  Q 396.70 475.44 375.88 467.39
  C 360.91 461.60 347.18 464.45 334.59 473.88
  Q 328.81 478.20 325.16 485.23
  A 1.16 1.16 0.0 0 1 323.71 485.78
  Q 304.34 478.27 288.27 488.82
  C 280.27 494.06 275.90 502.62 274.62 512.00"
/>
<path stroke="#14237b" vector-effect="non-scaling-stroke" d="
  M 274.62 512.00
  Q 265.54 511.00 251.38 507.41
  Q 241.64 504.95 228.80 506.53
  C 221.21 507.47 209.33 510.88 200.70 511.45
  Q 185.64 512.43 171.16 510.78
  C 157.23 509.20 146.96 507.39 135.18 507.61
  Q 132.13 507.66 120.91 509.19
  Q 112.15 510.38 105.03 509.90
  Q 83.55 508.46 67.93 508.52
  C 59.63 508.55 43.04 510.36 31.24 508.70
  C 19.60 507.05 10.58 506.00 0.00 510.05"
/>
<path stroke="#16298d" vector-effect="non-scaling-stroke" d="
  M 1264.72 289.80
  Q 1266.61 293.33 1269.84 297.15
  Q 1278.58 307.49 1280.87 321.20
  Q 1281.90 327.30 1283.00 333.43"
/>
<path stroke="#18339e" vector-effect="non-scaling-stroke" d="
  M 400.55 497.24
  Q 397.66 499.84 396.78 500.32
  Q 383.87 507.38 378.75 521.26
  Q 377.84 523.74 375.10 532.67"
/>
<path stroke="#183098" vector-effect="non-scaling-stroke" d="
  M 375.10 532.67
  L 281.95 532.85
  A 3.00 2.98 73.1 0 1 279.46 531.51
  Q 273.78 522.83 274.62 512.00"
/>
<path stroke="#16298d" vector-effect="non-scaling-stroke" d="
  M 1445.15 618.95
  L 1445.03 646.64
  A 0.17 0.17 0.0 0 1 1444.87 646.81
  L 1444.86 646.81
  A 0.17 0.17 0.0 0 1 1444.69 646.65
  Q 1444.33 637.41 1442.98 627.65
  C 1440.22 607.68 1431.64 596.27 1411.15 594.13
  Q 1393.91 592.34 1370.25 591.84
  C 1357.60 591.57 1345.20 592.37 1333.16 592.69
  C 1314.84 593.18 1296.82 591.12 1277.48 588.27
  C 1266.55 586.65 1257.80 586.13 1248.23 587.27
  Q 1237.74 588.52 1206.75 592.77
  Q 1185.04 595.74 1167.13 594.53
  Q 1142.19 592.85 1121.52 592.28
  C 1116.94 592.15 1111.92 591.37 1108.52 590.89
  C 1103.16 590.12 1089.53 586.64 1079.95 586.22
  Q 1064.64 585.55 1049.56 585.98
  C 1038.25 586.31 1023.23 589.11 1014.99 590.02
  Q 1002.14 591.44 986.66 591.41
  Q 958.90 591.36 930.67 587.99
  C 909.26 585.43 891.73 585.61 868.86 585.81
  Q 858.70 585.91 852.80 587.17
  C 835.90 590.81 822.30 593.38 806.17 593.29
  C 798.75 593.25 786.72 591.52 779.35 591.61
  C 760.62 591.82 746.41 591.04 728.60 590.67
  C 702.92 590.13 670.50 594.18 649.83 595.75
  Q 630.40 597.22 614.85 595.75
  C 607.13 595.02 594.30 591.30 584.19 591.47
  Q 577.18 591.59 561.84 592.64
  C 539.69 594.16 512.67 590.07 494.16 589.86
  C 477.86 589.68 461.53 591.67 445.13 592.13
  Q 419.56 592.84 401.98 593.81
  C 389.49 594.49 379.81 592.48 365.61 590.57
  C 352.36 588.80 337.68 590.83 324.37 593.75
  C 314.50 595.92 304.51 596.69 295.93 595.71
  Q 254.32 590.94 210.68 587.91
  Q 181.87 585.90 155.47 587.66
  Q 138.43 588.79 111.88 591.65
  Q 100.08 592.92 91.71 592.55
  C 65.98 591.41 55.12 590.81 35.87 590.98
  C 23.01 591.09 12.27 588.90 0.00 584.69"
/>
<path stroke="#16298d" vector-effect="non-scaling-stroke" d="
  M 375.10 532.67
  L 455.35 532.62
  A 1.27 1.27 0.0 0 0 456.62 531.27
  C 455.76 517.80 448.77 509.00 437.90 501.84"
/>
<path stroke="#18339e" vector-effect="non-scaling-stroke" d="
  M 1445.18 742.96
  Q 1444.79 744.72 1445.00 746.53
  A 0.15 0.15 0.0 0 1 1444.87 746.70
  L 1444.86 746.70
  A 0.16 0.16 0.0 0 1 1444.69 746.56
  Q 1443.71 738.37 1441.73 729.72
  C 1439.14 718.36 1433.92 709.37 1422.33 705.63
  Q 1408.16 701.05 1391.75 697.67
  Q 1382.57 695.77 1375.40 695.36
  C 1362.17 694.60 1352.44 695.99 1336.00 697.69
  C 1316.90 699.67 1298.19 699.98 1278.97 701.55
  Q 1252.47 703.73 1229.36 703.25
  Q 1171.05 702.07 1125.31 704.28
  Q 1120.86 704.49 1113.38 704.50
  C 1101.88 704.51 1089.63 703.01 1079.98 702.33
  C 1072.60 701.82 1059.76 702.94 1047.51 702.94
  C 1036.06 702.94 1024.21 702.59 1015.61 702.33
  C 1001.20 701.91 989.32 702.68 976.79 704.52
  Q 949.64 708.52 949.37 708.55
  Q 937.19 709.98 928.10 708.75
  Q 912.52 706.65 908.16 706.59
  Q 889.72 706.32 884.74 705.81
  Q 865.13 703.77 849.66 705.10
  Q 847.45 705.29 828.99 706.83
  C 818.65 707.69 809.14 707.42 799.64 705.98
  Q 783.45 703.54 779.57 703.09
  Q 760.67 700.91 741.25 703.01
  C 731.23 704.10 715.80 706.67 702.93 706.65
  Q 688.17 706.63 674.87 706.82
  C 671.40 706.87 667.22 706.53 663.94 706.05
  Q 639.66 702.48 615.34 700.79
  C 602.39 699.89 592.63 701.38 576.99 703.22
  C 560.89 705.12 550.38 704.53 533.31 704.23
  C 518.22 703.96 505.27 705.94 488.94 708.44
  C 470.00 711.35 451.65 708.76 432.35 706.03
  C 410.50 702.95 385.45 706.16 363.99 706.81
  Q 345.81 707.35 337.36 706.45
  Q 319.90 704.60 306.79 703.56
  C 291.94 702.38 276.41 698.80 261.52 700.53
  Q 240.42 702.98 232.17 703.72
  C 214.52 705.32 196.77 704.28 179.28 704.84
  Q 164.90 705.30 155.40 705.01
  Q 137.60 704.45 131.52 704.78
  Q 108.29 706.03 100.82 706.34
  C 87.33 706.91 71.21 705.99 61.28 705.90
  C 52.70 705.82 41.86 706.88 35.46 707.14
  Q 29.50 707.37 20.05 706.32
  Q 10.02 705.21 0.00 703.94"
/>
</g>
<g fill="#1a3aa9">
<path d="
  M 400.55 497.24
  Q 397.66 499.84 396.78 500.32
  Q 383.87 507.38 378.75 521.26
  Q 377.84 523.74 375.10 532.67
  L 281.95 532.85
  A 3.00 2.98 73.1 0 1 279.46 531.51
  Q 273.78 522.83 274.62 512.00
  C 275.90 502.62 280.27 494.06 288.27 488.82
  Q 304.34 478.27 323.71 485.78
  A 1.16 1.16 0.0 0 0 325.16 485.23
  Q 328.81 478.20 334.59 473.88
  C 347.18 464.45 360.91 461.60 375.88 467.39
  Q 396.70 475.44 400.55 497.24
  Z"
/>
<path d="
  M 1445.18 742.96
  L 1445.22 913.42
  A 0.53 0.53 0.0 0 1 1444.69 913.95
  L 0.00 913.94
  L 0.00 703.94
  Q 10.02 705.21 20.05 706.32
  Q 29.50 707.37 35.46 707.14
  C 41.86 706.88 52.70 705.82 61.28 705.90
  C 71.21 705.99 87.33 706.91 100.82 706.34
  Q 108.29 706.03 131.52 704.78
  Q 137.60 704.45 155.40 705.01
  Q 164.90 705.30 179.28 704.84
  C 196.77 704.28 214.52 705.32 232.17 703.72
  Q 240.42 702.98 261.52 700.53
  C 276.41 698.80 291.94 702.38 306.79 703.56
  Q 319.90 704.60 337.36 706.45
  Q 345.81 707.35 363.99 706.81
  C 385.45 706.16 410.50 702.95 432.35 706.03
  C 451.65 708.76 470.00 711.35 488.94 708.44
  C 505.27 705.94 518.22 703.96 533.31 704.23
  C 550.38 704.53 560.89 705.12 576.99 703.22
  C 592.63 701.38 602.39 699.89 615.34 700.79
  Q 639.66 702.48 663.94 706.05
  C 667.22 706.53 671.40 706.87 674.87 706.82
  Q 688.17 706.63 702.93 706.65
  C 715.80 706.67 731.23 704.10 741.25 703.01
  Q 760.67 700.91 779.57 703.09
  Q 783.45 703.54 799.64 705.98
  C 809.14 707.42 818.65 707.69 828.99 706.83
  Q 847.45 705.29 849.66 705.10
  Q 865.13 703.77 884.74 705.81
  Q 889.72 706.32 908.16 706.59
  Q 912.52 706.65 928.10 708.75
  Q 937.19 709.98 949.37 708.55
  Q 949.64 708.52 976.79 704.52
  C 989.32 702.68 1001.20 701.91 1015.61 702.33
  C 1024.21 702.59 1036.06 702.94 1047.51 702.94
  C 1059.76 702.94 1072.60 701.82 1079.98 702.33
  C 1089.63 703.01 1101.88 704.51 1113.38 704.50
  Q 1120.86 704.49 1125.31 704.28
  Q 1171.05 702.07 1229.36 703.25
  Q 1252.47 703.73 1278.97 701.55
  C 1298.19 699.98 1316.90 699.67 1336.00 697.69
  C 1352.44 695.99 1362.17 694.60 1375.40 695.36
  Q 1382.57 695.77 1391.75 697.67
  Q 1408.16 701.05 1422.33 705.63
  C 1433.92 709.37 1439.14 718.36 1441.73 729.72
  Q 1443.71 738.37 1444.69 746.56
  A 0.16 0.16 0.0 0 0 1444.86 746.70
  L 1444.87 746.70
  A 0.15 0.15 0.0 0 0 1445.00 746.53
  Q 1444.79 744.72 1445.18 742.96
  Z"
/>
</g>
<g fill="#ffffff">
<path d="
  M 1536.00 0.00
  L 1536.00 1024.00
  L 0.00 1024.00
  L 0.00 913.94
  L 1444.69 913.95
  A 0.53 0.53 0.0 0 0 1445.22 913.42
  L 1445.18 742.96
  L 1445.15 618.95
  L 1445.18 586.97
  L 1445.19 442.96
  L 1445.16 110.36
  A 0.36 0.36 0.0 0 0 1444.80 110.00
  L 0.00 109.99
  L 0.00 0.00
  L 1536.00 0.00
  Z"
/>
<path d="
  M 561.17 249.83
  Q 557.38 252.28 554.02 249.47
  Q 551.85 244.62 555.61 242.33
  A 1.81 1.79 -60.3 0 1 556.54 242.07
  Q 564.14 242.05 561.17 249.83
  Z"
/>
<path d="
  M 890.24 245.88
  Q 891.39 246.73 891.92 247.90
  A 1.56 1.53 38.9 0 1 892.03 248.85
  Q 891.35 252.12 887.74 251.45
  C 884.08 249.42 886.33 245.30 890.24 245.88
  Z"
/>
</g>
<path fill="#131f6f" d="
  M 890.24 245.88
  C 886.33 245.30 884.08 249.42 887.74 251.45
  Q 907.81 256.19 927.73 261.52
  Q 931.02 262.41 939.43 262.49
  Q 953.90 262.64 965.86 264.10
  C 982.66 266.14 993.83 267.72 1009.04 266.67
  Q 1015.36 266.23 1033.60 263.81
  Q 1043.07 262.56 1056.03 264.49
  Q 1050.66 274.06 1050.18 284.78
  A 0.86 0.86 0.0 0 1 1049.20 285.60
  C 1040.05 284.31 1030.12 285.64 1022.63 290.89
  C 1008.73 300.65 1001.62 317.77 1010.19 333.73
  A 2.10 2.08 75.6 0 0 1012.05 334.84
  L 1124.71 334.60
  L 1126.59 341.08
  A 1.16 1.15 -8.0 0 0 1127.70 341.91
  L 1278.91 341.91
  A 1.75 1.74 -80.7 0 0 1280.56 340.72
  L 1283.00 333.43
  L 1321.18 333.12
  A 1.58 1.56 -82.0 0 0 1322.67 331.99
  Q 1326.29 319.65 1320.69 307.89
  Q 1331.46 308.79 1341.87 310.92
  C 1343.77 311.31 1346.37 312.02 1346.25 314.42
  C 1346.04 318.88 1352.19 319.65 1355.33 319.95
  C 1378.16 322.13 1399.29 316.16 1421.12 320.33
  C 1435.51 323.07 1439.50 332.57 1442.63 345.38
  Q 1443.74 349.93 1443.68 355.35
  Q 1443.56 365.58 1443.55 365.59
  C 1443.39 373.69 1444.50 383.73 1444.38 390.93
  C 1443.93 418.01 1443.16 433.21 1444.71 449.48
  A 0.22 0.22 0.0 0 0 1444.95 449.68
  L 1444.96 449.68
  A 0.25 0.22 87.5 0 0 1445.16 449.43
  L 1445.19 442.96
  L 1445.18 586.97
  Q 1444.15 567.26 1442.31 547.64
  C 1440.77 531.20 1436.61 515.93 1419.44 510.01
  C 1406.91 505.69 1393.45 502.16 1379.71 502.54
  C 1371.05 502.78 1363.21 503.09 1354.99 502.82
  C 1336.13 502.20 1323.27 501.97 1309.38 503.28
  C 1290.43 505.07 1274.39 507.55 1258.58 506.59
  Q 1232.47 505.02 1223.84 505.19
  Q 1191.22 505.82 1165.22 504.59
  C 1158.61 504.27 1146.88 505.88 1138.44 505.62
  C 1129.06 505.33 1121.05 504.15 1111.22 502.68
  C 1093.87 500.08 1074.73 500.44 1058.40 502.02
  Q 1040.99 503.70 1035.87 503.67
  Q 1023.11 503.61 1010.33 500.92
  Q 998.31 498.39 991.01 497.75
  C 977.01 496.54 963.60 499.45 949.93 500.50
  C 930.08 502.02 909.08 505.37 888.52 506.50
  C 868.84 507.58 861.08 508.29 849.14 508.16
  Q 841.46 508.07 792.07 506.42
  Q 778.01 505.95 738.33 506.61
  C 731.23 506.73 723.40 506.57 717.40 505.38
  Q 706.34 503.18 695.44 501.27
  C 686.07 499.62 673.56 499.21 665.19 498.71
  Q 629.88 496.59 596.20 499.73
  C 586.32 500.65 577.28 501.28 569.88 500.75
  C 548.93 499.27 533.13 497.74 514.95 500.36
  C 498.07 502.80 489.56 504.15 476.29 504.50
  C 465.59 504.79 450.58 502.78 437.90 501.84
  Q 426.48 495.12 413.18 496.17
  C 409.94 496.42 404.85 498.06 400.55 497.24
  Q 396.70 475.44 375.88 467.39
  C 360.91 461.60 347.18 464.45 334.59 473.88
  Q 328.81 478.20 325.16 485.23
  A 1.16 1.16 0.0 0 1 323.71 485.78
  Q 304.34 478.27 288.27 488.82
  C 280.27 494.06 275.90 502.62 274.62 512.00
  Q 265.54 511.00 251.38 507.41
  Q 241.64 504.95 228.80 506.53
  C 221.21 507.47 209.33 510.88 200.70 511.45
  Q 185.64 512.43 171.16 510.78
  C 157.23 509.20 146.96 507.39 135.18 507.61
  Q 132.13 507.66 120.91 509.19
  Q 112.15 510.38 105.03 509.90
  Q 83.55 508.46 67.93 508.52
  C 59.63 508.55 43.04 510.36 31.24 508.70
  C 19.60 507.05 10.58 506.00 0.00 510.05
  L 0.00 255.98
  Q 23.27 257.57 32.16 257.43
  Q 50.89 257.11 65.21 257.50
  Q 73.21 257.71 82.12 259.37
  Q 94.10 261.59 101.50 270.68
  C 98.02 270.61 94.08 270.25 90.90 271.09
  C 79.37 274.13 72.36 285.82 76.17 297.51
  Q 78.34 304.17 83.94 306.79
  Q 86.74 308.10 94.87 308.05
  Q 125.19 307.86 125.25 307.86
  Q 176.92 307.84 228.38 308.10
  L 360.97 308.13
  A 2.61 2.57 35.9 0 0 361.75 308.01
  Q 363.92 307.33 365.05 304.74
  Q 373.46 285.44 365.16 266.11
  Q 364.12 263.67 358.25 256.00
  Q 373.83 259.93 389.34 264.02
  Q 404.26 267.96 423.24 267.09
  Q 447.33 265.99 472.08 265.61
  Q 489.00 265.36 496.73 264.53
  C 515.40 262.52 536.86 257.23 554.02 249.47
  Q 557.38 252.28 561.17 249.83
  Q 568.19 252.62 570.23 253.21
  Q 585.05 257.50 601.77 261.27
  Q 613.98 264.03 624.98 263.68
  C 634.07 263.40 646.91 261.37 656.96 260.92
  Q 674.94 260.10 689.92 258.39
  C 707.02 256.44 720.16 255.97 733.83 257.77
  Q 751.48 260.09 757.72 260.64
  C 771.13 261.82 784.31 260.86 798.99 259.53
  C 815.57 258.03 832.73 257.23 847.48 255.65
  Q 868.01 253.45 886.54 244.66
  A 1.13 1.09 -44.6 0 1 887.47 244.65
  L 890.24 245.88
  Z"
/>
<g fill="#162c93">
<path d="
  M 297.47 246.08
  C 296.47 247.02 295.53 248.13 294.48 248.96
  Q 283.92 257.25 278.85 269.82
  A 1.18 1.17 -73.8 0 1 277.57 270.53
  C 252.11 266.19 230.23 282.12 228.38 308.10
  Q 176.92 307.84 125.25 307.86
  Q 125.19 307.86 94.87 308.05
  Q 86.74 308.10 83.94 306.79
  Q 78.34 304.17 76.17 297.51
  C 72.36 285.82 79.37 274.13 90.90 271.09
  C 94.08 270.25 98.02 270.61 101.50 270.68
  Q 102.76 271.30 103.51 270.89
  A 0.64 0.64 0.0 0 0 103.83 270.29
  Q 102.71 255.61 110.15 243.13
  Q 111.92 240.16 117.35 234.85
  C 125.31 227.05 135.16 222.82 146.27 222.16
  C 156.24 221.58 164.51 224.32 173.02 229.13
  A 0.62 0.62 0.0 0 0 173.86 228.89
  Q 178.31 220.85 184.98 213.37
  Q 193.49 203.84 205.31 198.50
  Q 209.18 196.76 215.95 194.66
  Q 222.44 192.65 227.08 192.41
  C 235.44 191.97 245.39 192.44 253.77 195.46
  Q 263.12 198.84 270.55 203.98
  Q 292.73 219.34 297.47 246.08
  Z"
/>
<path d="
  M 1261.40 288.57
  C 1242.78 275.28 1215.75 274.24 1196.93 288.16
  Q 1183.87 297.82 1177.06 312.05
  A 1.08 1.07 24.1 0 1 1175.67 312.58
  Q 1166.76 308.86 1156.90 309.75
  C 1141.10 311.17 1132.94 320.20 1126.65 333.94
  A 0.88 0.87 -80.5 0 1 1125.94 334.45
  L 1124.71 334.60
  L 1012.05 334.84
  A 2.10 2.08 75.6 0 1 1010.19 333.73
  C 1001.62 317.77 1008.73 300.65 1022.63 290.89
  C 1030.12 285.64 1040.05 284.31 1049.20 285.60
  A 0.86 0.86 0.0 0 0 1050.18 284.78
  Q 1050.66 274.06 1056.03 264.49
  Q 1060.24 258.01 1064.80 253.53
  Q 1068.14 250.25 1072.66 247.89
  C 1082.54 242.73 1093.62 239.89 1104.83 242.46
  Q 1118.43 245.58 1128.72 255.20
  A 0.59 0.59 0.0 0 0 1129.64 255.06
  Q 1138.47 239.79 1152.01 230.01
  Q 1155.04 227.82 1162.11 224.44
  C 1175.18 218.18 1190.32 216.88 1204.88 219.18
  Q 1210.72 220.10 1214.69 221.84
  Q 1215.77 222.31 1224.03 226.00
  C 1230.12 228.72 1235.11 233.00 1240.41 237.25
  A 5.40 4.95 4.6 0 1 1241.45 238.37
  Q 1243.66 241.58 1245.16 242.60
  A 1.98 1.98 0.0 0 1 1245.71 243.15
  Q 1255.22 257.06 1258.57 268.69
  Q 1260.70 276.08 1261.40 288.57
  Z"
/>
<path d="
  M 1320.69 307.89
  Q 1326.29 319.65 1322.67 331.99
  A 1.58 1.56 -82.0 0 1 1321.18 333.12
  L 1283.00 333.43
  Q 1281.90 327.30 1280.87 321.20
  Q 1278.58 307.49 1269.84 297.15
  Q 1266.61 293.33 1264.72 289.80
  C 1268.16 288.67 1271.42 287.19 1274.85 286.36
  Q 1278.48 285.47 1280.07 285.40
  C 1298.11 284.57 1312.67 291.75 1320.69 307.89
  Z"
/>
<path d="
  M 437.90 501.84
  C 448.77 509.00 455.76 517.80 456.62 531.27
  A 1.27 1.27 0.0 0 1 455.35 532.62
  L 375.10 532.67
  Q 377.84 523.74 378.75 521.26
  Q 383.87 507.38 396.78 500.32
  Q 397.66 499.84 400.55 497.24
  C 404.85 498.06 409.94 496.42 413.18 496.17
  Q 426.48 495.12 437.90 501.84
  Z"
/>
<path d="
  M 1445.15 618.95
  L 1445.18 742.96
  Q 1444.79 744.72 1445.00 746.53
  A 0.15 0.15 0.0 0 1 1444.87 746.70
  L 1444.86 746.70
  A 0.16 0.16 0.0 0 1 1444.69 746.56
  Q 1443.71 738.37 1441.73 729.72
  C 1439.14 718.36 1433.92 709.37 1422.33 705.63
  Q 1408.16 701.05 1391.75 697.67
  Q 1382.57 695.77 1375.40 695.36
  C 1362.17 694.60 1352.44 695.99 1336.00 697.69
  C 1316.90 699.67 1298.19 699.98 1278.97 701.55
  Q 1252.47 703.73 1229.36 703.25
  Q 1171.05 702.07 1125.31 704.28
  Q 1120.86 704.49 1113.38 704.50
  C 1101.88 704.51 1089.63 703.01 1079.98 702.33
  C 1072.60 701.82 1059.76 702.94 1047.51 702.94
  C 1036.06 702.94 1024.21 702.59 1015.61 702.33
  C 1001.20 701.91 989.32 702.68 976.79 704.52
  Q 949.64 708.52 949.37 708.55
  Q 937.19 709.98 928.10 708.75
  Q 912.52 706.65 908.16 706.59
  Q 889.72 706.32 884.74 705.81
  Q 865.13 703.77 849.66 705.10
  Q 847.45 705.29 828.99 706.83
  C 818.65 707.69 809.14 707.42 799.64 705.98
  Q 783.45 703.54 779.57 703.09
  Q 760.67 700.91 741.25 703.01
  C 731.23 704.10 715.80 706.67 702.93 706.65
  Q 688.17 706.63 674.87 706.82
  C 671.40 706.87 667.22 706.53 663.94 706.05
  Q 639.66 702.48 615.34 700.79
  C 602.39 699.89 592.63 701.38 576.99 703.22
  C 560.89 705.12 550.38 704.53 533.31 704.23
  C 518.22 703.96 505.27 705.94 488.94 708.44
  C 470.00 711.35 451.65 708.76 432.35 706.03
  C 410.50 702.95 385.45 706.16 363.99 706.81
  Q 345.81 707.35 337.36 706.45
  Q 319.90 704.60 306.79 703.56
  C 291.94 702.38 276.41 698.80 261.52 700.53
  Q 240.42 702.98 232.17 703.72
  C 214.52 705.32 196.77 704.28 179.28 704.84
  Q 164.90 705.30 155.40 705.01
  Q 137.60 704.45 131.52 704.78
  Q 108.29 706.03 100.82 706.34
  C 87.33 706.91 71.21 705.99 61.28 705.90
  C 52.70 705.82 41.86 706.88 35.46 707.14
  Q 29.50 707.37 20.05 706.32
  Q 10.02 705.21 0.00 703.94
  L 0.00 584.69
  C 12.27 588.90 23.01 591.09 35.87 590.98
  C 55.12 590.81 65.98 591.41 91.71 592.55
  Q 100.08 592.92 111.88 591.65
  Q 138.43 588.79 155.47 587.66
  Q 181.87 585.90 210.68 587.91
  Q 254.32 590.94 295.93 595.71
  C 304.51 596.69 314.50 595.92 324.37 593.75
  C 337.68 590.83 352.36 588.80 365.61 590.57
  C 379.81 592.48 389.49 594.49 401.98 593.81
  Q 419.56 592.84 445.13 592.13
  C 461.53 591.67 477.86 589.68 494.16 589.86
  C 512.67 590.07 539.69 594.16 561.84 592.64
  Q 577.18 591.59 584.19 591.47
  C 594.30 591.30 607.13 595.02 614.85 595.75
  Q 630.40 597.22 649.83 595.75
  C 670.50 594.18 702.92 590.13 728.60 590.67
  C 746.41 591.04 760.62 591.82 779.35 591.61
  C 786.72 591.52 798.75 593.25 806.17 593.29
  C 822.30 593.38 835.90 590.81 852.80 587.17
  Q 858.70 585.91 868.86 585.81
  C 891.73 585.61 909.26 585.43 930.67 587.99
  Q 958.90 591.36 986.66 591.41
  Q 1002.14 591.44 1014.99 590.02
  C 1023.23 589.11 1038.25 586.31 1049.56 585.98
  Q 1064.64 585.55 1079.95 586.22
  C 1089.53 586.64 1103.16 590.12 1108.52 590.89
  C 1111.92 591.37 1116.94 592.15 1121.52 592.28
  Q 1142.19 592.85 1167.13 594.53
  Q 1185.04 595.74 1206.75 592.77
  Q 1237.74 588.52 1248.23 587.27
  C 1257.80 586.13 1266.55 586.65 1277.48 588.27
  C 1296.82 591.12 1314.84 593.18 1333.16 592.69
  C 1345.20 592.37 1357.60 591.57 1370.25 591.84
  Q 1393.91 592.34 1411.15 594.13
  C 1431.64 596.27 1440.22 607.68 1442.98 627.65
  Q 1444.33 637.41 1444.69 646.65
  A 0.17 0.17 0.0 0 0 1444.86 646.81
  L 1444.87 646.81
  A 0.17 0.17 0.0 0 0 1445.03 646.64
  L 1445.15 618.95
  Z"
/>
</g>
<path fill="#121a5a" d="
  M 1445.19 442.96
  L 1445.16 449.43
  A 0.25 0.22 87.5 0 1 1444.96 449.68
  L 1444.95 449.68
  A 0.22 0.22 0.0 0 1 1444.71 449.48
  C 1443.16 433.21 1443.93 418.01 1444.38 390.93
  C 1444.50 383.73 1443.39 373.69 1443.55 365.59
  Q 1443.56 365.58 1443.68 355.35
  Q 1443.74 349.93 1442.63 345.38
  C 1439.50 332.57 1435.51 323.07 1421.12 320.33
  C 1399.29 316.16 1378.16 322.13 1355.33 319.95
  C 1352.19 319.65 1346.04 318.88 1346.25 314.42
  C 1346.37 312.02 1343.77 311.31 1341.87 310.92
  Q 1331.46 308.79 1320.69 307.89
  C 1312.67 291.75 1298.11 284.57 1280.07 285.40
  Q 1278.48 285.47 1274.85 286.36
  C 1271.42 287.19 1268.16 288.67 1264.72 289.80
  L 1261.40 288.57
  Q 1260.70 276.08 1258.57 268.69
  Q 1255.22 257.06 1245.71 243.15
  A 1.98 1.98 0.0 0 0 1245.16 242.60
  Q 1243.66 241.58 1241.45 238.37
  A 5.40 4.95 4.6 0 0 1240.41 237.25
  C 1235.11 233.00 1230.12 228.72 1224.03 226.00
  Q 1215.77 222.31 1214.69 221.84
  Q 1210.72 220.10 1204.88 219.18
  C 1190.32 216.88 1175.18 218.18 1162.11 224.44
  Q 1155.04 227.82 1152.01 230.01
  Q 1138.47 239.79 1129.64 255.06
  A 0.59 0.59 0.0 0 1 1128.72 255.20
  Q 1118.43 245.58 1104.83 242.46
  C 1093.62 239.89 1082.54 242.73 1072.66 247.89
  Q 1068.14 250.25 1064.80 253.53
  Q 1060.24 258.01 1056.03 264.49
  Q 1043.07 262.56 1033.60 263.81
  Q 1015.36 266.23 1009.04 266.67
  C 993.83 267.72 982.66 266.14 965.86 264.10
  Q 953.90 262.64 939.43 262.49
  Q 931.02 262.41 927.73 261.52
  Q 907.81 256.19 887.74 251.45
  Q 891.35 252.12 892.03 248.85
  A 1.56 1.53 38.9 0 0 891.92 247.90
  Q 891.39 246.73 890.24 245.88
  L 887.47 244.65
  A 1.13 1.09 -44.6 0 0 886.54 244.66
  Q 868.01 253.45 847.48 255.65
  C 832.73 257.23 815.57 258.03 798.99 259.53
  C 784.31 260.86 771.13 261.82 757.72 260.64
  Q 751.48 260.09 733.83 257.77
  C 720.16 255.97 707.02 256.44 689.92 258.39
  Q 674.94 260.10 656.96 260.92
  C 646.91 261.37 634.07 263.40 624.98 263.68
  Q 613.98 264.03 601.77 261.27
  Q 585.05 257.50 570.23 253.21
  Q 568.19 252.62 561.17 249.83
  Q 564.14 242.05 556.54 242.07
  A 1.81 1.79 -60.3 0 0 555.61 242.33
  Q 551.85 244.62 554.02 249.47
  C 536.86 257.23 515.40 262.52 496.73 264.53
  Q 489.00 265.36 472.08 265.61
  Q 447.33 265.99 423.24 267.09
  Q 404.26 267.96 389.34 264.02
  Q 373.83 259.93 358.25 256.00
  Q 352.54 248.67 343.92 244.84
  Q 336.76 241.67 332.40 240.90
  Q 325.20 239.62 315.96 240.74
  C 311.77 241.24 308.29 242.49 303.47 243.90
  Q 302.88 244.07 300.55 245.22
  Q 298.94 246.01 297.47 246.08
  Q 292.73 219.34 270.55 203.98
  Q 263.12 198.84 253.77 195.46
  C 245.39 192.44 235.44 191.97 227.08 192.41
  Q 222.44 192.65 215.95 194.66
  Q 209.18 196.76 205.31 198.50
  Q 193.49 203.84 184.98 213.37
  Q 178.31 220.85 173.86 228.89
  A 0.62 0.62 0.0 0 1 173.02 229.13
  C 164.51 224.32 156.24 221.58 146.27 222.16
  C 135.16 222.82 125.31 227.05 117.35 234.85
  Q 111.92 240.16 110.15 243.13
  Q 102.71 255.61 103.83 270.29
  A 0.64 0.64 0.0 0 1 103.51 270.89
  Q 102.76 271.30 101.50 270.68
  Q 94.10 261.59 82.12 259.37
  Q 73.21 257.71 65.21 257.50
  Q 50.89 257.11 32.16 257.43
  Q 23.27 257.57 0.00 255.98
  L 0.00 109.99
  L 1444.80 110.00
  A 0.36 0.36 0.0 0 1 1445.16 110.36
  L 1445.19 442.96
  Z"
/>
<g fill="#152687">
<path d="
  M 358.25 256.00
  Q 364.12 263.67 365.16 266.11
  Q 373.46 285.44 365.05 304.74
  Q 363.92 307.33 361.75 308.01
  A 2.61 2.57 35.9 0 1 360.97 308.13
  L 228.38 308.10
  C 230.23 282.12 252.11 266.19 277.57 270.53
  A 1.18 1.17 -73.8 0 0 278.85 269.82
  Q 283.92 257.25 294.48 248.96
  C 295.53 248.13 296.47 247.02 297.47 246.08
  Q 298.94 246.01 300.55 245.22
  Q 302.88 244.07 303.47 243.90
  C 308.29 242.49 311.77 241.24 315.96 240.74
  Q 325.20 239.62 332.40 240.90
  Q 336.76 241.67 343.92 244.84
  Q 352.54 248.67 358.25 256.00
  Z"
/>
<path d="
  M 1261.40 288.57
  L 1264.72 289.80
  Q 1266.61 293.33 1269.84 297.15
  Q 1278.58 307.49 1280.87 321.20
  Q 1281.90 327.30 1283.00 333.43
  L 1280.56 340.72
  A 1.75 1.74 -80.7 0 1 1278.91 341.91
  L 1127.70 341.91
  A 1.16 1.15 -8.0 0 1 1126.59 341.08
  L 1124.71 334.60
  L 1125.94 334.45
  A 0.88 0.87 -80.5 0 0 1126.65 333.94
  C 1132.94 320.20 1141.10 311.17 1156.90 309.75
  Q 1166.76 308.86 1175.67 312.58
  A 1.08 1.07 24.1 0 0 1177.06 312.05
  Q 1183.87 297.82 1196.93 288.16
  C 1215.75 274.24 1242.78 275.28 1261.40 288.57
  Z"
/>
<path d="
  M 1445.18 586.97
  L 1445.15 618.95
  L 1445.03 646.64
  A 0.17 0.17 0.0 0 1 1444.87 646.81
  L 1444.86 646.81
  A 0.17 0.17 0.0 0 1 1444.69 646.65
  Q 1444.33 637.41 1442.98 627.65
  C 1440.22 607.68 1431.64 596.27 1411.15 594.13
  Q 1393.91 592.34 1370.25 591.84
  C 1357.60 591.57 1345.20 592.37 1333.16 592.69
  C 1314.84 593.18 1296.82 591.12 1277.48 588.27
  C 1266.55 586.65 1257.80 586.13 1248.23 587.27
  Q 1237.74 588.52 1206.75 592.77
  Q 1185.04 595.74 1167.13 594.53
  Q 1142.19 592.85 1121.52 592.28
  C 1116.94 592.15 1111.92 591.37 1108.52 590.89
  C 1103.16 590.12 1089.53 586.64 1079.95 586.22
  Q 1064.64 585.55 1049.56 585.98
  C 1038.25 586.31 1023.23 589.11 1014.99 590.02
  Q 1002.14 591.44 986.66 591.41
  Q 958.90 591.36 930.67 587.99
  C 909.26 585.43 891.73 585.61 868.86 585.81
  Q 858.70 585.91 852.80 587.17
  C 835.90 590.81 822.30 593.38 806.17 593.29
  C 798.75 593.25 786.72 591.52 779.35 591.61
  C 760.62 591.82 746.41 591.04 728.60 590.67
  C 702.92 590.13 670.50 594.18 649.83 595.75
  Q 630.40 597.22 614.85 595.75
  C 607.13 595.02 594.30 591.30 584.19 591.47
  Q 577.18 591.59 561.84 592.64
  C 539.69 594.16 512.67 590.07 494.16 589.86
  C 477.86 589.68 461.53 591.67 445.13 592.13
  Q 419.56 592.84 401.98 593.81
  C 389.49 594.49 379.81 592.48 365.61 590.57
  C 352.36 588.80 337.68 590.83 324.37 593.75
  C 314.50 595.92 304.51 596.69 295.93 595.71
  Q 254.32 590.94 210.68 587.91
  Q 181.87 585.90 155.47 587.66
  Q 138.43 588.79 111.88 591.65
  Q 100.08 592.92 91.71 592.55
  C 65.98 591.41 55.12 590.81 35.87 590.98
  C 23.01 591.09 12.27 588.90 0.00 584.69
  L 0.00 510.05
  C 10.58 506.00 19.60 507.05 31.24 508.70
  C 43.04 510.36 59.63 508.55 67.93 508.52
  Q 83.55 508.46 105.03 509.90
  Q 112.15 510.38 120.91 509.19
  Q 132.13 507.66 135.18 507.61
  C 146.96 507.39 157.23 509.20 171.16 510.78
  Q 185.64 512.43 200.70 511.45
  C 209.33 510.88 221.21 507.47 228.80 506.53
  Q 241.64 504.95 251.38 507.41
  Q 265.54 511.00 274.62 512.00
  Q 273.78 522.83 279.46 531.51
  A 3.00 2.98 73.1 0 0 281.95 532.85
  L 375.10 532.67
  L 455.35 532.62
  A 1.27 1.27 0.0 0 0 456.62 531.27
  C 455.76 517.80 448.77 509.00 437.90 501.84
  C 450.58 502.78 465.59 504.79 476.29 504.50
  C 489.56 504.15 498.07 502.80 514.95 500.36
  C 533.13 497.74 548.93 499.27 569.88 500.75
  C 577.28 501.28 586.32 500.65 596.20 499.73
  Q 629.88 496.59 665.19 498.71
  C 673.56 499.21 686.07 499.62 695.44 501.27
  Q 706.34 503.18 717.40 505.38
  C 723.40 506.57 731.23 506.73 738.33 506.61
  Q 778.01 505.95 792.07 506.42
  Q 841.46 508.07 849.14 508.16
  C 861.08 508.29 868.84 507.58 888.52 506.50
  C 909.08 505.37 930.08 502.02 949.93 500.50
  C 963.60 499.45 977.01 496.54 991.01 497.75
  Q 998.31 498.39 1010.33 500.92
  Q 1023.11 503.61 1035.87 503.67
  Q 1040.99 503.70 1058.40 502.02
  C 1074.73 500.44 1093.87 500.08 1111.22 502.68
  C 1121.05 504.15 1129.06 505.33 1138.44 505.62
  C 1146.88 505.88 1158.61 504.27 1165.22 504.59
  Q 1191.22 505.82 1223.84 505.19
  Q 1232.47 505.02 1258.58 506.59
  C 1274.39 507.55 1290.43 505.07 1309.38 503.28
  C 1323.27 501.97 1336.13 502.20 1354.99 502.82
  C 1363.21 503.09 1371.05 502.78 1379.71 502.54
  C 1393.45 502.16 1406.91 505.69 1419.44 510.01
  C 1436.61 515.93 1440.77 531.20 1442.31 547.64
  Q 1444.15 567.26 1445.18 586.97
  Z"
/>
</g>
<path fill="#1a3aa9" d="
  M 1133.49 639.92
  A 3.55 3.55 0.0 0 1 1132.27 643.68
  C 1125.77 648.79 1120.50 653.14 1117.31 661.14
  A 1.11 1.11 0.0 0 1 1115.86 661.75
  C 1097.49 654.31 1075.31 660.94 1072.27 682.90
  A 1.21 1.20 4.6 0 1 1071.05 683.93
  C 1048.12 683.47 1017.46 683.92 989.00 683.52
  Q 985.93 683.48 985.11 680.64
  C 980.24 663.81 986.48 648.13 1000.92 638.50
  Q 1012.75 630.62 1028.83 633.39
  Q 1035.03 634.45 1039.78 637.31
  A 0.49 0.48 27.3 0 0 1040.48 637.09
  C 1047.67 620.60 1063.42 608.99 1081.24 606.82
  C 1095.05 605.14 1108.30 610.01 1119.38 618.47
  C 1124.06 622.04 1126.65 626.54 1130.05 632.19
  Q 1132.40 636.10 1133.49 639.92
  Z"
/>
<g fill="#ffffff">
<circle cx="941.12" cy="158.30" r="3.87"/>
<circle cx="116.15" cy="164.58" r="3.12"/>
<circle cx="436.12" cy="166.08" r="3.89"/>
<circle cx="1309.33" cy="173.66" r="3.89"/>
<circle cx="735.65" cy="198.21" r="4.79"/>
<circle cx="668.51" cy="333.24" r="3.88"/>
<circle cx="458.80" cy="340.07" r="3.82"/>
<circle cx="811.29" cy="345.38" r="3.89"/>
<circle cx="165.13" cy="379.21" r="4.66"/>
<circle cx="1323.25" cy="421.15" r="4.62"/>
<circle cx="961.56" cy="426.18" r="5.30"/>
<circle cx="280.35" cy="430.40" r="4.33"/>
<circle cx="1150.90" cy="452.44" r="4.30"/>
<circle cx="536.55" cy="454.04" r="4.43"/>
<circle cx="70.46" cy="476.21" r="5.01"/>
<ellipse cx="0.00" cy="0.00" transform="translate(701.67,516.32) rotate(-80.4)" rx="3.89" ry="3.78"/>
<circle cx="1075.69" cy="527.32" r="3.67"/>
<circle cx="193.00" cy="540.88" r="3.89"/>
<circle cx="1268.14" cy="560.55" r="4.04"/>
<circle cx="906.44" cy="568.97" r="4.41"/>
<circle cx="480.33" cy="605.83" r="4.90"/>
<circle cx="117.93" cy="617.68" r="3.76"/>
<circle cx="767.98" cy="641.56" r="4.72"/>
<circle cx="1336.16" cy="657.98" r="5.30"/>
<circle cx="601.38" cy="680.27" r="3.81"/>
<circle cx="254.01" cy="695.78" r="5.31"/>
<circle cx="861.95" cy="742.37" r="3.87"/>
<circle cx="1238.67" cy="746.15" r="3.82"/>
<circle cx="83.74" cy="750.23" r="3.97"/>
<ellipse cx="0.00" cy="0.00" transform="translate(383.03,770.03) rotate(-113.6)" rx="5.07" ry="4.93"/>
<circle cx="1067.57" cy="783.22" r="4.34"/>
</g>
</svg>
