<?xml version='1.0' encoding='UTF-8'?>
<svg xmlns="http://www.w3.org/2000/svg" version="1.1" viewBox="0.00 0.00 1536.00 1024.00"><path fill="#fefdfd" d="   M 1536.00 0.00   L 1536.00 1024.00   L 0.00 1024.00   L 0.00 0.00   L 1536.00 0.00   Z"/>
<g id="scene"><g id="leash"><path stroke="#234b44" vector-effect="non-scaling-stroke" d="   M 536.09 553.64   Q 518.53 555.24 490.25 555.17   Q 455.82 555.07 432.09 553.18   Q 430.17 553.03 426.95 552.58   Q 424.35 552.22 421.82 552.00"/>
</g><g id="boy"><g id="boy-head"><path stroke="#373e57" vector-effect="non-scaling-stroke" d="   M 470.07 237.34   L 426.87 249.25"/>
<path stroke="#91935d" vector-effect="non-scaling-stroke" d="   M 515.90 340.72   L 515.62 348.83   A 0.91 0.91 0.0 0 1 514.16 349.51   Q 510.48 346.67 506.69 344.16   C 501.47 340.71 495.80 338.23 490.86 335.58   Q 487.32 333.67 482.83 331.97   Q 471.50 327.68 460.17 324.82"/>
<path stroke="#996742" vector-effect="non-scaling-stroke" d="   M 463.51 314.79   Q 466.08 308.16 468.99 301.85   C 470.03 299.58 470.41 297.87 471.32 295.06   A 0.72 0.71 6.9 0 0 470.59 294.13   Q 462.91 294.63 457.87 289.41   C 451.59 282.91 448.63 271.01 451.72 262.38   C 456.64 248.67 474.37 249.50 478.80 263.01   Q 479.34 264.65 480.49 268.46   A 2.55 2.55 0.0 0 0 482.80 270.27   C 490.07 270.65 492.67 264.26 494.37 258.63   Q 497.22 249.22 497.76 240.76"/>
<path stroke="#17693c" vector-effect="non-scaling-stroke" d="   M 405.71 389.82   Q 406.32 389.55 406.47 389.28   Q 412.80 377.83 421.04 367.67   C 426.77 360.60 431.31 357.17 439.93 353.90   Q 440.96 353.51 441.37 352.83   A 0.94 0.94 0.0 0 0 440.60 351.41   Q 437.92 351.28 434.80 352.06   Q 424.58 354.62 415.92 360.90   C 407.07 367.31 404.67 377.08 403.31 387.75"/>
<path d="   M 470.07 237.34   Q 483.78 241.38 497.76 240.76   Q 497.22 249.22 494.37 258.63   C 492.67 264.26 490.07 270.65 482.80 270.27   A 2.55 2.55 0.0 0 1 480.49 268.46   Q 479.34 264.65 478.80 263.01   C 474.37 249.50 456.64 248.67 451.72 262.38   C 448.63 271.01 451.59 282.91 457.87 289.41   Q 462.91 294.63 470.59 294.13   A 0.72 0.71 6.9 0 1 471.32 295.06   C 470.41 297.87 470.03 299.58 468.99 301.85   Q 466.08 308.16 463.51 314.79   Q 443.42 302.79 434.18 281.81   Q 428.94 269.92 427.77 257.47   Q 427.76 257.40 427.78 253.55   Q 427.80 251.27 426.87 249.25   L 470.07 237.34   Z"/>
<path d="   M 405.71 389.82   L 403.31 387.75   C 404.67 377.08 407.07 367.31 415.92 360.90   Q 424.58 354.62 434.80 352.06   Q 437.92 351.28 440.60 351.41   A 0.94 0.94 0.0 0 1 441.37 352.83   Q 440.96 353.51 439.93 353.90   C 431.31 357.17 426.77 360.60 421.04 367.67   Q 412.80 377.83 406.47 389.28   Q 406.32 389.55 405.71 389.82   Z"/>
<ellipse fill="#3b5e9c" cx="0.00" cy="0.00" transform="translate(1207.02,617.13) rotate(-57.4)" rx="2.71" ry="2.34"/>
<ellipse cx="0.00" cy="0.00" transform="translate(542.05,262.55) rotate(-97.0)" rx="12.48" ry="6.75"/>
<ellipse cx="0.00" cy="0.00" transform="translate(1148.59,620.28) rotate(-90.9)" rx="10.73" ry="6.92"/>
<path d="   M 500.09 373.73   Q 499.24 373.97 498.18 372.87   C 492.03 366.50 483.23 360.88 474.32 358.71   C 469.15 357.46 462.75 356.53 458.20 354.10   A 2.25 2.24 -68.4 0 1 457.09 351.53   Q 457.70 349.24 459.68 349.15   Q 470.06 348.67 478.60 350.33   C 488.83 352.33 500.78 359.30 502.24 370.54   A 2.99 2.91 -11.8 0 1 500.09 373.73   Z"/>
<path d="   M 418.38 492.16   Q 417.01 488.86 417.40 484.62   Q 417.63 482.15 420.62 477.83   Q 430.19 463.98 437.09 454.43   C 439.97 450.44 441.56 446.13 444.29 442.81   C 449.45 436.55 453.97 428.05 459.11 421.92   Q 460.43 420.35 466.12 412.51   A 0.37 0.37 0.0 0 1 466.79 412.77   Q 464.74 430.57 455.66 445.43   Q 448.21 457.62 446.20 460.67   Q 443.81 464.32 442.68 465.78   C 440.97 467.98 439.67 470.22 437.66 472.34   Q 433.09 477.16 426.11 485.36   Q 422.85 489.18 419.02 492.32   A 0.41 0.41 0.0 0 1 418.38 492.16   Z"/>
<path d="   M 504.11 462.61   A 0.83 0.83 0.0 0 1 505.37 463.25   C 505.78 467.99 504.61 471.65 503.02 478.13   C 500.35 489.02 494.99 499.01 487.99 507.75   C 484.12 512.57 480.54 513.61 475.07 510.15   C 471.83 508.09 472.69 505.98 474.41 503.11   C 477.42 498.09 479.55 494.11 482.96 489.66   Q 488.03 483.02 490.18 479.59   C 493.35 474.53 498.61 468.19 501.88 464.38   Q 502.63 463.50 504.11 462.61   Z"/>
</g><g id="boy-torso"><path stroke="#906959" vector-effect="non-scaling-stroke" d="   M 567.99 241.69   L 565.25 234.13   A 0.58 0.57 72.6 0 0 564.57 233.77   Q 542.41 239.69 519.53 240.62   Q 508.88 241.05 497.76 240.76"/>
<path stroke="#91935d" vector-effect="non-scaling-stroke" d="   M 382.97 526.65   Q 369.56 522.10 360.04 516.97   Q 357.41 515.55 349.76 510.41"/>
<path stroke="#8f684d" vector-effect="non-scaling-stroke" d="   M 681.35 524.53   L 679.85 526.79   A 1.99 1.92 -86.1 0 1 679.13 527.44   Q 672.44 530.82 667.35 526.52"/>
<path stroke="#fed7b7" vector-effect="non-scaling-stroke" d="   M 667.35 526.52   Q 664.65 523.02 661.37 520.48   A 0.56 0.56 0.0 0 0 660.57 521.25   L 662.53 524.03"/>
<path stroke="#8f684d" vector-effect="non-scaling-stroke" d="   M 662.53 524.03   Q 662.59 528.21 662.61 532.01   C 662.62 533.65 663.25 534.56 664.74 534.89   A 0.64 0.64 0.0 0 1 665.01 536.01   Q 659.77 540.26 653.00 539.97   Q 647.82 539.74 643.79 538.52"/>
<path stroke="#8f684d" vector-effect="non-scaling-stroke" d="   M 635.25 530.35   L 635.19 525.58   A 0.66 0.65 -84.5 0 0 634.68 524.95   L 627.95 523.51"/>
<path d="   M 667.35 526.52   L 662.53 524.03   L 660.57 521.25   A 0.56 0.56 0.0 0 1 661.37 520.48   Q 664.65 523.02 667.35 526.52   Z"/>
<path d="   M 567.99 241.69   L 565.25 234.13   A 0.58 0.57 72.6 0 0 564.57 233.77   Q 542.41 239.69 519.53 240.62   Q 508.88 241.05 497.76 240.76   Q 483.78 241.38 470.07 237.34   L 569.44 209.13   Q 577.91 206.96 586.11 205.34   Q 597.96 203.00 608.22 203.59   C 615.86 204.04 625.23 208.72 622.40 217.90   A 3.84 3.67 73.8 0 1 621.81 219.03   Q 617.27 225.00 610.47 228.49   C 597.02 235.41 582.83 239.00 567.99 241.69   Z"/>
<path d="   M 536.09 553.64   C 541.87 565.63 548.43 578.24 553.57 589.39   C 558.73 600.54 563.81 610.31 568.35 620.25   C 574.20 633.07 579.77 644.24 585.21 656.63   C 590.31 668.25 593.88 675.44 597.40 684.26   Q 601.05 693.44 607.17 707.11   C 613.51 721.30 619.29 735.85 625.07 750.40   Q 621.52 753.47 617.93 756.55   C 613.30 760.52 609.00 763.34 604.44 766.70   Q 600.93 769.29 598.27 770.95   Q 583.30 780.32 566.96 786.89   Q 565.16 787.48 563.78 787.15   A 1.00 1.00 0.0 0 1 563.07 786.53   Q 550.38 753.27 538.71 728.87   Q 525.80 701.91 524.58 700.03   C 523.45 698.28 522.57 695.40 521.36 693.16   Q 499.70 652.81 491.71 640.04   Q 482.79 625.78 480.35 621.88   A 0.32 0.31 -48.0 0 0 479.80 621.91   Q 474.70 632.45 472.26 638.11   C 469.21 645.15 467.48 648.33 464.41 654.50   Q 462.81 657.72 460.62 660.68   Q 443.36 683.97 434.17 694.68   Q 427.27 702.73 426.38 703.90   Q 422.18 709.42 418.59 713.11   Q 415.22 716.58 406.98 726.15   C 401.51 732.50 395.99 737.79 390.34 743.94   Q 388.21 746.26 383.40 750.81   Q 376.21 757.61 369.65 764.71   Q 368.79 765.24 368.49 765.03   Q 356.49 757.24 347.91 751.08   Q 335.00 741.81 323.90 729.35   Q 321.33 726.46 320.02 724.19   Q 318.44 721.43 318.55 718.37   A 1.18 1.18 0.0 0 1 318.92 717.56   C 323.40 713.35 328.77 708.43 332.52 703.71   Q 335.22 700.30 338.73 696.96   C 343.14 692.76 347.96 686.46 351.71 682.41   C 357.99 675.63 361.86 670.41 368.86 661.87   Q 385.36 641.71 401.61 617.88   A 5.24 5.14 -20.0 0 0 402.29 616.46   L 421.82 552.00   Q 424.35 552.22 426.95 552.58   Q 430.17 553.03 432.09 553.18   Q 455.82 555.07 490.25 555.17   Q 518.53 555.24 536.09 553.64   Z"/>
<path fill="#247448" d="   M 460.17 324.82   Q 471.50 327.68 482.83 331.97   Q 487.32 333.67 490.86 335.58   C 495.80 338.23 501.47 340.71 506.69 344.16   Q 510.48 346.67 514.16 349.51   A 0.91 0.91 0.0 0 0 515.62 348.83   L 515.90 340.72   C 521.66 341.98 525.03 342.60 529.15 346.15   Q 530.22 350.65 531.54 355.06   C 532.96 359.79 532.68 363.93 532.27 369.39   C 531.58 378.72 535.77 385.85 537.89 394.79   Q 541.17 408.67 543.75 423.96   Q 546.48 440.13 549.15 453.19   Q 552.57 469.95 555.75 491.80   Q 555.79 492.09 556.29 492.78   Q 555.88 492.85 555.94 493.25   C 557.80 506.28 560.40 522.00 559.32 536.26   Q 558.59 545.86 549.93 550.18   Q 546.62 551.83 536.09 553.64   Q 518.53 555.24 490.25 555.17   Q 455.82 555.07 432.09 553.18   Q 430.17 553.03 426.95 552.58   Q 424.35 552.22 421.82 552.00   Q 421.79 551.39 420.64 551.09   C 413.25 549.09 406.04 545.68 404.99 537.49   Q 404.43 533.13 405.53 527.48   Q 409.45 507.23 415.54 488.44   A 0.35 0.35 0.0 0 0 414.92 488.14   C 412.45 491.85 409.17 496.99 406.14 501.10   Q 393.50 518.29 389.03 524.78   Q 386.67 528.19 382.97 526.65   Q 369.56 522.10 360.04 516.97   Q 357.41 515.55 349.76 510.41   Q 346.77 508.14 346.09 504.37   A 2.24 2.23 -39.8 0 1 346.20 503.18   C 352.57 486.22 360.35 470.27 369.25 453.23   Q 380.38 431.88 391.28 413.00   C 393.29 409.52 395.53 406.42 397.39 403.17   Q 401.13 396.61 405.62 390.44   Q 405.77 390.24 405.71 389.82   Q 406.32 389.55 406.47 389.28   Q 412.80 377.83 421.04 367.67   C 426.77 360.60 431.31 357.17 439.93 353.90   Q 440.96 353.51 441.37 352.83   A 0.94 0.94 0.0 0 0 440.60 351.41   Q 437.92 351.28 434.80 352.06   Q 424.58 354.62 415.92 360.90   C 407.07 367.31 404.67 377.08 403.31 387.75   C 391.60 380.35 387.72 362.87 387.26 350.27   Q 386.86 339.55 390.92 331.41   C 395.16 322.90 405.27 320.36 413.75 319.76   C 428.90 318.69 444.95 320.89 460.17 324.82   Z"/>
<path d="   M 567.99 241.69   Q 569.44 248.54 572.53 267.87   C 575.05 283.59 571.82 297.00 562.17 309.36   Q 546.18 329.83 517.53 330.49   A 0.60 0.60 0.0 0 0 516.94 331.03   L 515.90 340.72   L 515.62 348.83   A 0.91 0.91 0.0 0 1 514.16 349.51   Q 510.48 346.67 506.69 344.16   C 501.47 340.71 495.80 338.23 490.86 335.58   Q 487.32 333.67 482.83 331.97   Q 471.50 327.68 460.17 324.82   L 463.51 314.79   Q 466.08 308.16 468.99 301.85   C 470.03 299.58 470.41 297.87 471.32 295.06   A 0.72 0.71 6.9 0 0 470.59 294.13   Q 462.91 294.63 457.87 289.41   C 451.59 282.91 448.63 271.01 451.72 262.38   C 456.64 248.67 474.37 249.50 478.80 263.01   Q 479.34 264.65 480.49 268.46   A 2.55 2.55 0.0 0 0 482.80 270.27   C 490.07 270.65 492.67 264.26 494.37 258.63   Q 497.22 249.22 497.76 240.76   Q 508.88 241.05 519.53 240.62   Q 542.41 239.69 564.57 233.77   A 0.58 0.57 72.6 0 1 565.25 234.13   L 567.99 241.69   Z"/>
<path d="   M 682.00 523.29   Q 681.40 523.51 681.35 524.53   L 679.85 526.79   A 1.99 1.92 -86.1 0 1 679.13 527.44   Q 672.44 530.82 667.35 526.52   Q 664.65 523.02 661.37 520.48   A 0.56 0.56 0.0 0 0 660.57 521.25   L 662.53 524.03   Q 662.59 528.21 662.61 532.01   C 662.62 533.65 663.25 534.56 664.74 534.89   A 0.64 0.64 0.0 0 1 665.01 536.01   Q 659.77 540.26 653.00 539.97   Q 647.82 539.74 643.79 538.52   Q 639.03 535.13 635.25 530.35   L 635.19 525.58   A 0.66 0.65 -84.5 0 0 634.68 524.95   L 627.95 523.51   Q 626.29 521.46 622.89 520.90   L 641.37 490.32   Q 644.31 491.56 648.05 492.50   Q 652.97 493.72 654.81 494.41   Q 667.65 499.26 677.25 507.76   C 681.05 511.12 681.99 517.87 682.00 523.29   Z"/>
<path d="   M 382.97 526.65   Q 379.91 538.10 378.99 551.74   C 378.29 562.13 370.62 568.60 361.69 572.21   Q 353.86 575.38 345.93 573.05   C 338.64 570.92 332.19 567.22 329.04 560.19   C 321.41 543.20 334.19 529.80 344.37 517.72   Q 347.25 514.29 349.76 510.41   Q 357.41 515.55 360.04 516.97   Q 369.56 522.10 382.97 526.65   Z"/>
<path d="   M 635.25 530.35   Q 635.91 536.69 643.79 538.52   Q 647.82 539.74 653.00 539.97   Q 659.77 540.26 665.01 536.01   A 0.64 0.64 0.0 0 0 664.74 534.89   C 663.25 534.56 662.62 533.65 662.61 532.01   Q 662.59 528.21 662.53 524.03   L 667.35 526.52   Q 672.44 530.82 679.13 527.44   A 1.99 1.92 -86.1 0 0 679.85 526.79   L 681.35 524.53   Q 681.75 524.57 681.86 524.97   Q 681.27 529.59 679.27 533.05   A 1.38 1.38 0.0 0 0 679.82 534.96   Q 694.45 542.78 694.57 542.85   Q 699.28 545.55 709.49 550.44   Q 715.14 553.15 724.72 557.93   C 737.26 564.19 743.25 566.62 759.51 573.77   Q 769.54 578.18 779.14 581.90   Q 805.49 592.10 807.99 593.01   Q 860.15 611.81 914.08 624.59   Q 925.60 627.32 946.75 631.28   Q 982.45 637.96 1016.50 639.94   Q 1019.24 640.10 1027.74 640.06   Q 1026.17 641.88 1022.63 646.61   Q 1021.58 648.00 1020.05 648.18   Q 974.67 646.00 930.25 636.46   Q 924.20 635.17 905.05 630.75   Q 890.50 627.40 879.99 624.46   Q 834.67 611.79 794.18 596.53   C 777.34 590.18 757.43 582.20 740.42 574.35   Q 706.36 558.64 673.00 540.37   A 1.59 1.58 45.2 0 0 671.48 540.36   Q 667.50 542.53 663.31 544.27   C 651.89 549.03 634.85 548.86 628.13 536.60   Q 624.94 530.80 627.95 523.51   L 634.68 524.95   A 0.66 0.65 -84.5 0 1 635.19 525.58   L 635.25 530.35   Z"/>
<path d="   M 529.15 346.15   Q 535.05 353.23 534.32 363.51   Q 533.97 368.55 533.38 373.06   A 5.01 5.00 -48.1 0 0 533.48 374.94   L 535.78 384.45   A 1.25 1.18 -73.6 0 0 536.04 384.96   Q 537.44 386.53 544.24 396.84   Q 547.95 402.47 550.49 405.65   C 555.45 411.86 560.25 418.98 565.56 424.74   C 570.15 429.72 572.68 434.07 577.18 438.17   C 583.67 444.07 589.41 450.34 596.50 456.01   Q 611.62 468.08 625.89 477.96   Q 626.22 478.19 632.13 481.89   Q 637.74 485.39 641.37 490.32   L 622.89 520.90   L 620.20 523.73   A 3.65 3.63 27.2 0 1 616.87 524.79   C 614.84 524.39 611.93 523.84 609.72 522.99   Q 597.79 518.42 596.00 517.49   Q 575.20 506.66 556.29 492.78   Q 555.79 492.09 555.75 491.80   Q 552.57 469.95 549.15 453.19   Q 546.48 440.13 543.75 423.96   Q 541.17 408.67 537.89 394.79   C 535.77 385.85 531.58 378.72 532.27 369.39   C 532.68 363.93 532.96 359.79 531.54 355.06   Q 530.22 350.65 529.15 346.15   Z"/>
</g><g id="boy-arm_back"/><g id="boy-arm_front"/><g id="boy-leg_back"><path stroke="#513131" vector-effect="non-scaling-stroke" d="   M 368.49 765.03   Q 356.49 757.24 347.91 751.08   Q 335.00 741.81 323.90 729.35   Q 321.33 726.46 320.02 724.19"/>
<path d="   M 320.02 724.19   Q 321.33 726.46 323.90 729.35   Q 335.00 741.81 347.91 751.08   Q 356.49 757.24 368.49 765.03   Q 375.48 769.64 382.33 774.48   C 386.64 777.52 389.50 780.40 393.55 784.21   C 398.10 788.49 402.53 794.75 403.42 801.01   C 404.14 806.08 402.88 809.44 402.72 814.05   C 396.19 822.16 384.43 820.78 375.23 818.51   Q 350.37 812.38 328.57 799.38   C 313.28 790.26 299.82 780.97 289.61 767.32   C 285.88 762.33 285.97 757.88 289.53 752.77   C 297.32 741.60 307.86 730.65 320.02 724.19   Z"/>
</g><g id="boy-leg_front"><path stroke="#492826" vector-effect="non-scaling-stroke" d="   M 369.65 764.71   Q 368.79 765.24 368.49 765.03"/>
<path stroke="#793816" vector-effect="non-scaling-stroke" d="   M 368.49 765.03   Q 375.48 769.64 382.33 774.48   C 386.64 777.52 389.50 780.40 393.55 784.21   C 398.10 788.49 402.53 794.75 403.42 801.01   C 404.14 806.08 402.88 809.44 402.72 814.05"/>
<path d="   M 369.65 764.71   Q 375.48 768.46 381.30 772.44   Q 388.63 777.45 392.27 781.07   C 400.03 788.77 411.56 802.66 402.72 814.05   C 402.88 809.44 404.14 806.08 403.42 801.01   C 402.53 794.75 398.10 788.49 393.55 784.21   C 389.50 780.40 386.64 777.52 382.33 774.48   Q 375.48 769.64 368.49 765.03   Q 368.79 765.24 369.65 764.71   Z"/>
</g></g><g id="dog"><g id="dog-tail"><path stroke="#2e3f62" vector-effect="non-scaling-stroke" d="   M 1027.74 640.06   Q 1026.17 641.88 1022.63 646.61   Q 1021.58 648.00 1020.05 648.18"/>
<path stroke="#7b5d58" vector-effect="non-scaling-stroke" d="   M 1020.99 655.60   Q 1025.35 663.93 1030.72 671.55   Q 1034.56 677.01 1039.40 681.97   Q 1045.38 688.09 1049.42 691.09   Q 1063.12 701.29 1081.13 707.60   Q 1091.86 711.35 1107.98 712.22"/>
<path stroke="#96450f" vector-effect="non-scaling-stroke" d="   M 1095.13 726.84   Q 1093.15 728.37 1091.19 729.94   C 1087.44 732.93 1084.40 736.61 1081.00 739.92   Q 1078.97 741.90 1074.66 746.73   Q 1067.91 754.30 1060.75 761.45"/>
<path stroke="#7b5d58" vector-effect="non-scaling-stroke" d="   M 1119.63 685.03   Q 1117.44 685.65 1115.04 685.25   C 1107.99 684.07 1098.10 682.50 1090.83 679.44   Q 1080.38 675.05 1076.63 672.82   Q 1068.86 668.21 1062.78 661.93   Q 1055.41 654.32 1052.79 647.48   Q 1049.60 639.17 1051.05 629.70"/>
<path stroke="#52260f" vector-effect="non-scaling-stroke" d="   M 950.14 762.05   Q 947.90 763.78 947.73 767.43   C 947.51 772.18 946.38 777.43 947.20 782.02   Q 948.84 791.19 956.39 796.29"/>
<path d="   M 950.14 762.05   Q 948.31 773.35 949.94 783.26   Q 951.17 790.80 956.39 796.29   Q 948.84 791.19 947.20 782.02   C 946.38 777.43 947.51 772.18 947.73 767.43   Q 947.90 763.78 950.14 762.05   Z"/>
<path d="   M 1095.13 726.84   Q 1106.25 739.98 1116.63 753.14   C 1120.38 757.89 1124.00 761.41 1127.82 766.15   C 1133.11 772.73 1138.35 778.35 1143.81 782.94   Q 1148.19 786.63 1152.15 788.12   C 1157.46 790.12 1165.36 792.86 1167.48 798.49   C 1171.65 809.59 1156.30 815.21 1148.00 815.67   Q 1138.44 816.21 1132.53 814.68   Q 1122.30 812.04 1113.56 806.68   C 1107.44 802.92 1102.04 799.47 1096.28 794.86   Q 1077.60 779.92 1060.75 761.45   Q 1067.91 754.30 1074.66 746.73   Q 1078.97 741.90 1081.00 739.92   C 1084.40 736.61 1087.44 732.93 1091.19 729.94   Q 1093.15 728.37 1095.13 726.84   Z"/>
<circle cx="1107.19" cy="697.75" r="5.82"/>
<path fill="#712f0b" d="   M 1071.97 645.36   C 1069.60 631.39 1071.26 616.31 1079.39 604.41   Q 1081.66 601.09 1086.51 597.07   Q 1092.68 591.97 1101.00 591.46   C 1110.72 590.87 1117.38 600.25 1119.64 608.88   C 1123.21 622.49 1123.01 639.04 1117.03 651.78   C 1112.39 661.66 1104.18 668.83 1093.00 668.61   C 1088.95 668.52 1085.79 666.68 1082.48 664.29   C 1076.67 660.08 1073.09 652.02 1071.97 645.36   Z"/>
</g><g id="dog-body"><path stroke="#2e406e" vector-effect="non-scaling-stroke" d="   M 569.44 209.13   L 470.07 237.34"/>
<path stroke="#2a1f29" vector-effect="non-scaling-stroke" d="   M 497.76 240.76   Q 483.78 241.38 470.07 237.34"/>
<path stroke="#17693c" vector-effect="non-scaling-stroke" d="   M 529.15 346.15   Q 530.22 350.65 531.54 355.06   C 532.96 359.79 532.68 363.93 532.27 369.39   C 531.58 378.72 535.77 385.85 537.89 394.79   Q 541.17 408.67 543.75 423.96   Q 546.48 440.13 549.15 453.19   Q 552.57 469.95 555.75 491.80   Q 555.79 492.09 556.29 492.78"/>
<path stroke="#848850" vector-effect="non-scaling-stroke" d="   M 641.37 490.32   L 622.89 520.90"/>
<path stroke="#dd8642" vector-effect="non-scaling-stroke" d="   M 682.00 523.29   Q 681.40 523.51 681.35 524.53"/>
<path stroke="#fed7b7" vector-effect="non-scaling-stroke" d="   M 643.79 538.52   Q 639.03 535.13 635.25 530.35"/>
<path stroke="#8f8e93" vector-effect="non-scaling-stroke" d="   M 667.35 526.52   L 662.53 524.03"/>
<path stroke="#6e3d1e" vector-effect="non-scaling-stroke" d="   M 681.86 524.97   Q 681.75 524.57 681.35 524.53"/>
<path stroke="#8f8e93" vector-effect="non-scaling-stroke" d="   M 635.25 530.35   Q 635.91 536.69 643.79 538.52"/>
<path stroke="#96450f" vector-effect="non-scaling-stroke" d="   M 951.74 755.48   Q 951.52 754.43 950.39 754.09   Q 931.59 748.38 918.04 736.94   A 0.45 0.44 34.6 0 0 917.37 737.06   Q 914.41 742.14 908.88 750.32   Q 907.41 752.49 905.02 755.15   Q 902.88 757.53 901.06 759.90"/>
<path stroke="#6e3d1e" vector-effect="non-scaling-stroke" d="   M 1197.61 613.17   C 1192.47 623.43 1198.83 633.82 1210.37 632.05   A 2.37 2.29 20.1 0 0 1211.47 631.56   L 1215.74 628.02"/>
<path d="   M 643.79 538.52   Q 635.91 536.69 635.25 530.35   Q 639.03 535.13 643.79 538.52   Z"/>
<path d="   M 682.00 523.29   L 681.86 524.97   Q 681.75 524.57 681.35 524.53   Q 681.40 523.51 682.00 523.29   Z"/>
<path d="   M 1197.61 613.17   C 1192.47 623.43 1198.83 633.82 1210.37 632.05   A 2.37 2.29 20.1 0 0 1211.47 631.56   L 1215.74 628.02   C 1217.04 640.22 1211.49 653.38 1202.75 661.72   Q 1193.02 671.01 1180.67 675.39   Q 1164.99 680.97 1147.24 681.99   C 1138.54 682.49 1129.18 683.00 1120.48 681.46   A 0.45 0.45 0.0 0 0 1119.96 681.86   L 1119.63 685.03   Q 1117.44 685.65 1115.04 685.25   C 1107.99 684.07 1098.10 682.50 1090.83 679.44   Q 1080.38 675.05 1076.63 672.82   Q 1068.86 668.21 1062.78 661.93   Q 1055.41 654.32 1052.79 647.48   Q 1049.60 639.17 1051.05 629.70   Q 1053.94 615.39 1060.87 604.11   C 1064.53 598.17 1072.49 589.89 1078.47 586.48   Q 1086.29 582.02 1095.30 579.28   C 1107.57 575.56 1122.49 576.02 1135.25 578.50   Q 1146.23 580.64 1156.23 586.78   C 1163.46 591.23 1168.59 597.96 1173.24 605.07   A 7.94 7.86 3.2 0 0 1174.80 606.80   C 1181.57 612.40 1189.23 612.36 1197.61 613.17   Z"/>
<path d="   M 1020.99 655.60   Q 1025.35 663.93 1030.72 671.55   Q 1034.56 677.01 1039.40 681.97   Q 1045.38 688.09 1049.42 691.09   Q 1063.12 701.29 1081.13 707.60   Q 1091.86 711.35 1107.98 712.22   L 1095.13 726.84   Q 1093.15 728.37 1091.19 729.94   C 1087.44 732.93 1084.40 736.61 1081.00 739.92   Q 1078.97 741.90 1074.66 746.73   Q 1067.91 754.30 1060.75 761.45   Q 1058.88 764.25 1056.64 766.53   C 1047.80 775.54 1039.58 785.02 1031.08 793.83   Q 1029.48 795.49 1027.91 797.90   Q 1021.71 807.37 1020.53 809.02   C 1014.14 817.96 1003.98 822.64 994.23 815.02   C 981.07 804.73 990.10 786.50 997.65 776.39   C 1003.09 769.09 1007.11 762.11 1013.14 753.80   A 0.36 0.36 0.0 0 0 1012.72 753.25   C 993.19 760.95 973.00 760.90 952.94 755.37   A 1.41 1.37 -43.3 0 0 952.19 755.36   L 951.74 755.48   Q 951.52 754.43 950.39 754.09   Q 931.59 748.38 918.04 736.94   A 0.45 0.44 34.6 0 0 917.37 737.06   Q 914.41 742.14 908.88 750.32   Q 907.41 752.49 905.02 755.15   Q 902.88 757.53 901.06 759.90   Q 895.42 764.23 889.79 768.43   Q 883.69 772.96 878.05 776.23   Q 866.97 782.64 860.26 786.50   C 854.61 789.76 848.95 794.91 846.63 801.14   Q 845.31 804.69 844.73 805.85   A 8.26 7.97 77.6 0 1 843.93 807.15   C 838.99 813.61 830.80 814.24 824.01 810.03   C 814.36 804.04 811.47 794.05 814.52 783.42   C 816.35 777.03 820.80 772.76 826.26 767.76   Q 829.83 764.49 832.65 762.15   Q 851.76 746.29 858.20 721.88   C 859.99 715.11 860.73 705.84 862.44 700.20   Q 863.41 696.99 866.61 689.10   Q 869.51 681.97 871.29 680.36   A 0.18 0.18 0.0 0 0 871.14 680.05   Q 869.85 680.22 859.26 678.72   C 840.76 676.09 824.09 667.11 815.31 650.71   C 811.25 643.12 808.22 632.13 811.41 623.92   C 813.21 619.32 816.90 617.11 821.77 617.00   C 826.71 616.90 828.78 618.99 831.30 623.39   Q 835.68 631.06 839.17 637.10   Q 845.19 647.54 855.77 654.94   C 860.88 658.52 863.97 659.66 870.15 661.68   Q 878.35 664.35 887.24 665.00   A 1.37 1.35 -60.4 0 0 888.15 664.74   Q 891.06 662.61 894.63 661.36   Q 908.56 656.48 923.98 656.13   Q 942.13 655.72 960.77 656.62   C 974.71 657.29 986.68 657.21 1000.75 657.36   Q 1007.89 657.43 1020.99 655.60   Z"/>
<path d="   M 569.44 209.13   L 470.07 237.34   L 426.87 249.25   Q 423.92 244.01 422.72 237.48   Q 421.70 231.91 421.66 224.99   Q 421.59 213.45 427.38 202.85   C 430.99 196.24 435.97 190.23 442.52 185.30   C 461.18 171.26 483.55 166.22 506.45 168.39   Q 532.81 170.89 552.59 188.52   Q 554.96 190.63 557.48 193.52   C 559.52 195.85 561.78 197.76 563.75 200.54   Q 566.67 204.66 569.44 209.13   Z"/>
<path d="   M 1051.05 629.70   Q 1049.60 639.17 1052.79 647.48   Q 1055.41 654.32 1062.78 661.93   Q 1068.86 668.21 1076.63 672.82   Q 1080.38 675.05 1090.83 679.44   C 1098.10 682.50 1107.99 684.07 1115.04 685.25   Q 1117.44 685.65 1119.63 685.03   Q 1120.51 685.70 1121.70 685.61   A 0.65 0.64 -3.9 0 1 1122.40 686.21   Q 1122.60 689.05 1121.19 692.70   Q 1117.38 702.55 1115.56 706.79   Q 1114.47 709.32 1112.30 711.58   A 1.81 1.79 21.0 0 1 1111.05 712.13   L 1107.98 712.22   Q 1091.86 711.35 1081.13 707.60   Q 1063.12 701.29 1049.42 691.09   Q 1045.38 688.09 1039.40 681.97   Q 1034.56 677.01 1030.72 671.55   Q 1025.35 663.93 1020.99 655.60   Q 1019.87 651.87 1020.05 648.18   Q 1021.58 648.00 1022.63 646.61   Q 1026.17 641.88 1027.74 640.06   Q 1031.52 636.91 1034.25 635.25   Q 1041.35 630.94 1051.05 629.70   Z"/>
<path d="   M 1215.74 628.02   L 1211.47 631.56   A 2.37 2.29 20.1 0 1 1210.37 632.05   C 1198.83 633.82 1192.47 623.43 1197.61 613.17   C 1205.85 608.88 1216.22 610.79 1216.40 622.02   Q 1216.43 623.94 1215.74 628.02   Z"/>
<path d="   M 951.74 755.48   L 950.14 762.05   Q 947.90 763.78 947.73 767.43   C 947.51 772.18 946.38 777.43 947.20 782.02   Q 948.84 791.19 956.39 796.29   Q 958.34 797.49 960.03 798.99   C 963.85 802.36 967.17 805.37 966.61 810.90   C 966.06 816.41 960.86 820.09 955.95 821.40   C 934.63 827.11 917.21 807.55 910.04 790.18   Q 904.14 775.89 901.06 759.90   Q 902.88 757.53 905.02 755.15   Q 907.41 752.49 908.88 750.32   Q 914.41 742.14 917.37 737.06   A 0.45 0.44 34.6 0 1 918.04 736.94   Q 931.59 748.38 950.39 754.09   Q 951.52 754.43 951.74 755.48   Z"/>
<path d="   M 1196.95 653.89   L 1197.08 654.04   A 2.60 2.60 0.0 0 1 1196.72 657.78   Q 1192.17 661.32 1188.74 662.22   Q 1167.81 667.69 1152.07 652.71   A 3.76 3.76 0.0 0 1 1151.96 647.36   L 1152.47 646.85   A 3.19 3.19 0.0 0 1 1157.42 647.31   C 1165.33 659.27 1181.29 660.33 1192.75 653.25   A 3.29 3.28 53.6 0 1 1196.95 653.89   Z"/>
</g><g id="dog-legs"><path stroke="#513131" vector-effect="non-scaling-stroke" d="   M 625.07 750.40   Q 621.52 753.47 617.93 756.55   C 613.30 760.52 609.00 763.34 604.44 766.70   Q 600.93 769.29 598.27 770.95   Q 583.30 780.32 566.96 786.89"/>
<path d="   M 566.96 786.89   Q 583.30 780.32 598.27 770.95   Q 600.93 769.29 604.44 766.70   C 609.00 763.34 613.30 760.52 617.93 756.55   Q 621.52 753.47 625.07 750.40   Q 641.52 749.40 649.00 749.52   C 663.23 749.75 682.81 752.19 685.40 769.93   C 686.00 774.02 683.14 778.02 679.81 780.81   C 669.94 789.09 655.60 796.09 644.64 801.09   Q 620.96 811.89 596.03 817.32   C 584.16 819.90 577.24 817.58 572.53 806.16   Q 568.73 796.97 566.96 786.89   Z"/>
</g><g id="dog-head"/></g></g></svg>
