<?xml version="1.0" encoding="UTF-8" standalone="no"?>
<!DOCTYPE svg PUBLIC "-//W3C//DTD SVG 1.1//EN" "http://www.w3.org/Graphics/SVG/1.1/DTD/svg11.dtd">
<svg xmlns="http://www.w3.org/2000/svg" version="1.1" viewBox="0.00 0.00 1536.00 1024.00">
<g stroke-width="2.00" fill="none" stroke-linecap="butt">
<path stroke="#141c35" vector-effect="non-scaling-stroke" d="
  M 1536.00 397.75
  Q 1534.63 405.57 1532.45 413.19
  C 1529.44 423.72 1524.09 431.59 1512.32 432.76
  C 1502.69 433.72 1491.52 434.28 1481.03 434.50
  Q 1465.47 434.82 1450.50 437.21
  Q 1441.49 438.65 1429.08 437.09
  A 1.54 1.51 -20.0 0 1 1428.26 436.72
  Q 1425.81 434.51 1428.80 435.12"
/>
<path stroke="#888a95" vector-effect="non-scaling-stroke" d="
  M 1428.80 435.12
  Q 1430.42 435.84 1432.67 432.97
  A 1.73 1.73 0.0 0 0 1432.54 430.67
  L 1430.78 428.91
  A 1.61 1.61 0.0 0 0 1428.75 428.71
  Q 1427.19 429.76 1426.25 431.26"
/>
<path stroke="#141c35" vector-effect="non-scaling-stroke" d="
  M 1426.25 431.26
  C 1414.51 436.50 1401.37 441.41 1390.69 446.23
  Q 1378.91 451.55 1374.87 452.95
  Q 1359.15 458.43 1342.40 456.51
  Q 1318.06 453.73 1293.83 450.93
  Q 1281.46 449.50 1270.19 451.48
  C 1264.52 452.48 1256.63 455.33 1250.95 455.71
  C 1228.39 457.22 1228.96 434.37 1231.82 419.48
  Q 1240.65 373.48 1239.20 328.74
  Q 1238.47 306.41 1230.78 285.30
  Q 1221.76 260.54 1210.29 240.29
  C 1198.59 219.64 1181.90 204.60 1162.22 191.67
  C 1141.50 178.05 1118.13 167.11 1093.17 167.18
  Q 1082.76 167.21 1068.83 169.70
  Q 1067.52 169.93 1062.92 172.01
  A 0.81 0.80 -16.2 0 0 1062.45 172.85
  Q 1064.97 192.50 1071.20 204.97
  C 1080.12 222.83 1087.06 234.54 1090.18 251.07
  C 1094.54 274.17 1088.81 300.72 1070.64 316.38
  C 1046.75 336.98 1010.50 341.70 980.26 338.34
  Q 964.38 336.57 955.40 335.93
  C 934.06 334.41 913.42 341.26 895.50 353.55
  C 889.20 357.87 880.50 364.98 878.18 372.06
  A 2.98 2.95 35.4 0 0 878.66 374.80
  Q 880.39 377.04 880.63 377.55
  C 882.52 381.46 882.10 387.21 881.52 391.83
  C 880.42 400.57 877.70 408.88 873.90 417.58
  Q 868.95 428.92 866.65 436.72
  Q 864.18 445.05 861.84 447.74
  C 851.44 459.69 829.33 456.77 815.07 455.87
  C 804.50 455.19 792.50 455.58 783.83 455.31
  C 777.19 455.11 771.31 454.04 766.30 453.43
  C 760.98 452.78 753.79 453.03 747.92 453.45
  C 725.67 455.03 708.80 455.14 687.93 456.37
  Q 661.74 457.92 636.30 457.16
  C 630.28 456.98 622.43 457.27 617.10 457.91
  Q 594.34 460.67 570.89 459.80
  C 558.27 459.33 548.99 457.60 537.11 457.57
  Q 521.25 457.53 507.70 457.12
  C 490.06 456.59 475.36 457.16 458.57 459.13
  C 444.28 460.80 433.44 461.66 422.68 459.75
  Q 407.43 457.04 400.91 456.62
  Q 388.31 455.81 374.46 456.98
  Q 365.26 457.76 341.70 459.38
  Q 331.92 460.05 325.15 460.96
  C 289.84 465.73 253.69 464.27 217.23 462.96
  Q 199.89 462.33 191.65 460.94
  C 176.29 458.33 165.35 456.22 152.87 457.00
  Q 130.60 458.38 113.32 458.98
  C 105.03 459.27 91.82 461.02 82.08 461.15
  Q 73.18 461.27 54.11 459.67
  Q 37.17 458.25 17.77 459.78
  Q 9.55 460.43 0.00 458.87"
/>
<path stroke="#8a909e" vector-effect="non-scaling-stroke" d="
  M 1426.25 431.26
  Q 1426.48 433.53 1428.80 435.12"
/>
<path stroke="#192544" vector-effect="non-scaling-stroke" d="
  M 1536.00 639.91
  C 1532.22 635.82 1527.43 629.58 1522.32 636.64
  C 1518.13 642.43 1515.95 646.13 1511.06 648.70
  C 1502.85 653.00 1492.79 655.21 1483.71 652.95
  Q 1481.50 652.39 1472.32 649.75
  Q 1465.68 647.83 1457.03 648.65
  C 1446.61 649.64 1437.83 650.26 1428.01 648.18
  Q 1420.97 646.69 1408.66 643.45"
/>
<path stroke="#8a909e" vector-effect="non-scaling-stroke" d="
  M 1408.66 643.45
  Q 1411.75 641.08 1415.37 640.08
  A 0.28 0.28 0.0 0 0 1415.42 639.55
  L 1409.00 636.37
  A 2.70 2.65 -6.0 0 1 1408.16 635.70
  Q 1405.90 632.98 1405.30 631.20
  Q 1404.05 627.52 1403.53 626.70
  A 0.35 0.35 0.0 0 0 1402.88 626.84
  C 1402.11 633.40 1397.53 637.25 1391.65 639.41
  A 0.41 0.40 49.0 0 0 1391.60 640.15
  Q 1394.16 641.51 1397.22 643.02
  C 1401.04 644.91 1402.04 648.26 1403.50 652.08
  A 0.40 0.40 0.0 0 0 1404.20 652.16
  Q 1404.40 651.85 1404.47 651.28"
/>
<path stroke="#192544" vector-effect="non-scaling-stroke" d="
  M 1404.47 651.28
  C 1402.60 658.55 1400.18 667.62 1395.90 673.64
  C 1390.96 680.58 1383.57 675.44 1379.22 671.10
  C 1371.55 663.44 1361.33 652.22 1350.17 656.51
  Q 1347.85 657.41 1340.01 660.86
  C 1334.15 663.45 1325.58 663.56 1319.13 662.98
  Q 1306.94 661.88 1298.45 662.43
  C 1287.16 663.17 1278.40 666.93 1267.66 671.98
  C 1255.05 677.90 1242.33 680.98 1228.25 678.49
  C 1221.28 677.25 1213.40 675.63 1208.69 677.28
  Q 1203.65 679.04 1202.69 679.02
  C 1194.31 678.84 1185.01 678.21 1177.37 679.76
  Q 1167.62 681.74 1164.19 682.52
  C 1157.80 683.96 1150.55 684.82 1144.25 685.54
  Q 1138.88 686.15 1122.35 687.42
  C 1111.47 688.26 1100.17 690.33 1090.22 691.74
  Q 1081.97 692.90 1077.54 692.77
  C 1066.76 692.47 1057.78 685.55 1048.46 679.95
  Q 1037.75 673.51 1025.29 672.90
  Q 1022.64 672.77 1008.92 673.11
  Q 1001.98 673.28 990.70 671.80
  C 976.09 669.90 962.80 667.71 948.58 665.27
  C 932.30 662.47 918.51 664.10 901.81 666.33
  Q 893.19 667.48 886.39 667.32
  C 880.53 667.17 873.62 666.73 869.66 668.81
  C 861.58 673.03 867.79 679.16 870.22 683.91
  C 873.54 690.39 864.16 691.98 859.70 692.11
  C 851.03 692.36 843.95 690.22 834.27 687.64
  C 825.25 685.23 819.48 686.19 809.10 688.49
  Q 795.98 691.40 784.10 690.15
  Q 780.58 689.78 765.54 687.45
  C 754.57 685.75 745.98 686.78 732.87 687.62
  Q 725.74 688.08 720.22 685.61
  C 711.86 681.86 707.72 680.52 699.14 680.07
  C 688.52 679.52 680.62 678.67 668.23 676.80
  C 659.22 675.43 649.44 672.61 640.12 670.39
  Q 627.87 667.46 616.93 671.97"
/>
<path stroke="#8a909e" vector-effect="non-scaling-stroke" d="
  M 616.93 671.97
  L 612.81 675.76
  A 0.72 0.72 0.0 0 0 612.72 676.73
  L 614.67 679.30
  A 1.66 1.62 78.9 0 0 615.48 679.86
  L 617.76 680.55"
/>
<path stroke="#192544" vector-effect="non-scaling-stroke" d="
  M 617.76 680.55
  Q 618.40 680.91 618.13 681.63
  A 0.56 0.55 -67.8 0 1 617.39 681.95
  Q 611.91 679.58 608.00 678.58
  C 591.95 674.51 576.68 681.35 562.11 688.81
  C 553.27 693.34 544.38 695.17 534.84 692.29
  Q 532.64 691.63 521.57 687.63
  Q 505.66 681.89 489.54 685.81
  Q 485.27 686.84 476.96 690.31"
/>
<path stroke="#8a909e" vector-effect="non-scaling-stroke" d="
  M 476.96 690.31
  Q 474.09 683.96 473.09 677.07
  A 0.33 0.33 0.0 0 0 472.44 677.07
  C 471.45 683.57 469.37 691.10 464.73 696.10"
/>
<path stroke="#192544" vector-effect="non-scaling-stroke" d="
  M 464.73 696.10
  Q 449.62 690.26 436.04 689.98
  Q 431.88 689.89 412.62 690.74
  C 392.56 691.63 370.85 686.58 350.27 679.94
  C 339.58 676.49 329.12 675.06 318.57 680.29"
/>
<path stroke="#8a909e" vector-effect="non-scaling-stroke" d="
  M 318.57 680.29
  Q 316.79 681.29 315.78 682.88
  A 1.15 1.13 -37.9 0 0 315.66 683.81
  Q 316.16 685.40 318.46 686.97"
/>
<path stroke="#192544" vector-effect="non-scaling-stroke" d="
  M 318.46 686.97
  C 310.59 682.64 304.03 680.04 296.00 681.99
  Q 286.92 684.19 278.38 684.93
  C 267.05 685.91 255.84 682.85 244.62 679.49
  C 237.65 677.41 231.05 677.30 224.01 679.79
  C 217.23 682.20 214.69 683.09 207.45 683.96
  C 197.26 685.17 185.08 687.65 177.82 687.98
  Q 159.95 688.78 152.69 689.12
  C 140.18 689.70 132.48 690.75 119.70 691.78
  C 107.22 692.79 97.23 689.47 84.09 685.94
  Q 74.24 683.29 63.61 683.00
  C 56.38 682.81 47.76 684.14 40.57 684.68
  Q 32.98 685.25 22.42 683.95
  C 17.62 683.36 11.55 681.16 7.41 679.78
  Q 5.14 679.01 0.00 679.77"
/>
<path stroke="#192544" vector-effect="non-scaling-stroke" d="
  M 1536.00 833.91
  L 1536.00 842.71"
/>
<path stroke="#192544" vector-effect="non-scaling-stroke" d="
  M 1536.00 846.89
  L 1536.00 886.93"
/>
<path stroke="#192544" vector-effect="non-scaling-stroke" d="
  M 1536.00 924.14
  L 1536.00 961.36"
/>
<path stroke="#8d94a5" vector-effect="non-scaling-stroke" d="
  M 318.46 686.97
  Q 321.01 686.88 322.19 683.92
  A 0.98 0.96 -50.7 0 0 322.11 683.03
  Q 320.57 680.61 318.57 680.29"
/>
<path stroke="#8d94a5" vector-effect="non-scaling-stroke" d="
  M 464.73 696.10
  Q 458.99 700.47 451.89 701.86
  A 0.64 0.63 -44.3 0 0 451.87 703.10
  Q 457.26 704.28 461.88 706.81
  C 468.96 710.68 471.10 719.81 472.69 727.72
  A 0.37 0.37 0.0 0 0 473.42 727.69
  Q 474.43 718.56 478.85 711.18
  C 481.54 706.70 488.87 704.08 493.38 702.79
  A 0.49 0.49 0.0 0 0 493.39 701.85
  C 486.71 699.83 479.98 697.57 476.96 690.31"
/>
<path stroke="#8d94a5" vector-effect="non-scaling-stroke" d="
  M 617.76 680.55
  L 620.99 676.93
  A 0.66 0.66 0.0 0 0 621.04 676.11
  Q 619.31 673.55 616.93 671.97"
/>
<path stroke="#8d94a5" vector-effect="non-scaling-stroke" d="
  M 1404.47 651.28
  Q 1405.44 646.66 1408.66 643.45"
/>
</g>
<path fill="#1c294b" d="
  M 1536.00 639.91
  L 1536.00 833.91
  L 1536.00 842.71
  L 1536.00 846.89
  L 1536.00 886.93
  L 1536.00 924.14
  L 1536.00 961.36
  L 1536.00 1024.00
  L 0.00 1024.00
  L 0.00 679.77
  Q 5.14 679.01 7.41 679.78
  C 11.55 681.16 17.62 683.36 22.42 683.95
  Q 32.98 685.25 40.57 684.68
  C 47.76 684.14 56.38 682.81 63.61 683.00
  Q 74.24 683.29 84.09 685.94
  C 97.23 689.47 107.22 692.79 119.70 691.78
  C 132.48 690.75 140.18 689.70 152.69 689.12
  Q 159.95 688.78 177.82 687.98
  C 185.08 687.65 197.26 685.17 207.45 683.96
  C 214.69 683.09 217.23 682.20 224.01 679.79
  C 231.05 677.30 237.65 677.41 244.62 679.49
  C 255.84 682.85 267.05 685.91 278.38 684.93
  Q 286.92 684.19 296.00 681.99
  C 304.03 680.04 310.59 682.64 318.46 686.97
  Q 321.01 686.88 322.19 683.92
  A 0.98 0.96 -50.7 0 0 322.11 683.03
  Q 320.57 680.61 318.57 680.29
  C 329.12 675.06 339.58 676.49 350.27 679.94
  C 370.85 686.58 392.56 691.63 412.62 690.74
  Q 431.88 689.89 436.04 689.98
  Q 449.62 690.26 464.73 696.10
  Q 458.99 700.47 451.89 701.86
  A 0.64 0.63 -44.3 0 0 451.87 703.10
  Q 457.26 704.28 461.88 706.81
  C 468.96 710.68 471.10 719.81 472.69 727.72
  A 0.37 0.37 0.0 0 0 473.42 727.69
  Q 474.43 718.56 478.85 711.18
  C 481.54 706.70 488.87 704.08 493.38 702.79
  A 0.49 0.49 0.0 0 0 493.39 701.85
  C 486.71 699.83 479.98 697.57 476.96 690.31
  Q 485.27 686.84 489.54 685.81
  Q 505.66 681.89 521.57 687.63
  Q 532.64 691.63 534.84 692.29
  C 544.38 695.17 553.27 693.34 562.11 688.81
  C 576.68 681.35 591.95 674.51 608.00 678.58
  Q 611.91 679.58 617.39 681.95
  A 0.56 0.55 -67.8 0 0 618.13 681.63
  Q 618.40 680.91 617.76 680.55
  L 620.99 676.93
  A 0.66 0.66 0.0 0 0 621.04 676.11
  Q 619.31 673.55 616.93 671.97
  Q 627.87 667.46 640.12 670.39
  C 649.44 672.61 659.22 675.43 668.23 676.80
  C 680.62 678.67 688.52 679.52 699.14 680.07
  C 707.72 680.52 711.86 681.86 720.22 685.61
  Q 725.74 688.08 732.87 687.62
  C 745.98 686.78 754.57 685.75 765.54 687.45
  Q 780.58 689.78 784.10 690.15
  Q 795.98 691.40 809.10 688.49
  C 819.48 686.19 825.25 685.23 834.27 687.64
  C 843.95 690.22 851.03 692.36 859.70 692.11
  C 864.16 691.98 873.54 690.39 870.22 683.91
  C 867.79 679.16 861.58 673.03 869.66 668.81
  C 873.62 666.73 880.53 667.17 886.39 667.32
  Q 893.19 667.48 901.81 666.33
  C 918.51 664.10 932.30 662.47 948.58 665.27
  C 962.80 667.71 976.09 669.90 990.70 671.80
  Q 1001.98 673.28 1008.92 673.11
  Q 1022.64 672.77 1025.29 672.90
  Q 1037.75 673.51 1048.46 679.95
  C 1057.78 685.55 1066.76 692.47 1077.54 692.77
  Q 1081.97 692.90 1090.22 691.74
  C 1100.17 690.33 1111.47 688.26 1122.35 687.42
  Q 1138.88 686.15 1144.25 685.54
  C 1150.55 684.82 1157.80 683.96 1164.19 682.52
  Q 1167.62 681.74 1177.37 679.76
  C 1185.01 678.21 1194.31 678.84 1202.69 679.02
  Q 1203.65 679.04 1208.69 677.28
  C 1213.40 675.63 1221.28 677.25 1228.25 678.49
  C 1242.33 680.98 1255.05 677.90 1267.66 671.98
  C 1278.40 666.93 1287.16 663.17 1298.45 662.43
  Q 1306.94 661.88 1319.13 662.98
  C 1325.58 663.56 1334.15 663.45 1340.01 660.86
  Q 1347.85 657.41 1350.17 656.51
  C 1361.33 652.22 1371.55 663.44 1379.22 671.10
  C 1383.57 675.44 1390.96 680.58 1395.90 673.64
  C 1400.18 667.62 1402.60 658.55 1404.47 651.28
  Q 1405.44 646.66 1408.66 643.45
  Q 1420.97 646.69 1428.01 648.18
  C 1437.83 650.26 1446.61 649.64 1457.03 648.65
  Q 1465.68 647.83 1472.32 649.75
  Q 1481.50 652.39 1483.71 652.95
  C 1492.79 655.21 1502.85 653.00 1511.06 648.70
  C 1515.95 646.13 1518.13 642.43 1522.32 636.64
  C 1527.43 629.58 1532.22 635.82 1536.00 639.91
  Z"
/>
<path fill="#11162c" d="
  M 1536.00 0.00
  L 1536.00 397.75
  Q 1534.63 405.57 1532.45 413.19
  C 1529.44 423.72 1524.09 431.59 1512.32 432.76
  C 1502.69 433.72 1491.52 434.28 1481.03 434.50
  Q 1465.47 434.82 1450.50 437.21
  Q 1441.49 438.65 1429.08 437.09
  A 1.54 1.51 -20.0 0 1 1428.26 436.72
  Q 1425.81 434.51 1428.80 435.12
  Q 1430.42 435.84 1432.67 432.97
  A 1.73 1.73 0.0 0 0 1432.54 430.67
  L 1430.78 428.91
  A 1.61 1.61 0.0 0 0 1428.75 428.71
  Q 1427.19 429.76 1426.25 431.26
  C 1414.51 436.50 1401.37 441.41 1390.69 446.23
  Q 1378.91 451.55 1374.87 452.95
  Q 1359.15 458.43 1342.40 456.51
  Q 1318.06 453.73 1293.83 450.93
  Q 1281.46 449.50 1270.19 451.48
  C 1264.52 452.48 1256.63 455.33 1250.95 455.71
  C 1228.39 457.22 1228.96 434.37 1231.82 419.48
  Q 1240.65 373.48 1239.20 328.74
  Q 1238.47 306.41 1230.78 285.30
  Q 1221.76 260.54 1210.29 240.29
  C 1198.59 219.64 1181.90 204.60 1162.22 191.67
  C 1141.50 178.05 1118.13 167.11 1093.17 167.18
  Q 1082.76 167.21 1068.83 169.70
  Q 1067.52 169.93 1062.92 172.01
  A 0.81 0.80 -16.2 0 0 1062.45 172.85
  Q 1064.97 192.50 1071.20 204.97
  C 1080.12 222.83 1087.06 234.54 1090.18 251.07
  C 1094.54 274.17 1088.81 300.72 1070.64 316.38
  C 1046.75 336.98 1010.50 341.70 980.26 338.34
  Q 964.38 336.57 955.40 335.93
  C 934.06 334.41 913.42 341.26 895.50 353.55
  C 889.20 357.87 880.50 364.98 878.18 372.06
  A 2.98 2.95 35.4 0 0 878.66 374.80
  Q 880.39 377.04 880.63 377.55
  C 882.52 381.46 882.10 387.21 881.52 391.83
  C 880.42 400.57 877.70 408.88 873.90 417.58
  Q 868.95 428.92 866.65 436.72
  Q 864.18 445.05 861.84 447.74
  C 851.44 459.69 829.33 456.77 815.07 455.87
  C 804.50 455.19 792.50 455.58 783.83 455.31
  C 777.19 455.11 771.31 454.04 766.30 453.43
  C 760.98 452.78 753.79 453.03 747.92 453.45
  C 725.67 455.03 708.80 455.14 687.93 456.37
  Q 661.74 457.92 636.30 457.16
  C 630.28 456.98 622.43 457.27 617.10 457.91
  Q 594.34 460.67 570.89 459.80
  C 558.27 459.33 548.99 457.60 537.11 457.57
  Q 521.25 457.53 507.70 457.12
  C 490.06 456.59 475.36 457.16 458.57 459.13
  C 444.28 460.80 433.44 461.66 422.68 459.75
  Q 407.43 457.04 400.91 456.62
  Q 388.31 455.81 374.46 456.98
  Q 365.26 457.76 341.70 459.38
  Q 331.92 460.05 325.15 460.96
  C 289.84 465.73 253.69 464.27 217.23 462.96
  Q 199.89 462.33 191.65 460.94
  C 176.29 458.33 165.35 456.22 152.87 457.00
  Q 130.60 458.38 113.32 458.98
  C 105.03 459.27 91.82 461.02 82.08 461.15
  Q 73.18 461.27 54.11 459.67
  Q 37.17 458.25 17.77 459.78
  Q 9.55 460.43 0.00 458.87
  L 0.00 0.00
  L 1536.00 0.00
  Z"
/>
<g fill="#fefefe">
<path d="
  M 1428.80 435.12
  Q 1426.48 433.53 1426.25 431.26
  Q 1427.19 429.76 1428.75 428.71
  A 1.61 1.61 0.0 0 1 1430.78 428.91
  L 1432.54 430.67
  A 1.73 1.73 0.0 0 1 1432.67 432.97
  Q 1430.42 435.84 1428.80 435.12
  Z"
/>
<path d="
  M 1408.66 643.45
  Q 1405.44 646.66 1404.47 651.28
  Q 1404.40 651.85 1404.20 652.16
  A 0.40 0.40 0.0 0 1 1403.50 652.08
  C 1402.04 648.26 1401.04 644.91 1397.22 643.02
  Q 1394.16 641.51 1391.60 640.15
  A 0.41 0.40 49.0 0 1 1391.65 639.41
  C 1397.53 637.25 1402.11 633.40 1402.88 626.84
  A 0.35 0.35 0.0 0 1 1403.53 626.70
  Q 1404.05 627.52 1405.30 631.20
  Q 1405.90 632.98 1408.16 635.70
  A 2.70 2.65 -6.0 0 0 1409.00 636.37
  L 1415.42 639.55
  A 0.28 0.28 0.0 0 1 1415.37 640.08
  Q 1411.75 641.08 1408.66 643.45
  Z"
/>
<path d="
  M 617.76 680.55
  L 615.48 679.86
  A 1.66 1.62 78.9 0 1 614.67 679.30
  L 612.72 676.73
  A 0.72 0.72 0.0 0 1 612.81 675.76
  L 616.93 671.97
  Q 619.31 673.55 621.04 676.11
  A 0.66 0.66 0.0 0 1 620.99 676.93
  L 617.76 680.55
  Z"
/>
<path d="
  M 476.96 690.31
  C 479.98 697.57 486.71 699.83 493.39 701.85
  A 0.49 0.49 0.0 0 1 493.38 702.79
  C 488.87 704.08 481.54 706.70 478.85 711.18
  Q 474.43 718.56 473.42 727.69
  A 0.37 0.37 0.0 0 1 472.69 727.72
  C 471.10 719.81 468.96 710.68 461.88 706.81
  Q 457.26 704.28 451.87 703.10
  A 0.64 0.63 -44.3 0 1 451.89 701.86
  Q 458.99 700.47 464.73 696.10
  C 469.37 691.10 471.45 683.57 472.44 677.07
  A 0.33 0.33 0.0 0 1 473.09 677.07
  Q 474.09 683.96 476.96 690.31
  Z"
/>
<path d="
  M 318.46 686.97
  Q 316.16 685.40 315.66 683.81
  A 1.15 1.13 -37.9 0 1 315.78 682.88
  Q 316.79 681.29 318.57 680.29
  Q 320.57 680.61 322.11 683.03
  A 0.98 0.96 -50.7 0 1 322.19 683.92
  Q 321.01 686.88 318.46 686.97
  Z"
/>
</g>
<g fill="#16213d">
<path d="
  M 1426.25 431.26
  Q 1426.48 433.53 1428.80 435.12
  Q 1425.81 434.51 1428.26 436.72
  A 1.54 1.51 -20.0 0 0 1429.08 437.09
  Q 1441.49 438.65 1450.50 437.21
  Q 1465.47 434.82 1481.03 434.50
  C 1491.52 434.28 1502.69 433.72 1512.32 432.76
  C 1524.09 431.59 1529.44 423.72 1532.45 413.19
  Q 1534.63 405.57 1536.00 397.75
  L 1536.00 639.91
  C 1532.22 635.82 1527.43 629.58 1522.32 636.64
  C 1518.13 642.43 1515.95 646.13 1511.06 648.70
  C 1502.85 653.00 1492.79 655.21 1483.71 652.95
  Q 1481.50 652.39 1472.32 649.75
  Q 1465.68 647.83 1457.03 648.65
  C 1446.61 649.64 1437.83 650.26 1428.01 648.18
  Q 1420.97 646.69 1408.66 643.45
  Q 1411.75 641.08 1415.37 640.08
  A 0.28 0.28 0.0 0 0 1415.42 639.55
  L 1409.00 636.37
  A 2.70 2.65 -6.0 0 1 1408.16 635.70
  Q 1405.90 632.98 1405.30 631.20
  Q 1404.05 627.52 1403.53 626.70
  A 0.35 0.35 0.0 0 0 1402.88 626.84
  C 1402.11 633.40 1397.53 637.25 1391.65 639.41
  A 0.41 0.40 49.0 0 0 1391.60 640.15
  Q 1394.16 641.51 1397.22 643.02
  C 1401.04 644.91 1402.04 648.26 1403.50 652.08
  A 0.40 0.40 0.0 0 0 1404.20 652.16
  Q 1404.40 651.85 1404.47 651.28
  C 1402.60 658.55 1400.18 667.62 1395.90 673.64
  C 1390.96 680.58 1383.57 675.44 1379.22 671.10
  C 1371.55 663.44 1361.33 652.22 1350.17 656.51
  Q 1347.85 657.41 1340.01 660.86
  C 1334.15 663.45 1325.58 663.56 1319.13 662.98
  Q 1306.94 661.88 1298.45 662.43
  C 1287.16 663.17 1278.40 666.93 1267.66 671.98
  C 1255.05 677.90 1242.33 680.98 1228.25 678.49
  C 1221.28 677.25 1213.40 675.63 1208.69 677.28
  Q 1203.65 679.04 1202.69 679.02
  C 1194.31 678.84 1185.01 678.21 1177.37 679.76
  Q 1167.62 681.74 1164.19 682.52
  C 1157.80 683.96 1150.55 684.82 1144.25 685.54
  Q 1138.88 686.15 1122.35 687.42
  C 1111.47 688.26 1100.17 690.33 1090.22 691.74
  Q 1081.97 692.90 1077.54 692.77
  C 1066.76 692.47 1057.78 685.55 1048.46 679.95
  Q 1037.75 673.51 1025.29 672.90
  Q 1022.64 672.77 1008.92 673.11
  Q 1001.98 673.28 990.70 671.80
  C 976.09 669.90 962.80 667.71 948.58 665.27
  C 932.30 662.47 918.51 664.10 901.81 666.33
  Q 893.19 667.48 886.39 667.32
  C 880.53 667.17 873.62 666.73 869.66 668.81
  C 861.58 673.03 867.79 679.16 870.22 683.91
  C 873.54 690.39 864.16 691.98 859.70 692.11
  C 851.03 692.36 843.95 690.22 834.27 687.64
  C 825.25 685.23 819.48 686.19 809.10 688.49
  Q 795.98 691.40 784.10 690.15
  Q 780.58 689.78 765.54 687.45
  C 754.57 685.75 745.98 686.78 732.87 687.62
  Q 725.74 688.08 720.22 685.61
  C 711.86 681.86 707.72 680.52 699.14 680.07
  C 688.52 679.52 680.62 678.67 668.23 676.80
  C 659.22 675.43 649.44 672.61 640.12 670.39
  Q 627.87 667.46 616.93 671.97
  L 612.81 675.76
  A 0.72 0.72 0.0 0 0 612.72 676.73
  L 614.67 679.30
  A 1.66 1.62 78.9 0 0 615.48 679.86
  L 617.76 680.55
  Q 618.40 680.91 618.13 681.63
  A 0.56 0.55 -67.8 0 1 617.39 681.95
  Q 611.91 679.58 608.00 678.58
  C 591.95 674.51 576.68 681.35 562.11 688.81
  C 553.27 693.34 544.38 695.17 534.84 692.29
  Q 532.64 691.63 521.57 687.63
  Q 505.66 681.89 489.54 685.81
  Q 485.27 686.84 476.96 690.31
  Q 474.09 683.96 473.09 677.07
  A 0.33 0.33 0.0 0 0 472.44 677.07
  C 471.45 683.57 469.37 691.10 464.73 696.10
  Q 449.62 690.26 436.04 689.98
  Q 431.88 689.89 412.62 690.74
  C 392.56 691.63 370.85 686.58 350.27 679.94
  C 339.58 676.49 329.12 675.06 318.57 680.29
  Q 316.79 681.29 315.78 682.88
  A 1.15 1.13 -37.9 0 0 315.66 683.81
  Q 316.16 685.40 318.46 686.97
  C 310.59 682.64 304.03 680.04 296.00 681.99
  Q 286.92 684.19 278.38 684.93
  C 267.05 685.91 255.84 682.85 244.62 679.49
  C 237.65 677.41 231.05 677.30 224.01 679.79
  C 217.23 682.20 214.69 683.09 207.45 683.96
  C 197.26 685.17 185.08 687.65 177.82 687.98
  Q 159.95 688.78 152.69 689.12
  C 140.18 689.70 132.48 690.75 119.70 691.78
  C 107.22 692.79 97.23 689.47 84.09 685.94
  Q 74.24 683.29 63.61 683.00
  C 56.38 682.81 47.76 684.14 40.57 684.68
  Q 32.98 685.25 22.42 683.95
  C 17.62 683.36 11.55 681.16 7.41 679.78
  Q 5.14 679.01 0.00 679.77
  L 0.00 458.87
  Q 9.55 460.43 17.77 459.78
  Q 37.17 458.25 54.11 459.67
  Q 73.18 461.27 82.08 461.15
  C 91.82 461.02 105.03 459.27 113.32 458.98
  Q 130.60 458.38 152.87 457.00
  C 165.35 456.22 176.29 458.33 191.65 460.94
  Q 199.89 462.33 217.23 462.96
  C 253.69 464.27 289.84 465.73 325.15 460.96
  Q 331.92 460.05 341.70 459.38
  Q 365.26 457.76 374.46 456.98
  Q 388.31 455.81 400.91 456.62
  Q 407.43 457.04 422.68 459.75
  C 433.44 461.66 444.28 460.80 458.57 459.13
  C 475.36 457.16 490.06 456.59 507.70 457.12
  Q 521.25 457.53 537.11 457.57
  C 548.99 457.60 558.27 459.33 570.89 459.80
  Q 594.34 460.67 617.10 457.91
  C 622.43 457.27 630.28 456.98 636.30 457.16
  Q 661.74 457.92 687.93 456.37
  C 708.80 455.14 725.67 455.03 747.92 453.45
  C 753.79 453.03 760.98 452.78 766.30 453.43
  C 771.31 454.04 777.19 455.11 783.83 455.31
  C 792.50 455.58 804.50 455.19 815.07 455.87
  C 829.33 456.77 851.44 459.69 861.84 447.74
  Q 864.18 445.05 866.65 436.72
  Q 868.95 428.92 873.90 417.58
  C 877.70 408.88 880.42 400.57 881.52 391.83
  C 882.10 387.21 882.52 381.46 880.63 377.55
  Q 880.39 377.04 878.66 374.80
  A 2.98 2.95 35.4 0 1 878.18 372.06
  C 880.50 364.98 889.20 357.87 895.50 353.55
  C 913.42 341.26 934.06 334.41 955.40 335.93
  Q 964.38 336.57 980.26 338.34
  C 1010.50 341.70 1046.75 336.98 1070.64 316.38
  C 1088.81 300.72 1094.54 274.17 1090.18 251.07
  C 1087.06 234.54 1080.12 222.83 1071.20 204.97
  Q 1064.97 192.50 1062.45 172.85
  A 0.81 0.80 -16.2 0 1 1062.92 172.01
  Q 1067.52 169.93 1068.83 169.70
  Q 1082.76 167.21 1093.17 167.18
  C 1118.13 167.11 1141.50 178.05 1162.22 191.67
  C 1181.90 204.60 1198.59 219.64 1210.29 240.29
  Q 1221.76 260.54 1230.78 285.30
  Q 1238.47 306.41 1239.20 328.74
  Q 1240.65 373.48 1231.82 419.48
  C 1228.96 434.37 1228.39 457.22 1250.95 455.71
  C 1256.63 455.33 1264.52 452.48 1270.19 451.48
  Q 1281.46 449.50 1293.83 450.93
  Q 1318.06 453.73 1342.40 456.51
  Q 1359.15 458.43 1374.87 452.95
  Q 1378.91 451.55 1390.69 446.23
  C 1401.37 441.41 1414.51 436.50 1426.25 431.26
  Z"
/>
<path d="
  M 1536.00 833.91
  L 1536.00 842.71
  L 1536.00 833.91
  Z"
/>
<path d="
  M 1536.00 846.89
  L 1536.00 886.93
  L 1536.00 846.89
  Z"
/>
<path d="
  M 1536.00 924.14
  L 1536.00 961.36
  L 1536.00 924.14
  Z"
/>
</g>
<g stroke-width="2.00" fill="none" stroke-linecap="butt">
<path stroke="#8d908a" vector-effect="non-scaling-stroke" d="
  M 1194.90 257.80
  Q 1211.79 296.69 1203.10 338.43
  Q 1199.00 358.12 1189.32 374.60
  Q 1183.09 385.21 1178.78 390.81
  Q 1171.66 400.05 1160.92 409.90
  Q 1152.40 417.72 1138.75 426.23
  Q 1136.24 427.80 1133.77 428.66
  A 0.04 0.04 0.0 0 0 1133.78 428.73
  Q 1133.90 428.75 1134.02 428.79
  A 0.05 0.05 0.0 0 1 1134.03 428.88
  Q 1131.19 429.99 1129.34 431.46
  Q 1128.97 431.74 1127.58 432.07
  A 2.60 2.42 -67.2 0 0 1126.67 432.48
  Q 1124.61 433.97 1122.70 434.40
  A 0.07 0.04 -32.2 0 0 1122.65 434.49
  Q 1122.72 434.50 1122.81 434.48
  A 0.11 0.06 -49.0 0 1 1122.77 434.66
  Q 1118.82 436.40 1111.64 438.74
  Q 1097.87 443.24 1088.26 444.90
  Q 1052.53 451.10 1018.86 441.40
  C 987.86 432.46 962.26 414.56 942.87 388.63
  Q 935.22 378.39 930.50 369.20"
/>
<path stroke="#8d908a" vector-effect="non-scaling-stroke" d="
  M 932.38 369.21
  Q 942.85 376.85 952.54 381.20
  C 972.29 390.09 995.57 393.99 1017.53 391.16
  Q 1030.04 389.55 1037.29 387.52
  Q 1055.48 382.41 1073.08 371.30
  Q 1079.41 367.30 1086.99 360.75
  C 1107.57 342.98 1121.93 318.88 1125.64 292.07
  Q 1126.80 283.65 1126.90 280.13
  Q 1127.65 252.59 1117.64 230.63
  Q 1102.71 197.90 1070.73 178.13"
/>
</g>
<g fill="#1c294b">
<path d="
  M 932.38 369.21
  Q 963.90 370.93 981.84 371.68
  C 1015.78 373.09 1049.47 365.46 1074.97 343.45
  C 1091.38 329.28 1100.69 309.78 1105.39 288.42
  C 1109.29 270.69 1108.86 252.41 1103.40 234.91
  C 1097.93 217.40 1088.80 200.94 1078.64 185.56
  A 1.54 1.21 11.7 0 0 1078.48 185.37
  L 1070.73 178.13
  Q 1102.71 197.90 1117.64 230.63
  Q 1127.65 252.59 1126.90 280.13
  Q 1126.80 283.65 1125.64 292.07
  C 1121.93 318.88 1107.57 342.98 1086.99 360.75
  Q 1079.41 367.30 1073.08 371.30
  Q 1055.48 382.41 1037.29 387.52
  Q 1030.04 389.55 1017.53 391.16
  C 995.57 393.99 972.29 390.09 952.54 381.20
  Q 942.85 376.85 932.38 369.21
  Z"
/>
<path d="
  M 930.50 369.20
  Q 935.22 378.39 942.87 388.63
  C 962.26 414.56 987.86 432.46 1018.86 441.40
  Q 1052.53 451.10 1088.26 444.90
  Q 1097.87 443.24 1111.64 438.74
  Q 1118.82 436.40 1122.77 434.66
  A 0.11 0.06 -49.0 0 0 1122.81 434.48
  Q 1122.72 434.50 1122.65 434.49
  A 0.07 0.04 -32.2 0 1 1122.70 434.40
  Q 1124.61 433.97 1126.67 432.48
  A 2.60 2.42 -67.2 0 1 1127.58 432.07
  Q 1128.97 431.74 1129.34 431.46
  Q 1131.19 429.99 1134.03 428.88
  A 0.05 0.05 0.0 0 0 1134.02 428.79
  Q 1133.90 428.75 1133.78 428.73
  A 0.04 0.04 0.0 0 1 1133.77 428.66
  Q 1136.24 427.80 1138.75 426.23
  Q 1152.40 417.72 1160.92 409.90
  Q 1171.66 400.05 1178.78 390.81
  Q 1183.09 385.21 1189.32 374.60
  Q 1199.00 358.12 1203.10 338.43
  Q 1211.79 296.69 1194.90 257.80
  C 1209.28 274.88 1214.75 296.07 1215.14 318.48
  Q 1215.61 345.30 1206.15 369.59
  C 1198.32 389.70 1183.46 410.16 1168.53 427.27
  C 1150.35 448.11 1129.26 461.86 1101.76 467.56
  Q 1087.95 470.43 1068.15 469.89
  Q 1050.48 469.40 1034.50 467.36
  C 1014.70 464.83 997.31 458.10 978.13 447.88
  C 955.78 435.98 938.05 417.77 932.97 392.59
  Q 930.90 382.37 930.50 369.20
  Z"
/>
</g>
<g fill="#fdf7c9">
<path d="
  M 1194.90 257.80
  Q 1211.79 296.69 1203.10 338.43
  Q 1199.00 358.12 1189.32 374.60
  Q 1183.09 385.21 1178.78 390.81
  Q 1171.66 400.05 1160.92 409.90
  Q 1152.40 417.72 1138.75 426.23
  Q 1136.24 427.80 1133.77 428.66
  A 0.04 0.04 0.0 0 0 1133.78 428.73
  Q 1133.90 428.75 1134.02 428.79
  A 0.05 0.05 0.0 0 1 1134.03 428.88
  Q 1131.19 429.99 1129.34 431.46
  Q 1128.97 431.74 1127.58 432.07
  A 2.60 2.42 -67.2 0 0 1126.67 432.48
  Q 1124.61 433.97 1122.70 434.40
  A 0.07 0.04 -32.2 0 0 1122.65 434.49
  Q 1122.72 434.50 1122.81 434.48
  A 0.11 0.06 -49.0 0 1 1122.77 434.66
  Q 1118.82 436.40 1111.64 438.74
  Q 1097.87 443.24 1088.26 444.90
  Q 1052.53 451.10 1018.86 441.40
  C 987.86 432.46 962.26 414.56 942.87 388.63
  Q 935.22 378.39 930.50 369.20
  Q 930.12 368.76 930.08 368.39
  A 0.41 0.41 0.0 0 1 930.66 367.97
  Q 931.65 368.45 932.38 369.21
  Q 942.85 376.85 952.54 381.20
  C 972.29 390.09 995.57 393.99 1017.53 391.16
  Q 1030.04 389.55 1037.29 387.52
  Q 1055.48 382.41 1073.08 371.30
  Q 1079.41 367.30 1086.99 360.75
  C 1107.57 342.98 1121.93 318.88 1125.64 292.07
  Q 1126.80 283.65 1126.90 280.13
  Q 1127.65 252.59 1117.64 230.63
  Q 1102.71 197.90 1070.73 178.13
  L 1063.04 173.62
  A 0.24 0.24 0.0 0 1 1063.16 173.17
  Q 1100.79 173.37 1133.09 191.44
  Q 1155.27 203.84 1171.99 222.79
  Q 1181.30 233.33 1186.84 242.68
  Q 1190.70 249.18 1194.90 257.80
  Z"
/>
<path d="
  M 981.38 639.20
  Q 981.32 639.59 981.08 639.71
  A 0.36 0.31 -74.3 0 1 980.80 639.10
  Q 981.05 638.88 981.29 639.03
  A 0.19 0.18 18.8 0 1 981.38 639.20
  Z"
/>
</g>
<g fill="#fefefe">
<path d="
  M 526.37 43.25
  A 0.99 0.99 0.0 0 1 526.39 41.85
  L 528.62 39.70
  A 3.13 1.64 -44.0 0 1 532.01 38.70
  L 535.04 41.84
  A 3.13 1.64 -44.0 0 1 533.93 45.19
  L 531.70 47.35
  A 0.99 0.99 0.0 0 1 530.30 47.32
  L 526.37 43.25
  Z"
/>
<rect x="-3.15" y="-3.11" transform="translate(981.57,46.76) rotate(42.2)" width="6.30" height="6.22" rx="1.62"/>
<rect x="-3.42" y="-3.31" transform="translate(229.73,47.46) rotate(45.0)" width="6.84" height="6.62" rx="1.57"/>
<path d="
  M 65.61 53.02
  A 0.36 0.36 0.0 0 1 65.64 52.38
  Q 70.67 50.18 72.53 45.45
  A 0.50 0.50 0.0 0 1 73.45 45.42
  Q 75.98 50.62 79.99 52.36
  A 0.58 0.58 0.0 0 1 80.02 53.41
  Q 76.68 55.11 73.86 59.41
  A 0.56 0.56 0.0 0 1 72.95 59.44
  Q 69.81 55.41 65.61 53.02
  Z"
/>
<rect x="-3.35" y="-3.35" transform="translate(1489.80,58.02) rotate(-43.9)" width="6.70" height="6.70" rx="1.35"/>
<path d="
  M 1280.48 60.87
  A 0.93 0.93 0.0 0 1 1280.65 62.18
  L 1276.89 67.04
  A 0.73 0.73 0.0 0 1 1275.68 66.96
  Q 1274.89 65.62 1272.20 63.87
  A 2.38 2.38 0.0 0 1 1272.27 59.84
  Q 1273.94 58.83 1275.21 57.34
  A 0.47 0.46 -50.6 0 1 1275.84 57.27
  L 1280.48 60.87
  Z"
/>
<path d="
  M 826.84 59.38
  Q 830.04 63.73 833.05 65.53
  A 0.45 0.45 0.0 0 1 833.04 66.31
  Q 830.09 67.93 827.65 71.65
  A 0.50 0.49 -46.2 0 1 826.83 71.67
  Q 824.81 68.79 820.90 66.56
  A 1.03 1.03 0.0 0 1 820.88 64.78
  Q 824.73 62.46 826.25 59.43
  A 0.35 0.35 0.0 0 1 826.84 59.38
  Z"
/>
<path d="
  M 682.87 78.98
  Q 682.88 79.17 682.81 79.27
  Q 682.71 79.42 682.58 79.46
  C 678.88 80.56 673.66 82.52 671.72 85.96
  Q 668.97 90.80 667.58 96.72
  A 0.32 0.31 -45.8 0 1 666.97 96.73
  Q 665.65 91.54 663.03 86.94
  C 660.71 82.89 655.07 80.90 650.70 79.72
  Q 650.37 79.63 650.37 79.28
  Q 650.36 78.92 650.69 78.83
  C 655.04 77.57 660.64 75.48 662.89 71.39
  Q 665.42 66.74 666.65 61.53
  A 0.32 0.31 44.8 0 1 667.26 61.53
  Q 668.76 67.42 671.59 72.21
  C 673.60 75.61 678.85 77.48 682.57 78.51
  Q 682.70 78.55 682.80 78.69
  Q 682.87 78.80 682.87 78.98
  Z"
/>
<path d="
  M 413.24 66.31
  Q 414.94 71.61 421.45 75.10
  A 0.43 0.42 48.0 0 1 421.41 75.87
  Q 416.06 78.06 414.23 83.98
  A 0.37 0.37 0.0 0 1 413.53 84.01
  Q 411.16 77.95 404.67 75.92
  A 0.43 0.43 0.0 0 1 404.65 75.10
  Q 410.80 72.89 412.66 66.32
  A 0.30 0.30 0.0 0 1 413.24 66.31
  Z"
/>
<rect x="-1.93" y="-1.98" transform="translate(1113.44,70.80) rotate(-43.3)" width="3.86" height="3.96" rx="1.19"/>
<circle cx="172.87" cy="78.53" r="1.59"/>
<ellipse cx="0.00" cy="0.00" transform="translate(177.57,78.51) rotate(-49.7)" rx="1.58" ry="1.39"/>
<path d="
  M 265.20 84.07
  A 0.94 0.93 41.4 0 1 265.11 82.67
  L 268.83 78.95
  A 0.82 0.81 44.7 0 1 269.98 78.95
  L 274.22 83.19
  A 0.48 0.47 -39.0 0 1 274.14 83.92
  Q 272.40 85.01 271.21 87.26
  A 0.94 0.93 -75.4 0 1 270.37 87.76
  C 266.84 87.70 267.07 85.55 265.20 84.07
  Z"
/>
<rect x="-2.47" y="-2.47" transform="translate(1195.56,81.28) rotate(-44.7)" width="4.94" height="4.94" rx="1.69"/>
<rect x="-2.94" y="-2.93" transform="translate(49.50,83.53) rotate(-41.5)" width="5.88" height="5.86" rx="1.47"/>
<path d="
  M 1134.54 99.20
  A 0.29 0.29 0.0 0 1 1134.02 99.16
  Q 1131.94 93.39 1125.49 91.33
  A 0.47 0.47 0.0 0 1 1125.47 90.45
  Q 1131.78 88.06 1133.33 81.55
  A 0.37 0.37 0.0 0 1 1134.05 81.53
  Q 1135.93 88.06 1142.26 90.37
  A 0.12 0.12 0.0 0 1 1142.28 90.59
  Q 1137.92 92.73 1136.39 95.65
  Q 1135.53 97.32 1134.54 99.20
  Z"
/>
<path d="
  M 1394.05 83.28
  Q 1394.55 83.28 1394.65 83.88
  C 1395.84 90.58 1398.46 100.54 1403.00 105.77
  C 1406.32 109.58 1414.68 112.56 1420.02 114.36
  A 0.51 0.51 0.0 0 1 1420.00 115.34
  C 1410.51 118.12 1402.25 121.20 1398.80 131.14
  Q 1396.23 138.56 1394.57 146.74
  Q 1394.50 147.12 1394.16 147.12
  Q 1393.82 147.12 1393.74 146.74
  Q 1392.06 138.57 1389.46 131.16
  C 1385.98 121.23 1377.71 118.17 1368.21 115.42
  A 0.51 0.51 0.0 0 1 1368.19 114.44
  C 1373.52 112.63 1381.87 109.62 1385.18 105.80
  C 1389.70 100.55 1392.29 90.59 1393.46 83.88
  Q 1393.56 83.28 1394.05 83.28
  Z"
/>
<path d="
  M 116.94 106.71
  L 109.63 101.06
  A 0.30 0.30 0.0 0 1 109.69 100.55
  Q 114.00 98.49 115.86 94.77
  A 0.36 0.36 0.0 0 1 116.48 94.73
  Q 118.59 97.83 122.64 100.75
  A 0.42 0.42 0.0 0 1 122.60 101.46
  Q 119.62 103.15 117.50 106.61
  A 0.38 0.38 0.0 0 1 116.94 106.71
  Z"
/>
<path d="
  M 786.89 95.35
  Q 786.92 95.35 786.95 95.35
  A 0.13 0.02 69.0 0 1 787.01 95.46
  Q 788.48 99.03 792.89 101.34
  A 0.43 0.43 0.0 0 1 792.95 102.07
  Q 791.18 103.40 787.75 106.99
  Q 787.39 107.38 786.98 107.38
  Q 786.57 107.38 786.19 107.00
  Q 782.71 103.46 780.92 102.16
  A 0.43 0.43 0.0 0 1 780.97 101.43
  Q 785.35 99.05 786.77 95.46
  A 0.13 0.02 -69.8 0 1 786.82 95.36
  Q 786.86 95.35 786.89 95.35
  Z"
/>
<rect x="-2.74" y="-2.73" transform="translate(733.16,105.47) rotate(40.6)" width="5.48" height="5.46" rx="1.75"/>
<rect x="-3.17" y="-3.26" transform="translate(153.58,115.70) rotate(-42.9)" width="6.34" height="6.52" rx="1.36"/>
<path d="
  M 1011.87 117.38
  A 1.00 1.00 0.0 0 1 1011.70 115.83
  L 1015.29 112.24
  A 0.82 0.82 0.0 0 1 1016.45 112.24
  L 1020.23 116.01
  A 0.79 0.78 45.3 0 1 1020.23 117.12
  L 1017.71 119.64
  A 2.64 2.64 0.0 0 1 1013.70 119.31
  Q 1012.71 117.91 1011.87 117.38
  Z"
/>
<rect x="-1.57" y="-1.57" transform="translate(859.12,121.09) rotate(36.4)" width="3.14" height="3.14" rx="1.37"/>
<circle cx="1109.85" cy="126.51" r="1.37"/>
<path d="
  M 332.79 126.14
  A 0.37 0.37 0.0 0 1 333.51 126.14
  Q 335.05 132.34 340.79 134.55
  A 0.48 0.48 0.0 0 1 340.82 135.43
  Q 336.32 137.49 334.35 142.45
  A 0.45 0.45 0.0 0 1 333.56 142.53
  Q 329.55 136.42 325.34 135.30
  A 0.34 0.33 40.7 0 1 325.29 134.67
  Q 331.42 132.12 332.79 126.14
  Z"
/>
<ellipse cx="0.00" cy="0.00" transform="translate(1106.59,129.48) rotate(-73.7)" rx="1.59" ry="1.40"/>
<circle cx="1443.27" cy="130.49" r="1.58"/>
<path d="
  M 574.00 129.22
  Q 575.68 134.48 582.15 137.95
  A 0.42 0.42 0.0 0 1 582.11 138.71
  Q 576.80 140.89 574.98 146.76
  A 0.37 0.37 0.0 0 1 574.28 146.79
  Q 571.93 140.78 565.49 138.76
  A 0.43 0.43 0.0 0 1 565.47 137.95
  Q 571.57 135.75 573.42 129.23
  A 0.30 0.30 0.0 0 1 574.00 129.22
  Z"
/>
<path d="
  M 166.42 136.59
  Q 168.01 141.90 174.42 145.49
  A 0.42 0.42 0.0 0 1 174.37 146.26
  Q 169.00 148.34 167.07 154.19
  A 0.37 0.37 0.0 0 1 166.37 154.21
  Q 164.13 148.13 157.71 145.99
  A 0.43 0.43 0.0 0 1 157.71 145.17
  Q 163.87 143.09 165.84 136.59
  A 0.30 0.30 0.0 0 1 166.42 136.59
  Z"
/>
<rect x="-2.98" y="-3.08" transform="translate(961.80,147.86) rotate(-44.0)" width="5.96" height="6.16" rx="1.73"/>
<ellipse cx="0.00" cy="0.00" transform="translate(187.24,148.50) rotate(-93.3)" rx="2.32" ry="2.00"/>
<path d="
  M 1344.84 147.69
  Q 1345.20 147.69 1345.25 147.73
  Q 1347.09 148.99 1348.61 150.80
  A 0.92 0.90 37.8 0 1 1348.74 151.77
  Q 1347.17 155.21 1344.80 155.20
  Q 1342.43 155.19 1340.89 151.73
  A 0.92 0.90 -37.1 0 1 1341.03 150.76
  Q 1342.57 148.97 1344.42 147.72
  Q 1344.47 147.69 1344.84 147.69
  Z"
/>
<rect x="-3.42" y="-3.52" transform="translate(419.91,179.03) rotate(-44.3)" width="6.84" height="7.04" rx="1.68"/>
<rect x="-3.27" y="-3.26" transform="translate(376.99,183.40) rotate(43.5)" width="6.54" height="6.52" rx="1.57"/>
<path d="
  M 887.00 195.24
  Q 887.00 195.12 887.08 194.89
  A 0.06 0.06 0.0 0 1 887.12 194.85
  C 892.32 192.98 896.53 191.35 898.75 185.90
  Q 899.72 183.54 900.54 180.77
  A 0.33 0.33 0.0 0 1 901.18 180.78
  C 903.18 188.10 906.24 192.47 913.78 194.46
  Q 914.33 194.60 914.33 195.26
  Q 914.33 195.60 913.78 195.75
  C 906.25 197.78 903.22 202.17 901.27 209.51
  A 0.33 0.33 0.0 0 1 900.63 209.52
  Q 899.79 206.75 898.81 204.40
  C 896.55 198.96 892.33 197.35 887.12 195.52
  A 0.06 0.06 0.0 0 1 887.08 195.48
  Q 887.00 195.26 887.00 195.24
  Z"
/>
<path d="
  M 1457.42 193.33
  L 1466.42 197.39
  A 0.31 0.31 0.0 0 1 1466.43 197.95
  L 1457.55 202.26
  A 0.31 0.31 0.0 0 0 1457.40 202.41
  L 1453.34 211.41
  A 0.31 0.31 0.0 0 1 1452.78 211.42
  L 1448.47 202.54
  A 0.31 0.31 0.0 0 0 1448.32 202.39
  L 1439.32 198.33
  A 0.31 0.31 0.0 0 1 1439.31 197.77
  L 1448.19 193.46
  A 0.31 0.31 0.0 0 0 1448.34 193.31
  L 1452.40 184.31
  A 0.31 0.31 0.0 0 1 1452.96 184.30
  L 1457.27 193.18
  A 0.31 0.31 0.0 0 0 1457.42 193.33
  Z"
/>
<rect x="-3.06" y="-2.94" transform="translate(1216.61,191.64) rotate(43.1)" width="6.12" height="5.88" rx="1.74"/>
<path d="
  M 1314.72 190.46
  Q 1315.26 191.16 1316.05 192.46
  Q 1317.96 195.61 1321.52 196.81
  A 0.34 0.34 0.0 0 1 1321.58 197.43
  L 1319.97 198.37
  A 4.31 4.29 4.3 0 0 1318.78 199.39
  L 1315.29 203.66
  A 0.43 0.42 46.2 0 1 1314.62 203.64
  Q 1312.14 200.29 1307.57 197.79
  A 0.36 0.36 0.0 0 1 1307.57 197.16
  Q 1312.62 194.46 1314.14 190.54
  A 0.34 0.33 36.7 0 1 1314.72 190.46
  Z"
/>
<rect x="-3.60" y="-3.53" transform="translate(998.15,202.33) rotate(41.3)" width="7.20" height="7.06" rx="1.64"/>
<path d="
  M 328.40 230.54
  Q 328.40 231.14 327.48 231.38
  Q 319.19 233.58 312.80 237.76
  C 306.57 241.84 303.37 255.02 301.86 262.14
  A 0.46 0.46 0.0 0 1 300.96 262.14
  Q 299.27 254.13 296.26 246.51
  C 292.35 236.65 284.15 233.94 274.32 231.29
  Q 273.93 231.19 273.93 230.62
  Q 273.93 230.06 274.32 229.95
  C 284.14 227.28 292.34 224.55 296.22 214.68
  Q 299.21 207.06 300.89 199.04
  A 0.46 0.46 0.0 0 1 301.79 199.04
  C 303.31 206.16 306.54 219.33 312.78 223.39
  Q 319.18 227.56 327.48 229.74
  Q 328.39 229.98 328.40 230.54
  Z"
/>
<path d="
  M 73.82 205.78
  A 1.40 1.40 0.0 0 1 73.90 207.76
  L 72.13 209.69
  A 2.30 2.23 -47.3 0 1 68.93 209.86
  L 67.43 208.48
  A 2.30 2.23 -47.3 0 1 67.35 205.28
  L 69.13 203.35
  A 1.40 1.40 0.0 0 1 71.10 203.27
  L 73.82 205.78
  Z"
/>
<path d="
  M 574.01 206.19
  L 576.98 203.23
  A 0.81 0.81 0.0 0 1 578.13 203.23
  L 581.35 206.45
  A 1.23 1.23 0.0 0 1 581.35 208.19
  L 578.66 210.88
  A 1.21 1.21 0.0 0 1 577.03 210.96
  Q 575.08 209.35 573.89 206.94
  A 0.65 0.65 0.0 0 1 574.01 206.19
  Z"
/>
<rect x="-2.08" y="-2.05" transform="translate(407.02,218.94) rotate(43.6)" width="4.16" height="4.10" rx="1.28"/>
<rect x="-3.02" y="-3.26" transform="translate(1455.97,226.98) rotate(-44.6)" width="6.04" height="6.52" rx="2.38"/>
<ellipse cx="0.00" cy="0.00" transform="translate(391.39,227.32) rotate(-144.6)" rx="1.33" ry="1.15"/>
<rect x="-2.81" y="-2.81" transform="translate(661.47,230.52) rotate(-44.0)" width="5.62" height="5.62" rx="2.00"/>
<rect x="-2.78" y="-2.78" transform="translate(486.62,233.48) rotate(-42.1)" width="5.56" height="5.56" rx="1.95"/>
<rect x="-2.88" y="-2.94" transform="translate(170.67,238.05) rotate(-42.9)" width="5.76" height="5.88" rx="1.71"/>
<path d="
  M 814.59 248.32
  L 819.79 242.85
  A 0.01 0.01 0.0 0 1 819.81 242.85
  L 825.19 248.66
  A 0.11 0.09 49.1 0 1 825.19 248.80
  L 820.20 253.34
  A 0.23 0.23 0.0 0 1 819.90 253.34
  L 814.60 248.61
  A 0.20 0.20 0.0 0 1 814.59 248.32
  Z"
/>
<circle cx="1480.78" cy="258.92" r="1.52"/>
<path d="
  M 122.73 281.25
  Q 122.73 281.13 122.80 280.92
  A 0.06 0.06 0.0 0 1 122.84 280.88
  C 127.73 279.10 131.68 277.54 133.75 272.41
  Q 134.65 270.18 135.40 267.57
  A 0.31 0.31 0.0 0 1 136.01 267.57
  C 137.92 274.45 140.82 278.55 147.93 280.39
  Q 148.44 280.52 148.45 281.14
  Q 148.45 281.46 147.94 281.60
  C 140.86 283.54 138.03 287.69 136.23 294.60
  A 0.31 0.31 0.0 0 1 135.62 294.61
  Q 134.82 292.02 133.89 289.81
  C 131.74 284.71 127.76 283.21 122.85 281.51
  A 0.06 0.06 0.0 0 1 122.81 281.47
  Q 122.73 281.26 122.73 281.25
  Z"
/>
<path d="
  M 946.78 277.20
  Q 943.90 275.48 943.03 272.91
  A 0.98 0.97 -31.9 0 1 943.27 271.91
  L 946.05 269.13
  A 0.86 0.85 -48.5 0 1 947.18 269.05
  L 950.17 271.37
  A 0.80 0.79 14.7 0 1 950.46 271.86
  Q 950.66 273.24 950.40 274.35
  A 0.77 0.74 75.0 0 1 950.20 274.71
  L 947.84 277.07
  A 0.87 0.87 0.0 0 1 946.78 277.20
  Z"
/>
<path d="
  M 769.99 286.42
  Q 769.99 286.44 769.91 286.68
  A 0.07 0.07 0.0 0 1 769.87 286.72
  C 764.37 288.74 759.92 290.50 757.60 296.29
  Q 756.60 298.80 755.75 301.74
  A 0.35 0.35 0.0 0 1 755.07 301.74
  C 752.90 293.99 749.63 289.38 741.62 287.34
  Q 741.04 287.19 741.04 286.83
  Q 741.03 286.13 741.61 285.97
  C 749.57 283.76 752.75 279.08 754.76 271.30
  A 0.35 0.35 0.0 0 1 755.44 271.29
  Q 756.35 274.21 757.40 276.70
  C 759.84 282.43 764.32 284.11 769.86 286.01
  A 0.07 0.07 0.0 0 1 769.90 286.05
  Q 769.99 286.29 769.99 286.42
  Z"
/>
<path d="
  M 1359.30 288.52
  Q 1359.30 288.38 1359.38 288.14
  A 0.07 0.07 0.0 0 1 1359.42 288.10
  C 1364.96 286.07 1369.45 284.29 1371.79 278.46
  Q 1372.81 275.93 1373.66 272.97
  A 0.36 0.36 0.0 0 1 1374.35 272.97
  C 1376.53 280.78 1379.83 285.43 1387.90 287.50
  Q 1388.49 287.65 1388.50 288.35
  Q 1388.50 288.71 1387.91 288.87
  C 1379.88 291.10 1376.68 295.81 1374.64 303.66
  A 0.36 0.36 0.0 0 1 1373.95 303.67
  Q 1373.04 300.73 1371.98 298.22
  C 1369.53 292.43 1365.01 290.74 1359.43 288.81
  A 0.07 0.07 0.0 0 1 1359.39 288.77
  Q 1359.30 288.53 1359.30 288.52
  Z"
/>
<circle cx="451.15" cy="304.16" r="1.53"/>
<path d="
  M 52.63 321.88
  C 52.22 321.45 51.87 320.30 51.28 319.77
  Q 49.88 318.50 45.91 314.83
  A 0.43 0.43 0.0 0 1 46.05 314.11
  Q 50.17 312.57 51.96 309.01
  A 0.36 0.36 0.0 0 1 52.58 308.97
  Q 55.10 312.56 58.80 314.50
  A 0.46 0.45 -49.8 0 1 58.86 315.27
  Q 54.93 318.23 53.39 321.74
  A 0.47 0.46 -55.2 0 1 52.63 321.88
  Z"
/>
<path d="
  M 535.22 316.98
  Q 537.65 320.78 541.43 323.47
  A 0.52 0.52 0.0 0 1 541.38 324.35
  Q 538.00 326.22 535.84 329.55
  A 0.29 0.29 0.0 0 1 535.41 329.61
  L 528.96 323.98
  A 0.21 0.20 -45.8 0 1 528.96 323.67
  Q 532.48 320.60 534.64 316.99
  A 0.34 0.34 0.0 0 1 535.22 316.98
  Z"
/>
<path d="
  M 378.09 336.17
  Q 378.09 336.05 378.17 335.82
  A 0.06 0.06 0.0 0 1 378.21 335.79
  C 383.33 333.89 387.48 332.24 389.64 326.84
  Q 390.57 324.49 391.35 321.75
  A 0.33 0.33 0.0 0 1 391.99 321.75
  C 394.03 328.97 397.09 333.27 404.56 335.17
  Q 405.11 335.30 405.12 335.95
  Q 405.12 336.29 404.58 336.44
  C 397.15 338.51 394.19 342.88 392.33 350.15
  A 0.33 0.33 0.0 0 1 391.69 350.17
  Q 390.84 347.44 389.85 345.12
  C 387.57 339.77 383.38 338.21 378.21 336.45
  A 0.06 0.06 0.0 0 1 378.18 336.41
  Q 378.09 336.19 378.09 336.17
  Z"
/>
<path d="
  M 1465.92 372.15
  Q 1463.33 374.79 1462.15 378.78
  A 0.35 0.34 -46.3 0 1 1461.49 378.80
  Q 1458.65 370.51 1450.20 368.48
  A 0.41 0.41 0.0 0 1 1450.18 367.69
  Q 1455.08 366.14 1457.41 363.78
  Q 1459.73 361.42 1461.20 356.49
  A 0.41 0.41 0.0 0 1 1461.99 356.50
  Q 1464.16 364.91 1472.49 367.62
  A 0.35 0.34 -44.6 0 1 1472.49 368.28
  Q 1468.51 369.52 1465.92 372.15
  Z"
/>
<rect x="-2.96" y="-2.95" transform="translate(1324.38,360.20) rotate(-42.8)" width="5.92" height="5.90" rx="1.95"/>
<path d="
  M 644.87 371.89
  L 650.50 366.90
  A 0.26 0.25 45.8 0 1 650.84 366.91
  L 655.73 371.81
  A 0.29 0.28 -45.7 0 1 655.73 372.22
  L 650.87 377.08
  A 0.23 0.23 0.0 0 1 650.56 377.09
  L 644.87 372.21
  A 0.21 0.21 0.0 0 1 644.87 371.89
  Z"
/>
<rect x="-3.07" y="-3.07" transform="translate(184.56,372.06) rotate(-43.9)" width="6.14" height="6.14" rx="2.20"/>
<path d="
  M 234.45 377.40
  Q 239.55 374.95 241.54 369.88
  A 0.22 0.21 48.7 0 1 241.95 369.91
  C 242.84 373.44 244.91 374.97 248.74 377.58
  A 0.40 0.40 0.0 0 1 248.71 378.25
  Q 244.35 380.74 242.15 385.63
  A 0.26 0.26 0.0 0 1 241.67 385.62
  Q 240.33 381.92 234.41 378.03
  A 0.36 0.36 0.0 0 1 234.45 377.40
  Z"
/>
<path d="
  M 827.42 373.79
  A 1.30 1.30 0.0 0 1 827.39 375.63
  L 826.05 376.92
  A 2.91 2.78 46.1 0 1 822.03 376.75
  L 822.01 376.73
  A 2.91 2.78 46.1 0 1 822.00 372.71
  L 823.34 371.42
  A 1.30 1.30 0.0 0 1 825.18 371.45
  L 827.42 373.79
  Z"
/>
<path d="
  M 731.75 381.04
  Q 729.74 383.10 729.29 383.95
  A 0.34 0.34 0.0 0 1 728.75 384.03
  L 722.59 377.87
  A 0.08 0.08 0.0 0 1 722.62 377.73
  Q 723.38 377.47 725.67 375.12
  Q 727.96 372.77 728.20 372.00
  A 0.08 0.08 0.0 0 1 728.33 371.97
  L 734.65 377.96
  A 0.34 0.34 0.0 0 1 734.59 378.51
  Q 733.75 378.98 731.75 381.04
  Z"
/>
<rect x="-3.06" y="-3.22" transform="translate(302.61,379.72) rotate(-42.3)" width="6.12" height="6.44" rx="1.57"/>
<path d="
  M 532.70 395.51
  Q 532.71 395.77 532.49 395.83
  Q 527.58 397.23 523.57 400.36
  C 520.14 403.03 518.40 408.42 517.52 412.55
  A 0.26 0.26 0.0 0 1 517.02 412.55
  C 514.93 403.71 511.67 397.63 501.82 396.20
  Q 501.36 396.13 501.36 395.68
  Q 501.35 395.23 501.82 395.15
  C 511.65 393.62 514.84 387.50 516.84 378.64
  A 0.26 0.26 0.0 0 1 517.34 378.63
  C 518.26 382.75 520.06 388.13 523.52 390.76
  Q 527.56 393.84 532.48 395.19
  Q 532.70 395.25 532.70 395.51
  Z"
/>
<path d="
  M 1363.09 395.58
  A 0.24 0.23 -42.7 0 1 1363.07 396.03
  Q 1357.37 397.52 1354.81 403.06
  Q 1354.26 404.26 1353.66 405.43
  A 0.35 0.35 0.0 0 1 1353.02 405.39
  C 1350.93 399.88 1348.08 398.32 1343.07 396.13
  A 0.33 0.33 0.0 0 1 1343.08 395.52
  C 1347.15 393.86 1351.46 390.16 1352.42 385.74
  Q 1352.66 384.63 1352.76 384.53
  A 0.37 0.37 0.0 0 1 1353.38 384.72
  C 1354.31 389.45 1358.70 394.02 1363.09 395.58
  Z"
/>
<rect x="-2.14" y="-2.14" transform="translate(213.46,411.42) rotate(43.2)" width="4.28" height="4.28" rx="1.33"/>
<path d="
  M 1300.95 415.75
  Q 1304.06 414.10 1305.06 412.77
  A 0.58 0.57 -48.7 0 1 1305.92 412.71
  L 1310.14 416.93
  A 1.20 1.20 0.0 0 1 1310.14 418.63
  L 1306.83 421.93
  A 1.16 1.15 -48.6 0 1 1305.31 422.03
  L 1302.42 419.80
  A 1.92 1.84 -80.0 0 1 1301.78 418.84
  Q 1301.40 417.54 1300.75 416.73
  A 0.65 0.64 -33.6 0 1 1300.95 415.75
  Z"
/>
<rect x="-3.16" y="-3.16" transform="translate(65.37,417.39) rotate(-42.8)" width="6.32" height="6.32" rx="1.96"/>
<path d="
  M 694.02 441.97
  L 699.00 446.94
  A 0.40 0.40 0.0 0 1 699.03 447.46
  L 695.05 452.60
  A 0.94 0.94 0.0 0 1 693.63 452.69
  L 689.63 448.70
  A 1.78 1.77 45.1 0 1 689.63 446.19
  L 693.86 441.97
  A 0.11 0.11 0.0 0 1 694.02 441.97
  Z"
/>
<circle cx="142.31" cy="448.65" r="1.82"/>
<path d="
  M 1457.73 461.07
  Q 1460.00 458.73 1461.42 453.88
  A 0.40 0.40 0.0 0 1 1462.20 453.88
  Q 1464.37 462.15 1472.58 464.77
  A 0.34 0.34 0.0 0 1 1472.57 465.42
  Q 1468.67 466.66 1466.13 469.26
  Q 1463.59 471.86 1462.45 475.80
  A 0.34 0.34 0.0 0 1 1461.81 475.82
  Q 1458.98 467.68 1450.66 465.72
  A 0.40 0.40 0.0 0 1 1450.63 464.94
  Q 1455.45 463.40 1457.73 461.07
  Z"
/>
<circle cx="1397.36" cy="465.61" r="1.50"/>
<rect x="-2.81" y="-2.83" transform="translate(544.38,468.14) rotate(-44.0)" width="5.62" height="5.66" rx="2.11"/>
<path d="
  M 328.08 480.58
  A 0.80 0.80 0.0 0 1 329.06 480.48
  Q 331.68 482.13 332.43 484.53
  A 0.91 0.90 -30.5 0 1 332.18 485.45
  L 329.55 487.95
  A 0.80 0.78 -47.1 0 1 328.51 488.00
  L 325.80 485.79
  A 0.74 0.73 16.0 0 1 325.54 485.33
  Q 325.38 484.05 325.65 483.03
  A 0.71 0.69 76.4 0 1 325.84 482.70
  L 328.08 480.58
  Z"
/>
<rect x="-3.15" y="-3.14" transform="translate(95.82,490.35) rotate(-44.2)" width="6.30" height="6.28" rx="2.09"/>
<path d="
  M 771.53 501.97
  A 0.28 0.28 0.0 0 1 771.52 501.44
  Q 777.54 499.44 779.34 493.63
  A 0.40 0.40 0.0 0 1 780.10 493.62
  Q 782.26 499.56 787.98 501.51
  A 0.35 0.34 -45.5 0 1 787.98 502.16
  Q 782.56 504.11 780.75 509.17
  A 0.40 0.39 39.4 0 1 780.04 509.23
  Q 776.53 503.33 771.53 501.97
  Z"
/>
<path d="
  M 510.80 501.22
  L 515.71 496.30
  A 0.47 0.46 -41.5 0 1 516.40 496.34
  Q 518.56 498.96 520.42 499.99
  A 1.16 1.15 -53.1 0 1 520.68 501.82
  L 517.26 505.24
  A 1.68 1.68 0.0 0 1 514.79 505.14
  Q 512.59 502.54 510.83 501.46
  A 0.16 0.15 39.6 0 1 510.80 501.22
  Z"
/>
<path d="
  M 1312.14 533.23
  Q 1312.14 532.75 1312.47 532.66
  C 1320.68 530.46 1327.53 528.20 1330.80 519.97
  Q 1333.32 513.60 1334.74 506.91
  A 0.39 0.38 44.9 0 1 1335.49 506.91
  C 1336.75 512.86 1339.41 523.87 1344.61 527.28
  Q 1349.95 530.78 1356.87 532.62
  Q 1357.64 532.83 1357.64 533.29
  Q 1357.64 533.79 1356.87 533.99
  Q 1349.94 535.81 1344.59 539.28
  C 1339.38 542.68 1336.67 553.68 1335.39 559.62
  A 0.39 0.38 -44.7 0 1 1334.64 559.62
  Q 1333.25 552.92 1330.75 546.55
  C 1327.51 538.31 1320.67 536.02 1312.47 533.79
  Q 1312.14 533.70 1312.14 533.23
  Z"
/>
<path d="
  M 1229.70 515.11
  A 1.35 1.35 0.0 0 1 1227.79 515.21
  L 1225.88 513.49
  A 2.86 2.66 41.9 0 1 1225.53 509.60
  L 1226.37 508.67
  A 2.86 2.66 41.9 0 1 1230.27 508.60
  L 1232.19 510.31
  A 1.35 1.35 0.0 0 1 1232.29 512.22
  L 1229.70 515.11
  Z"
/>
<path d="
  M 363.87 512.82
  A 0.86 0.86 0.0 0 1 362.68 512.55
  L 362.24 511.86
  A 2.48 2.24 57.5 0 1 362.80 508.57
  L 363.09 508.38
  A 2.48 2.24 57.5 0 1 366.31 509.27
  L 366.75 509.96
  A 0.86 0.86 0.0 0 1 366.48 511.15
  L 363.87 512.82
  Z"
/>
<path d="
  M 135.01 519.08
  Q 137.23 516.75 138.58 511.94
  A 0.40 0.40 0.0 0 1 139.35 511.93
  Q 141.58 520.08 149.72 522.59
  A 0.34 0.33 -45.5 0 1 149.72 523.23
  Q 145.88 524.49 143.40 527.09
  Q 140.92 529.69 139.83 533.59
  A 0.34 0.33 -47.2 0 1 139.19 533.62
  Q 136.31 525.60 128.07 523.75
  A 0.40 0.40 0.0 0 1 128.04 522.98
  Q 132.78 521.41 135.01 519.08
  Z"
/>
<rect x="-2.80" y="-2.82" transform="translate(1201.87,515.86) rotate(-44.8)" width="5.60" height="5.64" rx="1.51"/>
<path d="
  M 415.18 527.02
  A 0.15 0.14 58.1 0 1 415.13 527.26
  Q 410.50 528.83 409.00 533.09
  A 0.52 0.52 0.0 0 1 408.07 533.18
  Q 406.32 530.22 403.24 528.79
  A 1.12 1.08 -86.1 0 1 402.65 528.09
  L 401.93 525.48
  A 0.70 0.69 70.5 0 1 402.31 524.67
  Q 406.03 522.98 407.16 519.72
  A 0.52 0.52 0.0 0 1 408.00 519.50
  C 408.64 520.10 408.87 521.46 409.89 522.33
  Q 413.65 525.51 415.18 527.02
  Z"
/>
<path d="
  M 267.29 524.97
  A 0.20 0.20 0.0 0 1 267.58 524.97
  L 271.22 528.56
  A 2.38 0.45 44.6 0 1 272.60 530.55
  L 268.12 535.09
  A 2.38 0.45 44.6 0 1 266.11 533.74
  L 262.47 530.15
  A 0.20 0.20 0.0 0 1 262.46 529.87
  L 267.29 524.97
  Z"
/>
<rect x="-2.89" y="-2.90" transform="translate(1073.16,533.28) rotate(-44.2)" width="5.78" height="5.80" rx="1.99"/>
<path d="
  M 662.32 537.39
  Q 658.89 539.43 657.11 542.96
  A 0.55 0.55 0.0 0 1 656.24 543.10
  L 649.86 536.72
  A 0.29 0.29 0.0 0 1 649.93 536.26
  Q 653.53 534.36 655.46 530.93
  A 0.50 0.50 0.0 0 1 656.31 530.90
  Q 659.28 535.29 662.28 536.66
  A 0.41 0.41 0.0 0 1 662.32 537.39
  Z"
/>
<path d="
  M 956.70 534.35
  A 1.50 1.50 0.0 0 1 956.71 536.47
  L 955.09 538.11
  A 3.30 2.93 44.7 0 1 950.68 537.87
  L 950.58 537.78
  A 3.30 2.93 44.7 0 1 950.30 533.37
  L 951.92 531.73
  A 1.50 1.50 0.0 0 1 954.04 531.72
  L 956.70 534.35
  Z"
/>
<rect x="-2.91" y="-2.99" transform="translate(704.42,535.48) rotate(-44.5)" width="5.82" height="5.98" rx="2.26"/>
<rect x="-3.17" y="-3.38" transform="translate(615.66,543.34) rotate(-43.7)" width="6.34" height="6.76" rx="1.98"/>
<rect x="-1.51" y="-1.33" transform="translate(1195.79,552.95) rotate(-1.4)" width="3.02" height="2.66" rx="1.16"/>
<path d="
  M 902.72 579.35
  Q 902.19 579.36 902.12 579.12
  Q 900.00 571.44 892.46 569.52
  A 0.32 0.32 0.0 0 1 892.43 568.91
  Q 900.03 566.17 901.74 557.96
  A 0.51 0.25 -22.7 0 1 901.97 557.70
  Q 902.03 557.67 902.25 557.66
  Q 902.32 557.66 902.38 557.69
  A 0.51 0.25 20.1 0 1 902.62 557.94
  Q 904.69 566.07 912.41 568.47
  A 0.32 0.32 0.0 0 1 912.40 569.08
  Q 904.96 571.33 903.18 579.10
  Q 903.13 579.34 902.72 579.35
  Z"
/>
<rect x="-3.39" y="-3.25" transform="translate(301.95,562.34) rotate(44.2)" width="6.78" height="6.50" rx="2.49"/>
<path d="
  M 248.58 572.18
  L 253.93 577.53
  A 0.38 0.38 0.0 0 1 253.93 578.07
  L 249.41 582.58
  A 0.48 0.47 42.7 0 1 248.76 582.60
  Q 246.35 580.43 244.14 579.50
  A 0.58 0.57 28.1 0 1 243.88 578.66
  Q 244.71 577.39 244.46 575.70
  A 0.75 0.75 0.0 0 1 244.92 574.89
  Q 246.70 574.18 248.07 572.22
  A 0.34 0.33 40.4 0 1 248.58 572.18
  Z"
/>
<path d="
  M 999.29 577.81
  A 1.22 1.22 0.0 0 1 999.34 579.54
  L 998.03 580.92
  A 2.32 2.20 -46.6 0 1 994.84 581.09
  L 994.02 580.32
  A 2.32 2.20 -46.6 0 1 994.02 577.12
  L 995.33 575.74
  A 1.22 1.22 0.0 0 1 997.05 575.70
  L 999.29 577.81
  Z"
/>
<path d="
  M 714.74 576.35
  Q 715.11 576.35 715.16 576.62
  C 716.26 582.07 718.25 588.44 721.72 593.01
  A 5.27 5.07 89.2 0 0 722.74 594.04
  Q 728.04 598.13 734.95 599.51
  A 0.53 0.53 0.0 0 1 734.97 600.54
  C 729.70 601.78 724.84 603.64 721.19 607.70
  A 4.98 4.92 -9.6 0 0 720.55 608.59
  Q 716.80 615.38 715.41 623.55
  Q 715.36 623.83 714.97 623.83
  Q 714.58 623.83 714.53 623.55
  Q 713.06 615.40 709.25 608.64
  A 4.98 4.92 9.1 0 0 708.60 607.76
  C 704.91 603.74 700.03 601.92 694.75 600.73
  A 0.53 0.53 0.0 0 1 694.76 599.70
  Q 701.66 598.26 706.92 594.12
  A 5.27 5.07 -89.7 0 0 707.93 593.08
  C 711.35 588.47 713.28 582.08 714.33 576.62
  Q 714.38 576.35 714.74 576.35
  Z"
/>
<path d="
  M 1021.75 597.41
  A 0.33 0.33 0.0 0 1 1021.15 597.36
  Q 1018.81 590.75 1011.44 588.35
  A 0.54 0.53 43.9 0 1 1011.42 587.34
  Q 1018.65 584.65 1020.47 577.20
  A 0.43 0.42 44.1 0 1 1021.29 577.19
  Q 1023.40 584.67 1030.64 587.35
  A 0.14 0.13 41.2 0 1 1030.66 587.60
  Q 1025.66 590.02 1023.89 593.36
  Q 1022.89 595.26 1021.75 597.41
  Z"
/>
<rect x="-2.93" y="-2.81" transform="translate(1443.30,585.34) rotate(44.2)" width="5.86" height="5.62" rx="1.69"/>
<path d="
  M 443.11 585.35
  Q 444.57 585.43 444.78 587.50
  Q 444.96 589.32 443.03 589.95
  Q 442.94 589.98 442.86 589.98
  Q 442.77 589.97 442.69 589.94
  Q 440.84 589.10 441.22 587.31
  Q 441.65 585.27 443.11 585.35
  Z"
/>
<rect x="-3.05" y="-2.93" transform="translate(88.02,600.91) rotate(44.8)" width="6.10" height="5.86" rx="1.76"/>
<rect x="-3.36" y="-3.22" transform="translate(1099.60,606.46) rotate(43.5)" width="6.72" height="6.44" rx="1.57"/>
<path d="
  M 368.40 638.87
  C 366.84 634.39 365.10 629.49 360.64 627.58
  Q 357.71 626.32 354.85 625.72
  A 0.50 0.50 0.0 0 1 354.80 624.76
  C 358.84 623.46 363.63 621.36 365.66 617.42
  Q 367.34 614.17 368.42 610.33
  A 0.35 0.35 0.0 0 1 369.09 610.32
  C 370.15 613.82 371.36 617.93 373.84 620.27
  A 2.38 2.06 -4.1 0 0 374.24 620.57
  L 381.56 624.68
  A 0.55 0.55 0.0 0 1 381.42 625.70
  C 373.75 627.55 371.07 632.06 368.92 638.87
  A 0.28 0.27 44.6 0 1 368.40 638.87
  Z"
/>
<path d="
  M 1219.20 628.26
  A 0.24 0.24 0.0 0 1 1219.18 628.71
  Q 1213.49 630.26 1210.99 635.84
  Q 1210.45 637.05 1209.86 638.22
  A 0.35 0.35 0.0 0 1 1209.22 638.19
  C 1207.06 632.70 1204.19 631.16 1199.15 629.02
  A 0.33 0.33 0.0 0 1 1199.16 628.41
  C 1203.21 626.71 1207.49 622.95 1208.40 618.52
  Q 1208.63 617.40 1208.73 617.30
  A 0.37 0.37 0.0 0 1 1209.36 617.49
  C 1210.34 622.21 1214.78 626.74 1219.20 628.26
  Z"
/>
<circle cx="531.15" cy="625.33" r="1.31"/>
<rect x="-2.96" y="-3.00" transform="translate(178.22,629.50) rotate(-43.1)" width="5.92" height="6.00" rx="1.92"/>
<circle cx="623.20" cy="630.82" r="1.48"/>
<path d="
  M 579.55 647.21
  C 578.92 646.49 578.52 645.16 577.57 644.45
  Q 573.87 641.69 571.78 640.24
  A 0.38 0.38 0.0 0 1 571.90 639.56
  Q 577.16 638.04 578.99 633.46
  A 0.48 0.48 0.0 0 1 579.77 633.30
  C 580.29 633.81 580.59 635.03 581.15 635.68
  Q 582.65 637.42 586.41 639.90
  A 0.78 0.78 0.0 0 1 586.22 641.29
  Q 582.59 642.49 580.42 647.09
  A 0.53 0.52 -52.5 0 1 579.55 647.21
  Z"
/>
<path d="
  M 106.14 641.21
  A 0.31 0.31 0.0 0 1 106.74 641.18
  Q 109.02 647.92 115.49 650.59
  A 0.39 0.39 0.0 0 1 115.42 651.33
  C 111.39 652.16 108.93 656.58 107.59 660.17
  A 0.36 0.36 0.0 0 1 106.92 660.17
  Q 104.50 654.06 97.22 651.48
  A 0.37 0.37 0.0 0 1 97.22 650.79
  Q 104.42 648.26 106.14 641.21
  Z"
/>
<path d="
  M 983.53 642.94
  A 0.44 0.44 0.0 0 1 983.58 643.56
  L 983.43 643.75
  A 2.10 1.53 -49.9 0 1 980.90 644.37
  L 980.71 644.20
  A 2.10 1.53 -49.9 0 1 980.89 641.61
  L 981.04 641.42
  A 0.44 0.44 0.0 0 1 981.66 641.37
  L 983.53 642.94
  Z"
/>
<path d="
  M 866.23 654.37
  A 0.42 0.41 41.5 0 1 866.28 655.11
  Q 862.84 657.19 861.08 660.76
  A 0.55 0.55 0.0 0 1 860.21 660.91
  L 853.73 654.54
  A 0.29 0.29 0.0 0 1 853.80 654.08
  Q 857.40 652.14 859.32 648.67
  A 0.50 0.50 0.0 0 1 860.17 648.63
  Q 863.20 653.02 866.23 654.37
  Z"
/>
<path d="
  M 1176.17 652.71
  Q 1178.49 651.43 1180.27 648.95
  A 0.67 0.67 0.0 0 1 1181.29 648.87
  L 1185.53 653.11
  A 0.94 0.93 -45.2 0 1 1185.53 654.44
  L 1181.82 658.15
  A 0.58 0.57 38.2 0 1 1181.11 658.23
  L 1178.72 656.71
  A 2.71 2.65 -87.3 0 1 1177.77 655.64
  Q 1177.11 654.27 1176.10 653.43
  A 0.44 0.44 0.0 0 1 1176.17 652.71
  Z"
/>
<ellipse cx="0.00" cy="0.00" transform="translate(794.29,656.21) rotate(-81.1)" rx="2.11" ry="1.96"/>
<path d="
  M 220.64 660.15
  A 1.50 1.50 0.0 0 1 220.66 662.27
  L 218.99 663.98
  A 3.14 2.99 44.4 0 1 214.65 663.92
  L 214.31 663.58
  A 3.14 2.99 44.4 0 1 214.16 659.25
  L 215.83 657.54
  A 1.50 1.50 0.0 0 1 217.95 657.52
  L 220.64 660.15
  Z"
/>
<circle cx="1077.84" cy="667.95" r="1.58"/>
<path d="
  M 1462.53 677.90
  Q 1460.54 679.10 1459.29 681.50
  A 0.86 0.86 0.0 0 1 1458.45 681.97
  L 1455.82 681.75
  A 0.80 0.77 68.8 0 1 1455.32 681.52
  L 1451.44 677.64
  A 0.32 0.31 51.2 0 1 1451.49 677.15
  Q 1453.83 675.65 1456.42 672.17
  A 0.55 0.55 0.0 0 1 1457.25 672.11
  L 1462.59 677.44
  A 0.30 0.29 52.6 0 1 1462.53 677.90
  Z"
/>
<path d="
  M 1010.90 702.66
  Q 1010.34 702.66 1010.27 702.41
  Q 1008.19 694.34 1000.35 692.21
  A 0.34 0.33 42.9 0 1 1000.33 691.57
  Q 1008.32 688.84 1010.25 680.30
  A 0.53 0.26 -21.7 0 1 1010.49 680.03
  Q 1010.55 679.99 1010.79 679.99
  Q 1010.86 679.99 1010.92 680.02
  A 0.53 0.26 21.1 0 1 1011.17 680.29
  Q 1013.19 688.82 1021.21 691.46
  A 0.34 0.33 -43.5 0 1 1021.19 692.10
  Q 1013.38 694.31 1011.38 702.40
  Q 1011.32 702.66 1010.90 702.66
  Z"
/>
<rect x="-3.02" y="-2.94" transform="translate(1293.25,689.35) rotate(44.2)" width="6.04" height="5.88" rx="1.92"/>
<path d="
  M 61.29 697.16
  A 1.36 1.36 0.0 0 1 59.37 697.05
  L 57.78 695.27
  A 2.51 2.39 -41.8 0 1 58.06 691.81
  L 58.89 691.07
  A 2.51 2.39 -41.8 0 1 62.36 691.18
  L 63.95 692.96
  A 1.36 1.36 0.0 0 1 63.84 694.88
  L 61.29 697.16
  Z"
/>
<ellipse cx="0.00" cy="0.00" transform="translate(770.62,705.68) rotate(-110.8)" rx="1.77" ry="1.48"/>
<ellipse cx="0.00" cy="0.00" transform="translate(1255.30,706.99) rotate(-117.5)" rx="1.96" ry="1.58"/>
<path d="
  M 234.78 733.24
  Q 234.78 733.10 234.86 732.87
  A 0.06 0.06 0.0 0 1 234.90 732.83
  C 240.25 730.85 244.58 729.11 246.82 723.47
  Q 247.79 721.02 248.60 718.15
  A 0.34 0.34 0.0 0 1 249.27 718.15
  C 251.41 725.69 254.61 730.17 262.42 732.14
  Q 262.99 732.28 263.00 732.96
  Q 263.00 733.31 262.44 733.47
  C 254.69 735.65 251.60 740.22 249.67 747.81
  A 0.34 0.34 0.0 0 1 249.00 747.82
  Q 248.11 744.98 247.08 742.56
  C 244.68 736.98 240.31 735.36 234.91 733.52
  A 0.06 0.06 0.0 0 1 234.87 733.48
  Q 234.78 733.25 234.78 733.24
  Z"
/>
<path d="
  M 823.37 719.02
  Q 823.43 719.02 823.48 719.03
  A 0.31 0.07 53.1 0 1 823.65 719.18
  Q 825.54 721.59 829.02 724.33
  A 0.53 0.52 -46.6 0 1 829.04 725.14
  Q 826.72 727.16 824.83 729.29
  Q 824.47 729.70 823.60 729.72
  Q 822.72 729.74 822.34 729.35
  Q 820.37 727.29 817.97 725.37
  A 0.53 0.52 44.2 0 1 817.95 724.56
  Q 821.32 721.68 823.11 719.19
  A 0.31 0.07 -55.5 0 1 823.27 719.04
  Q 823.32 719.02 823.37 719.02
  Z"
/>
<rect x="-2.94" y="-2.92" transform="translate(917.18,730.71) rotate(44.4)" width="5.88" height="5.84" rx="1.86"/>
<path d="
  M 108.31 745.97
  A 1.47 1.47 0.0 0 1 108.33 748.05
  L 106.34 750.08
  A 3.12 2.27 44.5 0 1 102.52 749.51
  L 102.25 749.24
  A 3.12 2.27 44.5 0 1 101.61 745.44
  L 103.60 743.41
  A 1.47 1.47 0.0 0 1 105.68 743.39
  L 108.31 745.97
  Z"
/>
<path d="
  M 1147.32 751.99
  A 0.41 0.41 0.0 0 1 1147.32 752.57
  L 1142.21 757.67
  A 0.29 0.29 0.0 0 1 1141.81 757.69
  L 1136.27 753.13
  A 0.37 0.36 -55.9 0 1 1136.19 752.67
  L 1137.75 749.97
  A 0.47 0.47 0.0 0 1 1137.91 749.81
  Q 1140.12 748.63 1141.18 746.49
  A 0.34 0.34 0.0 0 1 1141.73 746.40
  L 1147.32 751.99
  Z"
/>
<path d="
  M 533.91 758.51
  A 1.49 1.49 0.0 0 1 531.80 758.48
  L 529.63 756.26
  A 2.63 2.44 -44.3 0 1 529.81 752.67
  L 530.84 751.67
  A 2.63 2.44 -44.3 0 1 534.42 751.58
  L 536.60 753.80
  A 1.49 1.49 0.0 0 1 536.57 755.91
  L 533.91 758.51
  Z"
/>
<rect x="-2.94" y="-2.92" transform="translate(1318.81,762.71) rotate(43.8)" width="5.88" height="5.84" rx="1.93"/>
<path d="
  M 1251.81 775.18
  Q 1251.81 775.05 1251.88 774.82
  A 0.06 0.06 0.0 0 1 1251.92 774.78
  C 1257.18 772.81 1261.44 771.09 1263.62 765.53
  Q 1264.57 763.11 1265.36 760.29
  A 0.34 0.34 0.0 0 1 1266.01 760.28
  C 1268.15 767.69 1271.32 772.10 1279.01 774.01
  Q 1279.57 774.15 1279.58 774.81
  Q 1279.59 775.16 1279.03 775.31
  C 1271.41 777.49 1268.39 781.99 1266.51 789.47
  A 0.34 0.34 0.0 0 1 1265.86 789.49
  Q 1264.97 786.69 1263.94 784.31
  C 1261.57 778.83 1257.26 777.25 1251.93 775.46
  A 0.06 0.06 0.0 0 1 1251.89 775.42
  Q 1251.81 775.19 1251.81 775.18
  Z"
/>
<path d="
  M 936.98 761.53
  L 941.93 766.49
  A 0.44 0.43 -42.5 0 1 941.90 767.14
  Q 939.93 768.75 938.63 771.38
  A 0.73 0.72 -64.7 0 1 937.69 771.72
  Q 933.70 769.89 931.66 766.45
  A 0.60 0.60 0.0 0 1 931.88 765.63
  Q 934.53 764.13 936.40 761.58
  A 0.39 0.38 40.0 0 1 936.98 761.53
  Z"
/>
<path d="
  M 1445.83 773.98
  A 0.33 0.33 0.0 0 1 1445.85 773.40
  Q 1450.39 771.35 1452.03 767.05
  A 0.46 0.45 42.3 0 1 1452.86 767.01
  Q 1455.21 771.69 1458.86 773.23
  A 0.53 0.53 0.0 0 1 1458.90 774.18
  Q 1455.89 775.76 1453.38 779.69
  A 0.51 0.51 0.0 0 1 1452.56 779.72
  Q 1449.67 776.10 1445.83 773.98
  Z"
/>
<rect x="-2.44" y="-2.34" transform="translate(556.35,779.70) rotate(43.7)" width="4.88" height="4.68" rx="1.64"/>
<path d="
  M 660.81 794.78
  Q 660.81 794.65 660.89 794.42
  A 0.06 0.06 0.0 0 1 660.93 794.38
  C 666.18 792.47 670.44 790.79 672.67 785.27
  Q 673.64 782.87 674.45 780.07
  A 0.34 0.34 0.0 0 1 675.10 780.07
  C 677.16 787.47 680.27 791.89 687.92 793.86
  Q 688.48 794.01 688.48 794.67
  Q 688.48 795.01 687.93 795.17
  C 680.32 797.26 677.27 801.72 675.32 809.16
  A 0.34 0.34 0.0 0 1 674.67 809.17
  Q 673.82 806.37 672.81 803.99
  C 670.50 798.50 666.22 796.89 660.93 795.06
  A 0.06 0.06 0.0 0 1 660.89 795.02
  Q 660.81 794.79 660.81 794.78
  Z"
/>
<path d="
  M 377.26 785.91
  L 382.23 780.94
  A 0.42 0.42 0.0 0 1 382.83 780.94
  L 388.08 786.19
  A 0.27 0.26 -38.7 0 1 388.03 786.60
  Q 385.45 788.22 384.18 790.76
  A 0.63 0.62 -66.7 0 1 383.41 791.07
  Q 381.22 790.29 380.46 789.36
  Q 378.76 787.27 377.37 786.58
  A 0.42 0.42 0.0 0 1 377.26 785.91
  Z"
/>
<path d="
  M 161.05 798.10
  A 0.55 0.55 0.0 0 1 161.06 798.88
  L 157.53 802.44
  A 3.54 1.78 44.7 0 1 153.77 801.21
  L 153.55 801.00
  A 3.54 1.78 44.7 0 1 152.29 797.25
  L 155.81 793.69
  A 0.55 0.55 0.0 0 1 156.59 793.68
  L 161.05 798.10
  Z"
/>
<rect x="-2.84" y="-2.86" transform="translate(759.29,799.36) rotate(43.8)" width="5.68" height="5.72" rx="1.87"/>
<rect x="-2.75" y="-2.90" transform="translate(305.61,799.60) rotate(-42.4)" width="5.50" height="5.80" rx="1.79"/>
<rect x="-3.07" y="-3.16" transform="translate(503.14,800.42) rotate(-43.9)" width="6.14" height="6.32" rx="1.99"/>
<path d="
  M 913.78 804.89
  Q 914.21 804.89 914.34 805.66
  Q 915.80 814.26 919.78 822.23
  C 922.80 828.30 931.85 831.23 938.02 833.06
  A 0.57 0.57 0.0 0 1 938.00 834.16
  C 929.98 836.16 922.06 838.90 918.76 846.99
  Q 915.69 854.53 915.07 858.53
  Q 914.34 863.22 913.79 863.22
  Q 913.23 863.22 912.50 858.53
  Q 911.88 854.53 908.81 846.99
  C 905.51 838.90 897.59 836.16 889.57 834.17
  A 0.57 0.57 0.0 0 1 889.55 833.07
  C 895.72 831.23 904.77 828.30 907.79 822.23
  Q 911.77 814.26 913.22 805.66
  Q 913.35 804.89 913.78 804.89
  Z"
/>
<path d="
  M 134.90 814.88
  A 0.26 0.26 0.0 0 1 135.26 814.87
  L 138.59 817.96
  A 2.44 1.74 42.9 0 1 139.19 820.90
  L 136.59 823.69
  A 2.44 1.74 42.9 0 1 133.62 823.31
  L 130.29 820.22
  A 0.26 0.26 0.0 0 1 130.28 819.85
  L 134.90 814.88
  Z"
/>
<path d="
  M 1395.22 821.24
  Q 1397.48 824.61 1400.58 825.90
  A 0.50 0.50 0.0 0 1 1400.75 826.71
  L 1395.25 832.20
  A 0.53 0.53 0.0 0 1 1394.53 832.24
  L 1392.09 830.18
  A 3.29 3.21 3.1 0 1 1391.53 829.57
  Q 1389.87 827.23 1388.59 826.34
  A 0.34 0.34 0.0 0 1 1388.66 825.74
  Q 1391.69 824.58 1394.35 821.21
  A 0.54 0.53 -42.8 0 1 1395.22 821.24
  Z"
/>
<path d="
  M 86.21 844.05
  Q 86.21 844.17 86.13 844.37
  A 0.06 0.06 0.0 0 1 86.10 844.41
  C 81.34 846.16 77.49 847.70 75.49 852.71
  Q 74.62 854.89 73.89 857.43
  A 0.31 0.31 0.0 0 1 73.30 857.43
  C 71.41 850.73 68.57 846.74 61.63 844.97
  Q 61.13 844.84 61.12 844.24
  Q 61.12 843.93 61.62 843.79
  C 68.51 841.87 71.26 837.81 73.00 831.07
  A 0.31 0.31 0.0 0 1 73.59 831.05
  Q 74.38 833.59 75.29 835.74
  C 77.41 840.71 81.29 842.15 86.09 843.80
  A 0.06 0.06 0.0 0 1 86.13 843.83
  Q 86.21 844.04 86.21 844.05
  Z"
/>
<circle cx="342.10" cy="833.05" r="1.76"/>
<rect x="-3.07" y="-3.07" transform="translate(1037.01,845.33) rotate(-41.4)" width="6.14" height="6.14" rx="1.86"/>
<path d="
  M 1140.90 859.61
  Q 1140.90 859.96 1140.34 860.11
  C 1132.60 862.21 1129.49 866.73 1127.49 874.27
  A 0.34 0.34 0.0 0 1 1126.83 874.28
  Q 1125.97 871.44 1124.96 869.02
  C 1122.63 863.44 1118.29 861.79 1112.93 859.91
  A 0.06 0.06 0.0 0 1 1112.89 859.87
  Q 1112.81 859.64 1112.81 859.63
  Q 1112.81 859.50 1112.89 859.26
  A 0.06 0.06 0.0 0 1 1112.93 859.22
  C 1118.27 857.30 1122.60 855.61 1124.88 850.01
  Q 1125.87 847.58 1126.71 844.74
  A 0.34 0.34 0.0 0 1 1127.37 844.74
  C 1129.43 852.26 1132.58 856.76 1140.33 858.79
  Q 1140.90 858.94 1140.90 859.61
  Z"
/>
<rect x="-3.50" y="-3.18" transform="translate(435.72,850.46) rotate(41.7)" width="7.00" height="6.36" rx="1.38"/>
<rect x="-3.24" y="-3.18" transform="translate(829.00,851.39) rotate(43.8)" width="6.48" height="6.36" rx="1.93"/>
<rect x="-2.83" y="-2.82" transform="translate(1366.35,853.68) rotate(-43.9)" width="5.66" height="5.64" rx="1.73"/>
<path d="
  M 242.00 853.66
  A 1.40 1.40 0.0 0 1 241.99 855.64
  L 240.46 857.16
  A 2.73 2.54 -44.8 0 1 236.74 857.28
  L 235.61 856.14
  A 2.73 2.54 -44.8 0 1 235.76 852.42
  L 237.28 850.90
  A 1.40 1.40 0.0 0 1 239.26 850.91
  L 242.00 853.66
  Z"
/>
<rect x="-2.48" y="-2.48" transform="translate(1201.85,860.60) rotate(-41.6)" width="4.96" height="4.96" rx="1.77"/>
<rect x="-2.91" y="-2.90" transform="translate(1485.64,865.95) rotate(43.5)" width="5.82" height="5.80" rx="2.01"/>
<rect x="-2.86" y="-3.06" transform="translate(608.50,879.03) rotate(-44.4)" width="5.72" height="6.12" rx="1.76"/>
<circle cx="1261.61" cy="895.40" r="1.48"/>
<rect x="-2.90" y="-2.79" transform="translate(659.24,899.33) rotate(43.9)" width="5.80" height="5.58" rx="1.65"/>
<path d="
  M 1229.62 908.27
  Q 1227.96 909.96 1227.06 911.54
  A 0.32 0.32 0.0 0 1 1226.55 911.61
  L 1219.99 905.05
  A 0.17 0.17 0.0 0 1 1220.02 904.78
  Q 1221.91 903.64 1223.38 902.14
  Q 1224.85 900.65 1225.95 898.74
  A 0.17 0.17 0.0 0 1 1226.22 898.70
  L 1232.90 905.14
  A 0.32 0.32 0.0 0 1 1232.85 905.65
  Q 1231.28 906.58 1229.62 908.27
  Z"
/>
<path d="
  M 986.27 902.14
  L 989.26 899.15
  A 1.36 1.36 0.0 0 1 991.18 899.15
  L 994.22 902.20
  A 0.95 0.95 0.0 0 1 994.22 903.56
  L 992.11 905.68
  A 2.45 2.45 0.0 0 1 988.65 905.68
  L 986.27 903.30
  A 0.82 0.82 0.0 0 1 986.27 902.14
  Z"
/>
<path d="
  M 1466.97 900.47
  Q 1467.05 900.47 1467.11 900.51
  A 0.56 0.28 20.3 0 1 1467.38 900.79
  Q 1469.65 909.84 1478.23 912.54
  A 0.36 0.36 0.0 0 1 1478.22 913.22
  Q 1469.93 915.69 1467.92 924.33
  Q 1467.86 924.60 1467.41 924.61
  Q 1466.82 924.62 1466.74 924.35
  Q 1464.41 915.79 1456.03 913.64
  A 0.36 0.36 0.0 0 1 1456.00 912.96
  Q 1464.47 909.94 1466.40 900.81
  A 0.56 0.28 -22.5 0 1 1466.65 900.52
  Q 1466.72 900.48 1466.97 900.47
  Z"
/>
<path d="
  M 459.69 907.38
  Q 463.67 905.18 465.40 901.49
  A 0.39 0.38 43.1 0 1 466.09 901.47
  Q 468.37 905.72 472.70 907.79
  A 0.41 0.41 0.0 0 1 472.70 908.53
  Q 468.63 910.52 466.53 914.89
  A 0.41 0.40 42.3 0 1 465.82 914.92
  Q 463.13 910.42 459.67 908.17
  A 0.46 0.46 0.0 0 1 459.69 907.38
  Z"
/>
<path d="
  M 714.51 907.04
  A 0.90 0.90 0.0 0 1 714.53 908.31
  L 711.69 911.25
  A 2.35 1.75 44.0 0 1 708.78 910.88
  L 707.21 909.37
  A 2.35 1.75 44.0 0 1 706.74 906.48
  L 709.58 903.53
  A 0.90 0.90 0.0 0 1 710.85 903.51
  L 714.51 907.04
  Z"
/>
<path d="
  M 298.80 926.31
  Q 298.25 926.31 298.18 926.06
  Q 296.03 917.99 288.16 915.92
  A 0.34 0.33 42.5 0 1 288.13 915.28
  Q 296.11 912.48 297.98 903.90
  A 0.53 0.26 -22.2 0 1 298.22 903.62
  Q 298.28 903.59 298.52 903.58
  Q 298.59 903.58 298.65 903.62
  A 0.53 0.26 20.7 0 1 298.90 903.88
  Q 300.99 912.41 309.05 915.00
  A 0.34 0.33 -44.0 0 1 309.04 915.64
  Q 301.22 917.92 299.29 926.04
  Q 299.23 926.30 298.80 926.31
  Z"
/>
<ellipse cx="0.00" cy="0.00" transform="translate(1376.11,911.50) rotate(-163.8)" rx="1.61" ry="1.29"/>
<rect x="-2.86" y="-2.85" transform="translate(1193.73,920.30) rotate(42.5)" width="5.72" height="5.70" rx="1.92"/>
<circle cx="1094.81" cy="930.07" r="1.90"/>
<ellipse cx="0.00" cy="0.00" transform="translate(435.75,936.89) rotate(-148.6)" rx="1.58" ry="1.47"/>
<circle cx="579.44" cy="937.42" r="1.57"/>
<circle cx="1240.75" cy="939.38" r="1.57"/>
<path d="
  M 771.97 943.13
  Q 774.04 946.34 777.32 948.22
  A 0.40 0.40 0.0 0 1 777.41 948.85
  L 772.26 953.99
  A 0.49 0.49 0.0 0 1 771.61 954.03
  L 765.12 949.02
  A 0.13 0.12 -40.1 0 1 765.14 948.82
  Q 768.72 946.66 771.17 943.12
  A 0.48 0.48 0.0 0 1 771.97 943.13
  Z"
/>
<path d="
  M 1342.91 966.39
  Q 1342.34 966.40 1342.27 966.14
  Q 1340.07 957.99 1332.10 955.92
  A 0.34 0.34 0.0 0 1 1332.06 955.27
  Q 1340.14 952.41 1341.99 943.72
  A 0.54 0.26 -22.4 0 1 1342.23 943.44
  Q 1342.29 943.40 1342.54 943.40
  Q 1342.61 943.40 1342.67 943.43
  A 0.54 0.26 20.4 0 1 1342.93 943.70
  Q 1345.07 952.33 1353.24 954.91
  A 0.34 0.34 0.0 0 1 1353.23 955.56
  Q 1345.33 957.90 1343.40 966.13
  Q 1343.34 966.39 1342.91 966.39
  Z"
/>
<path d="
  M 129.57 948.87
  A 0.26 0.26 0.0 0 1 129.52 949.27
  Q 127.78 950.29 126.69 952.37
  A 0.74 0.74 0.0 0 1 125.96 952.77
  L 123.68 952.56
  A 0.69 0.67 69.1 0 1 123.25 952.36
  L 119.91 948.98
  A 0.28 0.27 51.6 0 1 119.95 948.55
  Q 121.99 947.27 124.25 944.27
  A 0.48 0.48 0.0 0 1 124.97 944.22
  L 129.57 948.87
  Z"
/>
<rect x="-3.01" y="-2.91" transform="translate(339.55,962.19) rotate(44.0)" width="6.02" height="5.82" rx="1.74"/>
<circle cx="1031.07" cy="969.71" r="1.54"/>
<rect x="-2.76" y="-2.89" transform="translate(881.05,976.28) rotate(-43.8)" width="5.52" height="5.78" rx="1.83"/>
</g>
</svg>
