<?xml version="1.0" encoding="UTF-8" standalone="no"?>
<!DOCTYPE svg PUBLIC "-//W3C//DTD SVG 1.1//EN" "http://www.w3.org/Graphics/SVG/1.1/DTD/svg11.dtd">
<svg xmlns="http://www.w3.org/2000/svg" version="1.1" viewBox="0.00 0.00 1536.00 1024.00">
<g stroke-width="2.00" fill="none" stroke-linecap="butt">
<path stroke="#9898a2" vector-effect="non-scaling-stroke" d="
  M 0.00 742.08
  L 1434.93 742.00
  A 0.46 0.46 0.0 0 0 1435.39 741.54
  L 1435.18 710.29"
/>
<path stroke="#aeaeb6" vector-effect="non-scaling-stroke" d="
  M 1435.18 710.29
  L 1435.33 650.38"
/>
<path stroke="#8a8c95" vector-effect="non-scaling-stroke" d="
  M 1435.33 650.38
  L 1435.28 311.96"
/>
<path stroke="#93939e" vector-effect="non-scaling-stroke" d="
  M 1435.28 311.96
  L 1435.19 306.28"
/>
<path stroke="#aeaeb6" vector-effect="non-scaling-stroke" d="
  M 1435.19 306.28
  L 1435.55 281.39
  A 0.93 0.93 0.0 0 0 1434.63 280.45
  Q 1431.43 280.42 1407.00 280.46
  Q 1253.05 280.74 1164.03 280.44
  Q 1161.07 280.43 1159.10 281.39
  Q 1158.02 281.91 1157.40 282.09
  A 1.59 1.56 49.6 0 1 1156.29 281.99
  Q 1153.67 280.74 1153.02 280.72
  Q 1146.24 280.48 1117.60 280.50
  Q 910.55 280.71 851.25 280.43
  Q 850.48 280.43 846.06 281.94
  A 2.39 2.37 51.6 0 1 843.99 281.69
  L 842.44 280.70
  A 0.99 0.97 60.5 0 0 841.92 280.55
  Q 611.03 280.60 552.49 280.48
  Q 547.83 280.47 545.03 282.29
  A 1.47 1.46 -59.1 0 1 544.16 282.51
  L 543.27 282.46"
/>
<path stroke="#8a8c95" vector-effect="non-scaling-stroke" d="
  M 543.27 282.46
  L 541.94 281.48"
/>
<path stroke="#aeaeb6" vector-effect="non-scaling-stroke" d="
  M 541.94 281.48
  Q 540.32 280.52 538.00 280.52
  Q 339.93 280.61 258.00 280.51
  Q 256.83 280.51 253.68 281.97
  A 1.34 1.32 41.0 0 1 252.71 282.03
  C 250.51 281.32 249.56 280.59 246.75 280.59
  Q 123.38 280.45 0.00 280.57"
/>
<path stroke="#393b4c" vector-effect="non-scaling-stroke" d="
  M 541.94 281.48
  Q 541.39 282.32 542.45 283.90
  A 1.43 1.38 31.4 0 1 542.68 284.79
  L 541.05 306.13"
/>
<path stroke="#424255" vector-effect="non-scaling-stroke" d="
  M 541.05 306.13
  L 245.73 306.45
  A 0.78 0.78 0.0 0 1 244.97 305.49
  Q 245.41 303.68 245.17 302.73"
/>
<path stroke="#393b4c" vector-effect="non-scaling-stroke" d="
  M 245.17 302.73
  L 253.03 283.67
  A 0.64 0.63 -63.5 0 0 252.77 282.88
  Q 252.15 282.51 251.61 282.90
  A 0.58 0.54 78.5 0 0 251.39 283.26
  L 251.02 285.40
  A 0.62 0.46 -36.7 0 1 250.99 285.50
  Q 250.23 287.25 244.30 301.54
  Q 243.85 302.60 242.60 304.31"
/>
<path stroke="#424255" vector-effect="non-scaling-stroke" d="
  M 242.60 304.31
  L 241.85 306.20
  A 0.77 0.77 0.0 0 1 241.00 306.68
  L 239.18 306.37
  A 1.66 1.12 -29.4 0 0 238.93 306.35
  L 0.00 306.29"
/>
<path stroke="#424255" vector-effect="non-scaling-stroke" d="
  M 1435.19 306.28
  Q 1413.12 306.56 1391.00 306.66
  Q 1367.74 306.76 1337.50 306.20
  Q 1332.72 306.11 1311.83 306.40
  C 1285.95 306.75 1270.12 306.40 1231.42 306.29
  C 1210.29 306.23 1192.06 306.59 1171.76 306.11
  C 1171.27 306.10 1170.52 306.38 1169.95 306.47
  A 0.72 0.72 0.0 0 1 1169.15 305.98
  L 1168.29 303.30"
/>
<path stroke="#393b4c" vector-effect="non-scaling-stroke" d="
  M 1168.29 303.30
  Q 1162.69 293.94 1158.52 284.80
  Q 1158.24 284.18 1158.11 283.56
  A 0.79 0.78 83.5 0 0 1157.35 282.95
  L 1156.65 282.95
  A 0.57 0.57 0.0 0 0 1156.14 283.77
  L 1166.18 304.08"
/>
<path stroke="#424255" vector-effect="non-scaling-stroke" d="
  M 1166.18 304.08
  L 1165.95 305.76
  A 0.75 0.74 3.5 0 1 1165.21 306.41
  L 852.41 306.41
  A 0.64 0.63 -8.7 0 1 851.80 305.97
  L 851.31 304.45"
/>
<path stroke="#393b4c" vector-effect="non-scaling-stroke" d="
  M 851.31 304.45
  L 846.37 283.55
  A 0.55 0.54 83.3 0 0 845.84 283.13
  L 844.78 283.13
  A 0.36 0.36 0.0 0 0 844.46 283.65
  Q 845.26 285.33 845.33 287.62
  A 4.35 4.13 37.8 0 0 845.47 288.53
  C 847.54 296.12 848.99 300.30 848.95 306.18"
/>
<path stroke="#424255" vector-effect="non-scaling-stroke" d="
  M 848.95 306.18
  Q 840.45 305.87 826.50 306.31
  Q 817.31 306.59 796.83 306.46
  C 755.87 306.20 708.94 306.55 688.24 306.40
  C 671.06 306.26 642.98 306.73 623.31 306.50
  C 600.23 306.23 574.10 306.64 554.06 306.36
  Q 549.55 306.30 544.94 306.76
  A 0.70 0.68 75.6 0 1 544.22 306.32
  L 543.75 305.18"
/>
<path stroke="#393b4c" vector-effect="non-scaling-stroke" d="
  M 543.75 305.18
  L 544.59 283.80
  A 0.61 0.60 5.1 0 0 544.06 283.17
  Q 543.19 283.06 543.27 282.46"
/>
<path stroke="#1d2034" vector-effect="non-scaling-stroke" d="
  M 543.75 305.18
  C 543.72 307.50 543.27 309.84 543.34 311.97
  Q 543.58 318.93 543.56 327.03
  C 543.54 332.50 546.50 333.08 551.25 333.14
  C 578.75 333.50 602.56 333.14 628.16 333.23
  Q 630.45 333.24 635.32 333.39
  Q 639.74 333.52 646.50 333.32
  C 661.64 332.87 676.71 333.52 690.19 333.34
  Q 708.57 333.10 720.42 333.32
  C 725.92 333.42 732.14 333.08 737.75 333.14
  Q 779.29 333.59 839.99 333.17
  C 842.18 333.16 848.63 332.59 848.79 329.60
  Q 849.34 319.50 848.95 306.18"
/>
<path stroke="#1d2034" vector-effect="non-scaling-stroke" d="
  M 851.31 304.45
  Q 851.03 312.48 851.22 327.50
  Q 851.25 329.84 851.73 330.82
  A 1.72 1.67 -87.8 0 0 852.38 331.54
  Q 854.74 332.98 857.01 333.04
  Q 875.19 333.47 899.31 333.22
  C 911.74 333.10 920.50 333.36 933.44 333.23
  C 972.05 332.85 1011.66 333.38 1040.25 333.45
  C 1044.60 333.46 1051.97 333.06 1057.02 333.12
  C 1081.64 333.41 1099.25 333.17 1126.38 333.32
  Q 1154.06 333.48 1160.63 333.10
  Q 1163.15 332.95 1165.13 331.87
  A 1.94 1.92 -12.6 0 0 1166.13 330.31
  Q 1167.05 316.80 1166.18 304.08"
/>
<path stroke="#1d2034" vector-effect="non-scaling-stroke" d="
  M 1168.29 303.30
  Q 1168.10 315.43 1168.43 329.70
  C 1168.51 333.24 1173.48 333.18 1176.44 333.18
  Q 1214.89 333.21 1230.00 333.29
  Q 1243.48 333.36 1249.24 333.28
  C 1257.14 333.17 1264.82 333.69 1272.51 333.33
  Q 1275.18 333.20 1276.50 333.22
  Q 1310.12 333.62 1342.45 333.19
  C 1351.39 333.07 1359.05 333.44 1365.59 333.33
  Q 1373.64 333.19 1382.93 333.34
  Q 1404.45 333.70 1432.08 333.24
  A 0.89 0.88 -86.9 0 0 1432.93 332.47
  Q 1433.81 325.51 1433.73 317.55
  Q 1433.71 315.82 1435.28 311.96"
/>
<path stroke="#393b4c" vector-effect="non-scaling-stroke" d="
  M 1435.33 650.38
  Q 1426.07 650.26 1416.95 650.40
  C 1377.86 650.98 1339.74 650.19 1303.16 650.54
  C 1299.66 650.57 1296.56 651.31 1293.76 653.41
  A 1.86 1.86 0.0 0 0 1293.25 655.82
  L 1323.30 708.84"
/>
<path stroke="#232538" vector-effect="non-scaling-stroke" d="
  M 1323.30 708.84
  L 1322.68 739.37
  A 1.01 1.00 78.5 0 1 1322.09 740.27
  L 1321.53 740.53
  A 0.53 0.53 0.0 0 1 1320.78 740.11
  C 1320.49 737.30 1320.12 734.44 1320.23 731.25
  Q 1320.58 721.26 1319.86 710.25
  Q 1319.82 709.64 1318.70 708.41"
/>
<path stroke="#393b4c" vector-effect="non-scaling-stroke" d="
  M 1318.70 708.41
  C 1319.23 706.18 1316.80 702.22 1315.74 700.28
  Q 1315.26 699.39 1292.31 658.69
  Q 1289.65 653.97 1284.53 652.23
  Q 1280.65 650.91 1276.50 650.79
  Q 1269.48 650.60 1259.50 650.58
  Q 1213.42 650.49 1160.50 650.43
  Q 1149.42 650.41 1141.50 650.44
  Q 1073.80 650.63 1019.46 650.56
  C 1015.57 650.55 1009.20 651.60 1007.07 655.10
  A 1.41 1.40 51.4 0 0 1006.94 656.26
  L 1025.12 710.19"
/>
<path stroke="#232538" vector-effect="non-scaling-stroke" d="
  M 1025.12 710.19
  Q 1024.37 713.00 1024.29 716.00
  Q 1024.17 720.31 1024.24 740.40
  A 0.46 0.46 0.0 0 1 1023.78 740.87
  L 1022.45 740.87
  A 0.53 0.53 0.0 0 1 1021.92 740.34
  Q 1021.91 726.67 1021.91 713.78
  Q 1021.91 712.15 1020.94 710.39"
/>
<path stroke="#393b4c" vector-effect="non-scaling-stroke" d="
  M 1020.94 710.39
  Q 1020.52 709.86 1019.51 709.86
  A 0.70 0.70 0.0 0 1 1019.15 708.56
  Q 1019.97 708.09 1020.34 707.44
  A 1.78 1.73 -35.8 0 0 1020.54 706.30
  Q 1019.84 702.27 1016.33 691.93
  Q 1008.08 667.65 1004.34 658.24
  Q 1003.50 656.11 1002.92 655.45
  C 1000.06 652.16 994.10 650.86 989.75 650.77
  Q 987.73 650.72 946.23 650.50
  Q 921.04 650.36 902.71 650.48
  C 852.31 650.81 803.11 650.28 744.34 650.37
  C 708.61 650.42 681.68 650.28 658.50 650.40
  Q 593.25 650.73 469.75 650.48
  C 464.05 650.47 458.61 651.15 455.32 656.04
  A 2.83 2.70 -26.3 0 0 454.86 657.30
  Q 452.29 680.00 448.91 703.72
  Q 448.52 706.42 448.75 708.98"
/>
<path stroke="#232538" vector-effect="non-scaling-stroke" d="
  M 448.75 708.98
  Q 448.18 712.36 448.05 715.75
  Q 447.52 729.14 448.05 740.90
  A 0.75 0.74 -1.5 0 1 447.30 741.68
  L 446.17 741.68
  A 0.77 0.76 -89.3 0 1 445.41 740.89
  Q 445.83 724.61 445.54 714.61
  C 445.48 712.31 445.04 710.44 444.65 708.28"
/>
<path stroke="#393b4c" vector-effect="non-scaling-stroke" d="
  M 444.65 708.28
  Q 445.66 707.24 445.82 705.87
  C 446.85 697.05 450.02 673.95 451.86 658.26
  C 452.29 654.52 448.74 652.34 445.60 651.29
  Q 443.57 650.61 439.96 650.61
  Q 397.22 650.63 368.81 650.40
  Q 353.48 650.28 297.68 650.50
  Q 259.77 650.66 190.50 650.46
  Q 183.63 650.44 178.49 654.38
  A 6.07 6.03 80.0 0 0 176.37 657.43
  Q 175.85 659.11 174.68 661.75
  Q 165.31 682.81 157.33 704.07
  Q 156.80 705.49 156.49 708.87"
/>
<path stroke="#232538" vector-effect="non-scaling-stroke" d="
  M 156.49 708.87
  Q 154.78 713.91 154.73 719.20
  Q 154.64 730.28 154.66 740.07
  A 0.80 0.80 0.0 0 1 154.07 740.84
  Q 153.52 741.00 152.88 740.79
  A 0.79 0.78 -80.5 0 1 152.35 740.03
  Q 152.74 724.77 151.51 709.72"
/>
<path stroke="#393b4c" vector-effect="non-scaling-stroke" d="
  M 151.51 709.72
  L 154.10 705.29
  A 14.75 13.39 73.8 0 0 155.01 703.43
  L 173.59 657.28
  A 3.19 3.18 34.1 0 0 172.93 653.88
  Q 169.63 650.45 164.25 650.47
  Q 118.21 650.65 54.00 650.41
  Q 27.00 650.31 0.00 650.67"
/>
<path stroke="#232538" vector-effect="non-scaling-stroke" d="
  M 0.00 647.29
  Q 43.12 647.99 86.26 647.41
  Q 99.23 647.24 105.38 635.89
  C 107.79 631.43 110.43 624.50 113.46 618.52
  Q 118.19 609.17 122.76 599.01
  A 1.60 1.56 -43.1 0 0 122.81 597.86
  C 120.64 591.33 109.16 592.11 103.49 592.07
  Q 67.53 591.80 49.55 592.11
  C 39.18 592.29 26.27 591.63 14.75 591.88
  C 11.05 591.97 4.97 591.40 0.00 591.97"
/>
<path stroke="#1d2034" vector-effect="non-scaling-stroke" d="
  M 0.00 586.90
  Q 8.41 587.24 13.51 584.29
  Q 18.36 581.49 22.15 573.48
  C 26.00 565.34 33.58 553.87 37.34 546.51
  A 2.16 2.15 -43.6 0 0 37.39 544.65
  C 34.64 538.62 26.94 538.54 21.51 538.59
  Q 12.77 538.67 4.08 538.83
  Q 2.32 538.87 0.00 539.76"
/>
<path stroke="#282939" vector-effect="non-scaling-stroke" d="
  M 0.00 533.65
  Q 39.53 533.61 79.05 533.52
  Q 82.69 533.51 84.88 532.95
  Q 87.95 532.16 90.64 530.86
  A 4.26 4.22 -87.6 0 0 92.44 529.19
  L 99.00 517.89"
/>
<path stroke="#1d2034" vector-effect="non-scaling-stroke" d="
  M 99.00 517.89
  L 98.20 526.70
  A 1.35 1.34 32.2 0 0 98.39 527.52
  C 102.06 533.60 109.33 533.61 115.77 533.58
  Q 191.43 533.28 246.06 533.45
  C 250.35 533.46 255.57 531.61 260.25 531.47
  Q 263.24 531.37 266.24 531.48"
/>
<path stroke="#282939" vector-effect="non-scaling-stroke" d="
  M 266.24 531.48
  Q 270.93 533.59 274.00 533.61
  Q 300.35 533.80 311.25 533.76
  Q 374.87 533.52 445.25 533.68
  C 454.84 533.70 465.28 534.37 466.37 521.54
  Q 467.55 507.68 469.47 498.10
  A 2.44 2.39 -52.4 0 0 469.29 496.59
  C 467.47 492.78 464.04 492.05 460.49 491.32
  Q 458.04 490.81 454.41 490.82
  Q 354.21 491.08 292.00 490.79
  Q 286.16 490.77 281.47 491.70"
/>
<path stroke="#1d2034" vector-effect="non-scaling-stroke" d="
  M 281.47 491.70
  Q 276.05 490.27 270.44 490.81
  A 4.87 4.31 42.1 0 1 269.53 490.80
  Q 265.07 490.29 262.69 490.24
  Q 251.89 490.04 226.89 490.55
  Q 213.72 490.82 191.11 490.57
  Q 158.26 490.21 131.28 490.41
  Q 123.87 490.46 116.26 494.43
  Q 112.93 496.16 108.80 493.90"
/>
<path stroke="#282939" vector-effect="non-scaling-stroke" d="
  M 108.80 493.90
  C 106.16 491.18 102.36 490.86 98.50 490.83
  Q 49.24 490.42 0.00 490.80"
/>
<path stroke="#1d2034" vector-effect="non-scaling-stroke" d="
  M 0.00 485.97
  C 10.55 485.82 22.41 486.17 31.65 486.10
  Q 56.04 485.92 86.19 485.92
  Q 88.33 485.92 93.02 485.19
  C 98.38 484.35 102.32 483.68 104.61 479.39
  Q 109.49 470.25 114.27 461.78
  Q 116.64 457.59 118.09 452.84
  A 2.03 2.02 30.3 0 0 117.55 450.79
  Q 113.73 447.15 108.50 447.02
  Q 104.00 446.90 99.50 446.90
  Q 49.75 446.87 0.00 446.80"
/>
<path stroke="#282939" vector-effect="non-scaling-stroke" d="
  M 0.00 442.02
  Q 3.15 442.18 6.37 442.12
  Q 11.15 442.02 12.75 442.05
  Q 30.09 442.40 49.73 442.50
  C 55.51 442.54 61.20 441.14 64.25 435.99
  Q 69.24 427.57 76.24 417.24
  Q 78.01 414.62 78.76 413.18
  A 2.55 2.54 -53.0 0 0 78.35 410.24
  Q 75.87 407.64 71.62 407.62
  Q 35.81 407.48 0.00 407.36"
/>
<path stroke="#252633" vector-effect="non-scaling-stroke" d="
  M 0.00 402.73
  C 9.50 402.79 15.83 403.50 22.84 397.89
  A 5.35 5.19 89.1 0 0 23.79 396.88
  Q 28.67 390.09 36.56 378.28
  Q 37.16 377.38 37.66 375.97
  A 2.25 2.25 0.0 0 0 36.56 373.22
  Q 32.94 371.37 28.73 371.45
  Q 14.36 371.72 0.00 371.78"
/>
<path stroke="#1d2034" vector-effect="non-scaling-stroke" d="
  M 0.00 367.34
  C 14.79 366.88 29.28 367.23 51.01 367.10
  C 69.76 366.98 86.70 367.16 104.97 367.22
  Q 117.57 367.27 129.43 364.46"
/>
<path stroke="#232538" vector-effect="non-scaling-stroke" d="
  M 129.43 364.46
  Q 135.25 367.76 142.84 367.29
  Q 150.63 366.81 150.69 366.81
  C 162.24 366.79 170.91 366.69 181.33 367.04
  Q 185.42 367.18 192.75 367.13
  Q 226.12 366.93 240.42 367.05
  C 245.96 367.09 250.27 366.35 254.49 364.23
  A 6.57 6.56 -1.2 0 0 257.56 361.03
  L 265.46 343.35
  A 2.11 2.10 -43.0 0 0 265.52 341.77
  Q 264.34 338.55 260.76 338.19
  Q 257.46 337.85 255.77 337.89
  C 243.72 338.16 230.45 337.69 219.75 337.82
  C 197.22 338.09 174.75 337.64 152.26 338.01
  Q 148.76 338.07 142.70 340.98"
/>
<path stroke="#1d2034" vector-effect="non-scaling-stroke" d="
  M 142.70 340.98
  C 139.37 340.72 136.83 338.83 133.84 338.52
  Q 129.35 338.04 125.26 337.99
  C 101.07 337.69 71.54 338.26 44.00 337.79
  Q 28.30 337.53 13.43 338.26
  Q 8.94 338.49 6.40 340.63
  Q 3.75 342.87 0.00 349.53"
/>
<path stroke="#1d2034" vector-effect="non-scaling-stroke" d="
  M 0.00 333.24
  Q 85.34 333.43 170.69 333.23
  C 194.42 333.18 212.15 333.50 234.66 333.13
  Q 237.86 333.08 241.55 331.97
  A 1.62 1.61 -8.6 0 0 242.70 330.41
  L 242.60 304.31"
/>
<path stroke="#1d2034" vector-effect="non-scaling-stroke" d="
  M 245.17 302.73
  Q 244.69 313.35 244.71 324.56
  C 244.73 329.38 244.12 333.11 249.75 333.25
  Q 257.59 333.45 266.76 333.33
  C 285.70 333.07 304.40 333.36 342.12 333.45
  Q 349.99 333.47 352.89 333.35
  C 362.03 332.95 371.08 333.59 379.84 333.47
  C 404.95 333.10 423.37 333.27 442.75 333.34
  Q 495.82 333.53 533.25 333.25
  Q 537.40 333.22 539.87 331.78
  A 2.38 2.35 -86.5 0 0 540.61 331.12
  Q 541.27 330.23 541.41 328.22
  Q 542.20 316.46 541.05 306.13"
/>
<path stroke="#2c2c41" vector-effect="non-scaling-stroke" d="
  M 142.70 340.98
  C 135.79 343.98 133.12 350.86 130.93 357.55
  A 0.35 0.34 23.9 0 0 131.09 357.96
  L 131.41 358.15
  A 0.38 0.38 0.0 0 0 131.93 358.00
  L 138.86 345.29
  A 0.25 0.25 0.0 0 1 139.08 345.16
  L 139.39 345.16
  A 0.20 0.20 0.0 0 1 139.57 345.46
  L 129.43 364.46"
/>
<path stroke="#313142" vector-effect="non-scaling-stroke" d="
  M 281.47 491.70
  C 276.65 494.08 270.63 495.45 268.59 501.09
  Q 265.85 508.70 261.65 521.89
  Q 260.61 525.15 260.16 529.34
  A 0.93 0.92 9.4 0 0 260.88 530.34
  L 266.24 531.48"
/>
<path stroke="#313142" vector-effect="non-scaling-stroke" d="
  M 99.00 517.89
  Q 102.69 508.59 107.48 500.48
  Q 109.38 497.27 108.80 493.90"
/>
<path stroke="#474759" vector-effect="non-scaling-stroke" d="
  M 1435.18 710.29
  L 1326.46 710.14
  A 2.15 2.04 -30.6 0 1 1325.54 709.93
  L 1323.30 708.84"
/>
<path stroke="#474759" vector-effect="non-scaling-stroke" d="
  M 444.65 708.28
  Q 444.16 708.93 444.11 709.80
  A 0.27 0.27 0.0 0 1 443.84 710.06
  Q 317.79 710.19 307.25 710.16
  Q 253.12 710.01 202.66 710.26
  C 189.50 710.33 172.89 710.03 158.00 710.26
  Q 157.22 710.28 156.49 708.87"
/>
<path stroke="#474759" vector-effect="non-scaling-stroke" d="
  M 1020.94 710.39
  L 451.05 710.11
  A 1.77 1.73 -28.6 0 1 450.13 709.85
  L 448.75 708.98"
/>
<path stroke="#474759" vector-effect="non-scaling-stroke" d="
  M 151.51 709.72
  Q 132.40 710.19 113.67 710.16
  Q 79.08 710.11 75.83 710.13
  Q 43.61 710.29 11.39 710.11
  Q 11.31 710.11 6.12 710.30
  Q 3.09 710.41 0.21 709.94"
/>
<path stroke="#aeaeb6" vector-effect="non-scaling-stroke" d="
  M 0.21 709.94
  Q 0.22 708.66 0.00 708.74"
/>
<path stroke="#474759" vector-effect="non-scaling-stroke" d="
  M 1318.70 708.41
  Q 1316.92 710.13 1316.01 710.10
  Q 1302.61 709.74 1285.75 710.29
  C 1282.11 710.40 1277.68 710.11 1274.91 710.11
  Q 1126.11 710.17 1115.50 710.10
  C 1108.44 710.06 1099.51 710.34 1092.51 710.28
  Q 1058.74 709.99 1025.12 710.19"
/>
<path stroke="#9898a2" vector-effect="non-scaling-stroke" d="
  M 0.00 709.75
  Q 0.11 709.84 0.21 709.94"
/>
</g>
<g fill="#313145">
<path d="
  M 129.43 364.46
  L 139.57 345.46
  A 0.20 0.20 0.0 0 0 139.39 345.16
  L 139.08 345.16
  A 0.25 0.25 0.0 0 0 138.86 345.29
  L 131.93 358.00
  A 0.38 0.38 0.0 0 1 131.41 358.15
  L 131.09 357.96
  A 0.35 0.34 23.9 0 1 130.93 357.55
  C 133.12 350.86 135.79 343.98 142.70 340.98
  Q 148.76 338.07 152.26 338.01
  C 174.75 337.64 197.22 338.09 219.75 337.82
  C 230.45 337.69 243.72 338.16 255.77 337.89
  Q 257.46 337.85 260.76 338.19
  Q 264.34 338.55 265.52 341.77
  A 2.11 2.10 -43.0 0 1 265.46 343.35
  L 257.56 361.03
  A 6.57 6.56 -1.2 0 1 254.49 364.23
  C 250.27 366.35 245.96 367.09 240.42 367.05
  Q 226.12 366.93 192.75 367.13
  Q 185.42 367.18 181.33 367.04
  C 170.91 366.69 162.24 366.79 150.69 366.81
  Q 150.63 366.81 142.84 367.29
  Q 135.25 367.76 129.43 364.46
  Z"
/>
<path d="
  M 0.00 647.29
  L 0.00 591.97
  C 4.97 591.40 11.05 591.97 14.75 591.88
  C 26.27 591.63 39.18 592.29 49.55 592.11
  Q 67.53 591.80 103.49 592.07
  C 109.16 592.11 120.64 591.33 122.81 597.86
  A 1.60 1.56 -43.1 0 1 122.76 599.01
  Q 118.19 609.17 113.46 618.52
  C 110.43 624.50 107.79 631.43 105.38 635.89
  Q 99.23 647.24 86.26 647.41
  Q 43.12 647.99 0.00 647.29
  Z"
/>
<path d="
  M 444.65 708.28
  C 445.04 710.44 445.48 712.31 445.54 714.61
  Q 445.83 724.61 445.41 740.89
  A 0.77 0.76 -89.3 0 0 446.17 741.68
  L 447.30 741.68
  A 0.75 0.74 -1.5 0 0 448.05 740.90
  Q 447.52 729.14 448.05 715.75
  Q 448.18 712.36 448.75 708.98
  L 450.13 709.85
  A 1.77 1.73 -28.6 0 0 451.05 710.11
  L 1020.94 710.39
  Q 1021.91 712.15 1021.91 713.78
  Q 1021.91 726.67 1021.92 740.34
  A 0.53 0.53 0.0 0 0 1022.45 740.87
  L 1023.78 740.87
  A 0.46 0.46 0.0 0 0 1024.24 740.40
  Q 1024.17 720.31 1024.29 716.00
  Q 1024.37 713.00 1025.12 710.19
  Q 1058.74 709.99 1092.51 710.28
  C 1099.51 710.34 1108.44 710.06 1115.50 710.10
  Q 1126.11 710.17 1274.91 710.11
  C 1277.68 710.11 1282.11 710.40 1285.75 710.29
  Q 1302.61 709.74 1316.01 710.10
  Q 1316.92 710.13 1318.70 708.41
  Q 1319.82 709.64 1319.86 710.25
  Q 1320.58 721.26 1320.23 731.25
  C 1320.12 734.44 1320.49 737.30 1320.78 740.11
  A 0.53 0.53 0.0 0 0 1321.53 740.53
  L 1322.09 740.27
  A 1.01 1.00 78.5 0 0 1322.68 739.37
  L 1323.30 708.84
  L 1325.54 709.93
  A 2.15 2.04 -30.6 0 0 1326.46 710.14
  L 1435.18 710.29
  L 1435.39 741.54
  A 0.46 0.46 0.0 0 1 1434.93 742.00
  L 0.00 742.08
  L 0.00 709.75
  Q 0.11 709.84 0.21 709.94
  Q 3.09 710.41 6.12 710.30
  Q 11.31 710.11 11.39 710.11
  Q 43.61 710.29 75.83 710.13
  Q 79.08 710.11 113.67 710.16
  Q 132.40 710.19 151.51 709.72
  Q 152.74 724.77 152.35 740.03
  A 0.79 0.78 -80.5 0 0 152.88 740.79
  Q 153.52 741.00 154.07 740.84
  A 0.80 0.80 0.0 0 0 154.66 740.07
  Q 154.64 730.28 154.73 719.20
  Q 154.78 713.91 156.49 708.87
  Q 157.22 710.28 158.00 710.26
  C 172.89 710.03 189.50 710.33 202.66 710.26
  Q 253.12 710.01 307.25 710.16
  Q 317.79 710.19 443.84 710.06
  A 0.27 0.27 0.0 0 0 444.11 709.80
  Q 444.16 708.93 444.65 708.28
  Z"
/>
</g>
<g fill="#5d5d6c">
<path d="
  M 541.94 281.48
  Q 541.39 282.32 542.45 283.90
  A 1.43 1.38 31.4 0 1 542.68 284.79
  L 541.05 306.13
  L 245.73 306.45
  A 0.78 0.78 0.0 0 1 244.97 305.49
  Q 245.41 303.68 245.17 302.73
  L 253.03 283.67
  A 0.64 0.63 -63.5 0 0 252.77 282.88
  Q 252.15 282.51 251.61 282.90
  A 0.58 0.54 78.5 0 0 251.39 283.26
  L 251.02 285.40
  A 0.62 0.46 -36.7 0 1 250.99 285.50
  Q 250.23 287.25 244.30 301.54
  Q 243.85 302.60 242.60 304.31
  L 241.85 306.20
  A 0.77 0.77 0.0 0 1 241.00 306.68
  L 239.18 306.37
  A 1.66 1.12 -29.4 0 0 238.93 306.35
  L 0.00 306.29
  L 0.00 280.57
  Q 123.38 280.45 246.75 280.59
  C 249.56 280.59 250.51 281.32 252.71 282.03
  A 1.34 1.32 41.0 0 0 253.68 281.97
  Q 256.83 280.51 258.00 280.51
  Q 339.93 280.61 538.00 280.52
  Q 540.32 280.52 541.94 281.48
  Z"
/>
<path d="
  M 1435.19 306.28
  Q 1413.12 306.56 1391.00 306.66
  Q 1367.74 306.76 1337.50 306.20
  Q 1332.72 306.11 1311.83 306.40
  C 1285.95 306.75 1270.12 306.40 1231.42 306.29
  C 1210.29 306.23 1192.06 306.59 1171.76 306.11
  C 1171.27 306.10 1170.52 306.38 1169.95 306.47
  A 0.72 0.72 0.0 0 1 1169.15 305.98
  L 1168.29 303.30
  Q 1162.69 293.94 1158.52 284.80
  Q 1158.24 284.18 1158.11 283.56
  A 0.79 0.78 83.5 0 0 1157.35 282.95
  L 1156.65 282.95
  A 0.57 0.57 0.0 0 0 1156.14 283.77
  L 1166.18 304.08
  L 1165.95 305.76
  A 0.75 0.74 3.5 0 1 1165.21 306.41
  L 852.41 306.41
  A 0.64 0.63 -8.7 0 1 851.80 305.97
  L 851.31 304.45
  L 846.37 283.55
  A 0.55 0.54 83.3 0 0 845.84 283.13
  L 844.78 283.13
  A 0.36 0.36 0.0 0 0 844.46 283.65
  Q 845.26 285.33 845.33 287.62
  A 4.35 4.13 37.8 0 0 845.47 288.53
  C 847.54 296.12 848.99 300.30 848.95 306.18
  Q 840.45 305.87 826.50 306.31
  Q 817.31 306.59 796.83 306.46
  C 755.87 306.20 708.94 306.55 688.24 306.40
  C 671.06 306.26 642.98 306.73 623.31 306.50
  C 600.23 306.23 574.10 306.64 554.06 306.36
  Q 549.55 306.30 544.94 306.76
  A 0.70 0.68 75.6 0 1 544.22 306.32
  L 543.75 305.18
  L 544.59 283.80
  A 0.61 0.60 5.1 0 0 544.06 283.17
  Q 543.19 283.06 543.27 282.46
  L 544.16 282.51
  A 1.47 1.46 -59.1 0 0 545.03 282.29
  Q 547.83 280.47 552.49 280.48
  Q 611.03 280.60 841.92 280.55
  A 0.99 0.97 60.5 0 1 842.44 280.70
  L 843.99 281.69
  A 2.39 2.37 51.6 0 0 846.06 281.94
  Q 850.48 280.43 851.25 280.43
  Q 910.55 280.71 1117.60 280.50
  Q 1146.24 280.48 1153.02 280.72
  Q 1153.67 280.74 1156.29 281.99
  A 1.59 1.56 49.6 0 0 1157.40 282.09
  Q 1158.02 281.91 1159.10 281.39
  Q 1161.07 280.43 1164.03 280.44
  Q 1253.05 280.74 1407.00 280.46
  Q 1431.43 280.42 1434.63 280.45
  A 0.93 0.93 0.0 0 1 1435.55 281.39
  L 1435.19 306.28
  Z"
/>
<path d="
  M 1435.33 650.38
  L 1435.18 710.29
  L 1326.46 710.14
  A 2.15 2.04 -30.6 0 1 1325.54 709.93
  L 1323.30 708.84
  L 1293.25 655.82
  A 1.86 1.86 0.0 0 1 1293.76 653.41
  C 1296.56 651.31 1299.66 650.57 1303.16 650.54
  C 1339.74 650.19 1377.86 650.98 1416.95 650.40
  Q 1426.07 650.26 1435.33 650.38
  Z"
/>
<path d="
  M 444.65 708.28
  Q 444.16 708.93 444.11 709.80
  A 0.27 0.27 0.0 0 1 443.84 710.06
  Q 317.79 710.19 307.25 710.16
  Q 253.12 710.01 202.66 710.26
  C 189.50 710.33 172.89 710.03 158.00 710.26
  Q 157.22 710.28 156.49 708.87
  Q 156.80 705.49 157.33 704.07
  Q 165.31 682.81 174.68 661.75
  Q 175.85 659.11 176.37 657.43
  A 6.07 6.03 80.0 0 1 178.49 654.38
  Q 183.63 650.44 190.50 650.46
  Q 259.77 650.66 297.68 650.50
  Q 353.48 650.28 368.81 650.40
  Q 397.22 650.63 439.96 650.61
  Q 443.57 650.61 445.60 651.29
  C 448.74 652.34 452.29 654.52 451.86 658.26
  C 450.02 673.95 446.85 697.05 445.82 705.87
  Q 445.66 707.24 444.65 708.28
  Z"
/>
<path d="
  M 1020.94 710.39
  L 451.05 710.11
  A 1.77 1.73 -28.6 0 1 450.13 709.85
  L 448.75 708.98
  Q 448.52 706.42 448.91 703.72
  Q 452.29 680.00 454.86 657.30
  A 2.83 2.70 -26.3 0 1 455.32 656.04
  C 458.61 651.15 464.05 650.47 469.75 650.48
  Q 593.25 650.73 658.50 650.40
  C 681.68 650.28 708.61 650.42 744.34 650.37
  C 803.11 650.28 852.31 650.81 902.71 650.48
  Q 921.04 650.36 946.23 650.50
  Q 987.73 650.72 989.75 650.77
  C 994.10 650.86 1000.06 652.16 1002.92 655.45
  Q 1003.50 656.11 1004.34 658.24
  Q 1008.08 667.65 1016.33 691.93
  Q 1019.84 702.27 1020.54 706.30
  A 1.78 1.73 -35.8 0 1 1020.34 707.44
  Q 1019.97 708.09 1019.15 708.56
  A 0.70 0.70 0.0 0 0 1019.51 709.86
  Q 1020.52 709.86 1020.94 710.39
  Z"
/>
<path d="
  M 151.51 709.72
  Q 132.40 710.19 113.67 710.16
  Q 79.08 710.11 75.83 710.13
  Q 43.61 710.29 11.39 710.11
  Q 11.31 710.11 6.12 710.30
  Q 3.09 710.41 0.21 709.94
  Q 0.22 708.66 0.00 708.74
  L 0.00 650.67
  Q 27.00 650.31 54.00 650.41
  Q 118.21 650.65 164.25 650.47
  Q 169.63 650.45 172.93 653.88
  A 3.19 3.18 34.1 0 1 173.59 657.28
  L 155.01 703.43
  A 14.75 13.39 73.8 0 1 154.10 705.29
  L 151.51 709.72
  Z"
/>
<path d="
  M 1318.70 708.41
  Q 1316.92 710.13 1316.01 710.10
  Q 1302.61 709.74 1285.75 710.29
  C 1282.11 710.40 1277.68 710.11 1274.91 710.11
  Q 1126.11 710.17 1115.50 710.10
  C 1108.44 710.06 1099.51 710.34 1092.51 710.28
  Q 1058.74 709.99 1025.12 710.19
  L 1006.94 656.26
  A 1.41 1.40 51.4 0 1 1007.07 655.10
  C 1009.20 651.60 1015.57 650.55 1019.46 650.56
  Q 1073.80 650.63 1141.50 650.44
  Q 1149.42 650.41 1160.50 650.43
  Q 1213.42 650.49 1259.50 650.58
  Q 1269.48 650.60 1276.50 650.79
  Q 1280.65 650.91 1284.53 652.23
  Q 1289.65 653.97 1292.31 658.69
  Q 1315.26 699.39 1315.74 700.28
  C 1316.80 702.22 1319.23 706.18 1318.70 708.41
  Z"
/>
</g>
<path fill="#14182b" d="
  M 543.27 282.46
  Q 543.19 283.06 544.06 283.17
  A 0.61 0.60 5.1 0 1 544.59 283.80
  L 543.75 305.18
  C 543.72 307.50 543.27 309.84 543.34 311.97
  Q 543.58 318.93 543.56 327.03
  C 543.54 332.50 546.50 333.08 551.25 333.14
  C 578.75 333.50 602.56 333.14 628.16 333.23
  Q 630.45 333.24 635.32 333.39
  Q 639.74 333.52 646.50 333.32
  C 661.64 332.87 676.71 333.52 690.19 333.34
  Q 708.57 333.10 720.42 333.32
  C 725.92 333.42 732.14 333.08 737.75 333.14
  Q 779.29 333.59 839.99 333.17
  C 842.18 333.16 848.63 332.59 848.79 329.60
  Q 849.34 319.50 848.95 306.18
  C 848.99 300.30 847.54 296.12 845.47 288.53
  A 4.35 4.13 37.8 0 1 845.33 287.62
  Q 845.26 285.33 844.46 283.65
  A 0.36 0.36 0.0 0 1 844.78 283.13
  L 845.84 283.13
  A 0.55 0.54 83.3 0 1 846.37 283.55
  L 851.31 304.45
  Q 851.03 312.48 851.22 327.50
  Q 851.25 329.84 851.73 330.82
  A 1.72 1.67 -87.8 0 0 852.38 331.54
  Q 854.74 332.98 857.01 333.04
  Q 875.19 333.47 899.31 333.22
  C 911.74 333.10 920.50 333.36 933.44 333.23
  C 972.05 332.85 1011.66 333.38 1040.25 333.45
  C 1044.60 333.46 1051.97 333.06 1057.02 333.12
  C 1081.64 333.41 1099.25 333.17 1126.38 333.32
  Q 1154.06 333.48 1160.63 333.10
  Q 1163.15 332.95 1165.13 331.87
  A 1.94 1.92 -12.6 0 0 1166.13 330.31
  Q 1167.05 316.80 1166.18 304.08
  L 1156.14 283.77
  A 0.57 0.57 0.0 0 1 1156.65 282.95
  L 1157.35 282.95
  A 0.79 0.78 83.5 0 1 1158.11 283.56
  Q 1158.24 284.18 1158.52 284.80
  Q 1162.69 293.94 1168.29 303.30
  Q 1168.10 315.43 1168.43 329.70
  C 1168.51 333.24 1173.48 333.18 1176.44 333.18
  Q 1214.89 333.21 1230.00 333.29
  Q 1243.48 333.36 1249.24 333.28
  C 1257.14 333.17 1264.82 333.69 1272.51 333.33
  Q 1275.18 333.20 1276.50 333.22
  Q 1310.12 333.62 1342.45 333.19
  C 1351.39 333.07 1359.05 333.44 1365.59 333.33
  Q 1373.64 333.19 1382.93 333.34
  Q 1404.45 333.70 1432.08 333.24
  A 0.89 0.88 -86.9 0 0 1432.93 332.47
  Q 1433.81 325.51 1433.73 317.55
  Q 1433.71 315.82 1435.28 311.96
  L 1435.33 650.38
  Q 1426.07 650.26 1416.95 650.40
  C 1377.86 650.98 1339.74 650.19 1303.16 650.54
  C 1299.66 650.57 1296.56 651.31 1293.76 653.41
  A 1.86 1.86 0.0 0 0 1293.25 655.82
  L 1323.30 708.84
  L 1322.68 739.37
  A 1.01 1.00 78.5 0 1 1322.09 740.27
  L 1321.53 740.53
  A 0.53 0.53 0.0 0 1 1320.78 740.11
  C 1320.49 737.30 1320.12 734.44 1320.23 731.25
  Q 1320.58 721.26 1319.86 710.25
  Q 1319.82 709.64 1318.70 708.41
  C 1319.23 706.18 1316.80 702.22 1315.74 700.28
  Q 1315.26 699.39 1292.31 658.69
  Q 1289.65 653.97 1284.53 652.23
  Q 1280.65 650.91 1276.50 650.79
  Q 1269.48 650.60 1259.50 650.58
  Q 1213.42 650.49 1160.50 650.43
  Q 1149.42 650.41 1141.50 650.44
  Q 1073.80 650.63 1019.46 650.56
  C 1015.57 650.55 1009.20 651.60 1007.07 655.10
  A 1.41 1.40 51.4 0 0 1006.94 656.26
  L 1025.12 710.19
  Q 1024.37 713.00 1024.29 716.00
  Q 1024.17 720.31 1024.24 740.40
  A 0.46 0.46 0.0 0 1 1023.78 740.87
  L 1022.45 740.87
  A 0.53 0.53 0.0 0 1 1021.92 740.34
  Q 1021.91 726.67 1021.91 713.78
  Q 1021.91 712.15 1020.94 710.39
  Q 1020.52 709.86 1019.51 709.86
  A 0.70 0.70 0.0 0 1 1019.15 708.56
  Q 1019.97 708.09 1020.34 707.44
  A 1.78 1.73 -35.8 0 0 1020.54 706.30
  Q 1019.84 702.27 1016.33 691.93
  Q 1008.08 667.65 1004.34 658.24
  Q 1003.50 656.11 1002.92 655.45
  C 1000.06 652.16 994.10 650.86 989.75 650.77
  Q 987.73 650.72 946.23 650.50
  Q 921.04 650.36 902.71 650.48
  C 852.31 650.81 803.11 650.28 744.34 650.37
  C 708.61 650.42 681.68 650.28 658.50 650.40
  Q 593.25 650.73 469.75 650.48
  C 464.05 650.47 458.61 651.15 455.32 656.04
  A 2.83 2.70 -26.3 0 0 454.86 657.30
  Q 452.29 680.00 448.91 703.72
  Q 448.52 706.42 448.75 708.98
  Q 448.18 712.36 448.05 715.75
  Q 447.52 729.14 448.05 740.90
  A 0.75 0.74 -1.5 0 1 447.30 741.68
  L 446.17 741.68
  A 0.77 0.76 -89.3 0 1 445.41 740.89
  Q 445.83 724.61 445.54 714.61
  C 445.48 712.31 445.04 710.44 444.65 708.28
  Q 445.66 707.24 445.82 705.87
  C 446.85 697.05 450.02 673.95 451.86 658.26
  C 452.29 654.52 448.74 652.34 445.60 651.29
  Q 443.57 650.61 439.96 650.61
  Q 397.22 650.63 368.81 650.40
  Q 353.48 650.28 297.68 650.50
  Q 259.77 650.66 190.50 650.46
  Q 183.63 650.44 178.49 654.38
  A 6.07 6.03 80.0 0 0 176.37 657.43
  Q 175.85 659.11 174.68 661.75
  Q 165.31 682.81 157.33 704.07
  Q 156.80 705.49 156.49 708.87
  Q 154.78 713.91 154.73 719.20
  Q 154.64 730.28 154.66 740.07
  A 0.80 0.80 0.0 0 1 154.07 740.84
  Q 153.52 741.00 152.88 740.79
  A 0.79 0.78 -80.5 0 1 152.35 740.03
  Q 152.74 724.77 151.51 709.72
  L 154.10 705.29
  A 14.75 13.39 73.8 0 0 155.01 703.43
  L 173.59 657.28
  A 3.19 3.18 34.1 0 0 172.93 653.88
  Q 169.63 650.45 164.25 650.47
  Q 118.21 650.65 54.00 650.41
  Q 27.00 650.31 0.00 650.67
  L 0.00 647.29
  Q 43.12 647.99 86.26 647.41
  Q 99.23 647.24 105.38 635.89
  C 107.79 631.43 110.43 624.50 113.46 618.52
  Q 118.19 609.17 122.76 599.01
  A 1.60 1.56 -43.1 0 0 122.81 597.86
  C 120.64 591.33 109.16 592.11 103.49 592.07
  Q 67.53 591.80 49.55 592.11
  C 39.18 592.29 26.27 591.63 14.75 591.88
  C 11.05 591.97 4.97 591.40 0.00 591.97
  L 0.00 586.90
  Q 8.41 587.24 13.51 584.29
  Q 18.36 581.49 22.15 573.48
  C 26.00 565.34 33.58 553.87 37.34 546.51
  A 2.16 2.15 -43.6 0 0 37.39 544.65
  C 34.64 538.62 26.94 538.54 21.51 538.59
  Q 12.77 538.67 4.08 538.83
  Q 2.32 538.87 0.00 539.76
  L 0.00 533.65
  Q 39.53 533.61 79.05 533.52
  Q 82.69 533.51 84.88 532.95
  Q 87.95 532.16 90.64 530.86
  A 4.26 4.22 -87.6 0 0 92.44 529.19
  L 99.00 517.89
  L 98.20 526.70
  A 1.35 1.34 32.2 0 0 98.39 527.52
  C 102.06 533.60 109.33 533.61 115.77 533.58
  Q 191.43 533.28 246.06 533.45
  C 250.35 533.46 255.57 531.61 260.25 531.47
  Q 263.24 531.37 266.24 531.48
  Q 270.93 533.59 274.00 533.61
  Q 300.35 533.80 311.25 533.76
  Q 374.87 533.52 445.25 533.68
  C 454.84 533.70 465.28 534.37 466.37 521.54
  Q 467.55 507.68 469.47 498.10
  A 2.44 2.39 -52.4 0 0 469.29 496.59
  C 467.47 492.78 464.04 492.05 460.49 491.32
  Q 458.04 490.81 454.41 490.82
  Q 354.21 491.08 292.00 490.79
  Q 286.16 490.77 281.47 491.70
  Q 276.05 490.27 270.44 490.81
  A 4.87 4.31 42.1 0 1 269.53 490.80
  Q 265.07 490.29 262.69 490.24
  Q 251.89 490.04 226.89 490.55
  Q 213.72 490.82 191.11 490.57
  Q 158.26 490.21 131.28 490.41
  Q 123.87 490.46 116.26 494.43
  Q 112.93 496.16 108.80 493.90
  C 106.16 491.18 102.36 490.86 98.50 490.83
  Q 49.24 490.42 0.00 490.80
  L 0.00 485.97
  C 10.55 485.82 22.41 486.17 31.65 486.10
  Q 56.04 485.92 86.19 485.92
  Q 88.33 485.92 93.02 485.19
  C 98.38 484.35 102.32 483.68 104.61 479.39
  Q 109.49 470.25 114.27 461.78
  Q 116.64 457.59 118.09 452.84
  A 2.03 2.02 30.3 0 0 117.55 450.79
  Q 113.73 447.15 108.50 447.02
  Q 104.00 446.90 99.50 446.90
  Q 49.75 446.87 0.00 446.80
  L 0.00 442.02
  Q 3.15 442.18 6.37 442.12
  Q 11.15 442.02 12.75 442.05
  Q 30.09 442.40 49.73 442.50
  C 55.51 442.54 61.20 441.14 64.25 435.99
  Q 69.24 427.57 76.24 417.24
  Q 78.01 414.62 78.76 413.18
  A 2.55 2.54 -53.0 0 0 78.35 410.24
  Q 75.87 407.64 71.62 407.62
  Q 35.81 407.48 0.00 407.36
  L 0.00 402.73
  C 9.50 402.79 15.83 403.50 22.84 397.89
  A 5.35 5.19 89.1 0 0 23.79 396.88
  Q 28.67 390.09 36.56 378.28
  Q 37.16 377.38 37.66 375.97
  A 2.25 2.25 0.0 0 0 36.56 373.22
  Q 32.94 371.37 28.73 371.45
  Q 14.36 371.72 0.00 371.78
  L 0.00 367.34
  C 14.79 366.88 29.28 367.23 51.01 367.10
  C 69.76 366.98 86.70 367.16 104.97 367.22
  Q 117.57 367.27 129.43 364.46
  Q 135.25 367.76 142.84 367.29
  Q 150.63 366.81 150.69 366.81
  C 162.24 366.79 170.91 366.69 181.33 367.04
  Q 185.42 367.18 192.75 367.13
  Q 226.12 366.93 240.42 367.05
  C 245.96 367.09 250.27 366.35 254.49 364.23
  A 6.57 6.56 -1.2 0 0 257.56 361.03
  L 265.46 343.35
  A 2.11 2.10 -43.0 0 0 265.52 341.77
  Q 264.34 338.55 260.76 338.19
  Q 257.46 337.85 255.77 337.89
  C 243.72 338.16 230.45 337.69 219.75 337.82
  C 197.22 338.09 174.75 337.64 152.26 338.01
  Q 148.76 338.07 142.70 340.98
  C 139.37 340.72 136.83 338.83 133.84 338.52
  Q 129.35 338.04 125.26 337.99
  C 101.07 337.69 71.54 338.26 44.00 337.79
  Q 28.30 337.53 13.43 338.26
  Q 8.94 338.49 6.40 340.63
  Q 3.75 342.87 0.00 349.53
  L 0.00 333.24
  Q 85.34 333.43 170.69 333.23
  C 194.42 333.18 212.15 333.50 234.66 333.13
  Q 237.86 333.08 241.55 331.97
  A 1.62 1.61 -8.6 0 0 242.70 330.41
  L 242.60 304.31
  Q 243.85 302.60 244.30 301.54
  Q 250.23 287.25 250.99 285.50
  A 0.62 0.46 -36.7 0 0 251.02 285.40
  L 251.39 283.26
  A 0.58 0.54 78.5 0 1 251.61 282.90
  Q 252.15 282.51 252.77 282.88
  A 0.64 0.63 -63.5 0 1 253.03 283.67
  L 245.17 302.73
  Q 244.69 313.35 244.71 324.56
  C 244.73 329.38 244.12 333.11 249.75 333.25
  Q 257.59 333.45 266.76 333.33
  C 285.70 333.07 304.40 333.36 342.12 333.45
  Q 349.99 333.47 352.89 333.35
  C 362.03 332.95 371.08 333.59 379.84 333.47
  C 404.95 333.10 423.37 333.27 442.75 333.34
  Q 495.82 333.53 533.25 333.25
  Q 537.40 333.22 539.87 331.78
  A 2.38 2.35 -86.5 0 0 540.61 331.12
  Q 541.27 330.23 541.41 328.22
  Q 542.20 316.46 541.05 306.13
  L 542.68 284.79
  A 1.43 1.38 31.4 0 0 542.45 283.90
  Q 541.39 282.32 541.94 281.48
  L 543.27 282.46
  Z"
/>
<g fill="#3b3a46">
<path d="
  M 0.00 442.02
  L 0.00 407.36
  Q 35.81 407.48 71.62 407.62
  Q 75.87 407.64 78.35 410.24
  A 2.55 2.54 -53.0 0 1 78.76 413.18
  Q 78.01 414.62 76.24 417.24
  Q 69.24 427.57 64.25 435.99
  C 61.20 441.14 55.51 442.54 49.73 442.50
  Q 30.09 442.40 12.75 442.05
  Q 11.15 442.02 6.37 442.12
  Q 3.15 442.18 0.00 442.02
  Z"
/>
<path d="
  M 108.80 493.90
  Q 109.38 497.27 107.48 500.48
  Q 102.69 508.59 99.00 517.89
  L 92.44 529.19
  A 4.26 4.22 -87.6 0 1 90.64 530.86
  Q 87.95 532.16 84.88 532.95
  Q 82.69 533.51 79.05 533.52
  Q 39.53 533.61 0.00 533.65
  L 0.00 490.80
  Q 49.24 490.42 98.50 490.83
  C 102.36 490.86 106.16 491.18 108.80 493.90
  Z"
/>
<path d="
  M 266.24 531.48
  L 260.88 530.34
  A 0.93 0.92 9.4 0 1 260.16 529.34
  Q 260.61 525.15 261.65 521.89
  Q 265.85 508.70 268.59 501.09
  C 270.63 495.45 276.65 494.08 281.47 491.70
  Q 286.16 490.77 292.00 490.79
  Q 354.21 491.08 454.41 490.82
  Q 458.04 490.81 460.49 491.32
  C 464.04 492.05 467.47 492.78 469.29 496.59
  A 2.44 2.39 -52.4 0 1 469.47 498.10
  Q 467.55 507.68 466.37 521.54
  C 465.28 534.37 454.84 533.70 445.25 533.68
  Q 374.87 533.52 311.25 533.76
  Q 300.35 533.80 274.00 533.61
  Q 270.93 533.59 266.24 531.48
  Z"
/>
</g>
<g fill="#26273d">
<path d="
  M 245.17 302.73
  Q 245.41 303.68 244.97 305.49
  A 0.78 0.78 0.0 0 0 245.73 306.45
  L 541.05 306.13
  Q 542.20 316.46 541.41 328.22
  Q 541.27 330.23 540.61 331.12
  A 2.38 2.35 -86.5 0 1 539.87 331.78
  Q 537.40 333.22 533.25 333.25
  Q 495.82 333.53 442.75 333.34
  C 423.37 333.27 404.95 333.10 379.84 333.47
  C 371.08 333.59 362.03 332.95 352.89 333.35
  Q 349.99 333.47 342.12 333.45
  C 304.40 333.36 285.70 333.07 266.76 333.33
  Q 257.59 333.45 249.75 333.25
  C 244.12 333.11 244.73 329.38 244.71 324.56
  Q 244.69 313.35 245.17 302.73
  Z"
/>
<path d="
  M 1435.19 306.28
  L 1435.28 311.96
  Q 1433.71 315.82 1433.73 317.55
  Q 1433.81 325.51 1432.93 332.47
  A 0.89 0.88 -86.9 0 1 1432.08 333.24
  Q 1404.45 333.70 1382.93 333.34
  Q 1373.64 333.19 1365.59 333.33
  C 1359.05 333.44 1351.39 333.07 1342.45 333.19
  Q 1310.12 333.62 1276.50 333.22
  Q 1275.18 333.20 1272.51 333.33
  C 1264.82 333.69 1257.14 333.17 1249.24 333.28
  Q 1243.48 333.36 1230.00 333.29
  Q 1214.89 333.21 1176.44 333.18
  C 1173.48 333.18 1168.51 333.24 1168.43 329.70
  Q 1168.10 315.43 1168.29 303.30
  L 1169.15 305.98
  A 0.72 0.72 0.0 0 0 1169.95 306.47
  C 1170.52 306.38 1171.27 306.10 1171.76 306.11
  C 1192.06 306.59 1210.29 306.23 1231.42 306.29
  C 1270.12 306.40 1285.95 306.75 1311.83 306.40
  Q 1332.72 306.11 1337.50 306.20
  Q 1367.74 306.76 1391.00 306.66
  Q 1413.12 306.56 1435.19 306.28
  Z"
/>
<path d="
  M 242.60 304.31
  L 242.70 330.41
  A 1.62 1.61 -8.6 0 1 241.55 331.97
  Q 237.86 333.08 234.66 333.13
  C 212.15 333.50 194.42 333.18 170.69 333.23
  Q 85.34 333.43 0.00 333.24
  L 0.00 306.29
  L 238.93 306.35
  A 1.66 1.12 -29.4 0 1 239.18 306.37
  L 241.00 306.68
  A 0.77 0.77 0.0 0 0 241.85 306.20
  L 242.60 304.31
  Z"
/>
<path d="
  M 851.31 304.45
  L 851.80 305.97
  A 0.64 0.63 -8.7 0 0 852.41 306.41
  L 1165.21 306.41
  A 0.75 0.74 3.5 0 0 1165.95 305.76
  L 1166.18 304.08
  Q 1167.05 316.80 1166.13 330.31
  A 1.94 1.92 -12.6 0 1 1165.13 331.87
  Q 1163.15 332.95 1160.63 333.10
  Q 1154.06 333.48 1126.38 333.32
  C 1099.25 333.17 1081.64 333.41 1057.02 333.12
  C 1051.97 333.06 1044.60 333.46 1040.25 333.45
  C 1011.66 333.38 972.05 332.85 933.44 333.23
  C 920.50 333.36 911.74 333.10 899.31 333.22
  Q 875.19 333.47 857.01 333.04
  Q 854.74 332.98 852.38 331.54
  A 1.72 1.67 -87.8 0 1 851.73 330.82
  Q 851.25 329.84 851.22 327.50
  Q 851.03 312.48 851.31 304.45
  Z"
/>
<path d="
  M 848.95 306.18
  Q 849.34 319.50 848.79 329.60
  C 848.63 332.59 842.18 333.16 839.99 333.17
  Q 779.29 333.59 737.75 333.14
  C 732.14 333.08 725.92 333.42 720.42 333.32
  Q 708.57 333.10 690.19 333.34
  C 676.71 333.52 661.64 332.87 646.50 333.32
  Q 639.74 333.52 635.32 333.39
  Q 630.45 333.24 628.16 333.23
  C 602.56 333.14 578.75 333.50 551.25 333.14
  C 546.50 333.08 543.54 332.50 543.56 327.03
  Q 543.58 318.93 543.34 311.97
  C 543.27 309.84 543.72 307.50 543.75 305.18
  L 544.22 306.32
  A 0.70 0.68 75.6 0 0 544.94 306.76
  Q 549.55 306.30 554.06 306.36
  C 574.10 306.64 600.23 306.23 623.31 306.50
  C 642.98 306.73 671.06 306.26 688.24 306.40
  C 708.94 306.55 755.87 306.20 796.83 306.46
  Q 817.31 306.59 826.50 306.31
  Q 840.45 305.87 848.95 306.18
  Z"
/>
<path d="
  M 142.70 340.98
  C 135.79 343.98 133.12 350.86 130.93 357.55
  A 0.35 0.34 23.9 0 0 131.09 357.96
  L 131.41 358.15
  A 0.38 0.38 0.0 0 0 131.93 358.00
  L 138.86 345.29
  A 0.25 0.25 0.0 0 1 139.08 345.16
  L 139.39 345.16
  A 0.20 0.20 0.0 0 1 139.57 345.46
  L 129.43 364.46
  Q 117.57 367.27 104.97 367.22
  C 86.70 367.16 69.76 366.98 51.01 367.10
  C 29.28 367.23 14.79 366.88 0.00 367.34
  L 0.00 349.53
  Q 3.75 342.87 6.40 340.63
  Q 8.94 338.49 13.43 338.26
  Q 28.30 337.53 44.00 337.79
  C 71.54 338.26 101.07 337.69 125.26 337.99
  Q 129.35 338.04 133.84 338.52
  C 136.83 338.83 139.37 340.72 142.70 340.98
  Z"
/>
<path d="
  M 0.00 485.97
  L 0.00 446.80
  Q 49.75 446.87 99.50 446.90
  Q 104.00 446.90 108.50 447.02
  Q 113.73 447.15 117.55 450.79
  A 2.03 2.02 30.3 0 1 118.09 452.84
  Q 116.64 457.59 114.27 461.78
  Q 109.49 470.25 104.61 479.39
  C 102.32 483.68 98.38 484.35 93.02 485.19
  Q 88.33 485.92 86.19 485.92
  Q 56.04 485.92 31.65 486.10
  C 22.41 486.17 10.55 485.82 0.00 485.97
  Z"
/>
<path d="
  M 281.47 491.70
  C 276.65 494.08 270.63 495.45 268.59 501.09
  Q 265.85 508.70 261.65 521.89
  Q 260.61 525.15 260.16 529.34
  A 0.93 0.92 9.4 0 0 260.88 530.34
  L 266.24 531.48
  Q 263.24 531.37 260.25 531.47
  C 255.57 531.61 250.35 533.46 246.06 533.45
  Q 191.43 533.28 115.77 533.58
  C 109.33 533.61 102.06 533.60 98.39 527.52
  A 1.35 1.34 32.2 0 1 98.20 526.70
  L 99.00 517.89
  Q 102.69 508.59 107.48 500.48
  Q 109.38 497.27 108.80 493.90
  Q 112.93 496.16 116.26 494.43
  Q 123.87 490.46 131.28 490.41
  Q 158.26 490.21 191.11 490.57
  Q 213.72 490.82 226.89 490.55
  Q 251.89 490.04 262.69 490.24
  Q 265.07 490.29 269.53 490.80
  A 4.87 4.31 42.1 0 0 270.44 490.81
  Q 276.05 490.27 281.47 491.70
  Z"
/>
<path d="
  M 0.00 586.90
  L 0.00 539.76
  Q 2.32 538.87 4.08 538.83
  Q 12.77 538.67 21.51 538.59
  C 26.94 538.54 34.64 538.62 37.39 544.65
  A 2.16 2.15 -43.6 0 1 37.34 546.51
  C 33.58 553.87 26.00 565.34 22.15 573.48
  Q 18.36 581.49 13.51 584.29
  Q 8.41 587.24 0.00 586.90
  Z"
/>
</g>
<path fill="#35333a" d="
  M 0.00 402.73
  L 0.00 371.78
  Q 14.36 371.72 28.73 371.45
  Q 32.94 371.37 36.56 373.22
  A 2.25 2.25 0.0 0 1 37.66 375.97
  Q 37.16 377.38 36.56 378.28
  Q 28.67 390.09 23.79 396.88
  A 5.35 5.19 89.1 0 1 22.84 397.89
  C 15.83 403.50 9.50 402.79 0.00 402.73
  Z"
/>
<path stroke="#2c2c41" stroke-width="2.00" fill="none" stroke-linecap="butt" vector-effect="non-scaling-stroke" d="
  M 405.00 341.39
  Q 400.91 344.15 399.08 350.63
  Q 396.97 358.07 398.98 364.80"
/>
<g fill="#313145">
<path d="
  M 967.98 363.15
  C 966.67 366.55 961.62 366.84 958.30 366.79
  Q 951.99 366.71 948.45 366.90
  Q 941.67 367.26 938.57 367.11
  C 925.39 366.47 909.32 367.31 894.07 366.97
  Q 883.96 366.75 881.26 366.69
  C 877.35 366.60 873.32 366.29 871.62 362.61
  Q 870.51 360.21 867.16 349.63
  Q 865.95 345.82 865.63 342.71
  A 3.11 3.10 -17.6 0 1 867.22 339.66
  Q 870.32 337.96 874.52 337.82
  Q 884.32 337.50 904.66 337.85
  C 918.30 338.08 932.23 337.77 949.01 337.96
  C 952.75 338.00 957.36 339.01 960.11 341.62
  Q 960.87 342.33 961.43 344.30
  Q 963.63 352.04 966.50 358.28
  Q 967.72 360.94 968.04 362.16
  A 1.63 1.58 49.4 0 1 967.98 363.15
  Z"
/>
<path d="
  M 398.98 364.80
  Q 396.97 358.07 399.08 350.63
  Q 400.91 344.15 405.00 341.39
  Q 410.31 338.10 417.01 338.02
  C 452.00 337.61 485.21 338.06 525.27 337.99
  C 528.97 337.98 534.35 337.98 536.89 341.87
  A 1.83 1.82 -58.8 0 1 537.17 343.03
  Q 536.48 349.56 535.87 359.53
  Q 535.57 364.51 530.83 365.79
  Q 527.28 366.76 523.25 366.80
  Q 509.42 366.94 460.00 366.98
  C 458.08 366.98 455.84 367.43 453.71 367.36
  Q 425.76 366.42 419.81 366.51
  Q 412.73 366.61 406.51 366.75
  Q 402.35 366.84 398.98 364.80
  Z"
/>
<path d="
  M 589.72 337.83
  Q 624.02 337.82 626.50 337.79
  Q 630.83 337.73 634.71 339.78
  C 636.45 340.70 637.09 342.45 637.17 344.60
  Q 637.63 357.60 637.88 362.50
  A 2.03 1.98 -33.0 0 1 637.64 363.56
  C 636.22 366.16 632.08 366.94 629.24 366.95
  C 616.07 366.98 602.82 367.17 589.73 367.18
  C 576.64 367.18 563.40 367.00 550.22 366.97
  C 547.39 366.96 543.25 366.19 541.82 363.59
  A 2.03 1.98 32.9 0 1 541.58 362.53
  Q 541.83 357.63 542.28 344.63
  C 542.36 342.48 543.00 340.73 544.74 339.81
  Q 548.62 337.75 552.95 337.81
  Q 555.43 337.84 589.72 337.83
  Z"
/>
<path d="
  M 1433.71 338.44
  L 1433.71 365.70
  A 1.58 1.58 0.0 0 1 1432.06 367.28
  Q 1426.58 367.03 1420.32 367.13
  Q 1403.78 367.41 1393.95 366.85
  C 1388.61 366.55 1383.67 364.90 1380.50 360.50
  Q 1374.97 352.79 1369.30 345.70
  Q 1368.01 344.07 1367.19 341.90
  A 1.93 1.93 0.0 0 1 1368.05 339.55
  C 1371.28 337.73 1376.74 337.74 1380.51 337.75
  Q 1401.52 337.81 1432.92 337.65
  A 0.79 0.79 0.0 0 1 1433.71 338.44
  Z"
/>
<path d="
  M 1257.37 397.94
  A 2.34 2.32 -27.3 0 1 1256.55 400.48
  C 1253.35 402.89 1248.32 402.63 1244.78 402.63
  Q 1213.45 402.60 1187.00 402.56
  C 1155.10 402.50 1135.12 402.77 1109.54 402.71
  Q 1106.52 402.71 1104.50 402.37
  C 1100.32 401.69 1097.96 401.46 1095.21 399.33
  A 3.79 3.78 -83.6 0 1 1094.08 397.91
  L 1084.68 377.47
  A 3.45 3.31 30.6 0 1 1084.39 376.43
  C 1083.78 371.44 1091.70 371.61 1095.27 371.58
  Q 1116.22 371.38 1228.16 371.38
  C 1232.07 371.38 1234.99 371.79 1238.25 372.48
  C 1241.06 373.07 1242.96 373.98 1244.72 376.94
  Q 1248.57 383.40 1255.07 393.19
  Q 1256.61 395.52 1257.37 397.94
  Z"
/>
<path d="
  M 1250.13 374.95
  A 4.03 3.74 -2.9 0 1 1252.86 372.14
  Q 1256.05 371.19 1259.75 371.33
  Q 1268.32 371.67 1278.45 371.45
  Q 1285.92 371.28 1326.24 371.51
  Q 1332.22 371.54 1336.99 374.51
  C 1338.79 375.62 1340.06 378.96 1341.29 380.55
  Q 1343.15 382.93 1344.87 385.59
  C 1347.56 389.76 1351.20 393.41 1353.64 397.60
  A 1.80 1.78 53.0 0 1 1353.34 399.79
  C 1350.38 402.63 1343.19 402.79 1339.50 402.79
  Q 1293.35 402.76 1273.45 402.54
  Q 1270.02 402.50 1267.35 401.30
  Q 1265.11 400.30 1262.91 396.99
  Q 1256.37 387.13 1250.95 377.66
  Q 1249.92 375.86 1250.13 374.95
  Z"
/>
<path d="
  M 252.13 411.40
  A 1.64 1.62 -56.5 0 1 252.38 412.65
  C 251.17 418.30 248.22 423.87 245.70 429.04
  A 14.24 14.02 66.4 0 0 244.82 431.34
  C 243.50 435.94 242.13 439.73 237.07 440.82
  Q 232.87 441.73 230.63 442.17
  A 10.88 10.42 38.1 0 1 228.52 442.38
  Q 180.57 442.35 142.44 442.15
  C 131.95 442.09 123.35 442.78 112.52 442.32
  Q 105.10 442.00 84.67 442.28
  Q 82.02 442.32 78.88 441.90
  C 75.70 441.47 69.06 441.29 71.16 436.66
  C 73.45 431.62 76.76 427.44 79.62 422.15
  C 82.95 415.98 85.56 410.03 91.77 408.52
  C 94.65 407.82 98.09 407.45 101.12 407.44
  Q 171.48 407.31 240.50 407.46
  C 244.60 407.47 249.74 407.92 252.13 411.40
  Z"
/>
<path d="
  M 349.13 439.61
  A 1.97 1.96 15.9 0 1 347.98 437.55
  C 348.90 431.03 351.70 424.23 353.12 418.94
  C 354.83 412.54 356.41 409.81 361.86 407.98
  Q 363.64 407.38 367.72 407.37
  C 382.50 407.31 414.05 407.55 448.00 407.37
  Q 462.36 407.30 510.63 407.50
  Q 515.61 407.52 519.18 410.07
  A 3.06 3.06 0.0 0 1 520.46 412.76
  C 519.86 421.43 519.78 429.88 517.62 437.71
  A 3.40 3.39 85.4 0 1 515.75 439.91
  Q 510.40 442.37 504.24 442.43
  Q 483.50 442.64 466.76 442.32
  C 457.97 442.16 446.93 442.64 437.05 442.00
  C 420.50 440.92 406.41 442.85 391.20 442.22
  Q 378.46 441.69 361.14 442.09
  C 357.05 442.19 352.67 441.18 349.13 439.61
  Z"
/>
<path d="
  M 1317.45 439.91
  Q 1314.36 441.78 1309.23 441.99
  Q 1295.20 442.54 1276.51 442.15
  Q 1268.69 441.99 1262.01 442.47
  C 1256.21 442.90 1249.67 442.19 1242.68 442.20
  C 1224.19 442.24 1202.56 442.59 1181.64 442.31
  C 1178.15 442.26 1175.17 441.35 1171.86 439.84
  A 4.88 4.86 0.7 0 1 1169.42 437.35
  Q 1165.57 428.42 1159.48 419.53
  Q 1158.37 417.91 1156.42 412.23
  A 1.31 1.31 0.0 0 1 1156.51 411.17
  C 1158.29 407.94 1164.16 407.52 1167.51 407.51
  Q 1249.08 407.22 1260.00 407.36
  Q 1274.33 407.55 1289.91 407.38
  Q 1297.58 407.30 1303.06 413.98
  Q 1307.42 419.31 1312.12 427.27
  Q 1313.80 430.13 1314.92 431.74
  C 1316.61 434.17 1318.89 436.91 1318.10 439.12
  A 1.52 1.49 -6.1 0 1 1317.45 439.91
  Z"
/>
<path d="
  M 1061.59 449.62
  C 1064.04 447.14 1070.16 446.37 1073.28 446.37
  Q 1106.12 446.36 1127.25 446.45
  Q 1133.53 446.47 1139.18 447.56
  C 1144.86 448.66 1147.65 451.10 1150.25 456.65
  C 1152.19 460.78 1154.33 465.20 1157.33 470.57
  C 1159.61 474.67 1161.30 477.81 1161.73 481.19
  A 2.73 2.73 0.0 0 1 1160.43 483.88
  Q 1157.81 485.46 1154.60 485.65
  C 1141.15 486.46 1126.24 485.81 1112.47 485.98
  Q 1103.89 486.08 1086.25 485.73
  C 1082.90 485.67 1077.68 485.23 1074.26 482.29
  Q 1072.74 480.98 1070.56 476.05
  Q 1065.01 463.51 1062.10 456.40
  Q 1061.42 454.74 1061.25 450.49
  A 1.17 1.16 66.4 0 1 1061.59 449.62
  Z"
/>
<path d="
  M 395.36 451.56
  A 2.44 2.43 33.1 0 1 395.75 453.40
  C 394.12 461.99 391.65 468.86 388.89 479.14
  Q 387.91 482.77 384.98 483.97
  Q 382.03 485.18 376.54 485.80
  Q 373.45 486.15 362.25 486.14
  Q 336.25 486.12 298.75 486.14
  Q 282.20 486.15 277.65 486.47
  C 273.74 486.75 269.43 486.10 266.06 486.11
  Q 243.97 486.19 225.00 486.21
  Q 221.39 486.21 217.74 485.01
  Q 212.57 483.31 214.87 477.91
  Q 218.70 468.93 226.31 452.85
  A 3.44 3.30 -13.5 0 1 226.83 452.04
  C 231.03 447.09 236.36 447.05 243.43 446.65
  Q 249.13 446.33 258.75 446.47
  Q 288.74 446.91 328.78 446.57
  Q 342.07 446.45 353.70 446.79
  Q 361.97 447.02 378.62 446.92
  Q 383.51 446.89 389.73 447.88
  C 392.17 448.27 394.04 449.69 395.36 451.56
  Z"
/>
<path d="
  M 740.07 451.87
  A 2.60 2.60 0.0 0 1 740.83 453.44
  Q 741.82 462.52 743.54 474.49
  Q 743.71 475.67 743.52 478.24
  C 743.03 484.68 738.29 484.74 732.94 485.53
  Q 730.63 485.88 727.04 485.82
  Q 714.15 485.59 705.17 486.07
  C 702.57 486.21 698.54 485.53 695.34 485.54
  Q 672.72 485.61 652.68 485.04
  C 642.42 484.75 630.61 485.73 621.00 485.67
  Q 604.13 485.57 570.50 485.75
  Q 568.80 485.76 564.59 484.90
  C 559.84 483.93 559.08 480.71 559.20 476.10
  Q 559.58 462.02 560.15 453.41
  C 560.46 448.86 567.44 447.63 571.01 447.34
  Q 577.87 446.78 612.25 446.90
  Q 622.95 446.94 641.00 446.99
  Q 663.89 447.05 677.26 446.92
  C 693.27 446.75 712.80 447.38 725.25 446.93
  C 729.60 446.77 736.60 448.40 740.07 451.87
  Z"
/>
<path d="
  M 1433.04 490.70
  A 0.62 0.62 0.0 0 1 1433.67 491.32
  L 1433.67 532.28
  A 1.43 1.43 0.0 0 1 1432.25 533.71
  Q 1394.45 533.98 1363.26 533.60
  Q 1360.22 533.57 1356.89 533.06
  C 1352.02 532.31 1349.08 532.02 1345.40 529.42
  A 4.51 4.47 1.0 0 1 1344.23 528.22
  Q 1328.67 504.80 1324.88 498.59
  C 1321.70 493.37 1330.95 491.24 1334.26 491.25
  Q 1350.95 491.27 1433.04 490.70
  Z"
/>
<path d="
  M 346.19 581.45
  Q 346.28 578.37 347.09 575.11
  Q 349.22 566.53 355.06 546.19
  A 4.58 4.46 -18.4 0 1 355.89 544.59
  C 360.52 538.83 368.45 538.84 375.53 538.83
  Q 421.02 538.78 454.75 538.76
  Q 501.55 538.72 546.85 538.73
  C 552.90 538.73 558.77 538.41 564.60 539.59
  Q 568.65 540.42 570.84 544.01
  A 2.07 2.04 30.9 0 1 571.13 545.13
  Q 570.38 571.66 569.73 578.00
  Q 569.18 583.47 563.87 585.36
  Q 559.34 586.96 555.51 586.94
  Q 526.36 586.76 511.50 587.21
  C 506.07 587.38 500.53 586.86 494.84 587.11
  Q 492.33 587.22 488.16 587.13
  Q 451.49 586.31 421.34 586.83
  C 405.58 587.10 389.84 586.72 375.98 586.35
  Q 373.01 586.27 367.49 586.44
  C 360.95 586.64 354.34 587.11 348.28 584.67
  A 3.35 3.35 0.0 0 1 346.19 581.45
  Z"
/>
<path d="
  M 1154.11 598.87
  A 3.13 3.12 60.8 0 1 1155.04 595.58
  C 1158.49 592.57 1163.75 592.19 1168.25 592.15
  Q 1236.83 591.67 1251.75 591.91
  C 1270.53 592.20 1287.57 592.07 1319.08 592.16
  Q 1320.83 592.16 1324.92 592.04
  Q 1335.45 591.74 1345.62 595.65
  C 1348.66 596.81 1351.08 599.22 1352.94 602.41
  Q 1359.65 613.90 1369.59 628.70
  C 1372.07 632.39 1378.84 642.34 1374.75 645.53
  Q 1372.51 647.29 1369.91 647.33
  Q 1348.13 647.71 1317.87 647.42
  Q 1280.66 647.06 1271.15 647.18
  C 1245.34 647.53 1213.37 647.75 1187.75 647.19
  Q 1184.38 647.12 1179.93 645.52
  Q 1175.10 643.79 1172.31 638.71
  Q 1172.03 638.18 1164.69 621.81
  C 1161.67 615.07 1156.53 606.48 1154.11 598.87
  Z"
/>
<path d="
  M 411.12 598.56
  Q 411.43 600.01 410.57 605.06
  Q 406.59 628.52 404.93 637.11
  Q 404.47 639.45 401.05 643.84
  A 2.69 2.62 2.9 0 1 400.30 644.50
  Q 395.62 647.24 390.00 647.35
  C 353.81 648.07 312.43 647.14 274.04 647.63
  Q 264.74 647.74 240.71 647.18
  Q 239.68 647.15 236.87 646.14
  C 233.15 644.80 232.44 641.51 233.47 637.78
  Q 235.10 631.85 235.68 630.44
  Q 240.82 617.94 246.34 601.13
  C 247.82 596.60 253.81 594.00 258.14 593.00
  Q 260.90 592.37 267.44 592.31
  Q 290.28 592.09 327.62 592.24
  C 334.76 592.27 339.79 591.92 346.16 592.17
  C 353.71 592.47 365.43 591.83 372.50 592.20
  C 382.88 592.73 392.11 591.64 403.00 592.96
  Q 408.41 593.61 410.71 597.50
  A 3.61 3.36 -68.2 0 1 411.12 598.56
  Z"
/>
<path d="
  M 629.10 601.91
  C 628.94 598.51 630.23 596.70 633.40 595.37
  C 636.82 593.93 640.84 592.49 643.50 592.56
  Q 652.50 592.82 707.75 592.21
  Q 708.27 592.20 714.26 592.28
  Q 743.61 592.69 758.70 592.63
  C 781.50 592.52 811.88 592.08 836.48 592.53
  C 840.95 592.61 851.01 594.10 854.15 598.86
  A 3.81 3.76 -68.2 0 1 854.68 600.12
  Q 856.71 608.96 861.45 629.75
  Q 863.47 638.61 862.41 641.55
  Q 860.41 647.09 852.77 647.22
  Q 839.22 647.45 828.80 647.50
  Q 780.32 647.77 671.02 647.67
  Q 647.96 647.65 641.27 647.32
  C 635.01 647.01 629.66 643.95 629.72 636.99
  Q 629.90 618.75 629.10 601.91
  Z"
/>
<ellipse cx="0.00" cy="0.00" transform="translate(1170.25,700.50) rotate(-150.6)" rx="0.93" ry="0.80"/>
</g>
<g fill="#3b3a46">
<path d="
  M 865.74 362.50
  A 2.77 2.75 77.4 0 1 864.02 365.23
  Q 860.01 366.85 855.50 366.89
  Q 848.35 366.94 806.19 366.67
  C 799.29 366.62 789.32 367.17 781.94 367.05
  Q 764.78 366.77 740.84 366.93
  C 738.01 366.95 734.77 366.57 732.19 365.41
  A 2.98 2.98 0.0 0 1 730.46 363.15
  Q 728.59 351.28 727.66 343.70
  Q 727.22 340.09 730.74 339.25
  C 733.65 338.56 735.31 338.07 737.87 338.06
  Q 799.81 337.76 850.00 338.05
  C 853.76 338.07 859.30 339.03 860.64 343.06
  C 862.71 349.24 865.36 356.16 865.74 362.50
  Z"
/>
<path d="
  M 1188.58 363.26
  A 2.25 2.25 0.0 0 1 1187.17 365.82
  C 1181.53 367.94 1175.56 367.16 1168.50 367.15
  Q 1120.57 367.12 1067.56 366.88
  C 1064.31 366.86 1061.59 366.36 1058.87 365.13
  C 1056.58 364.10 1056.08 361.94 1055.04 359.95
  Q 1048.35 347.21 1047.11 344.42
  Q 1045.35 340.49 1049.17 339.23
  Q 1052.82 338.03 1057.76 338.01
  C 1089.51 337.85 1103.56 338.10 1131.09 337.87
  Q 1143.07 337.77 1162.25 338.07
  Q 1168.12 338.17 1172.81 339.77
  Q 1174.16 340.23 1176.45 342.47
  A 3.32 3.30 9.3 0 1 1177.07 343.33
  C 1179.93 349.06 1184.30 354.61 1186.86 359.13
  Q 1188.23 361.56 1188.58 363.26
  Z"
/>
<path d="
  M 1279.89 363.80
  C 1278.56 366.67 1275.73 366.93 1272.74 366.93
  Q 1237.05 366.93 1203.76 366.96
  Q 1199.95 366.96 1194.59 364.39
  A 2.15 2.13 88.4 0 1 1193.64 363.48
  Q 1193.01 362.28 1189.43 357.56
  C 1186.24 353.33 1183.94 347.85 1180.70 343.05
  C 1178.30 339.49 1183.76 338.22 1186.25 338.18
  Q 1206.37 337.87 1250.55 337.92
  C 1257.06 337.93 1264.18 338.83 1268.08 344.86
  Q 1271.29 349.84 1275.64 355.34
  Q 1278.16 358.54 1279.91 362.70
  A 1.39 1.36 -44.5 0 1 1279.89 363.80
  Z"
/>
<path d="
  M 182.19 374.70
  Q 182.72 375.79 182.10 376.85
  C 179.21 381.81 177.76 385.71 174.63 390.16
  Q 173.28 392.09 170.48 397.48
  Q 169.10 400.13 165.45 401.19
  C 161.50 402.33 157.39 402.69 153.14 402.61
  Q 143.29 402.42 137.25 402.43
  Q 73.73 402.56 44.89 402.65
  C 41.27 402.66 36.76 402.19 34.19 401.97
  A 2.23 2.12 -29.7 0 1 33.54 401.81
  Q 29.52 400.25 30.89 396.45
  A 0.25 0.15 -31.7 0 1 30.93 396.37
  L 44.99 374.47
  A 1.37 1.31 1.3 0 1 45.46 374.04
  Q 49.55 371.85 54.03 371.76
  Q 60.99 371.62 98.91 371.38
  Q 104.86 371.34 113.45 371.53
  C 119.87 371.66 124.76 371.37 132.85 371.41
  Q 151.90 371.51 173.75 371.50
  Q 174.24 371.50 177.56 371.75
  C 179.93 371.93 181.20 372.62 182.19 374.70
  Z"
/>
<path d="
  M 946.40 397.62
  A 2.75 2.74 -15.0 0 1 944.68 400.59
  L 940.51 402.23
  A 1.90 1.78 31.5 0 1 939.88 402.36
  Q 925.52 402.77 910.92 402.64
  C 876.37 402.32 841.23 402.59 808.67 402.64
  Q 802.25 402.64 797.14 401.14
  Q 793.68 400.12 793.25 396.51
  C 792.51 390.32 789.91 383.11 789.12 375.82
  A 1.59 1.57 57.0 0 1 789.32 374.85
  C 790.67 372.54 797.11 371.81 799.26 371.75
  Q 812.77 371.38 855.25 371.65
  C 859.98 371.68 866.02 371.22 870.92 371.32
  Q 889.61 371.67 896.43 371.48
  C 908.12 371.15 915.66 371.57 930.71 371.72
  C 935.32 371.77 938.62 373.13 939.97 377.81
  Q 942.08 385.11 944.97 392.07
  Q 945.90 394.31 946.40 397.62
  Z"
/>
<path d="
  M 249.28 441.63
  A 2.96 2.82 -57.8 0 1 248.58 438.16
  Q 255.02 424.60 258.93 413.09
  Q 259.69 410.83 260.81 409.99
  C 263.76 407.75 268.58 407.27 272.25 407.28
  Q 307.69 407.34 341.03 407.17
  C 343.79 407.15 346.29 407.56 348.68 408.95
  A 2.39 2.38 -66.7 0 1 349.77 411.70
  Q 346.03 424.15 341.96 436.94
  C 340.47 441.63 337.57 442.17 333.22 442.90
  Q 331.00 443.28 329.25 443.25
  Q 298.09 442.87 255.29 443.20
  Q 251.20 443.23 249.28 441.63
  Z"
/>
<path d="
  M 836.96 442.49
  C 833.25 442.53 825.04 441.56 824.11 436.97
  Q 822.57 429.44 819.00 414.73
  Q 817.81 409.86 821.66 408.68
  C 824.84 407.70 830.27 407.20 834.15 407.22
  Q 881.33 407.49 939.50 407.34
  Q 962.23 407.28 989.67 407.63
  C 993.48 407.68 997.70 409.02 1000.54 411.40
  Q 1001.31 412.05 1002.10 414.35
  Q 1005.48 424.19 1008.75 432.99
  Q 1009.78 435.77 1009.72 437.93
  A 2.85 2.84 -11.2 0 1 1008.03 440.45
  C 1004.52 442.01 1000.71 442.51 996.27 442.51
  Q 960.69 442.46 899.25 442.46
  C 893.95 442.46 889.42 442.76 884.91 442.68
  Q 861.12 442.21 836.96 442.49
  Z"
/>
<path d="
  M 1261.72 452.18
  A 1.50 1.50 0.0 0 1 1261.99 450.54
  C 1264.90 447.45 1272.45 446.93 1276.52 446.96
  Q 1293.45 447.07 1308.75 447.16
  Q 1309.03 447.16 1311.82 446.95
  A 4.68 0.99 -4.5 0 0 1312.48 446.90
  Q 1313.63 446.81 1342.00 447.15
  C 1346.05 447.20 1351.03 446.63 1355.34 446.73
  Q 1377.35 447.22 1377.75 447.23
  C 1387.44 447.48 1396.65 445.43 1405.33 451.14
  Q 1407.41 452.50 1409.74 456.32
  Q 1411.63 459.41 1413.97 462.30
  Q 1420.84 470.77 1428.08 480.63
  A 2.70 2.56 48.0 0 1 1427.99 483.94
  C 1426.54 485.56 1421.40 485.91 1419.53 485.97
  Q 1403.34 486.41 1391.69 486.26
  C 1370.26 485.98 1343.93 486.16 1329.75 486.31
  C 1327.50 486.33 1323.26 486.66 1320.42 486.58
  Q 1306.64 486.20 1291.55 486.40
  C 1289.41 486.43 1287.20 486.00 1285.39 485.64
  Q 1279.72 484.52 1277.81 479.13
  A 3.05 3.01 -71.2 0 0 1277.49 478.47
  Q 1271.99 469.81 1267.49 462.79
  Q 1264.00 457.33 1261.72 452.18
  Z"
/>
<path d="
  M 216.44 447.68
  Q 221.23 450.22 219.17 454.63
  Q 209.18 476.04 206.01 482.02
  C 204.58 484.72 200.58 485.44 197.68 485.98
  Q 196.27 486.25 193.30 486.25
  Q 149.45 486.26 122.25 485.84
  Q 121.42 485.83 115.99 485.55
  Q 114.06 485.46 111.90 482.99
  A 1.41 1.38 -60.7 0 1 111.58 481.80
  Q 112.21 478.40 113.05 476.78
  Q 118.38 466.47 124.81 453.19
  C 127.13 448.39 135.79 447.18 140.54 447.15
  Q 170.48 446.98 210.75 447.15
  Q 210.93 447.15 215.59 447.44
  A 2.14 2.13 60.6 0 1 216.44 447.68
  Z"
/>
<path d="
  M 747.22 451.78
  C 748.76 447.28 757.81 446.85 762.01 446.90
  Q 774.42 447.05 800.50 446.96
  Q 834.56 446.84 868.72 447.15
  Q 873.81 447.19 876.23 447.77
  C 879.36 448.52 884.74 450.17 885.67 453.35
  Q 887.10 458.25 891.58 476.24
  Q 892.33 479.23 892.02 481.49
  A 3.87 3.87 0.0 0 1 889.77 484.50
  Q 887.28 485.61 883.68 485.75
  Q 876.15 486.05 839.25 485.89
  Q 805.91 485.74 772.25 486.03
  Q 762.68 486.11 759.73 485.81
  C 755.58 485.39 751.40 484.41 750.69 479.88
  Q 748.01 462.77 747.08 453.00
  A 2.99 2.87 52.6 0 1 747.22 451.78
  Z"
/>
<path d="
  M 704.03 526.49
  C 704.36 532.79 696.08 533.53 691.58 533.53
  Q 634.90 533.53 626.10 533.53
  C 608.47 533.55 593.29 533.22 576.50 533.48
  Q 563.48 533.68 485.26 533.79
  C 480.99 533.80 476.40 533.24 473.44 529.90
  A 2.11 2.10 21.9 0 1 472.92 528.69
  C 472.70 525.96 473.65 522.90 473.95 519.88
  Q 474.45 514.97 476.45 500.43
  Q 476.94 496.89 477.85 495.86
  C 481.48 491.75 487.86 490.56 493.18 490.59
  C 520.84 490.77 532.57 490.61 550.66 490.90
  Q 558.56 491.02 568.50 490.91
  Q 581.63 490.77 628.50 490.87
  Q 650.49 490.91 685.75 490.73
  C 690.57 490.70 698.27 491.79 701.09 495.94
  Q 701.75 496.92 701.96 499.29
  Q 703.52 516.55 704.03 526.49
  Z"
/>
<path d="
  M 846.09 494.11
  C 848.70 491.69 852.92 490.80 856.52 490.81
  Q 895.11 490.97 937.00 490.37
  C 942.01 490.30 948.20 491.18 951.92 494.76
  Q 953.13 495.92 954.35 500.18
  Q 958.33 514.08 960.78 521.23
  Q 962.05 524.93 962.00 527.99
  C 961.94 531.77 956.92 533.38 954.01 533.49
  Q 939.91 534.05 924.31 533.86
  C 902.48 533.60 887.25 533.95 868.06 533.92
  C 862.96 533.91 853.61 533.21 852.40 526.88
  Q 851.46 521.97 851.32 521.43
  Q 848.23 509.64 845.27 496.77
  A 2.80 2.77 -28.1 0 1 846.09 494.11
  Z"
/>
<path d="
  M 157.73 539.55
  C 161.11 540.14 165.00 543.11 162.93 546.80
  Q 159.18 553.49 157.00 558.47
  C 154.12 565.05 151.42 570.41 147.73 578.50
  C 144.41 585.77 135.19 587.46 127.79 587.07
  Q 123.71 586.85 121.21 586.88
  Q 90.33 587.21 76.50 587.13
  Q 49.68 586.98 35.73 587.05
  C 32.06 587.07 24.95 585.88 26.76 580.44
  Q 28.74 574.50 29.98 572.47
  C 31.72 569.62 34.50 565.91 36.33 561.95
  C 39.07 556.07 42.45 551.17 44.86 545.58
  A 3.26 3.24 -11.8 0 1 45.54 544.55
  C 49.68 540.19 55.19 538.98 61.75 538.96
  Q 119.83 538.76 150.79 538.93
  Q 154.23 538.95 157.73 539.55
  Z"
/>
<path d="
  M 784.08 583.04
  Q 780.39 586.90 774.74 586.92
  Q 763.13 586.94 723.24 587.20
  Q 710.95 587.28 700.75 587.13
  Q 687.48 586.94 678.25 586.88
  Q 665.38 586.80 635.40 587.22
  C 621.66 587.41 608.46 586.97 594.80 587.16
  C 590.15 587.22 583.18 587.27 579.51 583.79
  C 577.21 581.61 577.54 575.22 577.59 572.25
  Q 577.86 556.76 578.41 546.24
  C 578.67 541.36 585.29 539.29 589.41 538.98
  Q 589.79 538.95 598.11 538.94
  Q 755.16 538.88 761.99 538.85
  Q 766.98 538.84 772.89 540.53
  Q 777.67 541.90 779.74 545.27
  A 3.61 3.60 -65.2 0 1 780.23 546.61
  Q 784.50 573.44 784.59 574.20
  C 784.91 576.84 785.58 581.47 784.08 583.04
  Z"
/>
<path d="
  M 1268.85 578.88
  C 1271.45 586.24 1262.14 587.12 1257.18 587.14
  Q 1219.60 587.27 1176.73 587.08
  Q 1161.29 587.02 1153.75 587.16
  Q 1151.80 587.19 1081.25 587.19
  C 1074.34 587.19 1067.07 585.93 1064.29 578.69
  Q 1054.91 554.26 1052.38 548.35
  C 1048.35 538.93 1063.22 538.95 1069.25 538.97
  Q 1118.15 539.13 1177.25 538.86
  Q 1207.94 538.72 1230.53 539.00
  C 1239.12 539.10 1246.89 539.67 1251.51 547.98
  Q 1256.30 556.61 1264.48 570.24
  Q 1267.67 575.55 1268.85 578.88
  Z"
/>
<path d="
  M 862.08 597.96
  C 864.05 593.77 869.40 592.46 873.59 592.26
  Q 877.77 592.07 882.75 592.09
  Q 902.80 592.21 925.90 592.08
  Q 931.33 592.05 933.91 592.74
  C 937.99 593.83 942.59 596.00 945.06 599.54
  A 3.65 3.56 17.7 0 1 945.48 600.33
  C 947.33 605.10 948.60 609.95 950.88 615.60
  Q 955.82 627.90 958.68 638.89
  Q 960.84 647.17 952.21 647.39
  Q 925.17 648.08 881.78 647.31
  Q 874.14 647.17 871.14 640.22
  A 1.92 1.64 -67.0 0 1 871.02 639.84
  L 861.96 599.02
  A 1.59 1.58 -38.8 0 1 862.08 597.96
  Z"
/>
</g>
<g fill="#26273d">
<path d="
  M 405.00 341.39
  Q 400.91 344.15 399.08 350.63
  Q 396.97 358.07 398.98 364.80
  Q 395.36 365.24 391.76 365.89
  C 380.28 367.98 370.16 367.20 355.69 366.98
  C 343.44 366.79 326.93 367.41 316.23 367.17
  C 301.87 366.84 283.79 367.72 269.25 367.00
  Q 265.50 366.81 262.76 365.51
  A 1.13 1.13 0.0 0 1 262.12 364.30
  Q 262.50 362.04 263.57 359.57
  Q 265.71 354.65 269.86 345.07
  C 271.60 341.06 273.47 339.35 277.42 338.66
  Q 282.75 337.73 290.76 337.80
  C 323.66 338.10 361.05 337.73 390.94 338.15
  Q 398.35 338.26 405.00 341.39
  Z"
/>
<path d="
  M 1051.12 363.18
  A 2.29 2.28 73.2 0 1 1049.51 366.18
  Q 1045.53 367.15 1040.48 367.23
  Q 1017.53 367.59 985.26 366.69
  Q 979.82 366.54 974.79 363.89
  A 2.15 2.09 3.2 0 1 973.82 362.83
  C 970.97 356.11 967.51 349.25 966.20 342.05
  A 2.58 2.57 -11.3 0 1 968.19 339.07
  Q 972.51 338.13 976.56 338.13
  Q 996.68 338.11 1028.20 337.97
  C 1037.28 337.93 1041.50 340.69 1045.22 348.77
  Q 1048.28 355.44 1051.12 363.18
  Z"
/>
<path d="
  M 177.67 400.85
  A 1.62 1.61 -68.3 0 1 176.78 398.78
  C 178.30 394.75 180.16 390.58 182.86 386.35
  Q 185.93 381.55 188.09 377.35
  C 190.56 372.53 196.20 371.49 201.36 371.38
  Q 204.47 371.31 295.49 371.24
  C 300.75 371.24 306.01 371.44 310.18 374.51
  A 1.72 1.72 0.0 0 1 310.81 376.37
  Q 308.05 386.09 303.78 395.01
  Q 301.26 400.26 295.08 401.59
  Q 290.52 402.57 280.91 402.53
  Q 280.29 402.52 257.72 402.54
  Q 215.66 402.58 194.53 402.72
  C 187.74 402.77 182.87 403.01 177.67 400.85
  Z"
/>
<path d="
  M 582.37 396.63
  Q 582.22 396.41 581.91 396.41
  A 0.34 0.34 0.0 0 0 581.63 396.53
  C 577.20 401.65 571.70 402.24 565.14 402.44
  C 547.29 403.01 516.08 402.26 495.33 402.60
  Q 478.22 402.87 465.80 402.66
  C 459.82 402.56 450.77 403.58 451.69 395.91
  Q 452.42 389.85 453.35 382.49
  C 454.02 377.24 454.24 373.96 459.30 372.50
  Q 462.52 371.57 465.58 371.53
  Q 498.91 371.10 571.96 371.27
  Q 573.99 371.28 578.93 372.06
  A 1.40 1.26 48.1 0 0 579.21 372.09
  L 589.83 372.31
  A 2.80 2.65 -46.7 0 0 590.35 372.28
  Q 596.87 371.34 598.18 371.35
  Q 641.93 371.40 672.13 371.24
  C 679.55 371.20 684.31 371.02 689.51 375.19
  A 2.62 2.60 46.4 0 0 692.66 375.28
  Q 698.05 371.42 704.83 371.32
  Q 728.40 370.96 735.36 371.27
  C 746.82 371.78 758.33 371.21 771.92 371.55
  C 777.08 371.68 782.66 372.62 783.53 378.79
  Q 784.53 385.97 786.40 395.85
  Q 786.73 397.60 785.64 398.90
  C 782.79 402.30 777.49 402.60 772.75 402.62
  Q 743.56 402.71 713.32 402.61
  Q 708.38 402.60 702.42 402.13
  Q 696.78 401.69 694.93 397.20
  A 2.23 2.17 -45.9 0 0 690.86 397.32
  C 688.54 403.11 681.10 402.67 674.87 402.64
  C 655.26 402.55 641.24 402.35 626.42 402.80
  C 619.30 403.02 612.02 402.27 604.83 402.42
  C 598.03 402.55 590.17 402.99 585.63 397.10
  A 1.15 1.15 0.0 0 0 584.79 396.66
  Q 583.24 396.58 582.37 396.63
  Z"
/>
<path d="
  M 945.71 373.07
  Q 949.59 371.68 951.37 371.63
  Q 973.11 370.94 992.37 371.42
  C 997.39 371.54 1001.82 372.84 1004.29 377.05
  Q 1009.40 385.78 1012.07 395.01
  A 2.43 2.42 55.6 0 1 1011.68 397.13
  Q 1007.80 402.34 1001.13 402.47
  Q 978.68 402.92 966.60 402.49
  C 961.25 402.30 955.27 401.56 951.88 396.83
  Q 951.11 395.76 948.82 389.98
  C 946.38 383.80 944.21 379.80 945.15 373.74
  A 0.86 0.85 -5.3 0 1 945.71 373.07
  Z"
/>
<path d="
  M 1433.34 402.43
  A 0.42 0.42 0.0 0 1 1432.92 402.85
  Q 1415.03 402.61 1370.20 402.40
  Q 1363.62 402.37 1359.33 397.16
  Q 1352.20 388.50 1345.80 379.69
  Q 1343.98 377.19 1342.98 374.99
  A 1.50 1.50 0.0 0 1 1343.62 373.05
  C 1346.39 371.53 1350.00 370.96 1353.20 371.11
  C 1365.23 371.68 1376.08 371.02 1387.37 371.06
  Q 1422.42 371.18 1432.88 370.97
  A 0.46 0.46 0.0 0 1 1433.34 371.43
  L 1433.34 402.43
  Z"
/>
<path d="
  M 1402.58 410.05
  C 1405.12 408.32 1407.82 407.68 1411.02 407.56
  Q 1420.65 407.18 1432.65 407.02
  A 0.80 0.80 0.0 0 1 1433.46 407.82
  L 1433.46 442.19
  A 0.21 0.20 4.8 0 1 1433.22 442.39
  Q 1427.98 441.50 1423.91 439.04
  Q 1421.61 437.65 1417.26 431.98
  C 1411.13 423.96 1406.17 418.62 1402.22 411.63
  A 1.21 1.20 58.1 0 1 1402.58 410.05
  Z"
/>
<path d="
  M 816.60 438.49
  C 813.57 442.13 805.11 442.26 800.53 442.19
  C 790.76 442.06 783.92 441.40 774.99 441.85
  C 766.27 442.30 755.37 441.67 746.19 442.05
  C 739.25 442.34 732.13 441.60 724.59 441.73
  Q 675.85 442.60 641.14 442.29
  Q 635.20 442.23 629.75 440.49
  C 626.14 439.34 626.29 432.49 626.38 428.51
  Q 626.62 417.36 626.50 413.71
  Q 626.42 411.29 627.60 410.32
  C 630.70 407.81 637.68 407.35 641.56 407.34
  Q 698.99 407.18 705.50 407.27
  C 730.06 407.61 757.80 407.44 795.25 407.18
  Q 801.32 407.14 805.91 407.84
  C 810.44 408.53 812.00 410.81 813.16 415.61
  Q 816.03 427.51 816.72 431.33
  Q 817.31 434.61 817.00 437.53
  A 1.77 1.74 -22.8 0 1 816.60 438.49
  Z"
/>
<path d="
  M 1271.70 482.84
  C 1267.89 485.41 1262.44 485.65 1257.45 485.67
  Q 1238.44 485.74 1208.28 485.81
  C 1199.51 485.83 1187.73 485.44 1181.51 485.04
  C 1175.39 484.65 1170.14 483.75 1167.18 478.11
  Q 1162.74 469.66 1153.23 450.95
  A 1.20 1.19 -29.4 0 1 1153.67 449.39
  C 1157.51 447.02 1161.83 446.52 1167.43 446.45
  Q 1182.16 446.27 1232.53 446.44
  C 1241.41 446.47 1252.28 446.09 1257.39 454.73
  C 1259.30 457.96 1260.75 460.70 1263.18 463.91
  Q 1268.78 471.29 1272.51 480.13
  A 2.23 2.22 61.7 0 1 1271.70 482.84
  Z"
/>
<path d="
  M 553.95 452.80
  C 553.16 457.41 553.44 469.70 551.85 480.12
  Q 551.28 483.89 546.44 484.97
  C 543.18 485.71 538.49 486.19 535.16 486.18
  Q 430.55 485.87 405.05 485.67
  Q 403.25 485.66 399.05 484.46
  C 394.16 483.06 395.39 479.82 396.48 475.43
  Q 400.99 457.28 401.29 455.56
  C 402.62 447.87 410.50 446.82 417.02 446.80
  C 478.46 446.63 513.00 446.47 543.49 446.98
  C 547.34 447.05 551.51 447.25 553.84 452.02
  A 1.30 1.28 -53.6 0 1 553.95 452.80
  Z"
/>
<path d="
  M 892.44 450.52
  Q 895.86 447.11 901.69 446.87
  C 911.49 446.46 924.54 446.91 935.08 446.87
  Q 967.79 446.75 1002.75 446.74
  Q 1011.74 446.74 1017.75 446.84
  Q 1029.64 447.03 1042.23 447.20
  C 1046.42 447.26 1053.63 449.00 1055.77 453.18
  Q 1057.91 457.37 1060.01 463.45
  C 1062.00 469.24 1065.60 474.93 1065.08 481.31
  A 1.71 1.65 -23.0 0 1 1064.66 482.30
  C 1062.11 485.25 1058.57 485.77 1054.75 485.78
  Q 1012.44 485.98 1000.62 485.83
  C 973.86 485.49 945.21 486.36 917.28 486.16
  C 912.73 486.13 902.85 486.48 899.74 482.50
  Q 899.14 481.73 898.71 480.20
  Q 894.37 465.00 891.98 454.77
  Q 891.48 452.64 891.90 451.38
  A 2.23 2.12 78.6 0 1 892.44 450.52
  Z"
/>
<path d="
  M 1433.08 477.86
  A 0.28 0.28 0.0 0 1 1432.57 478.01
  Q 1429.73 473.88 1423.95 467.56
  Q 1417.65 460.68 1413.48 451.87
  A 1.61 1.59 57.4 0 1 1413.89 449.96
  Q 1417.02 447.34 1421.64 447.15
  Q 1426.36 446.95 1433.28 446.87
  A 0.54 0.54 0.0 0 1 1433.83 447.43
  L 1433.08 477.86
  Z"
/>
<path d="
  M 843.85 530.37
  C 842.15 533.48 835.35 533.75 832.00 533.74
  Q 773.31 533.61 727.49 533.70
  C 724.20 533.70 722.01 533.34 718.53 532.70
  C 715.10 532.07 712.05 530.62 711.54 526.96
  Q 711.20 524.42 708.85 496.99
  C 708.57 493.63 714.44 491.26 717.29 491.05
  C 728.32 490.27 739.92 490.93 749.57 490.83
  Q 781.04 490.50 812.75 490.52
  C 820.26 490.53 836.25 490.05 838.43 498.28
  Q 840.68 506.79 844.38 525.12
  Q 845.01 528.27 843.85 530.37
  Z"
/>
<path d="
  M 1113.42 497.82
  C 1111.53 491.94 1119.30 491.10 1123.01 490.98
  Q 1136.30 490.56 1137.05 490.56
  C 1160.01 490.81 1180.40 491.07 1205.65 490.85
  Q 1243.35 490.53 1278.11 490.96
  C 1286.91 491.07 1295.82 490.41 1304.64 490.89
  Q 1314.46 491.43 1319.03 499.05
  C 1321.89 503.80 1324.16 508.37 1327.71 513.08
  Q 1330.54 516.86 1335.06 523.94
  Q 1336.86 526.77 1336.55 529.71
  A 3.63 3.30 -6.9 0 1 1334.07 532.58
  Q 1330.87 533.60 1326.50 533.67
  Q 1304.35 534.01 1262.50 533.74
  Q 1235.18 533.57 1231.90 533.38
  C 1229.21 533.22 1225.82 533.64 1222.51 533.68
  Q 1202.04 533.96 1182.91 533.78
  Q 1167.51 533.64 1162.08 533.73
  C 1152.58 533.90 1143.28 534.10 1134.18 532.57
  Q 1131.92 532.20 1129.25 530.45
  Q 1127.71 529.44 1126.53 526.03
  Q 1125.60 523.34 1121.89 516.72
  A 14.94 12.44 71.3 0 1 1120.98 514.82
  Q 1117.50 506.13 1115.12 502.18
  Q 1114.46 501.08 1113.42 497.82
  Z"
/>
<path d="
  M 1057.02 583.31
  C 1053.53 587.04 1046.81 586.93 1041.62 586.98
  C 1027.07 587.12 1008.43 585.94 995.33 585.89
  Q 971.96 585.80 952.22 586.26
  C 939.96 586.55 925.32 585.38 915.42 585.89
  Q 880.93 587.68 845.12 587.05
  C 831.77 586.81 822.22 587.20 810.76 587.22
  C 803.70 587.24 794.19 586.73 792.39 578.33
  Q 791.59 574.62 787.76 551.75
  C 786.50 544.18 789.05 540.60 796.66 539.40
  Q 802.29 538.51 811.90 538.56
  Q 869.82 538.82 926.75 538.87
  Q 983.95 538.92 1021.04 538.62
  C 1030.77 538.54 1041.76 538.86 1046.23 549.22
  Q 1047.20 551.47 1054.01 567.99
  Q 1056.85 574.87 1057.38 582.30
  A 1.36 1.34 -25.8 0 1 1057.02 583.31
  Z"
/>
<path d="
  M 952.34 598.89
  A 2.17 2.17 0.0 0 1 952.89 596.89
  Q 957.72 591.78 965.61 591.69
  Q 992.94 591.35 1010.71 591.64
  Q 1028.60 591.93 1037.85 591.58
  C 1045.79 591.28 1051.47 591.68 1058.79 591.47
  Q 1060.60 591.42 1067.18 591.64
  Q 1086.03 592.28 1109.27 591.66
  C 1120.44 591.36 1142.23 590.32 1147.83 601.42
  Q 1153.22 612.13 1161.84 631.16
  C 1164.83 637.78 1166.60 645.99 1156.30 646.81
  Q 1147.34 647.53 1136.00 647.58
  C 1099.89 647.74 1078.21 647.03 1044.59 647.43
  Q 1028.41 647.62 1004.74 647.11
  Q 994.24 646.88 983.65 647.06
  C 975.84 647.19 968.42 645.05 965.68 637.21
  Q 959.49 619.52 957.02 613.51
  Q 953.95 606.02 952.34 598.89
  Z"
/>
<path d="
  M 609.15 592.10
  C 613.56 592.11 620.91 593.34 621.72 598.79
  Q 622.33 602.92 622.33 607.53
  Q 622.33 632.01 622.25 633.51
  C 621.89 639.91 620.55 645.02 613.39 646.40
  Q 608.38 647.36 603.02 647.34
  Q 576.83 647.23 549.34 647.51
  Q 537.50 647.63 527.68 647.36
  C 518.29 647.09 508.39 647.64 498.78 647.56
  C 475.13 647.38 449.02 646.56 424.06 647.06
  C 418.32 647.17 412.67 644.55 412.87 637.94
  Q 413.02 632.79 414.17 626.93
  Q 417.06 612.27 418.12 603.91
  C 419.31 594.55 427.39 592.39 435.42 592.13
  C 458.85 591.37 472.28 591.74 504.26 591.68
  Q 516.54 591.66 518.19 591.72
  C 524.51 591.98 530.11 591.62 536.78 591.69
  Q 566.85 591.99 596.67 592.06
  Q 601.97 592.07 609.15 592.10
  Z"
/>
<path d="
  M 1433.52 647.39
  Q 1402.10 647.46 1397.21 647.02
  C 1389.84 646.36 1385.22 642.95 1380.80 636.03
  C 1374.37 625.96 1371.21 620.36 1365.93 612.77
  Q 1362.60 607.99 1359.09 601.69
  C 1353.41 591.51 1368.80 591.76 1375.35 591.69
  Q 1401.87 591.43 1433.09 591.65
  A 0.59 0.58 2.3 0 1 1433.67 592.27
  Q 1432.28 619.71 1434.05 646.82
  A 0.53 0.53 0.0 0 1 1433.52 647.39
  Z"
/>
<circle cx="68.15" cy="684.63" r="0.75"/>
</g>
<g fill="#35333a">
<path d="
  M 721.81 341.37
  A 2.00 2.00 0.0 0 1 722.29 342.46
  L 724.58 362.99
  A 2.92 2.92 0.0 0 1 722.73 366.04
  C 720.22 367.02 716.60 367.55 713.70 367.56
  Q 683.86 367.66 652.75 367.42
  C 648.57 367.39 644.35 367.23 643.94 362.01
  Q 643.31 353.79 643.41 341.56
  A 3.00 3.00 0.0 0 1 645.60 338.70
  Q 649.29 337.65 652.75 337.78
  Q 659.63 338.04 667.96 337.83
  C 682.79 337.45 695.31 337.88 711.33 337.88
  C 715.17 337.88 719.33 338.54 721.81 341.37
  Z"
/>
<path d="
  M 1270.87 341.03
  A 1.72 1.71 -12.7 0 1 1272.05 339.17
  C 1274.64 338.34 1278.15 337.91 1281.31 337.89
  Q 1333.12 337.54 1350.75 337.98
  Q 1356.54 338.12 1362.20 342.30
  A 3.89 3.85 -89.7 0 1 1363.09 343.21
  Q 1367.93 350.13 1376.32 361.28
  C 1378.04 363.56 1377.81 365.83 1374.72 366.94
  Q 1372.63 367.70 1367.49 367.54
  C 1356.87 367.23 1346.59 367.66 1333.71 367.48
  Q 1317.70 367.25 1305.75 367.51
  Q 1298.41 367.67 1293.54 367.20
  C 1289.59 366.83 1286.37 365.50 1284.14 361.72
  Q 1283.18 360.08 1279.06 354.80
  C 1276.70 351.78 1274.08 347.62 1272.18 344.56
  Q 1271.10 342.80 1270.87 341.03
  Z"
/>
<path d="
  M 308.90 400.83
  A 1.64 1.63 28.3 0 1 308.33 398.95
  Q 311.08 391.49 312.90 386.26
  C 316.08 377.14 317.23 371.80 326.90 371.65
  Q 339.78 371.44 381.05 371.37
  C 398.56 371.34 419.93 371.98 438.99 371.35
  Q 444.06 371.19 447.81 374.40
  A 1.64 1.63 -66.4 0 1 448.37 375.85
  Q 447.30 384.73 444.98 395.52
  C 443.41 402.76 436.92 402.60 430.41 402.68
  Q 424.38 402.74 413.00 402.77
  Q 376.05 402.85 340.12 402.71
  C 329.98 402.67 322.41 403.29 313.69 402.57
  Q 310.97 402.34 308.90 400.83
  Z"
/>
<path d="
  M 1018.96 402.20
  A 3.51 3.49 87.4 0 1 1016.36 399.82
  C 1015.10 395.76 1014.53 393.61 1012.89 390.19
  Q 1009.47 383.08 1008.13 375.84
  A 2.74 2.74 0.0 0 1 1009.38 373.03
  Q 1011.76 371.56 1014.28 371.53
  Q 1043.91 371.19 1067.12 371.53
  Q 1069.50 371.56 1071.26 371.96
  C 1074.41 372.67 1077.86 373.96 1078.90 377.35
  C 1080.37 382.14 1084.91 388.48 1087.36 395.15
  Q 1088.76 398.96 1085.98 401.57
  A 2.05 2.05 0.0 0 1 1085.17 402.04
  Q 1082.63 402.82 1080.75 402.81
  Q 1051.63 402.65 1024.83 402.92
  C 1022.88 402.94 1020.83 402.62 1018.96 402.20
  Z"
/>
<path d="
  M 527.35 411.17
  C 528.71 408.51 535.15 407.30 537.50 407.30
  Q 592.71 407.26 610.52 407.40
  C 613.57 407.42 615.96 407.76 618.42 409.25
  A 3.25 3.25 0.0 0 1 619.98 411.97
  Q 620.26 428.21 620.18 432.51
  Q 620.10 436.29 619.80 438.23
  C 619.35 441.04 614.87 442.52 612.38 442.61
  Q 601.48 443.00 568.00 442.67
  C 565.09 442.64 559.41 443.04 555.66 442.91
  Q 543.88 442.49 533.09 442.55
  A 6.23 6.14 51.1 0 1 531.53 442.37
  C 529.24 441.82 525.31 441.23 524.77 438.62
  Q 524.62 437.84 524.91 433.39
  C 525.23 428.53 526.48 423.82 526.68 419.05
  Q 526.98 412.07 527.00 412.01
  A 6.03 5.36 -25.7 0 1 527.35 411.17
  Z"
/>
<path d="
  M 1007.91 416.07
  C 1007.01 413.73 1006.68 411.09 1009.47 409.40
  Q 1012.86 407.34 1017.25 407.35
  Q 1078.05 407.45 1134.25 407.20
  C 1138.79 407.18 1145.02 408.16 1148.56 410.76
  Q 1150.07 411.87 1152.07 415.50
  Q 1157.19 424.82 1160.69 431.56
  Q 1161.74 433.59 1162.58 437.32
  C 1163.70 442.33 1154.56 442.67 1151.74 442.62
  Q 1130.17 442.29 1104.63 442.59
  C 1092.30 442.74 1076.95 442.01 1065.15 442.62
  Q 1057.94 443.00 1049.34 442.47
  Q 1040.32 441.92 1028.77 442.15
  Q 1024.45 442.24 1019.46 440.73
  A 5.00 4.98 82.3 0 1 1016.65 438.58
  C 1014.58 435.25 1013.92 431.08 1012.54 427.75
  Q 1010.94 423.91 1007.91 416.07
  Z"
/>
<path d="
  M 1307.18 411.58
  A 1.48 1.48 0.0 0 1 1307.77 409.99
  Q 1311.49 407.45 1315.97 407.31
  Q 1319.24 407.21 1332.25 407.18
  Q 1334.23 407.17 1380.73 407.35
  C 1385.16 407.37 1388.73 407.80 1392.57 409.18
  C 1395.86 410.35 1397.86 413.64 1400.39 417.21
  Q 1402.79 420.58 1404.23 422.21
  Q 1408.92 427.53 1415.73 437.24
  C 1418.04 440.54 1414.88 442.76 1412.01 442.77
  Q 1378.62 442.92 1351.46 442.87
  Q 1340.63 442.86 1338.66 442.79
  C 1333.55 442.61 1326.87 441.33 1323.94 436.53
  C 1321.58 432.68 1319.45 428.76 1316.53 425.22
  C 1313.42 421.46 1308.42 416.33 1307.18 411.58
  Z"
/>
<path d="
  M 1119.81 530.51
  Q 1116.23 533.57 1111.48 533.57
  Q 1078.05 533.56 1029.50 533.70
  Q 1027.43 533.70 986.43 533.72
  C 981.55 533.72 973.69 533.65 970.46 529.49
  A 3.14 3.12 -72.6 0 1 969.93 528.47
  Q 965.48 513.90 960.60 498.65
  C 959.61 495.55 962.67 492.95 965.38 492.12
  Q 965.98 491.93 970.14 490.95
  A 6.53 6.52 38.4 0 1 971.62 490.78
  Q 1016.17 490.78 1093.38 491.00
  Q 1097.51 491.01 1099.85 491.81
  C 1103.76 493.15 1107.69 495.36 1109.33 499.47
  Q 1115.04 513.85 1119.38 522.41
  Q 1120.88 525.36 1120.28 529.64
  A 1.42 1.39 -17.2 0 1 1119.81 530.51
  Z"
/>
<path d="
  M 1432.66 539.80
  Q 1433.76 543.42 1433.72 545.20
  Q 1433.28 566.36 1433.72 581.50
  Q 1433.77 583.10 1434.06 586.05
  A 0.80 0.80 0.0 0 1 1433.27 586.92
  C 1426.29 586.92 1419.94 587.33 1412.05 587.26
  Q 1386.05 587.01 1348.53 587.14
  C 1343.87 587.16 1339.54 586.60 1334.89 586.67
  Q 1296.75 587.26 1291.20 587.08
  Q 1283.42 586.84 1278.68 582.82
  Q 1277.12 581.50 1274.77 577.49
  C 1270.22 569.72 1268.50 566.31 1263.34 557.92
  Q 1260.00 552.49 1256.91 546.19
  A 2.42 2.41 -40.9 0 1 1257.09 543.73
  C 1260.58 538.67 1265.05 539.17 1270.50 538.98
  Q 1280.33 538.63 1304.96 538.88
  C 1343.54 539.28 1382.86 538.86 1420.00 538.52
  C 1424.35 538.48 1427.78 538.89 1431.97 539.24
  A 0.80 0.78 83.3 0 1 1432.66 539.80
  Z"
/>
<path d="
  M 154.68 583.63
  Q 153.95 581.79 154.79 579.27
  C 158.41 568.43 163.37 559.04 169.74 546.50
  C 173.11 539.89 182.52 538.89 188.55 538.88
  C 221.65 538.80 257.13 539.12 286.71 538.97
  Q 309.32 538.86 334.65 538.88
  C 337.94 538.88 344.56 539.12 346.34 542.03
  C 348.06 544.85 348.00 546.19 346.92 549.67
  Q 340.61 570.04 338.85 577.56
  Q 337.25 584.46 330.92 586.12
  Q 329.65 586.46 326.66 587.02
  A 8.70 8.27 38.3 0 1 325.12 587.16
  Q 274.10 586.96 270.00 586.91
  C 261.03 586.78 249.35 587.23 239.17 586.93
  Q 233.94 586.78 226.83 586.88
  Q 198.24 587.27 163.74 587.06
  Q 158.11 587.02 155.24 584.44
  A 2.12 2.06 11.2 0 1 154.68 583.63
  Z"
/>
<path d="
  M 239.61 598.77
  Q 231.73 619.80 225.30 636.71
  Q 221.37 647.03 211.51 647.35
  Q 206.18 647.52 193.33 647.33
  C 168.90 646.97 144.41 647.55 120.56 647.43
  C 115.84 647.40 109.35 645.99 111.71 639.72
  C 115.31 630.17 120.17 621.18 124.39 611.30
  Q 126.38 606.64 129.45 600.38
  C 134.68 589.68 150.06 592.58 159.55 592.11
  Q 163.98 591.88 169.64 591.91
  Q 220.41 592.12 229.25 591.97
  C 232.92 591.92 238.69 593.58 239.68 597.63
  A 1.95 1.94 -41.6 0 1 239.61 598.77
  Z"
/>
<path d="
  M 1240.92 697.05
  Q 1240.31 696.95 1240.22 696.72
  A 0.72 0.61 13.7 0 1 1241.38 696.14
  Q 1241.62 696.35 1241.51 696.66
  Q 1241.35 697.12 1240.92 697.05
  Z"
/>
</g>
</svg>
