<?xml version="1.0" encoding="UTF-8" standalone="no"?>
<!DOCTYPE svg PUBLIC "-//W3C//DTD SVG 1.1//EN" "http://www.w3.org/Graphics/SVG/1.1/DTD/svg11.dtd">
<svg xmlns="http://www.w3.org/2000/svg" version="1.1" viewBox="0.00 0.00 977.42 1023.92">

<path fill="#131a2b" d="
  M 868.18 795.21
  L 868.30 804.12
  A 2.44 2.44 0.0 0 0 868.73 805.47
  Q 871.55 809.54 871.91 810.78
  Q 874.51 819.48 869.14 825.29
  A 2.03 2.01 -24.0 0 0 868.61 826.65
  L 868.61 921.32
  A 0.82 0.81 70.8 0 0 869.93 921.96
  C 874.93 917.99 880.21 922.06 884.06 925.50
  A 0.59 0.58 -54.6 0 0 884.97 925.34
  Q 887.56 920.51 893.08 919.90
  Q 899.22 919.23 902.46 920.03
  C 905.65 920.82 911.80 924.98 911.94 928.28
  A 1.35 1.34 16.9 0 0 912.51 929.34
  Q 915.29 931.29 916.90 934.91
  A 1.19 1.19 0.0 0 0 918.00 935.61
  L 920.99 935.57
  A 2.15 2.12 58.0 0 1 922.03 935.82
  Q 926.22 938.07 928.33 941.38
  A 3.03 2.98 28.7 0 1 928.81 942.97
  Q 928.87 946.36 928.85 948.01
  C 928.81 950.42 926.53 952.68 924.91 954.37
  A 1.45 1.42 -21.6 0 0 924.52 955.24
  C 923.44 968.45 922.49 975.12 924.15 985.27
  Q 924.47 987.26 923.99 990.02
  C 923.39 993.44 920.50 996.27 917.26 996.26
  Q 857.82 996.16 760.37 996.17
  C 755.86 996.17 754.41 995.03 751.37 992.19
  A 1.91 1.91 0.0 0 0 750.07 991.68
  L 741.52 991.68
  A 1.23 1.21 14.8 0 0 740.46 992.29
  C 738.11 996.38 734.61 996.24 729.75 996.24
  Q 642.77 996.27 610.54 996.22
  C 604.95 996.21 601.81 996.80 599.19 992.59
  A 0.75 0.72 73.3 0 0 598.57 992.24
  L 236.14 992.24
  A 0.18 0.17 15.0 0 0 235.99 992.32
  C 234.26 995.22 231.92 996.32 228.21 996.29
  Q 207.47 996.13 110.30 996.22
  Q 104.05 996.22 101.63 994.74
  Q 97.08 991.95 97.97 985.50
  Q 99.81 972.21 97.87 962.91
  Q 97.64 961.83 97.42 954.47
  A 1.03 1.02 -74.2 0 0 96.97 953.66
  Q 93.88 951.62 93.45 948.52
  C 92.72 943.31 93.67 938.50 99.57 937.22
  A 1.00 0.99 -5.1 0 0 100.37 936.27
  C 100.53 930.88 104.63 931.06 108.40 932.07
  A 0.68 0.67 9.6 0 0 109.25 931.47
  C 109.80 924.16 115.92 920.22 122.77 919.62
  C 128.43 919.13 131.18 921.73 135.52 925.35
  A 1.72 1.71 40.4 0 0 137.89 925.17
  Q 140.57 922.14 144.46 920.72
  C 147.20 919.71 148.70 919.59 151.20 920.80
  Q 155.16 922.71 157.68 924.32
  A 0.76 0.75 -73.8 0 0 158.84 923.68
  L 158.84 827.50
  A 1.89 1.86 -71.5 0 0 158.11 826.01
  Q 154.22 823.03 153.34 819.36
  C 152.06 814.04 153.07 807.97 157.68 804.60
  A 2.71 2.70 71.9 0 0 158.78 802.42
  L 158.78 754.55
  A 1.27 1.26 18.2 0 0 158.26 753.53
  Q 155.03 751.18 155.20 746.74
  Q 155.23 745.98 155.16 723.75
  Q 155.15 720.00 157.23 718.62
  A 1.00 0.97 -61.8 0 1 157.73 718.46
  L 161.57 718.27
  A 0.67 0.67 0.0 0 0 162.21 717.60
  L 162.21 710.26
  A 0.49 0.49 0.0 0 0 161.34 709.95
  Q 160.26 711.31 159.45 711.93
  C 146.18 722.11 128.09 725.55 112.38 720.38
  Q 101.36 716.75 91.58 709.26
  Q 89.38 707.57 82.66 699.43
  C 78.62 694.54 75.18 686.21 74.36 679.36
  Q 71.75 657.62 84.91 640.37
  Q 90.08 633.59 99.71 627.35
  A 1.24 1.24 0.0 0 0 100.29 626.28
  L 100.16 616.92
  A 0.68 0.67 -87.6 0 0 99.56 616.26
  C 97.81 616.10 93.33 616.63 91.63 615.30
  Q 88.97 613.22 89.00 610.97
  C 89.05 606.14 92.57 605.77 96.78 605.73
  C 118.36 605.54 137.93 604.46 157.00 604.55
  Q 157.75 604.56 160.27 604.29
  A 0.55 0.54 -2.9 0 0 160.76 603.75
  L 160.76 587.10
  A 0.57 0.57 0.0 0 0 160.19 586.53
  L 147.18 586.63
  A 1.21 1.20 56.5 0 1 146.70 586.53
  Q 143.71 585.14 143.74 582.99
  Q 143.88 574.58 143.77 569.86
  C 143.69 566.31 145.29 564.06 148.75 564.23
  Q 153.22 564.44 156.88 564.14
  A 1.03 1.02 10.0 0 0 157.72 563.56
  Q 178.84 520.56 200.02 480.27
  Q 201.81 476.87 203.31 474.32
  A 1.04 0.99 60.8 0 0 203.44 473.82
  L 203.44 447.08
  A 1.22 1.22 0.0 0 0 202.20 445.86
  L 198.59 445.91
  A 0.76 0.75 -34.1 0 1 198.32 445.86
  C 195.73 444.92 194.41 443.28 194.44 440.28
  Q 194.61 426.60 194.48 423.21
  A 2.51 2.44 -33.2 0 1 194.75 422.01
  Q 195.68 420.22 197.43 419.15
  A 2.16 2.15 29.1 0 1 198.49 418.85
  L 212.84 418.65
  A 1.20 1.19 -90.0 0 0 214.02 417.46
  L 214.11 397.76
  A 1.81 1.53 -40.3 0 1 214.17 397.40
  C 215.08 394.69 217.32 393.44 220.48 393.50
  Q 233.53 393.75 249.49 393.73
  A 2.54 2.46 -29.7 0 1 250.70 394.04
  Q 252.87 395.27 254.10 397.70
  A 1.71 1.69 32.1 0 1 254.28 398.46
  L 254.28 417.82
  A 0.94 0.93 -0.0 0 0 255.22 418.75
  L 272.18 418.75
  A 1.30 1.30 0.0 0 1 273.10 419.13
  Q 275.10 421.09 275.06 422.58
  Q 274.77 433.24 275.03 440.13
  C 275.12 442.49 274.35 444.04 272.50 445.19
  A 2.19 2.12 26.3 0 1 271.44 445.53
  L 265.50 445.84
  A 0.79 0.79 0.0 0 0 264.75 446.64
  L 264.89 456.54
  A 0.96 0.96 0.0 0 0 265.85 457.49
  L 750.70 457.49
  A 0.68 0.68 0.0 0 0 751.38 456.81
  L 751.38 447.49
  A 1.87 1.87 0.0 0 0 749.48 445.62
  L 745.05 445.68
  A 0.72 0.44 40.3 0 1 744.86 445.65
  C 742.23 444.82 741.11 442.94 741.14 440.05
  Q 741.25 424.63 741.12 422.71
  A 1.77 1.75 -31.6 0 1 741.36 421.72
  C 742.54 419.76 743.77 418.80 746.27 418.84
  Q 749.61 418.89 759.27 418.56
  A 1.16 1.16 0.0 0 0 760.39 417.41
  L 760.52 398.17
  A 2.25 2.25 0.0 0 1 760.74 397.20
  C 761.98 394.59 764.12 393.58 767.26 393.56
  Q 768.53 393.56 795.31 393.61
  A 2.41 2.30 57.3 0 1 796.38 393.87
  C 799.13 395.26 799.94 397.25 799.93 400.63
  Q 799.89 413.57 799.87 418.15
  A 0.53 0.53 0.0 0 0 800.40 418.68
  L 818.75 418.68
  A 0.99 0.98 -21.2 0 1 819.47 418.99
  Q 821.33 420.95 821.36 422.58
  Q 821.40 425.37 821.23 441.07
  Q 821.20 443.53 818.49 444.80
  A 1.70 1.62 -57.7 0 1 817.93 444.94
  L 813.44 445.20
  A 1.03 1.03 0.0 0 0 812.47 446.23
  L 812.47 471.39
  A 1.49 1.43 30.5 0 0 812.68 472.14
  Q 820.83 485.65 829.89 502.33
  Q 834.79 511.34 836.65 514.55
  C 844.97 528.84 852.18 542.60 863.53 563.47
  A 1.57 1.55 -14.0 0 0 864.91 564.29
  L 876.43 564.29
  A 0.96 0.95 -27.9 0 1 876.96 564.45
  Q 879.23 565.89 879.19 568.02
  Q 879.03 575.33 879.23 581.20
  C 879.32 583.62 878.22 585.88 876.15 586.50
  A 3.79 3.77 37.0 0 1 875.13 586.64
  L 870.29 586.67
  A 0.89 0.88 90.0 0 0 869.41 587.56
  Q 869.72 636.25 869.55 711.60
  C 869.53 718.78 870.39 726.58 870.05 734.16
  A 0.91 0.90 -88.8 0 0 870.95 735.11
  L 942.90 735.11
  A 4.13 4.13 0.0 0 1 947.03 739.21
  L 947.04 739.56
  A 4.42 4.41 -0.7 0 1 942.68 744.01
  L 921.17 744.29
  A 0.52 0.51 89.4 0 0 920.67 744.81
  L 920.67 753.48
  A 0.54 0.54 0.0 0 0 921.21 754.02
  Q 936.16 754.03 944.74 754.28
  C 947.62 754.36 949.57 757.77 949.51 760.26
  Q 949.21 773.66 949.38 794.26
  A 1.05 1.00 57.7 0 1 949.30 794.66
  Q 948.29 797.14 946.29 798.06
  A 2.13 2.10 -56.2 0 1 945.37 798.25
  Q 943.90 798.22 873.24 798.14
  Q 871.17 798.14 868.76 795.01
  A 0.32 0.32 0.0 0 0 868.18 795.21
  Z"
/>
<g stroke-width="2.00" fill="none" stroke-linecap="butt">
<path stroke="#af2f16" vector-effect="non-scaling-stroke" d="
  M 455.57 668.50
  Q 457.62 667.62 465.05 664.21
  Q 475.21 659.53 486.48 662.88
  Q 496.10 665.74 500.82 666.18
  Q 517.83 667.79 532.15 658.50"
/>
<path stroke="#cd812a" vector-effect="non-scaling-stroke" d="
  M 532.15 658.50
  Q 543.41 658.65 547.64 658.41
  Q 549.45 658.31 552.20 657.10
  A 0.77 0.76 -11.8 0 0 552.66 656.40
  Q 552.49 639.24 552.65 632.01
  Q 552.69 630.31 551.54 629.89"
/>
<path stroke="#af2f16" vector-effect="non-scaling-stroke" d="
  M 551.54 629.89
  L 542.58 629.63
  A 0.47 0.45 -86.0 0 1 542.14 629.11
  Q 542.73 624.21 545.68 623.26"
/>
<path stroke="#cd812a" vector-effect="non-scaling-stroke" d="
  M 545.68 623.26
  L 552.17 623.17
  A 0.59 0.59 0.0 0 0 552.75 622.58
  L 552.75 597.73
  A 0.89 0.88 -0.3 0 0 551.85 596.85
  L 529.19 597.30"
/>
<path stroke="#af2f16" vector-effect="non-scaling-stroke" d="
  M 529.19 597.30
  L 521.91 597.27"
/>
<path stroke="#cd812a" vector-effect="non-scaling-stroke" d="
  M 521.91 597.27
  L 510.82 597.33"
/>
<path stroke="#af2f16" vector-effect="non-scaling-stroke" d="
  M 510.82 597.33
  Q 502.17 597.05 493.59 596.50
  Q 488.58 596.18 486.88 596.37
  C 482.72 596.85 475.93 597.81 473.52 593.53
  C 472.62 591.94 471.86 590.18 470.73 589.24
  C 467.96 586.91 465.17 586.92 461.60 586.68
  Q 457.30 586.40 452.95 586.18"
/>
<path stroke="#e0872b" vector-effect="non-scaling-stroke" d="
  M 510.82 597.33
  L 496.25 597.55
  A 0.78 0.77 89.3 0 0 495.49 598.34
  L 495.83 623.26
  A 0.82 0.82 0.0 0 0 496.66 624.07
  L 521.46 623.74
  A 0.88 0.88 0.0 0 0 522.33 622.84
  L 521.91 597.27"
/>
<path stroke="#e0872b" vector-effect="non-scaling-stroke" d="
  M 529.19 597.30
  L 529.35 622.60
  A 0.78 0.78 0.0 0 0 530.14 623.38
  L 545.68 623.26"
/>
<path stroke="#e0872b" vector-effect="non-scaling-stroke" d="
  M 551.54 629.89
  L 530.40 630.49
  A 0.82 0.81 -0.4 0 0 529.60 631.29
  L 529.13 657.57
  A 0.74 0.73 -71.2 0 0 529.41 658.15
  Q 530.41 658.93 532.15 658.50"
/>
<path stroke="#af2f16" vector-effect="non-scaling-stroke" d="
  M 189.73 771.22
  Q 190.96 771.19 191.34 770.55
  A 0.42 0.41 19.3 0 0 191.04 769.93
  Q 179.53 768.23 168.15 770.39"
/>
<path stroke="#af2f16" vector-effect="non-scaling-stroke" d="
  M 394.87 763.21
  Q 391.22 762.37 387.40 762.42
  C 381.23 762.51 374.12 762.17 368.69 764.24
  A 0.84 0.82 82.7 0 0 368.16 764.94
  L 367.55 772.65
  A 1.30 1.30 0.0 0 0 368.80 774.05
  L 384.13 774.64"
/>
<path stroke="#e0872b" vector-effect="non-scaling-stroke" d="
  M 251.69 822.86
  Q 252.48 826.24 252.42 828.26
  Q 251.88 844.18 251.88 859.85
  A 1.08 1.08 0.0 0 0 252.96 860.93
  L 277.44 860.93
  A 0.37 0.37 0.0 0 0 277.81 860.56
  L 277.81 810.25
  A 1.61 1.60 89.8 0 0 276.20 808.64
  L 255.45 808.71"
/>
<path stroke="#e0872b" vector-effect="non-scaling-stroke" d="
  M 252.74 801.34
  L 276.29 801.23
  A 1.56 1.56 0.0 0 0 277.84 799.67
  L 277.84 772.36
  A 1.55 1.55 0.0 0 0 276.29 770.81
  L 252.84 770.81
  A 1.16 1.16 0.0 0 0 251.68 771.97
  L 251.58 795.82"
/>
<path stroke="#af2f16" vector-effect="non-scaling-stroke" d="
  M 236.98 783.34
  L 236.69 781.62
  A 0.76 0.74 70.2 0 1 237.05 780.84
  Q 240.41 778.87 244.91 778.94
  A 2.30 2.30 0.0 0 0 247.25 776.64
  L 247.25 768.04
  A 1.15 1.15 0.0 0 0 246.10 766.89
  L 237.55 766.89
  A 2.59 2.58 -89.2 0 0 234.97 769.41
  Q 234.87 773.25 231.54 775.08"
/>
<path stroke="#af2f16" vector-effect="non-scaling-stroke" d="
  M 215.79 770.03
  Q 215.13 768.35 215.82 767.05
  A 0.85 0.84 15.5 0 1 216.59 766.62
  Q 221.43 766.86 221.84 761.77
  Q 222.22 757.13 222.68 752.63"
/>
<path stroke="#af2f16" vector-effect="non-scaling-stroke" d="
  M 803.53 752.35
  Q 784.72 753.84 765.85 753.83
  Q 761.36 753.83 759.87 754.80
  C 756.71 756.86 755.07 758.47 751.08 758.63
  Q 707.78 760.41 664.46 758.54"
/>
<path stroke="#af2f16" vector-effect="non-scaling-stroke" d="
  M 802.24 773.61
  Q 800.34 768.67 800.41 763.63
  A 1.32 1.31 -88.4 0 0 799.15 762.29
  Q 788.98 761.84 778.52 761.92
  Q 776.84 761.93 775.57 763.48
  A 1.25 1.24 65.6 0 0 775.29 764.24
  L 775.16 771.66
  A 1.28 1.28 0.0 0 0 776.23 772.95
  L 789.33 775.15"
/>
<path stroke="#af2f16" vector-effect="non-scaling-stroke" d="
  M 631.00 772.95
  Q 633.45 771.80 634.52 771.94
  Q 637.31 772.29 638.30 769.78
  A 0.78 0.71 60.9 0 0 638.35 769.57
  L 639.47 759.89"
/>
<path stroke="#af2f16" vector-effect="non-scaling-stroke" d="
  M 828.80 769.45
  L 836.22 769.01
  A 2.01 2.00 -8.4 0 0 838.05 766.56
  Q 836.50 759.91 836.43 752.43"
/>
<path stroke="#af2f16" vector-effect="non-scaling-stroke" d="
  M 421.20 759.75
  Q 420.46 765.76 421.35 771.32
  A 1.58 1.57 -18.6 0 1 420.53 772.96
  L 415.78 775.49"
/>
<path stroke="#af2f16" vector-effect="non-scaling-stroke" d="
  M 584.22 759.81
  L 584.89 772.22
  A 1.27 1.26 0.8 0 0 586.05 773.41
  Q 590.81 773.80 595.11 776.28"
/>
<path stroke="#f7af2c" vector-effect="non-scaling-stroke" d="
  M 935.94 779.96
  L 932.67 785.08"
/>
<path stroke="#8dab42" vector-effect="non-scaling-stroke" d="
  M 603.24 793.74
  L 601.11 792.41"
/>
<path stroke="#8dab42" vector-effect="non-scaling-stroke" d="
  M 647.70 800.29
  Q 647.48 800.68 647.12 800.88"
/>
<path stroke="#96cea1" vector-effect="non-scaling-stroke" d="
  M 786.63 810.52
  Q 785.37 810.41 784.74 809.51
  Q 782.98 807.00 781.91 806.54"
/>
<path stroke="#f7af2c" vector-effect="non-scaling-stroke" d="
  M 413.29 804.55
  L 413.54 800.56"
/>
<path stroke="#b58831" vector-effect="non-scaling-stroke" d="
  M 413.54 800.56
  Q 413.65 799.57 413.20 798.72"
/>
<path stroke="#ae5e1e" vector-effect="non-scaling-stroke" d="
  M 412.79 798.78
  Q 412.86 799.95 413.54 800.56"
/>
<path stroke="#8dab42" vector-effect="non-scaling-stroke" d="
  M 640.73 816.26
  L 638.14 819.63
  A 2.16 2.12 7.7 0 1 637.19 820.34
  Q 633.78 821.65 634.53 825.12"
/>
<path stroke="#97bc42" vector-effect="non-scaling-stroke" d="
  M 372.15 827.73
  Q 375.51 823.20 375.94 818.06"
/>
<path stroke="#97bc42" vector-effect="non-scaling-stroke" d="
  M 599.80 825.23
  Q 598.64 824.51 597.09 825.20
  A 1.43 1.40 36.6 0 1 596.27 825.31
  Q 593.63 824.93 593.20 822.84"
/>
<path stroke="#af2f16" vector-effect="non-scaling-stroke" d="
  M 256.45 920.48
  Q 251.64 921.96 247.58 927.28"
/>
<path stroke="#84301c" vector-effect="non-scaling-stroke" d="
  M 390.73 931.01
  Q 391.24 924.86 387.53 920.46"
/>
<path stroke="#84301c" vector-effect="non-scaling-stroke" d="
  M 217.05 902.52
  Q 216.90 902.81 216.44 902.43
  A 0.92 0.89 -73.6 0 1 216.13 901.84
  L 215.31 894.59"
/>
<path stroke="#879893" vector-effect="non-scaling-stroke" d="
  M 682.00 935.18
  Q 681.22 936.26 680.25 935.75"
/>
<path stroke="#206936" vector-effect="non-scaling-stroke" d="
  M 698.59 947.04
  Q 691.10 944.72 691.71 938.63"
/>
<path stroke="#8dab42" vector-effect="non-scaling-stroke" d="
  M 728.43 938.54
  Q 727.68 940.45 727.49 943.73
  Q 727.39 945.32 724.69 944.95"
/>
<path stroke="#97bc42" vector-effect="non-scaling-stroke" d="
  M 707.46 939.52
  Q 705.70 938.77 705.22 935.75"
/>
<path stroke="#cd4623" vector-effect="non-scaling-stroke" d="
  M 654.87 931.33
  L 652.01 934.11"
/>
<path stroke="#8dab42" vector-effect="non-scaling-stroke" d="
  M 180.53 937.76
  L 178.86 937.16"
/>
<path stroke="#96cea1" vector-effect="non-scaling-stroke" d="
  M 612.23 942.15
  L 611.13 937.19"
/>
<path stroke="#96cea1" vector-effect="non-scaling-stroke" d="
  M 764.96 941.22
  L 764.28 940.30"
/>
<path stroke="#97bc42" vector-effect="non-scaling-stroke" d="
  M 213.75 935.51
  Q 211.75 937.42 208.98 937.88"
/>
<path stroke="#eb9837" vector-effect="non-scaling-stroke" d="
  M 201.03 937.49
  Q 200.18 937.00 199.61 936.27"
/>
<path stroke="#258e44" vector-effect="non-scaling-stroke" d="
  M 225.29 940.70
  L 223.46 945.84"
/>
<path stroke="#96cea1" vector-effect="non-scaling-stroke" d="
  M 114.90 942.26
  Q 113.62 942.53 113.32 939.19"
/>
<path stroke="#d9ccc6" vector-effect="non-scaling-stroke" d="
  M 899.78 926.06
  L 897.26 932.04
  A 1.25 1.25 0.0 0 0 897.53 933.40
  L 903.77 939.64
  A 0.68 0.67 67.0 0 1 903.31 940.79
  L 896.97 940.91
  A 1.81 1.77 -57.6 0 0 896.17 941.10
  L 890.62 943.81"
/>
<path stroke="#8bc396" vector-effect="non-scaling-stroke" d="
  M 887.03 940.23
  Q 886.78 939.59 886.78 938.19"
/>
<path stroke="#7c8d88" vector-effect="non-scaling-stroke" d="
  M 886.78 938.19
  C 887.64 935.52 886.02 934.41 886.17 931.86"
/>
<path stroke="#206936" vector-effect="non-scaling-stroke" d="
  M 886.78 938.19
  L 879.36 937.73
  A 12.40 12.12 -36.2 0 1 877.27 937.43
  L 870.86 935.92"
/>
<path stroke="#739874" vector-effect="non-scaling-stroke" d="
  M 907.80 933.78
  Q 907.96 936.62 906.22 938.73
  Q 904.47 940.86 903.20 942.25"
/>
<path stroke="#cd4623" vector-effect="non-scaling-stroke" d="
  M 153.76 931.99
  L 151.16 935.87"
/>
<path stroke="#cd4623" vector-effect="non-scaling-stroke" d="
  M 817.05 932.29
  L 814.49 936.07"
/>
<path stroke="#cd4623" vector-effect="non-scaling-stroke" d="
  M 263.61 937.75
  Q 263.54 933.91 259.03 933.19
  A 0.99 0.99 0.0 0 0 257.91 934.39
  Q 258.42 936.70 260.80 938.64"
/>
</g>

<g fill="#c23517">
<rect x="749.39" y="426.55" width="63.28" height="11.96" rx="1.00"/>
<path d="
  M 362.96 587.16
  L 362.96 667.35
  A 0.97 0.97 0.0 0 1 361.99 668.32
  L 237.73 668.32
  A 0.97 0.97 0.0 0 1 236.76 667.35
  L 236.76 587.16
  A 0.97 0.97 0.0 0 1 237.73 586.19
  L 361.99 586.19
  A 0.97 0.97 0.0 0 1 362.96 587.16
  Z"
/>
<path d="
  M 776.8198 667.1214
  A 1.12 1.12 0.0 0 1 775.7017 668.2433
  L 653.5419 668.4565
  A 1.12 1.12 0.0 0 1 652.4199 667.3385
  L 652.2802 587.2986
  A 1.12 1.12 0.0 0 1 653.3983 586.1767
  L 775.5581 585.9635
  A 1.12 1.12 0.0 0 1 776.6801 587.0815
  L 776.8198 667.1214
  Z"
/>
<path d="
  M 452.95 586.18
  Q 457.30 586.40 461.60 586.68
  C 465.17 586.92 467.96 586.91 470.73 589.24
  C 471.86 590.18 472.62 591.94 473.52 593.53
  C 475.93 597.81 482.72 596.85 486.88 596.37
  Q 488.58 596.18 493.59 596.50
  Q 502.17 597.05 510.82 597.33
  L 496.25 597.55
  A 0.78 0.77 89.3 0 0 495.49 598.34
  L 495.83 623.26
  A 0.82 0.82 0.0 0 0 496.66 624.07
  L 521.46 623.74
  A 0.88 0.88 0.0 0 0 522.33 622.84
  L 521.91 597.27
  L 529.19 597.30
  L 529.35 622.60
  A 0.78 0.78 0.0 0 0 530.14 623.38
  L 545.68 623.26
  Q 542.73 624.21 542.14 629.11
  A 0.47 0.45 -86.0 0 0 542.58 629.63
  L 551.54 629.89
  L 530.40 630.49
  A 0.82 0.81 -0.4 0 0 529.60 631.29
  L 529.13 657.57
  A 0.74 0.73 -71.2 0 0 529.41 658.15
  Q 530.41 658.93 532.15 658.50
  Q 517.83 667.79 500.82 666.18
  Q 496.10 665.74 486.48 662.88
  Q 475.21 659.53 465.05 664.21
  Q 457.62 667.62 455.57 668.50
  C 453.12 669.01 451.56 668.72 451.60 665.82
  Q 451.83 646.55 451.61 622.26
  C 451.51 611.21 452.13 598.68 451.47 586.98
  A 0.68 0.65 64.1 0 1 451.61 586.54
  Q 452.05 585.99 452.95 586.18
  Z"
/>
<path d="
  M 177.71 615.81
  A 1.03 1.03 0.0 0 1 178.74 616.85
  L 178.65 640.90
  A 2.93 2.64 -89.8 0 1 176.00 643.83
  L 172.68 643.81
  A 2.93 2.64 -89.8 0 1 170.05 640.87
  L 170.14 616.82
  A 1.03 1.03 0.0 0 1 171.17 615.79
  L 177.71 615.81
  Z"
/>
<path d="
  M 849.63 616.81
  L 860.31 615.86
  A 1.13 1.13 0.0 0 1 861.54 616.98
  L 861.54 641.59
  A 1.13 1.13 0.0 0 1 860.51 642.71
  L 849.83 643.66
  A 1.13 1.13 0.0 0 1 848.60 642.54
  L 848.60 617.93
  A 1.13 1.13 0.0 0 1 849.63 616.81
  Z"
/>
<path d="
  M 849.24 651.10
  L 861.92 651.10
  A 0.30 0.30 0.0 0 1 862.22 651.41
  L 861.78 675.93
  A 0.30 0.30 0.0 0 1 861.51 676.22
  L 849.27 677.32
  A 0.30 0.30 0.0 0 1 848.94 677.02
  L 848.94 651.40
  A 0.30 0.30 0.0 0 1 849.24 651.10
  Z"
/>
<path d="
  M 179.12 659.97
  A 0.40 0.40 0.0 0 1 178.34 660.09
  L 175.97 652.67
  A 0.85 0.84 -8.8 0 1 176.78 651.57
  L 177.86 651.57
  A 1.26 1.26 0.0 0 1 179.12 652.83
  L 179.12 659.97
  Z"
/>
<path d="
  M 849.39 685.35
  L 861.16 684.29
  A 0.78 0.78 0.0 0 1 862.01 685.08
  L 861.43 717.45
  A 0.78 0.78 0.0 0 1 860.65 718.22
  L 849.46 718.22
  A 0.78 0.78 0.0 0 1 848.68 717.44
  L 848.68 686.12
  A 0.78 0.78 0.0 0 1 849.39 685.35
  Z"
/>
<path d="
  M 768.81 686.15
  Q 793.36 685.36 827.65 685.76
  C 830.24 685.79 833.22 685.37 835.84 685.30
  A 1.22 1.21 -0.7 0 1 837.09 686.51
  L 837.09 717.47
  A 0.55 0.55 0.0 0 1 836.54 718.02
  L 768.36 718.02
  A 1.19 1.18 -89.5 0 1 767.18 716.81
  L 767.70 687.27
  A 1.15 1.14 -0.5 0 1 768.81 686.15
  Z"
/>
<path d="
  M 181.18 717.12
  A 0.83 0.83 0.0 0 1 180.35 717.91
  L 171.47 717.91
  A 0.86 0.86 0.0 0 1 170.61 717.00
  Q 170.78 714.17 170.91 704.04
  Q 170.92 703.36 171.61 700.43
  Q 171.98 698.87 172.95 697.03
  Q 176.13 691.04 177.92 686.37
  A 0.84 0.83 9.8 0 1 178.69 685.83
  Q 179.95 685.80 179.93 687.28
  Q 179.89 690.52 180.13 706.49
  Q 180.18 709.70 180.53 711.86
  Q 181.22 716.09 181.18 717.12
  Z"
/>
<path d="
  M 351.36 686.50
  C 350.23 688.55 347.40 688.99 343.51 690.22
  Q 341.80 690.76 341.77 693.51
  Q 341.76 694.82 341.53 717.27
  A 0.83 0.83 0.0 0 1 340.70 718.09
  L 272.21 718.09
  A 1.20 1.19 0.5 0 1 271.01 716.88
  L 271.54 686.95
  A 1.01 1.01 0.0 0 1 272.55 685.96
  L 351.04 685.96
  A 0.36 0.36 0.0 0 1 351.36 686.50
  Z"
/>
<path d="
  M 756.29 717.43
  A 0.62 0.62 0.0 0 1 755.67 718.06
  L 678.57 718.06
  A 0.92 0.91 89.4 0 1 677.66 717.16
  L 677.34 692.77
  A 2.87 2.87 0.0 0 0 675.46 690.12
  L 669.51 687.95
  A 1.04 1.04 0.0 0 1 669.87 685.94
  L 755.25 685.94
  A 0.63 0.62 -0.5 0 1 755.88 686.55
  L 756.29 717.43
  Z"
/>
<path d="
  M 260.94 687.26
  L 260.94 716.73
  A 1.31 1.31 0.0 0 1 259.63 718.04
  L 194.36 718.04
  A 1.31 1.31 0.0 0 1 193.05 716.73
  L 193.05 687.26
  A 1.31 1.31 0.0 0 1 194.36 685.95
  L 259.63 685.95
  A 1.31 1.31 0.0 0 1 260.94 687.26
  Z"
/>
<path d="
  M 394.87 763.21
  Q 391.22 762.37 387.40 762.42
  C 381.23 762.51 374.12 762.17 368.69 764.24
  A 0.84 0.82 82.7 0 0 368.16 764.94
  L 367.55 772.65
  A 1.30 1.30 0.0 0 0 368.80 774.05
  L 384.13 774.64
  Q 378.18 778.57 375.40 782.41
  Q 373.70 784.77 371.00 789.38
  A 4.21 4.08 -7.2 0 1 370.20 790.38
  C 367.13 793.23 365.54 793.93 361.02 796.22
  Q 360.12 796.68 357.71 799.34
  A 1.92 1.87 74.3 0 0 357.28 800.13
  C 355.87 805.52 356.99 810.47 356.64 816.04
  C 356.33 821.02 358.31 826.20 361.92 830.33
  Q 370.05 839.65 378.03 846.72
  C 379.49 848.01 382.62 848.51 384.78 848.48
  Q 407.53 848.16 420.01 847.82
  C 424.57 847.69 429.79 842.82 432.37 839.36
  Q 436.13 834.31 440.69 830.73
  C 442.69 829.16 443.37 826.23 443.18 823.20
  Q 443.03 820.59 443.48 816.67
  A 0.05 0.05 0.0 0 1 443.58 816.67
  C 444.25 820.95 444.08 825.08 444.33 832.41
  Q 444.59 840.11 444.58 844.59
  Q 444.51 873.70 444.80 901.93
  A 0.76 0.76 0.0 0 1 444.04 902.70
  L 411.33 902.70
  A 0.85 0.84 -87.8 0 1 410.49 901.79
  Q 411.26 892.14 412.54 884.54
  C 413.15 880.88 411.88 879.39 407.95 879.34
  Q 401.75 879.26 387.73 879.08
  Q 384.35 879.03 384.14 882.53
  Q 383.13 899.55 382.90 901.65
  A 1.39 1.38 3.8 0 1 381.49 902.88
  L 368.44 902.65
  A 1.08 1.07 1.3 0 1 367.38 901.55
  Q 367.43 898.86 367.20 894.02
  C 366.95 888.92 364.34 887.34 359.28 887.22
  Q 352.42 887.06 350.69 887.06
  C 347.00 887.05 344.38 886.41 341.00 886.27
  Q 317.78 885.29 307.37 885.67
  Q 296.36 886.07 294.81 886.03
  Q 288.68 885.85 286.69 886.19
  Q 283.18 886.78 278.59 886.90
  C 274.44 887.02 271.58 888.53 271.29 892.77
  Q 271.02 896.77 271.23 901.41
  A 1.11 1.11 0.0 0 1 270.12 902.57
  L 264.32 902.57
  A 1.32 1.32 0.0 0 1 263.01 901.40
  L 260.89 882.16
  A 2.90 2.89 12.8 0 0 259.55 880.04
  Q 258.70 879.51 256.00 879.41
  Q 248.46 879.11 236.82 879.61
  C 232.41 879.80 231.23 884.23 231.94 887.78
  Q 233.36 894.88 234.45 901.55
  A 0.79 0.79 0.0 0 1 233.67 902.46
  L 227.48 902.46
  A 1.00 1.00 0.0 0 1 226.48 901.46
  L 226.48 887.92
  A 1.93 1.93 0.0 0 0 224.56 885.99
  Q 217.98 885.99 210.22 885.73
  Q 206.19 885.60 206.15 889.72
  Q 206.13 891.39 206.13 901.47
  A 1.22 1.21 90.0 0 1 204.92 902.69
  L 169.31 902.69
  A 1.22 1.22 0.0 0 1 168.09 901.47
  L 168.09 836.98
  A 0.44 0.43 26.3 0 1 168.87 836.72
  Q 172.48 841.36 176.99 844.83
  Q 178.70 846.15 181.29 846.22
  Q 194.00 846.58 222.53 846.46
  C 231.69 846.43 238.44 834.82 242.17 827.94
  A 3.26 3.26 0.0 0 1 243.70 826.50
  L 251.69 822.86
  Q 252.48 826.24 252.42 828.26
  Q 251.88 844.18 251.88 859.85
  A 1.08 1.08 0.0 0 0 252.96 860.93
  L 277.44 860.93
  A 0.37 0.37 0.0 0 0 277.81 860.56
  L 277.81 810.25
  A 1.61 1.60 89.8 0 0 276.20 808.64
  L 255.45 808.71
  L 252.74 801.34
  L 276.29 801.23
  A 1.56 1.56 0.0 0 0 277.84 799.67
  L 277.84 772.36
  A 1.55 1.55 0.0 0 0 276.29 770.81
  L 252.84 770.81
  A 1.16 1.16 0.0 0 0 251.68 771.97
  L 251.58 795.82
  Q 244.58 789.53 237.70 784.56
  Q 237.28 784.26 236.98 783.34
  L 236.69 781.62
  A 0.76 0.74 70.2 0 1 237.05 780.84
  Q 240.41 778.87 244.91 778.94
  A 2.30 2.30 0.0 0 0 247.25 776.64
  L 247.25 768.04
  A 1.15 1.15 0.0 0 0 246.10 766.89
  L 237.55 766.89
  A 2.59 2.58 -89.2 0 0 234.97 769.41
  Q 234.87 773.25 231.54 775.08
  Q 226.55 772.69 220.97 773.76
  A 2.68 2.65 -26.6 0 1 218.51 772.96
  L 215.79 770.03
  Q 215.13 768.35 215.82 767.05
  A 0.85 0.84 15.5 0 1 216.59 766.62
  Q 221.43 766.86 221.84 761.77
  Q 222.22 757.13 222.68 752.63
  L 350.71 752.22
  A 2.02 2.01 -13.5 0 1 352.50 753.31
  Q 355.76 759.71 363.54 759.87
  Q 390.20 760.42 395.05 759.90
  A 0.80 0.79 -0.6 0 1 395.94 760.76
  Q 395.84 761.93 394.87 763.21
  Z"
/>
<path d="
  M 802.24 773.61
  Q 800.34 768.67 800.41 763.63
  A 1.32 1.31 -88.4 0 0 799.15 762.29
  Q 788.98 761.84 778.52 761.92
  Q 776.84 761.93 775.57 763.48
  A 1.25 1.24 65.6 0 0 775.29 764.24
  L 775.16 771.66
  A 1.28 1.28 0.0 0 0 776.23 772.95
  L 789.33 775.15
  C 786.62 777.50 786.25 779.50 785.56 782.72
  A 3.49 3.46 84.0 0 1 783.61 785.15
  Q 778.50 787.49 775.02 791.82
  A 4.17 4.10 74.6 0 0 774.37 792.99
  C 773.45 795.52 773.52 799.73 771.39 801.67
  C 766.97 805.70 767.56 808.11 767.12 813.63
  C 766.76 818.18 771.17 823.09 774.71 825.06
  C 776.98 826.33 778.69 826.91 780.53 829.60
  C 784.59 835.55 791.52 846.43 799.50 846.80
  C 811.39 847.35 826.53 846.18 837.01 846.58
  Q 842.37 846.78 846.32 843.37
  Q 851.37 839.01 855.00 833.08
  A 1.76 1.64 88.1 0 1 855.43 832.59
  Q 856.50 831.74 858.16 831.91
  A 1.02 1.02 0.0 0 1 859.07 832.97
  C 858.57 847.58 859.59 866.07 859.44 881.69
  Q 859.31 894.27 859.03 901.03
  A 1.21 1.20 89.2 0 1 857.91 902.19
  C 848.59 902.80 839.68 902.50 829.72 902.58
  Q 794.31 902.86 758.90 902.75
  C 697.54 902.57 657.50 902.75 599.00 902.75
  Q 582.74 902.75 576.31 902.67
  A 1.31 1.30 -89.8 0 1 575.03 901.37
  C 574.94 883.45 575.16 871.36 574.79 854.69
  Q 574.57 844.93 575.42 831.57
  A 0.56 0.56 0.0 0 1 576.43 831.26
  Q 580.23 836.18 583.99 839.72
  C 588.30 843.78 591.74 849.22 598.25 849.42
  Q 604.09 849.60 610.26 849.34
  C 619.39 848.95 627.21 849.18 635.22 848.62
  A 4.15 3.99 -60.1 0 0 636.87 848.14
  C 640.54 846.18 644.24 842.72 646.68 839.49
  Q 649.00 836.44 651.35 834.51
  Q 654.29 832.11 657.47 827.98
  C 659.21 825.72 659.78 822.92 659.61 819.48
  Q 659.44 815.87 661.00 812.42
  C 663.25 807.42 664.00 800.84 660.00 796.68
  C 658.12 794.73 655.26 793.81 651.78 792.17
  A 8.04 7.97 78.0 0 1 649.86 790.91
  Q 648.37 789.59 647.77 788.90
  C 641.69 782.02 637.51 776.64 631.00 772.95
  Q 633.45 771.80 634.52 771.94
  Q 637.31 772.29 638.30 769.78
  A 0.78 0.71 60.9 0 0 638.35 769.57
  L 639.47 759.89
  Q 645.48 760.10 651.50 760.15
  Q 658.22 760.21 664.46 758.54
  Q 707.78 760.41 751.08 758.63
  C 755.07 758.47 756.71 756.86 759.87 754.80
  Q 761.36 753.83 765.85 753.83
  Q 784.72 753.84 803.53 752.35
  L 813.11 752.35
  A 1.35 1.35 0.0 0 1 814.42 754.03
  Q 813.77 756.55 813.10 758.99
  Q 813.08 759.07 812.17 763.59
  Q 810.64 771.17 802.24 773.61
  Z"
/>
<path d="
  M 828.80 769.45
  L 836.22 769.01
  A 2.01 2.00 -8.4 0 0 838.05 766.56
  Q 836.50 759.91 836.43 752.43
  L 857.71 752.40
  A 0.92 0.91 89.7 0 1 858.63 753.32
  L 858.63 793.05
  A 0.53 0.52 -39.1 0 1 857.79 793.47
  L 850.48 788.04
  A 6.51 6.13 86.5 0 1 849.46 787.08
  Q 849.26 786.84 844.53 779.77
  C 842.01 776.01 838.45 774.79 833.36 773.41
  Q 831.22 772.83 828.80 769.45
  Z"
/>
<path d="
  M 584.22 759.81
  L 584.89 772.22
  A 1.27 1.26 0.8 0 0 586.05 773.41
  Q 590.81 773.80 595.11 776.28
  Q 589.34 781.87 585.71 788.66
  A 3.44 3.41 3.3 0 1 583.91 790.25
  C 580.67 791.52 578.04 792.51 575.77 795.72
  A 0.63 0.63 0.0 0 1 574.63 795.36
  C 574.63 791.67 574.43 788.22 574.68 785.21
  Q 575.26 778.17 574.51 771.18
  A 1.41 1.38 -70.9 0 0 574.11 770.33
  Q 573.04 769.25 571.00 769.21
  C 562.57 769.07 548.88 768.77 538.68 768.91
  Q 525.74 769.10 520.42 768.90
  Q 515.37 768.72 512.08 769.00
  C 508.71 769.28 504.84 768.78 500.98 768.81
  Q 489.91 768.91 481.41 768.80
  Q 477.01 768.74 472.58 769.06
  C 469.09 769.32 465.18 768.86 460.81 769.02
  Q 457.28 769.15 446.17 769.26
  A 2.54 2.54 0.0 0 0 443.65 771.76
  L 443.19 797.53
  A 0.57 0.56 -72.5 0 1 442.31 797.99
  C 435.87 793.65 430.03 789.08 425.50 782.74
  Q 422.85 779.04 415.78 775.49
  L 420.53 772.96
  A 1.58 1.57 -18.6 0 0 421.35 771.32
  Q 420.46 765.76 421.20 759.75
  L 584.22 759.81
  Z"
/>
<path d="
  M 189.73 771.22
  C 183.24 772.32 178.91 778.13 176.85 784.24
  A 1.26 1.25 87.9 0 1 176.17 784.98
  C 173.70 786.05 171.90 786.29 169.51 787.93
  A 0.77 0.77 0.0 0 1 168.31 787.30
  L 168.15 770.39
  Q 179.53 768.23 191.04 769.93
  A 0.42 0.41 19.3 0 1 191.34 770.55
  Q 190.96 771.19 189.73 771.22
  Z"
/>
<path d="
  M 839.55 787.46
  A 1.98 1.98 0.0 0 1 839.46 789.02
  Q 837.84 792.32 833.59 794.08
  A 1.89 1.86 -46.7 0 1 832.28 794.13
  Q 828.65 792.94 827.08 789.54
  C 825.48 786.08 828.50 782.94 831.80 782.21
  Q 837.25 781.00 839.55 787.46
  Z"
/>
<path d="
  M 194.08 794.97
  A 1.55 1.54 86.9 0 1 195.08 793.85
  Q 197.56 793.01 199.21 790.77
  C 201.45 787.73 204.35 786.47 207.97 787.25
  C 211.15 787.93 210.97 791.90 213.70 793.39
  C 216.76 795.06 216.91 798.50 215.75 801.32
  A 1.42 1.39 83.5 0 1 215.29 801.91
  L 207.69 807.64
  Q 207.63 807.68 207.57 807.72
  C 202.46 810.22 202.07 805.29 198.23 804.19
  C 194.16 803.03 193.27 798.61 194.08 794.97
  Z"
/>
<path d="
  M 826.24 795.98
  C 828.22 798.32 828.59 802.45 825.05 803.80
  Q 822.52 804.76 820.79 807.78
  A 2.05 2.04 4.4 0 1 819.76 808.66
  Q 817.65 809.49 815.11 808.90
  A 1.72 1.69 76.1 0 1 814.25 808.37
  C 811.39 805.07 804.44 803.14 806.49 796.79
  Q 807.04 795.12 809.56 793.70
  C 811.68 792.51 812.79 789.66 814.84 788.88
  C 818.03 787.66 820.27 788.48 822.46 791.37
  Q 823.52 792.76 826.24 795.98
  Z"
/>
<ellipse cx="0.00" cy="0.00" transform="translate(627.50,801.21) rotate(-143.9)" rx="4.79" ry="4.25"/>
<path d="
  M 617.74 803.64
  C 619.75 805.19 623.39 808.97 621.93 811.68
  C 619.71 815.78 615.66 819.52 610.49 817.63
  Q 608.64 816.95 607.91 816.40
  Q 607.19 815.84 606.06 814.22
  C 602.91 809.70 605.49 804.83 608.89 801.64
  C 611.13 799.53 615.73 802.09 617.74 803.64
  Z"
/>
<path d="
  M 436.66 812.33
  Q 434.82 812.30 431.03 809.72
  C 427.28 807.16 437.54 798.27 442.12 805.67
  A 3.04 3.00 48.6 0 1 441.92 809.14
  Q 440.46 810.96 437.76 812.11
  A 2.69 2.60 -55.4 0 1 436.66 812.33
  Z"
/>
<path d="
  M 405.27 811.73
  C 405.06 813.34 402.08 815.74 400.71 816.74
  C 399.19 817.85 397.94 818.55 396.04 817.79
  Q 394.06 816.99 391.53 816.88
  A 3.63 3.62 80.5 0 1 388.31 814.58
  Q 387.43 812.33 387.78 809.53
  Q 388.14 806.73 389.55 804.77
  A 3.63 3.62 -66.1 0 1 393.24 803.34
  Q 395.72 803.86 397.83 803.58
  C 399.86 803.31 400.90 804.30 402.10 805.76
  C 403.17 807.07 405.47 810.12 405.27 811.73
  Z"
/>
<path d="
  M 413.96 815.73
  A 1.91 1.54 44.2 0 1 416.30 815.95
  C 420.98 820.19 420.72 824.07 414.79 826.53
  C 409.47 828.74 400.99 820.51 408.81 816.35
  A 1.54 1.52 41.6 0 1 410.11 816.28
  Q 412.36 817.19 413.96 815.73
  Z"
/>
<path d="
  M 256.45 920.48
  Q 275.02 921.11 293.56 920.19
  A 1.37 1.36 4.4 0 1 294.97 921.83
  L 293.42 929.36
  A 2.25 2.25 0.0 0 1 291.38 931.14
  Q 273.40 932.35 256.15 930.86
  A 4.73 4.37 53.6 0 1 255.26 930.69
  C 252.31 929.84 249.78 929.79 247.58 927.28
  Q 251.64 921.96 256.45 920.48
  Z"
/>
<path d="
  M 654.87 931.33
  L 652.01 934.11
  Q 649.02 935.22 646.96 937.59
  A 1.07 1.07 0.0 0 1 645.64 937.83
  Q 642.81 936.31 639.94 934.37
  Q 637.36 932.62 638.53 929.81
  Q 640.67 924.65 643.53 923.02
  Q 647.52 920.74 650.52 924.52
  Q 653.11 927.78 654.87 931.33
  Z"
/>
<path d="
  M 153.76 931.99
  L 151.16 935.87
  Q 145.85 940.10 141.43 934.39
  Q 140.37 933.02 141.07 931.25
  Q 142.73 927.00 147.76 926.41
  C 150.66 926.07 152.65 929.40 153.76 931.99
  Z"
/>
<path d="
  M 817.05 932.29
  L 814.49 936.07
  Q 810.75 936.21 807.24 937.64
  A 2.16 2.10 -52.6 0 1 806.23 937.79
  Q 802.55 937.39 799.34 935.94
  A 2.48 1.85 53.3 0 0 798.94 935.82
  L 795.98 935.28
  A 1.89 1.89 0.0 0 1 794.46 933.07
  Q 795.42 927.89 800.55 926.90
  Q 808.77 925.32 813.36 930.79
  Q 814.07 931.64 815.06 932.01
  Q 816.09 932.38 817.05 932.29
  Z"
/>
<path d="
  M 263.61 937.75
  Q 263.54 933.91 259.03 933.19
  A 0.99 0.99 0.0 0 0 257.91 934.39
  Q 258.42 936.70 260.80 938.64
  L 233.58 938.23
  A 3.07 2.96 84.1 0 1 230.72 935.82
  Q 230.42 934.48 228.92 932.69
  A 1.00 0.99 71.1 0 1 229.72 931.05
  L 259.30 932.31
  A 0.20 0.17 49.7 0 1 259.36 932.32
  L 267.72 934.04
  A 3.69 3.69 0.0 0 0 269.24 934.04
  Q 270.63 933.74 272.04 934.11
  A 0.51 0.51 0.0 0 1 272.20 935.01
  Q 270.68 936.10 268.94 935.87
  A 2.09 1.97 -50.9 0 0 267.90 936.01
  L 263.61 937.75
  Z"
/>
<path d="
  M 733.93 952.90
  A 1.19 1.19 0.0 0 1 734.72 954.15
  Q 734.06 960.37 730.90 965.23
  A 2.76 2.74 18.8 0 1 728.38 966.46
  Q 718.42 965.64 710.04 965.77
  C 697.61 965.96 687.07 965.56 675.34 965.72
  Q 659.06 965.94 642.75 966.01
  Q 626.15 966.08 608.65 965.89
  A 2.10 2.09 -12.9 0 1 606.79 964.73
  Q 604.33 959.72 604.06 954.28
  A 1.06 1.03 70.8 0 1 604.48 953.38
  Q 605.93 952.29 608.51 952.36
  C 617.11 952.59 626.51 951.92 635.17 952.04
  Q 683.60 952.70 728.75 952.16
  Q 731.65 952.13 733.93 952.90
  Z"
/>
<path d="
  M 227.37 965.15
  A 1.46 1.44 6.5 0 1 226.13 966.12
  Q 221.46 966.53 215.23 966.19
  Q 209.92 965.91 207.28 966.11
  C 203.79 966.38 200.25 965.85 196.65 965.81
  C 184.80 965.66 170.39 966.06 160.56 965.81
  Q 149.28 965.52 141.88 965.78
  Q 136.85 965.96 117.75 965.87
  Q 115.84 965.86 111.02 966.39
  Q 107.72 966.76 106.70 963.54
  Q 105.81 960.70 104.93 954.32
  A 1.15 1.14 -9.4 0 1 105.85 953.05
  Q 108.52 952.54 111.50 952.53
  Q 193.29 952.30 226.86 952.43
  Q 228.50 952.43 229.94 952.85
  A 2.20 2.19 16.9 0 1 231.42 955.61
  Q 230.48 958.66 228.50 961.96
  A 3.20 2.68 -26.0 0 0 228.30 962.41
  L 227.37 965.15
  Z"
/>
<path d="
  M 837.36 952.37
  C 849.39 952.38 858.38 952.58 869.71 952.44
  Q 893.91 952.16 915.09 952.98
  A 1.77 1.77 0.0 0 1 916.79 954.86
  Q 916.47 960.33 914.34 964.85
  A 2.93 2.92 14.6 0 1 911.49 966.52
  C 897.77 965.60 881.27 966.17 869.13 965.81
  C 858.99 965.50 848.07 965.72 837.35 965.71
  C 826.63 965.70 815.71 965.48 805.57 965.77
  C 793.43 966.12 776.93 965.53 763.21 966.43
  A 2.93 2.92 -14.5 0 1 760.36 964.76
  Q 758.24 960.24 757.92 954.77
  A 1.77 1.77 0.0 0 1 759.63 952.89
  Q 780.81 952.09 805.00 952.41
  C 816.34 952.55 825.33 952.37 837.36 952.37
  Z"
/>
<path d="
  M 109.30 984.85
  A 1.79 1.79 0.0 0 1 107.51 983.06
  L 107.51 973.55
  A 2.32 0.57 90.0 0 1 108.08 971.23
  L 226.98 971.23
  A 2.32 0.57 90.0 0 1 227.55 973.55
  L 227.55 983.06
  A 1.79 1.79 0.0 0 1 225.76 984.85
  L 109.30 984.85
  Z"
/>
<rect x="760.93" y="971.23" width="153.16" height="13.58" rx="1.18"/>
<rect x="-61.45" y="-6.74" transform="translate(669.04,978.08) rotate(0.1)" width="122.90" height="13.48" rx="1.45"/>
</g>
<g fill="#fed93f">
<path d="
  M 545.68 623.26
  L 530.14 623.38
  A 0.78 0.78 0.0 0 1 529.35 622.60
  L 529.19 597.30
  L 551.85 596.85
  A 0.89 0.88 -0.3 0 1 552.75 597.73
  L 552.75 622.58
  A 0.59 0.59 0.0 0 1 552.17 623.17
  L 545.68 623.26
  Z"
/>
<path d="
  M 521.91 597.27
  L 522.33 622.84
  A 0.88 0.88 0.0 0 1 521.46 623.74
  L 496.66 624.07
  A 0.82 0.82 0.0 0 1 495.83 623.26
  L 495.49 598.34
  A 0.78 0.77 89.3 0 1 496.25 597.55
  L 510.82 597.33
  L 521.91 597.27
  Z"
/>
<path d="
  M 107.38 632.21
  L 107.97 631.62
  A 2.50 2.50 0.0 0 1 109.03 630.99
  Q 119.96 627.77 125.67 627.69
  Q 151.39 627.32 165.85 648.87
  Q 170.40 655.65 171.68 664.27
  Q 171.70 664.40 172.62 672.59
  A 9.99 9.72 48.1 0 1 172.50 675.52
  Q 170.86 683.96 168.97 688.04
  Q 160.57 706.16 142.47 712.69
  Q 135.39 715.25 128.70 715.37
  C 116.37 715.59 106.33 712.10 97.22 703.75
  C 88.96 696.17 83.14 688.12 81.75 677.38
  Q 79.76 662.02 87.26 649.81
  Q 91.98 642.13 97.22 638.23
  Q 98.70 637.13 103.11 633.91
  A 3.43 3.43 0.0 0 1 104.37 633.33
  L 106.03 632.96
  A 2.82 2.78 -73.7 0 0 107.38 632.21
  Z"
/>
<path d="
  M 551.54 629.89
  Q 552.69 630.31 552.65 632.01
  Q 552.49 639.24 552.66 656.40
  A 0.77 0.76 -11.8 0 1 552.20 657.10
  Q 549.45 658.31 547.64 658.41
  Q 543.41 658.65 532.15 658.50
  Q 530.41 658.93 529.41 658.15
  A 0.74 0.73 -71.2 0 1 529.13 657.57
  L 529.60 631.29
  A 0.82 0.81 -0.4 0 1 530.40 630.49
  L 551.54 629.89
  Z"
/>
<path d="
  M 669.36 696.45
  Q 668.71 716.44 669.50 738.64
  A 0.74 0.73 87.2 0 1 668.81 739.41
  C 664.34 739.65 660.00 739.52 658.20 744.59
  C 657.53 746.47 658.18 748.57 658.20 750.29
  A 1.14 1.14 0.0 0 1 657.06 751.45
  L 361.47 751.45
  A 0.58 0.58 0.0 0 1 360.89 750.87
  Q 360.87 747.05 360.72 745.54
  C 360.17 739.84 355.09 739.47 350.59 739.58
  A 1.22 1.21 -0.7 0 1 349.34 738.37
  L 349.34 696.47
  A 1.04 1.03 -0.9 0 1 350.35 695.44
  C 354.76 695.35 358.60 694.35 360.40 690.15
  C 361.12 688.47 360.97 686.18 361.21 684.58
  A 1.43 1.42 4.5 0 1 362.62 683.38
  L 656.56 683.38
  A 0.66 0.66 0.0 0 1 657.22 683.97
  C 657.66 688.59 657.80 690.80 660.62 693.70
  C 662.94 696.09 666.05 695.29 668.79 695.75
  A 0.69 0.68 -84.2 0 1 669.36 696.45
  Z"
/>
<path d="
  M 892.03 775.47
  Q 892.04 775.47 894.25 777.01
  Q 895.79 778.09 895.31 780.54
  Q 894.48 784.80 890.56 786.85
  A 1.98 1.90 29.5 0 1 889.70 787.07
  L 877.83 787.29
  A 0.55 0.55 0.0 0 1 877.27 786.74
  L 877.27 765.38
  A 0.95 0.95 0.0 0 1 878.21 764.43
  C 883.11 764.36 897.40 762.89 894.07 772.32
  Q 893.83 772.99 892.11 774.58
  A 0.67 0.67 0.0 0 0 892.03 775.47
  Z"
/>
<path d="
  M 935.94 779.96
  L 932.67 785.08
  C 931.41 782.65 930.26 778.63 926.99 778.63
  A 0.47 0.47 0.0 0 0 926.52 779.10
  L 926.52 786.04
  A 1.08 1.07 -90.0 0 1 925.45 787.12
  L 921.06 787.12
  A 0.59 0.59 0.0 0 1 920.48 786.44
  Q 921.84 777.42 920.68 765.31
  A 0.76 0.75 87.2 0 1 921.43 764.48
  L 933.18 764.48
  A 1.23 1.23 0.0 0 1 933.73 764.61
  C 938.81 767.21 939.26 773.98 934.40 776.87
  A 0.55 0.55 0.0 0 0 934.39 777.80
  Q 935.56 778.53 935.94 779.96
  Z"
/>
<path d="
  M 912.36 786.28
  L 911.26 782.82
  A 1.74 1.74 0.0 0 0 909.63 781.61
  L 903.59 781.50
  A 0.87 0.86 6.0 0 0 902.73 782.19
  L 902.04 785.52
  A 1.79 1.79 0.0 0 1 900.25 786.95
  L 897.16 786.90
  A 0.97 0.96 10.6 0 1 896.27 785.61
  L 903.56 765.69
  A 1.06 1.03 1.5 0 1 904.25 765.05
  Q 906.97 764.25 909.84 764.99
  A 1.35 1.34 4.1 0 1 910.85 766.15
  C 911.35 770.67 914.72 775.70 915.93 779.91
  Q 916.69 782.56 918.51 786.08
  A 0.51 0.51 0.0 0 1 918.06 786.83
  L 913.21 786.89
  A 0.88 0.88 0.0 0 1 912.36 786.28
  Z"
/>
<path d="
  M 252.74 801.34
  Q 251.14 799.92 251.58 795.82
  L 251.68 771.97
  A 1.16 1.16 0.0 0 1 252.84 770.81
  L 276.29 770.81
  A 1.55 1.55 0.0 0 1 277.84 772.36
  L 277.84 799.67
  A 1.56 1.56 0.0 0 1 276.29 801.23
  L 252.74 801.34
  Z"
/>
<path d="
  M 603.24 793.74
  L 601.11 792.41
  Q 599.40 791.37 597.31 791.46
  C 593.83 791.61 593.48 789.02 595.08 786.53
  C 598.48 781.24 601.78 777.70 607.52 775.65
  C 614.10 773.29 610.99 783.24 609.89 785.06
  C 608.02 788.17 608.96 794.45 603.24 793.74
  Z"
/>
<path d="
  M 626.83 785.98
  Q 626.85 786.08 627.18 788.30
  C 627.92 793.31 622.00 793.91 618.47 793.61
  A 1.75 1.65 -26.2 0 1 617.75 793.39
  Q 615.45 792.05 615.37 788.86
  Q 615.21 782.32 615.54 778.47
  A 1.73 1.70 69.9 0 1 616.02 777.41
  Q 617.24 776.18 619.08 775.99
  A 2.14 2.09 -29.3 0 1 620.57 776.39
  L 623.14 778.31
  A 0.39 0.39 0.0 0 0 623.76 778.03
  L 623.79 777.61
  A 1.52 1.52 0.0 0 1 626.04 776.40
  Q 633.27 780.37 637.81 786.45
  A 1.34 1.34 0.0 0 1 637.03 788.56
  L 633.43 789.37
  A 3.21 3.19 -29.2 0 1 630.50 788.55
  L 627.49 785.64
  A 0.39 0.39 0.0 0 0 626.83 785.98
  Z"
/>
<path d="
  M 385.31 795.39
  C 382.42 794.15 376.42 794.40 379.17 788.91
  Q 383.56 780.16 393.13 778.37
  A 1.49 1.49 0.0 0 1 394.89 779.70
  Q 395.10 781.98 394.08 783.86
  Q 391.64 788.36 390.74 791.50
  Q 390.02 794.03 386.42 795.41
  A 1.45 1.45 0.0 0 1 385.31 795.39
  Z"
/>
<path d="
  M 422.96 790.63
  A 0.38 0.38 0.0 0 1 422.67 791.13
  Q 420.32 791.52 416.28 792.44
  Q 414.31 792.88 413.23 790.74
  Q 410.40 785.11 409.05 779.50
  A 0.82 0.82 0.0 0 1 410.10 778.53
  Q 419.64 781.69 422.96 790.63
  Z"
/>
<path d="
  M 402.73 779.25
  C 405.99 782.11 406.63 788.83 406.77 793.18
  A 1.82 1.81 -24.0 0 1 406.25 794.52
  C 402.63 798.20 392.22 798.62 394.18 790.08
  C 395.42 784.68 393.73 779.05 401.87 778.93
  A 1.27 1.24 64.9 0 1 402.73 779.25
  Z"
/>
<path d="
  M 413.29 804.55
  L 413.54 800.56
  Q 413.65 799.57 413.20 798.72
  Q 414.07 796.74 415.59 795.27
  A 1.50 1.46 -69.9 0 1 416.44 794.86
  C 421.05 794.26 425.86 794.64 427.17 799.79
  C 428.14 803.61 425.37 806.82 422.22 808.16
  Q 417.92 809.99 413.29 804.55
  Z"
/>
<path d="
  M 592.16 808.82
  Q 590.21 810.97 587.01 813.08
  A 2.29 2.27 -59.6 0 1 585.61 813.45
  Q 583.34 813.29 580.42 811.58
  C 576.02 809.00 576.59 805.23 578.94 801.46
  C 581.13 797.93 584.46 797.09 588.23 799.42
  C 590.44 800.79 594.16 806.62 592.16 808.82
  Z"
/>
<path d="
  M 647.12 800.88
  Q 647.48 800.68 647.70 800.29
  L 652.09 799.33
  A 1.26 1.24 57.4 0 1 653.11 799.56
  C 655.91 801.67 658.35 806.13 655.81 809.29
  Q 652.93 812.89 648.60 811.72
  C 645.49 810.88 641.60 807.17 644.85 804.12
  Q 646.28 802.77 647.12 800.88
  Z"
/>
<rect x="-6.48" y="-6.71" transform="translate(368.81,806.52) rotate(-38.7)" width="12.96" height="13.42" rx="5.93"/>
<ellipse cx="0.00" cy="0.00" transform="translate(193.09,813.45) rotate(-12.4)" rx="6.99" ry="6.73"/>
<path d="
  M 251.69 822.86
  L 254.74 817.73
  A 5.07 5.00 -29.8 0 0 255.46 815.14
  L 255.45 808.71
  L 276.20 808.64
  A 1.61 1.60 89.8 0 1 277.81 810.25
  L 277.81 860.56
  A 0.37 0.37 0.0 0 1 277.44 860.93
  L 252.96 860.93
  A 1.08 1.08 0.0 0 1 251.88 859.85
  Q 251.88 844.18 252.42 828.26
  Q 252.48 826.24 251.69 822.86
  Z"
/>
<path d="
  M 640.73 816.26
  Q 644.28 817.45 645.10 820.61
  Q 646.61 826.46 641.15 828.89
  C 638.66 830.00 635.60 826.88 634.53 825.12
  Q 633.78 821.65 637.19 820.34
  A 2.16 2.12 7.7 0 0 638.14 819.63
  L 640.73 816.26
  Z"
/>
<path d="
  M 593.20 822.84
  Q 593.63 824.93 596.27 825.31
  A 1.43 1.40 36.6 0 0 597.09 825.20
  Q 598.64 824.51 599.80 825.23
  Q 598.06 827.96 595.03 830.26
  A 2.54 2.53 43.5 0 1 592.07 830.33
  C 590.35 829.14 587.85 827.36 587.52 824.95
  Q 586.86 820.17 590.66 817.85
  A 1.18 1.18 0.0 0 1 592.43 818.65
  L 593.20 822.84
  Z"
/>
<path d="
  M 375.94 818.06
  Q 375.51 823.20 372.15 827.73
  Q 368.08 820.65 375.94 818.06
  Z"
/>
<rect x="-4.57" y="-3.94" transform="translate(388.82,823.81) rotate(-44.3)" width="9.14" height="7.88" rx="3.60"/>
<path d="
  M 864.42 930.00
  Q 865.05 932.15 864.19 933.42
  Q 859.69 940.03 851.81 937.82
  A 4.37 4.27 51.4 0 0 850.51 937.66
  C 845.82 937.77 842.50 934.40 844.10 929.66
  C 844.81 927.55 845.33 926.34 847.13 925.22
  Q 848.58 924.31 849.12 923.72
  A 1.28 1.25 21.9 0 1 850.13 923.30
  C 856.94 923.53 858.71 924.68 863.89 929.17
  A 1.84 1.82 -77.8 0 1 864.42 930.00
  Z"
/>
<path d="
  M 180.53 937.76
  L 178.86 937.16
  C 177.09 936.72 174.96 936.88 173.57 935.81
  C 169.26 932.48 169.59 925.40 175.36 923.57
  A 1.34 1.14 33.6 0 1 175.78 923.52
  L 181.49 923.76
  A 1.07 1.03 -23.1 0 1 182.09 923.99
  C 184.89 926.31 187.10 930.37 185.78 933.95
  Q 185.45 934.85 183.29 935.94
  Q 181.82 936.69 180.53 937.76
  Z"
/>
<path d="
  M 728.43 938.54
  Q 727.68 940.45 727.49 943.73
  Q 727.39 945.32 724.69 944.95
  C 722.66 944.63 721.75 942.44 719.97 942.70
  Q 717.31 943.07 714.52 942.69
  A 3.70 3.61 61.3 0 1 713.41 942.35
  L 707.46 939.52
  Q 705.70 938.77 705.22 935.75
  Q 708.07 932.35 707.91 929.23
  A 3.45 3.20 -15.4 0 1 709.84 926.11
  C 713.98 924.07 717.63 923.31 722.09 925.30
  Q 725.01 926.60 724.02 929.27
  A 1.31 1.31 0.0 0 0 724.75 930.93
  Q 727.11 931.90 728.23 932.99
  A 1.66 1.65 -66.2 0 1 728.71 934.25
  L 728.43 938.54
  Z"
/>
<path d="
  M 213.75 935.51
  Q 211.75 937.42 208.98 937.88
  Q 207.12 938.77 206.61 940.70
  A 0.64 0.63 -55.8 0 1 205.48 940.92
  Q 203.60 938.32 201.03 937.49
  Q 200.18 937.00 199.61 936.27
  L 201.30 929.16
  A 1.84 1.67 68.8 0 1 201.50 928.64
  C 204.24 923.93 210.01 924.77 212.84 928.71
  Q 214.06 930.41 213.75 935.51
  Z"
/>
</g>
<g fill="#283955">
<path d="
  M 169.61 564.63
  A 1.19 1.19 0.0 0 1 168.52 563.17
  Q 169.26 560.01 170.44 557.93
  Q 173.14 553.18 179.87 540.64
  Q 183.11 534.60 187.07 523.33
  Q 187.76 521.39 189.59 518.60
  C 192.88 513.60 195.19 510.04 197.74 504.34
  Q 201.82 495.22 201.96 494.83
  C 204.10 489.01 208.30 483.07 211.48 478.74
  A 3.03 3.02 -74.3 0 1 213.65 477.52
  C 218.52 477.10 223.51 477.69 227.86 477.78
  Q 238.14 478.01 258.26 477.67
  C 265.44 477.55 263.51 471.57 264.58 466.98
  A 1.35 1.34 6.5 0 1 265.89 465.94
  Q 288.81 466.04 305.00 466.35
  Q 323.39 466.70 375.67 466.33
  Q 392.26 466.22 406.84 466.51
  Q 416.84 466.71 427.62 466.43
  Q 437.51 466.17 448.38 466.23
  Q 527.08 466.63 579.00 466.26
  Q 606.77 466.07 623.19 466.46
  Q 637.59 466.80 649.81 466.40
  Q 659.05 466.10 676.42 466.30
  C 694.36 466.52 713.29 465.69 731.75 466.32
  Q 743.59 466.72 750.14 466.63
  A 1.15 1.15 0.0 0 1 751.31 467.77
  C 751.37 472.33 750.49 478.37 757.51 477.85
  Q 762.39 477.49 778.48 477.67
  Q 787.35 477.77 791.52 477.58
  Q 799.39 477.23 804.56 477.34
  A 1.91 1.90 -13.2 0 1 806.19 478.34
  C 807.34 480.50 808.83 484.09 810.44 486.77
  Q 817.24 498.13 818.85 501.39
  Q 821.69 507.14 824.30 510.12
  A 0.91 0.75 -84.3 0 1 824.42 510.30
  L 852.06 562.88
  A 1.01 1.01 0.0 0 1 851.18 564.36
  Q 813.24 564.80 782.00 564.58
  Q 770.31 564.49 763.51 564.76
  C 755.31 565.08 747.22 564.65 738.82 564.62
  C 691.15 564.47 647.22 564.57 605.00 564.61
  Q 506.53 564.72 481.75 564.56
  Q 468.77 564.47 460.41 564.52
  Q 439.96 564.64 439.07 564.64
  C 417.65 564.52 391.29 564.80 374.32 564.72
  Q 300.80 564.39 254.00 564.59
  Q 219.99 564.73 194.48 564.50
  C 186.15 564.42 176.81 565.03 169.61 564.63
  Z"
/>
<rect x="-0.44" y="-8.13" transform="translate(868.09,785.29) rotate(-0.4)" width="0.88" height="16.26" rx="0.43"/>
</g>
<g fill="#2f9f44">
<path d="
  M 230.06 783.71
  C 230.73 788.48 228.09 789.83 224.23 791.73
  Q 218.65 794.48 215.02 788.86
  Q 212.43 784.84 216.47 781.60
  Q 220.63 778.27 226.42 779.61
  A 1.77 1.74 -16.0 0 1 227.25 780.06
  Q 229.90 782.60 230.06 783.71
  Z"
/>
<ellipse cx="0.00" cy="0.00" transform="translate(381.89,800.54) rotate(-63.3)" rx="4.97" ry="4.63"/>
<path d="
  M 786.63 810.52
  Q 786.94 816.73 781.75 819.52
  Q 779.85 820.54 778.08 819.14
  Q 773.12 815.21 775.63 809.62
  Q 776.71 807.20 781.91 806.54
  Q 782.98 807.00 784.74 809.51
  Q 785.37 810.41 786.63 810.52
  Z"
/>
<path d="
  M 378.95 809.46
  A 1.41 1.41 0.0 0 1 380.30 808.00
  L 381.43 807.96
  A 3.84 3.28 -2.2 0 1 385.39 811.09
  L 385.40 811.31
  A 3.84 3.28 -2.2 0 1 381.69 814.73
  L 380.56 814.78
  A 1.41 1.41 0.0 0 1 379.10 813.42
  L 378.95 809.46
  Z"
/>
<path d="
  M 801.05 823.61
  Q 796.78 822.67 794.38 819.14
  C 791.81 815.33 794.51 810.37 798.67 809.18
  C 803.02 807.94 805.00 807.95 808.29 811.03
  C 810.94 813.51 810.54 817.72 808.13 820.19
  Q 805.92 822.45 802.26 823.56
  A 2.45 2.43 -47.1 0 1 801.05 823.61
  Z"
/>
<path d="
  M 218.76 809.04
  Q 222.00 808.52 226.06 810.27
  C 230.24 812.09 231.04 816.58 228.07 820.01
  C 219.15 830.32 207.58 816.06 217.67 809.46
  A 2.74 2.71 -65.8 0 1 218.76 809.04
  Z"
/>
<path d="
  M 170.05 823.53
  C 163.18 825.70 155.32 815.26 162.55 810.23
  C 165.92 807.88 170.11 809.55 173.64 810.40
  A 2.01 1.92 -23.2 0 1 174.15 810.59
  C 180.69 814.12 174.81 822.02 170.05 823.53
  Z"
/>
<path d="
  M 862.04 810.63
  C 867.16 813.29 865.68 818.11 862.45 821.49
  Q 855.98 828.28 849.81 821.21
  Q 848.61 819.84 848.35 817.06
  A 2.22 2.19 52.4 0 1 848.47 816.09
  Q 849.87 812.26 853.82 811.34
  Q 857.84 810.39 860.99 810.37
  A 2.26 2.22 -30.5 0 1 862.04 810.63
  Z"
/>
<path d="
  M 428.61 816.02
  A 0.41 0.41 0.0 0 0 429.15 816.38
  C 433.21 814.94 434.23 821.08 434.21 823.87
  A 1.94 1.85 61.4 0 1 433.97 824.76
  Q 433.02 826.49 430.74 827.69
  C 427.33 829.49 423.93 825.43 423.69 822.29
  Q 423.34 817.63 424.86 814.31
  A 1.93 1.78 -55.6 0 1 427.84 813.62
  Q 428.49 814.30 428.61 816.02
  Z"
/>
<ellipse cx="0.00" cy="0.00" transform="translate(579.16,818.51) rotate(-104.2)" rx="3.95" ry="2.90"/>
<path d="
  M 372.15 827.73
  Q 375.51 823.20 375.94 818.06
  Q 376.41 818.92 377.95 817.11
  A 1.07 1.07 0.0 0 1 379.79 817.48
  L 381.69 823.42
  A 2.26 2.26 0.0 0 1 381.14 825.69
  Q 380.15 826.70 378.81 828.06
  Q 375.49 831.43 372.15 827.73
  Z"
/>
<path d="
  M 599.80 825.23
  Q 598.64 824.51 597.09 825.20
  A 1.43 1.40 36.6 0 1 596.27 825.31
  Q 593.63 824.93 593.20 822.84
  Q 594.04 821.40 594.35 819.47
  Q 594.68 817.35 595.39 816.94
  C 598.11 815.36 600.41 819.89 601.05 822.00
  A 1.20 1.20 0.0 0 1 600.97 822.87
  L 599.80 825.23
  Z"
/>
<path d="
  M 705.22 935.75
  Q 705.70 938.77 707.46 939.52
  L 706.22 942.99
  A 1.94 1.92 -10.9 0 1 705.67 943.79
  Q 702.43 946.54 698.59 947.04
  Q 691.10 944.72 691.71 938.63
  Q 694.13 934.17 698.49 933.38
  A 2.40 2.40 0.0 0 1 699.81 933.52
  L 705.22 935.75
  Z"
/>
<path d="
  M 225.29 940.70
  L 223.46 945.84
  C 220.29 948.60 210.24 947.05 210.56 941.76
  Q 210.65 940.25 210.87 939.05
  A 0.81 0.81 0.0 0 0 210.44 938.17
  Q 209.82 937.85 208.98 937.88
  Q 211.75 937.42 213.75 935.51
  Q 217.75 934.08 220.97 934.80
  Q 224.66 935.63 225.29 940.70
  Z"
/>
<path d="
  M 764.28 940.30
  L 764.96 941.22
  Q 764.82 941.24 764.75 941.26
  A 0.37 0.02 -80.6 0 0 764.67 941.62
  Q 763.20 949.87 754.74 947.60
  A 2.87 2.75 -19.7 0 1 753.89 947.22
  C 748.43 943.53 752.16 939.00 755.82 935.87
  A 1.16 1.14 28.5 0 1 756.75 935.60
  C 760.80 936.23 761.48 938.43 764.28 940.30
  Z"
/>
<path d="
  M 611.13 937.19
  L 612.23 942.15
  L 611.06 944.59
  A 2.69 2.42 84.2 0 1 610.55 945.29
  C 607.38 948.34 599.37 948.99 598.28 943.26
  Q 597.58 939.62 601.74 936.69
  Q 603.20 935.67 604.92 936.04
  Q 607.47 936.57 610.60 938.41
  A 0.20 0.20 0.0 0 0 610.90 938.28
  L 611.13 937.19
  Z"
/>
<path d="
  M 870.86 935.92
  L 877.27 937.43
  A 12.40 12.12 -36.2 0 0 879.36 937.73
  L 886.78 938.19
  Q 886.78 939.59 887.03 940.23
  Q 885.69 945.29 882.18 946.22
  Q 881.13 946.50 874.46 947.03
  Q 868.54 947.50 866.36 943.10
  A 2.78 2.78 0.0 0 1 866.07 942.00
  Q 865.83 937.35 870.86 935.92
  Z"
/>
<path d="
  M 645.31 939.38
  Q 646.97 941.71 645.38 944.75
  A 1.74 1.74 0.0 0 1 644.58 945.52
  Q 639.97 947.76 635.72 947.03
  Q 633.56 946.66 631.74 943.74
  A 1.65 1.60 -58.5 0 1 631.51 942.71
  Q 631.66 941.20 633.06 939.35
  C 636.74 934.53 640.22 936.69 644.48 938.69
  A 2.24 2.21 84.4 0 1 645.31 939.38
  Z"
/>
<path d="
  M 113.32 939.19
  Q 113.62 942.53 114.90 942.26
  Q 111.03 950.20 102.87 948.36
  Q 99.37 947.58 99.65 943.27
  Q 100.01 937.90 105.75 938.02
  Q 110.56 938.13 113.32 939.19
  Z"
/>
</g>
<g fill="#6b3623">
<path d="
  M 555.20 788.06
  A 0.91 0.91 0.0 0 1 556.11 789.01
  Q 555.54 802.65 555.80 823.17
  C 556.11 848.33 556.06 870.12 556.15 893.75
  C 556.20 905.92 555.48 926.36 556.00 939.52
  Q 556.12 942.61 552.98 942.51
  Q 533.40 941.90 510.92 943.16
  C 497.89 943.89 485.63 944.02 471.38 945.31
  Q 468.23 945.60 466.02 945.20
  A 1.85 1.85 0.0 0 1 464.50 943.43
  Q 464.26 934.31 464.74 925.25
  Q 465.21 916.13 464.90 902.40
  Q 464.45 882.47 464.40 881.58
  Q 464.37 881.01 464.22 838.23
  Q 464.20 831.74 463.94 827.28
  C 463.66 822.33 464.18 818.03 464.08 812.66
  Q 463.84 799.94 463.65 792.50
  Q 463.60 790.75 463.93 788.96
  A 1.11 1.10 -84.6 0 1 465.01 788.06
  L 555.20 788.06
  Z"
/>
<path d="
  M 413.20 798.72
  Q 413.65 799.57 413.54 800.56
  Q 412.86 799.95 412.79 798.78
  L 413.20 798.72
  Z"
/>
<path d="
  M 390.73 931.01
  Q 391.24 924.86 387.53 920.46
  Q 389.73 920.29 389.92 918.69
  Q 391.75 903.10 392.30 889.91
  A 1.47 1.46 -88.8 0 1 393.76 888.50
  L 403.25 888.50
  A 0.57 0.57 0.0 0 1 403.81 889.15
  C 403.10 894.29 402.46 898.12 402.12 902.72
  Q 400.94 918.72 400.69 925.22
  Q 400.60 927.55 399.56 929.33
  A 1.82 1.81 11.9 0 1 398.19 930.22
  L 390.73 931.01
  Z"
/>
<path d="
  M 215.31 894.59
  L 216.13 901.84
  A 0.92 0.89 -73.6 0 0 216.44 902.43
  Q 216.90 902.81 217.05 902.52
  Q 215.87 910.69 216.07 919.28
  A 2.18 2.17 -83.8 0 1 213.38 921.45
  L 213.01 921.37
  A 2.99 2.98 5.4 0 1 210.62 918.49
  L 210.45 902.35
  A 1.80 1.57 55.1 0 1 210.49 901.98
  C 211.32 898.17 211.21 894.92 215.31 894.59
  Z"
/>
<path d="
  M 324.44 969.35
  L 320.84 970.49
  A 1.47 1.47 0.0 0 1 318.92 969.09
  L 318.92 915.92
  A 1.47 1.47 0.0 0 1 320.39 914.45
  L 323.99 914.45
  A 1.47 1.47 0.0 0 1 325.46 915.92
  L 325.46 967.94
  A 1.47 1.47 0.0 0 1 324.44 969.35
  Z"
/>
<path d="
  M 228.04 929.84
  A 3.56 3.56 0.0 0 1 224.37 927.38
  L 224.07 926.44
  A 2.08 2.08 0.0 0 1 225.82 923.74
  Q 231.52 923.12 236.74 923.88
  C 238.00 924.07 238.53 925.00 238.84 925.91
  A 1.57 1.41 -20.4 0 1 237.89 927.73
  C 235.87 928.53 234.00 928.20 232.03 929.00
  Q 230.47 929.64 228.04 929.84
  Z"
/>
<path d="
  M 290.28 970.28
  L 286.84 970.58
  A 1.44 1.44 0.0 0 1 285.28 969.28
  L 282.54 938.66
  A 1.57 1.56 -5.1 0 1 283.96 936.97
  L 289.36 936.49
  A 1.30 1.29 88.2 0 1 290.77 937.82
  C 290.45 949.14 291.40 957.74 291.91 968.41
  A 1.80 1.79 -4.0 0 1 290.28 970.28
  Z"
/>
<path d="
  M 252.82 969.96
  A 2.58 2.58 0.0 0 1 250.24 967.33
  L 250.63 945.29
  A 2.03 2.03 0.0 0 1 252.48 943.30
  L 256.90 942.91
  A 1.15 1.15 0.0 0 1 258.16 944.07
  L 257.75 967.08
  A 2.94 2.93 0.5 0 1 254.81 969.96
  L 252.82 969.96
  Z"
/>
</g>
<g fill="#b5a2ae">
<path d="
  M 309.70 966.62
  A 0.92 0.92 0.0 0 1 310.62 967.57
  C 310.51 971.28 309.64 976.02 314.44 976.66
  Q 318.09 977.14 320.87 977.80
  A 3.73 3.70 39.4 0 0 323.21 977.58
  L 330.21 974.47
  A 3.27 3.24 80.5 0 0 332.13 971.76
  L 332.46 967.52
  A 0.87 0.87 0.0 0 1 333.33 966.73
  L 341.15 966.73
  A 1.10 1.09 -8.1 0 1 342.20 967.51
  Q 343.28 971.19 344.02 975.17
  Q 344.60 978.33 348.35 978.04
  Q 354.69 977.54 361.95 976.20
  C 366.75 975.30 365.98 971.39 367.24 967.57
  A 1.39 1.38 -80.6 0 1 368.55 966.63
  L 386.00 966.63
  A 0.62 0.62 0.0 0 1 386.62 967.18
  C 387.14 971.30 387.17 974.57 391.51 975.34
  Q 397.86 976.46 404.64 976.66
  C 406.49 976.71 407.78 977.12 409.51 976.00
  C 412.95 973.80 408.93 966.32 413.23 966.37
  Q 425.32 966.53 440.79 966.54
  A 0.76 0.75 81.7 0 1 441.51 967.09
  Q 441.68 967.65 441.94 970.33
  C 442.37 974.65 445.34 975.15 449.26 975.02
  C 465.67 974.48 480.96 975.29 498.26 975.07
  Q 528.89 974.68 570.31 975.29
  C 577.95 975.40 578.32 974.84 579.04 967.60
  A 1.29 1.29 0.0 0 1 580.32 966.44
  L 597.13 966.44
  A 1.42 1.42 0.0 0 1 598.55 967.83
  C 598.68 974.89 599.11 980.61 597.97 985.11
  A 1.14 1.14 0.0 0 1 596.79 985.97
  C 584.94 985.24 573.42 985.53 562.27 985.54
  Q 514.59 985.57 457.00 985.55
  Q 412.58 985.52 412.31 985.53
  C 392.46 985.91 373.36 985.24 353.06 985.46
  C 330.15 985.71 309.48 985.50 285.80 985.36
  Q 281.60 985.34 274.20 985.54
  C 266.03 985.75 257.05 985.29 249.90 985.52
  Q 241.75 985.79 237.01 985.68
  A 0.87 0.86 -89.3 0 1 236.17 984.81
  L 236.17 967.64
  A 1.30 1.30 0.0 0 1 237.47 966.34
  L 244.17 966.34
  A 0.52 0.51 21.7 0 1 244.55 967.21
  Q 242.07 969.82 242.67 974.36
  Q 243.05 977.29 246.05 977.40
  C 250.66 977.57 256.71 977.95 260.82 976.21
  A 3.30 3.29 79.2 0 0 262.84 973.23
  L 262.94 967.50
  A 0.82 0.81 -89.6 0 1 263.75 966.69
  L 276.11 966.69
  A 0.66 0.66 0.0 0 1 276.77 967.31
  C 277.08 971.23 278.07 978.68 283.67 978.10
  Q 292.36 977.19 297.43 975.97
  Q 298.92 975.62 300.01 974.10
  A 1.95 1.89 -28.2 0 0 300.36 973.00
  L 300.36 967.52
  A 0.90 0.90 0.0 0 1 301.26 966.62
  L 309.70 966.62
  Z"
/>
<path d="
  M 750.40 966.97
  A 1.66 1.66 0.0 0 1 752.05 968.64
  L 751.93 981.37
  A 3.93 1.75 -89.5 0 1 750.15 985.29
  L 741.59 985.21
  A 3.93 1.75 -89.5 0 1 739.87 981.27
  L 739.99 968.54
  A 1.66 1.66 0.0 0 1 741.66 966.89
  L 750.40 966.97
  Z"
/>
</g>
<g fill="#9c2915">
<path d="
  M 455.57 668.50
  Q 457.62 667.62 465.05 664.21
  Q 475.21 659.53 486.48 662.88
  Q 496.10 665.74 500.82 666.18
  Q 517.83 667.79 532.15 658.50
  Q 543.41 658.65 547.64 658.41
  Q 549.45 658.31 552.20 657.10
  A 0.77 0.76 -11.8 0 0 552.66 656.40
  Q 552.49 639.24 552.65 632.01
  Q 552.69 630.31 551.54 629.89
  L 542.58 629.63
  A 0.47 0.45 -86.0 0 1 542.14 629.11
  Q 542.73 624.21 545.68 623.26
  L 552.17 623.17
  A 0.59 0.59 0.0 0 0 552.75 622.58
  L 552.75 597.73
  A 0.89 0.88 -0.3 0 0 551.85 596.85
  L 529.19 597.30
  L 521.91 597.27
  L 510.82 597.33
  Q 502.17 597.05 493.59 596.50
  Q 488.58 596.18 486.88 596.37
  C 482.72 596.85 475.93 597.81 473.52 593.53
  C 472.62 591.94 471.86 590.18 470.73 589.24
  C 467.96 586.91 465.17 586.92 461.60 586.68
  Q 457.30 586.40 452.95 586.18
  L 563.35 586.11
  A 0.93 0.93 0.0 0 1 564.28 587.04
  Q 564.29 597.71 564.82 637.05
  C 564.96 647.04 565.70 656.48 566.00 666.90
  A 1.65 1.64 -0.8 0 1 564.35 668.59
  L 455.57 668.50
  Z"
/>
<rect x="-4.24" y="-8.43" transform="translate(173.80,595.96) rotate(-0.1)" width="8.48" height="16.86" rx="1.83"/>
<path d="
  M 849.74 587.72
  L 860.97 587.91
  A 0.95 0.95 0.0 0 1 861.90 588.88
  L 861.58 607.02
  A 0.95 0.95 0.0 0 1 860.72 607.95
  L 849.46 608.96
  A 0.95 0.95 0.0 0 1 848.43 607.99
  L 848.77 588.65
  A 0.95 0.95 0.0 0 1 849.74 587.72
  Z"
/>
<path d="
  M 189.73 771.22
  Q 190.96 771.19 191.34 770.55
  A 0.42 0.41 19.3 0 0 191.04 769.93
  Q 179.53 768.23 168.15 770.39
  L 167.86 754.07
  A 1.60 1.59 89.5 0 1 169.45 752.44
  L 198.76 752.44
  A 0.92 0.92 0.0 0 1 199.68 753.36
  C 199.68 755.52 198.34 759.02 196.49 765.33
  C 195.40 769.03 193.84 771.65 189.73 771.22
  Z"
/>
<path d="
  M 803.53 752.35
  Q 784.72 753.84 765.85 753.83
  Q 761.36 753.83 759.87 754.80
  C 756.71 756.86 755.07 758.47 751.08 758.63
  Q 707.78 760.41 664.46 758.54
  Q 666.69 756.57 667.04 754.41
  A 2.44 2.44 0.0 0 1 669.79 752.39
  Q 674.56 753.05 679.20 752.87
  C 687.47 752.55 695.63 752.66 705.32 752.31
  C 710.54 752.13 716.52 752.65 722.00 752.64
  Q 762.78 752.60 803.53 752.35
  Z"
/>
<path d="
  M 222.68 752.63
  Q 222.22 757.13 221.84 761.77
  Q 221.43 766.86 216.59 766.62
  A 0.85 0.84 15.5 0 0 215.82 767.05
  Q 215.13 768.35 215.79 770.03
  L 210.88 764.44
  A 0.99 0.98 -69.6 0 1 210.65 763.93
  L 209.25 753.85
  A 0.87 0.86 -4.7 0 1 210.09 752.87
  L 222.68 752.63
  Z"
/>
<path d="
  M 836.43 752.43
  Q 836.50 759.91 838.05 766.56
  A 2.01 2.00 -8.4 0 1 836.22 769.01
  L 828.80 769.45
  Q 825.43 766.59 825.00 763.26
  Q 824.40 758.64 823.63 754.26
  A 1.52 1.52 0.0 0 1 825.12 752.47
  L 836.43 752.43
  Z"
/>
<path d="
  M 421.20 759.75
  Q 420.46 765.76 421.35 771.32
  A 1.58 1.57 -18.6 0 1 420.53 772.96
  L 415.78 775.49
  Q 410.52 774.15 409.20 770.56
  C 407.48 765.88 406.13 763.04 406.17 761.10
  A 1.18 1.18 0.0 0 1 407.33 759.94
  L 421.20 759.75
  Z"
/>
<path d="
  M 595.11 776.28
  Q 590.81 773.80 586.05 773.41
  A 1.27 1.26 0.8 0 1 584.89 772.22
  L 584.22 759.81
  Q 587.55 760.57 593.12 760.27
  Q 601.32 759.83 610.01 759.90
  A 0.60 0.60 0.0 0 1 610.61 760.55
  Q 609.79 770.08 600.65 772.38
  Q 598.54 772.91 595.11 776.28
  Z"
/>
<path d="
  M 639.47 759.89
  L 638.35 769.57
  A 0.78 0.71 60.9 0 1 638.30 769.78
  Q 637.31 772.29 634.52 771.94
  Q 633.45 771.80 631.00 772.95
  L 624.83 769.36
  A 1.17 1.12 4.0 0 1 624.35 768.83
  L 621.21 761.86
  A 1.34 1.34 0.0 0 1 622.42 759.97
  L 639.47 759.89
  Z"
/>
<path d="
  M 802.24 773.61
  Q 795.45 773.25 789.33 775.15
  L 776.23 772.95
  A 1.28 1.28 0.0 0 1 775.16 771.66
  L 775.29 764.24
  A 1.25 1.24 65.6 0 1 775.57 763.48
  Q 776.84 761.93 778.52 761.92
  Q 788.98 761.84 799.15 762.29
  A 1.32 1.31 -88.4 0 1 800.41 763.63
  Q 800.34 768.67 802.24 773.61
  Z"
/>
<path d="
  M 394.87 763.21
  C 394.54 766.01 392.97 771.74 389.89 773.11
  Q 386.25 774.74 384.13 774.64
  L 368.80 774.05
  A 1.30 1.30 0.0 0 1 367.55 772.65
  L 368.16 764.94
  A 0.84 0.82 82.7 0 1 368.69 764.24
  C 374.12 762.17 381.23 762.51 387.40 762.42
  Q 391.22 762.37 394.87 763.21
  Z"
/>
<path d="
  M 236.98 783.34
  Q 236.61 782.68 235.67 780.33
  Q 234.57 777.59 231.54 775.08
  Q 234.87 773.25 234.97 769.41
  A 2.59 2.58 -89.2 0 1 237.55 766.89
  L 246.10 766.89
  A 1.15 1.15 0.0 0 1 247.25 768.04
  L 247.25 776.64
  A 2.30 2.30 0.0 0 1 244.91 778.94
  Q 240.41 778.87 237.05 780.84
  A 0.76 0.74 70.2 0 0 236.69 781.62
  L 236.98 783.34
  Z"
/>
<path d="
  M 256.45 920.48
  Q 251.64 921.96 247.58 927.28
  Q 245.22 926.10 244.95 923.75
  Q 244.22 917.20 243.71 910.17
  C 243.21 903.25 242.30 898.70 241.35 891.48
  Q 241.09 889.57 241.31 888.51
  A 0.89 0.89 0.0 0 1 242.17 887.79
  L 252.37 887.65
  A 0.56 0.55 86.0 0 1 252.93 888.14
  L 256.45 920.48
  Z"
/>
<path d="
  M 217.05 902.52
  Q 216.90 902.81 216.44 902.43
  A 0.92 0.89 -73.6 0 1 216.13 901.84
  L 215.31 894.59
  Q 218.71 893.21 217.87 901.11
  Q 217.74 902.33 217.05 902.52
  Z"
/>
<path d="
  M 387.53 920.46
  Q 391.24 924.86 390.73 931.01
  Q 377.68 931.58 355.31 931.08
  C 352.29 931.01 350.17 930.24 349.62 927.04
  Q 349.08 923.80 349.25 921.64
  A 1.20 1.20 0.0 0 1 350.45 920.54
  L 387.53 920.46
  Z"
/>
<path d="
  M 402.89 968.20
  L 395.66 967.62
  A 1.42 1.42 0.0 0 1 394.35 966.33
  L 392.15 941.12
  A 6.20 5.88 37.1 0 0 391.98 940.09
  L 391.31 937.46
  A 1.32 1.32 0.0 0 1 392.47 935.83
  L 399.93 935.17
  A 1.18 1.18 0.0 0 1 401.21 936.23
  L 403.97 967.10
  A 1.02 1.01 89.7 0 1 402.89 968.20
  Z"
/>
<path d="
  M 354.01 935.46
  L 360.26 935.95
  A 1.34 1.34 0.0 0 1 361.49 937.40
  L 359.10 967.58
  A 1.34 1.34 0.0 0 1 357.88 968.81
  L 351.53 969.38
  A 1.34 1.34 0.0 0 1 350.08 967.94
  L 352.56 936.69
  A 1.34 1.34 0.0 0 1 354.01 935.46
  Z"
/>
</g>
<g fill="#d8572e">
<rect x="-11.97" y="-8.07" transform="translate(234.13,410.53) rotate(-0.7)" width="23.94" height="16.14" rx="0.74"/>
<rect x="-12.02" y="-8.06" transform="translate(780.55,410.59) rotate(-1.1)" width="24.04" height="16.12" rx="0.80"/>
<rect x="203.49" y="426.48" width="62.84" height="12.04" rx="1.15"/>
<rect x="-21.92" y="-11.48" transform="translate(781.67,457.87) rotate(-0.6)" width="43.84" height="22.96" rx="1.22"/>
<rect x="-21.82" y="-11.29" transform="translate(234.07,457.86) rotate(-0.4)" width="43.64" height="22.58" rx="1.19"/>
<ellipse cx="0.00" cy="0.00" transform="translate(432.21,798.48) rotate(-110.2)" rx="3.37" ry="2.36"/>
<ellipse cx="0.00" cy="0.00" transform="translate(829.95,816.10) rotate(-17.5)" rx="7.85" ry="7.12"/>
<ellipse cx="0.00" cy="0.00" transform="translate(364.35,819.23) rotate(-103.2)" rx="4.17" ry="3.11"/>
<path d="
  M 652.01 934.11
  L 654.87 931.33
  Q 656.97 930.21 659.38 929.42
  C 662.60 928.37 663.96 929.76 666.22 932.39
  C 668.78 935.35 668.61 940.59 665.25 942.81
  C 660.51 945.94 654.68 944.57 651.64 939.74
  A 1.74 1.73 33.1 0 1 651.39 938.57
  L 652.01 934.11
  Z"
/>
<path d="
  M 151.16 935.87
  L 153.76 931.99
  L 158.70 931.12
  A 0.81 0.64 40.4 0 1 158.97 931.13
  L 163.80 932.26
  A 1.54 1.49 75.2 0 1 164.58 932.73
  Q 166.95 935.33 167.05 937.50
  Q 167.19 940.36 165.07 942.79
  C 163.17 944.97 155.62 945.82 153.28 943.75
  Q 149.55 940.44 151.16 935.87
  Z"
/>
<path d="
  M 814.49 936.07
  L 817.05 932.29
  Q 821.78 930.88 827.73 931.82
  Q 830.73 932.29 833.20 934.02
  A 2.67 2.66 19.0 0 1 834.34 936.35
  Q 834.16 939.69 832.27 942.30
  C 828.95 946.89 823.53 947.26 818.87 945.53
  Q 813.34 943.47 814.49 936.07
  Z"
/>
<path d="
  M 263.61 937.75
  L 260.80 938.64
  Q 258.42 936.70 257.91 934.39
  A 0.99 0.99 0.0 0 1 259.03 933.19
  Q 263.54 933.91 263.61 937.75
  Z"
/>
<path d="
  M 199.61 936.27
  Q 200.18 937.00 201.03 937.49
  Q 200.21 937.56 200.39 937.84
  Q 201.75 940.01 202.01 942.41
  A 1.71 1.68 -32.8 0 1 201.76 943.51
  Q 198.51 948.78 193.33 946.96
  C 189.19 945.51 187.27 942.17 190.14 938.37
  Q 193.55 933.85 199.61 936.27
  Z"
/>
</g>
<g fill="#f08518">
<path d="
  M 935.94 779.96
  L 939.27 786.58
  A 0.68 0.67 73.5 0 1 938.74 787.56
  C 936.26 787.83 933.47 788.21 932.67 785.08
  L 935.94 779.96
  Z"
/>
<path d="
  M 412.79 798.78
  Q 412.86 799.95 413.54 800.56
  L 413.29 804.55
  L 411.13 806.46
  A 1.68 1.67 -55.5 0 1 409.42 806.78
  C 401.10 803.61 406.82 794.36 412.79 798.78
  Z"
/>
<path d="
  M 319.51 893.71
  C 333.07 893.68 345.08 894.61 357.87 894.93
  A 1.65 1.64 89.3 0 1 359.47 896.50
  Q 359.66 900.52 359.55 903.10
  C 359.38 906.65 352.66 906.24 349.96 906.23
  Q 321.79 906.19 319.54 906.19
  Q 317.29 906.20 289.12 906.39
  C 286.43 906.41 279.71 906.86 279.52 903.31
  Q 279.40 900.73 279.57 896.71
  A 1.65 1.64 -89.6 0 1 281.16 895.13
  C 293.94 894.75 305.95 893.75 319.51 893.71
  Z"
/>
</g>
<g fill="#e6e6e8">
<path d="
  M 222.42 668.46
  L 193.39 668.46
  A 1.50 1.50 0.0 0 1 191.89 666.98
  L 190.82 587.70
  A 1.50 1.50 0.0 0 1 192.32 586.18
  L 222.42 586.18
  A 1.50 1.50 0.0 0 1 223.92 587.68
  L 223.92 666.96
  A 1.50 1.50 0.0 0 1 222.42 668.46
  Z"
/>
<rect x="-28.63" y="-41.13" transform="translate(407.76,627.32) rotate(-0.1)" width="57.26" height="82.26" rx="1.17"/>
<path d="
  M 636.83 667.34
  A 1.05 1.05 0.0 0 1 635.78 668.42
  L 582.36 668.42
  A 1.60 1.59 87.7 0 1 580.77 666.95
  C 580.32 661.71 580.69 655.99 580.54 650.68
  Q 579.81 624.42 579.96 598.50
  Q 580.01 590.03 580.22 587.04
  A 0.79 0.78 1.9 0 1 581.01 586.31
  L 636.35 586.31
  A 0.90 0.89 0.0 0 1 637.25 587.20
  Q 637.40 615.96 636.72 639.86
  C 636.42 650.15 636.57 657.63 636.83 667.34
  Z"
/>
<path d="
  M 835.86 586.23
  A 0.76 0.76 0.0 0 1 836.62 586.99
  L 836.76 664.65
  A 3.76 1.76 89.9 0 1 835.00 668.41
  L 794.20 668.49
  A 3.76 1.76 89.9 0 1 792.44 664.73
  L 792.30 587.07
  A 0.76 0.76 0.0 0 1 793.06 586.31
  L 835.86 586.23
  Z"
/>
<path d="
  M 899.78 926.06
  L 897.26 932.04
  A 1.25 1.25 0.0 0 0 897.53 933.40
  L 903.77 939.64
  A 0.68 0.67 67.0 0 1 903.31 940.79
  L 896.97 940.91
  A 1.81 1.77 -57.6 0 0 896.17 941.10
  L 890.62 943.81
  L 887.03 940.23
  Q 886.78 939.59 886.78 938.19
  C 887.64 935.52 886.02 934.41 886.17 931.86
  Q 891.49 926.12 899.78 926.06
  Z"
/>
</g>
<g fill="#cbb2a4">
<path d="
  M 899.78 926.06
  Q 903.03 926.64 904.57 929.93
  C 904.93 930.71 904.73 931.36 905.08 932.08
  Q 905.21 932.35 905.78 932.51
  Q 907.01 932.86 907.80 933.78
  Q 907.96 936.62 906.22 938.73
  Q 904.47 940.86 903.20 942.25
  Q 897.55 946.39 890.62 943.81
  L 896.17 941.10
  A 1.81 1.77 -57.6 0 1 896.97 940.91
  L 903.31 940.79
  A 0.68 0.67 67.0 0 0 903.77 939.64
  L 897.53 933.40
  A 1.25 1.25 0.0 0 1 897.26 932.04
  L 899.78 926.06
  Z"
/>
<path d="
  M 571.17 965.86
  A 0.61 0.61 0.0 0 1 570.55 966.47
  Q 539.17 966.01 488.03 965.99
  C 475.31 965.98 461.26 966.69 450.89 966.89
  A 1.06 1.06 0.0 0 1 449.81 965.83
  L 449.81 954.62
  A 1.63 1.63 0.0 0 1 451.44 952.99
  L 569.39 952.99
  A 1.79 1.78 90.0 0 1 571.17 954.78
  L 571.17 965.86
  Z"
/>
</g>
<g fill="#1b7d44">
<ellipse cx="0.00" cy="0.00" transform="translate(814.82,779.58) rotate(-168.4)" rx="5.03" ry="4.88"/>
<ellipse cx="0.00" cy="0.00" transform="translate(190.34,784.09) rotate(-42.1)" rx="6.50" ry="5.86"/>
<path d="
  M 801.90 779.91
  C 805.70 781.65 810.11 786.27 805.28 790.07
  Q 800.75 793.63 796.49 791.67
  Q 792.22 789.70 791.98 783.95
  C 791.72 777.81 798.10 778.16 801.90 779.91
  Z"
/>
<path d="
  M 647.70 800.29
  Q 647.48 800.68 647.12 800.88
  Q 645.42 800.78 639.75 801.47
  Q 634.50 802.11 634.22 797.04
  C 634.07 794.33 634.50 791.69 637.52 791.20
  C 639.56 790.88 641.03 790.31 642.53 791.98
  Q 644.29 793.93 647.77 796.75
  Q 648.92 797.68 647.70 800.29
  Z"
/>
<path d="
  M 603.24 793.74
  Q 604.34 796.63 604.11 798.60
  Q 603.63 802.58 599.67 803.36
  Q 594.57 804.38 593.21 799.64
  Q 592.69 797.83 593.87 796.45
  Q 596.39 793.49 601.11 792.41
  L 603.24 793.74
  Z"
/>
<rect x="-4.23" y="-3.98" transform="translate(632.68,809.13) rotate(-29.5)" width="8.46" height="7.96" rx="3.17"/>
<ellipse cx="0.00" cy="0.00" transform="translate(598.11,809.72) rotate(-70.7)" rx="3.97" ry="3.15"/>
<path d="
  M 237.26 810.41
  C 239.92 807.65 246.97 804.65 248.79 809.67
  Q 250.40 814.10 246.78 817.01
  C 245.05 818.39 243.53 819.79 241.37 819.36
  Q 237.87 818.68 236.33 815.22
  C 235.47 813.28 235.72 812.00 237.26 810.41
  Z"
/>
<path d="
  M 629.48 817.48
  A 1.96 1.96 0.0 0 1 629.48 820.25
  L 628.17 821.57
  A 4.64 4.12 -45.0 0 1 621.97 821.93
  L 621.79 821.75
  A 4.64 4.12 -45.0 0 1 622.15 815.55
  L 623.47 814.24
  A 1.96 1.96 0.0 0 1 626.24 814.24
  L 629.48 817.48
  Z"
/>
<path d="
  M 648.98 817.70
  A 1.54 1.54 0.0 0 1 650.19 815.90
  L 651.67 815.61
  A 3.96 3.31 -11.0 0 1 656.18 818.10
  L 656.23 818.32
  A 3.96 3.31 -11.0 0 1 652.97 822.32
  L 651.50 822.61
  A 1.54 1.54 0.0 0 1 649.69 821.39
  L 648.98 817.70
  Z"
/>
<path d="
  M 640.73 816.26
  L 638.14 819.63
  A 2.16 2.12 7.7 0 1 637.19 820.34
  Q 633.78 821.65 634.53 825.12
  Q 632.49 823.41 632.67 821.49
  C 632.88 819.26 635.99 816.94 638.01 816.10
  Q 639.52 815.47 640.73 816.26
  Z"
/>
<ellipse cx="0.00" cy="0.00" transform="translate(438.75,819.30) rotate(-52.0)" rx="2.92" ry="2.56"/>
<path d="
  M 903.20 942.25
  Q 904.47 940.86 906.22 938.73
  Q 907.96 936.62 907.80 933.78
  Q 908.54 934.93 908.55 936.73
  A 1.11 1.10 -73.8 0 0 909.04 937.63
  Q 912.39 939.89 917.43 940.30
  A 4.41 4.39 1.7 0 1 921.48 944.59
  L 921.48 944.90
  A 3.49 3.49 0.0 0 1 917.72 948.42
  L 908.29 947.67
  A 1.29 1.26 -17.1 0 1 907.45 947.24
  L 903.20 942.25
  Z"
/>
<path d="
  M 180.53 937.76
  Q 180.93 939.39 181.19 940.86
  Q 181.56 942.95 180.80 945.10
  A 1.57 1.57 0.0 0 1 179.85 946.05
  C 176.21 947.36 170.07 948.09 169.03 943.16
  Q 168.40 940.14 171.28 938.60
  C 173.19 937.57 174.95 938.11 177.75 938.41
  Q 179.04 938.55 178.86 937.16
  L 180.53 937.76
  Z"
/>
<path d="
  M 140.12 948.29
  C 129.56 948.34 133.04 938.16 140.06 938.12
  C 147.09 938.08 150.67 948.23 140.12 948.29
  Z"
/>
<path d="
  M 728.43 938.54
  Q 730.80 938.86 733.43 938.96
  Q 737.06 939.11 738.14 940.08
  Q 740.46 942.17 739.80 945.73
  C 739.18 949.07 734.48 949.04 731.83 948.87
  Q 728.84 948.69 728.18 946.01
  A 0.78 0.78 0.0 0 0 727.56 945.43
  L 724.69 944.95
  Q 727.39 945.32 727.49 943.73
  Q 727.68 940.45 728.43 938.54
  Z"
/>
<path d="
  M 787.97 945.90
  Q 787.41 945.30 787.37 944.47
  C 787.16 939.21 791.56 936.96 796.41 938.93
  Q 799.07 940.01 800.83 940.66
  C 802.84 941.41 803.76 942.33 803.04 944.25
  A 2.14 2.13 79.3 0 1 802.49 945.06
  Q 801.63 945.85 797.46 947.63
  Q 791.87 950.02 787.97 945.90
  Z"
/>
<path d="
  M 223.46 945.84
  L 225.29 940.70
  Q 229.11 940.26 231.98 941.39
  Q 234.27 942.28 235.01 944.03
  C 236.32 947.12 234.00 949.31 230.80 949.13
  Q 226.54 948.90 226.42 948.86
  A 2.80 1.70 1.4 0 1 225.22 948.09
  L 223.46 945.84
  Z"
/>
</g>
<g fill="#113328">
<path d="
  M 886.17 931.86
  C 886.02 934.41 887.64 935.52 886.78 938.19
  L 879.36 937.73
  A 12.40 12.12 -36.2 0 1 877.27 937.43
  L 870.86 935.92
  L 873.90 928.22
  A 1.40 1.40 0.0 0 1 875.91 927.52
  L 885.21 932.88
  A 0.50 0.50 0.0 0 0 885.94 932.60
  L 886.17 931.86
  Z"
/>
<path d="
  M 682.00 935.18
  Q 686.51 939.13 691.71 938.63
  Q 691.10 944.72 698.59 947.04
  Q 689.31 944.34 680.20 945.10
  A 0.30 0.29 88.3 0 1 679.88 944.79
  L 680.25 935.75
  Q 681.22 936.26 682.00 935.18
  Z"
/>
<path d="
  M 849.34 939.25
  L 850.21 940.12
  A 0.87 0.85 -57.7 0 1 850.41 941.04
  C 848.38 946.60 842.00 946.25 837.25 945.33
  A 0.42 0.42 0.0 0 1 836.94 944.76
  C 838.82 940.00 843.60 939.23 848.50 938.93
  A 1.10 1.09 65.5 0 1 849.34 939.25
  Z"
/>
</g>
<g stroke-width="2.00" fill="none" stroke-linecap="butt">
<path stroke="#e0872b" vector-effect="non-scaling-stroke" d="
  M 512.64 804.79
  L 512.61 838.66"
/>
<path stroke="#e0872b" vector-effect="non-scaling-stroke" d="
  M 506.89 837.05
  L 506.81 804.51"
/>
</g>
<g fill="#131a2b">
<path d="
  M 382.12 502.95
  A 1.30 1.30 0.0 0 1 381.21 501.43
  L 382.55 494.92
  A 2.35 2.35 0.0 0 1 384.83 493.04
  L 417.60 492.60
  A 1.65 1.64 -6.7 0 1 419.23 493.88
  L 420.87 501.14
  A 1.52 1.51 77.2 0 1 419.74 502.94
  Q 416.33 503.76 412.73 503.76
  Q 403.95 503.77 384.78 503.23
  Q 382.92 503.18 382.12 502.95
  Z"
/>
<path d="
  M 619.51 504.82
  A 2.36 2.36 0.0 0 1 617.14 502.47
  L 617.14 501.37
  A 6.64 3.84 89.8 0 1 620.95 494.72
  L 653.45 494.60
  A 6.64 3.84 89.8 0 1 657.32 501.23
  L 657.32 502.33
  A 2.36 2.36 0.0 0 1 654.97 504.70
  L 619.51 504.82
  Z"
/>
<path d="
  M 724.11 500.46
  A 1.63 1.63 0.0 0 1 725.48 501.59
  L 727.58 508.17
  A 1.06 1.06 0.0 0 1 726.77 509.53
  Q 722.81 510.31 717.99 510.30
  Q 705.34 510.25 691.05 510.65
  A 2.25 2.24 9.1 0 1 688.87 507.64
  L 690.80 502.37
  A 3.34 3.33 8.6 0 1 693.77 500.19
  C 700.13 499.90 706.30 500.51 712.68 500.02
  Q 717.45 499.65 724.11 500.46
  Z"
/>
<path d="
  M 351.92 528.12
  C 350.32 528.11 348.10 527.64 348.39 525.75
  Q 349.29 519.94 352.93 518.28
  A 2.24 2.20 -56.8 0 1 353.85 518.08
  L 385.63 517.83
  A 2.64 2.64 0.0 0 1 388.16 519.67
  L 389.94 525.25
  A 1.19 1.11 -51.1 0 1 389.98 525.81
  Q 389.67 527.85 387.65 527.89
  Q 370.09 528.22 351.92 528.12
  Z"
/>
<path d="
  M 239.02 535.03
  A 1.30 1.30 0.0 0 1 238.12 533.51
  L 239.47 527.02
  A 2.35 2.34 5.6 0 1 241.75 525.15
  L 274.43 524.79
  A 1.64 1.63 -6.5 0 1 276.05 526.07
  L 277.67 533.32
  A 1.51 1.51 0.0 0 1 276.54 535.11
  Q 273.14 535.92 269.55 535.91
  Q 260.79 535.90 241.68 535.31
  Q 239.82 535.26 239.02 535.03
  Z"
/>
<path d="
  M 808.86 545.05
  A 1.12 1.12 0.0 0 1 807.77 546.44
  L 748.00 546.44
  A 1.82 1.82 0.0 0 1 746.24 544.17
  L 748.28 536.33
  A 1.44 1.29 76.6 0 1 748.59 535.76
  Q 750.52 533.68 754.26 533.64
  Q 790.67 533.21 800.03 533.50
  Q 804.55 533.63 805.77 536.39
  Q 807.85 541.04 808.86 545.05
  Z"
/>
<path d="
  M 85.6123 670.9785
  A 41.21 39.87 -179.4 0 1 127.2375 631.5422
  A 41.21 39.87 -179.4 0 1 168.0277 671.8415
  A 41.21 39.87 -179.4 0 1 126.4025 711.2778
  A 41.21 39.87 -179.4 0 1 85.6123 670.9785
  Z"
/>
<path d="
  M 650.98 744.35
  A 1.03 1.03 0.0 0 1 650.03 745.26
  C 642.34 745.81 634.55 745.21 626.78 745.40
  Q 616.87 745.64 610.33 745.64
  Q 480.14 745.70 369.08 745.47
  A 1.24 1.24 0.0 0 1 367.86 744.47
  C 366.64 738.41 363.16 734.17 356.62 733.33
  A 1.19 1.19 0.0 0 1 355.58 732.15
  L 355.58 702.75
  A 1.82 1.82 0.0 0 1 357.06 700.96
  Q 365.17 699.40 366.60 690.80
  A 1.86 1.85 4.2 0 1 368.41 689.25
  Q 406.38 688.74 460.83 688.88
  Q 471.38 688.91 476.16 688.77
  C 483.12 688.56 491.16 688.92 496.62 688.90
  C 539.79 688.78 597.59 688.76 649.25 689.20
  A 1.84 1.84 0.0 0 1 651.05 690.74
  Q 652.41 699.12 661.54 701.26
  A 1.80 1.79 -83.5 0 1 662.93 703.01
  L 662.93 731.79
  A 1.40 1.40 0.0 0 1 661.83 733.16
  Q 652.04 735.30 650.98 744.35
  Z"
/>
<path d="
  M 882.27 769.63
  A 0.74 0.74 0.0 0 1 883.01 768.89
  L 885.97 768.88
  A 2.68 1.90 -0.2 0 1 888.66 770.77
  L 888.66 771.69
  A 2.68 1.90 -0.2 0 1 885.99 773.60
  L 883.03 773.61
  A 0.74 0.74 0.0 0 1 882.29 772.87
  L 882.27 769.63
  Z"
/>
<path d="
  M 926.16 769.75
  A 0.77 0.77 0.0 0 1 926.94 768.98
  L 927.79 768.99
  A 5.02 2.74 0.4 0 1 932.79 771.76
  L 932.79 772.00
  A 5.02 2.74 0.4 0 1 927.75 774.71
  L 926.90 774.70
  A 0.77 0.77 0.0 0 1 926.14 773.93
  L 926.16 769.75
  Z"
/>
<path d="
  M 906.85 771.43
  A 0.53 0.53 0.0 0 1 907.78 771.59
  L 909.42 776.73
  A 0.86 0.85 81.0 0 1 908.61 777.85
  L 904.94 777.85
  A 0.90 0.89 20.5 0 1 904.26 776.37
  C 905.85 774.54 905.73 772.91 906.85 771.43
  Z"
/>
<path d="
  M 882.18 777.93
  A 0.60 0.60 0.0 0 1 882.79 777.35
  L 885.48 777.40
  A 4.17 2.92 1.2 0 1 889.59 780.41
  L 889.59 780.61
  A 4.17 2.92 1.2 0 1 885.36 783.44
  L 882.67 783.38
  A 0.60 0.60 0.0 0 1 882.08 782.77
  L 882.18 777.93
  Z"
/>
<path d="
  M 478.04 869.89
  L 478.02 869.89
  A 0.59 0.58 2.3 0 0 477.46 870.40
  C 476.93 874.68 477.35 877.62 472.51 879.25
  C 469.63 880.22 467.95 875.97 467.86 873.82
  Q 467.64 868.94 467.64 853.92
  Q 467.64 851.11 468.39 850.23
  C 469.88 848.49 472.98 846.79 474.84 849.43
  Q 476.25 851.43 476.69 854.42
  A 1.19 1.19 0.0 0 0 478.04 855.43
  Q 483.41 854.67 489.00 854.57
  Q 508.23 854.23 510.11 854.23
  C 519.79 854.24 530.05 853.56 540.66 853.63
  A 1.37 1.37 0.0 0 1 542.01 854.88
  Q 543.25 869.12 543.01 882.75
  Q 542.75 897.44 542.93 904.50
  Q 543.36 921.81 543.31 927.29
  A 1.64 1.63 1.8 0 1 541.58 928.91
  C 534.89 928.51 527.66 928.84 521.46 928.56
  Q 505.36 927.82 489.00 927.24
  Q 488.54 927.22 481.73 926.79
  Q 478.11 926.57 477.93 922.75
  Q 477.22 908.21 478.71 894.27
  Q 479.51 886.71 478.56 870.37
  A 0.51 0.51 0.0 0 0 478.04 869.89
  Z"
/>
<circle cx="178.17" cy="930.45" r="1.47"/>
<path d="
  M 715.14 935.08
  Q 714.49 934.98 714.31 934.47
  A 1.96 1.90 75.0 0 1 715.75 931.89
  Q 716.78 931.71 718.41 932.96
  A 1.03 1.03 0.0 0 1 718.24 934.69
  Q 716.93 935.36 715.14 935.08
  Z"
/>
</g>
<path fill="#c23517" d="
  M 512.64 804.79
  L 512.61 838.66
  Q 510.08 838.98 508.34 838.66
  Q 506.75 838.37 506.89 837.05
  L 506.81 804.51
  Q 510.28 803.13 512.64 804.79
  Z"
/>
<g fill="#fed93f">
<path d="
  M 345.93 598.02
  L 345.93 622.43
  A 1.07 1.07 0.0 0 1 344.86 623.50
  L 321.36 623.50
  A 1.07 1.07 0.0 0 1 320.29 622.43
  L 320.29 598.02
  A 1.07 1.07 0.0 0 1 321.36 596.95
  L 344.86 596.95
  A 1.07 1.07 0.0 0 1 345.93 598.02
  Z"
/>
<path d="
  M 759.75 623.47
  L 736.96 623.47
  A 1.02 1.02 0.0 0 1 735.94 622.46
  L 735.61 598.02
  A 1.02 1.02 0.0 0 1 736.63 596.99
  L 759.41 596.99
  A 1.02 1.02 0.0 0 1 760.43 598.00
  L 760.77 622.44
  A 1.02 1.02 0.0 0 1 759.75 623.47
  Z"
/>
<rect x="-14.57" y="-13.82" transform="translate(298.84,611.08) rotate(-0.1)" width="29.14" height="27.64" rx="1.41"/>
<rect x="-12.93" y="-13.85" transform="translate(265.13,611.24) rotate(0.2)" width="25.86" height="27.70" rx="1.69"/>
<path d="
  M 692.25 625.00
  L 669.55 625.00
  A 1.25 1.25 0.0 0 1 668.30 623.75
  L 668.30 598.45
  A 1.25 1.25 0.0 0 1 669.57 597.20
  L 692.27 597.61
  A 1.25 1.25 0.0 0 1 693.50 598.86
  L 693.50 623.75
  A 1.25 1.25 0.0 0 1 692.25 625.00
  Z"
/>
<rect x="-14.18" y="-13.78" transform="translate(714.17,611.09) rotate(-0.2)" width="28.36" height="27.56" rx="1.20"/>
<rect x="-11.54" y="-13.40" transform="translate(476.96,611.04) rotate(-0.5)" width="23.08" height="26.80" rx="0.76"/>
<rect x="-12.74" y="-14.57" transform="translate(333.22,645.05) rotate(-0.9)" width="25.48" height="29.14" rx="1.15"/>
<path d="
  M 759.56 659.60
  L 737.02 659.60
  A 1.25 1.25 0.0 0 1 735.77 658.35
  L 735.77 631.53
  A 1.25 1.25 0.0 0 1 737.02 630.28
  L 759.56 630.28
  A 1.25 1.25 0.0 0 1 760.81 631.53
  L 760.81 658.35
  A 1.25 1.25 0.0 0 1 759.56 659.60
  Z"
/>
<path d="
  M 521.02 659.09
  L 496.97 659.09
  A 1.26 1.26 0.0 0 1 495.71 657.83
  L 495.71 631.78
  A 1.26 1.26 0.0 0 1 496.97 630.52
  L 521.02 630.52
  A 1.26 1.26 0.0 0 1 522.28 631.78
  L 522.28 657.83
  A 1.26 1.26 0.0 0 1 521.02 659.09
  Z"
/>
<rect x="-14.31" y="-14.31" transform="translate(299.14,645.49) rotate(-0.1)" width="28.62" height="28.62" rx="1.65"/>
<rect x="-11.57" y="-14.20" transform="translate(477.13,645.45) rotate(-0.1)" width="23.14" height="28.40" rx="1.26"/>
<rect x="-12.67" y="-14.17" transform="translate(681.02,645.50) rotate(0.2)" width="25.34" height="28.34" rx="1.36"/>
<rect x="-13.04" y="-14.18" transform="translate(265.11,645.51) rotate(0.1)" width="26.08" height="28.36" rx="1.33"/>
<rect x="-14.23" y="-14.23" transform="translate(714.46,645.59) rotate(-0.4)" width="28.46" height="28.46" rx="1.39"/>
<rect x="-14.11" y="-15.11" transform="translate(299.08,786.00) rotate(-0.1)" width="28.22" height="30.22" rx="1.22"/>
<rect x="-13.10" y="-15.25" transform="translate(334.37,785.91) rotate(0.1)" width="26.20" height="30.50" rx="1.03"/>
<rect x="-12.79" y="-15.08" transform="translate(682.53,786.00) rotate(-0.2)" width="25.58" height="30.16" rx="1.08"/>
<rect x="-13.64" y="-15.13" transform="translate(716.53,786.01) rotate(-0.1)" width="27.28" height="30.26" rx="1.24"/>
<rect x="-12.67" y="-15.28" transform="translate(750.80,786.06) rotate(-0.2)" width="25.34" height="30.56" rx="1.38"/>
<path d="
  M 512.61 838.66
  L 512.64 804.79
  L 537.03 804.33
  A 0.56 0.56 0.0 0 1 537.60 804.89
  L 537.60 838.60
  A 0.58 0.57 0.5 0 1 537.01 839.17
  L 512.61 838.66
  Z"
/>
<path d="
  M 506.81 804.51
  L 506.89 837.05
  Q 506.97 837.79 506.84 838.20
  A 1.08 1.07 -79.9 0 1 505.83 838.91
  L 482.77 838.91
  A 1.12 1.12 0.0 0 1 481.65 837.79
  L 481.65 805.55
  A 0.99 0.99 0.0 0 1 482.64 804.56
  L 506.81 804.51
  Z"
/>
<rect x="-14.09" y="-26.15" transform="translate(299.26,834.86) rotate(-0.1)" width="28.18" height="52.30" rx="1.06"/>
<rect x="-13.07" y="-26.15" transform="translate(334.42,834.79) rotate(-0.1)" width="26.14" height="52.30" rx="1.08"/>
<rect x="-12.70" y="-26.21" transform="translate(750.81,834.80) rotate(-0.2)" width="25.40" height="52.42" rx="1.29"/>
<rect x="-12.71" y="-26.08" transform="translate(682.50,834.94) rotate(0.1)" width="25.42" height="52.16" rx="0.87"/>
<rect x="702.96" y="808.70" width="27.10" height="52.20" rx="0.95"/>
</g>
<rect fill="#6b3623" x="-2.22" y="-1.57" transform="translate(853.36,931.14) rotate(-5.9)" width="4.44" height="3.14" rx="1.46"/>
<path fill="#b5a2ae" d="
  M 621.77 932.97
  Q 621.68 933.19 620.95 933.09
  Q 620.42 933.03 620.41 932.55
  Q 620.41 932.25 620.67 932.18
  A 0.86 0.64 -1.2 0 1 621.77 932.97
  Z"
/>
<g fill="#9c2915">
<circle cx="612.55" cy="809.83" r="0.10"/>
<path d="
  M 841.07 861.62
  Q 841.66 866.60 840.02 871.29
  A 2.52 2.52 0.0 0 1 837.59 872.97
  Q 828.23 872.74 814.27 873.29
  Q 810.78 873.42 808.44 871.13
  A 1.55 1.54 24.8 0 1 807.98 869.90
  L 808.50 863.39
  A 3.04 3.03 4.1 0 1 811.73 860.60
  Q 823.91 861.41 835.12 860.21
  C 836.24 860.09 838.95 860.21 839.81 860.33
  A 1.48 1.47 0.8 0 1 841.07 861.62
  Z"
/>
<path d="
  M 210.22 864.22
  L 209.64 871.36
  A 3.04 3.04 0.0 0 1 206.61 874.16
  L 179.89 874.16
  A 3.04 3.04 0.0 0 1 176.86 870.88
  L 177.43 863.74
  A 3.04 3.04 0.0 0 1 180.46 860.94
  L 207.19 860.94
  A 3.04 3.04 0.0 0 1 210.22 864.22
  Z"
/>
<path d="
  M 393.63 862.54
  A 1.26 1.24 -86.6 0 1 394.91 861.39
  Q 402.04 861.66 406.66 862.15
  C 412.54 862.77 418.52 861.54 424.06 862.08
  A 0.87 0.86 81.3 0 1 424.77 862.61
  Q 426.87 867.69 425.28 873.26
  A 0.87 0.86 7.7 0 1 424.46 873.88
  L 395.87 874.27
  A 2.89 2.89 0.0 0 1 392.95 871.14
  L 393.63 862.54
  Z"
/>
<rect x="-16.00" y="-6.52" transform="translate(607.64,871.63) rotate(0.1)" width="32.00" height="13.04" rx="2.86"/>
<path d="
  M 801.28 878.27
  Q 802.40 883.61 801.26 888.08
  A 1.80 1.80 0.0 0 1 799.64 889.43
  Q 785.41 890.49 772.55 889.46
  Q 770.64 889.31 769.10 888.43
  A 2.38 2.38 0.0 0 1 767.96 885.86
  L 769.34 879.36
  A 2.94 2.91 77.1 0 1 770.38 877.68
  Q 770.70 877.43 773.56 877.09
  Q 779.99 876.34 797.26 876.91
  Q 799.89 876.99 800.65 877.41
  A 1.29 1.26 -81.9 0 1 801.28 878.27
  Z"
/>
<path d="
  M 637.16 889.16
  L 637.78 881.44
  A 3.01 3.01 0.0 0 1 640.78 878.67
  L 676.61 878.67
  A 3.01 3.01 0.0 0 1 679.61 881.41
  L 680.30 889.13
  A 3.01 3.01 0.0 0 1 677.30 892.41
  L 640.16 892.41
  A 3.01 3.01 0.0 0 1 637.16 889.16
  Z"
/>
<path d="
  M 713.47 891.55
  A 2.19 2.16 21.4 0 1 712.62 889.64
  Q 713.19 883.23 713.29 881.98
  Q 713.55 878.68 717.25 878.89
  Q 728.23 879.52 740.00 879.00
  Q 746.40 878.72 753.92 879.32
  A 3.07 3.07 0.0 0 1 756.51 881.20
  C 757.16 882.75 760.24 891.20 757.16 892.20
  Q 756.01 892.57 754.75 892.57
  Q 738.26 892.46 727.53 892.60
  Q 719.86 892.70 715.37 892.43
  Q 714.57 892.38 713.47 891.55
  Z"
/>
<path d="
  M 821.98 894.39
  L 821.89 887.21
  A 2.80 2.80 0.0 0 1 824.65 884.37
  L 850.87 884.02
  A 2.80 2.80 0.0 0 1 853.71 886.78
  L 853.82 894.77
  A 2.80 2.80 0.0 0 1 850.97 897.61
  L 824.73 897.15
  A 2.80 2.80 0.0 0 1 821.98 894.39
  Z"
/>
</g>
<ellipse fill="#d8572e" cx="0.00" cy="0.00" transform="translate(679.90,927.72) rotate(-4.1)" rx="1.24" ry="0.89"/>
<g stroke-width="2.00" fill="none" stroke-linecap="butt">
<path stroke="#feeb9e" vector-effect="non-scaling-stroke" d="
  M 142.40 656.81
  Q 138.52 658.80 133.35 657.22
  A 1.39 1.39 0.0 0 0 132.42 657.25
  Q 131.94 657.44 131.68 657.88
  C 130.79 659.40 128.46 659.96 126.92 659.84
  A 1.70 1.70 0.0 0 0 125.31 660.68
  L 122.63 665.32
  A 1.23 1.22 -86.0 0 1 122.03 665.85
  Q 114.11 669.18 112.57 661.77"
/>
<path stroke="#f2f2f3" vector-effect="non-scaling-stroke" d="
  M 112.57 661.77
  L 109.99 647.57"
/>
<path stroke="#f2e094" vector-effect="non-scaling-stroke" d="
  M 112.57 661.77
  Q 111.69 659.96 110.75 660.13
  Q 108.56 660.52 107.53 660.70"
/>
</g>
<path fill="#fdfdfd" d="
  M 142.40 656.81
  Q 138.52 658.80 133.35 657.22
  A 1.39 1.39 0.0 0 0 132.42 657.25
  Q 131.94 657.44 131.68 657.88
  C 130.79 659.40 128.46 659.96 126.92 659.84
  A 1.70 1.70 0.0 0 0 125.31 660.68
  L 122.63 665.32
  A 1.23 1.22 -86.0 0 1 122.03 665.85
  Q 114.11 669.18 112.57 661.77
  L 109.99 647.57
  Q 110.73 641.46 115.85 640.85
  C 118.14 640.58 120.01 642.02 121.53 642.05
  A 2.50 2.41 -54.5 0 0 122.50 641.87
  C 123.99 641.28 125.84 639.02 127.81 638.60
  C 130.92 637.95 134.12 640.53 134.68 643.69
  C 135.12 646.13 138.00 645.31 139.69 646.23
  Q 145.62 649.43 142.40 656.81
  Z"
/>
<g fill="#fed93f">
<path d="
  M 142.40 656.81
  Q 142.24 658.16 143.26 659.27
  A 1.26 1.22 68.9 0 0 144.11 659.66
  Q 146.74 659.74 148.25 659.92
  C 154.65 660.66 155.32 666.36 155.20 672.03
  Q 155.11 676.83 155.18 681.38
  A 2.33 2.32 -33.1 0 1 154.96 682.41
  Q 153.29 685.88 149.41 687.53
  A 0.46 0.33 -54.2 0 1 149.29 687.57
  L 144.35 688.34
  A 1.66 1.64 -0.3 0 0 142.97 689.72
  Q 142.60 692.28 142.00 694.00
  Q 140.48 698.31 135.99 698.33
  Q 123.30 698.39 116.80 698.45
  C 112.05 698.50 107.79 697.29 107.59 692.24
  Q 107.29 684.89 107.53 660.70
  Q 108.56 660.52 110.75 660.13
  Q 111.69 659.96 112.57 661.77
  Q 114.11 669.18 122.03 665.85
  A 1.23 1.22 -86.0 0 0 122.63 665.32
  L 125.31 660.68
  A 1.70 1.70 0.0 0 1 126.92 659.84
  C 128.46 659.96 130.79 659.40 131.68 657.88
  Q 131.94 657.44 132.42 657.25
  A 1.39 1.39 0.0 0 1 133.35 657.22
  Q 138.52 658.80 142.40 656.81
  Z"
/>
<path d="
  M 464.83 699.55
  A 1.26 1.26 0.0 0 1 465.38 701.88
  Q 463.79 702.88 463.02 704.16
  A 1.56 1.54 61.4 0 0 462.80 704.92
  Q 462.63 714.22 462.85 727.25
  C 462.89 729.89 462.76 731.90 465.29 733.29
  A 1.02 1.02 0.0 0 1 464.82 735.20
  L 452.45 735.37
  A 1.12 1.11 -64.9 0 1 451.74 733.39
  Q 453.35 732.08 453.88 730.81
  A 3.41 3.31 57.8 0 0 454.17 729.44
  L 454.18 719.35
  A 0.49 0.48 -0.0 0 0 453.68 718.86
  L 442.91 719.00
  A 0.63 0.63 0.0 0 0 442.29 719.64
  L 442.43 730.40
  A 2.29 2.28 22.3 0 0 443.10 731.99
  L 445.01 733.89
  A 0.83 0.83 0.0 0 1 444.43 735.31
  L 432.74 735.47
  A 1.22 1.21 20.4 0 1 431.81 733.45
  C 433.22 731.87 433.81 730.92 433.83 728.62
  Q 433.94 715.78 433.70 703.59
  A 0.96 0.95 21.9 0 0 433.42 702.94
  L 431.97 701.48
  A 1.04 1.04 0.0 0 1 432.68 699.70
  C 437.86 699.58 443.51 699.07 445.02 700.14
  A 1.17 1.16 -41.4 0 1 444.89 702.12
  L 443.09 703.06
  A 1.54 1.53 -14.4 0 0 442.27 704.43
  L 442.40 713.82
  A 0.70 0.70 0.0 0 0 443.09 714.51
  L 453.52 714.70
  A 0.62 0.62 0.0 0 0 454.15 714.09
  Q 454.26 708.40 453.98 704.09
  C 453.88 702.49 452.36 702.46 451.71 701.28
  A 1.18 1.17 -16.9 0 1 452.65 699.55
  Q 459.12 699.00 464.83 699.55
  Z"
/>
<path d="
  M 531.33 721.86
  Q 531.06 724.63 531.42 729.72
  Q 531.63 732.77 534.93 733.45
  A 0.61 0.61 0.0 0 1 535.41 734.13
  Q 535.22 735.39 534.38 735.39
  C 528.35 735.41 521.44 735.77 520.38 735.10
  A 1.27 1.14 -47.7 0 1 520.39 733.16
  C 522.06 731.75 522.66 731.25 522.63 728.99
  Q 522.57 723.85 522.50 703.90
  A 0.60 0.60 0.0 0 0 522.38 703.54
  L 520.82 701.48
  A 1.31 1.30 -18.2 0 1 521.88 699.39
  Q 537.49 699.58 538.73 699.66
  C 545.43 700.10 550.29 704.75 549.17 711.75
  C 547.90 719.70 539.38 721.17 532.18 721.10
  A 0.84 0.84 0.0 0 0 531.33 721.86
  Z"
/>
<path d="
  M 427.12 700.26
  L 427.12 708.73
  A 0.93 0.93 0.0 0 1 425.35 709.12
  C 423.77 705.77 421.33 702.22 417.30 703.15
  A 1.66 1.65 83.7 0 0 416.01 704.77
  L 416.01 730.12
  A 0.96 0.93 -64.3 0 0 416.20 730.69
  L 418.52 733.77
  A 1.12 1.12 0.0 0 1 417.63 735.56
  L 405.93 735.56
  A 1.25 1.25 0.0 0 1 405.16 733.33
  Q 407.98 731.12 407.92 727.28
  Q 407.88 724.12 407.68 703.98
  A 0.94 0.94 0.0 0 0 406.74 703.05
  L 402.40 703.05
  A 2.66 2.65 13.1 0 0 400.02 704.52
  Q 399.22 706.10 398.32 709.04
  Q 398.20 709.41 397.87 709.61
  Q 397.55 709.81 397.00 709.74
  A 0.77 0.76 -86.1 0 1 396.34 708.98
  L 396.34 700.89
  A 1.41 1.41 0.0 0 1 397.75 699.48
  L 426.34 699.48
  A 0.78 0.78 0.0 0 1 427.12 700.26
  Z"
/>
<path d="
  M 497.13 708.27
  A 0.61 0.61 0.0 0 1 496.03 708.63
  L 493.46 705.21
  A 4.14 4.12 71.9 0 0 490.26 703.58
  L 481.91 703.44
  A 0.72 0.72 0.0 0 0 481.17 704.16
  L 481.17 713.68
  A 1.02 1.02 0.0 0 0 482.25 714.70
  L 487.06 714.40
  A 1.04 1.02 20.7 0 0 487.74 714.10
  L 489.97 711.87
  A 0.72 0.72 0.0 0 1 491.20 712.28
  Q 491.95 717.54 491.32 722.41
  A 1.05 1.04 34.8 0 1 489.36 722.76
  L 488.01 720.18
  A 1.71 1.71 0.0 0 0 487.01 719.35
  Q 484.52 718.58 482.20 718.97
  A 0.91 0.91 0.0 0 0 481.44 719.87
  L 481.46 730.51
  A 1.08 1.08 0.0 0 0 482.42 731.57
  C 484.38 731.80 490.40 731.72 492.54 730.11
  Q 494.90 728.33 495.92 725.44
  A 1.16 1.16 0.0 0 1 497.83 725.01
  L 498.32 725.50
  A 1.65 1.65 0.0 0 1 498.77 727.00
  L 497.12 734.98
  A 0.67 0.66 -84.1 0 1 496.47 735.52
  L 470.83 735.52
  A 1.06 1.06 0.0 0 1 470.08 733.71
  L 472.09 731.71
  A 1.63 1.62 73.5 0 0 472.51 730.93
  Q 472.99 728.83 472.94 725.25
  Q 472.94 725.24 472.63 704.00
  Q 472.61 702.97 470.71 702.05
  A 1.13 1.10 8.2 0 1 470.10 701.25
  Q 470.04 700.91 470.20 700.28
  A 1.03 1.03 0.0 0 1 471.20 699.49
  L 496.44 699.49
  A 0.69 0.69 0.0 0 1 497.13 700.18
  L 497.13 708.27
  Z"
/>
<path d="
  M 574.96 700.88
  A 0.86 0.86 0.0 0 1 575.74 699.70
  L 585.54 699.57
  A 1.20 1.19 31.1 0 1 586.10 701.83
  C 584.43 702.67 583.98 703.72 583.97 705.69
  Q 583.92 715.99 583.99 726.43
  A 3.08 3.06 57.3 0 1 583.72 727.69
  C 580.02 736.00 572.86 736.68 564.78 735.92
  A 4.10 4.08 59.2 0 1 563.53 735.60
  Q 554.82 731.90 554.85 722.04
  Q 554.88 714.29 554.84 704.65
  C 554.83 702.83 552.85 702.80 552.57 700.97
  A 1.22 1.22 0.0 0 1 553.80 699.57
  L 565.84 699.85
  A 0.52 0.52 0.0 0 1 566.34 700.46
  Q 566.34 700.48 566.21 700.79
  A 1.08 1.08 0.0 0 1 565.76 701.30
  Q 564.12 702.28 563.57 703.40
  A 2.38 2.34 58.5 0 0 563.33 704.44
  Q 563.47 716.06 563.33 720.34
  C 563.09 727.42 564.34 733.03 572.68 731.14
  Q 577.11 730.13 577.52 725.24
  Q 577.94 720.30 577.53 703.65
  Q 577.51 702.59 576.42 702.16
  Q 575.32 701.73 574.96 700.88
  Z"
/>
<path d="
  M 615.40 717.07
  C 618.84 717.90 620.58 722.03 620.65 724.99
  C 620.84 732.80 614.75 735.49 607.61 735.45
  Q 595.96 735.38 591.84 735.35
  A 1.32 1.32 0.0 0 1 591.20 732.88
  C 592.56 732.12 593.15 730.77 593.14 729.12
  Q 593.13 726.00 593.03 704.46
  A 1.89 1.82 28.6 0 0 592.70 703.41
  Q 592.07 702.48 591.06 702.22
  A 1.29 1.29 0.0 0 1 591.33 699.69
  Q 603.45 699.22 610.82 699.90
  Q 613.21 700.12 617.15 702.97
  A 2.89 2.86 -83.3 0 1 618.12 704.21
  Q 621.08 711.54 615.20 716.17
  A 0.51 0.51 0.0 0 0 615.40 717.07
  Z"
/>
</g>
<path fill="#6b3623" d="
  M 487.15 861.54
  L 534.50 861.54
  A 1.08 1.08 0.0 0 1 535.58 862.62
  L 535.58 920.72
  A 1.05 1.05 0.0 0 1 534.47 921.77
  Q 527.05 921.35 513.23 921.39
  C 504.40 921.42 497.52 920.49 488.16 919.86
  A 1.54 1.54 0.0 0 1 486.74 918.52
  Q 486.40 915.99 486.35 914.33
  Q 485.66 892.29 485.64 863.05
  A 1.51 1.51 0.0 0 1 487.15 861.54
  Z"
/>
<path fill="#e6e6e8" d="
  M 109.99 647.57
  L 112.57 661.77
  Q 111.69 659.96 110.75 660.13
  Q 108.56 660.52 107.53 660.70
  C 102.85 659.18 100.40 655.17 103.48 651.10
  C 105.02 649.07 108.19 648.41 109.99 647.57
  Z"
/>
<g fill="#131a2b">
<path d="
  M 142.94 666.05
  A 1.38 1.38 0.0 0 1 144.31 664.66
  L 144.49 664.66
  A 4.88 4.62 89.7 0 1 149.14 669.51
  L 149.18 677.85
  A 4.88 4.62 89.7 0 1 144.59 682.76
  L 144.41 682.76
  A 1.38 1.38 0.0 0 1 143.02 681.39
  L 142.94 666.05
  Z"
/>
<path d="
  M 530.79 703.98
  A 1.34 1.34 0.0 0 1 532.12 702.63
  L 533.19 702.62
  A 7.23 7.07 89.5 0 1 540.32 709.79
  L 540.32 710.03
  A 7.23 7.07 89.5 0 1 533.31 717.32
  L 532.24 717.33
  A 1.34 1.34 0.0 0 1 530.89 716.00
  L 530.79 703.98
  Z"
/>
<path d="
  M 601.49 704.11
  A 0.84 0.84 0.0 0 1 602.32 703.27
  L 605.04 703.25
  A 5.72 5.33 -0.4 0 1 610.80 708.54
  L 610.80 709.46
  A 5.72 5.33 -0.4 0 1 605.12 714.83
  L 602.40 714.85
  A 0.84 0.84 0.0 0 1 601.55 714.01
  L 601.49 704.11
  Z"
/>
<path d="
  M 601.64 719.60
  A 0.69 0.69 0.0 0 1 602.33 718.90
  L 604.84 718.88
  A 6.86 5.97 -0.4 0 1 611.74 724.80
  L 611.74 725.72
  A 6.86 5.97 -0.4 0 1 604.92 731.74
  L 602.41 731.76
  A 0.69 0.69 0.0 0 1 601.72 731.07
  L 601.64 719.60
  Z"
/>
</g>
<rect fill="#d8572e" x="-2.62" y="-11.61" transform="translate(124.77,679.47) rotate(-0.2)" width="5.24" height="23.22" rx="1.80"/>
<g fill="#f08518">
<rect x="-2.08" y="-11.68" transform="translate(134.46,678.82) rotate(0.6)" width="4.16" height="23.36" rx="1.27"/>
<path d="
  M 114.00 690.89
  A 1.08 1.08 0.0 0 1 112.90 689.83
  L 112.68 671.47
  A 2.76 1.90 89.3 0 1 114.54 668.69
  L 115.42 668.68
  A 2.76 1.90 89.3 0 1 117.36 671.41
  L 117.58 689.77
  A 1.08 1.08 0.0 0 1 116.52 690.86
  L 114.00 690.89
  Z"
/>
</g>
</svg>
