<?xml version="1.0" encoding="UTF-8" standalone="no"?>
<!DOCTYPE svg PUBLIC "-//W3C//DTD SVG 1.1//EN" "http://www.w3.org/Graphics/SVG/1.1/DTD/svg11.dtd">
<svg xmlns="http://www.w3.org/2000/svg" version="1.1" viewBox="0.00 0.00 1536.00 1024.00" preserveAspectRatio="none">

<path fill="#16397d" d="
  M 1536.00 0.00
  L 1536.00 692.28
  L 1425.12 692.35
  Q 1424.47 689.72 1425.25 687.28
  Q 1427.54 686.69 1427.88 684.10
  C 1428.47 679.72 1424.48 676.93 1420.45 676.86
  C 1418.14 676.81 1416.22 676.76 1414.72 676.87
  A 0.44 0.43 -15.3 0 1 1414.30 676.64
  L 1414.15 676.36
  L 1413.99 503.45
  A 1.03 1.03 0.0 0 1 1415.02 502.42
  L 1422.32 502.42
  A 2.19 2.15 -57.8 0 0 1423.29 502.19
  Q 1427.24 500.26 1429.34 496.43
  A 1.96 1.93 -33.9 0 0 1429.56 495.35
  Q 1429.26 492.17 1426.78 491.01
  A 1.24 1.21 -31.6 0 0 1426.25 490.89
  L 1415.01 490.89
  A 1.18 1.17 -89.8 0 1 1413.84 489.70
  L 1413.97 478.06
  Q 1413.60 477.21 1414.32 476.40
  A 1.40 1.38 16.7 0 1 1415.17 475.95
  C 1419.60 475.40 1421.52 473.62 1424.97 470.59
  A 2.61 2.54 10.3 0 1 1425.52 470.22
  L 1430.82 467.39
  A 2.67 2.63 -7.8 0 0 1432.15 465.66
  L 1442.13 422.94
  L 1445.77 409.93
  A 1.43 1.41 4.2 0 1 1446.98 408.90
  C 1449.20 408.64 1451.64 409.00 1453.29 406.84
  C 1454.67 405.05 1453.36 403.38 1451.76 402.29
  Q 1427.77 386.05 1410.64 373.81
  A 1.46 1.46 0.0 0 1 1410.43 371.62
  C 1418.11 363.57 1408.00 351.31 1397.98 357.34
  Q 1395.10 359.08 1394.17 362.15
  C 1392.94 366.20 1394.29 369.08 1396.51 372.53
  A 0.69 0.67 -41.5 0 1 1396.45 373.34
  Q 1395.31 374.67 1394.02 375.53
  Q 1387.86 379.60 1383.04 383.19
  C 1373.00 390.65 1364.00 396.37 1353.48 404.13
  A 1.80 1.79 -39.1 0 0 1353.20 406.76
  C 1354.98 408.77 1357.90 408.28 1360.44 408.52
  A 0.87 0.85 86.1 0 1 1361.19 409.19
  L 1362.69 415.95
  L 1375.06 465.37
  A 4.17 4.15 5.5 0 0 1377.35 468.14
  Q 1382.08 470.33 1387.29 474.69
  Q 1389.12 476.23 1392.70 476.30
  Q 1393.43 476.31 1393.80 476.65
  Q 1394.24 477.05 1394.15 477.73
  L 1394.23 489.43
  A 1.44 1.44 0.0 0 1 1392.79 490.88
  L 1381.68 490.88
  A 0.96 0.85 -54.7 0 0 1381.29 490.97
  Q 1378.85 492.09 1378.47 495.20
  A 1.87 1.83 -56.0 0 0 1378.67 496.29
  Q 1381.05 500.84 1385.36 502.33
  A 0.87 0.85 -34.5 0 0 1385.65 502.38
  L 1393.07 502.45
  A 0.97 0.97 0.0 0 1 1394.03 503.42
  L 1393.78 676.48
  Q 1393.47 676.90 1393.19 676.91
  C 1389.03 677.06 1378.57 676.27 1379.56 684.25
  Q 1379.88 686.85 1382.64 687.22
  Q 1383.35 689.60 1382.68 692.25
  L 1307.66 692.61
  A 0.94 0.94 0.0 0 0 1306.84 693.09
  L 1306.48 693.70
  A 0.36 0.35 -78.2 0 1 1306.21 693.88
  Q 1305.64 693.92 1305.42 693.28
  Q 1306.65 689.57 1306.11 687.25
  Q 1304.74 681.33 1303.34 675.39
  Q 1298.53 654.04 1296.47 647.80
  Q 1292.31 635.23 1287.41 622.94
  Q 1285.55 618.26 1284.03 613.60
  Q 1288.71 609.50 1289.57 604.04
  Q 1290.83 596.08 1287.87 589.18
  C 1283.04 577.94 1273.13 581.80 1263.68 581.21
  Q 1265.42 579.37 1264.07 578.35
  Q 1272.53 572.53 1275.69 562.07
  Q 1277.17 557.16 1277.48 551.98
  Q 1277.55 550.79 1276.98 551.02
  Q 1279.59 544.64 1278.69 537.00
  C 1277.09 523.57 1262.86 515.91 1251.06 514.24
  Q 1242.32 513.00 1236.09 515.31
  C 1227.94 518.33 1223.03 526.13 1218.86 533.20
  Q 1207.84 530.49 1204.94 530.32
  Q 1199.55 529.99 1197.53 534.45
  Q 1194.44 541.25 1200.87 544.78
  A 2.88 2.72 61.6 0 0 1201.75 545.07
  L 1214.71 547.09
  Q 1213.90 550.24 1213.20 552.85
  Q 1210.97 561.30 1213.05 569.05
  C 1215.60 578.58 1223.67 586.12 1233.78 587.41
  L 1229.03 596.82
  A 0.85 0.59 -34.7 0 0 1228.97 596.98
  L 1227.91 601.14
  Q 1223.48 607.79 1220.57 615.29
  Q 1215.79 626.48 1214.11 629.35
  Q 1212.70 631.77 1211.57 632.59
  Q 1199.43 641.45 1187.26 650.26
  Q 1185.30 651.68 1184.66 653.38
  C 1176.00 657.90 1167.24 662.78 1171.75 674.46
  Q 1159.77 684.50 1146.20 692.59
  Q 1143.18 691.80 1139.18 691.93
  Q 1125.91 692.38 1105.22 692.20
  L 1104.88 684.16
  Q 1103.85 680.28 1105.00 678.36
  L 1105.15 644.24
  Q 1103.52 640.38 1105.02 638.42
  L 1105.31 602.46
  Q 1103.79 597.92 1105.26 595.10
  L 1105.18 556.01
  Q 1104.47 551.81 1105.32 547.84
  L 1105.40 506.37
  Q 1104.16 502.82 1105.43 499.26
  L 1105.40 461.00
  Q 1103.43 456.03 1105.32 451.75
  L 1105.33 423.51
  Q 1103.87 420.19 1105.34 416.61
  L 1105.56 385.88
  A 1.24 1.24 0.0 0 0 1104.32 384.63
  L 1085.46 384.60
  L 1103.67 384.46
  A 0.55 0.55 0.0 0 0 1104.21 383.91
  L 1104.21 382.33
  Q 1118.57 382.09 1132.76 381.90
  Q 1135.57 381.87 1136.89 380.68
  Q 1138.50 379.23 1138.91 376.79
  L 1138.69 360.41
  Q 1138.05 356.10 1134.81 355.44
  Q 1131.97 354.87 1131.15 354.41
  L 1119.44 330.56
  L 1116.63 325.14
  L 1104.45 300.97
  L 1101.21 294.77
  Q 1100.53 292.34 1100.12 291.64
  Q 1094.46 281.90 1089.90 271.92
  L 1087.58 266.84
  L 1076.13 244.20
  L 1071.01 226.45
  A 2.66 2.66 0.0 0 0 1068.70 224.53
  Q 1067.16 224.39 1064.75 224.39
  Q 762.69 224.45 411.20 224.42
  Q 411.10 224.42 398.79 224.66
  Q 390.00 224.84 381.34 224.03
  L 381.15 192.49
  Q 382.53 191.48 383.91 191.06
  L 387.67 189.56
  A 3.16 3.15 79.2 0 0 389.65 186.63
  L 389.65 169.62
  A 2.54 2.52 14.9 0 0 388.36 167.42
  Q 381.99 163.81 376.93 163.00
  L 285.37 165.74
  A 2.40 2.36 30.8 0 0 284.35 165.99
  Q 282.89 166.72 282.04 168.71
  A 1.66 1.64 -34.1 0 0 281.90 169.42
  L 281.99 186.10
  Q 282.16 188.17 283.93 189.63
  Q 287.17 191.36 290.46 192.78
  Q 292.50 193.66 292.02 195.19
  L 292.19 222.84
  L 292.11 230.45
  L 292.39 253.19
  Q 291.88 253.76 290.27 254.15
  A 1.67 1.66 85.5 0 0 289.00 255.65
  Q 288.65 261.02 288.95 266.79
  Q 289.00 267.63 290.15 269.87
  Q 290.56 270.67 289.42 271.98
  L 278.10 295.25
  L 274.91 301.19
  L 262.93 324.85
  L 260.20 330.20
  L 248.45 354.48
  Q 241.40 355.30 241.03 360.48
  Q 240.55 367.22 240.90 375.77
  Q 240.87 382.12 246.50 382.08
  Q 260.79 381.97 275.36 382.47
  Q 274.96 383.77 275.28 384.53
  Q 274.69 384.80 274.68 385.25
  Q 274.52 394.74 274.66 416.50
  L 274.61 423.11
  L 274.74 451.61
  L 274.61 457.44
  L 274.43 489.51
  Q 270.72 489.94 269.75 489.90
  C 255.68 489.38 242.45 490.12 229.42 489.75
  Q 226.07 489.65 209.08 489.87
  Q 205.28 489.91 204.20 491.05
  C 202.09 493.28 201.55 496.63 204.03 499.05
  Q 205.29 500.28 206.97 501.26
  Q 221.74 502.70 230.50 502.46
  Q 238.49 502.25 246.27 502.60
  A 0.68 0.67 2.2 0 1 246.92 503.29
  L 246.76 509.72
  Q 242.56 510.20 238.70 508.42
  C 236.72 507.40 232.73 505.79 231.00 507.80
  Q 223.16 516.90 212.54 523.29
  A 3.65 3.64 -15.4 0 0 210.76 526.42
  L 210.76 592.79
  Q 210.50 595.21 211.65 596.84
  A 1.99 1.97 -5.8 0 0 212.48 597.51
  C 217.20 599.57 221.26 602.48 226.09 604.90
  Q 229.99 606.86 241.27 612.67
  C 244.80 614.49 248.76 615.64 252.32 617.67
  A 3.77 3.76 -42.9 0 0 255.83 617.80
  L 274.41 608.93
  L 274.26 613.42
  L 274.37 645.33
  L 274.52 650.83
  L 274.42 681.76
  Q 275.40 688.55 273.04 688.43
  Q 269.99 688.51 268.79 691.78
  Q 266.59 692.15 264.45 692.16
  Q 206.34 692.33 148.35 692.15
  Q 147.54 689.11 148.32 687.61
  Q 151.70 686.55 151.69 683.64
  C 151.67 679.34 147.54 676.87 143.49 677.03
  Q 140.30 677.15 137.23 676.66
  L 137.18 502.95
  A 0.72 0.72 0.0 0 1 137.90 502.23
  L 145.82 502.23
  A 1.21 1.10 29.3 0 0 146.34 502.11
  Q 149.82 500.39 151.86 497.35
  C 153.27 495.25 152.40 493.53 151.03 491.87
  Q 150.05 490.69 146.84 490.82
  Q 143.02 490.98 138.23 490.87
  A 1.11 1.10 -89.7 0 1 137.15 489.77
  L 136.98 477.33
  L 143.94 473.92
  A 2.49 2.18 9.0 0 0 144.45 473.60
  Q 148.11 470.58 152.33 468.33
  Q 155.04 466.88 155.46 464.92
  Q 157.54 455.15 159.90 445.46
  Q 165.14 427.98 168.61 410.28
  A 1.56 1.56 0.0 0 1 169.93 409.04
  L 175.44 408.30
  A 0.58 0.53 20.8 0 0 175.69 408.20
  C 177.96 406.51 177.91 404.24 175.69 402.70
  Q 162.83 393.81 144.57 381.64
  C 140.98 379.24 137.28 376.16 133.67 373.75
  A 0.99 0.99 0.0 0 1 133.50 372.25
  Q 138.78 366.65 134.52 359.67
  C 130.10 352.40 118.81 355.79 117.26 363.67
  Q 116.30 368.60 120.22 372.37
  A 0.76 0.76 0.0 0 1 120.17 373.50
  C 116.11 376.74 111.33 379.57 107.61 382.19
  C 97.83 389.06 88.16 396.39 78.07 402.81
  C 76.96 403.53 75.28 405.13 76.18 406.60
  C 77.43 408.65 81.42 408.59 83.50 408.55
  Q 84.28 409.33 84.60 410.63
  C 86.75 419.39 90.63 435.49 94.43 448.55
  Q 96.63 456.08 98.00 465.24
  C 98.45 468.30 102.12 468.89 104.48 470.00
  Q 105.27 470.37 107.94 472.61
  Q 111.81 475.83 117.47 476.99
  L 117.36 490.20
  A 0.62 0.62 0.0 0 1 116.74 490.81
  L 105.25 490.81
  A 0.76 0.75 34.1 0 0 104.98 490.86
  C 102.10 491.81 100.59 495.26 102.65 497.95
  Q 105.08 501.11 107.51 502.17
  A 2.42 2.40 56.5 0 0 108.47 502.37
  L 116.58 502.37
  A 0.73 0.73 0.0 0 1 117.31 503.10
  L 117.27 677.16
  C 113.82 677.13 108.77 676.64 106.06 678.01
  C 102.96 679.56 100.61 685.74 105.34 686.99
  Q 107.21 688.52 105.81 692.27
  L 0.00 692.26
  L 0.00 0.00
  L 1536.00 0.00
  Z"
/>
<ellipse fill="#e9ddc0" cx="0.00" cy="0.00" transform="translate(1222.61,96.63) rotate(-68.0)" rx="8.90" ry="7.74"/>
<ellipse fill="#e9ddc0" cx="0.00" cy="0.00" transform="translate(1316.86,156.96) rotate(-90.3)" rx="22.14" ry="13.07"/>
<ellipse fill="#e9ddc0" cx="0.00" cy="0.00" transform="translate(1187.82,205.95) rotate(-124.0)" rx="14.95" ry="10.35"/>
<ellipse fill="#e9ddc0" cx="0.00" cy="0.00" transform="translate(1219.41,223.46) rotate(-125.3)" rx="9.23" ry="7.93"/>
<ellipse fill="#0f1025" cx="0.00" cy="0.00" transform="translate(1226.06,556.70) rotate(-81.0)" rx="4.49" ry="3.80"/>
<path fill="#0e1d3e" d="
  M 531.31 843.49
  L 757.33 843.69
  L 763.70 843.55
  L 915.28 843.54
  L 920.42 843.51
  L 1231.96 843.54
  L 1245.79 843.54
  L 1395.21 843.63
  L 1407.59 843.72
  L 1536.00 843.60
  L 1536.00 854.83
  Q 1522.80 854.75 1509.61 855.22
  C 1501.56 855.50 1495.28 855.07 1487.98 854.83
  A 16.84 16.71 -47.6 0 0 1485.15 854.97
  Q 1479.89 855.70 1477.26 855.42
  Q 1471.13 854.76 1468.25 854.76
  Q 1441.46 854.72 1413.75 855.52
  Q 1407.76 855.69 1378.75 854.93
  Q 1369.98 854.70 1337.33 855.34
  Q 1329.75 855.49 1324.16 855.26
  C 1314.47 854.85 1306.99 855.79 1297.78 855.28
  Q 1288.31 854.75 1285.61 854.80
  Q 1274.93 855.00 1263.50 854.81
  Q 1256.68 854.69 1249.73 855.59
  C 1247.04 855.94 1243.77 855.71 1240.79 855.91
  L 1230.04 855.90
  C 1221.66 855.80 1212.58 854.84 1204.98 854.88
  C 1192.77 854.95 1184.23 854.66 1174.69 855.19
  Q 1163.02 855.85 1148.72 855.37
  Q 1133.96 854.88 1122.77 854.98
  Q 1077.22 855.40 1066.21 855.64
  C 1059.95 855.77 1052.74 854.90 1046.40 855.02
  Q 1046.19 855.03 1037.25 854.81
  Q 1027.97 854.58 1010.98 855.28
  Q 1004.89 855.54 998.51 855.53
  Q 992.27 855.52 986.02 855.69
  L 964.80 855.66
  C 958.63 855.39 952.77 855.73 946.33 855.23
  Q 942.67 854.94 939.66 854.91
  C 919.17 854.67 899.40 855.32 879.01 855.71
  C 873.26 855.82 864.27 855.14 860.00 855.10
  Q 844.74 854.97 830.55 854.77
  C 823.93 854.68 818.25 855.47 812.33 855.26
  C 803.65 854.94 796.89 855.33 784.51 855.53
  C 780.16 855.60 775.12 855.04 771.50 854.99
  Q 746.76 854.68 725.01 855.76
  Q 719.45 856.04 702.74 855.31
  C 681.73 854.41 662.53 855.03 640.21 855.50
  C 632.21 855.67 624.92 854.68 616.08 854.82
  Q 615.74 854.82 569.25 855.42
  Q 557.66 855.57 543.00 855.07
  Q 536.94 854.87 500.87 855.03
  C 496.63 855.04 488.58 855.62 482.41 855.35
  Q 472.23 854.91 468.58 854.91
  C 454.14 854.90 446.37 854.32 434.63 855.27
  Q 420.99 856.39 408.65 855.43
  Q 402.11 854.92 400.00 854.92
  Q 357.48 854.84 288.23 854.99
  C 279.03 855.01 262.00 855.88 249.82 855.19
  C 239.94 854.63 232.70 855.16 222.52 854.89
  C 215.51 854.70 207.14 855.38 199.46 855.63
  L 168.29 855.64
  C 163.22 855.56 157.98 854.86 153.22 854.88
  Q 98.67 855.09 72.20 854.86
  Q 66.24 854.81 63.03 855.48
  L 30.84 855.45
  Q 15.84 854.54 0.00 855.08
  L 0.00 843.65
  L 147.03 843.64
  L 158.58 843.50
  L 520.91 843.59
  L 531.31 843.49
  Z"
/>
<path fill="#293a59" d="
  M 30.84 855.45
  Q 38.86 868.00 56.17 862.43
  Q 61.94 860.57 63.03 855.48
  Q 66.24 854.81 72.20 854.86
  Q 98.67 855.09 153.22 854.88
  C 157.98 854.86 163.22 855.56 168.29 855.64
  L 164.01 855.72
  A 3.49 3.47 -53.9 0 0 163.07 855.87
  Q 160.94 856.54 156.75 857.48
  C 149.51 859.11 138.65 864.78 146.30 873.79
  A 3.85 3.84 87.1 0 0 147.05 874.47
  Q 153.97 879.14 162.05 880.95
  Q 175.15 883.89 190.00 883.84
  C 199.64 883.82 224.95 881.70 219.21 865.40
  C 217.48 860.49 213.22 858.08 208.20 856.97
  A 2.63 2.54 66.6 0 1 207.34 856.61
  C 205.47 855.39 202.43 855.56 199.46 855.63
  C 207.14 855.38 215.51 854.70 222.52 854.89
  C 232.70 855.16 239.94 854.63 249.82 855.19
  C 262.00 855.88 279.03 855.01 288.23 854.99
  Q 357.48 854.84 400.00 854.92
  Q 402.11 854.92 408.65 855.43
  Q 420.99 856.39 434.63 855.27
  C 446.37 854.32 454.14 854.90 468.58 854.91
  Q 472.23 854.91 482.41 855.35
  C 488.58 855.62 496.63 855.04 500.87 855.03
  Q 536.94 854.87 543.00 855.07
  Q 557.66 855.57 569.25 855.42
  Q 615.74 854.82 616.08 854.82
  C 624.92 854.68 632.21 855.67 640.21 855.50
  C 662.53 855.03 681.73 854.41 702.74 855.31
  Q 719.45 856.04 725.01 855.76
  Q 746.76 854.68 771.50 854.99
  C 775.12 855.04 780.16 855.60 784.51 855.53
  C 796.89 855.33 803.65 854.94 812.33 855.26
  C 818.25 855.47 823.93 854.68 830.55 854.77
  Q 844.74 854.97 860.00 855.10
  C 864.27 855.14 873.26 855.82 879.01 855.71
  C 899.40 855.32 919.17 854.67 939.66 854.91
  Q 942.67 854.94 946.33 855.23
  C 952.77 855.73 958.63 855.39 964.80 855.66
  L 951.50 855.86
  A 3.77 3.43 33.7 0 0 950.57 856.00
  C 943.60 858.10 936.56 860.88 935.46 869.22
  C 934.43 877.03 941.58 880.50 948.19 881.82
  Q 956.53 883.50 966.75 883.94
  Q 981.74 884.59 1000.00 884.15
  C 1007.63 883.97 1017.88 882.99 1022.93 877.63
  Q 1026.69 873.64 1025.20 868.52
  Q 1023.01 861.01 1015.21 858.28
  Q 1012.36 857.28 1008.19 855.98
  A 3.07 2.99 53.3 0 0 1007.25 855.83
  L 986.02 855.69
  Q 992.27 855.52 998.51 855.53
  Q 1004.89 855.54 1010.98 855.28
  Q 1027.97 854.58 1037.25 854.81
  Q 1046.19 855.03 1046.40 855.02
  C 1052.74 854.90 1059.95 855.77 1066.21 855.64
  Q 1077.22 855.40 1122.77 854.98
  Q 1133.96 854.88 1148.72 855.37
  Q 1163.02 855.85 1174.69 855.19
  C 1184.23 854.66 1192.77 854.95 1204.98 854.88
  C 1212.58 854.84 1221.66 855.80 1230.04 855.90
  Q 1224.39 856.00 1218.77 856.41
  Q 1214.11 856.75 1209.54 858.78
  C 1205.35 860.65 1200.86 864.63 1201.60 869.47
  Q 1202.34 874.33 1207.28 876.77
  Q 1213.17 879.67 1217.68 880.56
  Q 1231.24 883.22 1245.36 883.46
  C 1251.72 883.56 1261.73 882.29 1266.49 877.76
  C 1272.27 872.26 1269.85 866.24 1264.08 862.17
  C 1259.67 859.07 1253.95 858.19 1248.41 856.30
  A 3.28 3.01 -32.3 0 0 1247.58 856.15
  L 1240.79 855.91
  C 1243.77 855.71 1247.04 855.94 1249.73 855.59
  Q 1256.68 854.69 1263.50 854.81
  Q 1274.93 855.00 1285.61 854.80
  Q 1288.31 854.75 1297.78 855.28
  C 1306.99 855.79 1314.47 854.85 1324.16 855.26
  Q 1329.75 855.49 1337.33 855.34
  Q 1369.98 854.70 1378.75 854.93
  Q 1407.76 855.69 1413.75 855.52
  Q 1441.46 854.72 1468.25 854.76
  Q 1471.13 854.76 1477.26 855.42
  Q 1479.89 855.70 1485.15 854.97
  A 16.84 16.71 -47.6 0 1 1487.98 854.83
  C 1495.28 855.07 1501.56 855.50 1509.61 855.22
  Q 1522.80 854.75 1536.00 854.83
  L 1536.00 932.30
  Q 1521.80 929.30 1507.01 931.45
  C 1499.97 932.47 1489.99 935.29 1487.49 942.77
  C 1483.33 955.24 1502.09 957.26 1510.28 957.45
  Q 1519.06 957.67 1528.74 957.12
  Q 1532.38 956.92 1536.00 956.42
  L 1536.00 1024.00
  L 0.00 1024.00
  L 0.00 887.16
  Q 11.02 886.54 21.62 883.57
  Q 26.23 882.29 29.83 879.86
  C 37.15 874.95 34.30 866.69 27.29 863.66
  Q 14.32 858.05 0.00 858.87
  L 0.00 855.08
  Q 15.84 854.54 30.84 855.45
  Z"
/>
<ellipse fill="#8f8d89" cx="0.00" cy="0.00" transform="translate(1535.45,904.78) rotate(-90.0)" rx="4.59" ry="0.46"/>

</svg>