<?xml version="1.0" encoding="UTF-8" standalone="no"?>
<!DOCTYPE svg PUBLIC "-//W3C//DTD SVG 1.1//EN" "http://www.w3.org/Graphics/SVG/1.1/DTD/svg11.dtd">
<svg xmlns="http://www.w3.org/2000/svg" version="1.1" viewBox="0.00 0.00 1536.00 1024.00">

<g stroke-width="2.00" fill="none" stroke-linecap="butt">
<path stroke="#202c45" vector-effect="non-scaling-stroke" d="
  M 925.69 778.64
  L 1012.30 778.88"
/>
<path stroke="#0d1220" vector-effect="non-scaling-stroke" d="
  M 1111.25 777.61
  L 1119.53 789.93"
/>
<path stroke="#454546" vector-effect="non-scaling-stroke" d="
  M 1119.53 789.93
  Q 1118.47 790.07 1119.44 792.61
  A 3.60 3.46 -59.9 0 1 1119.68 793.59
  Q 1120.57 802.65 1120.20 808.22
  C 1119.79 814.49 1115.08 815.28 1109.75 814.90
  A 1.84 1.76 -23.1 0 1 1108.79 814.54
  C 1105.15 811.76 1107.14 808.55 1107.62 804.90
  C 1108.45 798.59 1101.19 795.02 1096.40 792.68
  A 0.41 0.41 0.0 0 0 1095.81 793.06
  Q 1096.13 802.48 1092.77 810.65
  A 3.48 3.45 -12.5 0 1 1092.10 811.69
  C 1087.79 816.34 1083.82 815.86 1077.73 814.89
  A 1.56 1.53 -11.5 0 1 1076.68 814.21
  C 1073.53 809.27 1077.24 806.60 1080.78 803.87
  A 2.04 2.03 74.8 0 0 1081.54 802.54
  Q 1081.80 800.73 1081.54 799.24
  Q 1080.74 794.75 1078.76 789.89"
/>
<path stroke="#232c3a" vector-effect="non-scaling-stroke" d="
  M 1078.76 789.89
  Q 1078.58 788.10 1078.10 787.33
  A 0.75 0.73 -22.4 0 0 1077.29 787.00
  L 1066.96 789.67"
/>
<path stroke="#454546" vector-effect="non-scaling-stroke" d="
  M 1066.96 789.67
  L 1057.76 790.34
  A 0.96 0.96 0.0 0 0 1056.87 791.31
  Q 1057.02 801.53 1056.77 807.51
  Q 1056.56 812.55 1052.64 814.46
  A 3.17 3.12 -58.9 0 1 1051.42 814.77
  Q 1049.23 814.87 1044.97 815.04
  Q 1040.98 815.19 1040.64 811.21
  C 1040.38 808.24 1041.99 806.57 1043.13 804.47
  A 2.06 1.98 -33.3 0 0 1043.36 803.46
  Q 1043.08 797.56 1040.74 791.68
  A 2.08 2.07 -2.4 0 0 1039.42 790.47
  L 1037.56 789.92
  A 1.44 1.44 0.0 0 0 1035.99 790.44
  Q 1027.13 802.28 1020.39 807.86
  Q 1016.72 810.89 1010.96 810.41
  C 1007.53 810.12 1005.57 808.20 1006.17 804.74
  Q 1006.65 802.00 1007.81 801.26
  Q 1012.75 798.07 1016.64 792.04
  C 1019.71 787.28 1020.72 781.26 1022.91 775.81
  A 4.35 4.33 -45.3 0 0 1022.90 772.54
  Q 1020.41 766.52 1021.66 759.21
  A 0.97 0.97 0.0 0 0 1021.39 758.37
  C 1019.79 756.73 1017.50 755.85 1015.72 753.57"
/>
<path stroke="#292e37" vector-effect="non-scaling-stroke" d="
  M 1140.29 810.51
  Q 1139.46 810.08 1138.06 809.94"
/>
<path stroke="#454546" vector-effect="non-scaling-stroke" d="
  M 1138.06 809.94
  L 1133.17 808.59
  A 1.78 1.65 69.8 0 1 1132.58 808.29
  Q 1128.34 804.97 1129.66 799.40
  C 1130.67 795.15 1133.13 793.64 1137.70 793.46
  Q 1139.91 793.38 1147.73 792.19
  Q 1151.50 791.62 1151.64 789.95"
/>
<path stroke="#5c6066" vector-effect="non-scaling-stroke" d="
  M 1066.96 789.67
  L 1078.76 789.89"
/>
<path stroke="#46474c" vector-effect="non-scaling-stroke" d="
  M 1119.53 789.93
  L 1151.64 789.95"
/>
<path stroke="#626364" vector-effect="non-scaling-stroke" d="
  M 1138.06 809.94
  Q 1141.88 817.63 1147.76 824.80"
/>
<path stroke="#918b80" vector-effect="non-scaling-stroke" d="
  M 1147.76 824.80
  L 911.15 824.91"
/>
<path stroke="#2f333d" vector-effect="non-scaling-stroke" d="
  M 1139.07 777.68
  L 1111.25 777.61"
/>
<path stroke="#2a303e" vector-effect="non-scaling-stroke" d="
  M 1152.30 777.88
  L 1139.07 777.68"
/>
<path stroke="#918b80" vector-effect="non-scaling-stroke" d="
  M 1536.00 825.05
  L 1477.90 825.05"
/>
<path stroke="#918b80" vector-effect="non-scaling-stroke" d="
  M 1465.47 824.76
  L 1325.28 825.05"
/>
<path stroke="#918b80" vector-effect="non-scaling-stroke" d="
  M 1313.86 824.91
  L 1156.24 824.87"
/>
<path stroke="#626364" vector-effect="non-scaling-stroke" d="
  M 1156.24 824.87
  L 1149.11 814.95
  A 5.38 5.38 0.0 0 0 1145.86 812.81
  L 1140.52 811.64
  A 0.26 0.23 -10.8 0 1 1140.39 811.56
  Q 1139.93 811.09 1140.29 810.51"
/>
<path stroke="#757471" vector-effect="non-scaling-stroke" d="
  M 1325.28 825.05
  L 1313.86 824.91"
/>
<path stroke="#757471" vector-effect="non-scaling-stroke" d="
  M 1477.90 825.05
  L 1465.47 824.76"
/>
<path stroke="#757471" vector-effect="non-scaling-stroke" d="
  M 1156.24 824.87
  L 1147.76 824.80"
/>
<path stroke="#5b5b5e" vector-effect="non-scaling-stroke" d="
  M 1536.00 836.32
  L 809.95 836.16"
/>
</g>

<path d="
  M 1139.07 777.68
  L 1152.30 777.88
  L 1155.50 777.58
  Q 1154.45 784.13 1151.64 789.95
  L 1119.53 789.93
  L 1111.25 777.61
  L 1139.07 777.68
  Z"
/>
<path d="
  M 1536.00 825.05
  L 1536.00 836.32
  L 809.95 836.16
  Q 809.79 835.39 810.51 835.00
  C 814.72 832.74 815.25 830.14 815.28 824.98
  L 900.87 824.89
  L 911.15 824.91
  L 1147.76 824.80
  L 1156.24 824.87
  L 1313.86 824.91
  L 1325.28 825.05
  L 1465.47 824.76
  L 1477.90 825.05
  L 1536.00 825.05
  Z"
/>
<path d="
  M 1078.76 789.89
  L 1066.96 789.67
  L 1077.29 787.00
  A 0.75 0.73 -22.4 0 1 1078.10 787.33
  Q 1078.58 788.10 1078.76 789.89
  Z"
/>
<path d="
  M 1140.29 810.51
  Q 1139.93 811.09 1140.39 811.56
  A 0.26 0.23 -10.8 0 0 1140.52 811.64
  L 1145.86 812.81
  A 5.38 5.38 0.0 0 1 1149.11 814.95
  L 1156.24 824.87
  L 1147.76 824.80
  Q 1141.88 817.63 1138.06 809.94
  Q 1139.46 810.08 1140.29 810.51
  Z"
/>
<g fill="#786357">
<path d="
  M 1232.61 731.51
  L 1228.63 721.75
  L 1232.75 721.90
  A 0.93 0.93 0.0 0 1 1233.64 722.93
  L 1232.61 731.51
  Z"
/>
<path d="
  M 1247.73 760.25
  L 1243.79 753.96
  Q 1245.78 753.59 1247.37 754.21
  A 0.90 0.89 -84.8 0 1 1247.93 754.89
  Q 1248.38 757.45 1247.73 760.25
  Z"
/>
<path d="
  M 815.28 824.98
  C 815.25 830.14 814.72 832.74 810.51 835.00
  Q 809.79 835.39 809.95 836.16
  L 809.21 836.27
  Q 809.19 835.76 808.91 835.41
  C 808.03 834.32 806.51 835.26 805.96 833.06
  Q 805.22 830.04 805.39 826.69
  L 815.28 824.98
  Z"
/>
</g>

</svg>