<?xml version="1.0" encoding="UTF-8" standalone="no"?>
<!DOCTYPE svg PUBLIC "-//W3C//DTD SVG 1.1//EN" "http://www.w3.org/Graphics/SVG/1.1/DTD/svg11.dtd">
<svg xmlns="http://www.w3.org/2000/svg" version="1.1" viewBox="753.38 740.51 792.62 154.08" preserveAspectRatio="none">

<g stroke-width="2.00" fill="none" stroke-linecap="butt">
<path stroke="#694a3c" vector-effect="non-scaling-stroke" d="
  M 1142.16 797.85
  Q 1141.21 796.05 1140.81 796.06"
/>
<path stroke="#8c664b" vector-effect="non-scaling-stroke" d="
  M 1140.81 796.06
  Q 1135.17 788.56 1130.86 781.63
  Q 1130.40 780.88 1129.48 780.91"
/>
<path stroke="#5b2a11" vector-effect="non-scaling-stroke" d="
  M 1129.48 780.91
  Q 1129.64 780.01 1129.16 779.36
  Q 1124.31 772.80 1119.78 766.15
  A 0.51 0.51 0.0 0 0 1119.21 765.95
  L 1107.75 769.26"
/>
<path stroke="#8c664b" vector-effect="non-scaling-stroke" d="
  M 1107.75 769.26
  Q 1102.87 770.22 1100.99 770.48
  Q 1088.91 772.17 1076.79 771.57
  A 0.44 0.44 0.0 0 0 1076.33 772.10
  Q 1077.91 780.34 1079.72 788.26
  C 1080.96 793.71 1082.15 802.53 1074.28 802.46
  C 1071.38 802.43 1065.76 802.70 1064.29 800.42
  Q 1059.97 793.67 1054.85 780.76"
/>
<path stroke="#67696e" vector-effect="non-scaling-stroke" d="
  M 1235.62 817.74
  Q 1226.86 818.30 1218.76 818.18
  Q 1206.81 817.99 1206.73 817.99
  Q 1063.52 818.18 920.28 818.02"
/>
<path stroke="#5e524f" vector-effect="non-scaling-stroke" d="
  M 1036.36 762.65
  L 1025.96 784.93
  A 4.87 4.83 -86.9 0 1 1023.16 787.46
  Q 1017.89 789.30 1015.90 793.93"
/>
<path stroke="#6d717a" vector-effect="non-scaling-stroke" d="
  M 1015.90 793.93
  Q 1013.83 794.58 1011.13 795.01
  A 1.72 1.71 -21.3 0 0 1009.97 797.65
  Q 1010.37 798.27 1011.61 798.65
  Q 1013.14 799.13 1017.56 799.18"
/>
<path stroke="#5e524f" vector-effect="non-scaling-stroke" d="
  M 1017.56 799.18
  Q 1027.37 802.11 1037.67 800.36"
/>
<path stroke="#6d717a" vector-effect="non-scaling-stroke" d="
  M 1037.67 800.36
  Q 1042.72 800.97 1048.12 800.05
  A 0.78 0.78 0.0 0 0 1048.73 799.03
  Q 1048.07 797.14 1046.57 795.68
  C 1045.91 795.04 1044.16 794.99 1043.10 794.42"
/>
<path stroke="#5e524f" vector-effect="non-scaling-stroke" d="
  M 1043.10 794.42
  L 1054.85 780.76"
/>
<path stroke="#5e524f" vector-effect="non-scaling-stroke" d="
  M 1107.75 769.26
  Q 1109.08 776.02 1107.55 781.98
  C 1107.01 784.05 1105.37 787.02 1103.52 787.81
  C 1099.83 789.39 1096.90 791.35 1095.98 795.25
  C 1095.11 798.93 1098.60 800.69 1101.78 800.89
  Q 1111.30 801.46 1118.19 800.36"
/>
<path stroke="#6d717a" vector-effect="non-scaling-stroke" d="
  M 1118.19 800.36
  Q 1130.44 800.96 1142.16 797.85"
/>
<path stroke="#3c3640" vector-effect="non-scaling-stroke" d="
  M 1043.10 794.42
  L 1037.67 800.36"
/>
<path stroke="#3c3640" vector-effect="non-scaling-stroke" d="
  M 1017.56 799.18
  Q 1016.03 796.66 1015.90 793.93"
/>
<path stroke="#363b4b" vector-effect="non-scaling-stroke" d="
  M 1407.06 818.04
  Q 1407.12 826.46 1406.84 835.44
  Q 1406.74 838.63 1407.59 843.72"
/>
<path stroke="#1d2841" vector-effect="non-scaling-stroke" d="
  M 1407.59 843.72
  L 1395.21 843.63"
/>
<path stroke="#363b4b" vector-effect="non-scaling-stroke" d="
  M 1395.21 843.63
  L 1397.44 843.56
  A 1.77 1.76 -0.8 0 0 1399.16 841.80
  Q 1399.21 830.24 1399.10 819.83
  Q 1399.07 817.21 1396.77 817.86"
/>
<path stroke="#5e524f" vector-effect="non-scaling-stroke" d="
  M 1129.48 780.91
  Q 1126.96 787.53 1122.82 793.67"
/>
<path stroke="#3c3640" vector-effect="non-scaling-stroke" d="
  M 1122.82 793.67
  L 1118.19 800.36"
/>
<path stroke="#6d717a" vector-effect="non-scaling-stroke" d="
  M 1140.81 796.06
  Q 1131.74 794.15 1122.82 793.67"
/>
<path stroke="#363b4b" vector-effect="non-scaling-stroke" d="
  M 1243.72 818.00
  Q 1243.84 826.56 1243.40 835.16
  Q 1243.16 839.76 1245.79 843.54"
/>
<path stroke="#1d2841" vector-effect="non-scaling-stroke" d="
  M 1245.79 843.54
  L 1231.96 843.54"
/>
<path stroke="#363b4b" vector-effect="non-scaling-stroke" d="
  M 1231.96 843.54
  L 1234.24 843.43
  A 2.29 2.27 -89.4 0 0 1236.41 841.29
  Q 1237.21 828.80 1235.62 817.74"
/>
<path stroke="#273149" vector-effect="non-scaling-stroke" d="
  M 1231.96 843.54
  L 920.42 843.51"
/>
<path stroke="#273149" vector-effect="non-scaling-stroke" d="
  M 1395.21 843.63
  L 1245.79 843.54"
/>
<path stroke="#273149" vector-effect="non-scaling-stroke" d="
  M 1536.00 843.60
  L 1407.59 843.72"
/>
<path stroke="#1c2c4c" vector-effect="non-scaling-stroke" d="
  M 1536.00 854.83
  Q 1522.80 854.75 1509.61 855.22
  C 1501.56 855.50 1495.28 855.07 1487.98 854.83
  A 16.84 16.71 -47.6 0 0 1485.15 854.97
  Q 1479.89 855.70 1477.26 855.42
  Q 1471.13 854.76 1468.25 854.76
  Q 1441.46 854.72 1413.75 855.52
  Q 1407.76 855.69 1378.75 854.93
  Q 1369.98 854.70 1337.33 855.34
  Q 1329.75 855.49 1324.16 855.26
  C 1314.47 854.85 1306.99 855.79 1297.78 855.28
  Q 1288.31 854.75 1285.61 854.80
  Q 1274.93 855.00 1263.50 854.81
  Q 1256.68 854.69 1249.73 855.59
  C 1247.04 855.94 1243.77 855.71 1240.79 855.91"
/>
<path stroke="#3e485e" vector-effect="non-scaling-stroke" d="
  M 1240.79 855.91
  L 1230.04 855.90"
/>
<path stroke="#1c2c4c" vector-effect="non-scaling-stroke" d="
  M 1230.04 855.90
  C 1221.66 855.80 1212.58 854.84 1204.98 854.88
  C 1192.77 854.95 1184.23 854.66 1174.69 855.19
  Q 1163.02 855.85 1148.72 855.37
  Q 1133.96 854.88 1122.77 854.98
  Q 1077.22 855.40 1066.21 855.64
  C 1059.95 855.77 1052.74 854.90 1046.40 855.02
  Q 1046.19 855.03 1037.25 854.81
  Q 1027.97 854.58 1010.98 855.28
  Q 1004.89 855.54 998.51 855.53
  Q 992.27 855.52 986.02 855.69"
/>
<path stroke="#3e485e" vector-effect="non-scaling-stroke" d="
  M 986.02 855.69
  L 964.80 855.66"
/>
<path stroke="#4b566c" vector-effect="non-scaling-stroke" d="
  M 964.80 855.66
  L 951.50 855.86
  A 3.77 3.43 33.7 0 0 950.57 856.00
  C 943.60 858.10 936.56 860.88 935.46 869.22
  C 934.43 877.03 941.58 880.50 948.19 881.82
  Q 956.53 883.50 966.75 883.94
  Q 981.74 884.59 1000.00 884.15
  C 1007.63 883.97 1017.88 882.99 1022.93 877.63
  Q 1026.69 873.64 1025.20 868.52
  Q 1023.01 861.01 1015.21 858.28
  Q 1012.36 857.28 1008.19 855.98
  A 3.07 2.99 53.3 0 0 1007.25 855.83
  L 986.02 855.69"
/>
<path stroke="#4b566c" vector-effect="non-scaling-stroke" d="
  M 1230.04 855.90
  Q 1224.39 856.00 1218.77 856.41
  Q 1214.11 856.75 1209.54 858.78
  C 1205.35 860.65 1200.86 864.63 1201.60 869.47
  Q 1202.34 874.33 1207.28 876.77
  Q 1213.17 879.67 1217.68 880.56
  Q 1231.24 883.22 1245.36 883.46
  C 1251.72 883.56 1261.73 882.29 1266.49 877.76
  C 1272.27 872.26 1269.85 866.24 1264.08 862.17
  C 1259.67 859.07 1253.95 858.19 1248.41 856.30
  A 3.28 3.01 -32.3 0 0 1247.58 856.15
  L 1240.79 855.91"
/>
</g>

<path fill="#8f8d89" d="
  M 1200.93 750.51
  L 1193.71 767.40
  C 1189.51 765.42 1187.27 766.29 1182.04 767.47
  A 4.29 4.28 -67.3 0 0 1180.73 768.01
  Q 1174.14 772.10 1174.89 779.76
  A 3.19 3.18 -81.6 0 0 1176.83 782.38
  L 1195.39 790.07
  Q 1195.72 790.82 1195.47 791.28
  Q 1195.21 791.74 1194.45 791.64
  Q 1193.09 791.47 1192.60 792.11
  A 0.58 0.57 24.2 0 0 1192.95 793.02
  Q 1198.24 794.01 1201.69 796.29
  C 1206.14 799.23 1211.64 799.85 1216.87 799.88
  L 1235.62 817.74
  Q 1226.86 818.30 1218.76 818.18
  Q 1206.81 817.99 1206.73 817.99
  Q 1063.52 818.18 920.28 818.02
  L 895.24 767.27
  A 2.58 2.55 76.6 0 0 892.95 765.84
  L 890.28 765.84
  A 0.41 0.41 0.0 0 0 889.91 766.43
  L 914.77 818.01
  L 763.38 817.99
  L 765.42 765.91
  Q 772.23 765.99 771.44 763.76
  L 774.96 763.65
  L 819.79 763.69
  L 881.75 763.60
  L 949.58 762.78
  L 1036.36 762.65
  L 1025.96 784.93
  A 4.87 4.83 -86.9 0 1 1023.16 787.46
  Q 1017.89 789.30 1015.90 793.93
  Q 1013.83 794.58 1011.13 795.01
  A 1.72 1.71 -21.3 0 0 1009.97 797.65
  Q 1010.37 798.27 1011.61 798.65
  Q 1013.14 799.13 1017.56 799.18
  Q 1027.37 802.11 1037.67 800.36
  Q 1042.72 800.97 1048.12 800.05
  A 0.78 0.78 0.0 0 0 1048.73 799.03
  Q 1048.07 797.14 1046.57 795.68
  C 1045.91 795.04 1044.16 794.99 1043.10 794.42
  L 1054.85 780.76
  Q 1059.97 793.67 1064.29 800.42
  C 1065.76 802.70 1071.38 802.43 1074.28 802.46
  C 1082.15 802.53 1080.96 793.71 1079.72 788.26
  Q 1077.91 780.34 1076.33 772.10
  A 0.44 0.44 0.0 0 1 1076.79 771.57
  Q 1088.91 772.17 1100.99 770.48
  Q 1102.87 770.22 1107.75 769.26
  Q 1109.08 776.02 1107.55 781.98
  C 1107.01 784.05 1105.37 787.02 1103.52 787.81
  C 1099.83 789.39 1096.90 791.35 1095.98 795.25
  C 1095.11 798.93 1098.60 800.69 1101.78 800.89
  Q 1111.30 801.46 1118.19 800.36
  Q 1130.44 800.96 1142.16 797.85
  Q 1143.30 798.26 1144.64 799.67
  C 1147.29 802.44 1152.19 802.08 1156.01 801.82
  C 1160.77 801.49 1162.18 795.77 1160.64 791.83
  Q 1160.10 790.45 1151.01 769.97
  Q 1147.33 761.69 1148.42 751.71
  Q 1148.23 750.72 1149.02 750.72
  Q 1174.72 750.62 1200.93 750.51
  Z"
/>
<path fill="#2d1615" d="
  M 1054.85 780.76
  L 1043.10 794.42
  L 1037.67 800.36
  Q 1027.37 802.11 1017.56 799.18
  Q 1016.03 796.66 1015.90 793.93
  Q 1017.89 789.30 1023.16 787.46
  A 4.87 4.83 -86.9 0 0 1025.96 784.93
  L 1036.36 762.65
  L 1039.01 755.00
  Q 1039.11 754.95 1039.31 755.04
  A 0.35 0.31 82.4 0 1 1039.47 755.18
  L 1054.85 780.76
  Z"
/>
<path fill="#2d1615" d="
  M 1129.48 780.91
  Q 1126.96 787.53 1122.82 793.67
  L 1118.19 800.36
  Q 1111.30 801.46 1101.78 800.89
  C 1098.60 800.69 1095.11 798.93 1095.98 795.25
  C 1096.90 791.35 1099.83 789.39 1103.52 787.81
  C 1105.37 787.02 1107.01 784.05 1107.55 781.98
  Q 1109.08 776.02 1107.75 769.26
  L 1119.21 765.95
  A 0.51 0.51 0.0 0 1 1119.78 766.15
  Q 1124.31 772.80 1129.16 779.36
  Q 1129.64 780.01 1129.48 780.91
  Z"
/>
<path fill="#8f8d89" d="
  M 1140.81 796.06
  Q 1131.74 794.15 1122.82 793.67
  Q 1126.96 787.53 1129.48 780.91
  Q 1130.40 780.88 1130.86 781.63
  Q 1135.17 788.56 1140.81 796.06
  Z"
/>
<path fill="#4a556b" d="
  M 1122.82 793.67
  Q 1131.74 794.15 1140.81 796.06
  Q 1141.21 796.05 1142.16 797.85
  Q 1130.44 800.96 1118.19 800.36
  L 1122.82 793.67
  Z"
/>
<path fill="#4a556b" d="
  M 1015.90 793.93
  Q 1016.03 796.66 1017.56 799.18
  Q 1013.14 799.13 1011.61 798.65
  Q 1010.37 798.27 1009.97 797.65
  A 1.72 1.71 -21.3 0 1 1011.13 795.01
  Q 1013.83 794.58 1015.90 793.93
  Z"
/>
<path fill="#4a556b" d="
  M 1043.10 794.42
  C 1044.16 794.99 1045.91 795.04 1046.57 795.68
  Q 1048.07 797.14 1048.73 799.03
  A 0.78 0.78 0.0 0 1 1048.12 800.05
  Q 1042.72 800.97 1037.67 800.36
  L 1043.10 794.42
  Z"
/>
<path fill="#2c3243" d="
  M 1220.44 796.10
  Q 1220.12 797.96 1223.41 799.25
  L 1243.72 818.00
  Q 1243.84 826.56 1243.40 835.16
  Q 1243.16 839.76 1245.79 843.54
  L 1231.96 843.54
  L 1234.24 843.43
  A 2.29 2.27 -89.4 0 0 1236.41 841.29
  Q 1237.21 828.80 1235.62 817.74
  L 1216.87 799.88
  L 1214.22 797.55
  L 1220.44 796.10
  Z"
/>
<path fill="#3f4453" d="
  M 1231.96 843.54
  L 920.42 843.51
  L 920.28 818.02
  Q 1063.52 818.18 1206.73 817.99
  Q 1206.81 817.99 1218.76 818.18
  Q 1226.86 818.30 1235.62 817.74
  Q 1237.21 828.80 1236.41 841.29
  A 2.29 2.27 -89.4 0 1 1234.24 843.43
  L 1231.96 843.54
  Z"
/>
<path fill="#3f4453" d="
  M 1395.21 843.63
  L 1245.79 843.54
  Q 1243.16 839.76 1243.40 835.16
  Q 1243.84 826.56 1243.72 818.00
  L 1396.77 817.86
  Q 1399.07 817.21 1399.10 819.83
  Q 1399.21 830.24 1399.16 841.80
  A 1.77 1.76 -0.8 0 1 1397.44 843.56
  L 1395.21 843.63
  Z"
/>
<path fill="#3f4453" d="
  M 1536.00 817.95
  L 1536.00 843.60
  L 1407.59 843.72
  Q 1406.74 838.63 1406.84 835.44
  Q 1407.12 826.46 1407.06 818.04
  L 1536.00 817.95
  Z"
/>
<path fill="#6d727e" d="
  M 1490.10 855.62
  Q 1490.12 855.62 1490.25 855.63
  Q 1495.10 855.91 1498.09 855.95
  C 1503.99 856.03 1510.68 857.86 1515.75 860.00
  C 1520.14 861.85 1524.58 866.35 1524.08 871.44
  C 1522.87 883.99 1498.82 884.29 1489.79 884.20
  C 1480.76 884.10 1456.72 883.28 1455.78 870.70
  C 1455.39 865.60 1459.93 861.20 1464.36 859.45
  C 1469.47 857.42 1476.20 855.73 1482.10 855.78
  Q 1485.09 855.80 1489.95 855.63
  Q 1490.08 855.62 1490.10 855.62
  Z"
/>
<path fill="#6d727e" d="
  M 964.80 855.66
  L 986.02 855.69
  L 1007.25 855.83
  A 3.07 2.99 53.3 0 1 1008.19 855.98
  Q 1012.36 857.28 1015.21 858.28
  Q 1023.01 861.01 1025.20 868.52
  Q 1026.69 873.64 1022.93 877.63
  C 1017.88 882.99 1007.63 883.97 1000.00 884.15
  Q 981.74 884.59 966.75 883.94
  Q 956.53 883.50 948.19 881.82
  C 941.58 880.50 934.43 877.03 935.46 869.22
  C 936.56 860.88 943.60 858.10 950.57 856.00
  A 3.77 3.43 33.7 0 1 951.50 855.86
  L 964.80 855.66
  Z"
/>
<path fill="#545e71" d="
  M 1063.42 856.05
  C 1065.58 856.02 1067.64 855.65 1069.54 855.70
  Q 1078.32 855.93 1087.68 855.86
  C 1092.25 855.82 1096.73 857.15 1099.75 858.00
  Q 1106.97 860.02 1111.10 866.46
  A 3.36 3.19 24.4 0 1 1111.57 867.62
  C 1113.44 876.99 1105.27 880.86 1097.52 881.86
  Q 1079.32 884.22 1060.05 882.23
  C 1053.16 881.51 1039.84 878.20 1042.87 867.93
  C 1044.71 861.68 1057.43 856.13 1063.42 856.05
  Z"
/>
<path fill="#6d727e" d="
  M 1230.04 855.90
  L 1240.79 855.91
  L 1247.58 856.15
  A 3.28 3.01 -32.3 0 1 1248.41 856.30
  C 1253.95 858.19 1259.67 859.07 1264.08 862.17
  C 1269.85 866.24 1272.27 872.26 1266.49 877.76
  C 1261.73 882.29 1251.72 883.56 1245.36 883.46
  Q 1231.24 883.22 1217.68 880.56
  Q 1213.17 879.67 1207.28 876.77
  Q 1202.34 874.33 1201.60 869.47
  C 1200.86 864.63 1205.35 860.65 1209.54 858.78
  Q 1214.11 856.75 1218.77 856.41
  Q 1224.39 856.00 1230.04 855.90
  Z"
/>
<path fill="#4a556b" d="
  M 1422.85 856.92
  C 1428.15 858.53 1433.26 859.89 1437.57 863.30
  C 1443.02 867.62 1443.99 874.07 1438.16 878.67
  C 1433.87 882.05 1425.74 883.16 1419.50 883.29
  Q 1402.73 883.65 1385.68 878.56
  C 1380.54 877.02 1373.01 874.11 1371.70 869.06
  C 1370.09 862.81 1378.37 858.39 1383.25 856.98
  Q 1386.38 856.07 1393.35 856.10
  Q 1405.37 856.14 1418.27 856.03
  C 1419.93 856.02 1420.98 856.35 1422.85 856.92
  Z"
/>

</svg>