<?xml version="1.0" encoding="UTF-8" standalone="no"?>
<!DOCTYPE svg PUBLIC "-//W3C//DTD SVG 1.1//EN" "http://www.w3.org/Graphics/SVG/1.1/DTD/svg11.dtd">
<svg xmlns="http://www.w3.org/2000/svg" version="1.1" viewBox="1132.16 276.30 413.84 577.42" preserveAspectRatio="none">

<g stroke-width="2.00" fill="none" stroke-linecap="butt">
<path stroke="#163269" vector-effect="non-scaling-stroke" d="
  M 1536.00 692.28
  L 1425.12 692.35"
/>
<path stroke="#132859" vector-effect="non-scaling-stroke" d="
  M 1425.12 692.35
  Q 1424.47 689.72 1425.25 687.28"
/>
<path stroke="#213660" vector-effect="non-scaling-stroke" d="
  M 1425.25 687.28
  Q 1427.54 686.69 1427.88 684.10
  C 1428.47 679.72 1424.48 676.93 1420.45 676.86
  C 1418.14 676.81 1416.22 676.76 1414.72 676.87
  A 0.44 0.43 -15.3 0 1 1414.30 676.64
  L 1414.15 676.36"
/>
<path stroke="#132859" vector-effect="non-scaling-stroke" d="
  M 1414.15 676.36
  L 1413.99 503.45
  A 1.03 1.03 0.0 0 1 1415.02 502.42
  L 1422.32 502.42
  A 2.19 2.15 -57.8 0 0 1423.29 502.19
  Q 1427.24 500.26 1429.34 496.43
  A 1.96 1.93 -33.9 0 0 1429.56 495.35
  Q 1429.26 492.17 1426.78 491.01
  A 1.24 1.21 -31.6 0 0 1426.25 490.89
  L 1415.01 490.89
  A 1.18 1.17 -89.8 0 1 1413.84 489.70
  L 1413.97 478.06"
/>
<path stroke="#122b5e" vector-effect="non-scaling-stroke" d="
  M 1413.97 478.06
  Q 1413.60 477.21 1414.32 476.40
  A 1.40 1.38 16.7 0 1 1415.17 475.95
  C 1419.60 475.40 1421.52 473.62 1424.97 470.59
  A 2.61 2.54 10.3 0 1 1425.52 470.22
  L 1430.82 467.39
  A 2.67 2.63 -7.8 0 0 1432.15 465.66
  L 1442.13 422.94"
/>
<path stroke="#132859" vector-effect="non-scaling-stroke" d="
  M 1442.13 422.94
  L 1445.77 409.93
  A 1.43 1.41 4.2 0 1 1446.98 408.90
  C 1449.20 408.64 1451.64 409.00 1453.29 406.84
  C 1454.67 405.05 1453.36 403.38 1451.76 402.29
  Q 1427.77 386.05 1410.64 373.81
  A 1.46 1.46 0.0 0 1 1410.43 371.62
  C 1418.11 363.57 1408.00 351.31 1397.98 357.34
  Q 1395.10 359.08 1394.17 362.15
  C 1392.94 366.20 1394.29 369.08 1396.51 372.53
  A 0.69 0.67 -41.5 0 1 1396.45 373.34
  Q 1395.31 374.67 1394.02 375.53
  Q 1387.86 379.60 1383.04 383.19
  C 1373.00 390.65 1364.00 396.37 1353.48 404.13
  A 1.80 1.79 -39.1 0 0 1353.20 406.76
  C 1354.98 408.77 1357.90 408.28 1360.44 408.52
  A 0.87 0.85 86.1 0 1 1361.19 409.19
  L 1362.69 415.95"
/>
<path stroke="#122b5e" vector-effect="non-scaling-stroke" d="
  M 1362.69 415.95
  L 1375.06 465.37
  A 4.17 4.15 5.5 0 0 1377.35 468.14
  Q 1382.08 470.33 1387.29 474.69
  Q 1389.12 476.23 1392.70 476.30
  Q 1393.43 476.31 1393.80 476.65
  Q 1394.24 477.05 1394.15 477.73"
/>
<path stroke="#132859" vector-effect="non-scaling-stroke" d="
  M 1394.15 477.73
  L 1394.23 489.43
  A 1.44 1.44 0.0 0 1 1392.79 490.88
  L 1381.68 490.88
  A 0.96 0.85 -54.7 0 0 1381.29 490.97
  Q 1378.85 492.09 1378.47 495.20
  A 1.87 1.83 -56.0 0 0 1378.67 496.29
  Q 1381.05 500.84 1385.36 502.33
  A 0.87 0.85 -34.5 0 0 1385.65 502.38
  L 1393.07 502.45
  A 0.97 0.97 0.0 0 1 1394.03 503.42
  L 1393.78 676.48"
/>
<path stroke="#213660" vector-effect="non-scaling-stroke" d="
  M 1393.78 676.48
  Q 1393.47 676.90 1393.19 676.91
  C 1389.03 677.06 1378.57 676.27 1379.56 684.25
  Q 1379.88 686.85 1382.64 687.22"
/>
<path stroke="#132859" vector-effect="non-scaling-stroke" d="
  M 1382.64 687.22
  Q 1383.35 689.60 1382.68 692.25"
/>
<path stroke="#163269" vector-effect="non-scaling-stroke" d="
  M 1382.68 692.25
  L 1307.66 692.61
  A 0.94 0.94 0.0 0 0 1306.84 693.09
  L 1306.48 693.70
  A 0.36 0.35 -78.2 0 1 1306.21 693.88
  Q 1305.64 693.92 1305.42 693.28"
/>
<path stroke="#845a5f" vector-effect="non-scaling-stroke" d="
  M 1305.42 693.28
  Q 1306.65 689.57 1306.11 687.25
  Q 1304.74 681.33 1303.34 675.39"
/>
<path stroke="#12445f" vector-effect="non-scaling-stroke" d="
  M 1303.34 675.39
  Q 1298.53 654.04 1296.47 647.80
  Q 1292.31 635.23 1287.41 622.94
  Q 1285.55 618.26 1284.03 613.60"
/>
<path stroke="#0d3252" vector-effect="non-scaling-stroke" d="
  M 1284.03 613.60
  Q 1288.71 609.50 1289.57 604.04
  Q 1290.83 596.08 1287.87 589.18
  C 1283.04 577.94 1273.13 581.80 1263.68 581.21"
/>
<path stroke="#845a5f" vector-effect="non-scaling-stroke" d="
  M 1263.68 581.21
  Q 1265.42 579.37 1264.07 578.35"
/>
<path stroke="#132551" vector-effect="non-scaling-stroke" d="
  M 1264.07 578.35
  Q 1272.53 572.53 1275.69 562.07
  Q 1277.17 557.16 1277.48 551.98
  Q 1277.55 550.79 1276.98 551.02"
/>
<path stroke="#2c5495" vector-effect="non-scaling-stroke" d="
  M 1276.98 551.02
  Q 1279.59 544.64 1278.69 537.00
  C 1277.09 523.57 1262.86 515.91 1251.06 514.24
  Q 1242.32 513.00 1236.09 515.31
  C 1227.94 518.33 1223.03 526.13 1218.86 533.20"
/>
<path stroke="#0d3252" vector-effect="non-scaling-stroke" d="
  M 1233.78 587.41
  L 1229.03 596.82
  A 0.85 0.59 -34.7 0 0 1228.97 596.98
  L 1227.91 601.14"
/>
<path stroke="#0f1a39" vector-effect="non-scaling-stroke" d="
  M 1442.13 422.94
  C 1437.08 426.68 1436.40 429.64 1435.03 435.85
  C 1433.47 442.92 1431.14 449.79 1428.78 456.64"
/>
<path stroke="#85581a" vector-effect="non-scaling-stroke" d="
  M 1428.78 456.64
  L 1439.10 410.60
  A 0.69 0.68 6.1 0 0 1438.43 409.77
  L 1426.49 409.77
  A 0.66 0.65 4.0 0 0 1425.84 410.33
  L 1419.63 454.57"
/>
<path stroke="#0f1a39" vector-effect="non-scaling-stroke" d="
  M 1419.63 454.57
  C 1417.40 452.62 1414.95 453.56 1412.43 454.56"
/>
<path stroke="#85581a" vector-effect="non-scaling-stroke" d="
  M 1412.43 454.56
  L 1418.59 410.05
  A 0.49 0.49 0.0 0 0 1418.11 409.49
  L 1389.43 409.49
  A 0.39 0.39 0.0 0 0 1389.04 409.93
  L 1395.70 459.46
  A 0.94 0.94 0.0 0 0 1396.60 460.28
  L 1398.73 460.34"
/>
<path stroke="#0f1a39" vector-effect="non-scaling-stroke" d="
  M 1398.73 460.34
  L 1395.48 460.62
  A 0.70 0.69 80.8 0 1 1394.75 460.09
  C 1394.40 458.64 1393.23 456.02 1391.29 456.63
  Q 1389.33 457.26 1388.48 459.82"
/>
<path stroke="#85581a" vector-effect="non-scaling-stroke" d="
  M 1388.48 459.82
  L 1381.78 410.04
  A 0.66 0.66 0.0 0 0 1381.09 409.47
  L 1368.57 410.17
  A 1.10 1.10 0.0 0 0 1367.56 411.51
  L 1369.57 420.32"
/>
<path stroke="#0f1a39" vector-effect="non-scaling-stroke" d="
  M 1369.57 420.32
  Q 1365.72 419.17 1362.69 415.95"
/>
<path stroke="#845c1f" vector-effect="non-scaling-stroke" d="
  M 1388.48 459.82
  Q 1384.83 460.70 1380.42 460.13
  A 0.77 0.75 -3.4 0 1 1379.79 459.58
  L 1369.57 420.32"
/>
<path stroke="#845c1f" vector-effect="non-scaling-stroke" d="
  M 1412.43 454.56
  L 1411.49 459.84
  A 0.58 0.58 0.0 0 1 1410.92 460.33
  L 1398.73 460.34"
/>
<path stroke="#845c1f" vector-effect="non-scaling-stroke" d="
  M 1428.78 456.64
  Q 1428.49 461.04 1419.38 460.22
  A 0.51 0.50 -83.4 0 1 1418.93 459.65
  L 1419.63 454.57"
/>
<path stroke="#0f1a39" vector-effect="non-scaling-stroke" d="
  M 1413.97 478.06
  Q 1404.67 474.81 1394.15 477.73"
/>
<path stroke="#1e243c" vector-effect="non-scaling-stroke" d="
  M 1414.15 676.36
  Q 1413.43 677.05 1413.02 677.08
  Q 1402.73 677.67 1394.42 677.05
  Q 1393.91 677.01 1393.78 676.48"
/>
<path stroke="#284069" vector-effect="non-scaling-stroke" d="
  M 1276.98 551.02
  L 1252.56 545.87"
/>
<path stroke="#284371" vector-effect="non-scaling-stroke" d="
  M 1252.56 545.87
  C 1250.37 545.33 1248.13 544.85 1246.04 544.03
  Q 1232.51 538.77 1218.86 533.20"
/>
<path stroke="#0f132d" vector-effect="non-scaling-stroke" d="
  M 1252.56 545.87
  C 1246.42 544.64 1242.31 546.51 1236.79 547.33"
/>
<path stroke="#814633" vector-effect="non-scaling-stroke" d="
  M 1264.07 578.35
  Q 1259.99 575.13 1258.79 570.71
  A 0.83 0.82 64.5 0 1 1259.09 569.84
  Q 1259.38 569.63 1260.95 568.65
  C 1266.39 565.25 1268.41 553.94 1259.73 553.13
  C 1255.52 552.74 1253.65 556.00 1252.17 559.34
  A 1.68 1.67 -53.1 0 1 1249.36 559.74
  Q 1245.13 554.76 1244.62 547.83
  A 0.62 0.62 0.0 0 0 1244.00 547.26
  L 1236.79 547.33"
/>
<path stroke="#7b5334" vector-effect="non-scaling-stroke" d="
  M 1263.68 581.21
  Q 1247.90 586.66 1239.12 589.14
  Q 1237.84 589.50 1237.37 588.19
  A 0.96 0.96 0.0 0 0 1236.72 587.59
  Q 1234.90 587.10 1233.78 587.41"
/>
<path stroke="#083d34" vector-effect="non-scaling-stroke" d="
  M 1284.03 613.60
  Q 1282.82 610.41 1280.03 604.73
  C 1276.65 597.87 1270.71 593.82 1263.12 593.50
  Q 1260.30 593.38 1254.56 595.85
  Q 1253.34 596.37 1240.07 601.30
  Q 1233.53 603.72 1227.91 601.14"
/>
<path stroke="#806541" vector-effect="non-scaling-stroke" d="
  M 1303.34 675.39
  Q 1291.37 679.01 1280.61 681.57
  Q 1278.25 682.12 1277.15 683.27"
/>
<path stroke="#0a3935" vector-effect="non-scaling-stroke" d="
  M 1277.15 683.27
  L 1275.85 681.29
  A 2.27 2.24 -68.2 0 1 1275.51 680.48
  Q 1270.59 658.42 1267.04 647.11
  Q 1264.72 639.69 1260.39 633.32
  Q 1255.56 626.20 1252.34 617.86
  A 0.55 0.55 0.0 0 0 1251.38 617.74
  Q 1251.20 617.99 1251.19 618.53
  Q 1251.17 620.35 1252.09 624.22
  Q 1254.13 632.75 1258.90 648.98
  Q 1261.66 658.38 1262.32 663.75
  Q 1263.44 672.82 1263.39 678.92
  A 3.80 3.78 74.9 0 1 1261.55 682.14
  C 1257.83 684.37 1250.96 684.59 1244.54 684.60"
/>
<path stroke="#0e3033" vector-effect="non-scaling-stroke" d="
  M 1244.54 684.60
  Q 1234.11 685.79 1226.14 683.62
  Q 1223.37 682.86 1222.13 679.54"
/>
<path stroke="#7d4f35" vector-effect="non-scaling-stroke" d="
  M 1277.15 683.27
  L 1277.51 684.43"
/>
<path stroke="#0b1c2f" vector-effect="non-scaling-stroke" d="
  M 1277.51 684.43
  L 1270.03 686.62"
/>
<path stroke="#0b1927" vector-effect="non-scaling-stroke" d="
  M 1270.03 686.62
  L 1244.54 684.60"
/>
<path stroke="#0f132d" vector-effect="non-scaling-stroke" d="
  M 1270.03 686.62
  L 1273.88 686.45
  A 1.74 1.58 -5.0 0 1 1275.67 687.82
  L 1275.70 688.02
  A 1.51 1.50 84.8 0 1 1274.30 689.71
  Q 1252.80 691.05 1234.36 691.12
  Q 1227.68 691.15 1220.44 689.03"
/>
<path stroke="#84534b" vector-effect="non-scaling-stroke" d="
  M 1305.42 693.28
  Q 1303.61 698.49 1298.34 701.07
  Q 1287.80 706.22 1280.18 696.94"
/>
<path stroke="#81493b" vector-effect="non-scaling-stroke" d="
  M 1280.18 696.94
  C 1277.76 693.62 1277.96 688.39 1277.51 684.43"
/>
<path stroke="#1e243c" vector-effect="non-scaling-stroke" d="
  M 1425.25 687.28
  Q 1403.88 686.02 1382.64 687.22"
/>
<path stroke="#132145" vector-effect="non-scaling-stroke" d="
  M 1280.18 696.94
  Q 1279.24 696.80 1278.74 697.01
  A 0.68 0.67 -24.6 0 0 1278.39 697.94
  L 1281.49 703.96
  A 7.16 6.97 -65.6 0 1 1282.12 705.71
  C 1282.82 708.92 1283.67 713.23 1285.66 716.33
  C 1289.47 722.23 1293.62 727.61 1298.28 734.70
  Q 1303.65 742.86 1309.45 750.53"
/>
<path stroke="#4f525f" vector-effect="non-scaling-stroke" d="
  M 1309.45 750.53
  Q 1310.49 754.17 1312.55 756.13"
/>
<path stroke="#281e2b" vector-effect="non-scaling-stroke" d="
  M 1312.55 756.13
  Q 1307.87 758.96 1294.27 766.76
  Q 1289.68 769.39 1286.18 770.87
  A 1.05 1.04 40.7 0 1 1285.48 770.92
  L 1285.00 770.79"
/>
<path stroke="#4f525f" vector-effect="non-scaling-stroke" d="
  M 1285.00 770.79
  Q 1278.33 760.11 1270.20 750.18"
/>
<path stroke="#132145" vector-effect="non-scaling-stroke" d="
  M 1270.20 750.18
  L 1255.51 728.48"
/>
<path stroke="#0f132d" vector-effect="non-scaling-stroke" d="
  M 1255.51 728.48
  Q 1259.28 727.11 1261.01 724.20
  Q 1264.47 718.38 1268.15 712.22
  Q 1270.23 708.74 1269.05 705.14
  A 1.66 1.66 0.0 0 0 1266.90 704.09
  Q 1265.96 704.43 1264.95 705.57"
/>
<path stroke="#0f1a39" vector-effect="non-scaling-stroke" d="
  M 1264.95 705.57
  Q 1264.91 701.55 1263.14 698.08
  A 1.53 1.50 -6.8 0 0 1262.13 697.30
  Q 1260.81 697.00 1259.20 697.58
  A 1.05 1.04 -6.5 0 0 1258.52 698.43
  Q 1257.62 705.16 1260.14 711.27"
/>
<path stroke="#0f132d" vector-effect="non-scaling-stroke" d="
  M 1260.14 711.27
  C 1255.25 713.03 1251.31 715.73 1250.77 721.33"
/>
<path stroke="#132145" vector-effect="non-scaling-stroke" d="
  M 1250.77 721.33
  Q 1249.42 720.75 1248.50 722.50
  Q 1241.05 736.70 1236.21 750.02
  A 0.37 0.34 43.0 0 0 1236.23 750.30
  Q 1236.42 750.68 1236.97 750.68"
/>
<path stroke="#4f525f" vector-effect="non-scaling-stroke" d="
  M 1236.97 750.68
  Q 1235.85 750.38 1235.48 751.23
  Q 1228.27 767.65 1222.79 778.82"
/>
<path stroke="#281e2b" vector-effect="non-scaling-stroke" d="
  M 1222.79 778.82
  Q 1209.36 774.23 1196.10 769.19
  Q 1194.27 768.50 1193.71 767.40"
/>
<path stroke="#132145" vector-effect="non-scaling-stroke" d="
  M 1425.12 692.35
  L 1430.85 746.19"
/>
<path stroke="#1e243c" vector-effect="non-scaling-stroke" d="
  M 1430.85 746.19
  L 1376.68 746.05"
/>
<path stroke="#132145" vector-effect="non-scaling-stroke" d="
  M 1376.68 746.05
  L 1382.68 692.25"
/>
<path stroke="#163269" vector-effect="non-scaling-stroke" d="
  M 1536.00 696.27
  L 1536.00 728.85"
/>
<path stroke="#535c6f" vector-effect="non-scaling-stroke" d="
  M 1536.00 750.62
  L 1437.14 750.58"
/>
<path stroke="#212f4c" vector-effect="non-scaling-stroke" d="
  M 1437.14 750.58
  L 1430.85 746.19"
/>
<path stroke="#212f4c" vector-effect="non-scaling-stroke" d="
  M 1376.68 746.05
  Q 1372.38 747.53 1368.55 750.64"
/>
<path stroke="#535c6f" vector-effect="non-scaling-stroke" d="
  M 1368.55 750.64
  L 1309.45 750.53"
/>
<path stroke="#0f1732" vector-effect="non-scaling-stroke" d="
  M 1264.95 705.57
  Q 1263.11 708.70 1260.14 711.27"
/>
<path stroke="#8c664b" vector-effect="non-scaling-stroke" d="
  M 1148.42 751.71
  Q 1147.33 761.69 1151.01 769.97
  Q 1160.10 790.45 1160.64 791.83
  C 1162.18 795.77 1160.77 801.49 1156.01 801.82
  C 1152.19 802.08 1147.29 802.44 1144.64 799.67
  Q 1143.30 798.26 1142.16 797.85"
/>
<path stroke="#131e3d" vector-effect="non-scaling-stroke" d="
  M 1255.51 728.48
  L 1250.77 721.33"
/>
<path stroke="#535c6f" vector-effect="non-scaling-stroke" d="
  M 1270.20 750.18
  Q 1269.43 750.67 1268.00 750.67
  Q 1252.48 750.71 1236.97 750.68"
/>
<path stroke="#5e6066" vector-effect="non-scaling-stroke" d="
  M 1437.14 750.58
  L 1435.72 755.86"
/>
<path stroke="#1e243c" vector-effect="non-scaling-stroke" d="
  M 1435.72 755.86
  L 1371.60 755.97"
/>
<path stroke="#5e6066" vector-effect="non-scaling-stroke" d="
  M 1371.60 755.97
  Q 1370.50 753.69 1370.42 751.41
  A 0.80 0.79 -82.2 0 0 1369.87 750.68
  Q 1369.34 750.52 1368.55 750.64"
/>
<path stroke="#685955" vector-effect="non-scaling-stroke" d="
  M 1193.71 767.40
  C 1189.51 765.42 1187.27 766.29 1182.04 767.47
  A 4.29 4.28 -67.3 0 0 1180.73 768.01
  Q 1174.14 772.10 1174.89 779.76
  A 3.19 3.18 -81.6 0 0 1176.83 782.38
  L 1195.39 790.07"
/>
<path stroke="#6d717a" vector-effect="non-scaling-stroke" d="
  M 1195.39 790.07
  Q 1195.72 790.82 1195.47 791.28
  Q 1195.21 791.74 1194.45 791.64
  Q 1193.09 791.47 1192.60 792.11
  A 0.58 0.57 24.2 0 0 1192.95 793.02
  Q 1198.24 794.01 1201.69 796.29
  C 1206.14 799.23 1211.64 799.85 1216.87 799.88"
/>
<path stroke="#5e6066" vector-effect="non-scaling-stroke" d="
  M 1216.87 799.88
  L 1235.62 817.74"
/>
<path stroke="#685955" vector-effect="non-scaling-stroke" d="
  M 1285.00 770.79
  Q 1285.07 770.94 1285.02 771.20
  A 0.58 0.57 -10.2 0 1 1284.76 771.57
  C 1278.88 775.30 1274.45 778.95 1275.15 786.72"
/>
<path stroke="#6d717a" vector-effect="non-scaling-stroke" d="
  M 1275.15 786.72
  L 1223.37 788.13"
/>
<path stroke="#685955" vector-effect="non-scaling-stroke" d="
  M 1223.37 788.13
  Q 1224.70 782.67 1222.79 778.82"
/>
<path stroke="#4f525f" vector-effect="non-scaling-stroke" d="
  M 1371.60 755.97
  Q 1369.59 755.90 1368.12 756.35
  A 2.09 2.09 0.0 0 0 1366.64 758.35
  L 1366.64 776.37
  A 0.67 0.66 -90.0 0 0 1367.30 777.04
  L 1439.28 777.04
  A 0.79 0.79 0.0 0 0 1440.07 776.25
  L 1440.07 758.15
  A 1.96 1.96 0.0 0 0 1438.37 756.21
  L 1435.72 755.86"
/>
<path stroke="#67696e" vector-effect="non-scaling-stroke" d="
  M 1536.00 817.95
  L 1407.06 818.04"
/>
<path stroke="#5e6066" vector-effect="non-scaling-stroke" d="
  M 1407.06 818.04
  Q 1400.53 813.78 1394.12 809.72
  C 1382.28 802.22 1371.77 794.59 1360.30 787.18
  Q 1350.74 780.99 1332.33 768.46
  Q 1328.17 765.63 1323.73 764.30
  A 0.41 0.41 0.0 0 0 1323.39 765.04
  C 1326.93 767.27 1330.27 770.50 1333.65 773.01
  Q 1350.87 785.76 1353.57 787.69
  Q 1363.73 794.93 1396.77 817.86"
/>
<path stroke="#67696e" vector-effect="non-scaling-stroke" d="
  M 1396.77 817.86
  L 1243.72 818.00"
/>
<path stroke="#5e6066" vector-effect="non-scaling-stroke" d="
  M 1243.72 818.00
  L 1223.41 799.25"
/>
<path stroke="#6d717a" vector-effect="non-scaling-stroke" d="
  M 1223.41 799.25
  Q 1231.46 799.52 1239.25 799.58
  Q 1280.48 799.93 1300.84 799.84
  C 1307.53 799.81 1313.94 800.21 1319.47 800.11
  C 1322.14 800.06 1329.78 798.11 1329.52 794.19
  C 1329.21 789.36 1321.38 788.05 1317.38 788.01
  Q 1308.29 787.93 1298.24 787.01"
/>
<path stroke="#685955" vector-effect="non-scaling-stroke" d="
  M 1298.24 787.01
  Q 1310.10 780.01 1321.18 774.63
  Q 1325.42 772.57 1323.31 768.21
  C 1321.04 763.49 1317.86 757.92 1312.55 756.13"
/>
<path stroke="#453d46" vector-effect="non-scaling-stroke" d="
  M 1298.24 787.01
  Q 1289.45 791.74 1285.38 792.65
  C 1281.66 793.49 1277.13 793.77 1276.11 789.67
  Q 1275.66 787.89 1275.15 786.72"
/>
<path stroke="#453d46" vector-effect="non-scaling-stroke" d="
  M 1223.37 788.13
  Q 1222.71 792.41 1220.44 796.10"
/>
<path stroke="#362c32" vector-effect="non-scaling-stroke" d="
  M 1220.44 796.10
  L 1214.22 797.55"
/>
<path stroke="#453d46" vector-effect="non-scaling-stroke" d="
  M 1214.22 797.55
  L 1195.39 790.07"
/>
<path stroke="#3b4457" vector-effect="non-scaling-stroke" d="
  M 1223.41 799.25
  Q 1220.12 797.96 1220.44 796.10"
/>
<path stroke="#3b4457" vector-effect="non-scaling-stroke" d="
  M 1214.22 797.55
  L 1216.87 799.88"
/>
</g>

<path fill="#fcf1d4" d="
  M 1373.32 294.69
  L 1381.24 298.02
  A 0.92 0.92 0.0 0 1 1381.24 299.72
  L 1373.34 303.07
  A 0.92 0.92 0.0 0 0 1372.85 303.56
  L 1369.52 311.48
  A 0.92 0.92 0.0 0 1 1367.82 311.48
  L 1364.47 303.58
  A 0.92 0.92 0.0 0 0 1363.98 303.09
  L 1356.06 299.76
  A 0.92 0.92 0.0 0 1 1356.06 298.06
  L 1363.96 294.71
  A 0.92 0.92 0.0 0 0 1364.45 294.22
  L 1367.78 286.30
  A 0.92 0.92 0.0 0 1 1369.48 286.30
  L 1372.83 294.20
  A 0.92 0.92 0.0 0 0 1373.32 294.69
  Z"
/>
<path fill="#0f1634" d="
  M 1442.13 422.94
  C 1437.08 426.68 1436.40 429.64 1435.03 435.85
  C 1433.47 442.92 1431.14 449.79 1428.78 456.64
  L 1439.10 410.60
  A 0.69 0.68 6.1 0 0 1438.43 409.77
  L 1426.49 409.77
  A 0.66 0.65 4.0 0 0 1425.84 410.33
  L 1419.63 454.57
  C 1417.40 452.62 1414.95 453.56 1412.43 454.56
  L 1418.59 410.05
  A 0.49 0.49 0.0 0 0 1418.11 409.49
  L 1389.43 409.49
  A 0.39 0.39 0.0 0 0 1389.04 409.93
  L 1395.70 459.46
  A 0.94 0.94 0.0 0 0 1396.60 460.28
  L 1398.73 460.34
  L 1395.48 460.62
  A 0.70 0.69 80.8 0 1 1394.75 460.09
  C 1394.40 458.64 1393.23 456.02 1391.29 456.63
  Q 1389.33 457.26 1388.48 459.82
  L 1381.78 410.04
  A 0.66 0.66 0.0 0 0 1381.09 409.47
  L 1368.57 410.17
  A 1.10 1.10 0.0 0 0 1367.56 411.51
  L 1369.57 420.32
  Q 1365.72 419.17 1362.69 415.95
  L 1361.19 409.19
  A 0.87 0.85 86.1 0 0 1360.44 408.52
  C 1357.90 408.28 1354.98 408.77 1353.20 406.76
  A 1.80 1.79 -39.1 0 1 1353.48 404.13
  C 1364.00 396.37 1373.00 390.65 1383.04 383.19
  Q 1387.86 379.60 1394.02 375.53
  Q 1395.31 374.67 1396.45 373.34
  A 0.69 0.67 -41.5 0 0 1396.51 372.53
  C 1394.29 369.08 1392.94 366.20 1394.17 362.15
  Q 1395.10 359.08 1397.98 357.34
  C 1408.00 351.31 1418.11 363.57 1410.43 371.62
  A 1.46 1.46 0.0 0 0 1410.64 373.81
  Q 1427.77 386.05 1451.76 402.29
  C 1453.36 403.38 1454.67 405.05 1453.29 406.84
  C 1451.64 409.00 1449.20 408.64 1446.98 408.90
  A 1.43 1.41 4.2 0 0 1445.77 409.93
  L 1442.13 422.94
  Z"
/>
<path fill="#fa9a00" d="
  M 1388.48 459.82
  Q 1384.83 460.70 1380.42 460.13
  A 0.77 0.75 -3.4 0 1 1379.79 459.58
  L 1369.57 420.32
  L 1367.56 411.51
  A 1.10 1.10 0.0 0 1 1368.57 410.17
  L 1381.09 409.47
  A 0.66 0.66 0.0 0 1 1381.78 410.04
  L 1388.48 459.82
  Z"
/>
<path fill="#fa9a00" d="
  M 1412.43 454.56
  L 1411.49 459.84
  A 0.58 0.58 0.0 0 1 1410.92 460.33
  L 1398.73 460.34
  L 1396.60 460.28
  A 0.94 0.94 0.0 0 1 1395.70 459.46
  L 1389.04 409.93
  A 0.39 0.39 0.0 0 1 1389.43 409.49
  L 1418.11 409.49
  A 0.49 0.49 0.0 0 1 1418.59 410.05
  L 1412.43 454.56
  Z"
/>
<path fill="#fa9a00" d="
  M 1428.78 456.64
  Q 1428.49 461.04 1419.38 460.22
  A 0.51 0.50 -83.4 0 1 1418.93 459.65
  L 1419.63 454.57
  L 1425.84 410.33
  A 0.66 0.65 4.0 0 1 1426.49 409.77
  L 1438.43 409.77
  A 0.69 0.68 6.1 0 1 1439.10 410.60
  L 1428.78 456.64
  Z"
/>
<path fill="#0e1d3e" d="
  M 1369.57 420.32
  L 1379.79 459.58
  A 0.77 0.75 -3.4 0 0 1380.42 460.13
  Q 1384.83 460.70 1388.48 459.82
  Q 1389.33 457.26 1391.29 456.63
  C 1393.23 456.02 1394.40 458.64 1394.75 460.09
  A 0.70 0.69 80.8 0 0 1395.48 460.62
  L 1398.73 460.34
  L 1410.92 460.33
  A 0.58 0.58 0.0 0 0 1411.49 459.84
  L 1412.43 454.56
  C 1414.95 453.56 1417.40 452.62 1419.63 454.57
  L 1418.93 459.65
  A 0.51 0.50 -83.4 0 0 1419.38 460.22
  Q 1428.49 461.04 1428.78 456.64
  C 1431.14 449.79 1433.47 442.92 1435.03 435.85
  C 1436.40 429.64 1437.08 426.68 1442.13 422.94
  L 1432.15 465.66
  A 2.67 2.63 -7.8 0 1 1430.82 467.39
  L 1425.52 470.22
  A 2.61 2.54 10.3 0 0 1424.97 470.59
  C 1421.52 473.62 1419.60 475.40 1415.17 475.95
  A 1.40 1.38 16.7 0 0 1414.32 476.40
  Q 1413.60 477.21 1413.97 478.06
  Q 1404.67 474.81 1394.15 477.73
  Q 1394.24 477.05 1393.80 476.65
  Q 1393.43 476.31 1392.70 476.30
  Q 1389.12 476.23 1387.29 474.69
  Q 1382.08 470.33 1377.35 468.14
  A 4.17 4.15 5.5 0 1 1375.06 465.37
  L 1362.69 415.95
  Q 1365.72 419.17 1369.57 420.32
  Z"
/>
<path fill="#0f1634" d="
  M 1413.97 478.06
  L 1413.84 489.70
  A 1.18 1.17 -89.8 0 0 1415.01 490.89
  L 1426.25 490.89
  A 1.24 1.21 -31.6 0 1 1426.78 491.01
  Q 1429.26 492.17 1429.56 495.35
  A 1.96 1.93 -33.9 0 1 1429.34 496.43
  Q 1427.24 500.26 1423.29 502.19
  A 2.19 2.15 -57.8 0 1 1422.32 502.42
  L 1415.02 502.42
  A 1.03 1.03 0.0 0 0 1413.99 503.45
  L 1414.15 676.36
  Q 1413.43 677.05 1413.02 677.08
  Q 1402.73 677.67 1394.42 677.05
  Q 1393.91 677.01 1393.78 676.48
  L 1394.03 503.42
  A 0.97 0.97 0.0 0 0 1393.07 502.45
  L 1385.65 502.38
  A 0.87 0.85 -34.5 0 1 1385.36 502.33
  Q 1381.05 500.84 1378.67 496.29
  A 1.87 1.83 -56.0 0 1 1378.47 495.20
  Q 1378.85 492.09 1381.29 490.97
  A 0.96 0.85 -54.7 0 1 1381.68 490.88
  L 1392.79 490.88
  A 1.44 1.44 0.0 0 0 1394.23 489.43
  L 1394.15 477.73
  Q 1404.67 474.81 1413.97 478.06
  Z"
/>
<path fill="#416fad" d="
  M 1276.98 551.02
  L 1252.56 545.87
  C 1250.37 545.33 1248.13 544.85 1246.04 544.03
  Q 1232.51 538.77 1218.86 533.20
  C 1223.03 526.13 1227.94 518.33 1236.09 515.31
  Q 1242.32 513.00 1251.06 514.24
  C 1262.86 515.91 1277.09 523.57 1278.69 537.00
  Q 1279.59 544.64 1276.98 551.02
  Z"
/>
<path fill="#0f1025" d="
  M 1252.56 545.87
  L 1276.98 551.02
  Q 1277.55 550.79 1277.48 551.98
  Q 1277.17 557.16 1275.69 562.07
  Q 1272.53 572.53 1264.07 578.35
  Q 1259.99 575.13 1258.79 570.71
  A 0.83 0.82 64.5 0 1 1259.09 569.84
  Q 1259.38 569.63 1260.95 568.65
  C 1266.39 565.25 1268.41 553.94 1259.73 553.13
  C 1255.52 552.74 1253.65 556.00 1252.17 559.34
  A 1.68 1.67 -53.1 0 1 1249.36 559.74
  Q 1245.13 554.76 1244.62 547.83
  A 0.62 0.62 0.0 0 0 1244.00 547.26
  L 1236.79 547.33
  C 1242.31 546.51 1246.42 544.64 1252.56 545.87
  Z"
/>
<path fill="#f27b41" d="
  M 1236.79 547.33
  L 1244.00 547.26
  A 0.62 0.62 0.0 0 1 1244.62 547.83
  Q 1245.13 554.76 1249.36 559.74
  A 1.68 1.67 -53.1 0 0 1252.17 559.34
  C 1253.65 556.00 1255.52 552.74 1259.73 553.13
  C 1268.41 553.94 1266.39 565.25 1260.95 568.65
  Q 1259.38 569.63 1259.09 569.84
  A 0.83 0.82 64.5 0 0 1258.79 570.71
  Q 1259.99 575.13 1264.07 578.35
  Q 1265.42 579.37 1263.68 581.21
  Q 1247.90 586.66 1239.12 589.14
  Q 1237.84 589.50 1237.37 588.19
  A 0.96 0.96 0.0 0 0 1236.72 587.59
  Q 1234.90 587.10 1233.78 587.41
  C 1223.67 586.12 1215.60 578.58 1213.05 569.05
  Q 1210.97 561.30 1213.20 552.85
  Q 1213.90 550.24 1214.71 547.09
  L 1236.79 547.33
  Z"
/>
<path fill="#032a26" d="
  M 1284.03 613.60
  Q 1282.82 610.41 1280.03 604.73
  C 1276.65 597.87 1270.71 593.82 1263.12 593.50
  Q 1260.30 593.38 1254.56 595.85
  Q 1253.34 596.37 1240.07 601.30
  Q 1233.53 603.72 1227.91 601.14
  L 1228.97 596.98
  A 0.85 0.59 -34.7 0 1 1229.03 596.82
  L 1233.78 587.41
  Q 1234.90 587.10 1236.72 587.59
  A 0.96 0.96 0.0 0 1 1237.37 588.19
  Q 1237.84 589.50 1239.12 589.14
  Q 1247.90 586.66 1263.68 581.21
  C 1273.13 581.80 1283.04 577.94 1287.87 589.18
  Q 1290.83 596.08 1289.57 604.04
  Q 1288.71 609.50 1284.03 613.60
  Z"
/>
<path fill="#0d4f41" d="
  M 1284.03 613.60
  Q 1285.55 618.26 1287.41 622.94
  Q 1292.31 635.23 1296.47 647.80
  Q 1298.53 654.04 1303.34 675.39
  Q 1291.37 679.01 1280.61 681.57
  Q 1278.25 682.12 1277.15 683.27
  L 1275.85 681.29
  A 2.27 2.24 -68.2 0 1 1275.51 680.48
  Q 1270.59 658.42 1267.04 647.11
  Q 1264.72 639.69 1260.39 633.32
  Q 1255.56 626.20 1252.34 617.86
  A 0.55 0.55 0.0 0 0 1251.38 617.74
  Q 1251.20 617.99 1251.19 618.53
  Q 1251.17 620.35 1252.09 624.22
  Q 1254.13 632.75 1258.90 648.98
  Q 1261.66 658.38 1262.32 663.75
  Q 1263.44 672.82 1263.39 678.92
  A 3.80 3.78 74.9 0 1 1261.55 682.14
  C 1257.83 684.37 1250.96 684.59 1244.54 684.60
  Q 1234.11 685.79 1226.14 683.62
  Q 1223.37 682.86 1222.13 679.54
  Q 1221.72 674.96 1221.77 673.49
  Q 1222.19 661.07 1222.74 650.76
  C 1223.02 645.64 1222.73 639.70 1222.98 634.75
  Q 1223.42 625.79 1224.62 608.13
  L 1224.62 608.12
  Q 1222.82 611.82 1220.57 615.29
  Q 1223.48 607.79 1227.91 601.14
  Q 1233.53 603.72 1240.07 601.30
  Q 1253.34 596.37 1254.56 595.85
  Q 1260.30 593.38 1263.12 593.50
  C 1270.71 593.82 1276.65 597.87 1280.03 604.73
  Q 1282.82 610.41 1284.03 613.60
  Z"
/>
<path fill="#072229" d="
  M 1277.15 683.27
  L 1277.51 684.43
  L 1270.03 686.62
  L 1244.54 684.60
  C 1250.96 684.59 1257.83 684.37 1261.55 682.14
  A 3.80 3.78 74.9 0 0 1263.39 678.92
  Q 1263.44 672.82 1262.32 663.75
  Q 1261.66 658.38 1258.90 648.98
  Q 1254.13 632.75 1252.09 624.22
  Q 1251.17 620.35 1251.19 618.53
  Q 1251.20 617.99 1251.38 617.74
  A 0.55 0.55 0.0 0 1 1252.34 617.86
  Q 1255.56 626.20 1260.39 633.32
  Q 1264.72 639.69 1267.04 647.11
  Q 1270.59 658.42 1275.51 680.48
  A 2.27 2.24 -68.2 0 0 1275.85 681.29
  L 1277.15 683.27
  Z"
/>
<path fill="#072229" d="
  M 1255.65 658.04
  L 1253.89 658.27
  A 6.38 6.37 64.0 0 1 1248.47 656.40
  Q 1241.41 649.11 1241.10 640.23
  Q 1241.04 638.32 1241.35 637.44
  A 1.59 1.58 -46.9 0 1 1244.30 637.34
  Q 1248.37 646.73 1256.72 654.78
  A 1.91 1.90 -26.9 0 1 1255.65 658.04
  Z"
/>
<path fill="#0f1025" d="
  M 1222.13 679.54
  Q 1223.37 682.86 1226.14 683.62
  Q 1234.11 685.79 1244.54 684.60
  L 1270.03 686.62
  L 1273.88 686.45
  A 1.74 1.58 -5.0 0 1 1275.67 687.82
  L 1275.70 688.02
  A 1.51 1.50 84.8 0 1 1274.30 689.71
  Q 1252.80 691.05 1234.36 691.12
  Q 1227.68 691.15 1220.44 689.03
  Q 1217.03 686.29 1217.20 681.00
  C 1218.14 678.44 1219.96 676.23 1222.13 679.54
  Z"
/>
<path fill="#f27b41" d="
  M 1303.34 675.39
  Q 1304.74 681.33 1306.11 687.25
  Q 1306.65 689.57 1305.42 693.28
  Q 1303.61 698.49 1298.34 701.07
  Q 1287.80 706.22 1280.18 696.94
  C 1277.76 693.62 1277.96 688.39 1277.51 684.43
  L 1277.15 683.27
  Q 1278.25 682.12 1280.61 681.57
  Q 1291.37 679.01 1303.34 675.39
  Z"
/>
<path fill="#2c3243" d="
  M 1425.25 687.28
  Q 1403.88 686.02 1382.64 687.22
  Q 1379.88 686.85 1379.56 684.25
  C 1378.57 676.27 1389.03 677.06 1393.19 676.91
  Q 1393.47 676.90 1393.78 676.48
  Q 1393.91 677.01 1394.42 677.05
  Q 1402.73 677.67 1413.02 677.08
  Q 1413.43 677.05 1414.15 676.36
  L 1414.30 676.64
  A 0.44 0.43 -15.3 0 0 1414.72 676.87
  C 1416.22 676.76 1418.14 676.81 1420.45 676.86
  C 1424.48 676.93 1428.47 679.72 1427.88 684.10
  Q 1427.54 686.69 1425.25 687.28
  Z"
/>
<path fill="#0f1634" d="
  M 1277.51 684.43
  C 1277.96 688.39 1277.76 693.62 1280.18 696.94
  Q 1279.24 696.80 1278.74 697.01
  A 0.68 0.67 -24.6 0 0 1278.39 697.94
  L 1281.49 703.96
  A 7.16 6.97 -65.6 0 1 1282.12 705.71
  C 1282.82 708.92 1283.67 713.23 1285.66 716.33
  C 1289.47 722.23 1293.62 727.61 1298.28 734.70
  Q 1303.65 742.86 1309.45 750.53
  Q 1310.49 754.17 1312.55 756.13
  Q 1307.87 758.96 1294.27 766.76
  Q 1289.68 769.39 1286.18 770.87
  A 1.05 1.04 40.7 0 1 1285.48 770.92
  L 1285.00 770.79
  Q 1278.33 760.11 1270.20 750.18
  L 1255.51 728.48
  Q 1259.28 727.11 1261.01 724.20
  Q 1264.47 718.38 1268.15 712.22
  Q 1270.23 708.74 1269.05 705.14
  A 1.66 1.66 0.0 0 0 1266.90 704.09
  Q 1265.96 704.43 1264.95 705.57
  Q 1264.91 701.55 1263.14 698.08
  A 1.53 1.50 -6.8 0 0 1262.13 697.30
  Q 1260.81 697.00 1259.20 697.58
  A 1.05 1.04 -6.5 0 0 1258.52 698.43
  Q 1257.62 705.16 1260.14 711.27
  C 1255.25 713.03 1251.31 715.73 1250.77 721.33
  Q 1249.42 720.75 1248.50 722.50
  Q 1241.05 736.70 1236.21 750.02
  A 0.37 0.34 43.0 0 0 1236.23 750.30
  Q 1236.42 750.68 1236.97 750.68
  Q 1235.85 750.38 1235.48 751.23
  Q 1228.27 767.65 1222.79 778.82
  Q 1209.36 774.23 1196.10 769.19
  Q 1194.27 768.50 1193.71 767.40
  L 1200.93 750.51
  Q 1210.29 729.13 1219.29 706.68
  Q 1221.03 702.36 1224.09 695.57
  Q 1225.25 692.99 1224.34 691.26
  L 1220.44 689.03
  Q 1227.68 691.15 1234.36 691.12
  Q 1252.80 691.05 1274.30 689.71
  A 1.51 1.50 84.8 0 0 1275.70 688.02
  L 1275.67 687.82
  A 1.74 1.58 -5.0 0 0 1273.88 686.45
  L 1270.03 686.62
  L 1277.51 684.43
  Z"
/>
<path fill="#0f1634" d="
  M 1425.25 687.28
  Q 1424.47 689.72 1425.12 692.35
  L 1430.85 746.19
  L 1376.68 746.05
  L 1382.68 692.25
  Q 1383.35 689.60 1382.64 687.22
  Q 1403.88 686.02 1425.25 687.28
  Z"
/>
<path fill="#162b55" d="
  M 1536.00 692.28
  L 1536.00 696.27
  L 1536.00 728.85
  L 1536.00 750.62
  L 1437.14 750.58
  L 1430.85 746.19
  L 1425.12 692.35
  L 1536.00 692.28
  Z"
/>
<path fill="#162b55" d="
  M 1382.68 692.25
  L 1376.68 746.05
  Q 1372.38 747.53 1368.55 750.64
  L 1309.45 750.53
  Q 1303.65 742.86 1298.28 734.70
  C 1293.62 727.61 1289.47 722.23 1285.66 716.33
  C 1283.67 713.23 1282.82 708.92 1282.12 705.71
  A 7.16 6.97 -65.6 0 0 1281.49 703.96
  L 1278.39 697.94
  A 0.68 0.67 -24.6 0 1 1278.74 697.01
  Q 1279.24 696.80 1280.18 696.94
  Q 1287.80 706.22 1298.34 701.07
  Q 1303.61 698.49 1305.42 693.28
  Q 1305.64 693.92 1306.21 693.88
  A 0.36 0.35 -78.2 0 0 1306.48 693.70
  L 1306.84 693.09
  A 0.94 0.94 0.0 0 1 1307.66 692.61
  L 1382.68 692.25
  Z"
/>
<path fill="#16397d" d="
  M 1536.00 696.27
  L 1536.00 728.85
  L 1536.00 696.27
  Z"
/>
<path fill="#0e1d3e" d="
  M 1264.95 705.57
  Q 1263.11 708.70 1260.14 711.27
  Q 1257.62 705.16 1258.52 698.43
  A 1.05 1.04 -6.5 0 1 1259.20 697.58
  Q 1260.81 697.00 1262.13 697.30
  A 1.53 1.50 -6.8 0 1 1263.14 698.08
  Q 1264.91 701.55 1264.95 705.57
  Z"
/>
<path fill="#0f1025" d="
  M 1255.51 728.48
  L 1250.77 721.33
  C 1251.31 715.73 1255.25 713.03 1260.14 711.27
  Q 1263.11 708.70 1264.95 705.57
  Q 1265.96 704.43 1266.90 704.09
  A 1.66 1.66 0.0 0 1 1269.05 705.14
  Q 1270.23 708.74 1268.15 712.22
  Q 1264.47 718.38 1261.01 724.20
  Q 1259.28 727.11 1255.51 728.48
  Z"
/>
<path fill="#162b55" d="
  M 1250.77 721.33
  L 1255.51 728.48
  L 1270.20 750.18
  Q 1269.43 750.67 1268.00 750.67
  Q 1252.48 750.71 1236.97 750.68
  Q 1236.42 750.68 1236.23 750.30
  A 0.37 0.34 43.0 0 1 1236.21 750.02
  Q 1241.05 736.70 1248.50 722.50
  Q 1249.42 720.75 1250.77 721.33
  Z"
/>
<path fill="#2c3243" d="
  M 1430.85 746.19
  L 1437.14 750.58
  L 1435.72 755.86
  L 1371.60 755.97
  Q 1370.50 753.69 1370.42 751.41
  A 0.80 0.79 -82.2 0 0 1369.87 750.68
  Q 1369.34 750.52 1368.55 750.64
  Q 1372.38 747.53 1376.68 746.05
  L 1430.85 746.19
  Z"
/>
<path fill="#8f8d89" d="
  M 1270.20 750.18
  Q 1278.33 760.11 1285.00 770.79
  Q 1285.07 770.94 1285.02 771.20
  A 0.58 0.57 -10.2 0 1 1284.76 771.57
  C 1278.88 775.30 1274.45 778.95 1275.15 786.72
  L 1223.37 788.13
  Q 1224.70 782.67 1222.79 778.82
  Q 1228.27 767.65 1235.48 751.23
  Q 1235.85 750.38 1236.97 750.68
  Q 1252.48 750.71 1268.00 750.67
  Q 1269.43 750.67 1270.20 750.18
  Z"
/>
<path fill="#8f8d89" d="
  M 1368.55 750.64
  Q 1369.34 750.52 1369.87 750.68
  A 0.80 0.79 -82.2 0 1 1370.42 751.41
  Q 1370.50 753.69 1371.60 755.97
  Q 1369.59 755.90 1368.12 756.35
  A 2.09 2.09 0.0 0 0 1366.64 758.35
  L 1366.64 776.37
  A 0.67 0.66 -90.0 0 0 1367.30 777.04
  L 1439.28 777.04
  A 0.79 0.79 0.0 0 0 1440.07 776.25
  L 1440.07 758.15
  A 1.96 1.96 0.0 0 0 1438.37 756.21
  L 1435.72 755.86
  L 1437.14 750.58
  L 1536.00 750.62
  L 1536.00 817.95
  L 1407.06 818.04
  Q 1400.53 813.78 1394.12 809.72
  C 1382.28 802.22 1371.77 794.59 1360.30 787.18
  Q 1350.74 780.99 1332.33 768.46
  Q 1328.17 765.63 1323.73 764.30
  A 0.41 0.41 0.0 0 0 1323.39 765.04
  C 1326.93 767.27 1330.27 770.50 1333.65 773.01
  Q 1350.87 785.76 1353.57 787.69
  Q 1363.73 794.93 1396.77 817.86
  L 1243.72 818.00
  L 1223.41 799.25
  Q 1231.46 799.52 1239.25 799.58
  Q 1280.48 799.93 1300.84 799.84
  C 1307.53 799.81 1313.94 800.21 1319.47 800.11
  C 1322.14 800.06 1329.78 798.11 1329.52 794.19
  C 1329.21 789.36 1321.38 788.05 1317.38 788.01
  Q 1308.29 787.93 1298.24 787.01
  Q 1310.10 780.01 1321.18 774.63
  Q 1325.42 772.57 1323.31 768.21
  C 1321.04 763.49 1317.86 757.92 1312.55 756.13
  Q 1310.49 754.17 1309.45 750.53
  L 1368.55 750.64
  Z"
/>
<path fill="#0f1634" d="
  M 1435.72 755.86
  L 1438.37 756.21
  A 1.96 1.96 0.0 0 1 1440.07 758.15
  L 1440.07 776.25
  A 0.79 0.79 0.0 0 1 1439.28 777.04
  L 1367.30 777.04
  A 0.67 0.66 -90.0 0 1 1366.64 776.37
  L 1366.64 758.35
  A 2.09 2.09 0.0 0 1 1368.12 756.35
  Q 1369.59 755.90 1371.60 755.97
  L 1435.72 755.86
  Z"
/>
<path fill="#402521" d="
  M 1298.24 787.01
  Q 1289.45 791.74 1285.38 792.65
  C 1281.66 793.49 1277.13 793.77 1276.11 789.67
  Q 1275.66 787.89 1275.15 786.72
  C 1274.45 778.95 1278.88 775.30 1284.76 771.57
  A 0.58 0.57 -10.2 0 0 1285.02 771.20
  Q 1285.07 770.94 1285.00 770.79
  L 1285.48 770.92
  A 1.05 1.04 40.7 0 0 1286.18 770.87
  Q 1289.68 769.39 1294.27 766.76
  Q 1307.87 758.96 1312.55 756.13
  C 1317.86 757.92 1321.04 763.49 1323.31 768.21
  Q 1325.42 772.57 1321.18 774.63
  Q 1310.10 780.01 1298.24 787.01
  Z"
/>
<path fill="#2c3243" d="
  M 1407.06 818.04
  Q 1407.12 826.46 1406.84 835.44
  Q 1406.74 838.63 1407.59 843.72
  L 1395.21 843.63
  L 1397.44 843.56
  A 1.77 1.76 -0.8 0 0 1399.16 841.80
  Q 1399.21 830.24 1399.10 819.83
  Q 1399.07 817.21 1396.77 817.86
  Q 1363.73 794.93 1353.57 787.69
  Q 1350.87 785.76 1333.65 773.01
  C 1330.27 770.50 1326.93 767.27 1323.39 765.04
  A 0.41 0.41 0.0 0 1 1323.73 764.30
  Q 1328.17 765.63 1332.33 768.46
  Q 1350.74 780.99 1360.30 787.18
  C 1371.77 794.59 1382.28 802.22 1394.12 809.72
  Q 1400.53 813.78 1407.06 818.04
  Z"
/>
<path fill="#402521" d="
  M 1193.71 767.40
  Q 1194.27 768.50 1196.10 769.19
  Q 1209.36 774.23 1222.79 778.82
  Q 1224.70 782.67 1223.37 788.13
  Q 1222.71 792.41 1220.44 796.10
  L 1214.22 797.55
  L 1195.39 790.07
  L 1176.83 782.38
  A 3.19 3.18 -81.6 0 1 1174.89 779.76
  Q 1174.14 772.10 1180.73 768.01
  A 4.29 4.28 -67.3 0 1 1182.04 767.47
  C 1187.27 766.29 1189.51 765.42 1193.71 767.40
  Z"
/>
<path fill="#4a556b" d="
  M 1298.24 787.01
  Q 1308.29 787.93 1317.38 788.01
  C 1321.38 788.05 1329.21 789.36 1329.52 794.19
  C 1329.78 798.11 1322.14 800.06 1319.47 800.11
  C 1313.94 800.21 1307.53 799.81 1300.84 799.84
  Q 1280.48 799.93 1239.25 799.58
  Q 1231.46 799.52 1223.41 799.25
  Q 1220.12 797.96 1220.44 796.10
  Q 1222.71 792.41 1223.37 788.13
  L 1275.15 786.72
  Q 1275.66 787.89 1276.11 789.67
  C 1277.13 793.77 1281.66 793.49 1285.38 792.65
  Q 1289.45 791.74 1298.24 787.01
  Z"
/>
<path fill="#4a556b" d="
  M 1214.22 797.55
  L 1216.87 799.88
  C 1211.64 799.85 1206.14 799.23 1201.69 796.29
  Q 1198.24 794.01 1192.95 793.02
  A 0.58 0.57 24.2 0 1 1192.60 792.11
  Q 1193.09 791.47 1194.45 791.64
  Q 1195.21 791.74 1195.47 791.28
  Q 1195.72 790.82 1195.39 790.07
  L 1214.22 797.55
  Z"
/>

</svg>