<?xml version="1.0" encoding="UTF-8" standalone="no"?>
<!DOCTYPE svg PUBLIC "-//W3C//DTD SVG 1.1//EN" "http://www.w3.org/Graphics/SVG/1.1/DTD/svg11.dtd">
<svg xmlns="http://www.w3.org/2000/svg" version="1.1" viewBox="0.00 0.00 1536.00 1024.00" preserveAspectRatio="none">

<g stroke-width="2.00" fill="none" stroke-linecap="butt">
<path stroke="#112750" vector-effect="non-scaling-stroke" d="
  M 376.17 156.53
  L 376.16 168.37
  A 0.58 0.58 0.0 0 1 375.58 168.95
  Q 370.38 168.94 362.76 168.66
  C 359.17 168.52 353.98 169.01 354.06 173.30
  Q 354.25 184.49 354.17 193.21
  C 354.15 195.49 354.96 196.42 356.91 197.11
  Q 359.24 197.94 362.35 198.29
  A 1.46 1.45 3.7 0 1 363.64 199.75
  L 363.44 214.46
  A 1.09 1.08 0.8 0 1 362.33 215.53
  C 359.51 215.46 352.72 214.78 351.52 218.05
  Q 349.57 223.37 345.22 234.25
  C 343.21 239.26 341.62 244.43 339.55 249.39
  Q 337.85 253.47 335.19 260.70
  C 329.60 275.87 323.03 292.80 317.92 307.14
  A 1.14 1.11 -87.2 0 1 317.15 307.86
  Q 300.13 312.37 297.23 313.30
  C 287.74 316.35 277.66 319.09 266.86 321.70
  C 259.90 323.38 253.10 326.16 245.47 328.08
  Q 232.59 331.32 221.55 334.53
  C 218.37 335.46 214.98 335.60 211.66 336.34
  A 3.77 3.75 -52.3 0 1 210.89 336.44
  L 191.08 336.96
  A 0.82 0.81 -9.7 0 1 190.29 336.41
  Q 187.84 329.07 179.67 328.36
  Q 169.39 327.46 165.84 337.08
  A 3.60 3.56 57.7 0 0 165.63 338.03
  Q 165.30 342.04 165.90 344.35
  C 167.33 349.77 171.32 353.31 177.03 353.31
  C 181.46 353.32 184.32 351.98 187.25 348.98
  Q 188.23 347.98 189.50 347.13
  A 0.63 0.63 0.0 0 1 190.48 347.64
  Q 190.56 354.34 189.26 358.68
  C 188.47 361.31 188.51 363.19 188.65 365.35
  A 0.46 0.45 -2.4 0 1 188.20 365.83
  L 170.23 366.06
  A 2.03 1.96 30.5 0 0 169.40 366.26
  Q 165.95 367.93 164.78 370.98
  A 3.31 3.20 -35.1 0 0 164.57 372.07
  Q 164.41 381.33 164.39 391.98
  Q 164.38 398.44 164.48 538.00
  Q 164.48 542.35 167.58 544.24
  Q 169.56 545.46 174.65 545.46
  Q 199.35 545.48 291.29 545.51
  A 0.40 0.39 15.7 0 1 291.63 546.11
  L 282.05 561.88
  A 1.01 0.94 62.5 0 0 281.91 562.39
  L 281.91 576.02
  A 0.65 0.65 0.0 0 0 281.96 576.27
  Q 282.98 578.63 285.01 578.69
  Q 292.54 578.90 300.32 578.94
  A 1.44 1.44 0.0 0 1 301.75 580.38
  L 301.75 710.33
  A 0.68 0.67 -0.0 0 1 301.07 711.00
  L 275.31 710.77"
/>
<path stroke="#132a54" vector-effect="non-scaling-stroke" d="
  M 275.31 710.77
  L 73.62 710.28"
/>
<path stroke="#112750" vector-effect="non-scaling-stroke" d="
  M 73.62 710.28
  Q 74.37 708.88 75.60 707.50
  Q 77.28 705.62 77.61 704.77
  C 79.41 700.21 77.07 697.18 72.86 694.64
  Q 68.32 691.90 62.77 686.86
  A 1.66 1.64 -69.5 0 1 62.23 685.66
  L 60.28 535.62
  A 0.58 0.57 -88.6 0 1 60.88 535.04
  Q 65.78 535.20 69.79 534.83
  C 73.65 534.46 75.39 531.25 73.53 527.86
  C 71.96 524.98 66.43 525.43 63.54 525.26
  A 0.82 0.82 0.0 0 1 62.76 524.46
  C 62.69 521.64 64.33 519.64 66.35 516.76
  A 1.85 1.76 72.2 0 0 66.64 516.16
  L 68.73 509.12
  A 1.50 1.49 -69.1 0 1 70.80 508.19
  L 73.62 509.52
  A 0.74 0.57 52.6 0 0 73.84 509.58
  C 82.50 510.11 81.95 504.22 83.96 498.23
  Q 85.38 494.01 85.85 491.71
  Q 86.65 487.81 90.72 470.65
  C 92.42 463.48 93.46 456.32 95.30 449.63
  A 2.61 2.61 0.0 0 1 96.73 447.94
  L 99.58 446.63
  A 0.72 0.70 -79.2 0 0 99.84 446.45
  Q 103.44 442.91 101.95 438.84
  C 100.13 433.88 96.22 433.60 91.68 433.31
  A 3.06 3.01 66.0 0 1 89.95 432.63
  Q 86.86 430.13 86.12 429.37
  Q 75.59 418.44 62.92 406.32
  Q 61.66 405.12 56.72 403.95
  A 1.18 1.16 -2.1 0 1 55.86 403.16
  Q 55.09 400.70 56.12 399.48
  C 59.82 395.14 58.87 391.32 57.21 386.47
  C 54.99 379.96 48.32 377.84 43.84 383.55
  Q 40.40 387.92 40.71 394.15
  A 4.79 4.76 27.9 0 0 41.42 396.43
  C 43.09 399.11 44.47 400.76 44.34 403.19
  A 1.18 1.18 0.0 0 1 43.35 404.29
  L 39.62 404.87
  A 3.64 3.61 18.0 0 0 37.60 405.89
  L 9.95 433.54
  A 1.10 1.10 0.0 0 1 9.60 433.79
  Q 8.63 434.25 5.60 434.83
  Q 2.33 435.47 0.00 438.61"
/>
<path stroke="#46474c" vector-effect="non-scaling-stroke" d="
  M 664.87 790.20
  L 82.23 790.14
  A 0.69 0.68 88.4 0 0 81.55 790.87
  L 81.76 795.39
  A 2.15 2.13 -70.9 0 0 82.49 796.91
  C 85.74 799.79 86.45 807.05 81.15 808.66
  A 1.14 0.79 -43.9 0 1 80.84 808.71
  Q 62.64 808.78 25.54 808.71
  Q 21.91 808.70 20.74 807.82
  C 17.23 805.21 18.25 800.24 20.74 797.09
  A 2.08 2.07 64.5 0 0 21.18 795.84
  L 21.25 790.74
  A 0.56 0.55 -89.5 0 0 20.70 790.17
  L 0.00 790.26"
/>
<path stroke="#1a2435" vector-effect="non-scaling-stroke" d="
  M 0.00 778.05
  L 17.29 777.88"
/>
<path stroke="#2f333d" vector-effect="non-scaling-stroke" d="
  M 17.29 777.88
  L 21.78 777.94
  A 0.70 0.70 0.0 0 0 22.48 777.31
  L 24.68 754.56"
/>
<path stroke="#1a2435" vector-effect="non-scaling-stroke" d="
  M 24.68 754.56
  L 25.71 745.61"
/>
<path stroke="#2f333d" vector-effect="non-scaling-stroke" d="
  M 25.71 745.61
  L 28.30 721.40"
/>
<path stroke="#10172a" vector-effect="non-scaling-stroke" d="
  M 28.30 721.40
  L 28.65 710.27"
/>
<path stroke="#112750" vector-effect="non-scaling-stroke" d="
  M 28.65 710.27
  Q 27.57 708.56 26.45 706.87
  Q 24.92 704.57 24.83 703.26
  C 24.61 699.99 25.34 697.74 28.16 695.60
  Q 30.08 694.14 39.21 686.70
  A 0.60 0.59 -19.3 0 0 39.42 686.27
  L 41.48 535.72
  A 0.58 0.58 0.0 0 0 40.93 535.13
  Q 38.24 535.00 33.27 535.01
  Q 28.27 535.02 27.58 530.53
  A 2.15 2.12 -38.6 0 1 27.71 529.44
  Q 28.91 526.46 30.87 526.05
  Q 38.25 524.50 38.72 524.40
  A 1.40 1.39 76.1 0 0 39.77 522.66
  C 39.63 522.14 39.30 521.53 38.87 521.21
  C 34.89 518.28 34.15 513.98 33.92 509.28
  A 1.59 1.59 0.0 0 0 31.37 508.09
  C 26.19 512.04 20.67 508.75 19.03 503.19
  Q 17.69 498.68 17.36 497.12
  Q 14.62 484.14 10.89 470.44
  C 8.98 463.42 7.78 457.34 6.13 450.43
  A 3.29 3.28 -82.5 0 0 4.50 448.30
  L 0.00 445.85"
/>
<path stroke="#10172a" vector-effect="non-scaling-stroke" d="
  M 73.62 710.28
  L 74.47 721.51"
/>
<path stroke="#2f333d" vector-effect="non-scaling-stroke" d="
  M 74.47 721.51
  L 77.26 745.23"
/>
<path stroke="#10172a" vector-effect="non-scaling-stroke" d="
  M 77.26 745.23
  L 78.19 753.45"
/>
<path stroke="#1a2435" vector-effect="non-scaling-stroke" d="
  M 78.19 753.45
  L 80.56 776.84
  A 1.23 1.22 -2.8 0 0 81.78 777.94
  L 133.44 777.89"
/>
<path stroke="#10172a" vector-effect="non-scaling-stroke" d="
  M 133.44 777.89
  L 138.19 777.43"
/>
<path stroke="#2f333d" vector-effect="non-scaling-stroke" d="
  M 138.19 777.43
  L 180.10 777.41"
/>
<path stroke="#1a2435" vector-effect="non-scaling-stroke" d="
  M 180.10 777.41
  L 188.01 777.51"
/>
<path stroke="#2f333d" vector-effect="non-scaling-stroke" d="
  M 188.01 777.51
  L 243.31 777.50"
/>
<path stroke="#10172a" vector-effect="non-scaling-stroke" d="
  M 243.31 777.50
  L 249.33 777.60"
/>
<path stroke="#1a2435" vector-effect="non-scaling-stroke" d="
  M 249.33 777.60
  L 300.88 777.83
  A 0.50 0.49 -0.6 0 0 301.38 777.33
  L 301.30 752.50"
/>
<path stroke="#10172a" vector-effect="non-scaling-stroke" d="
  M 301.30 752.50
  L 301.90 746.61"
/>
<path stroke="#1a2435" vector-effect="non-scaling-stroke" d="
  M 301.90 746.61
  L 301.67 720.19
  A 0.57 0.56 89.0 0 0 301.10 719.63
  L 273.31 719.97"
/>
<path stroke="#10172a" vector-effect="non-scaling-stroke" d="
  M 273.31 719.97
  Q 273.17 715.10 275.31 710.77"
/>
<path stroke="#132a54" vector-effect="non-scaling-stroke" d="
  M 28.65 710.27
  L 0.00 710.34"
/>
<path stroke="#323641" vector-effect="non-scaling-stroke" d="
  M 28.30 721.40
  L 0.00 721.39"
/>
<path stroke="#1d2739" vector-effect="non-scaling-stroke" d="
  M 273.31 719.97
  L 268.71 720.81"
/>
<path stroke="#323641" vector-effect="non-scaling-stroke" d="
  M 268.71 720.81
  Q 243.73 720.52 218.75 720.88
  C 214.09 720.94 213.43 724.02 213.32 728.25
  Q 213.15 734.89 213.16 741.76
  C 213.16 744.17 214.36 744.95 216.77 744.98
  Q 243.44 745.26 270.12 745.14"
/>
<path stroke="#1d2739" vector-effect="non-scaling-stroke" d="
  M 270.12 745.14
  Q 273.79 746.33 279.02 746.44
  Q 290.25 746.67 301.90 746.61"
/>
<path stroke="#1d2739" vector-effect="non-scaling-stroke" d="
  M 301.30 752.50
  Q 278.21 751.92 255.28 752.49
  C 251.80 752.58 249.27 752.83 249.22 757.14
  Q 249.10 770.53 249.33 777.60"
/>
<path stroke="#323641" vector-effect="non-scaling-stroke" d="
  M 243.31 777.50
  Q 243.94 771.69 243.91 758.24
  C 243.90 753.74 241.68 753.37 237.65 753.40
  Q 214.58 753.59 191.25 753.39
  Q 189.88 753.38 187.72 754.97"
/>
<path stroke="#1d2739" vector-effect="non-scaling-stroke" d="
  M 187.72 754.97
  L 179.92 753.75"
/>
<path stroke="#323641" vector-effect="non-scaling-stroke" d="
  M 179.92 753.75
  Q 159.47 753.85 140.50 753.77
  Q 138.01 753.76 137.96 756.25
  Q 137.76 766.90 138.19 777.43"
/>
<path stroke="#1d2739" vector-effect="non-scaling-stroke" d="
  M 133.44 777.89
  L 133.84 755.95
  A 2.61 2.60 7.9 0 0 131.89 753.38
  Q 128.79 752.58 124.94 752.54
  Q 113.73 752.40 83.99 752.62
  Q 82.41 752.63 78.19 753.45"
/>
<path stroke="#323641" vector-effect="non-scaling-stroke" d="
  M 77.26 745.23
  Q 91.38 745.33 105.00 745.31
  Q 108.66 745.30 109.93 743.29
  A 0.45 0.45 0.0 0 1 110.59 743.17
  Q 113.15 745.16 114.71 745.16
  Q 138.46 745.21 162.30 745.16"
/>
<path stroke="#1d2739" vector-effect="non-scaling-stroke" d="
  M 162.30 745.16
  Q 165.93 744.33 168.27 744.80"
/>
<path stroke="#323641" vector-effect="non-scaling-stroke" d="
  M 168.27 744.80
  Q 186.72 745.51 204.37 745.18
  Q 207.18 745.12 207.14 742.29
  Q 207.00 733.15 206.94 724.07
  Q 206.92 721.53 204.50 721.44
  Q 191.74 721.01 169.59 721.28"
/>
<path stroke="#1d2739" vector-effect="non-scaling-stroke" d="
  M 169.59 721.28
  L 161.84 721.13"
/>
<path stroke="#323641" vector-effect="non-scaling-stroke" d="
  M 161.84 721.13
  Q 136.94 721.37 113.50 721.27
  Q 111.81 721.26 109.93 722.65
  A 0.56 0.56 0.0 0 1 109.17 722.56
  Q 108.24 721.46 105.50 721.44
  Q 90.10 721.32 74.47 721.51"
/>
<path stroke="#3c434c" vector-effect="non-scaling-stroke" d="
  M 270.12 745.14
  Q 271.65 735.14 270.93 724.77
  Q 270.76 722.31 268.71 720.81"
/>
<path stroke="#3c434c" vector-effect="non-scaling-stroke" d="
  M 161.84 721.13
  Q 162.82 733.09 162.30 745.16"
/>
<path stroke="#3c434c" vector-effect="non-scaling-stroke" d="
  M 169.59 721.28
  Q 167.92 721.96 167.90 723.55
  Q 167.80 734.26 168.27 744.80"
/>
<path stroke="#3c434c" vector-effect="non-scaling-stroke" d="
  M 25.71 745.61
  Q 12.87 746.46 0.00 745.86"
/>
<path stroke="#3c434c" vector-effect="non-scaling-stroke" d="
  M 24.68 754.56
  Q 20.62 753.06 14.49 753.90
  Q 11.13 754.37 11.17 758.20
  Q 11.23 764.20 11.02 773.01
  Q 10.97 775.04 11.66 776.95
  A 0.96 0.94 -7.8 0 0 12.50 777.57
  L 17.29 777.88"
/>
<path stroke="#3c434c" vector-effect="non-scaling-stroke" d="
  M 187.72 754.97
  Q 186.54 766.58 188.01 777.51"
/>
<path stroke="#3c434c" vector-effect="non-scaling-stroke" d="
  M 180.10 777.41
  Q 181.01 765.37 179.92 753.75"
/>
<path stroke="#626364" vector-effect="non-scaling-stroke" d="
  M 264.70 825.09
  Q 266.34 824.25 266.86 823.59
  Q 279.33 807.62 291.41 792.91
  A 0.35 0.35 0.0 0 0 291.14 792.34
  L 282.05 792.38
  A 3.04 3.03 19.1 0 0 279.67 793.53
  L 254.59 825.03"
/>
<path stroke="#626364" vector-effect="non-scaling-stroke" d="
  M 98.12 825.17
  L 130.84 793.59
  A 0.73 0.73 0.0 0 0 130.34 792.33
  L 122.31 792.22
  A 4.48 4.46 23.7 0 0 119.20 793.43
  L 90.67 820.39
  A 7.92 7.45 5.6 0 1 89.66 821.17
  Q 87.20 822.73 85.03 824.99"
/>
</g>

<g fill="#0c1019">
<path d="
  M 255.53 407.25
  Q 253.76 414.05 247.25 414.35
  C 241.34 414.51 238.95 410.66 237.46 405.65
  A 1.84 1.83 -43.3 0 1 237.50 404.50
  C 239.00 400.47 241.54 397.05 246.19 396.82
  C 252.35 396.53 256.43 401.15 255.53 407.25
  Z"
/>
<path d="
  M 232.51 408.67
  L 230.27 412.18
  C 221.24 420.68 209.07 407.69 218.83 398.53
  A 2.62 2.49 15.5 0 1 219.99 397.91
  Q 226.27 396.36 229.74 399.20
  Q 234.10 402.76 232.51 408.67
  Z"
/>
<path d="
  M 434.51 664.02
  A 0.65 0.65 0.0 0 1 434.94 662.98
  Q 437.46 662.64 439.08 664.71
  A 1.09 1.09 0.0 0 1 438.06 666.46
  Q 436.15 666.17 434.51 664.02
  Z"
/>
<ellipse cx="0.00" cy="0.00" transform="translate(435.82,668.57) rotate(-8.1)" rx="1.32" ry="0.69"/>
</g>
<g fill="#fdc72c">
<path d="
  M 247.25 414.35
  Q 253.76 414.05 255.53 407.25
  Q 255.87 406.84 256.10 406.15
  A 0.17 0.17 0.0 0 1 256.43 406.17
  C 257.04 409.47 254.87 411.73 252.42 414.08
  A 3.63 3.62 -22.1 0 0 251.30 416.72
  L 251.38 435.54
  A 1.43 1.42 0.2 0 1 249.93 436.97
  L 247.93 436.94
  A 1.27 1.27 0.0 0 1 246.67 435.63
  L 247.25 414.35
  Z"
/>
<path d="
  M 230.27 412.18
  L 232.51 408.67
  Q 233.64 408.72 234.09 410.34
  Q 234.64 412.38 234.59 414.34
  Q 234.35 424.63 234.57 436.30
  A 1.88 1.88 0.0 0 1 232.27 438.17
  L 232.17 438.15
  A 2.92 2.92 0.0 0 1 229.90 435.25
  Q 230.04 426.96 229.73 420.33
  C 229.62 417.82 230.25 414.95 230.27 412.18
  Z"
/>
<path d="
  M 233.14 523.66
  Q 232.16 523.36 231.85 521.65
  Q 231.74 520.99 231.17 521.18
  Q 230.75 521.33 230.64 521.96
  A 0.63 0.60 -62.9 0 0 230.79 522.46
  Q 231.60 523.32 231.28 524.16
  A 0.62 0.62 0.0 0 1 230.17 524.25
  Q 229.32 522.78 228.72 522.68
  A 0.81 0.07 9.7 0 1 227.92 522.47
  Q 228.08 522.05 228.17 521.93
  A 0.52 0.51 -54.2 0 0 228.06 521.20
  L 227.97 521.14
  A 0.53 0.52 -54.5 0 0 227.23 521.27
  Q 226.47 522.39 227.40 522.88
  A 0.95 0.70 -23.0 0 1 226.57 524.27
  Q 224.40 524.24 226.37 520.35
  A 0.84 0.84 0.0 0 1 227.64 520.06
  L 228.52 520.74
  A 1.26 1.25 55.0 0 0 229.69 520.95
  Q 230.18 520.79 232.11 520.73
  Q 233.08 520.70 233.42 521.50
  Q 233.60 521.94 233.67 523.25
  A 0.41 0.41 0.0 0 1 233.14 523.66
  Z"
/>
</g>
<g fill="#191512">
<path d="
  M 453.63 665.05
  Q 452.48 664.41 451.99 664.41
  C 450.86 664.41 450.64 665.45 450.10 666.41
  A 1.36 1.17 -53.5 0 1 448.12 666.86
  C 446.65 665.31 448.04 663.30 449.74 662.99
  Q 451.70 662.62 453.88 663.34
  A 0.97 0.97 0.0 0 1 454.53 664.42
  L 454.50 664.64
  A 0.59 0.59 0.0 0 1 453.63 665.05
  Z"
/>
<ellipse cx="0.00" cy="0.00" transform="translate(451.91,668.68) rotate(-30.7)" rx="1.16" ry="0.81"/>
<path d="
  M 447.11 668.77
  A 0.07 0.07 0.0 0 1 447.18 668.85
  L 447.18 668.88
  A 2.60 1.88 1.3 0 1 444.54 670.70
  L 444.00 670.68
  A 2.60 1.88 1.3 0 1 441.44 668.75
  L 441.44 668.72
  A 0.07 0.07 0.0 0 1 441.51 668.65
  L 447.11 668.77
  Z"
/>
<path d="
  M 441.91 671.37
  Q 442.89 672.19 445.66 671.91
  A 0.65 0.64 -62.0 0 1 446.03 673.12
  Q 444.01 674.20 441.42 673.44
  A 0.97 0.96 14.7 0 1 440.75 672.30
  L 440.87 671.73
  A 0.65 0.64 -63.9 0 1 441.91 671.37
  Z"
/>
</g>
<g fill="#5b332a">
<ellipse cx="0.00" cy="0.00" transform="translate(433.31,659.62) rotate(-65.5)" rx="0.81" ry="0.40"/>
<path d="
  M 433.19 662.97
  L 433.56 663.13
  A 0.36 0.36 0.0 0 1 433.64 663.75
  Q 432.37 664.75 433.16 667.56
  Q 433.29 668.00 432.96 668.36
  Q 432.78 668.56 432.44 668.54
  Q 432.00 668.51 431.98 668.24
  Q 431.76 665.41 432.43 663.32
  A 0.57 0.57 0.0 0 1 433.19 662.97
  Z"
/>
</g>
<g fill="#143a7a">
<path d="
  M 225.84 335.64
  Q 226.56 335.24 230.16 334.43
  Q 247.33 330.59 256.19 329.22
  Q 260.95 328.48 271.37 327.74
  C 274.23 327.54 275.53 327.83 277.72 327.90
  A 17.10 17.08 -50.3 0 0 281.99 327.50
  C 287.69 326.24 293.12 325.18 299.29 323.24
  Q 305.44 321.30 312.43 319.63
  A 0.50 0.50 0.0 0 1 313.01 320.31
  L 305.51 338.14
  A 0.91 0.89 -78.8 0 1 304.70 338.69
  Q 293.18 338.82 266.51 338.26
  Q 259.89 338.12 241.25 338.66
  Q 237.64 338.76 228.26 337.66
  A 1.13 1.13 0.0 0 1 227.37 337.03
  Q 227.01 336.31 225.93 336.14
  A 0.27 0.27 0.0 0 1 225.84 335.64
  Z"
/>
<path d="
  M 200.88 347.57
  Q 199.87 355.56 202.46 364.82
  A 0.76 0.76 0.0 0 1 201.72 365.78
  L 194.70 365.68
  A 0.73 0.73 0.0 0 1 193.98 364.93
  Q 194.11 361.36 195.55 357.09
  A 2.03 1.89 58.9 0 0 195.66 356.57
  L 196.20 348.22
  A 0.46 0.45 88.5 0 1 196.59 347.80
  L 200.54 347.24
  A 0.30 0.29 -0.1 0 1 200.88 347.57
  Z"
/>
<path d="
  M 258.50 366.00
  C 252.25 359.16 242.32 357.23 234.75 363.13
  C 233.73 363.93 233.22 365.13 232.32 365.86
  A 1.40 1.37 26.2 0 1 231.40 366.16
  L 222.03 365.69
  L 207.81 365.81
  A 0.66 0.65 -87.6 0 1 207.15 365.09
  C 207.69 359.50 207.02 355.59 206.26 347.80
  A 0.49 0.48 87.9 0 1 206.75 347.27
  L 270.15 348.14
  A 0.62 0.62 0.0 0 1 270.76 348.82
  L 269.37 365.14
  A 0.64 0.64 0.0 0 1 268.76 365.72
  L 258.50 366.00
  Z"
/>
<path d="
  M 278.48 365.69
  Q 275.40 365.66 274.43 365.52
  A 0.73 0.72 11.9 0 1 273.83 364.61
  Q 276.13 356.25 276.39 348.95
  A 0.34 0.34 0.0 0 1 276.74 348.62
  Q 278.34 348.69 278.68 348.69
  Q 279.03 348.70 280.62 348.67
  A 0.34 0.34 0.0 0 1 280.97 349.00
  Q 281.06 356.31 283.16 364.72
  A 0.73 0.72 -10.5 0 1 282.54 365.61
  Q 281.57 365.73 278.48 365.69
  Z"
/>
<path d="
  M 301.00 349.34
  Q 300.95 349.53 300.91 352.68
  C 300.85 357.78 303.84 360.34 309.28 360.30
  Q 314.93 360.25 319.29 360.10
  A 0.64 0.64 0.0 0 1 319.96 360.73
  L 321.75 499.42
  A 3.76 3.75 -28.6 0 1 321.11 501.58
  L 314.91 510.80
  A 0.33 0.33 0.0 0 1 314.35 510.77
  Q 314.16 510.42 314.15 509.77
  Q 313.55 468.88 313.77 443.45
  C 313.96 421.34 313.61 403.75 313.49 376.67
  Q 313.47 370.50 312.16 368.66
  C 309.74 365.22 306.58 365.73 301.99 365.68
  Q 296.73 365.63 289.18 365.69
  A 0.36 0.36 0.0 0 1 288.82 365.38
  L 286.50 349.14
  A 0.41 0.40 -3.6 0 1 286.91 348.68
  L 300.70 348.93
  A 0.32 0.31 9.5 0 1 301.00 349.34
  Z"
/>
</g>
<path fill="#2f5d9e" d="
  M 39.28 510.73
  A 0.04 0.04 0.0 0 1 39.31 510.68
  L 39.32 510.68
  A 3.00 1.73 78.3 0 1 41.62 513.27
  L 42.34 516.75
  A 3.00 1.73 78.3 0 1 41.26 520.04
  L 41.25 520.04
  A 0.04 0.04 0.0 0 1 41.20 520.01
  L 39.28 510.73
  Z"
/>
<path fill="#fb9835" d="
  M 246.75 523.55
  Q 246.77 523.54 246.97 522.88
  A 0.46 0.46 0.0 0 1 247.86 522.89
  Q 248.11 523.83 247.76 524.15
  Q 247.30 524.58 246.70 524.34
  Q 246.27 524.16 246.14 524.13
  A 1.50 1.47 39.4 0 0 245.25 524.21
  C 243.87 524.77 242.91 524.25 242.86 522.76
  A 0.35 0.34 -39.8 0 0 242.18 522.70
  Q 241.81 524.31 239.50 524.09
  A 0.73 0.72 -88.7 0 1 238.85 523.40
  L 238.79 522.23
  A 0.29 0.29 0.0 0 0 238.48 521.95
  L 238.15 521.96
  A 0.31 0.30 -3.8 0 0 237.86 522.28
  L 237.94 524.08
  A 0.35 0.35 0.0 0 1 237.29 524.29
  Q 236.25 522.64 237.47 521.10
  A 0.63 0.63 0.0 0 1 238.39 521.03
  Q 240.05 522.61 240.30 523.55
  A 0.31 0.31 0.0 0 0 240.85 523.64
  Q 240.95 523.48 241.03 523.11
  A 2.29 1.93 -71.8 0 1 243.88 521.35
  Q 244.12 521.46 243.72 522.28
  Q 243.47 522.78 243.92 523.21
  Q 244.13 523.40 244.40 523.47
  A 0.49 0.48 -79.7 0 0 244.99 523.06
  Q 245.10 522.22 245.47 522.08
  Q 245.93 521.91 246.07 522.47
  Q 246.13 522.72 246.10 523.16
  A 0.43 0.42 -13.8 0 0 246.75 523.55
  Z"
/>
<path fill="#0d1426" d="
  M 218.41 499.74
  A 0.84 0.84 0.0 0 1 219.25 498.90
  L 220.24 498.90
  A 3.47 3.32 -0.1 0 1 223.72 502.22
  L 223.72 503.42
  A 3.47 3.32 -0.1 0 1 220.26 506.74
  L 219.27 506.74
  A 0.84 0.84 0.0 0 1 218.43 505.90
  L 218.41 499.74
  Z"
/>
<path fill="#a49c8d" d="
  M 234.38 379.76
  Q 234.01 379.61 234.10 379.06
  Q 234.19 378.46 235.08 378.73
  A 0.81 0.66 28.0 0 1 235.56 379.89
  Q 235.32 380.15 234.38 379.76
  Z"
/>
<path fill="#554541" d="
  M 229.32 521.77
  Q 229.43 522.13 229.35 522.27
  A 0.29 0.29 0.0 0 1 228.86 522.28
  Q 228.83 522.23 228.96 521.77
  A 0.19 0.19 0.0 0 1 229.32 521.77
  Z"
/>

</svg>