<?xml version="1.0" encoding="UTF-8" standalone="no"?>
<!DOCTYPE svg PUBLIC "-//W3C//DTD SVG 1.1//EN" "http://www.w3.org/Graphics/SVG/1.1/DTD/svg11.dtd">
<svg xmlns="http://www.w3.org/2000/svg" version="1.1" viewBox="0.00 0.00 1536.00 1024.00" preserveAspectRatio="none">

<g stroke-width="2.00" fill="none" stroke-linecap="butt">
<path stroke="#132a54" vector-effect="non-scaling-stroke" d="
  M 1536.00 710.42
  L 1387.64 710.46"
/>
<path stroke="#112750" vector-effect="non-scaling-stroke" d="
  M 1387.64 710.46
  L 1391.30 704.37
  A 3.31 3.13 66.6 0 0 1391.71 703.24
  Q 1392.48 698.62 1389.13 696.29
  Q 1382.32 691.56 1376.61 687.03
  A 0.93 0.92 19.2 0 1 1376.25 686.30
  L 1374.30 535.59
  A 0.45 0.45 0.0 0 1 1374.75 535.13
  C 1377.33 535.13 1384.89 535.42 1386.82 533.73
  C 1389.74 531.18 1388.46 526.72 1384.78 526.03
  Q 1381.41 525.39 1377.23 525.24
  A 0.59 0.59 0.0 0 1 1376.67 524.59
  Q 1377.00 521.22 1378.97 518.78
  C 1381.41 515.75 1381.92 512.86 1382.80 509.33
  A 1.16 1.16 0.0 0 1 1384.33 508.52
  C 1390.14 510.63 1396.08 509.23 1397.55 502.74
  Q 1403.69 475.61 1403.86 474.65
  C 1405.24 466.52 1407.45 459.84 1409.81 449.83
  A 2.35 2.34 84.8 0 1 1411.13 448.24
  Q 1418.77 444.91 1415.60 437.94
  C 1413.77 433.90 1409.30 434.12 1405.62 433.97
  A 2.60 2.55 69.3 0 1 1403.83 433.14
  Q 1396.78 425.55 1377.68 406.60
  Q 1375.34 404.28 1371.86 404.42
  A 1.50 1.49 84.3 0 1 1370.33 403.16
  C 1370.07 401.48 1370.08 400.13 1371.18 398.52
  C 1374.41 393.83 1372.87 387.83 1369.72 383.51
  C 1365.35 377.52 1357.92 380.81 1356.20 386.95
  C 1355.23 390.40 1354.36 394.33 1356.28 396.70
  Q 1359.03 400.10 1358.03 403.77
  A 1.27 1.27 0.0 0 1 1356.86 404.71
  C 1353.49 404.86 1352.49 405.11 1350.11 407.53
  Q 1334.21 423.73 1324.63 433.04
  A 4.45 4.41 18.9 0 1 1322.09 434.27
  C 1316.69 434.96 1311.96 437.79 1313.52 444.05
  Q 1314.43 447.71 1318.66 448.48
  A 1.52 1.50 89.4 0 1 1319.87 449.68
  Q 1320.38 452.37 1321.16 455.41
  Q 1328.56 484.31 1329.48 489.69
  C 1330.26 494.25 1331.93 498.61 1333.52 504.49
  C 1335.20 510.73 1341.32 510.93 1346.01 508.03
  A 0.61 0.60 -20.4 0 1 1346.93 508.45
  L 1348.12 516.12
  A 1.67 1.62 25.7 0 0 1348.34 516.72
  L 1351.66 522.48
  A 1.65 1.64 70.2 0 1 1350.51 524.93
  C 1346.77 525.56 1340.71 525.66 1341.76 531.44
  Q 1342.06 533.05 1343.94 534.58
  A 1.86 1.83 -24.2 0 0 1345.10 535.01
  L 1355.32 535.15
  A 0.19 0.19 0.0 0 1 1355.51 535.35
  L 1353.46 685.43
  A 1.66 1.64 -19.7 0 1 1352.86 686.68
  L 1340.27 697.13
  A 1.18 1.13 88.7 0 0 1340.06 697.36
  Q 1338.73 699.33 1338.70 702.30
  Q 1338.69 703.60 1340.39 706.23
  Q 1341.77 708.35 1342.28 710.34"
/>
<path stroke="#132a54" vector-effect="non-scaling-stroke" d="
  M 1342.28 710.34
  L 1260.13 710.39"
/>
<path stroke="#27416a" vector-effect="non-scaling-stroke" d="
  M 1260.13 710.39
  Q 1260.44 707.88 1259.82 705.93"
/>
<path stroke="#112750" vector-effect="non-scaling-stroke" d="
  M 1259.82 705.93
  C 1259.15 699.65 1253.64 698.57 1248.73 697.14
  A 2.33 2.32 -87.0 0 1 1247.08 695.30
  Q 1246.47 691.96 1246.98 688.76
  Q 1247.65 684.50 1247.50 682.64
  Q 1246.59 671.24 1245.39 662.78
  Q 1244.20 654.42 1242.42 649.85
  Q 1234.42 629.39 1220.93 610.97
  A 2.37 2.35 -63.7 0 1 1220.47 609.60
  C 1220.39 602.45 1217.74 593.71 1209.99 591.56
  Q 1206.98 590.72 1203.48 590.62"
/>
<path stroke="#10172a" vector-effect="non-scaling-stroke" d="
  M 1387.64 710.46
  L 1388.37 721.42"
/>
<path stroke="#2f333d" vector-effect="non-scaling-stroke" d="
  M 1388.37 721.42
  L 1390.83 745.26"
/>
<path stroke="#10172a" vector-effect="non-scaling-stroke" d="
  M 1390.83 745.26
  L 1391.57 753.04"
/>
<path stroke="#1a2435" vector-effect="non-scaling-stroke" d="
  M 1391.57 753.04
  L 1394.10 777.38
  A 0.65 0.64 86.6 0 0 1394.75 777.96
  L 1444.98 777.76"
/>
<path stroke="#10172a" vector-effect="non-scaling-stroke" d="
  M 1444.98 777.76
  Q 1447.80 776.90 1451.54 777.50"
/>
<path stroke="#2f333d" vector-effect="non-scaling-stroke" d="
  M 1451.54 777.50
  L 1492.38 777.41"
/>
<path stroke="#1a2435" vector-effect="non-scaling-stroke" d="
  M 1492.38 777.41
  L 1500.95 777.59"
/>
<path stroke="#232e40" vector-effect="non-scaling-stroke" d="
  M 1500.95 777.59
  L 1536.00 777.61"
/>
<path stroke="#46474c" vector-effect="non-scaling-stroke" d="
  M 1536.00 790.12
  L 1395.93 790.09
  A 0.83 0.83 0.0 0 0 1395.10 790.96
  L 1395.31 795.32
  A 2.44 2.42 -66.2 0 0 1395.88 796.80
  C 1398.54 799.96 1399.68 803.66 1397.18 807.24
  A 3.45 3.45 0.0 0 1 1394.35 808.72
  L 1336.15 808.72
  A 0.59 0.29 -18.9 0 1 1335.99 808.70
  Q 1332.87 808.04 1332.83 804.79
  Q 1332.75 798.45 1334.50 795.63
  A 1.38 1.32 -31.8 0 0 1334.70 794.86
  L 1334.51 790.81
  A 0.80 0.80 0.0 0 0 1333.71 790.05
  L 1264.38 790.13"
/>
<path stroke="#0d1220" vector-effect="non-scaling-stroke" d="
  M 1264.38 790.13
  L 1257.90 777.54"
/>
<path stroke="#2f333d" vector-effect="non-scaling-stroke" d="
  M 1257.90 777.54
  L 1276.52 777.57"
/>
<path stroke="#10172a" vector-effect="non-scaling-stroke" d="
  M 1276.52 777.57
  L 1301.67 778.16"
/>
<path stroke="#232e40" vector-effect="non-scaling-stroke" d="
  M 1301.67 778.16
  L 1334.73 778.12
  A 1.17 1.16 3.0 0 0 1335.89 777.08
  L 1338.13 755.79"
/>
<path stroke="#10172a" vector-effect="non-scaling-stroke" d="
  M 1338.13 755.79
  L 1338.94 745.32"
/>
<path stroke="#2f333d" vector-effect="non-scaling-stroke" d="
  M 1338.94 745.32
  L 1341.48 721.35"
/>
<path stroke="#10172a" vector-effect="non-scaling-stroke" d="
  M 1341.48 721.35
  L 1342.28 710.34"
/>
<path stroke="#232e40" vector-effect="non-scaling-stroke" d="
  M 1259.82 705.93
  Q 1256.94 705.06 1254.38 702.72
  A 1.84 1.84 0.0 0 0 1253.72 702.34
  L 1250.02 701.12
  A 0.91 0.90 84.3 0 0 1248.95 702.43
  L 1252.61 708.76
  A 0.89 0.89 0.0 0 1 1251.95 710.09
  L 1242.56 711.26"
/>
<path stroke="#10172a" vector-effect="non-scaling-stroke" d="
  M 1242.56 711.26
  Q 1233.90 713.79 1224.76 710.91"
/>
<path stroke="#7b564b" vector-effect="non-scaling-stroke" d="
  M 1230.44 710.78
  C 1235.36 711.26 1242.46 710.77 1243.56 704.92
  C 1244.01 702.50 1243.84 699.53 1243.59 696.25
  C 1243.39 693.68 1241.72 692.78 1239.29 692.42
  Q 1234.42 691.69 1227.85 691.00
  A 1.61 1.57 34.5 0 0 1226.98 691.15
  Q 1225.29 691.97 1224.36 694.10"
/>
<path stroke="#423a38" vector-effect="non-scaling-stroke" d="
  M 1228.63 721.75
  L 1232.61 731.51"
/>
<path stroke="#232c3a" vector-effect="non-scaling-stroke" d="
  M 1232.61 731.51
  Q 1233.82 735.88 1236.15 741.37
  Q 1237.05 743.48 1238.45 745.21"
/>
<path stroke="#0f1524" vector-effect="non-scaling-stroke" d="
  M 1238.45 745.21
  L 1243.79 753.96"
/>
<path stroke="#423a38" vector-effect="non-scaling-stroke" d="
  M 1243.79 753.96
  L 1247.73 760.25"
/>
<path stroke="#0f1524" vector-effect="non-scaling-stroke" d="
  M 1247.73 760.25
  L 1254.62 771.42"
/>
<path stroke="#2f3137" vector-effect="non-scaling-stroke" d="
  M 1254.62 771.42
  L 1257.90 777.54"
/>
<path stroke="#454546" vector-effect="non-scaling-stroke" d="
  M 1264.38 790.13
  C 1266.48 793.72 1268.28 797.38 1265.65 800.68
  C 1261.21 806.23 1254.43 808.58 1247.91 811.18
  C 1239.97 814.36 1230.54 813.45 1221.85 813.30
  C 1219.84 813.27 1218.19 812.48 1217.57 810.68
  C 1214.91 802.99 1219.28 799.10 1226.01 797.58
  Q 1228.66 796.99 1231.40 796.08
  A 0.53 0.52 -22.6 0 0 1231.71 795.34
  Q 1229.92 791.92 1226.86 789.65"
/>
<path stroke="#0d1220" vector-effect="non-scaling-stroke" d="
  M 1226.86 789.65
  Q 1222.84 782.52 1217.74 777.35"
/>
<path stroke="#0d1220" vector-effect="non-scaling-stroke" d="
  M 1193.37 777.28
  L 1189.60 790.10"
/>
<path stroke="#454546" vector-effect="non-scaling-stroke" d="
  M 1189.60 790.10
  Q 1186.88 794.11 1185.49 799.23
  A 4.74 4.59 55.4 0 0 1185.33 800.19
  Q 1184.98 806.12 1183.74 810.93
  Q 1183.30 812.66 1181.28 814.11
  A 2.57 2.55 26.3 0 1 1179.85 814.59
  Q 1173.34 814.72 1172.75 814.67
  C 1159.49 813.53 1152.17 813.24 1140.29 810.51"
/>
<path stroke="#0d1220" vector-effect="non-scaling-stroke" d="
  M 1151.64 789.95
  Q 1154.45 784.13 1155.50 777.58"
/>
<path stroke="#263144" vector-effect="non-scaling-stroke" d="
  M 1260.13 710.39
  L 1255.30 716.30
  A 2.36 2.31 12.0 0 1 1254.08 717.07
  Q 1251.05 717.84 1248.17 716.35
  Q 1244.25 714.31 1242.56 711.26"
/>
<path stroke="#323641" vector-effect="non-scaling-stroke" d="
  M 1341.48 721.35
  Q 1317.56 721.40 1293.74 721.17
  C 1290.13 721.13 1287.58 721.47 1287.38 725.48
  Q 1286.87 735.63 1287.28 741.73
  Q 1287.40 743.47 1288.51 744.66
  A 1.44 1.42 -21.1 0 0 1289.52 745.10
  L 1338.94 745.32"
/>
<path stroke="#263144" vector-effect="non-scaling-stroke" d="
  M 1338.13 755.79
  L 1338.09 753.93
  A 1.05 1.05 0.0 0 0 1337.01 752.91
  Q 1321.44 753.35 1307.84 753.11
  C 1303.96 753.04 1301.64 753.60 1301.32 757.82
  Q 1300.44 769.66 1301.67 778.16"
/>
<path stroke="#323641" vector-effect="non-scaling-stroke" d="
  M 1276.52 777.57
  L 1293.27 777.41
  A 1.99 1.99 0.0 0 0 1295.24 775.47
  Q 1295.60 761.92 1295.19 756.53
  Q 1294.97 753.73 1292.47 753.75
  Q 1274.08 753.94 1257.23 753.68
  A 2.65 2.65 0.0 0 0 1254.54 756.34
  L 1254.62 771.42"
/>
<path stroke="#453f43" vector-effect="non-scaling-stroke" d="
  M 1247.73 760.25
  Q 1248.38 757.45 1247.93 754.89
  A 0.90 0.89 -84.8 0 0 1247.37 754.21
  Q 1245.78 753.59 1243.79 753.96"
/>
<path stroke="#263144" vector-effect="non-scaling-stroke" d="
  M 1238.45 745.21
  Q 1239.75 745.17 1240.12 744.89"
/>
<path stroke="#323641" vector-effect="non-scaling-stroke" d="
  M 1240.12 744.89
  L 1279.28 745.22
  A 1.55 1.55 0.0 0 0 1280.84 743.75
  Q 1281.32 733.88 1280.84 724.28
  Q 1280.68 721.08 1277.25 721.15
  Q 1259.40 721.50 1241.70 721.29"
/>
<path stroke="#263144" vector-effect="non-scaling-stroke" d="
  M 1241.70 721.29
  L 1228.62 721.42"
/>
<path stroke="#1d2739" vector-effect="non-scaling-stroke" d="
  M 1536.00 720.55
  Q 1515.50 720.61 1495.00 720.69
  Q 1492.04 720.70 1490.02 721.50
  A 1.36 1.34 -9.4 0 0 1489.17 722.67
  Q 1488.70 729.55 1488.22 742.97
  Q 1488.12 745.84 1491.08 745.79
  Q 1513.54 745.40 1536.00 745.53"
/>
<path stroke="#263144" vector-effect="non-scaling-stroke" d="
  M 1536.00 753.24
  L 1501.89 753.51"
/>
<path stroke="#1d2739" vector-effect="non-scaling-stroke" d="
  M 1501.89 753.51
  L 1491.01 753.68"
/>
<path stroke="#323641" vector-effect="non-scaling-stroke" d="
  M 1491.01 753.68
  Q 1473.32 753.62 1455.49 753.66
  Q 1452.43 753.67 1451.65 753.91
  Q 1449.44 754.57 1449.49 757.50
  Q 1449.63 766.85 1449.82 775.74
  Q 1449.86 777.51 1451.54 777.50"
/>
<path stroke="#1d2739" vector-effect="non-scaling-stroke" d="
  M 1444.98 777.76
  L 1445.66 756.18
  A 3.24 3.24 0.0 0 0 1443.53 753.04
  Q 1441.75 752.40 1439.44 752.41
  Q 1416.66 752.48 1396.77 752.49
  Q 1394.96 752.49 1391.57 753.04"
/>
<path stroke="#323641" vector-effect="non-scaling-stroke" d="
  M 1390.83 745.26
  Q 1405.74 745.40 1420.75 745.26
  Q 1423.93 745.23 1424.55 743.32
  A 0.35 0.34 -61.7 0 1 1425.09 743.15
  Q 1427.92 745.29 1429.50 745.27
  Q 1455.93 745.05 1479.88 745.35
  Q 1482.91 745.39 1483.97 743.14
  A 2.16 2.11 -33.1 0 0 1484.17 742.24
  Q 1484.15 733.96 1483.70 725.30
  Q 1483.51 721.52 1480.26 721.51
  Q 1436.45 721.25 1428.48 721.43
  Q 1426.92 721.46 1424.70 722.97
  A 0.55 0.55 0.0 0 1 1423.97 722.87
  Q 1422.74 721.35 1421.32 721.36
  Q 1405.07 721.46 1388.37 721.42"
/>
<path stroke="#21385a" vector-effect="non-scaling-stroke" d="
  M 1536.00 730.22
  L 1536.00 737.46"
/>
<path stroke="#454d57" vector-effect="non-scaling-stroke" d="
  M 1241.70 721.29
  Q 1239.87 722.64 1239.82 724.99
  Q 1239.59 737.73 1240.12 744.89"
/>
<path stroke="#595559" vector-effect="non-scaling-stroke" d="
  M 1232.61 731.51
  L 1233.64 722.93
  A 0.93 0.93 0.0 0 0 1232.75 721.90
  L 1228.63 721.75"
/>
<path stroke="#303d4f" vector-effect="non-scaling-stroke" d="
  M 1501.89 753.51
  Q 1500.21 755.43 1500.21 758.03
  Q 1500.23 769.72 1500.95 777.59"
/>
<path stroke="#3c434c" vector-effect="non-scaling-stroke" d="
  M 1492.38 777.41
  Q 1493.07 768.38 1492.86 757.26
  Q 1492.82 755.06 1491.01 753.68"
/>
<path stroke="#2f333d" vector-effect="non-scaling-stroke" d="
  M 1155.50 777.58
  L 1152.30 777.88"
/>
<path stroke="#2a303e" vector-effect="non-scaling-stroke" d="
  M 1217.74 777.35
  L 1193.37 777.28"
/>
<path stroke="#46474c" vector-effect="non-scaling-stroke" d="
  M 1226.86 789.65
  L 1189.60 790.10"
/>
<path stroke="#626364" vector-effect="non-scaling-stroke" d="
  M 1477.90 825.05
  Q 1477.94 824.90 1477.96 824.76
  A 0.85 0.84 -69.0 0 0 1477.61 823.97
  Q 1475.19 822.29 1473.98 821.28
  Q 1458.07 807.98 1442.42 795.09
  Q 1439.76 792.90 1438.37 792.40
  A 0.70 0.65 -33.0 0 0 1438.14 792.36
  L 1426.77 792.20
  A 0.46 0.46 0.0 0 0 1426.47 793.02
  L 1465.47 824.76"
/>
<path stroke="#626364" vector-effect="non-scaling-stroke" d="
  M 1325.28 825.05
  L 1294.23 792.37
  A 0.74 0.73 68.3 0 0 1293.69 792.13
  L 1282.61 791.98
  A 0.08 0.08 0.0 0 0 1282.55 792.11
  L 1313.86 824.91"
/>
</g>

<g fill="#39475a">
<path d="
  M 1179.28 704.53
  L 1176.67 703.87
  Q 1175.65 699.62 1175.60 696.31
  Q 1175.42 684.81 1174.97 675.75
  C 1174.77 671.66 1175.07 668.52 1174.96 664.91
  Q 1174.90 662.93 1175.06 660.59
  Q 1176.67 637.43 1178.28 622.51
  Q 1178.66 619.06 1176.63 616.65
  Q 1172.36 611.58 1172.35 611.57
  A 1.03 1.02 -68.7 0 1 1171.92 610.58
  C 1172.30 607.71 1176.01 605.88 1177.50 604.66
  A 0.72 0.72 0.0 0 1 1178.64 605.00
  Q 1180.61 611.20 1180.85 617.15
  A 2.76 2.63 -59.2 0 0 1181.07 618.12
  Q 1182.27 620.81 1181.79 624.00
  C 1180.38 633.29 1179.92 640.20 1178.79 649.93
  C 1177.75 658.87 1178.13 667.00 1178.32 676.42
  Q 1178.38 679.45 1178.95 687.06
  Q 1179.59 695.75 1179.28 704.53
  Z"
/>
<path d="
  M 1223.42 692.92
  L 1220.00 699.56
  A 2.33 2.28 60.3 0 0 1219.75 700.52
  L 1219.61 704.42
  A 0.51 0.51 0.0 0 1 1218.92 704.88
  Q 1217.86 704.47 1217.29 703.37
  C 1217.08 698.29 1219.11 695.28 1220.45 690.90
  A 0.73 0.56 59.2 0 0 1220.48 690.64
  L 1220.16 683.87
  A 7.55 7.50 27.7 0 0 1219.02 680.26
  Q 1213.41 671.41 1209.08 663.21
  C 1205.81 657.02 1203.63 649.25 1202.08 642.63
  C 1201.05 638.25 1200.07 631.61 1202.01 627.52
  A 0.36 0.36 0.0 0 1 1202.70 627.65
  C 1202.95 631.24 1205.58 635.36 1208.56 640.47
  Q 1215.68 652.64 1217.50 656.23
  Q 1219.21 659.59 1219.75 662.99
  Q 1221.07 671.33 1221.26 672.66
  C 1221.84 676.68 1221.75 681.30 1222.16 684.87
  A 7.15 6.91 31.5 0 0 1222.65 686.77
  C 1223.57 688.98 1224.53 690.97 1223.42 692.92
  Z"
/>
<path d="
  M 1259.82 705.93
  Q 1260.44 707.88 1260.13 710.39
  L 1255.30 716.30
  A 2.36 2.31 12.0 0 1 1254.08 717.07
  Q 1251.05 717.84 1248.17 716.35
  Q 1244.25 714.31 1242.56 711.26
  L 1251.95 710.09
  A 0.89 0.89 0.0 0 0 1252.61 708.76
  L 1248.95 702.43
  A 0.91 0.90 84.3 0 1 1250.02 701.12
  L 1253.72 702.34
  A 1.84 1.84 0.0 0 1 1254.38 702.72
  Q 1256.94 705.06 1259.82 705.93
  Z"
/>
<path d="
  M 1241.70 721.29
  Q 1239.87 722.64 1239.82 724.99
  Q 1239.59 737.73 1240.12 744.89
  Q 1239.75 745.17 1238.45 745.21
  Q 1237.05 743.48 1236.15 741.37
  Q 1233.82 735.88 1232.61 731.51
  L 1233.64 722.93
  A 0.93 0.93 0.0 0 0 1232.75 721.90
  L 1228.63 721.75
  Q 1228.62 721.59 1228.62 721.42
  L 1241.70 721.29
  Z"
/>
<path d="
  M 1168.90 721.39
  L 1162.28 745.74
  Q 1145.50 746.43 1128.90 745.45
  Q 1129.32 739.56 1127.24 736.51
  Q 1125.05 733.32 1121.97 736.23
  Q 1120.05 738.04 1115.19 745.68
  Q 1113.98 745.06 1113.51 745.09
  L 1113.27 721.34
  L 1168.90 721.39
  Z"
/>
<path d="
  M 1058.59 745.72
  Q 1069.39 746.24 1078.98 748.66
  L 1065.27 750.27
  A 4.89 4.85 49.5 0 1 1063.32 750.11
  L 1054.10 747.37
  A 0.73 0.73 0.0 0 1 1054.16 745.96
  Q 1056.69 745.44 1058.59 745.72
  Z"
/>
<path d="
  M 1338.13 755.79
  L 1335.89 777.08
  A 1.17 1.16 3.0 0 1 1334.73 778.12
  L 1301.67 778.16
  Q 1300.44 769.66 1301.32 757.82
  C 1301.64 753.60 1303.96 753.04 1307.84 753.11
  Q 1321.44 753.35 1337.01 752.91
  A 1.05 1.05 0.0 0 1 1338.09 753.93
  L 1338.13 755.79
  Z"
/>
<path d="
  M 1536.00 753.24
  L 1536.00 777.61
  L 1500.95 777.59
  Q 1500.23 769.72 1500.21 758.03
  Q 1500.21 755.43 1501.89 753.51
  L 1536.00 753.24
  Z"
/>
<path d="
  M 1078.76 789.89
  L 1066.96 789.67
  L 1077.29 787.00
  A 0.75 0.73 -22.4 0 1 1078.10 787.33
  Q 1078.58 788.10 1078.76 789.89
  Z"
/>
</g>
<path fill="#7e7972" d="
  M 1353.30 510.63
  A 0.04 0.04 0.0 0 1 1353.33 510.58
  L 1353.39 510.57
  A 4.61 1.30 77.0 0 1 1355.70 514.77
  L 1355.75 515.00
  A 4.61 1.30 77.0 0 1 1355.52 519.78
  L 1355.46 519.80
  A 0.04 0.04 0.0 0 1 1355.41 519.77
  L 1353.30 510.63
  Z"
/>

</svg>