<?xml version="1.0" encoding="UTF-8" standalone="no"?>
<!DOCTYPE svg PUBLIC "-//W3C//DTD SVG 1.1//EN" "http://www.w3.org/Graphics/SVG/1.1/DTD/svg11.dtd">
<svg xmlns="http://www.w3.org/2000/svg" version="1.1" viewBox="0.00 0.00 1536.00 1024.00">

<g stroke-width="2.00" fill="none" stroke-linecap="butt">
<path stroke="#112750" vector-effect="non-scaling-stroke" d="
  M 376.17 156.53
  L 376.16 168.37
  A 0.58 0.58 0.0 0 1 375.58 168.95
  Q 370.38 168.94 362.76 168.66
  C 359.17 168.52 353.98 169.01 354.06 173.30
  Q 354.25 184.49 354.17 193.21
  C 354.15 195.49 354.96 196.42 356.91 197.11
  Q 359.24 197.94 362.35 198.29
  A 1.46 1.45 3.7 0 1 363.64 199.75
  L 363.44 214.46
  A 1.09 1.08 0.8 0 1 362.33 215.53
  C 359.51 215.46 352.72 214.78 351.52 218.05
  Q 349.57 223.37 345.22 234.25
  C 343.21 239.26 341.62 244.43 339.55 249.39
  Q 337.85 253.47 335.19 260.70
  C 329.60 275.87 323.03 292.80 317.92 307.14
  A 1.14 1.11 -87.2 0 1 317.15 307.86
  Q 300.13 312.37 297.23 313.30
  C 287.74 316.35 277.66 319.09 266.86 321.70
  C 259.90 323.38 253.10 326.16 245.47 328.08
  Q 232.59 331.32 221.55 334.53
  C 218.37 335.46 214.98 335.60 211.66 336.34
  A 3.77 3.75 -52.3 0 1 210.89 336.44
  L 191.08 336.96
  A 0.82 0.81 -9.7 0 1 190.29 336.41
  Q 187.84 329.07 179.67 328.36
  Q 169.39 327.46 165.84 337.08
  A 3.60 3.56 57.7 0 0 165.63 338.03
  Q 165.30 342.04 165.90 344.35
  C 167.33 349.77 171.32 353.31 177.03 353.31
  C 181.46 353.32 184.32 351.98 187.25 348.98
  Q 188.23 347.98 189.50 347.13
  A 0.63 0.63 0.0 0 1 190.48 347.64
  Q 190.56 354.34 189.26 358.68
  C 188.47 361.31 188.51 363.19 188.65 365.35
  A 0.46 0.45 -2.4 0 1 188.20 365.83
  L 170.23 366.06
  A 2.03 1.96 30.5 0 0 169.40 366.26
  Q 165.95 367.93 164.78 370.98
  A 3.31 3.20 -35.1 0 0 164.57 372.07
  Q 164.41 381.33 164.39 391.98
  Q 164.38 398.44 164.48 538.00
  Q 164.48 542.35 167.58 544.24
  Q 169.56 545.46 174.65 545.46
  Q 199.35 545.48 291.29 545.51
  A 0.40 0.39 15.7 0 1 291.63 546.11
  L 282.05 561.88
  A 1.01 0.94 62.5 0 0 281.91 562.39
  L 281.91 576.02
  A 0.65 0.65 0.0 0 0 281.96 576.27
  Q 282.98 578.63 285.01 578.69
  Q 292.54 578.90 300.32 578.94
  A 1.44 1.44 0.0 0 1 301.75 580.38
  L 301.75 710.33
  A 0.68 0.67 -0.0 0 1 301.07 711.00
  L 275.31 710.77"
/>
<path stroke="#132a54" vector-effect="non-scaling-stroke" d="
  M 275.31 710.77
  L 73.62 710.28"
/>
<path stroke="#112750" vector-effect="non-scaling-stroke" d="
  M 73.62 710.28
  Q 74.37 708.88 75.60 707.50
  Q 77.28 705.62 77.61 704.77
  C 79.41 700.21 77.07 697.18 72.86 694.64
  Q 68.32 691.90 62.77 686.86
  A 1.66 1.64 -69.5 0 1 62.23 685.66
  L 60.28 535.62
  A 0.58 0.57 -88.6 0 1 60.88 535.04
  Q 65.78 535.20 69.79 534.83
  C 73.65 534.46 75.39 531.25 73.53 527.86
  C 71.96 524.98 66.43 525.43 63.54 525.26
  A 0.82 0.82 0.0 0 1 62.76 524.46
  C 62.69 521.64 64.33 519.64 66.35 516.76
  A 1.85 1.76 72.2 0 0 66.64 516.16
  L 68.73 509.12
  A 1.50 1.49 -69.1 0 1 70.80 508.19
  L 73.62 509.52
  A 0.74 0.57 52.6 0 0 73.84 509.58
  C 82.50 510.11 81.95 504.22 83.96 498.23
  Q 85.38 494.01 85.85 491.71
  Q 86.65 487.81 90.72 470.65
  C 92.42 463.48 93.46 456.32 95.30 449.63
  A 2.61 2.61 0.0 0 1 96.73 447.94
  L 99.58 446.63
  A 0.72 0.70 -79.2 0 0 99.84 446.45
  Q 103.44 442.91 101.95 438.84
  C 100.13 433.88 96.22 433.60 91.68 433.31
  A 3.06 3.01 66.0 0 1 89.95 432.63
  Q 86.86 430.13 86.12 429.37
  Q 75.59 418.44 62.92 406.32
  Q 61.66 405.12 56.72 403.95
  A 1.18 1.16 -2.1 0 1 55.86 403.16
  Q 55.09 400.70 56.12 399.48
  C 59.82 395.14 58.87 391.32 57.21 386.47
  C 54.99 379.96 48.32 377.84 43.84 383.55
  Q 40.40 387.92 40.71 394.15
  A 4.79 4.76 27.9 0 0 41.42 396.43
  C 43.09 399.11 44.47 400.76 44.34 403.19
  A 1.18 1.18 0.0 0 1 43.35 404.29
  L 39.62 404.87
  A 3.64 3.61 18.0 0 0 37.60 405.89
  L 9.95 433.54
  A 1.10 1.10 0.0 0 1 9.60 433.79
  Q 8.63 434.25 5.60 434.83
  Q 2.33 435.47 0.00 438.61"
/>
<path stroke="#46474c" vector-effect="non-scaling-stroke" d="
  M 664.87 790.20
  L 82.23 790.14
  A 0.69 0.68 88.4 0 0 81.55 790.87
  L 81.76 795.39
  A 2.15 2.13 -70.9 0 0 82.49 796.91
  C 85.74 799.79 86.45 807.05 81.15 808.66
  A 1.14 0.79 -43.9 0 1 80.84 808.71
  Q 62.64 808.78 25.54 808.71
  Q 21.91 808.70 20.74 807.82
  C 17.23 805.21 18.25 800.24 20.74 797.09
  A 2.08 2.07 64.5 0 0 21.18 795.84
  L 21.25 790.74
  A 0.56 0.55 -89.5 0 0 20.70 790.17
  L 0.00 790.26"
/>
<path stroke="#1a2435" vector-effect="non-scaling-stroke" d="
  M 0.00 778.05
  L 17.29 777.88"
/>
<path stroke="#2f333d" vector-effect="non-scaling-stroke" d="
  M 17.29 777.88
  L 21.78 777.94
  A 0.70 0.70 0.0 0 0 22.48 777.31
  L 24.68 754.56"
/>
<path stroke="#1a2435" vector-effect="non-scaling-stroke" d="
  M 24.68 754.56
  L 25.71 745.61"
/>
<path stroke="#2f333d" vector-effect="non-scaling-stroke" d="
  M 25.71 745.61
  L 28.30 721.40"
/>
<path stroke="#10172a" vector-effect="non-scaling-stroke" d="
  M 28.30 721.40
  L 28.65 710.27"
/>
<path stroke="#112750" vector-effect="non-scaling-stroke" d="
  M 28.65 710.27
  Q 27.57 708.56 26.45 706.87
  Q 24.92 704.57 24.83 703.26
  C 24.61 699.99 25.34 697.74 28.16 695.60
  Q 30.08 694.14 39.21 686.70
  A 0.60 0.59 -19.3 0 0 39.42 686.27
  L 41.48 535.72
  A 0.58 0.58 0.0 0 0 40.93 535.13
  Q 38.24 535.00 33.27 535.01
  Q 28.27 535.02 27.58 530.53
  A 2.15 2.12 -38.6 0 1 27.71 529.44
  Q 28.91 526.46 30.87 526.05
  Q 38.25 524.50 38.72 524.40
  A 1.40 1.39 76.1 0 0 39.77 522.66
  C 39.63 522.14 39.30 521.53 38.87 521.21
  C 34.89 518.28 34.15 513.98 33.92 509.28
  A 1.59 1.59 0.0 0 0 31.37 508.09
  C 26.19 512.04 20.67 508.75 19.03 503.19
  Q 17.69 498.68 17.36 497.12
  Q 14.62 484.14 10.89 470.44
  C 8.98 463.42 7.78 457.34 6.13 450.43
  A 3.29 3.28 -82.5 0 0 4.50 448.30
  L 0.00 445.85"
/>
<path stroke="#10172a" vector-effect="non-scaling-stroke" d="
  M 73.62 710.28
  L 74.47 721.51"
/>
<path stroke="#2f333d" vector-effect="non-scaling-stroke" d="
  M 74.47 721.51
  L 77.26 745.23"
/>
<path stroke="#10172a" vector-effect="non-scaling-stroke" d="
  M 77.26 745.23
  L 78.19 753.45"
/>
<path stroke="#1a2435" vector-effect="non-scaling-stroke" d="
  M 78.19 753.45
  L 80.56 776.84
  A 1.23 1.22 -2.8 0 0 81.78 777.94
  L 133.44 777.89"
/>
<path stroke="#10172a" vector-effect="non-scaling-stroke" d="
  M 133.44 777.89
  L 138.19 777.43"
/>
<path stroke="#2f333d" vector-effect="non-scaling-stroke" d="
  M 138.19 777.43
  L 180.10 777.41"
/>
<path stroke="#1a2435" vector-effect="non-scaling-stroke" d="
  M 180.10 777.41
  L 188.01 777.51"
/>
<path stroke="#2f333d" vector-effect="non-scaling-stroke" d="
  M 188.01 777.51
  L 243.31 777.50"
/>
<path stroke="#10172a" vector-effect="non-scaling-stroke" d="
  M 243.31 777.50
  L 249.33 777.60"
/>
<path stroke="#1a2435" vector-effect="non-scaling-stroke" d="
  M 249.33 777.60
  L 300.88 777.83
  A 0.50 0.49 -0.6 0 0 301.38 777.33
  L 301.30 752.50"
/>
<path stroke="#10172a" vector-effect="non-scaling-stroke" d="
  M 301.30 752.50
  L 301.90 746.61"
/>
<path stroke="#1a2435" vector-effect="non-scaling-stroke" d="
  M 301.90 746.61
  L 301.67 720.19
  A 0.57 0.56 89.0 0 0 301.10 719.63
  L 273.31 719.97"
/>
<path stroke="#10172a" vector-effect="non-scaling-stroke" d="
  M 273.31 719.97
  Q 273.17 715.10 275.31 710.77"
/>
<path stroke="#132a54" vector-effect="non-scaling-stroke" d="
  M 28.65 710.27
  L 0.00 710.34"
/>
<path stroke="#323641" vector-effect="non-scaling-stroke" d="
  M 28.30 721.40
  L 0.00 721.39"
/>
<path stroke="#1d2739" vector-effect="non-scaling-stroke" d="
  M 273.31 719.97
  L 268.71 720.81"
/>
<path stroke="#323641" vector-effect="non-scaling-stroke" d="
  M 268.71 720.81
  Q 243.73 720.52 218.75 720.88
  C 214.09 720.94 213.43 724.02 213.32 728.25
  Q 213.15 734.89 213.16 741.76
  C 213.16 744.17 214.36 744.95 216.77 744.98
  Q 243.44 745.26 270.12 745.14"
/>
<path stroke="#1d2739" vector-effect="non-scaling-stroke" d="
  M 270.12 745.14
  Q 273.79 746.33 279.02 746.44
  Q 290.25 746.67 301.90 746.61"
/>
<path stroke="#1d2739" vector-effect="non-scaling-stroke" d="
  M 301.30 752.50
  Q 278.21 751.92 255.28 752.49
  C 251.80 752.58 249.27 752.83 249.22 757.14
  Q 249.10 770.53 249.33 777.60"
/>
<path stroke="#323641" vector-effect="non-scaling-stroke" d="
  M 243.31 777.50
  Q 243.94 771.69 243.91 758.24
  C 243.90 753.74 241.68 753.37 237.65 753.40
  Q 214.58 753.59 191.25 753.39
  Q 189.88 753.38 187.72 754.97"
/>
<path stroke="#1d2739" vector-effect="non-scaling-stroke" d="
  M 187.72 754.97
  L 179.92 753.75"
/>
<path stroke="#323641" vector-effect="non-scaling-stroke" d="
  M 179.92 753.75
  Q 159.47 753.85 140.50 753.77
  Q 138.01 753.76 137.96 756.25
  Q 137.76 766.90 138.19 777.43"
/>
<path stroke="#1d2739" vector-effect="non-scaling-stroke" d="
  M 133.44 777.89
  L 133.84 755.95
  A 2.61 2.60 7.9 0 0 131.89 753.38
  Q 128.79 752.58 124.94 752.54
  Q 113.73 752.40 83.99 752.62
  Q 82.41 752.63 78.19 753.45"
/>
<path stroke="#323641" vector-effect="non-scaling-stroke" d="
  M 77.26 745.23
  Q 91.38 745.33 105.00 745.31
  Q 108.66 745.30 109.93 743.29
  A 0.45 0.45 0.0 0 1 110.59 743.17
  Q 113.15 745.16 114.71 745.16
  Q 138.46 745.21 162.30 745.16"
/>
<path stroke="#1d2739" vector-effect="non-scaling-stroke" d="
  M 162.30 745.16
  Q 165.93 744.33 168.27 744.80"
/>
<path stroke="#323641" vector-effect="non-scaling-stroke" d="
  M 168.27 744.80
  Q 186.72 745.51 204.37 745.18
  Q 207.18 745.12 207.14 742.29
  Q 207.00 733.15 206.94 724.07
  Q 206.92 721.53 204.50 721.44
  Q 191.74 721.01 169.59 721.28"
/>
<path stroke="#1d2739" vector-effect="non-scaling-stroke" d="
  M 169.59 721.28
  L 161.84 721.13"
/>
<path stroke="#323641" vector-effect="non-scaling-stroke" d="
  M 161.84 721.13
  Q 136.94 721.37 113.50 721.27
  Q 111.81 721.26 109.93 722.65
  A 0.56 0.56 0.0 0 1 109.17 722.56
  Q 108.24 721.46 105.50 721.44
  Q 90.10 721.32 74.47 721.51"
/>
<path stroke="#3c434c" vector-effect="non-scaling-stroke" d="
  M 270.12 745.14
  Q 271.65 735.14 270.93 724.77
  Q 270.76 722.31 268.71 720.81"
/>
<path stroke="#3c434c" vector-effect="non-scaling-stroke" d="
  M 161.84 721.13
  Q 162.82 733.09 162.30 745.16"
/>
<path stroke="#3c434c" vector-effect="non-scaling-stroke" d="
  M 169.59 721.28
  Q 167.92 721.96 167.90 723.55
  Q 167.80 734.26 168.27 744.80"
/>
<path stroke="#3c434c" vector-effect="non-scaling-stroke" d="
  M 25.71 745.61
  Q 12.87 746.46 0.00 745.86"
/>
<path stroke="#3c434c" vector-effect="non-scaling-stroke" d="
  M 24.68 754.56
  Q 20.62 753.06 14.49 753.90
  Q 11.13 754.37 11.17 758.20
  Q 11.23 764.20 11.02 773.01
  Q 10.97 775.04 11.66 776.95
  A 0.96 0.94 -7.8 0 0 12.50 777.57
  L 17.29 777.88"
/>
<path stroke="#3c434c" vector-effect="non-scaling-stroke" d="
  M 187.72 754.97
  Q 186.54 766.58 188.01 777.51"
/>
<path stroke="#3c434c" vector-effect="non-scaling-stroke" d="
  M 180.10 777.41
  Q 181.01 765.37 179.92 753.75"
/>
<path stroke="#626364" vector-effect="non-scaling-stroke" d="
  M 264.70 825.09
  Q 266.34 824.25 266.86 823.59
  Q 279.33 807.62 291.41 792.91
  A 0.35 0.35 0.0 0 0 291.14 792.34
  L 282.05 792.38
  A 3.04 3.03 19.1 0 0 279.67 793.53
  L 254.59 825.03"
/>
<path stroke="#626364" vector-effect="non-scaling-stroke" d="
  M 98.12 825.17
  L 130.84 793.59
  A 0.73 0.73 0.0 0 0 130.34 792.33
  L 122.31 792.22
  A 4.48 4.46 23.7 0 0 119.20 793.43
  L 90.67 820.39
  A 7.92 7.45 5.6 0 1 89.66 821.17
  Q 87.20 822.73 85.03 824.99"
/>
</g>

<path d="
  M 28.65 710.27
  L 0.00 710.34
  L 0.00 445.85
  L 4.50 448.30
  A 3.29 3.28 -82.5 0 1 6.13 450.43
  C 7.78 457.34 8.98 463.42 10.89 470.44
  Q 14.62 484.14 17.36 497.12
  Q 17.69 498.68 19.03 503.19
  C 20.67 508.75 26.19 512.04 31.37 508.09
  A 1.59 1.59 0.0 0 1 33.92 509.28
  C 34.15 513.98 34.89 518.28 38.87 521.21
  C 39.30 521.53 39.63 522.14 39.77 522.66
  A 1.40 1.39 76.1 0 1 38.72 524.40
  Q 38.25 524.50 30.87 526.05
  Q 28.91 526.46 27.71 529.44
  A 2.15 2.12 -38.6 0 0 27.58 530.53
  Q 28.27 535.02 33.27 535.01
  Q 38.24 535.00 40.93 535.13
  A 0.58 0.58 0.0 0 1 41.48 535.72
  L 39.42 686.27
  A 0.60 0.59 -19.3 0 1 39.21 686.70
  Q 30.08 694.14 28.16 695.60
  C 25.34 697.74 24.61 699.99 24.83 703.26
  Q 24.92 704.57 26.45 706.87
  Q 27.57 708.56 28.65 710.27
  Z"
/>
<path d="
  M 664.87 790.20
  L 664.85 825.67
  L 264.70 825.09
  Q 266.34 824.25 266.86 823.59
  Q 279.33 807.62 291.41 792.91
  A 0.35 0.35 0.0 0 0 291.14 792.34
  L 282.05 792.38
  A 3.04 3.03 19.1 0 0 279.67 793.53
  L 254.59 825.03
  L 98.12 825.17
  L 130.84 793.59
  A 0.73 0.73 0.0 0 0 130.34 792.33
  L 122.31 792.22
  A 4.48 4.46 23.7 0 0 119.20 793.43
  L 90.67 820.39
  A 7.92 7.45 5.6 0 1 89.66 821.17
  Q 87.20 822.73 85.03 824.99
  L 0.00 825.14
  L 0.00 790.26
  L 20.70 790.17
  A 0.56 0.55 -89.5 0 1 21.25 790.74
  L 21.18 795.84
  A 2.08 2.07 64.5 0 1 20.74 797.09
  C 18.25 800.24 17.23 805.21 20.74 807.82
  Q 21.91 808.70 25.54 808.71
  Q 62.64 808.78 80.84 808.71
  A 1.14 0.79 -43.9 0 0 81.15 808.66
  C 86.45 807.05 85.74 799.79 82.49 796.91
  A 2.15 2.13 -70.9 0 1 81.76 795.39
  L 81.55 790.87
  A 0.69 0.68 88.4 0 1 82.23 790.14
  L 664.87 790.20
  Z"
/>
<path d="
  M 268.71 720.81
  Q 270.76 722.31 270.93 724.77
  Q 271.65 735.14 270.12 745.14
  Q 243.44 745.26 216.77 744.98
  C 214.36 744.95 213.16 744.17 213.16 741.76
  Q 213.15 734.89 213.32 728.25
  C 213.43 724.02 214.09 720.94 218.75 720.88
  Q 243.73 720.52 268.71 720.81
  Z"
/>
<path d="
  M 161.84 721.13
  Q 162.82 733.09 162.30 745.16
  Q 138.46 745.21 114.71 745.16
  Q 113.15 745.16 110.59 743.17
  A 0.45 0.45 0.0 0 0 109.93 743.29
  Q 108.66 745.30 105.00 745.31
  Q 91.38 745.33 77.26 745.23
  L 74.47 721.51
  Q 90.10 721.32 105.50 721.44
  Q 108.24 721.46 109.17 722.56
  A 0.56 0.56 0.0 0 0 109.93 722.65
  Q 111.81 721.26 113.50 721.27
  Q 136.94 721.37 161.84 721.13
  Z"
/>
<path d="
  M 28.30 721.40
  L 25.71 745.61
  Q 12.87 746.46 0.00 745.86
  L 0.00 721.39
  L 28.30 721.40
  Z"
/>
<path d="
  M 168.27 744.80
  Q 167.80 734.26 167.90 723.55
  Q 167.92 721.96 169.59 721.28
  Q 191.74 721.01 204.50 721.44
  Q 206.92 721.53 206.94 724.07
  Q 207.00 733.15 207.14 742.29
  Q 207.18 745.12 204.37 745.18
  Q 186.72 745.51 168.27 744.80
  Z"
/>
<path d="
  M 243.31 777.50
  L 188.01 777.51
  Q 186.54 766.58 187.72 754.97
  Q 189.88 753.38 191.25 753.39
  Q 214.58 753.59 237.65 753.40
  C 241.68 753.37 243.90 753.74 243.91 758.24
  Q 243.94 771.69 243.31 777.50
  Z"
/>
<path d="
  M 24.68 754.56
  L 22.48 777.31
  A 0.70 0.70 0.0 0 1 21.78 777.94
  L 17.29 777.88
  L 12.50 777.57
  A 0.96 0.94 -7.8 0 1 11.66 776.95
  Q 10.97 775.04 11.02 773.01
  Q 11.23 764.20 11.17 758.20
  Q 11.13 754.37 14.49 753.90
  Q 20.62 753.06 24.68 754.56
  Z"
/>
<path d="
  M 179.92 753.75
  Q 181.01 765.37 180.10 777.41
  L 138.19 777.43
  Q 137.76 766.90 137.96 756.25
  Q 138.01 753.76 140.50 753.77
  Q 159.47 753.85 179.92 753.75
  Z"
/>
<path d="
  M 301.90 746.61
  Q 290.25 746.67 279.02 746.44
  Q 273.79 746.33 270.12 745.14
  Q 271.65 735.14 270.93 724.77
  Q 270.76 722.31 268.71 720.81
  L 273.31 719.97
  L 301.10 719.63
  A 0.57 0.56 89.0 0 1 301.67 720.19
  L 301.90 746.61
  Z"
/>
<path d="
  M 169.59 721.28
  Q 167.92 721.96 167.90 723.55
  Q 167.80 734.26 168.27 744.80
  Q 165.93 744.33 162.30 745.16
  Q 162.82 733.09 161.84 721.13
  L 169.59 721.28
  Z"
/>
<path d="
  M 25.71 745.61
  L 24.68 754.56
  Q 20.62 753.06 14.49 753.90
  Q 11.13 754.37 11.17 758.20
  Q 11.23 764.20 11.02 773.01
  Q 10.97 775.04 11.66 776.95
  A 0.96 0.94 -7.8 0 0 12.50 777.57
  L 17.29 777.88
  L 0.00 778.05
  L 0.00 745.86
  Q 12.87 746.46 25.71 745.61
  Z"
/>
<path d="
  M 301.30 752.50
  L 301.38 777.33
  A 0.50 0.49 -0.6 0 1 300.88 777.83
  L 249.33 777.60
  Q 249.10 770.53 249.22 757.14
  C 249.27 752.83 251.80 752.58 255.28 752.49
  Q 278.21 751.92 301.30 752.50
  Z"
/>
<path d="
  M 133.44 777.89
  L 81.78 777.94
  A 1.23 1.22 -2.8 0 1 80.56 776.84
  L 78.19 753.45
  Q 82.41 752.63 83.99 752.62
  Q 113.73 752.40 124.94 752.54
  Q 128.79 752.58 131.89 753.38
  A 2.61 2.60 7.9 0 1 133.84 755.95
  L 133.44 777.89
  Z"
/>
<path d="
  M 187.72 754.97
  Q 186.54 766.58 188.01 777.51
  L 180.10 777.41
  Q 181.01 765.37 179.92 753.75
  L 187.72 754.97
  Z"
/>
<path d="
  M 28.65 710.27
  L 28.30 721.40
  L 0.00 721.39
  L 0.00 710.34
  L 28.65 710.27
  Z"
/>
<path d="
  M 275.31 710.77
  Q 273.17 715.10 273.31 719.97
  L 268.71 720.81
  Q 243.73 720.52 218.75 720.88
  C 214.09 720.94 213.43 724.02 213.32 728.25
  Q 213.15 734.89 213.16 741.76
  C 213.16 744.17 214.36 744.95 216.77 744.98
  Q 243.44 745.26 270.12 745.14
  Q 273.79 746.33 279.02 746.44
  Q 290.25 746.67 301.90 746.61
  L 301.30 752.50
  Q 278.21 751.92 255.28 752.49
  C 251.80 752.58 249.27 752.83 249.22 757.14
  Q 249.10 770.53 249.33 777.60
  L 243.31 777.50
  Q 243.94 771.69 243.91 758.24
  C 243.90 753.74 241.68 753.37 237.65 753.40
  Q 214.58 753.59 191.25 753.39
  Q 189.88 753.38 187.72 754.97
  L 179.92 753.75
  Q 159.47 753.85 140.50 753.77
  Q 138.01 753.76 137.96 756.25
  Q 137.76 766.90 138.19 777.43
  L 133.44 777.89
  L 133.84 755.95
  A 2.61 2.60 7.9 0 0 131.89 753.38
  Q 128.79 752.58 124.94 752.54
  Q 113.73 752.40 83.99 752.62
  Q 82.41 752.63 78.19 753.45
  L 77.26 745.23
  Q 91.38 745.33 105.00 745.31
  Q 108.66 745.30 109.93 743.29
  A 0.45 0.45 0.0 0 1 110.59 743.17
  Q 113.15 745.16 114.71 745.16
  Q 138.46 745.21 162.30 745.16
  Q 165.93 744.33 168.27 744.80
  Q 186.72 745.51 204.37 745.18
  Q 207.18 745.12 207.14 742.29
  Q 207.00 733.15 206.94 724.07
  Q 206.92 721.53 204.50 721.44
  Q 191.74 721.01 169.59 721.28
  L 161.84 721.13
  Q 136.94 721.37 113.50 721.27
  Q 111.81 721.26 109.93 722.65
  A 0.56 0.56 0.0 0 1 109.17 722.56
  Q 108.24 721.46 105.50 721.44
  Q 90.10 721.32 74.47 721.51
  L 73.62 710.28
  L 275.31 710.77
  Z"
/>
<path d="
  M 98.12 825.17
  L 85.03 824.99
  Q 87.20 822.73 89.66 821.17
  A 7.92 7.45 5.6 0 0 90.67 820.39
  L 119.20 793.43
  A 4.48 4.46 23.7 0 1 122.31 792.22
  L 130.34 792.33
  A 0.73 0.73 0.0 0 1 130.84 793.59
  L 98.12 825.17
  Z"
/>
<path d="
  M 264.70 825.09
  L 254.59 825.03
  L 279.67 793.53
  A 3.04 3.03 19.1 0 1 282.05 792.38
  L 291.14 792.34
  A 0.35 0.35 0.0 0 1 291.41 792.91
  Q 279.33 807.62 266.86 823.59
  Q 266.34 824.25 264.70 825.09
  Z"
/>
<path stroke="#10254a" vector-effect="non-scaling-stroke" d="
  M 258.50 366.00
  C 252.25 359.16 242.32 357.23 234.75 363.13
  C 233.73 363.93 233.22 365.13 232.32 365.86
  A 1.40 1.37 26.2 0 1 231.40 366.16
  L 222.03 365.69"
/>
<path stroke="#3c332b" vector-effect="non-scaling-stroke" d="
  M 269.78 376.35
  Q 270.92 378.20 271.52 380.89"
/>
<path stroke="#0d1220" vector-effect="non-scaling-stroke" d="
  M 271.52 380.89
  Q 271.12 386.20 269.20 391.74
  A 0.95 0.93 -72.1 0 0 269.81 392.95
  Q 274.80 394.43 276.54 399.29"
/>
<path stroke="#845427" vector-effect="non-scaling-stroke" d="
  M 276.54 399.29
  C 274.01 393.77 268.80 393.83 263.90 395.84
  Q 261.55 396.80 261.61 399.39
  A 1.52 1.51 -5.3 0 0 263.37 400.85
  C 265.74 400.48 270.89 398.39 271.86 402.66
  Q 272.57 405.79 271.90 414.87
  C 271.53 419.90 265.13 422.81 260.97 423.84
  A 0.53 0.52 82.7 0 1 260.32 423.33
  Q 260.25 417.00 260.98 407.78
  C 261.32 403.50 260.92 400.03 260.73 394.73
  A 0.85 0.85 0.0 0 0 259.97 393.92
  L 250.39 392.92
  A 0.98 0.94 -51.8 0 0 249.96 392.98
  Q 244.08 395.24 241.95 395.70
  Q 233.65 397.45 226.00 393.03
  Q 224.18 391.97 221.10 392.22
  A 0.77 0.77 0.0 0 0 220.43 392.78
  Q 219.86 394.78 218.29 395.80
  A 0.56 0.56 0.0 0 1 217.43 395.46
  L 217.33 395.02
  A 0.69 0.69 0.0 0 0 216.83 394.52
  C 212.44 393.41 213.65 405.36 213.94 406.84
  Q 214.97 411.95 219.47 415.19
  A 2.32 2.29 -72.5 0 1 220.42 417.04
  Q 220.43 426.63 220.55 430.51
  C 220.62 432.61 221.20 435.13 222.56 436.22
  Q 226.64 439.45 230.85 441.53
  A 4.16 4.05 -30.2 0 0 232.53 441.95
  L 243.42 442.26
  A 2.54 2.19 35.2 0 0 244.04 442.20
  L 252.99 440.35
  A 1.16 0.93 20.3 0 0 253.32 440.24
  Q 260.46 436.57 260.14 428.90
  A 0.89 0.89 0.0 0 1 261.23 428.00
  Q 262.62 428.34 263.60 428.05
  C 270.65 425.89 276.79 423.55 276.77 414.77
  Q 276.76 409.12 277.11 403.53"
/>
<path stroke="#0d1220" vector-effect="non-scaling-stroke" d="
  M 277.11 403.53
  Q 277.44 406.74 277.11 410.00
  Q 277.01 410.98 278.15 416.48
  C 279.20 421.52 283.61 422.69 285.21 427.33"
/>
<path stroke="#6b6e70" vector-effect="non-scaling-stroke" d="
  M 285.21 427.33
  L 282.31 424.38"
/>
<path stroke="#85847e" vector-effect="non-scaling-stroke" d="
  M 282.31 424.38
  Q 281.26 422.81 279.05 423.80
  Q 271.87 427.01 264.51 432.75
  C 261.06 435.43 258.34 438.79 254.82 442.16
  A 2.73 2.69 18.3 0 1 253.34 442.89
  C 249.53 443.48 246.02 443.94 242.94 446.46"
/>
<path stroke="#585653" vector-effect="non-scaling-stroke" d="
  M 242.94 446.46
  Q 242.18 447.23 241.73 448.21"
/>
<path stroke="#0d1220" vector-effect="non-scaling-stroke" d="
  M 241.73 448.21
  Q 240.95 448.64 240.12 448.46"
/>
<path stroke="#4a5969" vector-effect="non-scaling-stroke" d="
  M 240.12 448.46
  L 240.21 446.93"
/>
<path stroke="#85847e" vector-effect="non-scaling-stroke" d="
  M 240.21 446.93
  Q 240.79 446.04 240.50 445.26
  A 0.76 0.75 -1.6 0 0 240.02 444.81
  Q 236.62 443.80 233.22 444.72"
/>
<path stroke="#4a5969" vector-effect="non-scaling-stroke" d="
  M 233.22 444.72
  Q 232.51 445.04 231.69 445.05"
/>
<path stroke="#85847e" vector-effect="non-scaling-stroke" d="
  M 231.69 445.05
  Q 224.35 441.05 222.00 438.48
  Q 215.21 431.03 206.50 425.84
  A 4.87 4.68 -19.5 0 0 205.66 425.46
  Q 203.07 424.59 201.26 423.08
  A 1.26 1.25 47.8 0 0 199.77 423.00
  Q 195.17 426.02 194.25 429.95"
/>
<path stroke="#3d4249" vector-effect="non-scaling-stroke" d="
  M 194.25 429.95
  Q 191.94 433.44 194.88 435.69"
/>
<path stroke="#0d1220" vector-effect="non-scaling-stroke" d="
  M 194.88 435.69
  Q 191.53 435.77 192.22 430.87
  C 193.17 424.14 198.35 420.34 205.09 423.17
  C 209.57 425.05 213.15 427.53 216.60 430.70
  A 0.18 0.18 0.0 0 0 216.89 430.52
  Q 213.44 419.40 212.45 416.39
  C 208.74 405.10 207.39 392.80 206.79 380.89"
/>
<path stroke="#3c332b" vector-effect="non-scaling-stroke" d="
  M 206.79 380.89
  L 208.81 380.88
  A 0.59 0.59 0.0 0 0 209.39 380.40
  L 210.12 376.33"
/>
<path stroke="#969fa3" vector-effect="non-scaling-stroke" d="
  M 217.54 439.22
  Q 216.87 438.99 216.44 439.01
  A 0.31 0.31 0.0 0 0 216.24 439.54
  L 223.64 446.94
  A 0.76 0.72 66.5 0 0 224.16 447.16
  Q 225.22 447.18 225.13 446.50"
/>
<path stroke="#c3cdcd" vector-effect="non-scaling-stroke" d="
  M 233.22 444.72
  Q 232.95 446.15 234.53 446.42
  Q 237.33 446.91 240.21 446.93"
/>
<path stroke="#b0c3ce" vector-effect="non-scaling-stroke" d="
  M 239.92 448.95
  Q 232.47 449.54 225.00 449.41
  Q 223.18 449.38 223.74 450.76"
/>
<path stroke="#7b8b98" vector-effect="non-scaling-stroke" d="
  M 223.74 450.76
  Q 218.35 444.51 214.74 442.24
  Q 210.28 439.42 208.13 436.92
  A 2.01 1.91 -1.5 0 0 207.74 436.57
  L 204.66 434.55"
/>
<path stroke="#e4e2d5" vector-effect="non-scaling-stroke" d="
  M 282.31 424.38
  Q 282.51 426.57 280.10 427.15"
/>
<path stroke="#d1cab8" vector-effect="non-scaling-stroke" d="
  M 280.10 427.15
  Q 270.53 431.99 267.53 434.55
  Q 261.76 439.46 256.19 445.35
  A 4.22 4.21 -70.7 0 1 253.50 446.65
  Q 248.86 447.05 243.54 447.25
  Q 243.15 447.27 243.00 447.04
  Q 242.87 446.83 242.94 446.46"
/>
<path stroke="#9c9fa0" vector-effect="non-scaling-stroke" d="
  M 285.82 429.79
  Q 278.92 432.32 271.19 437.77"
/>
<path stroke="#b7b4aa" vector-effect="non-scaling-stroke" d="
  M 271.19 437.77
  Q 271.84 434.84 274.63 432.41
  Q 277.65 429.78 281.46 428.52
  A 0.57 0.55 -87.2 0 0 281.80 428.20
  Q 281.95 427.82 281.84 427.41
  Q 281.76 427.14 281.04 427.19
  Q 280.60 427.22 280.10 427.15"
/>
<path stroke="#3c3531" vector-effect="non-scaling-stroke" d="
  M 301.46 530.59
  L 301.57 381.56
  A 0.73 0.73 0.0 0 0 300.84 380.83
  L 271.52 380.89"
/>
<path stroke="#3e444f" vector-effect="non-scaling-stroke" d="
  M 194.88 435.69
  Q 200.20 438.41 205.08 441.44
  Q 214.86 447.52 221.97 456.27
  A 2.35 2.33 -17.4 0 0 223.63 457.13
  Q 231.12 457.61 238.84 456.49
  A 0.79 0.79 0.0 0 0 239.52 455.73
  L 239.66 451.07"
/>
<path stroke="#737c85" vector-effect="non-scaling-stroke" d="
  M 239.66 451.07
  L 239.92 448.95"
/>
<path stroke="#4a5b6f" vector-effect="non-scaling-stroke" d="
  M 239.92 448.95
  L 240.12 448.46"
/>
<path stroke="#59585a" vector-effect="non-scaling-stroke" d="
  M 241.73 448.21
  L 241.72 449.30"
/>
<path stroke="#737c85" vector-effect="non-scaling-stroke" d="
  M 241.72 449.30
  L 241.47 450.71"
/>
<path stroke="#3e444f" vector-effect="non-scaling-stroke" d="
  M 241.47 450.71
  C 240.56 452.64 241.76 454.57 242.03 456.44
  A 1.00 0.98 88.1 0 0 242.93 457.30
  Q 250.03 457.85 255.53 457.44
  Q 257.59 457.28 259.05 455.28
  Q 265.39 446.60 274.85 441.35
  C 279.63 438.71 284.47 436.97 286.24 433.48
  Q 286.95 432.07 285.82 429.79"
/>
<path stroke="#6b7077" vector-effect="non-scaling-stroke" d="
  M 285.82 429.79
  Q 287.17 428.85 285.21 427.33"
/>
<path stroke="#84562e" vector-effect="non-scaling-stroke" d="
  M 277.11 403.53
  Q 277.43 401.31 276.54 399.29"
/>
<path stroke="#898883" vector-effect="non-scaling-stroke" d="
  M 271.19 437.77
  L 262.48 444.45"
/>
<path stroke="#bec0b9" vector-effect="non-scaling-stroke" d="
  M 262.48 444.45
  L 262.39 443.74
  A 0.78 0.78 0.0 0 0 261.11 443.23
  L 255.77 447.66
  A 2.09 2.09 0.0 0 1 254.62 448.14
  L 241.72 449.30"
/>
<path stroke="#3c3531" vector-effect="non-scaling-stroke" d="
  M 206.79 380.89
  L 179.00 380.83
  A 1.04 1.03 90.0 0 0 177.97 381.87
  L 177.97 530.09
  A 0.63 0.63 0.0 0 0 178.60 530.72
  L 301.46 530.59"
/>
<path stroke="#c3cdcd" vector-effect="non-scaling-stroke" d="
  M 231.69 445.05
  Q 232.28 446.32 231.64 447.10
  A 0.86 0.85 14.6 0 1 231.09 447.42
  Q 228.08 447.85 225.13 446.50"
/>
<path stroke="#d1cab8" vector-effect="non-scaling-stroke" d="
  M 225.13 446.50
  L 217.54 439.22"
/>
<path stroke="#c3cdcd" vector-effect="non-scaling-stroke" d="
  M 217.54 439.22
  Q 214.48 436.71 212.91 435.42
  Q 210.85 433.73 207.82 431.81
  Q 205.94 430.62 202.95 429.34
  C 201.64 428.78 201.50 427.27 199.90 427.67
  A 0.73 0.73 0.0 0 0 199.80 429.05
  Q 202.75 430.28 205.70 433.23
  A 0.69 0.69 0.0 0 1 205.37 434.39
  L 204.66 434.55"
/>
<path stroke="#b6b6ad" vector-effect="non-scaling-stroke" d="
  M 204.66 434.55
  L 194.25 429.95"
/>
<path stroke="#a3abae" vector-effect="non-scaling-stroke" d="
  M 223.74 450.76
  Q 231.19 451.62 239.66 451.07"
/>
<path stroke="#a3abae" vector-effect="non-scaling-stroke" d="
  M 241.47 450.71
  Q 241.59 451.05 241.93 451.28
  Q 242.22 451.48 242.64 451.45
  Q 248.90 451.08 255.50 450.99
  A 2.58 2.58 0.0 0 0 257.37 450.14
  L 262.48 444.45"
/>
<path stroke="#fdc027" vector-effect="non-scaling-stroke" d="
  M 30.64 477.93
  L 22.45 485.31"
/>
<path d="
  M 225.84 335.64
  Q 226.56 335.24 230.16 334.43
  Q 247.33 330.59 256.19 329.22
  Q 260.95 328.48 271.37 327.74
  C 274.23 327.54 275.53 327.83 277.72 327.90
  A 17.10 17.08 -50.3 0 0 281.99 327.50
  C 287.69 326.24 293.12 325.18 299.29 323.24
  Q 305.44 321.30 312.43 319.63
  A 0.50 0.50 0.0 0 1 313.01 320.31
  L 305.51 338.14
  A 0.91 0.89 -78.8 0 1 304.70 338.69
  Q 293.18 338.82 266.51 338.26
  Q 259.89 338.12 241.25 338.66
  Q 237.64 338.76 228.26 337.66
  A 1.13 1.13 0.0 0 1 227.37 337.03
  Q 227.01 336.31 225.93 336.14
  A 0.27 0.27 0.0 0 1 225.84 335.64
  Z"
/>
<path d="
  M 200.88 347.57
  Q 199.87 355.56 202.46 364.82
  A 0.76 0.76 0.0 0 1 201.72 365.78
  L 194.70 365.68
  A 0.73 0.73 0.0 0 1 193.98 364.93
  Q 194.11 361.36 195.55 357.09
  A 2.03 1.89 58.9 0 0 195.66 356.57
  L 196.20 348.22
  A 0.46 0.45 88.5 0 1 196.59 347.80
  L 200.54 347.24
  A 0.30 0.29 -0.1 0 1 200.88 347.57
  Z"
/>
<path d="
  M 258.50 366.00
  C 252.25 359.16 242.32 357.23 234.75 363.13
  C 233.73 363.93 233.22 365.13 232.32 365.86
  A 1.40 1.37 26.2 0 1 231.40 366.16
  L 222.03 365.69
  L 207.81 365.81
  A 0.66 0.65 -87.6 0 1 207.15 365.09
  C 207.69 359.50 207.02 355.59 206.26 347.80
  A 0.49 0.48 87.9 0 1 206.75 347.27
  L 270.15 348.14
  A 0.62 0.62 0.0 0 1 270.76 348.82
  L 269.37 365.14
  A 0.64 0.64 0.0 0 1 268.76 365.72
  L 258.50 366.00
  Z"
/>
<path d="
  M 278.48 365.69
  Q 275.40 365.66 274.43 365.52
  A 0.73 0.72 11.9 0 1 273.83 364.61
  Q 276.13 356.25 276.39 348.95
  A 0.34 0.34 0.0 0 1 276.74 348.62
  Q 278.34 348.69 278.68 348.69
  Q 279.03 348.70 280.62 348.67
  A 0.34 0.34 0.0 0 1 280.97 349.00
  Q 281.06 356.31 283.16 364.72
  A 0.73 0.72 -10.5 0 1 282.54 365.61
  Q 281.57 365.73 278.48 365.69
  Z"
/>
<path d="
  M 301.00 349.34
  Q 300.95 349.53 300.91 352.68
  C 300.85 357.78 303.84 360.34 309.28 360.30
  Q 314.93 360.25 319.29 360.10
  A 0.64 0.64 0.0 0 1 319.96 360.73
  L 321.75 499.42
  A 3.76 3.75 -28.6 0 1 321.11 501.58
  L 314.91 510.80
  A 0.33 0.33 0.0 0 1 314.35 510.77
  Q 314.16 510.42 314.15 509.77
  Q 313.55 468.88 313.77 443.45
  C 313.96 421.34 313.61 403.75 313.49 376.67
  Q 313.47 370.50 312.16 368.66
  C 309.74 365.22 306.58 365.73 301.99 365.68
  Q 296.73 365.63 289.18 365.69
  A 0.36 0.36 0.0 0 1 288.82 365.38
  L 286.50 349.14
  A 0.41 0.40 -3.6 0 1 286.91 348.68
  L 300.70 348.93
  A 0.32 0.31 9.5 0 1 301.00 349.34
  Z"
/>
<path d="
  M 301.46 530.59
  L 178.60 530.72
  A 0.63 0.63 0.0 0 1 177.97 530.09
  L 177.97 381.87
  A 1.04 1.03 -90.0 0 1 179.00 380.83
  L 206.79 380.89
  C 207.39 392.80 208.74 405.10 212.45 416.39
  Q 213.44 419.40 216.89 430.52
  A 0.18 0.18 0.0 0 1 216.60 430.70
  C 213.15 427.53 209.57 425.05 205.09 423.17
  C 198.35 420.34 193.17 424.14 192.22 430.87
  Q 191.53 435.77 194.88 435.69
  Q 200.20 438.41 205.08 441.44
  Q 214.86 447.52 221.97 456.27
  A 2.35 2.33 -17.4 0 0 223.63 457.13
  Q 231.12 457.61 238.84 456.49
  A 0.79 0.79 0.0 0 0 239.52 455.73
  L 239.66 451.07
  L 239.92 448.95
  L 240.12 448.46
  Q 240.95 448.64 241.73 448.21
  L 241.72 449.30
  L 241.47 450.71
  C 240.56 452.64 241.76 454.57 242.03 456.44
  A 1.00 0.98 88.1 0 0 242.93 457.30
  Q 250.03 457.85 255.53 457.44
  Q 257.59 457.28 259.05 455.28
  Q 265.39 446.60 274.85 441.35
  C 279.63 438.71 284.47 436.97 286.24 433.48
  Q 286.95 432.07 285.82 429.79
  Q 287.17 428.85 285.21 427.33
  C 283.61 422.69 279.20 421.52 278.15 416.48
  Q 277.01 410.98 277.11 410.00
  Q 277.44 406.74 277.11 403.53
  Q 277.43 401.31 276.54 399.29
  Q 274.80 394.43 269.81 392.95
  A 0.95 0.93 -72.1 0 1 269.20 391.74
  Q 271.12 386.20 271.52 380.89
  L 300.84 380.83
  A 0.73 0.73 0.0 0 1 301.57 381.56
  L 301.46 530.59
  Z"
/>
<path d="
  M 30.64 477.93
  L 22.45 485.31
  L 13.61 448.50
  A 0.38 0.38 0.0 0 1 13.92 448.04
  L 24.84 446.48
  A 0.78 0.78 0.0 0 1 25.72 447.13
  L 30.64 477.93
  Z"
/>
<path d="
  M 231.69 445.05
  Q 232.28 446.32 231.64 447.10
  A 0.86 0.85 14.6 0 1 231.09 447.42
  Q 228.08 447.85 225.13 446.50
  L 217.54 439.22
  Q 214.48 436.71 212.91 435.42
  Q 210.85 433.73 207.82 431.81
  Q 205.94 430.62 202.95 429.34
  C 201.64 428.78 201.50 427.27 199.90 427.67
  A 0.73 0.73 0.0 0 0 199.80 429.05
  Q 202.75 430.28 205.70 433.23
  A 0.69 0.69 0.0 0 1 205.37 434.39
  L 204.66 434.55
  L 194.25 429.95
  Q 195.17 426.02 199.77 423.00
  A 1.26 1.25 47.8 0 1 201.26 423.08
  Q 203.07 424.59 205.66 425.46
  A 4.87 4.68 -19.5 0 1 206.50 425.84
  Q 215.21 431.03 222.00 438.48
  Q 224.35 441.05 231.69 445.05
  Z"
/>
<path d="
  M 282.31 424.38
  Q 282.51 426.57 280.10 427.15
  Q 270.53 431.99 267.53 434.55
  Q 261.76 439.46 256.19 445.35
  A 4.22 4.21 -70.7 0 1 253.50 446.65
  Q 248.86 447.05 243.54 447.25
  Q 243.15 447.27 243.00 447.04
  Q 242.87 446.83 242.94 446.46
  C 246.02 443.94 249.53 443.48 253.34 442.89
  A 2.73 2.69 18.3 0 0 254.82 442.16
  C 258.34 438.79 261.06 435.43 264.51 432.75
  Q 271.87 427.01 279.05 423.80
  Q 281.26 422.81 282.31 424.38
  Z"
/>
<path d="
  M 240.21 446.93
  Q 237.33 446.91 234.53 446.42
  Q 232.95 446.15 233.22 444.72
  Q 236.62 443.80 240.02 444.81
  A 0.76 0.75 -1.6 0 1 240.50 445.26
  Q 240.79 446.04 240.21 446.93
  Z"
/>
<path fill="#2f5d9e" d="
  M 39.28 510.73
  A 0.04 0.04 0.0 0 1 39.31 510.68
  L 39.32 510.68
  A 3.00 1.73 78.3 0 1 41.62 513.27
  L 42.34 516.75
  A 3.00 1.73 78.3 0 1 41.26 520.04
  L 41.25 520.04
  A 0.04 0.04 0.0 0 1 41.20 520.01
  L 39.28 510.73
  Z"
/>
<path d="
  M 285.82 429.79
  Q 286.95 432.07 286.24 433.48
  C 284.47 436.97 279.63 438.71 274.85 441.35
  Q 265.39 446.60 259.05 455.28
  Q 257.59 457.28 255.53 457.44
  Q 250.03 457.85 242.93 457.30
  A 1.00 0.98 88.1 0 1 242.03 456.44
  C 241.76 454.57 240.56 452.64 241.47 450.71
  Q 241.59 451.05 241.93 451.28
  Q 242.22 451.48 242.64 451.45
  Q 248.90 451.08 255.50 450.99
  A 2.58 2.58 0.0 0 0 257.37 450.14
  L 262.48 444.45
  L 271.19 437.77
  Q 278.92 432.32 285.82 429.79
  Z"
/>
<path d="
  M 204.66 434.55
  L 207.74 436.57
  A 2.01 1.91 -1.5 0 1 208.13 436.92
  Q 210.28 439.42 214.74 442.24
  Q 218.35 444.51 223.74 450.76
  Q 231.19 451.62 239.66 451.07
  L 239.52 455.73
  A 0.79 0.79 0.0 0 1 238.84 456.49
  Q 231.12 457.61 223.63 457.13
  A 2.35 2.33 -17.4 0 1 221.97 456.27
  Q 214.86 447.52 205.08 441.44
  Q 200.20 438.41 194.88 435.69
  Q 191.94 433.44 194.25 429.95
  L 204.66 434.55
  Z"
/>
<path d="
  M 285.21 427.33
  Q 287.17 428.85 285.82 429.79
  Q 278.92 432.32 271.19 437.77
  Q 271.84 434.84 274.63 432.41
  Q 277.65 429.78 281.46 428.52
  A 0.57 0.55 -87.2 0 0 281.80 428.20
  Q 281.95 427.82 281.84 427.41
  Q 281.76 427.14 281.04 427.19
  Q 280.60 427.22 280.10 427.15
  Q 282.51 426.57 282.31 424.38
  L 285.21 427.33
  Z"
/>
<path d="
  M 280.10 427.15
  Q 280.60 427.22 281.04 427.19
  Q 281.76 427.14 281.84 427.41
  Q 281.95 427.82 281.80 428.20
  A 0.57 0.55 -87.2 0 1 281.46 428.52
  Q 277.65 429.78 274.63 432.41
  Q 271.84 434.84 271.19 437.77
  L 262.48 444.45
  L 262.39 443.74
  A 0.78 0.78 0.0 0 0 261.11 443.23
  L 255.77 447.66
  A 2.09 2.09 0.0 0 1 254.62 448.14
  L 241.72 449.30
  L 241.73 448.21
  Q 242.18 447.23 242.94 446.46
  Q 242.87 446.83 243.00 447.04
  Q 243.15 447.27 243.54 447.25
  Q 248.86 447.05 253.50 446.65
  A 4.22 4.21 -70.7 0 0 256.19 445.35
  Q 261.76 439.46 267.53 434.55
  Q 270.53 431.99 280.10 427.15
  Z"
/>
<path d="
  M 217.54 439.22
  L 225.13 446.50
  Q 225.22 447.18 224.16 447.16
  A 0.76 0.72 66.5 0 1 223.64 446.94
  L 216.24 439.54
  A 0.31 0.31 0.0 0 1 216.44 439.01
  Q 216.87 438.99 217.54 439.22
  Z"
/>
<path d="
  M 210.12 376.33
  L 209.39 380.40
  A 0.59 0.59 0.0 0 1 208.81 380.88
  L 206.79 380.89
  L 179.00 380.83
  A 1.04 1.03 90.0 0 0 177.97 381.87
  L 177.97 530.09
  A 0.63 0.63 0.0 0 0 178.60 530.72
  L 301.46 530.59
  L 299.27 534.39
  A 1.04 1.01 -74.4 0 1 298.39 534.90
  L 174.93 534.90
  A 1.10 1.09 0.0 0 1 173.83 533.81
  L 173.83 376.65
  A 0.34 0.34 0.0 0 1 174.17 376.31
  L 210.12 376.33
  Z"
/>
<path d="
  M 301.46 530.59
  L 301.57 381.56
  A 0.73 0.73 0.0 0 0 300.84 380.83
  L 271.52 380.89
  Q 270.92 378.20 269.78 376.35
  L 303.74 376.24
  A 0.82 0.81 89.7 0 1 304.56 377.06
  Q 304.65 445.64 304.81 514.26
  Q 304.84 524.12 304.69 525.21
  Q 304.37 527.58 301.46 530.59
  Z"
/>
<path d="
  M 217.54 439.22
  Q 216.87 438.99 216.44 439.01
  A 0.31 0.31 0.0 0 0 216.24 439.54
  L 223.64 446.94
  A 0.76 0.72 66.5 0 0 224.16 447.16
  Q 225.22 447.18 225.13 446.50
  Q 228.08 447.85 231.09 447.42
  A 0.86 0.85 14.6 0 0 231.64 447.10
  Q 232.28 446.32 231.69 445.05
  Q 232.51 445.04 233.22 444.72
  Q 232.95 446.15 234.53 446.42
  Q 237.33 446.91 240.21 446.93
  L 240.12 448.46
  L 239.92 448.95
  Q 232.47 449.54 225.00 449.41
  Q 223.18 449.38 223.74 450.76
  Q 218.35 444.51 214.74 442.24
  Q 210.28 439.42 208.13 436.92
  A 2.01 1.91 -1.5 0 0 207.74 436.57
  L 204.66 434.55
  L 205.37 434.39
  A 0.69 0.69 0.0 0 0 205.70 433.23
  Q 202.75 430.28 199.80 429.05
  A 0.73 0.73 0.0 0 1 199.90 427.67
  C 201.50 427.27 201.64 428.78 202.95 429.34
  Q 205.94 430.62 207.82 431.81
  Q 210.85 433.73 212.91 435.42
  Q 214.48 436.71 217.54 439.22
  Z"
/>
<path d="
  M 276.54 399.29
  Q 277.43 401.31 277.11 403.53
  Q 276.76 409.12 276.77 414.77
  C 276.79 423.55 270.65 425.89 263.60 428.05
  Q 262.62 428.34 261.23 428.00
  A 0.89 0.89 0.0 0 0 260.14 428.90
  Q 260.46 436.57 253.32 440.24
  A 1.16 0.93 20.3 0 1 252.99 440.35
  L 244.04 442.20
  A 2.54 2.19 35.2 0 1 243.42 442.26
  L 232.53 441.95
  A 4.16 4.05 -30.2 0 1 230.85 441.53
  Q 226.64 439.45 222.56 436.22
  C 221.20 435.13 220.62 432.61 220.55 430.51
  Q 220.43 426.63 220.42 417.04
  A 2.32 2.29 -72.5 0 0 219.47 415.19
  Q 214.97 411.95 213.94 406.84
  C 213.65 405.36 212.44 393.41 216.83 394.52
  A 0.69 0.69 0.0 0 1 217.33 395.02
  L 217.43 395.46
  A 0.56 0.56 0.0 0 0 218.29 395.80
  Q 219.86 394.78 220.43 392.78
  A 0.77 0.77 0.0 0 1 221.10 392.22
  Q 224.18 391.97 226.00 393.03
  Q 233.65 397.45 241.95 395.70
  Q 244.08 395.24 249.96 392.98
  A 0.98 0.94 -51.8 0 1 250.39 392.92
  L 259.97 393.92
  A 0.85 0.85 0.0 0 1 260.73 394.73
  C 260.92 400.03 261.32 403.50 260.98 407.78
  Q 260.25 417.00 260.32 423.33
  A 0.53 0.52 82.7 0 0 260.97 423.84
  C 265.13 422.81 271.53 419.90 271.90 414.87
  Q 272.57 405.79 271.86 402.66
  C 270.89 398.39 265.74 400.48 263.37 400.85
  A 1.52 1.51 -5.3 0 1 261.61 399.39
  Q 261.55 396.80 263.90 395.84
  C 268.80 393.83 274.01 393.77 276.54 399.29
  Z"
/>
<path d="
  M 58.97 518.96
  A 0.22 0.22 0.0 0 1 58.60 518.79
  L 58.72 510.21
  A 0.50 0.50 0.0 0 1 59.10 509.74
  L 60.97 509.30
  A 0.47 0.47 0.0 0 1 61.54 509.85
  Q 59.92 518.13 58.97 518.96
  Z"
/>
<path d="
  M 60.98 498.37
  L 42.02 498.37
  A 0.30 0.30 0.0 0 1 41.72 498.12
  L 33.57 445.81
  A 0.30 0.30 0.0 0 1 33.87 445.46
  L 65.44 445.46
  A 0.30 0.30 0.0 0 1 65.74 445.79
  L 61.28 498.10
  A 0.30 0.30 0.0 0 1 60.98 498.37
  Z"
/>
<path d="
  M 76.25 499.52
  L 69.79 499.43
  A 0.42 0.42 0.0 0 1 69.38 498.97
  L 73.85 446.46
  A 0.42 0.42 0.0 0 1 74.33 446.08
  L 87.48 447.86
  A 0.42 0.42 0.0 0 1 87.83 448.37
  L 76.66 499.19
  A 0.42 0.42 0.0 0 1 76.25 499.52
  Z"
/>
<path d="
  M 30.64 477.93
  L 33.55 498.86
  A 0.62 0.62 0.0 0 1 32.94 499.57
  L 26.59 499.65
  A 0.79 0.79 0.0 0 1 25.81 499.05
  L 22.45 485.31
  L 30.64 477.93
  Z"
/>
<path d="
  M 258.50 366.00
  L 260.01 370.15
  A 1.20 1.18 89.7 0 0 260.69 370.84
  C 264.38 372.26 266.56 372.84 269.78 376.35
  Q 270.92 378.20 271.52 380.89
  Q 271.12 386.20 269.20 391.74
  A 0.95 0.93 -72.1 0 0 269.81 392.95
  Q 274.80 394.43 276.54 399.29
  C 274.01 393.77 268.80 393.83 263.90 395.84
  Q 261.55 396.80 261.61 399.39
  A 1.52 1.51 -5.3 0 0 263.37 400.85
  C 265.74 400.48 270.89 398.39 271.86 402.66
  Q 272.57 405.79 271.90 414.87
  C 271.53 419.90 265.13 422.81 260.97 423.84
  A 0.53 0.52 82.7 0 1 260.32 423.33
  Q 260.25 417.00 260.98 407.78
  C 261.32 403.50 260.92 400.03 260.73 394.73
  A 0.85 0.85 0.0 0 0 259.97 393.92
  L 250.39 392.92
  A 0.98 0.94 -51.8 0 0 249.96 392.98
  Q 244.08 395.24 241.95 395.70
  Q 233.65 397.45 226.00 393.03
  Q 224.18 391.97 221.10 392.22
  A 0.77 0.77 0.0 0 0 220.43 392.78
  Q 219.86 394.78 218.29 395.80
  A 0.56 0.56 0.0 0 1 217.43 395.46
  L 217.33 395.02
  A 0.69 0.69 0.0 0 0 216.83 394.52
  C 212.44 393.41 213.65 405.36 213.94 406.84
  Q 214.97 411.95 219.47 415.19
  A 2.32 2.29 -72.5 0 1 220.42 417.04
  Q 220.43 426.63 220.55 430.51
  C 220.62 432.61 221.20 435.13 222.56 436.22
  Q 226.64 439.45 230.85 441.53
  A 4.16 4.05 -30.2 0 0 232.53 441.95
  L 243.42 442.26
  A 2.54 2.19 35.2 0 0 244.04 442.20
  L 252.99 440.35
  A 1.16 0.93 20.3 0 0 253.32 440.24
  Q 260.46 436.57 260.14 428.90
  A 0.89 0.89 0.0 0 1 261.23 428.00
  Q 262.62 428.34 263.60 428.05
  C 270.65 425.89 276.79 423.55 276.77 414.77
  Q 276.76 409.12 277.11 403.53
  Q 277.44 406.74 277.11 410.00
  Q 277.01 410.98 278.15 416.48
  C 279.20 421.52 283.61 422.69 285.21 427.33
  L 282.31 424.38
  Q 281.26 422.81 279.05 423.80
  Q 271.87 427.01 264.51 432.75
  C 261.06 435.43 258.34 438.79 254.82 442.16
  A 2.73 2.69 18.3 0 1 253.34 442.89
  C 249.53 443.48 246.02 443.94 242.94 446.46
  Q 242.18 447.23 241.73 448.21
  Q 240.95 448.64 240.12 448.46
  L 240.21 446.93
  Q 240.79 446.04 240.50 445.26
  A 0.76 0.75 -1.6 0 0 240.02 444.81
  Q 236.62 443.80 233.22 444.72
  Q 232.51 445.04 231.69 445.05
  Q 224.35 441.05 222.00 438.48
  Q 215.21 431.03 206.50 425.84
  A 4.87 4.68 -19.5 0 0 205.66 425.46
  Q 203.07 424.59 201.26 423.08
  A 1.26 1.25 47.8 0 0 199.77 423.00
  Q 195.17 426.02 194.25 429.95
  Q 191.94 433.44 194.88 435.69
  Q 191.53 435.77 192.22 430.87
  C 193.17 424.14 198.35 420.34 205.09 423.17
  C 209.57 425.05 213.15 427.53 216.60 430.70
  A 0.18 0.18 0.0 0 0 216.89 430.52
  Q 213.44 419.40 212.45 416.39
  C 208.74 405.10 207.39 392.80 206.79 380.89
  L 208.81 380.88
  A 0.59 0.59 0.0 0 0 209.39 380.40
  L 210.12 376.33
  Q 213.31 368.91 222.03 365.69
  L 231.40 366.16
  A 1.40 1.37 26.2 0 0 232.32 365.86
  C 233.22 365.13 233.73 363.93 234.75 363.13
  C 242.32 357.23 252.25 359.16 258.50 366.00
  Z"
/>
<path d="
  M 89.85 322.87
  Q 90.12 322.87 90.15 322.91
  A 1.12 0.91 26.3 0 1 90.25 323.02
  L 95.10 328.71
  A 0.36 0.36 0.0 0 1 95.06 329.22
  Q 92.38 331.38 89.85 334.48
  Q 89.77 334.59 89.59 334.58
  Q 89.43 334.58 89.35 334.47
  Q 86.95 331.27 84.36 329.00
  A 0.36 0.36 0.0 0 1 84.34 328.49
  L 89.42 323.00
  A 1.12 0.91 -23.9 0 1 89.53 322.89
  Q 89.56 322.86 89.85 322.87
  Z"
/>
<path d="
  M 262.48 444.45
  L 257.37 450.14
  A 2.58 2.58 0.0 0 1 255.50 450.99
  Q 248.90 451.08 242.64 451.45
  Q 242.22 451.48 241.93 451.28
  Q 241.59 451.05 241.47 450.71
  L 241.72 449.30
  L 254.62 448.14
  A 2.09 2.09 0.0 0 0 255.77 447.66
  L 261.11 443.23
  A 0.78 0.78 0.0 0 1 262.39 443.74
  L 262.48 444.45
  Z"
/>
<path d="
  M 239.92 448.95
  L 239.66 451.07
  Q 231.19 451.62 223.74 450.76
  Q 223.18 449.38 225.00 449.41
  Q 232.47 449.54 239.92 448.95
  Z"
/>
<path stroke="#856c23" vector-effect="non-scaling-stroke" d="
  M 255.53 407.25
  Q 253.76 414.05 247.25 414.35"
/>
<path stroke="#856c23" vector-effect="non-scaling-stroke" d="
  M 232.51 408.67
  L 230.27 412.18"
/>
<path d="
  M 226.89 387.16
  C 224.35 390.24 219.61 389.89 216.69 387.09
  C 211.03 381.67 214.33 372.45 221.72 370.92
  C 223.11 370.63 229.29 369.94 231.53 370.92
  Q 232.62 371.39 233.13 371.35
  A 1.08 1.07 10.9 0 0 234.00 370.77
  C 237.19 364.56 244.46 362.42 250.61 365.68
  Q 255.65 368.34 257.26 374.53
  A 1.20 1.19 -8.0 0 0 258.44 375.41
  Q 266.55 375.25 267.18 383.83
  A 2.95 2.89 -38.4 0 1 267.05 384.87
  C 264.68 392.37 256.12 392.22 250.48 388.49
  A 1.90 1.89 -47.6 0 0 248.25 388.60
  Q 242.78 392.99 235.79 392.49
  Q 230.17 392.08 227.40 387.20
  A 0.31 0.31 0.0 0 0 226.89 387.16
  Z"
/>
<path fill="#fb9835" d="
  M 246.75 523.55
  Q 246.77 523.54 246.97 522.88
  A 0.46 0.46 0.0 0 1 247.86 522.89
  Q 248.11 523.83 247.76 524.15
  Q 247.30 524.58 246.70 524.34
  Q 246.27 524.16 246.14 524.13
  A 1.50 1.47 39.4 0 0 245.25 524.21
  C 243.87 524.77 242.91 524.25 242.86 522.76
  A 0.35 0.34 -39.8 0 0 242.18 522.70
  Q 241.81 524.31 239.50 524.09
  A 0.73 0.72 -88.7 0 1 238.85 523.40
  L 238.79 522.23
  A 0.29 0.29 0.0 0 0 238.48 521.95
  L 238.15 521.96
  A 0.31 0.30 -3.8 0 0 237.86 522.28
  L 237.94 524.08
  A 0.35 0.35 0.0 0 1 237.29 524.29
  Q 236.25 522.64 237.47 521.10
  A 0.63 0.63 0.0 0 1 238.39 521.03
  Q 240.05 522.61 240.30 523.55
  A 0.31 0.31 0.0 0 0 240.85 523.64
  Q 240.95 523.48 241.03 523.11
  A 2.29 1.93 -71.8 0 1 243.88 521.35
  Q 244.12 521.46 243.72 522.28
  Q 243.47 522.78 243.92 523.21
  Q 244.13 523.40 244.40 523.47
  A 0.49 0.48 -79.7 0 0 244.99 523.06
  Q 245.10 522.22 245.47 522.08
  Q 245.93 521.91 246.07 522.47
  Q 246.13 522.72 246.10 523.16
  A 0.43 0.42 -13.8 0 0 246.75 523.55
  Z"
/>
<path d="
  M 247.25 414.35
  Q 253.76 414.05 255.53 407.25
  Q 255.87 406.84 256.10 406.15
  A 0.17 0.17 0.0 0 1 256.43 406.17
  C 257.04 409.47 254.87 411.73 252.42 414.08
  A 3.63 3.62 -22.1 0 0 251.30 416.72
  L 251.38 435.54
  A 1.43 1.42 0.2 0 1 249.93 436.97
  L 247.93 436.94
  A 1.27 1.27 0.0 0 1 246.67 435.63
  L 247.25 414.35
  Z"
/>
<path d="
  M 230.27 412.18
  L 232.51 408.67
  Q 233.64 408.72 234.09 410.34
  Q 234.64 412.38 234.59 414.34
  Q 234.35 424.63 234.57 436.30
  A 1.88 1.88 0.0 0 1 232.27 438.17
  L 232.17 438.15
  A 2.92 2.92 0.0 0 1 229.90 435.25
  Q 230.04 426.96 229.73 420.33
  C 229.62 417.82 230.25 414.95 230.27 412.18
  Z"
/>
<path d="
  M 233.14 523.66
  Q 232.16 523.36 231.85 521.65
  Q 231.74 520.99 231.17 521.18
  Q 230.75 521.33 230.64 521.96
  A 0.63 0.60 -62.9 0 0 230.79 522.46
  Q 231.60 523.32 231.28 524.16
  A 0.62 0.62 0.0 0 1 230.17 524.25
  Q 229.32 522.78 228.72 522.68
  A 0.81 0.07 9.7 0 1 227.92 522.47
  Q 228.08 522.05 228.17 521.93
  A 0.52 0.51 -54.2 0 0 228.06 521.20
  L 227.97 521.14
  A 0.53 0.52 -54.5 0 0 227.23 521.27
  Q 226.47 522.39 227.40 522.88
  A 0.95 0.70 -23.0 0 1 226.57 524.27
  Q 224.40 524.24 226.37 520.35
  A 0.84 0.84 0.0 0 1 227.64 520.06
  L 228.52 520.74
  A 1.26 1.25 55.0 0 0 229.69 520.95
  Q 230.18 520.79 232.11 520.73
  Q 233.08 520.70 233.42 521.50
  Q 233.60 521.94 233.67 523.25
  A 0.41 0.41 0.0 0 1 233.14 523.66
  Z"
/>
<path d="
  M 255.53 407.25
  Q 253.76 414.05 247.25 414.35
  C 241.34 414.51 238.95 410.66 237.46 405.65
  A 1.84 1.83 -43.3 0 1 237.50 404.50
  C 239.00 400.47 241.54 397.05 246.19 396.82
  C 252.35 396.53 256.43 401.15 255.53 407.25
  Z"
/>
<path d="
  M 232.51 408.67
  L 230.27 412.18
  C 221.24 420.68 209.07 407.69 218.83 398.53
  A 2.62 2.49 15.5 0 1 219.99 397.91
  Q 226.27 396.36 229.74 399.20
  Q 234.10 402.76 232.51 408.67
  Z"
/>
<path d="
  M 190.44 469.69
  Q 197.57 469.69 197.79 469.63
  A 0.52 0.52 0.0 0 1 198.44 470.11
  Q 198.65 474.39 198.62 474.73
  A 0.56 0.56 0.0 0 1 197.52 474.79
  Q 196.71 471.05 192.83 471.75
  A 0.76 0.74 85.4 0 0 192.22 472.48
  L 192.03 486.59
  A 1.18 1.17 6.2 0 0 192.98 487.76
  Q 193.99 487.95 194.20 488.15
  A 0.45 0.44 64.6 0 1 193.93 488.92
  Q 193.33 488.97 190.44 488.97
  Q 187.55 488.97 186.95 488.92
  A 0.45 0.44 -64.6 0 1 186.68 488.15
  Q 186.89 487.95 187.90 487.76
  A 1.18 1.17 -6.2 0 0 188.85 486.59
  L 188.66 472.48
  A 0.76 0.74 -85.4 0 0 188.05 471.75
  Q 184.17 471.05 183.36 474.79
  A 0.56 0.56 0.0 0 1 182.26 474.73
  Q 182.23 474.39 182.44 470.11
  A 0.52 0.52 0.0 0 1 183.09 469.63
  Q 183.30 469.69 190.44 469.69
  Z"
/>
<path d="
  M 220.60 469.63
  L 231.89 469.78
  A 0.44 0.43 -3.1 0 1 232.31 470.15
  L 232.80 473.59
  A 0.62 0.61 28.7 0 1 231.63 473.93
  L 230.79 472.11
  A 0.71 0.71 0.0 0 0 230.14 471.69
  L 225.92 471.63
  A 0.68 0.68 0.0 0 0 225.23 472.32
  L 225.29 477.04
  A 1.02 1.02 0.0 0 0 225.91 477.96
  Q 228.30 478.95 229.42 476.66
  A 0.56 0.55 -36.2 0 1 230.47 476.82
  L 231.13 481.46
  A 0.70 0.69 -61.4 0 1 229.81 481.85
  L 229.07 480.24
  A 0.78 0.78 0.0 0 0 228.25 479.79
  L 225.68 480.16
  A 0.76 0.75 86.5 0 0 225.04 480.90
  L 224.96 486.59
  A 0.66 0.65 -85.0 0 0 225.51 487.25
  Q 228.30 487.75 230.43 487.26
  A 0.97 0.96 4.7 0 0 231.11 486.69
  L 232.10 484.32
  A 0.33 0.33 0.0 0 1 232.40 484.13
  L 232.68 484.14
  A 0.46 0.44 -86.6 0 1 233.12 484.65
  L 232.56 488.72
  A 0.63 0.62 -85.9 0 1 231.93 489.27
  L 220.27 489.11
  A 0.34 0.33 15.2 0 1 219.98 488.61
  Q 220.45 487.78 221.31 487.43
  A 0.88 0.87 -11.9 0 0 221.85 486.61
  L 221.66 472.05
  A 0.77 0.76 -82.2 0 0 221.12 471.33
  Q 220.21 471.05 220.07 470.26
  A 0.53 0.53 0.0 0 1 220.60 469.63
  Z"
/>
<path d="
  M 200.26 469.82
  L 206.98 469.79
  A 0.39 0.38 4.9 0 1 207.37 470.24
  L 207.30 470.66
  A 0.59 0.58 -2.3 0 1 206.85 471.14
  L 205.37 471.49
  A 0.76 0.76 0.0 0 0 204.78 472.22
  L 204.72 476.97
  A 1.01 1.00 -89.4 0 0 205.71 477.99
  L 212.67 478.09
  A 1.12 1.12 0.0 0 0 213.80 476.94
  L 213.65 472.19
  A 0.54 0.53 27.7 0 0 213.55 471.88
  Q 213.04 471.17 211.91 471.24
  A 0.54 0.53 -1.0 0 1 211.34 470.70
  L 211.35 470.41
  A 0.62 0.61 -0.5 0 1 211.96 469.80
  L 217.91 469.78
  A 0.78 0.78 0.0 0 1 218.09 471.31
  L 217.32 471.49
  A 0.82 0.82 0.0 0 0 216.69 472.29
  L 216.76 486.96
  A 0.63 0.62 5.0 0 0 217.28 487.57
  Q 217.95 487.69 218.48 488.21
  A 0.50 0.50 0.0 0 1 218.12 489.06
  L 211.93 489.06
  A 0.25 0.24 1.1 0 1 211.68 488.81
  L 211.68 488.46
  A 0.66 0.66 0.0 0 1 212.20 487.83
  L 213.15 487.60
  A 0.81 0.80 83.8 0 0 213.78 486.81
  L 213.78 481.47
  A 1.39 1.39 0.0 0 0 212.38 480.08
  L 206.17 480.11
  A 1.33 1.33 0.0 0 0 204.84 481.45
  L 204.86 486.80
  A 0.77 0.77 0.0 0 0 205.33 487.51
  Q 206.06 487.83 206.82 487.88
  A 0.55 0.55 0.0 0 1 207.33 488.43
  L 207.32 488.70
  A 0.42 0.42 0.0 0 1 206.90 489.12
  L 200.07 489.15
  A 0.48 0.48 0.0 0 1 199.59 488.67
  L 199.59 488.40
  A 0.08 0.07 75.1 0 1 199.62 488.34
  L 201.25 487.40
  A 0.91 0.91 0.0 0 0 201.71 486.61
  L 201.65 472.61
  A 0.93 0.92 -68.5 0 0 201.38 471.98
  L 199.96 470.55
  A 0.43 0.43 0.0 0 1 200.26 469.82
  Z"
/>
<path d="
  M 255.59 482.66
  L 257.87 472.29
  A 0.64 0.63 14.5 0 0 257.42 471.54
  L 255.92 471.09
  A 0.45 0.44 -89.1 0 1 255.61 470.76
  L 255.51 470.35
  A 0.36 0.35 -6.4 0 1 255.86 469.92
  L 269.74 469.86
  A 0.38 0.38 0.0 0 1 269.95 470.55
  Q 267.61 472.13 267.61 472.45
  Q 267.60 476.60 267.97 486.22
  A 1.37 1.33 -64.6 0 0 268.23 486.99
  Q 268.75 487.74 269.85 488.08
  A 0.55 0.55 0.0 0 1 269.68 489.16
  L 262.49 489.06
  A 0.31 0.31 0.0 0 1 262.32 488.49
  Q 264.59 486.97 264.58 486.76
  Q 264.44 478.60 264.46 473.01
  A 2.10 2.08 -13.6 0 0 261.40 471.17
  Q 259.84 471.97 259.37 473.88
  Q 257.03 483.50 255.03 488.82
  A 0.66 0.66 0.0 0 1 253.82 488.87
  C 252.16 485.37 251.89 481.55 250.84 478.22
  A 0.28 0.28 0.0 0 0 250.31 478.23
  L 247.29 488.40
  A 1.04 1.03 47.2 0 1 245.29 488.32
  Q 245.06 487.51 241.33 474.30
  C 240.87 472.67 240.21 471.78 239.03 470.81
  A 0.55 0.55 0.0 0 1 239.38 469.84
  L 246.83 469.80
  A 0.32 0.32 0.0 0 1 247.14 470.18
  L 247.09 470.43
  A 0.50 0.50 0.0 0 1 246.72 470.80
  L 244.75 471.27
  A 0.85 0.85 0.0 0 0 244.11 472.30
  L 246.37 481.95
  A 0.44 0.44 0.0 0 0 247.22 481.94
  L 249.77 470.35
  A 0.77 0.77 0.0 0 1 251.23 470.20
  Q 253.88 476.16 254.90 482.64
  A 0.35 0.35 0.0 0 0 255.59 482.66
  Z"
/>
<path d="
  M 271.76 483.78
  A 0.40 0.40 0.0 0 1 272.50 483.63
  L 274.25 486.66
  A 1.42 1.36 0.7 0 0 274.78 487.18
  C 276.30 488.01 280.16 488.16 280.42 485.54
  C 280.85 481.29 271.52 480.59 271.75 474.65
  Q 271.89 470.94 276.05 469.77
  Q 276.96 469.51 281.76 469.95
  A 0.73 0.72 2.6 0 1 282.42 470.67
  L 282.42 475.00
  A 0.41 0.41 0.0 0 1 281.64 475.17
  L 280.29 472.22
  A 1.17 1.17 0.0 0 0 279.62 471.62
  Q 277.46 470.85 275.80 471.78
  A 2.28 2.27 66.1 0 0 274.75 474.50
  C 276.01 478.17 282.30 477.23 283.26 482.78
  Q 284.08 487.57 279.18 489.27
  Q 277.91 489.71 272.72 488.72
  A 1.09 1.08 86.8 0 1 271.88 487.96
  Q 271.42 486.42 271.76 483.78
  Z"
/>
<path d="
  M 284.60 488.75
  Q 285.15 487.91 286.12 487.45
  A 0.74 0.74 0.0 0 0 286.55 486.78
  L 286.75 472.06
  A 0.89 0.89 0.0 0 0 286.20 471.22
  L 285.14 470.77
  A 0.52 0.51 55.9 0 1 285.33 469.78
  L 296.97 469.63
  A 0.52 0.52 0.0 0 1 297.49 470.15
  L 297.54 474.02
  A 0.40 0.40 0.0 0 1 296.78 474.19
  L 295.82 472.10
  A 0.69 0.69 0.0 0 0 295.21 471.70
  L 290.73 471.64
  A 0.67 0.67 0.0 0 0 290.05 472.30
  L 289.98 477.43
  A 0.75 0.74 6.6 0 0 290.57 478.17
  Q 293.32 478.80 294.68 476.66
  A 0.65 0.65 0.0 0 1 295.88 477.02
  L 295.83 481.26
  A 0.66 0.65 33.1 0 1 294.58 481.52
  L 294.16 480.61
  A 0.96 0.95 77.1 0 0 293.28 480.05
  L 290.81 480.08
  A 0.64 0.64 0.0 0 0 290.18 480.71
  L 290.10 486.69
  A 0.61 0.61 0.0 0 0 290.63 487.31
  Q 293.06 487.62 295.43 487.30
  A 0.88 0.87 7.0 0 0 296.12 486.77
  L 297.14 484.36
  A 0.27 0.25 -77.9 0 1 297.38 484.19
  L 297.64 484.19
  A 0.39 0.39 0.0 0 1 298.04 484.62
  L 297.70 488.57
  A 0.71 0.70 2.6 0 1 296.98 489.22
  L 284.76 489.06
  A 0.20 0.20 0.0 0 1 284.60 488.75
  Z"
/>
<path d="
  M 231.95 516.45
  Q 228.19 516.45 227.71 516.35
  A 0.42 0.42 0.0 0 1 227.54 515.61
  Q 228.21 515.08 229.23 514.85
  A 1.15 1.15 0.0 0 0 230.13 513.74
  L 230.32 500.05
  A 1.24 1.24 0.0 0 0 229.64 498.93
  Q 228.61 498.40 228.46 497.92
  A 0.65 0.65 0.0 0 1 228.96 497.10
  Q 228.99 497.10 231.95 497.10
  Q 234.92 497.10 234.95 497.10
  A 0.65 0.65 0.0 0 1 235.45 497.92
  Q 235.30 498.40 234.27 498.93
  A 1.24 1.24 0.0 0 0 233.59 500.05
  L 233.78 513.74
  A 1.15 1.15 0.0 0 0 234.68 514.85
  Q 235.70 515.08 236.37 515.61
  A 0.42 0.42 0.0 0 1 236.20 516.35
  Q 235.71 516.45 231.95 516.45
  Z"
/>
<path d="
  M 256.37 496.97
  A 0.25 0.24 -67.6 0 1 256.54 497.39
  L 254.93 499.00
  A 1.74 1.74 0.0 0 0 254.42 500.23
  L 254.42 515.90
  A 1.03 1.03 0.0 0 1 252.55 516.50
  L 242.97 503.32
  A 0.67 0.67 0.0 0 0 241.76 503.72
  L 241.91 512.96
  A 2.69 2.63 -63.6 0 0 242.38 514.41
  Q 242.86 515.10 244.51 515.45
  A 0.45 0.44 -39.3 0 1 244.42 516.33
  L 238.36 516.41
  A 0.42 0.41 -76.3 0 1 237.99 515.80
  Q 238.31 515.22 239.00 514.85
  A 1.19 1.16 77.6 0 0 239.60 513.89
  Q 239.99 507.44 239.66 500.60
  C 239.59 499.16 239.12 498.45 237.82 498.09
  A 0.51 0.51 0.0 0 1 237.97 497.08
  L 242.25 497.23
  A 1.12 1.10 73.6 0 1 243.13 497.72
  C 244.15 499.19 245.71 500.46 246.86 502.42
  Q 247.76 503.96 251.76 509.79
  A 0.39 0.38 -62.3 0 0 252.46 509.57
  L 252.46 499.40
  A 0.58 0.54 33.5 0 0 252.40 499.15
  Q 251.97 498.35 250.73 498.34
  A 0.57 0.57 0.0 0 1 250.16 497.75
  L 250.17 497.44
  A 0.42 0.41 -0.0 0 1 250.58 497.04
  L 256.37 496.97
  Z"
/>
<path d="
  M 266.08 496.96
  Q 269.96 496.96 273.86 497.09
  A 0.68 0.68 0.0 0 1 274.52 497.76
  L 274.57 501.85
  A 0.55 0.55 0.0 0 1 273.65 502.27
  Q 273.17 501.84 272.56 500.30
  A 1.59 1.54 6.8 0 0 271.95 499.55
  Q 270.62 498.67 268.49 499.05
  A 0.76 0.76 0.0 0 0 267.86 499.80
  L 267.86 513.46
  A 1.19 1.18 -83.6 0 0 268.78 514.62
  Q 269.19 514.72 269.90 514.75
  A 0.64 0.63 -9.3 0 1 270.46 515.15
  Q 270.69 515.71 270.47 515.98
  A 0.68 0.67 -74.1 0 1 270.03 516.23
  Q 269.48 516.29 266.06 516.29
  Q 262.64 516.28 262.08 516.21
  A 0.68 0.67 74.3 0 1 261.64 515.97
  Q 261.43 515.70 261.66 515.14
  A 0.64 0.63 9.5 0 1 262.22 514.74
  Q 262.93 514.71 263.34 514.61
  A 1.19 1.18 83.8 0 0 264.26 513.45
  L 264.30 499.80
  A 0.76 0.76 0.0 0 0 263.67 499.04
  Q 261.54 498.66 260.21 499.53
  A 1.59 1.54 -6.7 0 0 259.60 500.28
  Q 258.98 501.82 258.50 502.25
  A 0.55 0.55 0.0 0 1 257.58 501.83
  L 257.65 497.74
  A 0.68 0.68 0.0 0 1 258.30 497.07
  Q 262.21 496.95 266.08 496.96
  Z"
/>
<path d="
  M 220.80 515.02
  A 0.35 0.35 0.0 0 1 221.10 515.37
  L 221.11 515.68
  A 0.52 0.51 89.4 0 1 220.61 516.20
  L 213.68 516.29
  A 0.46 0.46 0.0 0 1 213.22 515.84
  L 213.22 515.48
  A 0.62 0.62 0.0 0 1 213.74 514.88
  Q 214.42 514.76 214.81 514.46
  Q 215.11 514.23 215.12 513.50
  Q 215.25 504.50 215.20 499.61
  A 0.85 0.83 11.8 0 0 214.68 498.84
  L 213.21 498.22
  A 0.48 0.47 -36.3 0 1 213.35 497.31
  C 215.49 497.11 223.63 496.46 225.55 498.75
  Q 227.28 500.81 227.18 502.80
  C 226.92 507.42 223.31 509.40 218.95 508.69
  A 0.48 0.48 0.0 0 0 218.39 509.17
  L 218.45 513.92
  A 0.91 0.91 0.0 0 0 219.24 514.81
  L 220.80 515.02
  Z"
/>
<path d="
  M 234.72 520.57
  A 0.25 0.25 0.0 0 1 234.96 520.31
  L 235.21 520.30
  A 1.63 1.02 88.0 0 1 236.28 521.89
  L 236.32 522.79
  A 1.63 1.02 88.0 0 1 235.35 524.46
  L 235.10 524.47
  A 0.25 0.25 0.0 0 1 234.84 524.23
  L 234.72 520.57
  Z"
/>
<path fill="#0d1426" d="
  M 218.41 499.74
  A 0.84 0.84 0.0 0 1 219.25 498.90
  L 220.24 498.90
  A 3.47 3.32 -0.1 0 1 223.72 502.22
  L 223.72 503.42
  A 3.47 3.32 -0.1 0 1 220.26 506.74
  L 219.27 506.74
  A 0.84 0.84 0.0 0 1 218.43 505.90
  L 218.41 499.74
  Z"
/>
<path d="
  M 228.14 404.02
  Q 227.96 404.54 226.71 405.20
  C 223.98 406.62 220.24 405.50 221.49 401.78
  C 222.75 398.07 226.41 399.44 227.71 402.22
  Q 228.31 403.51 228.14 404.02
  Z"
/>
<path fill="#a49c8d" d="
  M 234.38 379.76
  Q 234.01 379.61 234.10 379.06
  Q 234.19 378.46 235.08 378.73
  A 0.81 0.66 28.0 0 1 235.56 379.89
  Q 235.32 380.15 234.38 379.76
  Z"
/>
<path fill="#554541" d="
  M 229.32 521.77
  Q 229.43 522.13 229.35 522.27
  A 0.29 0.29 0.0 0 1 228.86 522.28
  Q 228.83 522.23 228.96 521.77
  A 0.19 0.19 0.0 0 1 229.32 521.77
  Z"
/>
<g fill="#143a7a">
<path d="
  M 225.84 335.64
  Q 226.56 335.24 230.16 334.43
  Q 247.33 330.59 256.19 329.22
  Q 260.95 328.48 271.37 327.74
  C 274.23 327.54 275.53 327.83 277.72 327.90
  A 17.10 17.08 -50.3 0 0 281.99 327.50
  C 287.69 326.24 293.12 325.18 299.29 323.24
  Q 305.44 321.30 312.43 319.63
  A 0.50 0.50 0.0 0 1 313.01 320.31
  L 305.51 338.14
  A 0.91 0.89 -78.8 0 1 304.70 338.69
  Q 293.18 338.82 266.51 338.26
  Q 259.89 338.12 241.25 338.66
  Q 237.64 338.76 228.26 337.66
  A 1.13 1.13 0.0 0 1 227.37 337.03
  Q 227.01 336.31 225.93 336.14
  A 0.27 0.27 0.0 0 1 225.84 335.64
  Z"
/>
<path d="
  M 200.88 347.57
  Q 199.87 355.56 202.46 364.82
  A 0.76 0.76 0.0 0 1 201.72 365.78
  L 194.70 365.68
  A 0.73 0.73 0.0 0 1 193.98 364.93
  Q 194.11 361.36 195.55 357.09
  A 2.03 1.89 58.9 0 0 195.66 356.57
  L 196.20 348.22
  A 0.46 0.45 88.5 0 1 196.59 347.80
  L 200.54 347.24
  A 0.30 0.29 -0.1 0 1 200.88 347.57
  Z"
/>
<path d="
  M 258.50 366.00
  C 252.25 359.16 242.32 357.23 234.75 363.13
  C 233.73 363.93 233.22 365.13 232.32 365.86
  A 1.40 1.37 26.2 0 1 231.40 366.16
  L 222.03 365.69
  L 207.81 365.81
  A 0.66 0.65 -87.6 0 1 207.15 365.09
  C 207.69 359.50 207.02 355.59 206.26 347.80
  A 0.49 0.48 87.9 0 1 206.75 347.27
  L 270.15 348.14
  A 0.62 0.62 0.0 0 1 270.76 348.82
  L 269.37 365.14
  A 0.64 0.64 0.0 0 1 268.76 365.72
  L 258.50 366.00
  Z"
/>
<path d="
  M 278.48 365.69
  Q 275.40 365.66 274.43 365.52
  A 0.73 0.72 11.9 0 1 273.83 364.61
  Q 276.13 356.25 276.39 348.95
  A 0.34 0.34 0.0 0 1 276.74 348.62
  Q 278.34 348.69 278.68 348.69
  Q 279.03 348.70 280.62 348.67
  A 0.34 0.34 0.0 0 1 280.97 349.00
  Q 281.06 356.31 283.16 364.72
  A 0.73 0.72 -10.5 0 1 282.54 365.61
  Q 281.57 365.73 278.48 365.69
  Z"
/>
<path d="
  M 301.00 349.34
  Q 300.95 349.53 300.91 352.68
  C 300.85 357.78 303.84 360.34 309.28 360.30
  Q 314.93 360.25 319.29 360.10
  A 0.64 0.64 0.0 0 1 319.96 360.73
  L 321.75 499.42
  A 3.76 3.75 -28.6 0 1 321.11 501.58
  L 314.91 510.80
  A 0.33 0.33 0.0 0 1 314.35 510.77
  Q 314.16 510.42 314.15 509.77
  Q 313.55 468.88 313.77 443.45
  C 313.96 421.34 313.61 403.75 313.49 376.67
  Q 313.47 370.50 312.16 368.66
  C 309.74 365.22 306.58 365.73 301.99 365.68
  Q 296.73 365.63 289.18 365.69
  A 0.36 0.36 0.0 0 1 288.82 365.38
  L 286.50 349.14
  A 0.41 0.40 -3.6 0 1 286.91 348.68
  L 300.70 348.93
  A 0.32 0.31 9.5 0 1 301.00 349.34
  Z"
/>
</g>
<g fill="#5b332a">
<ellipse cx="0.00" cy="0.00" transform="translate(433.31,659.62) rotate(-65.5)" rx="0.81" ry="0.40"/>
<path d="
  M 433.19 662.97
  L 433.56 663.13
  A 0.36 0.36 0.0 0 1 433.64 663.75
  Q 432.37 664.75 433.16 667.56
  Q 433.29 668.00 432.96 668.36
  Q 432.78 668.56 432.44 668.54
  Q 432.00 668.51 431.98 668.24
  Q 431.76 665.41 432.43 663.32
  A 0.57 0.57 0.0 0 1 433.19 662.97
  Z"
/>
</g>
<g fill="#191512">
<path d="
  M 453.63 665.05
  Q 452.48 664.41 451.99 664.41
  C 450.86 664.41 450.64 665.45 450.10 666.41
  A 1.36 1.17 -53.5 0 1 448.12 666.86
  C 446.65 665.31 448.04 663.30 449.74 662.99
  Q 451.70 662.62 453.88 663.34
  A 0.97 0.97 0.0 0 1 454.53 664.42
  L 454.50 664.64
  A 0.59 0.59 0.0 0 1 453.63 665.05
  Z"
/>
<ellipse cx="0.00" cy="0.00" transform="translate(451.91,668.68) rotate(-30.7)" rx="1.16" ry="0.81"/>
<path d="
  M 447.11 668.77
  A 0.07 0.07 0.0 0 1 447.18 668.85
  L 447.18 668.88
  A 2.60 1.88 1.3 0 1 444.54 670.70
  L 444.00 670.68
  A 2.60 1.88 1.3 0 1 441.44 668.75
  L 441.44 668.72
  A 0.07 0.07 0.0 0 1 441.51 668.65
  L 447.11 668.77
  Z"
/>
<path d="
  M 441.91 671.37
  Q 442.89 672.19 445.66 671.91
  A 0.65 0.64 -62.0 0 1 446.03 673.12
  Q 444.01 674.20 441.42 673.44
  A 0.97 0.96 14.7 0 1 440.75 672.30
  L 440.87 671.73
  A 0.65 0.64 -63.9 0 1 441.91 671.37
  Z"
/>
</g>
<g fill="#fdc72c">
<path d="
  M 247.25 414.35
  Q 253.76 414.05 255.53 407.25
  Q 255.87 406.84 256.10 406.15
  A 0.17 0.17 0.0 0 1 256.43 406.17
  C 257.04 409.47 254.87 411.73 252.42 414.08
  A 3.63 3.62 -22.1 0 0 251.30 416.72
  L 251.38 435.54
  A 1.43 1.42 0.2 0 1 249.93 436.97
  L 247.93 436.94
  A 1.27 1.27 0.0 0 1 246.67 435.63
  L 247.25 414.35
  Z"
/>
<path d="
  M 230.27 412.18
  L 232.51 408.67
  Q 233.64 408.72 234.09 410.34
  Q 234.64 412.38 234.59 414.34
  Q 234.35 424.63 234.57 436.30
  A 1.88 1.88 0.0 0 1 232.27 438.17
  L 232.17 438.15
  A 2.92 2.92 0.0 0 1 229.90 435.25
  Q 230.04 426.96 229.73 420.33
  C 229.62 417.82 230.25 414.95 230.27 412.18
  Z"
/>
<path d="
  M 233.14 523.66
  Q 232.16 523.36 231.85 521.65
  Q 231.74 520.99 231.17 521.18
  Q 230.75 521.33 230.64 521.96
  A 0.63 0.60 -62.9 0 0 230.79 522.46
  Q 231.60 523.32 231.28 524.16
  A 0.62 0.62 0.0 0 1 230.17 524.25
  Q 229.32 522.78 228.72 522.68
  A 0.81 0.07 9.7 0 1 227.92 522.47
  Q 228.08 522.05 228.17 521.93
  A 0.52 0.51 -54.2 0 0 228.06 521.20
  L 227.97 521.14
  A 0.53 0.52 -54.5 0 0 227.23 521.27
  Q 226.47 522.39 227.40 522.88
  A 0.95 0.70 -23.0 0 1 226.57 524.27
  Q 224.40 524.24 226.37 520.35
  A 0.84 0.84 0.0 0 1 227.64 520.06
  L 228.52 520.74
  A 1.26 1.25 55.0 0 0 229.69 520.95
  Q 230.18 520.79 232.11 520.73
  Q 233.08 520.70 233.42 521.50
  Q 233.60 521.94 233.67 523.25
  A 0.41 0.41 0.0 0 1 233.14 523.66
  Z"
/>
</g>
<g fill="#0c1019">
<path d="
  M 255.53 407.25
  Q 253.76 414.05 247.25 414.35
  C 241.34 414.51 238.95 410.66 237.46 405.65
  A 1.84 1.83 -43.3 0 1 237.50 404.50
  C 239.00 400.47 241.54 397.05 246.19 396.82
  C 252.35 396.53 256.43 401.15 255.53 407.25
  Z"
/>
<path d="
  M 232.51 408.67
  L 230.27 412.18
  C 221.24 420.68 209.07 407.69 218.83 398.53
  A 2.62 2.49 15.5 0 1 219.99 397.91
  Q 226.27 396.36 229.74 399.20
  Q 234.10 402.76 232.51 408.67
  Z"
/>
<path d="
  M 434.51 664.02
  A 0.65 0.65 0.0 0 1 434.94 662.98
  Q 437.46 662.64 439.08 664.71
  A 1.09 1.09 0.0 0 1 438.06 666.46
  Q 436.15 666.17 434.51 664.02
  Z"
/>
<ellipse cx="0.00" cy="0.00" transform="translate(435.82,668.57) rotate(-8.1)" rx="1.32" ry="0.69"/>
</g>
<ellipse cx="0.00" cy="0.00" transform="translate(465.41,690.58) rotate(-1.0)" rx="1.71" ry="1.08"/>
<ellipse cx="0.00" cy="0.00" transform="translate(505.10,943.63) rotate(-178.9)" rx="35.80" ry="12.57"/>
<ellipse cx="0.00" cy="0.00" transform="translate(509.32,549.63) rotate(-8.6)" rx="2.72" ry="2.49"/>
<ellipse cx="0.00" cy="0.00" transform="translate(517.31,464.34) rotate(-17.5)" rx="2.69" ry="2.26"/>
<ellipse cx="0.00" cy="0.00" transform="translate(433.31,659.62) rotate(-65.5)" rx="0.81" ry="0.40"/>
<ellipse cx="0.00" cy="0.00" transform="translate(451.91,668.68) rotate(-30.7)" rx="1.16" ry="0.81"/>
<ellipse cx="0.00" cy="0.00" transform="translate(435.82,668.57) rotate(-8.1)" rx="1.32" ry="0.69"/>

</svg>