<?xml version="1.0" encoding="UTF-8" standalone="no"?>
<!DOCTYPE svg PUBLIC "-//W3C//DTD SVG 1.1//EN" "http://www.w3.org/Graphics/SVG/1.1/DTD/svg11.dtd">
<svg xmlns="http://www.w3.org/2000/svg" version="1.1" viewBox="0.00 0.00 835.28 881.88" preserveAspectRatio="none">

<g stroke-width="2.00" fill="none" stroke-linecap="butt">
<path stroke="#2b2f4f" vector-effect="non-scaling-stroke" d="
  M 292.39 253.19
  Q 291.88 253.76 290.27 254.15
  A 1.67 1.66 85.5 0 0 289.00 255.65
  Q 288.65 261.02 288.95 266.79
  Q 289.00 267.63 290.15 269.87
  Q 290.56 270.67 289.42 271.98"
/>
<path stroke="#443f59" vector-effect="non-scaling-stroke" d="
  M 289.42 271.98
  L 278.10 295.25"
/>
<path stroke="#2b2f4f" vector-effect="non-scaling-stroke" d="
  M 278.10 295.25
  L 274.91 301.19"
/>
<path stroke="#443f59" vector-effect="non-scaling-stroke" d="
  M 274.91 301.19
  L 262.93 324.85"
/>
<path stroke="#2b2f4f" vector-effect="non-scaling-stroke" d="
  M 262.93 324.85
  L 260.20 330.20"
/>
<path stroke="#443f59" vector-effect="non-scaling-stroke" d="
  M 260.20 330.20
  L 248.45 354.48"
/>
<path stroke="#1f2951" vector-effect="non-scaling-stroke" d="
  M 248.45 354.48
  Q 241.40 355.30 241.03 360.48
  Q 240.55 367.22 240.90 375.77"
/>
<path stroke="#1c2b50" vector-effect="non-scaling-stroke" d="
  M 240.90 375.77
  Q 240.87 382.12 246.50 382.08
  Q 260.79 381.97 275.36 382.47"
/>
<path stroke="#222849" vector-effect="non-scaling-stroke" d="
  M 275.36 382.47
  Q 274.96 383.77 275.28 384.53"
/>
<path stroke="#626070" vector-effect="non-scaling-stroke" d="
  M 275.28 384.53
  Q 274.69 384.80 274.68 385.25
  Q 274.52 394.74 274.66 416.50"
/>
<path stroke="#40445d" vector-effect="non-scaling-stroke" d="
  M 274.66 416.50
  L 274.61 423.11"
/>
<path stroke="#5a5a6e" vector-effect="non-scaling-stroke" d="
  M 274.61 423.11
  L 274.74 451.61"
/>
<path stroke="#40445d" vector-effect="non-scaling-stroke" d="
  M 274.74 451.61
  L 274.61 457.44"
/>
<path stroke="#5a5a6e" vector-effect="non-scaling-stroke" d="
  M 274.61 457.44
  L 274.43 489.51"
/>
<path stroke="#132859" vector-effect="non-scaling-stroke" d="
  M 274.43 489.51
  Q 270.72 489.94 269.75 489.90
  C 255.68 489.38 242.45 490.12 229.42 489.75
  Q 226.07 489.65 209.08 489.87
  Q 205.28 489.91 204.20 491.05
  C 202.09 493.28 201.55 496.63 204.03 499.05
  Q 205.29 500.28 206.97 501.26"
/>
<path stroke="#132551" vector-effect="non-scaling-stroke" d="
  M 206.97 501.26
  Q 221.74 502.70 230.50 502.46
  Q 238.49 502.25 246.27 502.60
  A 0.68 0.67 2.2 0 1 246.92 503.29
  L 246.76 509.72"
/>
<path stroke="#3e3956" vector-effect="non-scaling-stroke" d="
  M 246.76 509.72
  Q 242.56 510.20 238.70 508.42"
/>
<path stroke="#443f59" vector-effect="non-scaling-stroke" d="
  M 238.70 508.42
  C 236.72 507.40 232.73 505.79 231.00 507.80
  Q 223.16 516.90 212.54 523.29
  A 3.65 3.64 -15.4 0 0 210.76 526.42
  L 210.76 592.79"
/>
<path stroke="#222849" vector-effect="non-scaling-stroke" d="
  M 210.76 592.79
  Q 210.50 595.21 211.65 596.84
  A 1.99 1.97 -5.8 0 0 212.48 597.51
  C 217.20 599.57 221.26 602.48 226.09 604.90
  Q 229.99 606.86 241.27 612.67
  C 244.80 614.49 248.76 615.64 252.32 617.67
  A 3.77 3.76 -42.9 0 0 255.83 617.80
  L 274.41 608.93"
/>
<path stroke="#40445d" vector-effect="non-scaling-stroke" d="
  M 274.41 608.93
  L 274.26 613.42"
/>
<path stroke="#626070" vector-effect="non-scaling-stroke" d="
  M 274.26 613.42
  L 274.37 645.33"
/>
<path stroke="#40445d" vector-effect="non-scaling-stroke" d="
  M 274.37 645.33
  L 274.52 650.83"
/>
<path stroke="#626070" vector-effect="non-scaling-stroke" d="
  M 274.52 650.83
  L 274.42 681.76"
/>
<path stroke="#39405d" vector-effect="non-scaling-stroke" d="
  M 274.42 681.76
  Q 275.40 688.55 273.04 688.43"
/>
<path stroke="#626070" vector-effect="non-scaling-stroke" d="
  M 273.04 688.43
  Q 269.99 688.51 268.79 691.78"
/>
<path stroke="#163269" vector-effect="non-scaling-stroke" d="
  M 268.79 691.78
  Q 266.59 692.15 264.45 692.16
  Q 206.34 692.33 148.35 692.15"
/>
<path stroke="#132859" vector-effect="non-scaling-stroke" d="
  M 148.35 692.15
  Q 147.54 689.11 148.32 687.61"
/>
<path stroke="#213660" vector-effect="non-scaling-stroke" d="
  M 148.32 687.61
  Q 151.70 686.55 151.69 683.64
  C 151.67 679.34 147.54 676.87 143.49 677.03
  Q 140.30 677.15 137.23 676.66"
/>
<path stroke="#132859" vector-effect="non-scaling-stroke" d="
  M 137.23 676.66
  L 137.18 502.95
  A 0.72 0.72 0.0 0 1 137.90 502.23
  L 145.82 502.23
  A 1.21 1.10 29.3 0 0 146.34 502.11
  Q 149.82 500.39 151.86 497.35
  C 153.27 495.25 152.40 493.53 151.03 491.87
  Q 150.05 490.69 146.84 490.82
  Q 143.02 490.98 138.23 490.87
  A 1.11 1.10 -89.7 0 1 137.15 489.77
  L 136.98 477.33"
/>
<path stroke="#122b5e" vector-effect="non-scaling-stroke" d="
  M 136.98 477.33
  L 143.94 473.92
  A 2.49 2.18 9.0 0 0 144.45 473.60
  Q 148.11 470.58 152.33 468.33
  Q 155.04 466.88 155.46 464.92
  Q 157.54 455.15 159.90 445.46"
/>
<path stroke="#132859" vector-effect="non-scaling-stroke" d="
  M 159.90 445.46
  Q 165.14 427.98 168.61 410.28
  A 1.56 1.56 0.0 0 1 169.93 409.04
  L 175.44 408.30
  A 0.58 0.53 20.8 0 0 175.69 408.20
  C 177.96 406.51 177.91 404.24 175.69 402.70
  Q 162.83 393.81 144.57 381.64
  C 140.98 379.24 137.28 376.16 133.67 373.75
  A 0.99 0.99 0.0 0 1 133.50 372.25
  Q 138.78 366.65 134.52 359.67
  C 130.10 352.40 118.81 355.79 117.26 363.67
  Q 116.30 368.60 120.22 372.37
  A 0.76 0.76 0.0 0 1 120.17 373.50
  C 116.11 376.74 111.33 379.57 107.61 382.19
  C 97.83 389.06 88.16 396.39 78.07 402.81
  C 76.96 403.53 75.28 405.13 76.18 406.60
  C 77.43 408.65 81.42 408.59 83.50 408.55"
/>
<path stroke="#122b5e" vector-effect="non-scaling-stroke" d="
  M 83.50 408.55
  Q 84.28 409.33 84.60 410.63
  C 86.75 419.39 90.63 435.49 94.43 448.55
  Q 96.63 456.08 98.00 465.24
  C 98.45 468.30 102.12 468.89 104.48 470.00
  Q 105.27 470.37 107.94 472.61
  Q 111.81 475.83 117.47 476.99"
/>
<path stroke="#132859" vector-effect="non-scaling-stroke" d="
  M 117.47 476.99
  L 117.36 490.20
  A 0.62 0.62 0.0 0 1 116.74 490.81
  L 105.25 490.81
  A 0.76 0.75 34.1 0 0 104.98 490.86
  C 102.10 491.81 100.59 495.26 102.65 497.95
  Q 105.08 501.11 107.51 502.17
  A 2.42 2.40 56.5 0 0 108.47 502.37
  L 116.58 502.37
  A 0.73 0.73 0.0 0 1 117.31 503.10
  L 117.27 677.16"
/>
<path stroke="#213660" vector-effect="non-scaling-stroke" d="
  M 117.27 677.16
  C 113.82 677.13 108.77 676.64 106.06 678.01
  C 102.96 679.56 100.61 685.74 105.34 686.99"
/>
<path stroke="#132859" vector-effect="non-scaling-stroke" d="
  M 105.34 686.99
  Q 107.21 688.52 105.81 692.27"
/>
<path stroke="#163269" vector-effect="non-scaling-stroke" d="
  M 105.81 692.27
  L 0.00 692.26"
/>
<path stroke="#59352b" vector-effect="non-scaling-stroke" d="
  M 304.35 354.26
  L 304.16 332.57
  A 1.93 1.91 30.7 0 0 303.94 331.72
  Q 303.24 330.39 301.47 330.29
  Q 293.34 329.84 281.93 330.25
  C 276.73 330.43 267.48 329.89 260.20 330.20"
/>
<path stroke="#59352b" vector-effect="non-scaling-stroke" d="
  M 262.93 324.85
  L 330.55 324.61
  A 2.09 2.09 0.0 0 0 332.64 322.52
  L 332.64 303.02
  A 2.09 2.08 -0.1 0 0 330.54 300.94
  L 274.91 301.19"
/>
<path stroke="#502d25" vector-effect="non-scaling-stroke" d="
  M 304.35 354.26
  L 277.19 354.21"
/>
<path stroke="#4d2f2d" vector-effect="non-scaling-stroke" d="
  M 277.19 354.21
  L 248.45 354.48"
/>
<path stroke="#2b181d" vector-effect="non-scaling-stroke" d="
  M 278.54 361.26
  Q 278.68 357.72 277.19 354.21"
/>
<path stroke="#341f23" vector-effect="non-scaling-stroke" d="
  M 278.54 361.26
  L 278.78 375.77"
/>
<path stroke="#2b181d" vector-effect="non-scaling-stroke" d="
  M 278.78 375.77
  L 278.59 376.22"
/>
<path stroke="#251b24" vector-effect="non-scaling-stroke" d="
  M 278.59 376.22
  L 240.90 375.77"
/>
<path stroke="#0f1a39" vector-effect="non-scaling-stroke" d="
  M 159.90 445.46
  L 153.24 451.07"
/>
<path stroke="#85581a" vector-effect="non-scaling-stroke" d="
  M 153.24 451.07
  L 162.64 411.10
  A 1.07 1.07 0.0 0 0 161.60 409.78
  L 149.71 409.78
  A 0.80 0.79 -85.8 0 0 148.93 410.46
  L 142.84 453.86"
/>
<path stroke="#0f1a39" vector-effect="non-scaling-stroke" d="
  M 142.84 453.86
  Q 138.79 451.60 136.73 446.92"
/>
<path stroke="#85581a" vector-effect="non-scaling-stroke" d="
  M 136.73 446.92
  L 141.72 410.12
  A 0.51 0.50 -86.5 0 0 141.22 409.55
  L 112.61 409.55
  A 0.30 0.30 0.0 0 0 112.31 409.88
  L 113.13 417.06"
/>
<path stroke="#0f1a39" vector-effect="non-scaling-stroke" d="
  M 113.13 417.06
  Q 109.78 413.10 105.55 415.36"
/>
<path stroke="#85581a" vector-effect="non-scaling-stroke" d="
  M 105.55 415.36
  L 104.85 410.24
  A 0.69 0.68 84.1 0 0 104.13 409.65
  L 91.53 410.35
  A 0.95 0.95 0.0 0 0 90.67 411.53
  L 93.59 423.23"
/>
<path stroke="#0f1a39" vector-effect="non-scaling-stroke" d="
  M 93.59 423.23
  L 85.25 409.66
  A 1.64 1.62 -3.0 0 0 84.53 409.02
  L 83.50 408.55"
/>
<path stroke="#6e4f3c" vector-effect="non-scaling-stroke" d="
  M 328.45 384.55
  L 275.28 384.53"
/>
<path stroke="#271a1c" vector-effect="non-scaling-stroke" d="
  M 275.36 382.47
  Q 278.83 381.50 278.59 376.22"
/>
<path stroke="#83654d" vector-effect="non-scaling-stroke" d="
  M 309.67 479.21
  L 309.41 460.64
  A 2.07 2.02 32.9 0 0 309.21 459.76
  Q 308.15 457.58 306.23 457.48
  Q 296.06 456.92 274.61 457.44"
/>
<path stroke="#83654d" vector-effect="non-scaling-stroke" d="
  M 274.74 451.61
  C 284.70 452.45 295.21 451.22 304.52 451.57
  C 307.46 451.68 310.34 450.77 310.26 447.73
  Q 310.01 437.22 310.19 427.52
  C 310.26 423.93 308.19 422.73 304.65 422.86
  Q 294.80 423.22 280.51 422.64
  Q 279.27 422.59 274.61 423.11"
/>
<path stroke="#8c6b4f" vector-effect="non-scaling-stroke" d="
  M 274.66 416.50
  Q 275.57 416.21 277.08 416.71
  A 3.47 3.24 -33.9 0 0 278.01 416.86
  C 284.69 417.01 291.39 416.68 298.58 416.82
  Q 315.42 417.15 328.77 416.70
  Q 332.12 416.58 332.11 413.03
  Q 332.07 400.56 332.23 387.23
  A 2.36 2.34 -84.6 0 0 330.30 384.89
  L 328.45 384.55"
/>
<path stroke="#845c1f" vector-effect="non-scaling-stroke" d="
  M 93.59 423.23
  L 102.92 459.41
  A 1.36 1.36 0.0 0 0 104.24 460.44
  L 110.92 460.44
  A 0.86 0.86 0.0 0 0 111.77 459.46
  L 105.55 415.36"
/>
<path stroke="#845c1f" vector-effect="non-scaling-stroke" d="
  M 113.13 417.06
  L 119.05 459.63
  A 0.88 0.88 0.0 0 0 119.92 460.38
  L 134.15 460.38
  A 0.76 0.76 0.0 0 0 134.90 459.74
  L 136.73 446.92"
/>
<path stroke="#845c1f" vector-effect="non-scaling-stroke" d="
  M 142.84 453.86
  L 142.20 458.66
  A 1.38 1.38 0.0 0 0 143.57 460.22
  L 149.01 460.22
  A 2.40 2.39 -82.6 0 0 151.32 458.43
  L 153.24 451.07"
/>
<path stroke="#0f1a39" vector-effect="non-scaling-stroke" d="
  M 136.98 477.33
  Q 127.56 475.47 117.47 476.99"
/>
<path stroke="#564949" vector-effect="non-scaling-stroke" d="
  M 309.67 479.21
  Q 307.54 478.99 305.24 479.64
  A 0.85 0.84 -8.3 0 0 304.63 480.45
  L 304.63 488.65
  A 0.89 0.88 90.0 0 1 303.75 489.54
  L 274.43 489.51"
/>
<path stroke="#1e243c" vector-effect="non-scaling-stroke" d="
  M 137.23 676.66
  Q 133.46 677.38 129.37 677.41
  Q 123.24 677.45 117.27 677.16"
/>
<path stroke="#3c3338" vector-effect="non-scaling-stroke" d="
  M 304.47 505.62
  Q 304.75 504.30 304.52 502.91
  A 0.58 0.58 0.0 0 0 303.95 502.42
  L 296.06 502.48"
/>
<path stroke="#0f132d" vector-effect="non-scaling-stroke" d="
  M 296.06 502.48
  Q 292.67 501.30 290.04 501.18
  Q 266.91 500.14 265.10 500.04
  Q 257.75 499.60 249.87 499.98
  C 241.86 500.37 235.00 501.15 228.33 500.13
  Q 221.69 499.12 214.88 499.30
  Q 210.74 499.41 206.97 501.26"
/>
<path stroke="#3c3031" vector-effect="non-scaling-stroke" d="
  M 296.06 502.48
  L 274.41 502.54"
/>
<path stroke="#132551" vector-effect="non-scaling-stroke" d="
  M 274.41 502.54
  L 254.81 502.69
  A 0.68 0.68 0.0 0 0 254.13 503.39
  L 254.30 509.70"
/>
<path stroke="#3b252a" vector-effect="non-scaling-stroke" d="
  M 254.30 509.70
  Q 250.42 510.46 246.76 509.72"
/>
<path stroke="#40445d" vector-effect="non-scaling-stroke" d="
  M 274.41 502.54
  Q 274.14 504.61 274.66 505.76"
/>
<path stroke="#5a5a6e" vector-effect="non-scaling-stroke" d="
  M 274.66 505.76
  Q 274.62 507.10 274.19 508.21"
/>
<path stroke="#222849" vector-effect="non-scaling-stroke" d="
  M 274.19 508.21
  L 273.17 508.33"
/>
<path stroke="#3e3956" vector-effect="non-scaling-stroke" d="
  M 273.17 508.33
  C 271.17 507.08 268.83 505.08 266.22 505.86
  Q 265.42 506.10 263.10 507.76
  Q 259.45 510.37 254.30 509.70"
/>
<path stroke="#83654d" vector-effect="non-scaling-stroke" d="
  M 304.47 505.62
  L 274.66 505.76"
/>
<path stroke="#83654d" vector-effect="non-scaling-stroke" d="
  M 310.40 512.62
  Q 310.86 523.50 310.86 534.25
  Q 310.86 536.95 310.15 538.96
  C 308.97 542.30 301.75 541.77 299.05 541.43"
/>
<path stroke="#65493a" vector-effect="non-scaling-stroke" d="
  M 299.05 541.43
  L 298.87 526.57
  A 2.78 2.78 0.0 0 0 297.53 524.23
  Q 285.87 517.21 274.57 508.66
  Q 274.36 508.50 274.19 508.21"
/>
<path stroke="#4a2822" vector-effect="non-scaling-stroke" d="
  M 273.17 508.33
  Q 282.53 516.79 293.09 523.69
  Q 295.24 525.09 295.30 526.50
  Q 295.63 533.63 295.47 563.58
  C 295.42 574.09 295.65 582.96 295.57 592.29
  A 2.20 2.19 76.5 0 1 294.39 594.22
  L 270.37 606.80"
/>
<path stroke="#6c3f32" vector-effect="non-scaling-stroke" d="
  M 270.37 606.80
  L 259.96 605.96"
/>
<path stroke="#533022" vector-effect="non-scaling-stroke" d="
  M 259.96 605.96
  L 288.72 590.43
  A 2.06 2.05 75.9 0 0 289.80 588.62
  L 289.80 530.69
  A 1.29 1.27 -72.4 0 0 289.27 529.65
  C 282.00 524.31 274.97 519.25 269.39 512.89
  A 0.81 0.80 -38.1 0 0 268.33 512.77
  Q 266.41 514.13 263.55 514.77
  Q 249.12 517.97 235.05 513.93"
/>
<path stroke="#6c3f32" vector-effect="non-scaling-stroke" d="
  M 235.05 513.93
  Q 238.60 512.28 238.70 508.42"
/>
<path stroke="#593524" vector-effect="non-scaling-stroke" d="
  M 235.05 513.93
  Q 232.89 515.65 231.05 517.55
  Q 224.67 524.11 217.78 528.69
  A 1.40 1.39 -16.7 0 0 217.16 529.83
  Q 216.95 559.17 217.22 578.75
  Q 217.35 588.24 217.24 588.50
  Q 216.75 589.67 219.33 591.41
  Q 225.86 595.82 232.33 598.91
  C 239.46 602.31 245.14 605.74 252.53 608.97
  A 1.67 1.65 -46.3 0 0 253.92 608.93
  L 259.96 605.96"
/>
<path stroke="#502d25" vector-effect="non-scaling-stroke" d="
  M 270.37 606.80
  Q 262.43 610.89 254.19 614.33
  Q 252.26 615.14 250.29 614.00
  C 245.37 611.16 239.60 609.35 234.64 606.54
  Q 228.07 602.82 217.38 597.62
  Q 214.57 596.25 210.76 592.79"
/>
<path stroke="#4b3329" vector-effect="non-scaling-stroke" d="
  M 299.05 541.43
  L 299.30 548.94"
/>
<path stroke="#65493a" vector-effect="non-scaling-stroke" d="
  M 299.30 548.94
  L 299.32 563.14"
/>
<path stroke="#4b3329" vector-effect="non-scaling-stroke" d="
  M 299.32 563.14
  L 299.21 571.73"
/>
<path stroke="#6e4f3c" vector-effect="non-scaling-stroke" d="
  M 299.21 571.73
  L 298.65 595.77
  A 0.93 0.91 77.0 0 1 298.16 596.57
  L 276.63 608.19"
/>
<path stroke="#4b3329" vector-effect="non-scaling-stroke" d="
  M 276.63 608.19
  Q 276.12 608.05 274.41 608.93"
/>
<path stroke="#624b3d" vector-effect="non-scaling-stroke" d="
  M 278.79 688.46
  L 311.31 688.18
  A 0.10 0.10 0.0 0 0 311.34 687.99
  Q 306.68 686.18 303.24 682.50
  A 1.18 1.17 70.4 0 0 302.45 682.12
  L 297.95 681.81"
/>
<path stroke="#8c6b4f" vector-effect="non-scaling-stroke" d="
  M 297.95 681.81
  Q 301.46 681.82 304.99 681.81
  C 309.44 681.80 311.72 680.85 311.73 676.26
  Q 311.73 672.76 311.75 658.36
  C 311.75 654.14 312.54 650.77 307.50 650.71
  Q 290.92 650.52 274.52 650.83"
/>
<path stroke="#8c6b4f" vector-effect="non-scaling-stroke" d="
  M 274.37 645.33
  Q 286.51 645.83 298.19 645.34
  C 303.38 645.12 304.22 644.50 304.13 638.77
  Q 303.95 626.43 304.50 616.62
  Q 304.58 615.10 303.07 613.89
  A 2.07 2.04 -25.3 0 0 301.84 613.46
  L 274.26 613.42"
/>
<path stroke="#8c6b4f" vector-effect="non-scaling-stroke" d="
  M 276.63 608.19
  Q 291.70 608.57 306.00 608.57
  C 310.27 608.57 311.50 605.83 311.38 601.75
  Q 311.38 601.66 311.36 576.24
  Q 311.35 574.12 309.58 573.08
  Q 308.51 572.46 305.90 572.37
  Q 302.54 572.27 299.21 571.73"
/>
<path stroke="#856750" vector-effect="non-scaling-stroke" d="
  M 297.95 681.81
  L 274.42 681.76"
/>
<path stroke="#1e243c" vector-effect="non-scaling-stroke" d="
  M 148.32 687.61
  Q 140.09 686.44 131.66 686.56
  Q 118.44 686.74 105.34 686.99"
/>
<path stroke="#856750" vector-effect="non-scaling-stroke" d="
  M 278.79 688.46
  L 273.04 688.43"
/>
<path stroke="#132145" vector-effect="non-scaling-stroke" d="
  M 148.35 692.15
  L 153.89 746.02"
/>
<path stroke="#1e243c" vector-effect="non-scaling-stroke" d="
  M 153.89 746.02
  L 99.57 746.09"
/>
<path stroke="#132145" vector-effect="non-scaling-stroke" d="
  M 99.57 746.09
  L 105.81 692.27"
/>
<path stroke="#77665b" vector-effect="non-scaling-stroke" d="
  M 300.46 720.40
  L 271.23 720.22"
/>
<path stroke="#62595c" vector-effect="non-scaling-stroke" d="
  M 271.23 720.22
  Q 268.64 719.26 268.61 716.75
  Q 268.51 708.53 268.79 691.78"
/>
<path stroke="#2b3854" vector-effect="non-scaling-stroke" d="
  M 271.23 720.22
  L 274.68 720.84
  A 0.35 0.35 0.0 0 1 274.70 721.52
  L 269.81 722.73
  A 1.58 1.58 0.0 0 0 268.97 723.27
  Q 266.45 726.43 266.53 730.80
  Q 266.70 740.69 266.02 750.58"
/>
<path stroke="#535c6f" vector-effect="non-scaling-stroke" d="
  M 266.02 750.58
  L 159.56 750.61"
/>
<path stroke="#212f4c" vector-effect="non-scaling-stroke" d="
  M 159.56 750.61
  L 153.89 746.02"
/>
<path stroke="#212f4c" vector-effect="non-scaling-stroke" d="
  M 99.57 746.09
  Q 96.16 746.93 93.16 750.60"
/>
<path stroke="#535c6f" vector-effect="non-scaling-stroke" d="
  M 93.16 750.60
  L 0.00 750.64"
/>
<path stroke="#67696e" vector-effect="non-scaling-stroke" d="
  M 318.95 762.56
  Q 304.11 762.38 273.25 761.23
  Q 269.18 761.08 267.57 758.25
  Q 267.02 757.28 266.80 754.44
  Q 266.65 752.32 266.02 750.58"
/>
<path stroke="#5e6066" vector-effect="non-scaling-stroke" d="
  M 159.56 750.61
  Q 160.21 753.22 158.63 755.78"
/>
<path stroke="#1e243c" vector-effect="non-scaling-stroke" d="
  M 158.63 755.78
  L 94.45 755.93"
/>
<path stroke="#5e6066" vector-effect="non-scaling-stroke" d="
  M 94.45 755.93
  L 93.16 750.60"
/>
<path stroke="#4f525f" vector-effect="non-scaling-stroke" d="
  M 94.45 755.93
  L 91.40 756.40
  A 1.91 1.90 -4.4 0 0 89.78 758.28
  L 89.78 776.15
  A 0.94 0.94 0.0 0 0 90.73 777.09
  Q 126.63 776.91 162.27 776.94
  Q 163.34 776.94 163.24 775.37"
/>
<path stroke="#72767d" vector-effect="non-scaling-stroke" d="
  M 163.24 775.37
  C 165.58 774.68 169.89 773.82 171.42 772.01
  A 2.17 2.17 0.0 0 0 170.87 768.74
  Q 167.22 766.57 163.21 766.63"
/>
<path stroke="#4f525f" vector-effect="non-scaling-stroke" d="
  M 163.21 766.63
  L 163.04 757.93
  A 1.71 1.71 0.0 0 0 161.61 756.28
  L 158.63 755.78"
/>
<path stroke="#67696e" vector-effect="non-scaling-stroke" d="
  M 521.08 818.02
  L 158.05 817.80"
/>
<path stroke="#5e6066" vector-effect="non-scaling-stroke" d="
  M 158.05 817.80
  Q 174.07 806.84 189.01 795.37
  C 193.97 791.56 197.78 789.22 201.90 785.84
  C 209.46 779.64 219.39 773.14 226.76 767.04
  A 2.94 2.39 5.9 0 1 227.22 766.74
  L 230.55 765.09
  A 0.24 0.24 0.0 0 0 230.43 764.64
  L 225.47 764.92
  A 1.07 0.99 23.9 0 0 224.95 765.10
  L 147.24 818.04"
/>
<path stroke="#67696e" vector-effect="non-scaling-stroke" d="
  M 147.24 818.04
  L 0.00 818.03"
/>
<path stroke="#323a53" vector-effect="non-scaling-stroke" d="
  M 163.21 766.63
  L 163.24 775.37"
/>
</g>

<path fill="#fcf1d4" d="
  M 88.28 263.87
  L 93.96 266.15
  A 0.55 0.55 0.0 0 1 93.96 267.17
  L 88.29 269.48
  A 0.55 0.55 0.0 0 0 87.99 269.78
  L 85.71 275.46
  A 0.55 0.55 0.0 0 1 84.69 275.46
  L 82.38 269.79
  A 0.55 0.55 0.0 0 0 82.08 269.49
  L 76.40 267.21
  A 0.55 0.55 0.0 0 1 76.40 266.19
  L 82.07 263.88
  A 0.55 0.55 0.0 0 0 82.37 263.58
  L 84.65 257.90
  A 0.55 0.55 0.0 0 1 85.67 257.90
  L 87.98 263.57
  A 0.55 0.55 0.0 0 0 88.28 263.87
  Z"
/>
<path fill="#724434" d="
  M 262.93 324.85
  L 274.91 301.19
  L 330.54 300.94
  A 2.09 2.08 -0.1 0 1 332.64 303.02
  L 332.64 322.52
  A 2.09 2.09 0.0 0 1 330.55 324.61
  L 262.93 324.85
  Z"
/>
<path fill="#724434" d="
  M 304.35 354.26
  L 277.19 354.21
  L 248.45 354.48
  L 260.20 330.20
  C 267.48 329.89 276.73 330.43 281.93 330.25
  Q 293.34 329.84 301.47 330.29
  Q 303.24 330.39 303.94 331.72
  A 1.93 1.91 30.7 0 1 304.16 332.57
  L 304.35 354.26
  Z"
/>
<path fill="#281925" d="
  M 277.19 354.21
  Q 278.68 357.72 278.54 361.26
  L 278.78 375.77
  L 278.59 376.22
  L 240.90 375.77
  Q 240.55 367.22 241.03 360.48
  Q 241.40 355.30 248.45 354.48
  L 277.19 354.21
  Z"
/>
<path fill="#0f1634" d="
  M 159.90 445.46
  L 153.24 451.07
  L 162.64 411.10
  A 1.07 1.07 0.0 0 0 161.60 409.78
  L 149.71 409.78
  A 0.80 0.79 -85.8 0 0 148.93 410.46
  L 142.84 453.86
  Q 138.79 451.60 136.73 446.92
  L 141.72 410.12
  A 0.51 0.50 -86.5 0 0 141.22 409.55
  L 112.61 409.55
  A 0.30 0.30 0.0 0 0 112.31 409.88
  L 113.13 417.06
  Q 109.78 413.10 105.55 415.36
  L 104.85 410.24
  A 0.69 0.68 84.1 0 0 104.13 409.65
  L 91.53 410.35
  A 0.95 0.95 0.0 0 0 90.67 411.53
  L 93.59 423.23
  L 85.25 409.66
  A 1.64 1.62 -3.0 0 0 84.53 409.02
  L 83.50 408.55
  C 81.42 408.59 77.43 408.65 76.18 406.60
  C 75.28 405.13 76.96 403.53 78.07 402.81
  C 88.16 396.39 97.83 389.06 107.61 382.19
  C 111.33 379.57 116.11 376.74 120.17 373.50
  A 0.76 0.76 0.0 0 0 120.22 372.37
  Q 116.30 368.60 117.26 363.67
  C 118.81 355.79 130.10 352.40 134.52 359.67
  Q 138.78 366.65 133.50 372.25
  A 0.99 0.99 0.0 0 0 133.67 373.75
  C 137.28 376.16 140.98 379.24 144.57 381.64
  Q 162.83 393.81 175.69 402.70
  C 177.91 404.24 177.96 406.51 175.69 408.20
  A 0.58 0.53 20.8 0 1 175.44 408.30
  L 169.93 409.04
  A 1.56 1.56 0.0 0 0 168.61 410.28
  Q 165.14 427.98 159.90 445.46
  Z"
/>
<path fill="#211d22" d="
  M 278.59 376.22
  Q 278.83 381.50 275.36 382.47
  Q 260.79 381.97 246.50 382.08
  Q 240.87 382.12 240.90 375.77
  L 278.59 376.22
  Z"
/>
<path fill="#ae8762" d="
  M 328.45 384.55
  L 330.30 384.89
  A 2.36 2.34 -84.6 0 1 332.23 387.23
  Q 332.07 400.56 332.11 413.03
  Q 332.12 416.58 328.77 416.70
  Q 315.42 417.15 298.58 416.82
  C 291.39 416.68 284.69 417.01 278.01 416.86
  A 3.47 3.24 -33.9 0 1 277.08 416.71
  Q 275.57 416.21 274.66 416.50
  Q 274.52 394.74 274.68 385.25
  Q 274.69 384.80 275.28 384.53
  L 328.45 384.55
  Z"
/>
<path fill="#0e1d3e" d="
  M 93.59 423.23
  L 102.92 459.41
  A 1.36 1.36 0.0 0 0 104.24 460.44
  L 110.92 460.44
  A 0.86 0.86 0.0 0 0 111.77 459.46
  L 105.55 415.36
  Q 109.78 413.10 113.13 417.06
  L 119.05 459.63
  A 0.88 0.88 0.0 0 0 119.92 460.38
  L 134.15 460.38
  A 0.76 0.76 0.0 0 0 134.90 459.74
  L 136.73 446.92
  Q 138.79 451.60 142.84 453.86
  L 142.20 458.66
  A 1.38 1.38 0.0 0 0 143.57 460.22
  L 149.01 460.22
  A 2.40 2.39 -82.6 0 0 151.32 458.43
  L 153.24 451.07
  L 159.90 445.46
  Q 157.54 455.15 155.46 464.92
  Q 155.04 466.88 152.33 468.33
  Q 148.11 470.58 144.45 473.60
  A 2.49 2.18 9.0 0 1 143.94 473.92
  L 136.98 477.33
  Q 127.56 475.47 117.47 476.99
  Q 111.81 475.83 107.94 472.61
  Q 105.27 470.37 104.48 470.00
  C 102.12 468.89 98.45 468.30 98.00 465.24
  Q 96.63 456.08 94.43 448.55
  C 90.63 435.49 86.75 419.39 84.60 410.63
  Q 84.28 409.33 83.50 408.55
  L 84.53 409.02
  A 1.64 1.62 -3.0 0 1 85.25 409.66
  L 93.59 423.23
  Z"
/>
<path fill="#fa9a00" d="
  M 136.73 446.92
  L 134.90 459.74
  A 0.76 0.76 0.0 0 1 134.15 460.38
  L 119.92 460.38
  A 0.88 0.88 0.0 0 1 119.05 459.63
  L 113.13 417.06
  L 112.31 409.88
  A 0.30 0.30 0.0 0 1 112.61 409.55
  L 141.22 409.55
  A 0.51 0.50 -86.5 0 1 141.72 410.12
  L 136.73 446.92
  Z"
/>
<path fill="#fa9a00" d="
  M 105.55 415.36
  L 111.77 459.46
  A 0.86 0.86 0.0 0 1 110.92 460.44
  L 104.24 460.44
  A 1.36 1.36 0.0 0 1 102.92 459.41
  L 93.59 423.23
  L 90.67 411.53
  A 0.95 0.95 0.0 0 1 91.53 410.35
  L 104.13 409.65
  A 0.69 0.68 84.1 0 1 104.85 410.24
  L 105.55 415.36
  Z"
/>
<path fill="#fa9a00" d="
  M 153.24 451.07
  L 151.32 458.43
  A 2.40 2.39 -82.6 0 1 149.01 460.22
  L 143.57 460.22
  A 1.38 1.38 0.0 0 1 142.20 458.66
  L 142.84 453.86
  L 148.93 410.46
  A 0.80 0.79 -85.8 0 1 149.71 409.78
  L 161.60 409.78
  A 1.07 1.07 0.0 0 1 162.64 411.10
  L 153.24 451.07
  Z"
/>
<path fill="#9d7b5e" d="
  M 274.74 451.61
  L 274.61 423.11
  Q 279.27 422.59 280.51 422.64
  Q 294.80 423.22 304.65 422.86
  C 308.19 422.73 310.26 423.93 310.19 427.52
  Q 310.01 437.22 310.26 447.73
  C 310.34 450.77 307.46 451.68 304.52 451.57
  C 295.21 451.22 284.70 452.45 274.74 451.61
  Z"
/>
<path fill="#9d7b5e" d="
  M 309.67 479.21
  Q 307.54 478.99 305.24 479.64
  A 0.85 0.84 -8.3 0 0 304.63 480.45
  L 304.63 488.65
  A 0.89 0.88 90.0 0 1 303.75 489.54
  L 274.43 489.51
  L 274.61 457.44
  Q 296.06 456.92 306.23 457.48
  Q 308.15 457.58 309.21 459.76
  A 2.07 2.02 32.9 0 1 309.41 460.64
  L 309.67 479.21
  Z"
/>
<ellipse fill="#0f1634" cx="0.00" cy="0.00" transform="translate(249.30,479.27) rotate(-123.6)" rx="6.63" ry="6.47"/>
<path fill="#0f1634" d="
  M 136.98 477.33
  L 137.15 489.77
  A 1.11 1.10 -89.7 0 0 138.23 490.87
  Q 143.02 490.98 146.84 490.82
  Q 150.05 490.69 151.03 491.87
  C 152.40 493.53 153.27 495.25 151.86 497.35
  Q 149.82 500.39 146.34 502.11
  A 1.21 1.10 29.3 0 1 145.82 502.23
  L 137.90 502.23
  A 0.72 0.72 0.0 0 0 137.18 502.95
  L 137.23 676.66
  Q 133.46 677.38 129.37 677.41
  Q 123.24 677.45 117.27 677.16
  L 117.31 503.10
  A 0.73 0.73 0.0 0 0 116.58 502.37
  L 108.47 502.37
  A 2.42 2.40 56.5 0 1 107.51 502.17
  Q 105.08 501.11 102.65 497.95
  C 100.59 495.26 102.10 491.81 104.98 490.86
  A 0.76 0.75 34.1 0 1 105.25 490.81
  L 116.74 490.81
  A 0.62 0.62 0.0 0 0 117.36 490.20
  L 117.47 476.99
  Q 127.56 475.47 136.98 477.33
  Z"
/>
<path fill="#0f1634" d="
  M 309.67 479.21
  L 316.77 479.33
  L 332.16 479.39
  A 1.99 1.99 0.0 0 1 333.99 480.63
  Q 334.71 482.40 334.69 484.75
  Q 334.62 491.97 334.56 499.35
  L 334.62 507.10
  L 334.46 511.66
  A 0.89 0.88 -89.0 0 1 333.58 512.52
  L 317.21 512.62
  L 310.40 512.62
  Q 307.39 512.76 305.79 512.16
  A 1.57 1.55 8.8 0 1 304.78 510.80
  L 304.47 505.62
  Q 304.75 504.30 304.52 502.91
  A 0.58 0.58 0.0 0 0 303.95 502.42
  L 296.06 502.48
  Q 292.67 501.30 290.04 501.18
  Q 266.91 500.14 265.10 500.04
  Q 257.75 499.60 249.87 499.98
  C 241.86 500.37 235.00 501.15 228.33 500.13
  Q 221.69 499.12 214.88 499.30
  Q 210.74 499.41 206.97 501.26
  Q 205.29 500.28 204.03 499.05
  C 201.55 496.63 202.09 493.28 204.20 491.05
  Q 205.28 489.91 209.08 489.87
  Q 226.07 489.65 229.42 489.75
  C 242.45 490.12 255.68 489.38 269.75 489.90
  Q 270.72 489.94 274.43 489.51
  L 303.75 489.54
  A 0.89 0.88 -90.0 0 0 304.63 488.65
  L 304.63 480.45
  A 0.85 0.84 -8.3 0 1 305.24 479.64
  Q 307.54 478.99 309.67 479.21
  Z"
/>
<path fill="#0f1025" d="
  M 296.06 502.48
  L 274.41 502.54
  L 254.81 502.69
  A 0.68 0.68 0.0 0 0 254.13 503.39
  L 254.30 509.70
  Q 250.42 510.46 246.76 509.72
  L 246.92 503.29
  A 0.68 0.67 2.2 0 0 246.27 502.60
  Q 238.49 502.25 230.50 502.46
  Q 221.74 502.70 206.97 501.26
  Q 210.74 499.41 214.88 499.30
  Q 221.69 499.12 228.33 500.13
  C 235.00 501.15 241.86 500.37 249.87 499.98
  Q 257.75 499.60 265.10 500.04
  Q 266.91 500.14 290.04 501.18
  Q 292.67 501.30 296.06 502.48
  Z"
/>
<path fill="#16397d" d="
  M 274.41 502.54
  Q 274.14 504.61 274.66 505.76
  Q 274.62 507.10 274.19 508.21
  L 273.17 508.33
  C 271.17 507.08 268.83 505.08 266.22 505.86
  Q 265.42 506.10 263.10 507.76
  Q 259.45 510.37 254.30 509.70
  L 254.13 503.39
  A 0.68 0.68 0.0 0 1 254.81 502.69
  L 274.41 502.54
  Z"
/>
<path fill="#694f3c" d="
  M 296.06 502.48
  L 303.95 502.42
  A 0.58 0.58 0.0 0 1 304.52 502.91
  Q 304.75 504.30 304.47 505.62
  L 274.66 505.76
  Q 274.14 504.61 274.41 502.54
  L 296.06 502.48
  Z"
/>
<path fill="#9d7b5e" d="
  M 304.47 505.62
  L 304.78 510.80
  A 1.57 1.55 8.8 0 0 305.79 512.16
  Q 307.39 512.76 310.40 512.62
  Q 310.86 523.50 310.86 534.25
  Q 310.86 536.95 310.15 538.96
  C 308.97 542.30 301.75 541.77 299.05 541.43
  L 298.87 526.57
  A 2.78 2.78 0.0 0 0 297.53 524.23
  Q 285.87 517.21 274.57 508.66
  Q 274.36 508.50 274.19 508.21
  Q 274.62 507.10 274.66 505.76
  L 304.47 505.62
  Z"
/>
<path fill="#66392f" d="
  M 273.17 508.33
  Q 282.53 516.79 293.09 523.69
  Q 295.24 525.09 295.30 526.50
  Q 295.63 533.63 295.47 563.58
  C 295.42 574.09 295.65 582.96 295.57 592.29
  A 2.20 2.19 76.5 0 1 294.39 594.22
  L 270.37 606.80
  L 259.96 605.96
  L 288.72 590.43
  A 2.06 2.05 75.9 0 0 289.80 588.62
  L 289.80 530.69
  A 1.29 1.27 -72.4 0 0 289.27 529.65
  C 282.00 524.31 274.97 519.25 269.39 512.89
  A 0.81 0.80 -38.1 0 0 268.33 512.77
  Q 266.41 514.13 263.55 514.77
  Q 249.12 517.97 235.05 513.93
  Q 238.60 512.28 238.70 508.42
  Q 242.56 510.20 246.76 509.72
  Q 250.42 510.46 254.30 509.70
  Q 259.45 510.37 263.10 507.76
  Q 265.42 506.10 266.22 505.86
  C 268.83 505.08 271.17 507.08 273.17 508.33
  Z"
/>
<path fill="#724434" d="
  M 238.70 508.42
  Q 238.60 512.28 235.05 513.93
  Q 232.89 515.65 231.05 517.55
  Q 224.67 524.11 217.78 528.69
  A 1.40 1.39 -16.7 0 0 217.16 529.83
  Q 216.95 559.17 217.22 578.75
  Q 217.35 588.24 217.24 588.50
  Q 216.75 589.67 219.33 591.41
  Q 225.86 595.82 232.33 598.91
  C 239.46 602.31 245.14 605.74 252.53 608.97
  A 1.67 1.65 -46.3 0 0 253.92 608.93
  L 259.96 605.96
  L 270.37 606.80
  Q 262.43 610.89 254.19 614.33
  Q 252.26 615.14 250.29 614.00
  C 245.37 611.16 239.60 609.35 234.64 606.54
  Q 228.07 602.82 217.38 597.62
  Q 214.57 596.25 210.76 592.79
  L 210.76 526.42
  A 3.65 3.64 -15.4 0 1 212.54 523.29
  Q 223.16 516.90 231.00 507.80
  C 232.73 505.79 236.72 507.40 238.70 508.42
  Z"
/>
<path fill="#2d1615" d="
  M 274.19 508.21
  Q 274.36 508.50 274.57 508.66
  Q 285.87 517.21 297.53 524.23
  A 2.78 2.78 0.0 0 1 298.87 526.57
  L 299.05 541.43
  L 299.30 548.94
  L 299.32 563.14
  L 299.21 571.73
  L 298.65 595.77
  A 0.93 0.91 77.0 0 1 298.16 596.57
  L 276.63 608.19
  Q 276.12 608.05 274.41 608.93
  L 255.83 617.80
  A 3.77 3.76 -42.9 0 1 252.32 617.67
  C 248.76 615.64 244.80 614.49 241.27 612.67
  Q 229.99 606.86 226.09 604.90
  C 221.26 602.48 217.20 599.57 212.48 597.51
  A 1.99 1.97 -5.8 0 1 211.65 596.84
  Q 210.50 595.21 210.76 592.79
  Q 214.57 596.25 217.38 597.62
  Q 228.07 602.82 234.64 606.54
  C 239.60 609.35 245.37 611.16 250.29 614.00
  Q 252.26 615.14 254.19 614.33
  Q 262.43 610.89 270.37 606.80
  L 294.39 594.22
  A 2.20 2.19 76.5 0 0 295.57 592.29
  C 295.65 582.96 295.42 574.09 295.47 563.58
  Q 295.63 533.63 295.30 526.50
  Q 295.24 525.09 293.09 523.69
  Q 282.53 516.79 273.17 508.33
  L 274.19 508.21
  Z"
/>
<path fill="#402614" d="
  M 259.96 605.96
  L 253.92 608.93
  A 1.67 1.65 -46.3 0 1 252.53 608.97
  C 245.14 605.74 239.46 602.31 232.33 598.91
  Q 225.86 595.82 219.33 591.41
  Q 216.75 589.67 217.24 588.50
  Q 217.35 588.24 217.22 578.75
  Q 216.95 559.17 217.16 529.83
  A 1.40 1.39 -16.7 0 1 217.78 528.69
  Q 224.67 524.11 231.05 517.55
  Q 232.89 515.65 235.05 513.93
  Q 249.12 517.97 263.55 514.77
  Q 266.41 514.13 268.33 512.77
  A 0.81 0.80 -38.1 0 1 269.39 512.89
  C 274.97 519.25 282.00 524.31 289.27 529.65
  A 1.29 1.27 -72.4 0 1 289.80 530.69
  L 289.80 588.62
  A 2.06 2.05 75.9 0 1 288.72 590.43
  L 259.96 605.96
  Z"
/>
<g stroke-width="2.00" fill="none" stroke-linecap="butt">
<path stroke="#fdd86d" vector-effect="non-scaling-stroke" d="
  M 271.97 548.92
  Q 270.87 549.97 268.13 550.69"
/>
<path stroke="#fbc059" vector-effect="non-scaling-stroke" d="
  M 268.13 550.69
  Q 261.42 552.27 258.03 546.59
  A 1.15 1.15 0.0 0 0 256.45 546.19
  Q 250.18 549.86 244.90 545.99
  A 1.93 1.93 0.0 0 0 242.56 546.04
  L 236.74 550.73"
/>
<path stroke="#fdd86d" vector-effect="non-scaling-stroke" d="
  M 236.74 550.73
  L 232.78 551.53"
/>
<path stroke="#fcb214" vector-effect="non-scaling-stroke" d="
  M 268.13 550.69
  Q 268.04 553.13 268.14 555.41
  Q 268.29 558.74 268.21 560.12
  Q 267.65 569.78 268.13 579.86
  C 268.21 581.41 267.92 583.94 267.58 585.34
  A 3.52 3.51 -88.7 0 1 264.87 587.93
  C 260.74 588.77 254.57 588.17 243.58 587.89
  C 239.51 587.78 237.06 587.34 236.88 582.96
  Q 236.46 572.78 236.70 561.42
  C 236.76 558.60 236.21 554.35 236.74 550.73"
/>
<path stroke="#fed131" vector-effect="non-scaling-stroke" d="
  M 272.96 550.87
  L 273.78 556.99"
/>
<path stroke="#8d6c1b" vector-effect="non-scaling-stroke" d="
  M 273.78 556.99
  Q 272.96 556.91 272.38 557.19
  A 0.83 0.82 -13.4 0 0 271.91 557.95
  L 272.16 570.20"
/>
<path stroke="#fed131" vector-effect="non-scaling-stroke" d="
  M 272.16 570.20
  Q 273.42 573.57 271.94 577.54"
/>
<path stroke="#8d6c1b" vector-effect="non-scaling-stroke" d="
  M 271.94 577.54
  Q 271.80 580.86 271.68 584.33
  Q 271.54 587.88 270.39 589.41
  Q 268.69 591.66 265.76 591.78
  Q 256.38 592.17 241.25 592.13
  Q 236.98 592.12 235.00 590.51"
/>
<path stroke="#8d7325" vector-effect="non-scaling-stroke" d="
  M 283.22 569.80
  Q 280.14 575.86 271.94 577.54"
/>
<path stroke="#8d7325" vector-effect="non-scaling-stroke" d="
  M 272.16 570.20
  Q 275.83 569.35 277.29 566.92
  A 1.81 1.79 -28.9 0 0 277.56 566.01
  L 277.77 559.44
  A 2.09 2.09 0.0 0 0 275.97 557.31
  L 273.78 556.99"
/>
</g>

<path fill="#fce6b2" d="
  M 271.97 548.92
  Q 270.87 549.97 268.13 550.69
  Q 261.42 552.27 258.03 546.59
  A 1.15 1.15 0.0 0 0 256.45 546.19
  Q 250.18 549.86 244.90 545.99
  A 1.93 1.93 0.0 0 0 242.56 546.04
  L 236.74 550.73
  L 232.78 551.53
  Q 226.91 549.24 229.07 543.15
  C 229.66 541.50 231.00 540.39 232.17 539.37
  A 0.78 0.78 0.0 0 0 232.40 538.54
  C 230.95 534.28 232.69 528.66 237.84 528.55
  Q 239.20 528.53 241.46 529.11
  A 1.33 1.32 30.8 0 0 242.69 528.80
  Q 247.51 524.38 254.32 525.99
  C 255.81 526.35 257.47 527.53 258.46 528.03
  A 1.73 1.68 51.5 0 0 259.60 528.18
  Q 260.10 528.07 261.71 527.55
  C 265.17 526.45 268.89 528.47 271.00 531.22
  A 0.68 0.64 21.8 0 1 271.11 531.46
  L 271.71 534.58
  A 1.23 1.20 -77.7 0 0 272.18 535.33
  Q 275.19 537.62 275.52 538.27
  Q 278.17 543.57 273.36 546.86
  Q 272.32 547.58 271.97 548.92
  Z"
/>
<path fill="#fa9a00" d="
  M 268.13 550.69
  Q 268.04 553.13 268.14 555.41
  Q 268.29 558.74 268.21 560.12
  Q 267.65 569.78 268.13 579.86
  C 268.21 581.41 267.92 583.94 267.58 585.34
  A 3.52 3.51 -88.7 0 1 264.87 587.93
  C 260.74 588.77 254.57 588.17 243.58 587.89
  C 239.51 587.78 237.06 587.34 236.88 582.96
  Q 236.46 572.78 236.70 561.42
  C 236.76 558.60 236.21 554.35 236.74 550.73
  L 242.56 546.04
  A 1.93 1.93 0.0 0 1 244.90 545.99
  Q 250.18 549.86 256.45 546.19
  A 1.15 1.15 0.0 0 1 258.03 546.59
  Q 261.42 552.27 268.13 550.69
  Z"
/>
<path fill="#feca27" d="
  M 271.97 548.92
  Q 271.91 550.89 272.96 550.87
  L 273.78 556.99
  Q 272.96 556.91 272.38 557.19
  A 0.83 0.82 -13.4 0 0 271.91 557.95
  L 272.16 570.20
  Q 273.42 573.57 271.94 577.54
  Q 271.80 580.86 271.68 584.33
  Q 271.54 587.88 270.39 589.41
  Q 268.69 591.66 265.76 591.78
  Q 256.38 592.17 241.25 592.13
  Q 236.98 592.12 235.00 590.51
  Q 233.09 588.68 233.05 586.75
  Q 232.86 579.01 232.78 551.53
  L 236.74 550.73
  C 236.21 554.35 236.76 558.60 236.70 561.42
  Q 236.46 572.78 236.88 582.96
  C 237.06 587.34 239.51 587.78 243.58 587.89
  C 254.57 588.17 260.74 588.77 264.87 587.93
  A 3.52 3.51 -88.7 0 0 267.58 585.34
  C 267.92 583.94 268.21 581.41 268.13 579.86
  Q 267.65 569.78 268.21 560.12
  Q 268.29 558.74 268.14 555.41
  Q 268.04 553.13 268.13 550.69
  Q 270.87 549.97 271.97 548.92
  Z"
/>
<path fill="#fed83b" d="
  M 283.22 569.80
  Q 280.14 575.86 271.94 577.54
  Q 273.42 573.57 272.16 570.20
  Q 275.83 569.35 277.29 566.92
  A 1.81 1.79 -28.9 0 0 277.56 566.01
  L 277.77 559.44
  A 2.09 2.09 0.0 0 0 275.97 557.31
  L 273.78 556.99
  L 272.96 550.87
  C 279.71 550.49 284.02 552.28 284.32 559.18
  Q 284.57 565.10 283.22 569.80
  Z"
/>
<path fill="#1c0e0e" d="
  M 273.78 556.99
  L 275.97 557.31
  A 2.09 2.09 0.0 0 1 277.77 559.44
  L 277.56 566.01
  A 1.81 1.79 -28.9 0 1 277.29 566.92
  Q 275.83 569.35 272.16 570.20
  L 271.91 557.95
  A 0.83 0.82 -13.4 0 1 272.38 557.19
  Q 272.96 556.91 273.78 556.99
  Z"
/>
<path fill="#1c0e0e" d="
  M 283.22 569.80
  C 283.61 572.64 282.76 575.33 280.86 577.57
  Q 278.28 580.61 276.98 584.37
  Q 275.23 589.41 274.09 590.59
  C 270.20 594.60 265.06 595.25 259.77 595.23
  Q 251.56 595.19 243.37 594.99
  C 240.08 594.91 235.72 594.17 235.00 590.51
  Q 236.98 592.12 241.25 592.13
  Q 256.38 592.17 265.76 591.78
  Q 268.69 591.66 270.39 589.41
  Q 271.54 587.88 271.68 584.33
  Q 271.80 580.86 271.94 577.54
  Q 280.14 575.86 283.22 569.80
  Z"
/>
<path fill="#ae8762" d="
  M 276.63 608.19
  L 298.16 596.57
  A 0.93 0.91 77.0 0 0 298.65 595.77
  L 299.21 571.73
  Q 302.54 572.27 305.90 572.37
  Q 308.51 572.46 309.58 573.08
  Q 311.35 574.12 311.36 576.24
  Q 311.38 601.66 311.38 601.75
  C 311.50 605.83 310.27 608.57 306.00 608.57
  Q 291.70 608.57 276.63 608.19
  Z"
/>
<path fill="#ae8762" d="
  M 274.37 645.33
  L 274.26 613.42
  L 301.84 613.46
  A 2.07 2.04 -25.3 0 1 303.07 613.89
  Q 304.58 615.10 304.50 616.62
  Q 303.95 626.43 304.13 638.77
  C 304.22 644.50 303.38 645.12 298.19 645.34
  Q 286.51 645.83 274.37 645.33
  Z"
/>
<path fill="#ae8762" d="
  M 297.95 681.81
  L 274.42 681.76
  L 274.52 650.83
  Q 290.92 650.52 307.50 650.71
  C 312.54 650.77 311.75 654.14 311.75 658.36
  Q 311.73 672.76 311.73 676.26
  C 311.72 680.85 309.44 681.80 304.99 681.81
  Q 301.46 681.82 297.95 681.81
  Z"
/>
<path fill="#2c3243" d="
  M 148.32 687.61
  Q 140.09 686.44 131.66 686.56
  Q 118.44 686.74 105.34 686.99
  C 100.61 685.74 102.96 679.56 106.06 678.01
  C 108.77 676.64 113.82 677.13 117.27 677.16
  Q 123.24 677.45 129.37 677.41
  Q 133.46 677.38 137.23 676.66
  Q 140.30 677.15 143.49 677.03
  C 147.54 676.87 151.67 679.34 151.69 683.64
  Q 151.70 686.55 148.32 687.61
  Z"
/>
<path fill="#5b463d" d="
  M 297.95 681.81
  L 302.45 682.12
  A 1.18 1.17 70.4 0 1 303.24 682.50
  Q 306.68 686.18 311.34 687.99
  A 0.10 0.10 0.0 0 1 311.31 688.18
  L 278.79 688.46
  L 273.04 688.43
  Q 275.40 688.55 274.42 681.76
  L 297.95 681.81
  Z"
/>
<path fill="#0f1634" d="
  M 148.32 687.61
  Q 147.54 689.11 148.35 692.15
  L 153.89 746.02
  L 99.57 746.09
  L 105.81 692.27
  Q 107.21 688.52 105.34 686.99
  Q 118.44 686.74 131.66 686.56
  Q 140.09 686.44 148.32 687.61
  Z"
/>
<path fill="#ae8762" d="
  M 273.04 688.43
  L 278.79 688.46
  Q 304.88 688.57 330.96 688.62
  Q 333.69 688.62 334.84 689.45
  Q 336.49 690.65 336.51 693.01
  Q 336.63 713.13 336.54 717.01
  Q 336.49 719.42 334.04 720.29
  L 300.46 720.40
  L 271.23 720.22
  Q 268.64 719.26 268.61 716.75
  Q 268.51 708.53 268.79 691.78
  Q 269.99 688.51 273.04 688.43
  Z"
/>
<path fill="#162b55" d="
  M 268.79 691.78
  Q 268.51 708.53 268.61 716.75
  Q 268.64 719.26 271.23 720.22
  L 274.68 720.84
  A 0.35 0.35 0.0 0 1 274.70 721.52
  L 269.81 722.73
  A 1.58 1.58 0.0 0 0 268.97 723.27
  Q 266.45 726.43 266.53 730.80
  Q 266.70 740.69 266.02 750.58
  L 159.56 750.61
  L 153.89 746.02
  L 148.35 692.15
  Q 206.34 692.33 264.45 692.16
  Q 266.59 692.15 268.79 691.78
  Z"
/>
<path fill="#162b55" d="
  M 105.81 692.27
  L 99.57 746.09
  Q 96.16 746.93 93.16 750.60
  L 0.00 750.64
  L 0.00 692.26
  L 105.81 692.27
  Z"
/>
<path fill="#3f4453" d="
  M 300.46 720.40
  L 292.24 720.84
  A 0.09 0.09 0.0 0 0 292.22 721.02
  C 299.20 722.49 306.52 722.32 313.37 722.90
  C 320.35 723.49 324.94 725.49 325.18 732.93
  Q 325.48 741.95 324.86 751.61
  C 324.61 755.52 323.91 757.57 321.10 760.10
  Q 319.92 761.17 318.95 762.56
  Q 304.11 762.38 273.25 761.23
  Q 269.18 761.08 267.57 758.25
  Q 267.02 757.28 266.80 754.44
  Q 266.65 752.32 266.02 750.58
  Q 266.70 740.69 266.53 730.80
  Q 266.45 726.43 268.97 723.27
  A 1.58 1.58 0.0 0 1 269.81 722.73
  L 274.70 721.52
  A 0.35 0.35 0.0 0 0 274.68 720.84
  L 271.23 720.22
  L 300.46 720.40
  Z"
/>
<path fill="#2c3243" d="
  M 99.57 746.09
  L 153.89 746.02
  L 159.56 750.61
  Q 160.21 753.22 158.63 755.78
  L 94.45 755.93
  L 93.16 750.60
  Q 96.16 746.93 99.57 746.09
  Z"
/>
<path fill="#8f8d89" d="
  M 93.16 750.60
  L 94.45 755.93
  L 91.40 756.40
  A 1.91 1.90 -4.4 0 0 89.78 758.28
  L 89.78 776.15
  A 0.94 0.94 0.0 0 0 90.73 777.09
  Q 126.63 776.91 162.27 776.94
  Q 163.34 776.94 163.24 775.37
  C 165.58 774.68 169.89 773.82 171.42 772.01
  A 2.17 2.17 0.0 0 0 170.87 768.74
  Q 167.22 766.57 163.21 766.63
  L 163.04 757.93
  A 1.71 1.71 0.0 0 0 161.61 756.28
  L 158.63 755.78
  Q 160.21 753.22 159.56 750.61
  L 266.02 750.58
  Q 266.65 752.32 266.80 754.44
  Q 267.02 757.28 267.57 758.25
  Q 269.18 761.08 273.25 761.23
  Q 304.11 762.38 318.95 762.56
  C 331.70 762.49 344.35 763.25 357.07 763.56
  Q 371.24 763.91 385.92 763.65
  Q 408.71 763.26 431.49 762.57
  Q 461.76 762.95 484.00 762.13
  Q 495.72 761.69 498.71 761.72
  Q 527.71 763.14 556.75 762.95
  Q 561.42 762.92 566.00 762.65
  L 578.19 762.63
  L 616.51 763.08
  Q 616.85 764.26 617.58 765.04
  A 1.19 1.16 67.8 0 0 618.43 765.41
  L 760.79 765.89
  L 757.66 818.07
  Q 643.92 818.01 530.25 818.06
  Q 529.75 818.06 529.53 817.25
  L 559.49 765.40
  A 0.15 0.14 14.3 0 0 559.36 765.19
  L 553.12 765.19
  A 0.45 0.45 0.0 0 0 552.73 765.42
  C 543.50 782.50 532.94 799.31 521.82 817.33
  Q 521.60 817.68 521.08 818.02
  L 158.05 817.80
  Q 174.07 806.84 189.01 795.37
  C 193.97 791.56 197.78 789.22 201.90 785.84
  C 209.46 779.64 219.39 773.14 226.76 767.04
  A 2.94 2.39 5.9 0 1 227.22 766.74
  L 230.55 765.09
  A 0.24 0.24 0.0 0 0 230.43 764.64
  L 225.47 764.92
  A 1.07 0.99 23.9 0 0 224.95 765.10
  L 147.24 818.04
  L 0.00 818.03
  L 0.00 750.64
  L 93.16 750.60
  Z"
/>
<path fill="#0f1634" d="
  M 158.63 755.78
  L 161.61 756.28
  A 1.71 1.71 0.0 0 1 163.04 757.93
  L 163.21 766.63
  L 163.24 775.37
  Q 163.34 776.94 162.27 776.94
  Q 126.63 776.91 90.73 777.09
  A 0.94 0.94 0.0 0 1 89.78 776.15
  L 89.78 758.28
  A 1.91 1.90 -4.4 0 1 91.40 756.40
  L 94.45 755.93
  L 158.63 755.78
  Z"
/>
<path fill="#2c3243" d="
  M 158.05 817.80
  Q 156.38 817.66 156.28 819.19
  Q 155.77 826.92 156.20 841.12
  A 1.20 1.19 -72.3 0 0 156.68 842.06
  L 158.58 843.50
  L 147.03 843.64
  L 147.24 818.04
  L 224.95 765.10
  A 1.07 0.99 23.9 0 1 225.47 764.92
  L 230.43 764.64
  A 0.24 0.24 0.0 0 1 230.55 765.09
  L 227.22 766.74
  A 2.94 2.39 5.9 0 0 226.76 767.04
  C 219.39 773.14 209.46 779.64 201.90 785.84
  C 197.78 789.22 193.97 791.56 189.01 795.37
  Q 174.07 806.84 158.05 817.80
  Z"
/>
<path fill="#545e71" d="
  M 163.24 775.37
  L 163.21 766.63
  Q 167.22 766.57 170.87 768.74
  A 2.17 2.17 0.0 0 1 171.42 772.01
  C 169.89 773.82 165.58 774.68 163.24 775.37
  Z"
/>
<path fill="#6d727e" d="
  M 298.96 798.34
  Q 297.93 796.04 299.80 793.27
  C 304.16 786.78 310.67 787.06 317.63 787.63
  Q 338.49 789.35 359.97 790.61
  Q 361.58 790.71 363.79 791.41
  C 367.32 792.54 368.78 795.71 365.45 798.47
  Q 363.65 799.96 361.34 800.25
  A 3.23 2.76 -41.4 0 1 360.69 800.26
  Q 354.88 799.69 353.25 799.80
  Q 334.49 801.05 313.31 801.85
  C 309.53 802.00 300.92 802.76 298.96 798.34
  Z"
/>
<ellipse fill="#545e71" cx="0.00" cy="0.00" transform="translate(290.75,946.47) rotate(-179.9)" rx="54.49" ry="18.24"/>

</svg>