<?xml version="1.0" encoding="UTF-8" standalone="no"?>
<!DOCTYPE svg PUBLIC "-//W3C//DTD SVG 1.1//EN" "http://www.w3.org/Graphics/SVG/1.1/DTD/svg11.dtd">
<svg xmlns="http://www.w3.org/2000/svg" version="1.1" viewBox="0.00 755.19 1378.79 142.92" preserveAspectRatio="none">

<g stroke-width="2.00" fill="none" stroke-linecap="butt">
<path stroke="#5e6066" vector-effect="non-scaling-stroke" d="
  M 760.79 765.89
  L 757.66 818.07"
/>
<path stroke="#67696e" vector-effect="non-scaling-stroke" d="
  M 757.66 818.07
  Q 643.92 818.01 530.25 818.06
  Q 529.75 818.06 529.53 817.25"
/>
<path stroke="#5e6066" vector-effect="non-scaling-stroke" d="
  M 529.53 817.25
  L 559.49 765.40
  A 0.15 0.14 14.3 0 0 559.36 765.19
  L 553.12 765.19
  A 0.45 0.45 0.0 0 0 552.73 765.42
  C 543.50 782.50 532.94 799.31 521.82 817.33
  Q 521.60 817.68 521.08 818.02"
/>
<path stroke="#5e6066" vector-effect="non-scaling-stroke" d="
  M 920.28 818.02
  L 895.24 767.27
  A 2.58 2.55 76.6 0 0 892.95 765.84
  L 890.28 765.84
  A 0.41 0.41 0.0 0 0 889.91 766.43
  L 914.77 818.01"
/>
<path stroke="#67696e" vector-effect="non-scaling-stroke" d="
  M 914.77 818.01
  L 763.38 817.99"
/>
<path stroke="#5e6066" vector-effect="non-scaling-stroke" d="
  M 763.38 817.99
  L 765.42 765.91"
/>
<path stroke="#363b4b" vector-effect="non-scaling-stroke" d="
  M 158.05 817.80
  Q 156.38 817.66 156.28 819.19
  Q 155.77 826.92 156.20 841.12
  A 1.20 1.19 -72.3 0 0 156.68 842.06
  L 158.58 843.50"
/>
<path stroke="#1d2841" vector-effect="non-scaling-stroke" d="
  M 158.58 843.50
  L 147.03 843.64"
/>
<path stroke="#363b4b" vector-effect="non-scaling-stroke" d="
  M 147.03 843.64
  L 147.24 818.04"
/>
<path stroke="#363b4b" vector-effect="non-scaling-stroke" d="
  M 529.53 817.25
  L 529.31 840.86
  A 1.29 1.28 23.9 0 0 529.65 841.73
  L 531.31 843.49"
/>
<path stroke="#1d2841" vector-effect="non-scaling-stroke" d="
  M 531.31 843.49
  L 520.91 843.59"
/>
<path stroke="#363b4b" vector-effect="non-scaling-stroke" d="
  M 520.91 843.59
  Q 521.82 830.84 521.08 818.02"
/>
<path stroke="#363b4b" vector-effect="non-scaling-stroke" d="
  M 920.28 818.02
  L 920.42 843.51"
/>
<path stroke="#1d2841" vector-effect="non-scaling-stroke" d="
  M 920.42 843.51
  L 915.28 843.54"
/>
<path stroke="#363b4b" vector-effect="non-scaling-stroke" d="
  M 915.28 843.54
  Q 916.33 830.04 914.77 818.01"
/>
<path stroke="#363b4b" vector-effect="non-scaling-stroke" d="
  M 763.38 817.99
  L 763.70 843.55"
/>
<path stroke="#1d2841" vector-effect="non-scaling-stroke" d="
  M 763.70 843.55
  L 757.33 843.69"
/>
<path stroke="#363b4b" vector-effect="non-scaling-stroke" d="
  M 757.33 843.69
  L 757.66 818.07"
/>
<path stroke="#273149" vector-effect="non-scaling-stroke" d="
  M 757.33 843.69
  L 531.31 843.49"
/>
<path stroke="#273149" vector-effect="non-scaling-stroke" d="
  M 915.28 843.54
  L 763.70 843.55"
/>
<path stroke="#273149" vector-effect="non-scaling-stroke" d="
  M 520.91 843.59
  L 158.58 843.50"
/>
<path stroke="#273149" vector-effect="non-scaling-stroke" d="
  M 147.03 843.64
  L 0.00 843.65"
/>
<path stroke="#1c2c4c" vector-effect="non-scaling-stroke" d="
  M 964.80 855.66
  C 958.63 855.39 952.77 855.73 946.33 855.23
  Q 942.67 854.94 939.66 854.91
  C 919.17 854.67 899.40 855.32 879.01 855.71
  C 873.26 855.82 864.27 855.14 860.00 855.10
  Q 844.74 854.97 830.55 854.77
  C 823.93 854.68 818.25 855.47 812.33 855.26
  C 803.65 854.94 796.89 855.33 784.51 855.53
  C 780.16 855.60 775.12 855.04 771.50 854.99
  Q 746.76 854.68 725.01 855.76
  Q 719.45 856.04 702.74 855.31
  C 681.73 854.41 662.53 855.03 640.21 855.50
  C 632.21 855.67 624.92 854.68 616.08 854.82
  Q 615.74 854.82 569.25 855.42
  Q 557.66 855.57 543.00 855.07
  Q 536.94 854.87 500.87 855.03
  C 496.63 855.04 488.58 855.62 482.41 855.35
  Q 472.23 854.91 468.58 854.91
  C 454.14 854.90 446.37 854.32 434.63 855.27
  Q 420.99 856.39 408.65 855.43
  Q 402.11 854.92 400.00 854.92
  Q 357.48 854.84 288.23 854.99
  C 279.03 855.01 262.00 855.88 249.82 855.19
  C 239.94 854.63 232.70 855.16 222.52 854.89
  C 215.51 854.70 207.14 855.38 199.46 855.63"
/>
<path stroke="#3e485e" vector-effect="non-scaling-stroke" d="
  M 199.46 855.63
  L 168.29 855.64"
/>
<path stroke="#1c2c4c" vector-effect="non-scaling-stroke" d="
  M 168.29 855.64
  C 163.22 855.56 157.98 854.86 153.22 854.88
  Q 98.67 855.09 72.20 854.86
  Q 66.24 854.81 63.03 855.48"
/>
<path stroke="#3e485e" vector-effect="non-scaling-stroke" d="
  M 63.03 855.48
  L 30.84 855.45"
/>
<path stroke="#1c2c4c" vector-effect="non-scaling-stroke" d="
  M 30.84 855.45
  Q 15.84 854.54 0.00 855.08"
/>
<path stroke="#4b566c" vector-effect="non-scaling-stroke" d="
  M 30.84 855.45
  Q 38.86 868.00 56.17 862.43
  Q 61.94 860.57 63.03 855.48"
/>
<path stroke="#4b566c" vector-effect="non-scaling-stroke" d="
  M 168.29 855.64
  L 164.01 855.72
  A 3.49 3.47 -53.9 0 0 163.07 855.87
  Q 160.94 856.54 156.75 857.48
  C 149.51 859.11 138.65 864.78 146.30 873.79
  A 3.85 3.84 87.1 0 0 147.05 874.47
  Q 153.97 879.14 162.05 880.95
  Q 175.15 883.89 190.00 883.84
  C 199.64 883.82 224.95 881.70 219.21 865.40
  C 217.48 860.49 213.22 858.08 208.20 856.97
  A 2.63 2.54 66.6 0 1 207.34 856.61
  C 205.47 855.39 202.43 855.56 199.46 855.63"
/>
<path stroke="#4b566c" vector-effect="non-scaling-stroke" d="
  M 0.00 887.16
  Q 11.02 886.54 21.62 883.57
  Q 26.23 882.29 29.83 879.86
  C 37.15 874.95 34.30 866.69 27.29 863.66
  Q 14.32 858.05 0.00 858.87"
/>
</g>

<path fill="#2c3243" d="
  M 529.53 817.25
  L 529.31 840.86
  A 1.29 1.28 23.9 0 0 529.65 841.73
  L 531.31 843.49
  L 520.91 843.59
  Q 521.82 830.84 521.08 818.02
  Q 521.60 817.68 521.82 817.33
  C 532.94 799.31 543.50 782.50 552.73 765.42
  A 0.45 0.45 0.0 0 1 553.12 765.19
  L 559.36 765.19
  A 0.15 0.14 14.3 0 1 559.49 765.40
  L 529.53 817.25
  Z"
/>
<path fill="#2c3243" d="
  M 920.28 818.02
  L 920.42 843.51
  L 915.28 843.54
  Q 916.33 830.04 914.77 818.01
  L 889.91 766.43
  A 0.41 0.41 0.0 0 1 890.28 765.84
  L 892.95 765.84
  A 2.58 2.55 76.6 0 1 895.24 767.27
  L 920.28 818.02
  Z"
/>
<path fill="#2c3243" d="
  M 765.42 765.91
  L 763.38 817.99
  L 763.70 843.55
  L 757.33 843.69
  L 757.66 818.07
  L 760.79 765.89
  Q 763.17 766.61 765.42 765.91
  Z"
/>
<path fill="#545e71" d="
  M 433.19 775.56
  C 435.81 777.15 436.55 779.44 433.54 781.26
  Q 430.47 783.10 426.12 783.61
  C 421.29 784.18 412.44 784.11 403.74 784.30
  C 398.87 784.41 392.73 784.19 388.87 781.34
  A 1.81 1.80 9.2 0 1 388.23 780.46
  C 386.71 775.97 392.20 774.78 395.48 774.24
  Q 400.12 773.47 413.51 772.67
  C 420.08 772.28 428.04 772.46 433.19 775.56
  Z"
/>
<path fill="#3f4453" d="
  M 529.53 817.25
  Q 529.75 818.06 530.25 818.06
  Q 643.92 818.01 757.66 818.07
  L 757.33 843.69
  L 531.31 843.49
  L 529.65 841.73
  A 1.29 1.28 23.9 0 1 529.31 840.86
  L 529.53 817.25
  Z"
/>
<path fill="#3f4453" d="
  M 915.28 843.54
  L 763.70 843.55
  L 763.38 817.99
  L 914.77 818.01
  Q 916.33 830.04 915.28 843.54
  Z"
/>
<path fill="#3f4453" d="
  M 158.05 817.80
  L 521.08 818.02
  Q 521.82 830.84 520.91 843.59
  L 158.58 843.50
  L 156.68 842.06
  A 1.20 1.19 -72.3 0 1 156.20 841.12
  Q 155.77 826.92 156.28 819.19
  Q 156.38 817.66 158.05 817.80
  Z"
/>
<path fill="#3f4453" d="
  M 147.24 818.04
  L 147.03 843.64
  L 0.00 843.65
  L 0.00 818.03
  L 147.24 818.04
  Z"
/>
<path stroke="#5c6475" stroke-width="2.00" fill="none" stroke-linecap="butt" vector-effect="non-scaling-stroke" d="
  M 819.05 856.88
  Q 813.53 856.64 808.01 856.38
  C 799.23 855.96 791.91 856.22 783.85 856.05
  Q 782.49 856.02 779.73 856.43
  Q 777.47 856.77 775.59 856.61"
/>
<path fill="#6d727e" d="
  M 63.03 855.48
  Q 61.94 860.57 56.17 862.43
  Q 38.86 868.00 30.84 855.45
  L 63.03 855.48
  Z"
/>
<path fill="#6d727e" d="
  M 199.46 855.63
  C 202.43 855.56 205.47 855.39 207.34 856.61
  A 2.63 2.54 66.6 0 0 208.20 856.97
  C 213.22 858.08 217.48 860.49 219.21 865.40
  C 224.95 881.70 199.64 883.82 190.00 883.84
  Q 175.15 883.89 162.05 880.95
  Q 153.97 879.14 147.05 874.47
  A 3.85 3.84 87.1 0 1 146.30 873.79
  C 138.65 864.78 149.51 859.11 156.75 857.48
  Q 160.94 856.54 163.07 855.87
  A 3.49 3.47 -53.9 0 1 164.01 855.72
  L 168.29 855.64
  L 199.46 855.63
  Z"
/>
<path fill="#4a556b" d="
  M 819.05 856.88
  Q 813.53 856.64 808.01 856.38
  C 799.23 855.96 791.91 856.22 783.85 856.05
  Q 782.49 856.02 779.73 856.43
  Q 777.47 856.77 775.59 856.61
  Q 783.53 855.50 792.05 855.59
  Q 795.57 855.62 802.92 855.32
  Q 811.40 854.97 819.05 856.88
  Z"
/>
<path fill="#6d727e" d="
  M 1298.47 855.85
  L 1331.73 855.85
  A 1.26 1.12 -34.3 0 1 1332.04 855.89
  Q 1337.52 857.26 1339.79 857.72
  C 1343.30 858.44 1346.34 859.92 1349.68 861.57
  C 1357.71 865.53 1358.79 873.30 1350.80 878.29
  Q 1346.10 881.23 1339.00 882.76
  Q 1322.89 886.25 1303.26 884.96
  C 1296.22 884.49 1287.17 881.87 1283.61 875.17
  C 1279.01 866.50 1287.11 859.79 1294.32 857.33
  Q 1296.52 856.58 1297.53 856.07
  A 2.19 2.08 -56.7 0 1 1298.47 855.85
  Z"
/>
<path fill="#545e71" d="
  M 273.85 856.97
  C 276.15 857.80 280.38 858.31 282.88 860.94
  C 285.35 863.54 284.96 868.43 284.76 872.28
  C 284.43 878.53 280.29 880.20 274.52 880.75
  Q 262.27 881.92 249.98 880.85
  C 244.63 880.39 237.72 879.41 234.37 875.43
  Q 230.82 871.23 232.92 866.15
  C 234.53 862.24 243.30 858.12 246.31 857.55
  C 249.40 856.97 253.33 856.14 256.30 856.11
  Q 263.80 856.04 268.33 856.06
  C 269.92 856.07 272.73 856.56 273.85 856.97
  Z"
/>
<path fill="#6d727e" d="
  M 417.40 856.12
  Q 424.05 855.89 429.50 856.17
  C 439.57 856.68 447.35 864.38 443.83 874.86
  C 442.69 878.26 438.90 879.71 435.57 880.33
  Q 422.94 882.69 407.95 884.92
  Q 397.37 886.48 387.34 882.70
  C 381.59 880.54 375.06 874.85 377.77 868.07
  C 381.12 859.66 397.96 858.34 405.94 857.41
  Q 416.87 856.14 417.40 856.12
  Z"
/>
<path fill="#6d727e" d="
  M 497.86 856.87
  C 504.99 857.82 516.30 860.38 519.45 867.29
  C 523.21 875.54 514.80 880.33 507.86 881.87
  Q 492.31 885.33 477.01 883.78
  C 468.54 882.92 455.96 880.73 456.28 870.00
  A 5.02 4.96 54.6 0 1 456.49 868.71
  Q 458.17 863.28 463.48 860.90
  Q 473.16 856.57 481.32 856.20
  Q 488.46 855.88 494.56 856.16
  Q 495.53 856.21 496.99 856.67
  A 4.99 4.36 -28.2 0 0 497.86 856.87
  Z"
/>
<path fill="#6d727e" d="
  M 550.67 856.71
  C 551.85 856.56 554.10 856.08 555.45 856.09
  Q 558.94 856.12 578.24 856.03
  Q 583.66 856.00 587.14 857.00
  C 592.82 858.63 597.49 860.81 600.45 866.09
  C 602.66 870.05 601.59 875.56 597.63 877.87
  C 591.57 881.39 583.32 881.54 576.50 881.50
  Q 564.88 881.43 555.44 881.11
  C 548.85 880.89 542.23 879.81 536.71 876.00
  C 531.78 872.59 531.94 867.13 535.84 863.36
  Q 541.54 857.86 550.67 856.71
  Z"
/>
<path fill="#545e71" d="
  M 641.49 856.09
  Q 646.25 856.22 647.72 856.39
  Q 657.92 857.56 664.44 862.51
  Q 670.82 867.34 667.09 874.93
  Q 666.21 876.74 661.66 878.76
  Q 659.44 879.74 654.97 880.34
  Q 649.56 881.07 640.84 880.84
  Q 632.12 880.62 626.76 879.61
  Q 622.33 878.77 620.16 877.68
  Q 615.73 875.42 614.94 873.57
  Q 611.61 865.79 618.24 861.30
  Q 625.01 856.70 635.25 856.06
  Q 636.73 855.97 641.49 856.09
  Z"
/>
<path fill="#6d727e" d="
  M 702.39 856.31
  Q 704.03 856.14 719.65 856.00
  Q 727.01 855.93 731.73 857.10
  C 737.97 858.64 747.98 862.03 750.75 868.09
  C 752.32 871.52 749.76 876.49 747.39 878.25
  C 736.74 886.14 722.36 888.00 708.96 888.06
  Q 696.38 888.11 687.91 883.67
  C 678.95 878.98 676.61 865.55 687.02 860.49
  Q 693.82 857.19 702.39 856.31
  Z"
/>
<path fill="#6d727e" d="
  M 819.05 856.88
  Q 826.00 858.51 831.09 860.42
  C 838.30 863.11 841.70 871.88 834.87 877.38
  Q 827.18 883.56 817.28 885.05
  Q 799.55 887.73 782.33 883.67
  C 775.78 882.13 766.22 878.10 763.83 871.39
  C 762.30 867.11 764.64 861.82 768.49 859.74
  Q 769.86 859.00 775.59 856.61
  Q 777.47 856.77 779.73 856.43
  Q 782.49 856.02 783.85 856.05
  C 791.91 856.22 799.23 855.96 808.01 856.38
  Q 813.53 856.64 819.05 856.88
  Z"
/>
<path fill="#545e71" d="
  M 868.02 856.16
  C 876.31 855.83 886.24 856.29 895.99 855.98
  Q 900.82 855.82 902.79 856.45
  C 907.93 858.08 912.37 858.65 917.38 861.77
  C 920.91 863.98 923.25 868.13 922.33 872.28
  C 918.98 887.50 888.78 882.95 877.87 881.72
  Q 865.49 880.31 855.90 873.96
  Q 850.54 870.41 852.62 865.12
  C 854.14 861.27 859.10 858.73 862.96 857.63
  Q 866.98 856.48 867.14 856.40
  A 2.07 2.02 29.0 0 1 868.02 856.16
  Z"
/>
<path fill="#6d727e" d="
  M 1157.05 856.39
  Q 1163.34 856.41 1167.03 856.58
  Q 1169.71 856.70 1176.04 858.42
  C 1180.92 859.74 1187.57 863.13 1189.56 868.06
  C 1192.23 874.67 1185.28 879.72 1179.97 881.53
  C 1172.61 884.03 1165.54 884.46 1156.97 884.43
  C 1148.39 884.41 1141.32 883.94 1133.97 881.39
  C 1128.68 879.55 1121.76 874.46 1124.47 867.86
  C 1126.49 862.95 1133.16 859.60 1138.05 858.31
  Q 1144.39 856.62 1147.07 856.52
  Q 1150.76 856.37 1157.05 856.39
  Z"
/>
<path fill="#4a556b" d="
  M 125.96 862.00
  C 131.94 865.29 134.24 872.59 127.86 877.38
  Q 124.54 879.88 120.81 881.04
  C 114.95 882.86 110.60 884.40 104.99 885.18
  Q 92.55 886.91 81.60 886.58
  C 75.70 886.41 58.52 884.29 58.10 876.47
  Q 57.86 871.79 61.26 868.73
  Q 65.16 865.24 69.27 863.77
  Q 88.80 856.83 109.22 857.73
  Q 119.01 858.16 125.96 862.00
  Z"
/>
<path fill="#545e71" d="
  M 363.65 872.51
  C 363.29 883.72 348.91 885.40 339.76 885.35
  Q 328.75 885.30 318.54 883.96
  C 312.30 883.14 295.34 879.21 295.63 870.31
  C 295.92 861.41 313.09 858.59 319.37 858.17
  Q 329.65 857.49 340.63 858.14
  C 349.77 858.69 364.01 861.30 363.65 872.51
  Z"
/>
<path fill="#6d727e" d="
  M 0.00 887.16
  L 0.00 858.87
  Q 14.32 858.05 27.29 863.66
  C 34.30 866.69 37.15 874.95 29.83 879.86
  Q 26.23 882.29 21.62 883.57
  Q 11.02 886.54 0.00 887.16
  Z"
/>

</svg>