<?xml version="1.0" encoding="UTF-8" standalone="no"?>
<!DOCTYPE svg PUBLIC "-//W3C//DTD SVG 1.1//EN" "http://www.w3.org/Graphics/SVG/1.1/DTD/svg11.dtd">
<svg xmlns="http://www.w3.org/2000/svg" version="1.1" viewBox="0.00 0.00 1536.00 1024.00" preserveAspectRatio="none">

<g stroke-width="2.00" fill="none" stroke-linecap="butt">
<path stroke="#2f333d" vector-effect="non-scaling-stroke" d="
  M 859.46 775.69
  Q 859.98 777.37 861.00 777.36
  Q 875.64 777.15 915.83 777.54"
/>
<path stroke="#10172a" vector-effect="non-scaling-stroke" d="
  M 915.83 777.54
  Q 919.10 780.72 925.69 778.64"
/>
<path stroke="#46474c" vector-effect="non-scaling-stroke" d="
  M 1012.30 778.88
  C 1014.98 782.34 1016.50 785.04 1015.47 789.41
  A 0.66 0.66 0.0 0 1 1014.83 789.92
  L 674.78 790.19"
/>
<path stroke="#2a303e" vector-effect="non-scaling-stroke" d="
  M 674.78 790.19
  L 664.87 790.20"
/>
<path stroke="#626364" vector-effect="non-scaling-stroke" d="
  M 911.15 824.91
  L 895.62 792.33
  A 0.53 0.52 -12.2 0 0 895.14 792.03
  L 885.46 792.03
  A 0.21 0.20 -12.5 0 0 885.27 792.32
  L 900.87 824.89"
/>
<path stroke="#918b80" vector-effect="non-scaling-stroke" d="
  M 900.87 824.89
  L 815.28 824.98"
/>
<path stroke="#7b6e65" vector-effect="non-scaling-stroke" d="
  M 815.28 824.98
  L 805.39 826.69"
/>
<path stroke="#918b80" vector-effect="non-scaling-stroke" d="
  M 805.39 826.69
  Q 805.40 825.85 804.87 825.85
  Q 774.37 825.76 674.74 825.86"
/>
<path stroke="#626364" vector-effect="non-scaling-stroke" d="
  M 674.74 825.86
  L 674.78 790.19"
/>
<path stroke="#626364" vector-effect="non-scaling-stroke" d="
  M 664.87 790.20
  L 664.85 825.67"
/>
<path stroke="#918b80" vector-effect="non-scaling-stroke" d="
  M 664.85 825.67
  L 264.70 825.09"
/>
<path stroke="#918b80" vector-effect="non-scaling-stroke" d="
  M 254.59 825.03
  L 98.12 825.17"
/>
<path stroke="#918b80" vector-effect="non-scaling-stroke" d="
  M 85.03 824.99
  L 0.00 825.14"
/>
<path stroke="#757471" vector-effect="non-scaling-stroke" d="
  M 674.74 825.86
  L 664.85 825.67"
/>
<path stroke="#757471" vector-effect="non-scaling-stroke" d="
  M 911.15 824.91
  L 900.87 824.89"
/>
<path stroke="#757471" vector-effect="non-scaling-stroke" d="
  M 98.12 825.17
  L 85.03 824.99"
/>
<path stroke="#757471" vector-effect="non-scaling-stroke" d="
  M 264.70 825.09
  L 254.59 825.03"
/>
<path stroke="#8e8072" vector-effect="non-scaling-stroke" d="
  M 809.95 836.16
  Q 809.79 835.39 810.51 835.00
  C 814.72 832.74 815.25 830.14 815.28 824.98"
/>
<path stroke="#8e8072" vector-effect="non-scaling-stroke" d="
  M 805.39 826.69
  Q 805.22 830.04 805.96 833.06
  C 806.51 835.26 808.03 834.32 808.91 835.41
  Q 809.19 835.76 809.21 836.27"
/>
<path stroke="#5b5b5e" vector-effect="non-scaling-stroke" d="
  M 809.21 836.27
  L 0.00 836.29"
/>
<path stroke="#453f43" vector-effect="non-scaling-stroke" d="
  M 809.95 836.16
  L 809.21 836.27"
/>
<path stroke="#445875" vector-effect="non-scaling-stroke" d="
  M 0.00 911.41
  C 9.85 912.22 20.24 911.66 28.90 906.46
  C 34.04 903.37 37.88 897.08 32.14 892.33
  Q 27.08 888.14 20.14 886.97
  Q 10.12 885.28 0.00 886.12"
/>
</g>

<path fill="#6e7378" d="
  M 0.00 911.41
  L 0.00 886.12
  Q 10.12 885.28 20.14 886.97
  Q 27.08 888.14 32.14 892.33
  C 37.88 897.08 34.04 903.37 28.90 906.46
  C 20.24 911.66 9.85 912.22 0.00 911.41
  Z"
/>
<path fill="#464c55" d="
  M 427.92 825.02
  A 0.14 0.13 14.3 0 1 427.80 824.82
  L 443.71 793.17
  A 2.16 2.16 0.0 0 1 445.63 791.97
  L 453.81 791.86
  A 0.97 0.96 13.4 0 1 454.68 793.27
  L 438.15 824.72
  A 0.52 0.51 13.4 0 1 437.72 824.98
  L 427.92 825.02
  Z"
/>

</svg>