<?xml version="1.0" encoding="UTF-8" standalone="no"?>
<!DOCTYPE svg PUBLIC "-//W3C//DTD SVG 1.1//EN" "http://www.w3.org/Graphics/SVG/1.1/DTD/svg11.dtd">
<svg xmlns="http://www.w3.org/2000/svg" version="1.1" viewBox="0.00 0.00 1536.00 1024.00">

<g stroke-width="2.00" fill="none" stroke-linecap="butt">
<path stroke="#2f333d" vector-effect="non-scaling-stroke" d="
  M 859.46 775.69
  Q 859.98 777.37 861.00 777.36
  Q 875.64 777.15 915.83 777.54"
/>
<path stroke="#10172a" vector-effect="non-scaling-stroke" d="
  M 915.83 777.54
  Q 919.10 780.72 925.69 778.64"
/>
<path stroke="#46474c" vector-effect="non-scaling-stroke" d="
  M 1012.30 778.88
  C 1014.98 782.34 1016.50 785.04 1015.47 789.41
  A 0.66 0.66 0.0 0 1 1014.83 789.92
  L 674.78 790.19"
/>
<path stroke="#2a303e" vector-effect="non-scaling-stroke" d="
  M 674.78 790.19
  L 664.87 790.20"
/>
<path stroke="#626364" vector-effect="non-scaling-stroke" d="
  M 911.15 824.91
  L 895.62 792.33
  A 0.53 0.52 -12.2 0 0 895.14 792.03
  L 885.46 792.03
  A 0.21 0.20 -12.5 0 0 885.27 792.32
  L 900.87 824.89"
/>
<path stroke="#918b80" vector-effect="non-scaling-stroke" d="
  M 900.87 824.89
  L 815.28 824.98"
/>
<path stroke="#7b6e65" vector-effect="non-scaling-stroke" d="
  M 815.28 824.98
  L 805.39 826.69"
/>
<path stroke="#918b80" vector-effect="non-scaling-stroke" d="
  M 805.39 826.69
  Q 805.40 825.85 804.87 825.85
  Q 774.37 825.76 674.74 825.86"
/>
<path stroke="#626364" vector-effect="non-scaling-stroke" d="
  M 674.74 825.86
  L 674.78 790.19"
/>
<path stroke="#626364" vector-effect="non-scaling-stroke" d="
  M 664.87 790.20
  L 664.85 825.67"
/>
<path stroke="#918b80" vector-effect="non-scaling-stroke" d="
  M 664.85 825.67
  L 264.70 825.09"
/>
<path stroke="#918b80" vector-effect="non-scaling-stroke" d="
  M 254.59 825.03
  L 98.12 825.17"
/>
<path stroke="#918b80" vector-effect="non-scaling-stroke" d="
  M 85.03 824.99
  L 0.00 825.14"
/>
<path stroke="#757471" vector-effect="non-scaling-stroke" d="
  M 674.74 825.86
  L 664.85 825.67"
/>
<path stroke="#757471" vector-effect="non-scaling-stroke" d="
  M 911.15 824.91
  L 900.87 824.89"
/>
<path stroke="#757471" vector-effect="non-scaling-stroke" d="
  M 98.12 825.17
  L 85.03 824.99"
/>
<path stroke="#757471" vector-effect="non-scaling-stroke" d="
  M 264.70 825.09
  L 254.59 825.03"
/>
<path stroke="#8e8072" vector-effect="non-scaling-stroke" d="
  M 809.95 836.16
  Q 809.79 835.39 810.51 835.00
  C 814.72 832.74 815.25 830.14 815.28 824.98"
/>
<path stroke="#8e8072" vector-effect="non-scaling-stroke" d="
  M 805.39 826.69
  Q 805.22 830.04 805.96 833.06
  C 806.51 835.26 808.03 834.32 808.91 835.41
  Q 809.19 835.76 809.21 836.27"
/>
<path stroke="#5b5b5e" vector-effect="non-scaling-stroke" d="
  M 809.21 836.27
  L 0.00 836.29"
/>
<path stroke="#453f43" vector-effect="non-scaling-stroke" d="
  M 809.95 836.16
  L 809.21 836.27"
/>
<path stroke="#445875" vector-effect="non-scaling-stroke" d="
  M 0.00 911.41
  C 9.85 912.22 20.24 911.66 28.90 906.46
  C 34.04 903.37 37.88 897.08 32.14 892.33
  Q 27.08 888.14 20.14 886.97
  Q 10.12 885.28 0.00 886.12"
/>
</g>

<path d="
  M 1015.72 753.57
  C 1017.50 755.85 1019.79 756.73 1021.39 758.37
  A 0.97 0.97 0.0 0 1 1021.66 759.21
  Q 1020.41 766.52 1022.90 772.54
  A 4.35 4.33 -45.3 0 1 1022.91 775.81
  C 1020.72 781.26 1019.71 787.28 1016.64 792.04
  Q 1012.75 798.07 1007.81 801.26
  Q 1006.65 802.00 1006.17 804.74
  C 1005.57 808.20 1007.53 810.12 1010.96 810.41
  Q 1016.72 810.89 1020.39 807.86
  Q 1027.13 802.28 1035.99 790.44
  A 1.44 1.44 0.0 0 1 1037.56 789.92
  L 1039.42 790.47
  A 2.08 2.07 -2.4 0 1 1040.74 791.68
  Q 1043.08 797.56 1043.36 803.46
  A 2.06 1.98 -33.3 0 1 1043.13 804.47
  C 1041.99 806.57 1040.38 808.24 1040.64 811.21
  Q 1040.98 815.19 1044.97 815.04
  Q 1049.23 814.87 1051.42 814.77
  A 3.17 3.12 -58.9 0 0 1052.64 814.46
  Q 1056.56 812.55 1056.77 807.51
  Q 1057.02 801.53 1056.87 791.31
  A 0.96 0.96 0.0 0 1 1057.76 790.34
  L 1066.96 789.67
  L 1078.76 789.89
  Q 1080.74 794.75 1081.54 799.24
  Q 1081.80 800.73 1081.54 802.54
  A 2.04 2.03 74.8 0 1 1080.78 803.87
  C 1077.24 806.60 1073.53 809.27 1076.68 814.21
  A 1.56 1.53 -11.5 0 0 1077.73 814.89
  C 1083.82 815.86 1087.79 816.34 1092.10 811.69
  A 3.48 3.45 -12.5 0 0 1092.77 810.65
  Q 1096.13 802.48 1095.81 793.06
  A 0.41 0.41 0.0 0 1 1096.40 792.68
  C 1101.19 795.02 1108.45 798.59 1107.62 804.90
  C 1107.14 808.55 1105.15 811.76 1108.79 814.54
  A 1.84 1.76 -23.1 0 0 1109.75 814.90
  C 1115.08 815.28 1119.79 814.49 1120.20 808.22
  Q 1120.57 802.65 1119.68 793.59
  A 3.60 3.46 -59.9 0 0 1119.44 792.61
  Q 1118.47 790.07 1119.53 789.93
  L 1151.64 789.95
  Q 1151.50 791.62 1147.73 792.19
  Q 1139.91 793.38 1137.70 793.46
  C 1133.13 793.64 1130.67 795.15 1129.66 799.40
  Q 1128.34 804.97 1132.58 808.29
  A 1.78 1.65 69.8 0 0 1133.17 808.59
  L 1138.06 809.94
  Q 1141.88 817.63 1147.76 824.80
  L 911.15 824.91
  L 895.62 792.33
  A 0.53 0.52 -12.2 0 0 895.14 792.03
  L 885.46 792.03
  A 0.21 0.20 -12.5 0 0 885.27 792.32
  L 900.87 824.89
  L 815.28 824.98
  L 805.39 826.69
  Q 805.40 825.85 804.87 825.85
  Q 774.37 825.76 674.74 825.86
  L 674.78 790.19
  L 1014.83 789.92
  A 0.66 0.66 0.0 0 0 1015.47 789.41
  C 1016.50 785.04 1014.98 782.34 1012.30 778.88
  C 1010.24 774.32 1007.88 770.37 1007.63 765.26
  Q 1007.34 759.46 1008.52 754.05
  Q 1012.61 753.03 1015.72 753.57
  Z"
/>
<path fill="#6e7378" d="
  M 0.00 911.41
  L 0.00 886.12
  Q 10.12 885.28 20.14 886.97
  Q 27.08 888.14 32.14 892.33
  C 37.88 897.08 34.04 903.37 28.90 906.46
  C 20.24 911.66 9.85 912.22 0.00 911.41
  Z"
/>
<path d="
  M 85.03 824.99
  L 98.12 825.17
  L 254.59 825.03
  L 264.70 825.09
  L 664.85 825.67
  L 674.74 825.86
  Q 774.37 825.76 804.87 825.85
  Q 805.40 825.85 805.39 826.69
  Q 805.22 830.04 805.96 833.06
  C 806.51 835.26 808.03 834.32 808.91 835.41
  Q 809.19 835.76 809.21 836.27
  L 0.00 836.29
  L 0.00 825.14
  L 85.03 824.99
  Z"
/>
<path d="
  M 815.28 824.98
  C 815.25 830.14 814.72 832.74 810.51 835.00
  Q 809.79 835.39 809.95 836.16
  L 809.21 836.27
  Q 809.19 835.76 808.91 835.41
  C 808.03 834.32 806.51 835.26 805.96 833.06
  Q 805.22 830.04 805.39 826.69
  L 815.28 824.98
  Z"
/>
<path d="
  M 674.78 790.19
  L 674.74 825.86
  L 664.85 825.67
  L 664.87 790.20
  L 674.78 790.19
  Z"
/>
<path d="
  M 911.15 824.91
  L 900.87 824.89
  L 885.27 792.32
  A 0.21 0.20 -12.5 0 1 885.46 792.03
  L 895.14 792.03
  A 0.53 0.52 -12.2 0 1 895.62 792.33
  L 911.15 824.91
  Z"
/>
<path d="
  M 1449.47 887.06
  C 1447.59 891.61 1439.47 893.69 1435.32 894.58
  Q 1419.24 898.05 1404.26 896.74
  C 1398.58 896.24 1389.02 894.68 1387.52 888.13
  Q 1386.83 885.13 1388.71 882.67
  C 1391.70 878.76 1397.93 878.05 1402.52 878.06
  Q 1428.88 878.17 1437.25 879.26
  C 1440.97 879.74 1445.72 880.54 1448.69 883.39
  A 3.33 3.33 0.0 0 1 1449.47 887.06
  Z"
/>
<path d="
  M 891.67 903.44
  C 880.86 903.52 870.33 903.09 860.06 899.65
  C 852.42 897.10 848.10 889.79 857.59 885.14
  C 867.34 880.36 879.73 879.93 891.50 879.84
  C 903.27 879.76 915.67 880.02 925.48 884.66
  C 935.04 889.18 930.82 896.55 923.22 899.20
  C 912.99 902.79 902.48 903.37 891.67 903.44
  Z"
/>
<path d="
  M 1248.02 892.67
  C 1242.69 888.91 1245.78 884.15 1250.75 882.50
  Q 1257.96 880.10 1268.03 880.10
  Q 1292.52 880.09 1294.04 880.13
  C 1299.80 880.26 1307.07 881.04 1306.05 889.01
  Q 1305.41 894.05 1301.02 895.27
  C 1295.15 896.91 1290.48 897.11 1283.61 897.34
  Q 1267.77 897.87 1253.99 895.06
  Q 1250.36 894.32 1248.02 892.67
  Z"
/>
<path d="
  M 1014.97 890.85
  Q 1014.94 894.63 1012.09 896.15
  Q 1004.46 900.21 995.23 900.34
  Q 976.57 900.61 966.25 900.22
  C 958.76 899.93 950.98 899.58 944.46 896.34
  C 940.44 894.34 938.09 889.82 941.52 886.03
  C 946.36 880.66 956.51 880.38 963.50 880.53
  Q 985.31 880.99 1005.91 885.08
  Q 1010.78 886.04 1014.48 889.68
  A 1.60 1.59 22.4 0 1 1014.97 890.85
  Z"
/>
<path d="
  M 1145.99 895.37
  C 1146.44 903.67 1136.50 905.33 1130.42 905.31
  Q 1108.40 905.21 1105.11 905.18
  C 1099.83 905.14 1096.55 904.61 1091.87 903.12
  C 1088.11 901.92 1085.13 898.55 1087.23 894.47
  C 1090.60 887.91 1102.11 886.01 1108.51 885.68
  C 1120.32 885.08 1132.61 884.36 1142.73 890.34
  Q 1144.03 891.11 1145.65 894.18
  A 2.93 2.89 29.5 0 1 1145.99 895.37
  Z"
/>
<path d="
  M 306.33 894.71
  C 306.27 902.63 291.01 903.26 285.76 903.25
  C 277.75 903.25 245.11 903.53 245.19 894.20
  C 245.26 884.87 277.89 885.69 285.90 885.82
  C 291.15 885.91 306.40 886.79 306.33 894.71
  Z"
/>
<path d="
  M 1510.72 897.77
  C 1510.74 902.43 1503.33 904.83 1499.51 905.17
  C 1493.22 905.72 1458.67 907.94 1458.62 898.06
  C 1458.57 888.18 1493.13 890.02 1499.43 890.50
  C 1503.26 890.80 1510.69 893.12 1510.72 897.77
  Z"
/>
<path d="
  M 532.95 888.97
  C 534.17 895.25 517.67 897.45 514.02 897.87
  Q 502.04 899.23 490.01 898.68
  C 485.67 898.47 477.70 898.76 475.18 894.33
  C 473.29 891.00 475.68 887.06 478.53 885.26
  Q 480.99 883.70 484.83 883.37
  Q 492.67 882.69 505.50 882.75
  Q 517.39 882.80 524.06 883.98
  C 527.41 884.57 532.12 884.71 532.95 888.97
  Z"
/>
<path d="
  M 433.27 883.06
  C 442.22 883.03 452.34 883.05 460.35 887.89
  C 464.51 890.41 465.64 895.73 461.64 898.88
  C 454.94 904.17 442.12 902.84 433.32 902.87
  C 424.53 902.89 411.72 904.29 404.99 899.04
  C 400.97 895.91 402.07 890.58 406.22 888.04
  C 414.20 883.15 424.32 883.08 433.27 883.06
  Z"
/>
<path d="
  M 628.91 890.25
  C 629.71 897.44 619.37 903.37 613.58 904.83
  Q 602.26 907.71 590.24 905.68
  C 586.30 905.02 578.39 902.66 576.81 898.38
  C 573.97 890.70 587.49 886.24 592.32 885.36
  C 599.81 884.01 624.32 880.07 628.64 889.27
  A 3.06 2.94 30.7 0 1 628.91 890.25
  Z"
/>
<path d="
  M 699.02 891.41
  Q 699.30 894.65 696.80 896.05
  Q 688.76 900.57 678.99 901.63
  Q 668.36 902.78 655.32 902.35
  C 648.76 902.14 638.02 899.57 642.84 890.47
  A 2.73 2.71 83.0 0 1 643.44 889.70
  Q 647.88 885.71 654.24 885.22
  Q 670.35 883.98 687.02 886.22
  C 691.18 886.78 696.11 887.60 698.59 890.42
  A 1.76 1.70 22.5 0 1 699.02 891.41
  Z"
/>
<path d="
  M 45.99 882.49
  C 47.50 874.47 60.54 872.51 67.59 872.65
  Q 76.09 872.82 83.74 873.55
  Q 93.01 874.43 103.50 877.99
  Q 106.35 878.96 107.71 881.37
  A 2.96 2.47 -38.2 0 1 107.02 884.62
  C 103.53 888.01 94.28 888.73 89.98 888.88
  Q 79.47 889.23 64.00 889.20
  C 58.89 889.19 47.48 889.48 46.02 883.53
  A 2.44 2.38 44.2 0 1 45.99 882.49
  Z"
/>
<path d="
  M 226.06 894.19
  C 224.80 900.63 212.73 902.18 207.25 902.25
  Q 187.60 902.47 183.25 902.29
  C 178.65 902.10 167.87 899.77 170.25 892.68
  Q 171.94 887.68 177.68 885.59
  Q 186.20 882.49 196.24 882.73
  Q 206.82 882.99 212.25 884.02
  C 216.19 884.77 227.21 888.28 226.06 894.19
  Z"
/>
<path d="
  M 788.20 891.94
  C 786.64 898.11 775.11 900.72 769.98 901.21
  Q 754.09 902.73 738.91 897.91
  C 735.49 896.83 730.88 894.93 730.46 891.00
  C 730.02 886.74 737.30 884.57 740.76 884.26
  Q 753.86 883.10 767.75 883.84
  Q 774.90 884.22 780.74 885.99
  C 783.06 886.69 788.95 888.98 788.20 891.94
  Z"
/>
<path d="
  M 157.14 893.23
  A 2.37 2.36 26.8 0 1 157.67 894.83
  C 157.38 901.84 150.89 904.12 144.76 904.13
  C 131.90 904.15 126.46 904.75 116.87 902.66
  C 113.75 901.99 109.93 900.54 107.99 897.76
  C 104.53 892.80 114.08 889.48 116.98 889.14
  Q 132.61 887.29 147.68 888.35
  Q 153.59 888.76 157.14 893.23
  Z"
/>
<path fill="#464c55" d="
  M 427.92 825.02
  A 0.14 0.13 14.3 0 1 427.80 824.82
  L 443.71 793.17
  A 2.16 2.16 0.0 0 1 445.63 791.97
  L 453.81 791.86
  A 0.97 0.96 13.4 0 1 454.68 793.27
  L 438.15 824.72
  A 0.52 0.51 13.4 0 1 437.72 824.98
  L 427.92 825.02
  Z"
/>

</svg>