<?xml version="1.0" encoding="UTF-8" standalone="no"?>
<!DOCTYPE svg PUBLIC "-//W3C//DTD SVG 1.1//EN" "http://www.w3.org/Graphics/SVG/1.1/DTD/svg11.dtd">
<svg xmlns="http://www.w3.org/2000/svg" version="1.1" viewBox="0.00 0.00 1536.00 1024.00">

<g stroke-width="2.00" fill="none" stroke-linecap="butt">
<path stroke="#224c8c" vector-effect="non-scaling-stroke" d="
  M 1281.01 121.39
  L 1394.69 120.75
  A 0.32 0.32 0.0 0 0 1394.78 120.13
  Q 1392.28 119.36 1387.91 117.81
  Q 1378.62 114.51 1370.99 106.67
  A 0.25 0.25 0.0 0 1 1371.23 106.25
  C 1372.83 106.60 1374.21 107.85 1376.23 108.24
  Q 1396.24 112.10 1411.74 110.97
  Q 1426.44 109.90 1444.30 105.93
  C 1464.01 101.56 1483.78 95.34 1502.44 86.46
  A 0.42 0.42 0.0 0 0 1502.32 85.67
  L 1458.21 79.70
  A 1.28 1.28 0.0 0 1 1457.20 77.95
  C 1460.96 68.70 1458.12 60.67 1447.48 59.19
  Q 1436.23 57.62 1425.61 61.77
  A 0.76 0.75 62.3 0 1 1424.71 61.48
  Q 1419.47 53.79 1413.27 47.87"
/>
<path stroke="#3d6193" vector-effect="non-scaling-stroke" d="
  M 1413.27 47.87
  Q 1395.19 34.01 1372.73 38.02
  Q 1360.22 40.25 1350.13 46.90
  C 1346.50 49.30 1342.61 51.76 1339.71 54.46
  A 0.38 0.38 0.0 0 1 1339.08 54.28
  C 1328.66 14.48 1283.63 16.34 1255.69 33.44
  Q 1240.31 42.85 1231.34 57.58
  Q 1229.20 61.09 1228.17 63.82"
/>
<path stroke="#8999ae" vector-effect="non-scaling-stroke" d="
  M 1228.17 63.82
  Q 1205.60 53.32 1182.00 54.03
  Q 1128.72 55.64 1097.59 99.21"
/>
<path stroke="#2c548f" vector-effect="non-scaling-stroke" d="
  M 440.69 145.21
  Q 445.65 147.57 450.77 147.87
  C 461.26 148.48 466.51 140.05 467.19 130.72
  A 0.50 0.50 0.0 0 1 467.96 130.34
  Q 471.80 132.83 476.23 134.01
  Q 490.03 137.68 503.88 135.17
  C 514.86 133.18 525.02 126.38 524.82 114.01
  Q 524.73 108.66 522.61 103.88
  A 0.32 0.32 0.0 0 1 523.02 103.45
  Q 533.95 107.79 543.92 100.40
  A 0.92 0.91 -38.3 0 1 545.16 100.54
  Q 554.03 111.00 567.67 110.33
  C 579.35 109.75 589.50 101.79 590.84 89.75
  A 0.56 0.55 5.3 0 1 591.44 89.26
  C 597.83 89.74 603.53 89.17 605.53 82.28
  A 1.17 1.17 0.0 0 1 606.48 81.45
  C 615.41 80.03 617.49 69.43 613.90 62.52
  Q 612.99 60.79 611.49 57.43
  Q 608.00 49.63 598.97 48.62"
/>
<path stroke="#4e6e99" vector-effect="non-scaling-stroke" d="
  M 598.97 48.62
  Q 594.25 47.95 590.20 49.74
  A 0.65 0.64 -22.2 0 1 589.34 49.38
  C 585.01 38.29 575.70 33.62 564.18 34.91
  Q 557.82 35.63 556.23 36.21
  Q 550.94 38.16 546.36 42.68
  A 0.64 0.63 -42.9 0 1 545.44 42.65
  Q 538.34 34.56 527.90 31.21
  C 514.56 26.93 499.46 31.94 492.48 44.11
  Q 485.05 57.09 491.57 71.10
  A 0.17 0.17 0.0 0 1 491.34 71.33
  Q 484.51 68.31 476.52 67.96
  C 462.14 67.33 447.80 73.47 440.18 85.94
  Q 434.56 95.14 438.52 105.09
  A 0.85 0.85 0.0 0 1 438.20 106.11
  C 428.68 112.44 420.35 121.17 412.89 128.64
  Q 412.17 129.35 411.38 130.88"
/>
<path stroke="#4b73a5" vector-effect="non-scaling-stroke" d="
  M 1413.27 47.87
  Q 1396.63 49.12 1381.87 55.34
  Q 1376.54 57.59 1370.54 62.03
  Q 1349.82 77.35 1343.14 101.96
  A 0.96 0.95 7.7 0 1 1342.20 102.67
  Q 1308.84 102.04 1279.04 116.33"
/>
<path stroke="#b2c0c7" vector-effect="non-scaling-stroke" d="
  M 1279.04 116.33
  Q 1269.29 94.13 1251.48 78.52
  Q 1240.98 69.33 1228.17 63.82"
/>
<path stroke="#6688ae" vector-effect="non-scaling-stroke" d="
  M 598.97 48.62
  Q 601.78 52.96 600.48 57.45
  Q 599.90 59.46 597.77 60.41
  Q 596.68 60.90 593.69 60.27
  Q 589.25 59.34 585.34 59.11
  A 0.53 0.53 0.0 0 0 584.79 59.74
  C 586.54 69.16 579.07 75.36 570.24 74.76
  C 563.78 74.33 557.53 69.92 557.43 62.90
  A 0.42 0.42 0.0 0 0 556.73 62.59
  Q 556.53 62.77 556.14 63.38
  C 554.82 65.41 551.82 66.98 549.30 68.00
  A 4.63 4.62 0.6 0 0 546.82 70.42
  L 544.95 74.71
  A 1.56 1.26 85.9 0 1 544.84 74.88
  Q 540.52 80.56 533.83 79.75
  Q 532.70 79.62 528.14 77.91
  Q 520.88 75.19 515.06 81.83
  C 512.79 84.42 513.83 87.86 514.37 91.69
  A 2.25 2.20 -38.6 0 1 514.23 92.82
  C 512.88 96.22 509.71 97.65 505.89 100.00
  A 4.39 4.36 -6.8 0 0 504.02 102.36
  C 500.24 113.93 490.96 121.30 478.55 115.84
  C 472.62 113.23 468.73 106.36 461.55 111.28
  C 457.95 113.75 459.23 117.90 459.62 122.38
  C 459.84 124.90 459.42 128.64 457.49 130.48
  C 454.96 132.90 450.82 133.20 447.84 131.51
  C 445.72 130.31 442.50 128.49 440.19 129.94
  C 436.98 131.96 435.72 136.69 433.96 139.92"
/>
<path stroke="#97abc0" vector-effect="non-scaling-stroke" d="
  M 1281.01 121.39
  L 1279.04 116.33"
/>
</g>

<path d="
  M 1413.27 47.87
  Q 1396.63 49.12 1381.87 55.34
  Q 1376.54 57.59 1370.54 62.03
  Q 1349.82 77.35 1343.14 101.96
  A 0.96 0.95 7.7 0 1 1342.20 102.67
  Q 1308.84 102.04 1279.04 116.33
  Q 1269.29 94.13 1251.48 78.52
  Q 1240.98 69.33 1228.17 63.82
  Q 1229.20 61.09 1231.34 57.58
  Q 1240.31 42.85 1255.69 33.44
  C 1283.63 16.34 1328.66 14.48 1339.08 54.28
  A 0.38 0.38 0.0 0 0 1339.71 54.46
  C 1342.61 51.76 1346.50 49.30 1350.13 46.90
  Q 1360.22 40.25 1372.73 38.02
  Q 1395.19 34.01 1413.27 47.87
  Z"
/>
<path d="
  M 1281.01 121.39
  L 1279.04 116.33
  Q 1308.84 102.04 1342.20 102.67
  A 0.96 0.95 7.7 0 0 1343.14 101.96
  Q 1349.82 77.35 1370.54 62.03
  Q 1376.54 57.59 1381.87 55.34
  Q 1396.63 49.12 1413.27 47.87
  Q 1419.47 53.79 1424.71 61.48
  A 0.76 0.75 62.3 0 0 1425.61 61.77
  Q 1436.23 57.62 1447.48 59.19
  C 1458.12 60.67 1460.96 68.70 1457.20 77.95
  A 1.28 1.28 0.0 0 0 1458.21 79.70
  L 1502.32 85.67
  A 0.42 0.42 0.0 0 1 1502.44 86.46
  C 1483.78 95.34 1464.01 101.56 1444.30 105.93
  Q 1426.44 109.90 1411.74 110.97
  Q 1396.24 112.10 1376.23 108.24
  C 1374.21 107.85 1372.83 106.60 1371.23 106.25
  A 0.25 0.25 0.0 0 0 1370.99 106.67
  Q 1378.62 114.51 1387.91 117.81
  Q 1392.28 119.36 1394.78 120.13
  A 0.32 0.32 0.0 0 1 1394.69 120.75
  L 1281.01 121.39
  Z"
/>
<path d="
  M 598.97 48.62
  Q 601.78 52.96 600.48 57.45
  Q 599.90 59.46 597.77 60.41
  Q 596.68 60.90 593.69 60.27
  Q 589.25 59.34 585.34 59.11
  A 0.53 0.53 0.0 0 0 584.79 59.74
  C 586.54 69.16 579.07 75.36 570.24 74.76
  C 563.78 74.33 557.53 69.92 557.43 62.90
  A 0.42 0.42 0.0 0 0 556.73 62.59
  Q 556.53 62.77 556.14 63.38
  C 554.82 65.41 551.82 66.98 549.30 68.00
  A 4.63 4.62 0.6 0 0 546.82 70.42
  L 544.95 74.71
  A 1.56 1.26 85.9 0 1 544.84 74.88
  Q 540.52 80.56 533.83 79.75
  Q 532.70 79.62 528.14 77.91
  Q 520.88 75.19 515.06 81.83
  C 512.79 84.42 513.83 87.86 514.37 91.69
  A 2.25 2.20 -38.6 0 1 514.23 92.82
  C 512.88 96.22 509.71 97.65 505.89 100.00
  A 4.39 4.36 -6.8 0 0 504.02 102.36
  C 500.24 113.93 490.96 121.30 478.55 115.84
  C 472.62 113.23 468.73 106.36 461.55 111.28
  C 457.95 113.75 459.23 117.90 459.62 122.38
  C 459.84 124.90 459.42 128.64 457.49 130.48
  C 454.96 132.90 450.82 133.20 447.84 131.51
  C 445.72 130.31 442.50 128.49 440.19 129.94
  C 436.98 131.96 435.72 136.69 433.96 139.92
  L 429.39 146.75
  L 429.22 138.12
  L 428.04 135.37
  C 426.45 130.28 416.47 132.52 411.58 131.24
  L 411.38 130.88
  Q 412.17 129.35 412.89 128.64
  C 420.35 121.17 428.68 112.44 438.20 106.11
  A 0.85 0.85 0.0 0 0 438.52 105.09
  Q 434.56 95.14 440.18 85.94
  C 447.80 73.47 462.14 67.33 476.52 67.96
  Q 484.51 68.31 491.34 71.33
  A 0.17 0.17 0.0 0 0 491.57 71.10
  Q 485.05 57.09 492.48 44.11
  C 499.46 31.94 514.56 26.93 527.90 31.21
  Q 538.34 34.56 545.44 42.65
  A 0.64 0.63 -42.9 0 0 546.36 42.68
  Q 550.94 38.16 556.23 36.21
  Q 557.82 35.63 564.18 34.91
  C 575.70 33.62 585.01 38.29 589.34 49.38
  A 0.65 0.64 -22.2 0 0 590.20 49.74
  Q 594.25 47.95 598.97 48.62
  Z"
/>
<path fill="#446ea3" d="
  M 598.97 48.62
  Q 608.00 49.63 611.49 57.43
  Q 612.99 60.79 613.90 62.52
  C 617.49 69.43 615.41 80.03 606.48 81.45
  A 1.17 1.17 0.0 0 0 605.53 82.28
  C 603.53 89.17 597.83 89.74 591.44 89.26
  A 0.56 0.55 5.3 0 0 590.84 89.75
  C 589.50 101.79 579.35 109.75 567.67 110.33
  Q 554.03 111.00 545.16 100.54
  A 0.92 0.91 -38.3 0 0 543.92 100.40
  Q 533.95 107.79 523.02 103.45
  A 0.32 0.32 0.0 0 0 522.61 103.88
  Q 524.73 108.66 524.82 114.01
  C 525.02 126.38 514.86 133.18 503.88 135.17
  Q 490.03 137.68 476.23 134.01
  Q 471.80 132.83 467.96 130.34
  A 0.50 0.50 0.0 0 0 467.19 130.72
  C 466.51 140.05 461.26 148.48 450.77 147.87
  Q 445.65 147.57 440.69 145.21
  L 433.96 139.92
  C 435.72 136.69 436.98 131.96 440.19 129.94
  C 442.50 128.49 445.72 130.31 447.84 131.51
  C 450.82 133.20 454.96 132.90 457.49 130.48
  C 459.42 128.64 459.84 124.90 459.62 122.38
  C 459.23 117.90 457.95 113.75 461.55 111.28
  C 468.73 106.36 472.62 113.23 478.55 115.84
  C 490.96 121.30 500.24 113.93 504.02 102.36
  A 4.39 4.36 -6.8 0 1 505.89 100.00
  C 509.71 97.65 512.88 96.22 514.23 92.82
  A 2.25 2.20 -38.6 0 0 514.37 91.69
  C 513.83 87.86 512.79 84.42 515.06 81.83
  Q 520.88 75.19 528.14 77.91
  Q 532.70 79.62 533.83 79.75
  Q 540.52 80.56 544.84 74.88
  A 1.56 1.26 85.9 0 0 544.95 74.71
  L 546.82 70.42
  A 4.63 4.62 0.6 0 1 549.30 68.00
  C 551.82 66.98 554.82 65.41 556.14 63.38
  Q 556.53 62.77 556.73 62.59
  A 0.42 0.42 0.0 0 1 557.43 62.90
  C 557.53 69.92 563.78 74.33 570.24 74.76
  C 579.07 75.36 586.54 69.16 584.79 59.74
  A 0.53 0.53 0.0 0 1 585.34 59.11
  Q 589.25 59.34 593.69 60.27
  Q 596.68 60.90 597.77 60.41
  Q 599.90 59.46 600.48 57.45
  Q 601.78 52.96 598.97 48.62
  Z"
/>
<path d="
  M 1433.32 218.76
  L 1441.96 221.52
  A 0.34 0.34 0.0 0 1 1441.96 222.17
  L 1433.34 225.00
  A 0.34 0.34 0.0 0 0 1433.12 225.22
  L 1430.36 233.86
  A 0.34 0.34 0.0 0 1 1429.71 233.86
  L 1426.88 225.24
  A 0.34 0.34 0.0 0 0 1426.66 225.02
  L 1418.02 222.26
  A 0.34 0.34 0.0 0 1 1418.02 221.61
  L 1426.64 218.78
  A 0.34 0.34 0.0 0 0 1426.86 218.56
  L 1429.62 209.92
  A 0.34 0.34 0.0 0 1 1430.27 209.92
  L 1433.10 218.54
  A 0.34 0.34 0.0 0 0 1433.32 218.76
  Z"
/>
<path d="
  M 1164.60 113.49
  A 2.59 2.59 0.0 0 0 1161.47 114.58
  Q 1155.34 124.73 1143.81 124.32
  C 1141.84 124.25 1139.76 123.46 1138.57 121.94
  Q 1137.57 120.65 1137.51 120.59
  A 1.50 1.49 -23.4 0 0 1136.49 120.19
  C 1132.26 120.22 1126.21 120.53 1126.27 114.42
  Q 1126.29 113.34 1126.06 112.37
  A 1.70 1.68 13.6 0 0 1125.50 111.47
  C 1119.86 106.76 1122.17 100.26 1126.99 96.01
  A 2.82 2.69 -10.0 0 0 1127.68 95.07
  L 1129.40 91.10
  A 1.35 1.28 -16.8 0 1 1129.52 90.89
  Q 1131.41 88.38 1135.09 87.54
  A 2.21 2.13 17.4 0 0 1136.01 87.08
  C 1136.93 86.31 1137.86 84.65 1139.07 83.73
  C 1145.95 78.47 1151.64 81.82 1158.37 84.90
  A 1.26 1.24 31.4 0 0 1159.85 84.55
  C 1169.84 72.26 1186.64 90.21 1169.55 98.21
  A 0.92 0.91 -42.7 0 0 1169.48 99.83
  C 1174.81 102.91 1174.04 110.60 1169.12 113.62
  A 2.30 2.29 26.7 0 1 1168.05 113.97
  Q 1166.29 114.12 1164.60 113.49
  Z"
/>
<path d="
  M 1275.48 149.03
  C 1271.37 152.51 1267.33 150.44 1264.32 146.41
  C 1263.51 145.33 1263.67 143.41 1263.17 142.23
  A 2.74 2.60 -82.8 0 0 1262.45 141.25
  C 1261.35 140.33 1260.62 139.80 1260.25 138.53
  Q 1259.38 135.51 1257.07 132.65
  Q 1256.56 132.02 1256.45 128.82
  A 1.60 1.58 -22.8 0 1 1256.96 127.59
  Q 1258.35 126.34 1258.10 124.57
  C 1257.69 121.65 1258.11 119.55 1261.22 119.49
  Q 1263.12 119.46 1264.09 120.73
  Q 1266.98 124.50 1270.45 127.70
  C 1275.49 132.32 1277.73 136.49 1277.60 142.79
  A 2.57 2.54 58.8 0 1 1277.34 143.87
  Q 1276.15 146.23 1276.00 148.01
  A 1.50 1.49 72.3 0 1 1275.48 149.03
  Z"
/>
<path d="
  M 1258.74 160.83
  Q 1259.00 160.77 1259.58 160.42
  C 1261.36 159.34 1264.90 159.47 1267.01 159.85
  A 3.30 3.17 65.2 0 1 1268.24 160.33
  C 1271.57 162.47 1275.59 163.31 1276.21 168.98
  Q 1277.66 182.09 1266.25 189.16
  A 1.03 1.03 0.0 0 0 1265.90 190.55
  Q 1269.15 196.15 1265.10 201.30
  C 1261.88 205.40 1255.60 207.22 1252.22 202.23
  C 1249.36 198.01 1252.69 191.94 1256.41 189.39
  A 1.01 1.01 0.0 0 0 1256.41 187.73
  L 1253.08 185.42
  A 2.42 2.25 85.7 0 1 1252.68 185.05
  Q 1245.46 176.44 1251.84 167.08
  A 0.57 0.57 0.0 0 0 1251.31 166.19
  C 1245.76 166.74 1244.40 162.51 1244.24 157.68
  A 2.03 2.02 58.5 0 1 1244.49 156.63
  C 1246.34 153.28 1249.57 150.66 1253.50 152.04
  C 1256.54 153.09 1258.07 155.60 1258.05 158.93
  Q 1258.04 160.11 1258.07 160.35
  A 0.57 0.56 80.5 0 0 1258.74 160.83
  Z"
/>
<path d="
  M 1275.76 155.04
  A 1.33 1.33 0.0 0 1 1276.87 154.16
  C 1280.45 153.80 1281.65 156.01 1281.74 159.30
  C 1281.80 161.63 1282.26 166.10 1279.41 166.60
  A 1.86 1.78 76.6 0 1 1277.37 165.28
  C 1276.11 161.03 1274.68 158.09 1275.76 155.04
  Z"
/>
<path d="
  M 1229.80 188.75
  C 1230.47 186.78 1232.92 185.24 1234.53 184.27
  Q 1237.80 182.31 1240.70 184.13
  C 1242.38 185.18 1242.93 184.96 1244.49 185.27
  C 1246.11 185.59 1247.06 186.74 1247.41 188.31
  Q 1248.97 195.42 1244.28 198.98
  Q 1242.98 199.97 1241.60 201.47
  C 1238.94 204.36 1234.43 202.32 1230.88 200.52
  C 1228.30 199.20 1228.17 196.63 1229.38 194.05
  Q 1230.33 192.02 1229.76 189.73
  A 1.81 1.75 48.2 0 1 1229.80 188.75
  Z"
/>
<path d="
  M 610.21 76.01
  A 0.17 0.17 0.0 0 1 610.05 76.19
  L 609.97 76.19
  A 2.65 1.35 86.6 0 1 608.46 73.63
  L 608.44 73.21
  A 2.65 1.35 86.6 0 1 609.63 70.48
  L 609.71 70.48
  A 0.17 0.17 0.0 0 1 609.89 70.64
  L 610.21 76.01
  Z"
/>
<path d="
  M 1163.60 73.94
  A 0.74 0.74 0.0 0 1 1163.06 72.76
  L 1165.11 70.01
  A 0.99 0.99 0.0 0 0 1164.43 68.44
  C 1156.97 67.56 1150.00 70.35 1141.94 73.18
  Q 1141.18 73.45 1139.72 73.64
  A 0.80 0.79 10.3 0 1 1138.91 72.48
  C 1144.00 62.99 1165.66 59.72 1175.46 58.79
  C 1186.68 57.73 1199.07 59.94 1210.11 62.89
  Q 1217.15 64.78 1222.04 69.89
  A 0.95 0.95 0.0 0 1 1221.41 71.49
  C 1219.47 71.60 1216.97 71.63 1215.18 71.37
  C 1204.03 69.73 1198.96 68.59 1190.97 69.06
  Q 1188.60 69.20 1183.38 71.19
  Q 1174.18 74.69 1163.60 73.94
  Z"
/>
<path d="
  M 1020.85 66.86
  Q 1021.00 66.87 1021.08 66.98
  Q 1023.55 70.27 1026.21 72.61
  A 0.37 0.37 0.0 0 1 1026.23 73.14
  L 1021.00 78.77
  A 1.16 0.94 -23.8 0 1 1020.89 78.88
  Q 1020.86 78.92 1020.56 78.91
  Q 1020.28 78.90 1020.25 78.87
  A 1.16 0.94 26.3 0 1 1020.14 78.75
  L 1015.16 72.90
  A 0.37 0.37 0.0 0 1 1015.21 72.37
  Q 1017.97 70.15 1020.57 66.97
  Q 1020.66 66.86 1020.85 66.86
  Z"
/>
<path d="
  M 853.18 81.77
  L 859.49 84.01
  A 0.31 0.31 0.0 0 1 859.49 84.59
  L 853.22 86.91
  A 0.31 0.31 0.0 0 0 853.03 87.10
  L 850.79 93.41
  A 0.31 0.31 0.0 0 1 850.21 93.41
  L 847.89 87.14
  A 0.31 0.31 0.0 0 0 847.70 86.95
  L 841.39 84.71
  A 0.31 0.31 0.0 0 1 841.39 84.13
  L 847.66 81.81
  A 0.31 0.31 0.0 0 0 847.85 81.62
  L 850.09 75.31
  A 0.31 0.31 0.0 0 1 850.67 75.31
  L 852.99 81.58
  A 0.31 0.31 0.0 0 0 853.18 81.77
  Z"
/>
<path d="
  M 1234.04 78.89
  A 0.95 0.95 0.0 0 1 1234.99 77.64
  C 1242.30 78.00 1249.88 83.46 1254.50 88.97
  C 1258.74 94.02 1261.57 98.54 1260.86 105.23
  A 1.24 1.24 0.0 0 1 1258.89 106.10
  L 1245.88 96.45
  A 11.35 11.30 -88.2 0 1 1243.10 93.48
  Q 1239.10 87.30 1236.05 83.19
  C 1235.18 82.01 1234.47 80.23 1234.04 78.89
  Z"
/>
<path d="
  M 1198.05 88.25
  Q 1197.95 88.80 1197.01 89.31
  Q 1192.99 91.50 1190.44 87.86
  Q 1190.14 87.42 1190.25 86.83
  Q 1190.35 86.24 1190.79 85.94
  Q 1194.46 83.42 1197.45 86.88
  Q 1198.15 87.70 1198.05 88.25
  Z"
/>
<path d="
  M 68.78 92.52
  A 0.29 0.29 0.0 0 1 69.19 92.53
  L 73.79 97.26
  A 1.19 0.27 45.8 0 1 74.43 98.30
  L 69.02 103.55
  A 1.19 0.27 45.8 0 1 68.00 102.89
  L 63.40 98.16
  A 0.29 0.29 0.0 0 1 63.41 97.75
  L 68.78 92.52
  Z"
/>
<path d="
  M 277.59 114.12
  A 0.33 0.32 -44.4 0 1 277.58 114.73
  Q 272.53 116.47 271.18 121.39
  A 0.38 0.38 0.0 0 1 270.46 121.42
  Q 268.61 116.62 263.66 114.78
  A 0.54 0.54 0.0 0 1 263.67 113.77
  Q 268.89 111.89 270.21 106.87
  A 0.43 0.43 0.0 0 1 271.04 106.87
  Q 272.55 112.30 277.59 114.12
  Z"
/>
<path d="
  M 1470.62 153.89
  Q 1470.78 153.89 1470.88 154.01
  Q 1472.10 155.52 1473.46 156.89
  Q 1474.82 158.25 1476.32 159.47
  Q 1476.45 159.57 1476.45 159.74
  Q 1476.45 159.90 1476.32 160.00
  Q 1474.81 161.22 1473.45 162.58
  Q 1472.09 163.94 1470.87 165.44
  Q 1470.77 165.57 1470.60 165.57
  Q 1470.44 165.57 1470.34 165.44
  Q 1469.12 163.93 1467.76 162.57
  Q 1466.40 161.21 1464.89 159.99
  Q 1464.77 159.89 1464.77 159.72
  Q 1464.77 159.56 1464.89 159.46
  Q 1466.40 158.24 1467.77 156.88
  Q 1469.13 155.52 1470.35 154.01
  Q 1470.45 153.89 1470.62 153.89
  Z"
/>
<path d="
  M 139.65 169.92
  L 147.59 172.72
  A 0.35 0.35 0.0 0 1 147.60 173.38
  L 139.70 176.29
  A 0.35 0.35 0.0 0 0 139.49 176.50
  L 136.69 184.44
  A 0.35 0.35 0.0 0 1 136.03 184.45
  L 133.12 176.55
  A 0.35 0.35 0.0 0 0 132.91 176.34
  L 124.97 173.54
  A 0.35 0.35 0.0 0 1 124.96 172.88
  L 132.86 169.97
  A 0.35 0.35 0.0 0 0 133.07 169.76
  L 135.87 161.82
  A 0.35 0.35 0.0 0 1 136.53 161.81
  L 139.44 169.71
  A 0.35 0.35 0.0 0 0 139.65 169.92
  Z"
/>
<path d="
  M 1341.26 185.04
  Q 1341.04 185.26 1338.59 188.09
  A 0.15 0.14 47.6 0 1 1338.36 188.07
  Q 1336.06 184.83 1332.64 182.70
  A 0.48 0.48 0.0 0 1 1332.64 181.88
  Q 1334.34 180.83 1335.70 179.47
  Q 1337.06 178.11 1338.12 176.42
  A 0.48 0.48 0.0 0 1 1338.93 176.42
  Q 1341.06 179.84 1344.29 182.15
  A 0.15 0.14 42.5 0 1 1344.31 182.37
  Q 1341.48 184.82 1341.26 185.04
  Z"
/>
<path d="
  M 34.70 240.34
  L 43.33 243.17
  A 0.32 0.32 0.0 0 1 43.33 243.77
  L 34.70 246.60
  A 0.32 0.32 0.0 0 0 34.49 246.81
  L 31.66 255.44
  A 0.32 0.32 0.0 0 1 31.06 255.44
  L 28.23 246.81
  A 0.32 0.32 0.0 0 0 28.02 246.60
  L 19.39 243.77
  A 0.32 0.32 0.0 0 1 19.39 243.17
  L 28.02 240.34
  A 0.32 0.32 0.0 0 0 28.23 240.13
  L 31.06 231.50
  A 0.32 0.32 0.0 0 1 31.66 231.50
  L 34.49 240.13
  A 0.32 0.32 0.0 0 0 34.70 240.34
  Z"
/>
<path d="
  M 260.40 251.65
  L 255.37 246.33
  A 0.38 0.38 0.0 0 1 255.38 245.80
  L 260.63 240.55
  A 0.38 0.38 0.0 0 1 261.18 240.55
  L 266.35 246.03
  A 0.38 0.38 0.0 0 1 266.33 246.57
  L 260.94 251.67
  A 0.38 0.38 0.0 0 1 260.40 251.65
  Z"
/>
<g fill="#2f5d9e">
<path d="
  M 1281.01 121.39
  L 1279.04 116.33
  Q 1308.84 102.04 1342.20 102.67
  A 0.96 0.95 7.7 0 0 1343.14 101.96
  Q 1349.82 77.35 1370.54 62.03
  Q 1376.54 57.59 1381.87 55.34
  Q 1396.63 49.12 1413.27 47.87
  Q 1419.47 53.79 1424.71 61.48
  A 0.76 0.75 62.3 0 0 1425.61 61.77
  Q 1436.23 57.62 1447.48 59.19
  C 1458.12 60.67 1460.96 68.70 1457.20 77.95
  A 1.28 1.28 0.0 0 0 1458.21 79.70
  L 1502.32 85.67
  A 0.42 0.42 0.0 0 1 1502.44 86.46
  C 1483.78 95.34 1464.01 101.56 1444.30 105.93
  Q 1426.44 109.90 1411.74 110.97
  Q 1396.24 112.10 1376.23 108.24
  C 1374.21 107.85 1372.83 106.60 1371.23 106.25
  A 0.25 0.25 0.0 0 0 1370.99 106.67
  Q 1378.62 114.51 1387.91 117.81
  Q 1392.28 119.36 1394.78 120.13
  A 0.32 0.32 0.0 0 1 1394.69 120.75
  L 1281.01 121.39
  Z"
/>
<path d="
  M 1041.08 198.80
  Q 1041.39 199.23 1041.77 199.26
  Q 1054.05 200.22 1061.81 201.47
  Q 1076.86 203.91 1093.16 210.46
  L 1102.47 223.86
  Q 1089.98 226.33 1085.75 226.77
  Q 1049.04 230.56 1012.51 225.41
  Q 1006.04 224.50 993.23 221.74
  L 992.26 219.65
  Q 991.78 215.87 988.90 215.84
  Q 982.82 215.78 977.16 215.20
  L 976.73 203.58
  Q 994.39 199.42 1012.26 198.63
  C 1020.58 198.27 1030.91 199.05 1040.23 199.12
  Q 1040.59 199.12 1041.08 198.80
  Z"
/>
</g>
<g fill="#87a2b8">
<path d="
  M 598.97 48.62
  Q 601.78 52.96 600.48 57.45
  Q 599.90 59.46 597.77 60.41
  Q 596.68 60.90 593.69 60.27
  Q 589.25 59.34 585.34 59.11
  A 0.53 0.53 0.0 0 0 584.79 59.74
  C 586.54 69.16 579.07 75.36 570.24 74.76
  C 563.78 74.33 557.53 69.92 557.43 62.90
  A 0.42 0.42 0.0 0 0 556.73 62.59
  Q 556.53 62.77 556.14 63.38
  C 554.82 65.41 551.82 66.98 549.30 68.00
  A 4.63 4.62 0.6 0 0 546.82 70.42
  L 544.95 74.71
  A 1.56 1.26 85.9 0 1 544.84 74.88
  Q 540.52 80.56 533.83 79.75
  Q 532.70 79.62 528.14 77.91
  Q 520.88 75.19 515.06 81.83
  C 512.79 84.42 513.83 87.86 514.37 91.69
  A 2.25 2.20 -38.6 0 1 514.23 92.82
  C 512.88 96.22 509.71 97.65 505.89 100.00
  A 4.39 4.36 -6.8 0 0 504.02 102.36
  C 500.24 113.93 490.96 121.30 478.55 115.84
  C 472.62 113.23 468.73 106.36 461.55 111.28
  C 457.95 113.75 459.23 117.90 459.62 122.38
  C 459.84 124.90 459.42 128.64 457.49 130.48
  C 454.96 132.90 450.82 133.20 447.84 131.51
  C 445.72 130.31 442.50 128.49 440.19 129.94
  C 436.98 131.96 435.72 136.69 433.96 139.92
  L 429.39 146.75
  L 429.22 138.12
  L 428.04 135.37
  C 426.45 130.28 416.47 132.52 411.58 131.24
  L 411.38 130.88
  Q 412.17 129.35 412.89 128.64
  C 420.35 121.17 428.68 112.44 438.20 106.11
  A 0.85 0.85 0.0 0 0 438.52 105.09
  Q 434.56 95.14 440.18 85.94
  C 447.80 73.47 462.14 67.33 476.52 67.96
  Q 484.51 68.31 491.34 71.33
  A 0.17 0.17 0.0 0 0 491.57 71.10
  Q 485.05 57.09 492.48 44.11
  C 499.46 31.94 514.56 26.93 527.90 31.21
  Q 538.34 34.56 545.44 42.65
  A 0.64 0.63 -42.9 0 0 546.36 42.68
  Q 550.94 38.16 556.23 36.21
  Q 557.82 35.63 564.18 34.91
  C 575.70 33.62 585.01 38.29 589.34 49.38
  A 0.65 0.64 -22.2 0 0 590.20 49.74
  Q 594.25 47.95 598.97 48.62
  Z"
/>
<path d="
  M 430.99 164.28
  L 428.53 164.45
  Q 428.08 164.16 428.12 163.75
  Q 428.30 162.03 429.08 159.74
  Q 429.37 159.26 429.37 159.08
  A 0.25 0.25 0.0 0 1 429.87 159.02
  L 430.99 164.28
  Z"
/>
</g>
<g fill="#fef8e2">
<path d="
  M 228.14 404.02
  Q 227.96 404.54 226.71 405.20
  C 223.98 406.62 220.24 405.50 221.49 401.78
  C 222.75 398.07 226.41 399.44 227.71 402.22
  Q 228.31 403.51 228.14 404.02
  Z"
/>
<ellipse cx="0.00" cy="0.00" transform="translate(249.25,402.45) rotate(-114.7)" rx="2.52" ry="1.82"/>
</g>
<ellipse cx="0.00" cy="0.00" transform="translate(565.78,48.27) rotate(-98.0)" rx="2.60" ry="1.90"/>
<ellipse cx="0.00" cy="0.00" transform="translate(1229.79,100.29) rotate(-166.9)" rx="2.53" ry="1.94"/>
<ellipse cx="0.00" cy="0.00" transform="translate(1174.60,117.76) rotate(-18.7)" rx="4.02" ry="3.27"/>
<ellipse cx="0.00" cy="0.00" transform="translate(1215.02,86.83) rotate(-153.5)" rx="6.09" ry="1.99"/>
<ellipse cx="0.00" cy="0.00" transform="translate(1247.52,116.20) rotate(-127.3)" rx="3.72" ry="2.27"/>
<ellipse cx="0.00" cy="0.00" transform="translate(347.45,309.78) rotate(-16.6)" rx="1.91" ry="1.56"/>
<ellipse cx="0.00" cy="0.00" transform="translate(249.25,402.45) rotate(-114.7)" rx="2.52" ry="1.82"/>
<ellipse fill="#8a735f" cx="0.00" cy="0.00" transform="translate(250.09,382.62) rotate(-47.1)" rx="1.03" ry="0.83"/>
<ellipse cx="0.00" cy="0.00" transform="translate(240.85,381.73) rotate(-163.9)" rx="1.41" ry="0.92"/>

</svg>