<?xml version="1.0" encoding="UTF-8" standalone="no"?>
<!DOCTYPE svg PUBLIC "-//W3C//DTD SVG 1.1//EN" "http://www.w3.org/Graphics/SVG/1.1/DTD/svg11.dtd">
<svg xmlns="http://www.w3.org/2000/svg" version="1.1" viewBox="0.00 0.00 1536.00 1024.00" preserveAspectRatio="none">

<g stroke-width="2.00" fill="none" stroke-linecap="butt">
<path stroke="#224c8c" vector-effect="non-scaling-stroke" d="
  M 1281.01 121.39
  L 1394.69 120.75
  A 0.32 0.32 0.0 0 0 1394.78 120.13
  Q 1392.28 119.36 1387.91 117.81
  Q 1378.62 114.51 1370.99 106.67
  A 0.25 0.25 0.0 0 1 1371.23 106.25
  C 1372.83 106.60 1374.21 107.85 1376.23 108.24
  Q 1396.24 112.10 1411.74 110.97
  Q 1426.44 109.90 1444.30 105.93
  C 1464.01 101.56 1483.78 95.34 1502.44 86.46
  A 0.42 0.42 0.0 0 0 1502.32 85.67
  L 1458.21 79.70
  A 1.28 1.28 0.0 0 1 1457.20 77.95
  C 1460.96 68.70 1458.12 60.67 1447.48 59.19
  Q 1436.23 57.62 1425.61 61.77
  A 0.76 0.75 62.3 0 1 1424.71 61.48
  Q 1419.47 53.79 1413.27 47.87"
/>
<path stroke="#3d6193" vector-effect="non-scaling-stroke" d="
  M 1413.27 47.87
  Q 1395.19 34.01 1372.73 38.02
  Q 1360.22 40.25 1350.13 46.90
  C 1346.50 49.30 1342.61 51.76 1339.71 54.46
  A 0.38 0.38 0.0 0 1 1339.08 54.28
  C 1328.66 14.48 1283.63 16.34 1255.69 33.44
  Q 1240.31 42.85 1231.34 57.58
  Q 1229.20 61.09 1228.17 63.82"
/>
<path stroke="#8999ae" vector-effect="non-scaling-stroke" d="
  M 1228.17 63.82
  Q 1205.60 53.32 1182.00 54.03
  Q 1128.72 55.64 1097.59 99.21"
/>
<path stroke="#2c548f" vector-effect="non-scaling-stroke" d="
  M 440.69 145.21
  Q 445.65 147.57 450.77 147.87
  C 461.26 148.48 466.51 140.05 467.19 130.72
  A 0.50 0.50 0.0 0 1 467.96 130.34
  Q 471.80 132.83 476.23 134.01
  Q 490.03 137.68 503.88 135.17
  C 514.86 133.18 525.02 126.38 524.82 114.01
  Q 524.73 108.66 522.61 103.88
  A 0.32 0.32 0.0 0 1 523.02 103.45
  Q 533.95 107.79 543.92 100.40
  A 0.92 0.91 -38.3 0 1 545.16 100.54
  Q 554.03 111.00 567.67 110.33
  C 579.35 109.75 589.50 101.79 590.84 89.75
  A 0.56 0.55 5.3 0 1 591.44 89.26
  C 597.83 89.74 603.53 89.17 605.53 82.28
  A 1.17 1.17 0.0 0 1 606.48 81.45
  C 615.41 80.03 617.49 69.43 613.90 62.52
  Q 612.99 60.79 611.49 57.43
  Q 608.00 49.63 598.97 48.62"
/>
<path stroke="#4e6e99" vector-effect="non-scaling-stroke" d="
  M 598.97 48.62
  Q 594.25 47.95 590.20 49.74
  A 0.65 0.64 -22.2 0 1 589.34 49.38
  C 585.01 38.29 575.70 33.62 564.18 34.91
  Q 557.82 35.63 556.23 36.21
  Q 550.94 38.16 546.36 42.68
  A 0.64 0.63 -42.9 0 1 545.44 42.65
  Q 538.34 34.56 527.90 31.21
  C 514.56 26.93 499.46 31.94 492.48 44.11
  Q 485.05 57.09 491.57 71.10
  A 0.17 0.17 0.0 0 1 491.34 71.33
  Q 484.51 68.31 476.52 67.96
  C 462.14 67.33 447.80 73.47 440.18 85.94
  Q 434.56 95.14 438.52 105.09
  A 0.85 0.85 0.0 0 1 438.20 106.11
  C 428.68 112.44 420.35 121.17 412.89 128.64
  Q 412.17 129.35 411.38 130.88"
/>
<path stroke="#4b73a5" vector-effect="non-scaling-stroke" d="
  M 1413.27 47.87
  Q 1396.63 49.12 1381.87 55.34
  Q 1376.54 57.59 1370.54 62.03
  Q 1349.82 77.35 1343.14 101.96
  A 0.96 0.95 7.7 0 1 1342.20 102.67
  Q 1308.84 102.04 1279.04 116.33"
/>
<path stroke="#b2c0c7" vector-effect="non-scaling-stroke" d="
  M 1279.04 116.33
  Q 1269.29 94.13 1251.48 78.52
  Q 1240.98 69.33 1228.17 63.82"
/>
<path stroke="#6688ae" vector-effect="non-scaling-stroke" d="
  M 598.97 48.62
  Q 601.78 52.96 600.48 57.45
  Q 599.90 59.46 597.77 60.41
  Q 596.68 60.90 593.69 60.27
  Q 589.25 59.34 585.34 59.11
  A 0.53 0.53 0.0 0 0 584.79 59.74
  C 586.54 69.16 579.07 75.36 570.24 74.76
  C 563.78 74.33 557.53 69.92 557.43 62.90
  A 0.42 0.42 0.0 0 0 556.73 62.59
  Q 556.53 62.77 556.14 63.38
  C 554.82 65.41 551.82 66.98 549.30 68.00
  A 4.63 4.62 0.6 0 0 546.82 70.42
  L 544.95 74.71
  A 1.56 1.26 85.9 0 1 544.84 74.88
  Q 540.52 80.56 533.83 79.75
  Q 532.70 79.62 528.14 77.91
  Q 520.88 75.19 515.06 81.83
  C 512.79 84.42 513.83 87.86 514.37 91.69
  A 2.25 2.20 -38.6 0 1 514.23 92.82
  C 512.88 96.22 509.71 97.65 505.89 100.00
  A 4.39 4.36 -6.8 0 0 504.02 102.36
  C 500.24 113.93 490.96 121.30 478.55 115.84
  C 472.62 113.23 468.73 106.36 461.55 111.28
  C 457.95 113.75 459.23 117.90 459.62 122.38
  C 459.84 124.90 459.42 128.64 457.49 130.48
  C 454.96 132.90 450.82 133.20 447.84 131.51
  C 445.72 130.31 442.50 128.49 440.19 129.94
  C 436.98 131.96 435.72 136.69 433.96 139.92"
/>
<path stroke="#97abc0" vector-effect="non-scaling-stroke" d="
  M 1281.01 121.39
  L 1279.04 116.33"
/>
</g>

<g fill="#fef8e2">
<path d="
  M 228.14 404.02
  Q 227.96 404.54 226.71 405.20
  C 223.98 406.62 220.24 405.50 221.49 401.78
  C 222.75 398.07 226.41 399.44 227.71 402.22
  Q 228.31 403.51 228.14 404.02
  Z"
/>
<ellipse cx="0.00" cy="0.00" transform="translate(249.25,402.45) rotate(-114.7)" rx="2.52" ry="1.82"/>
</g>
<g fill="#87a2b8">
<path d="
  M 598.97 48.62
  Q 601.78 52.96 600.48 57.45
  Q 599.90 59.46 597.77 60.41
  Q 596.68 60.90 593.69 60.27
  Q 589.25 59.34 585.34 59.11
  A 0.53 0.53 0.0 0 0 584.79 59.74
  C 586.54 69.16 579.07 75.36 570.24 74.76
  C 563.78 74.33 557.53 69.92 557.43 62.90
  A 0.42 0.42 0.0 0 0 556.73 62.59
  Q 556.53 62.77 556.14 63.38
  C 554.82 65.41 551.82 66.98 549.30 68.00
  A 4.63 4.62 0.6 0 0 546.82 70.42
  L 544.95 74.71
  A 1.56 1.26 85.9 0 1 544.84 74.88
  Q 540.52 80.56 533.83 79.75
  Q 532.70 79.62 528.14 77.91
  Q 520.88 75.19 515.06 81.83
  C 512.79 84.42 513.83 87.86 514.37 91.69
  A 2.25 2.20 -38.6 0 1 514.23 92.82
  C 512.88 96.22 509.71 97.65 505.89 100.00
  A 4.39 4.36 -6.8 0 0 504.02 102.36
  C 500.24 113.93 490.96 121.30 478.55 115.84
  C 472.62 113.23 468.73 106.36 461.55 111.28
  C 457.95 113.75 459.23 117.90 459.62 122.38
  C 459.84 124.90 459.42 128.64 457.49 130.48
  C 454.96 132.90 450.82 133.20 447.84 131.51
  C 445.72 130.31 442.50 128.49 440.19 129.94
  C 436.98 131.96 435.72 136.69 433.96 139.92
  L 429.39 146.75
  L 429.22 138.12
  L 428.04 135.37
  C 426.45 130.28 416.47 132.52 411.58 131.24
  L 411.38 130.88
  Q 412.17 129.35 412.89 128.64
  C 420.35 121.17 428.68 112.44 438.20 106.11
  A 0.85 0.85 0.0 0 0 438.52 105.09
  Q 434.56 95.14 440.18 85.94
  C 447.80 73.47 462.14 67.33 476.52 67.96
  Q 484.51 68.31 491.34 71.33
  A 0.17 0.17 0.0 0 0 491.57 71.10
  Q 485.05 57.09 492.48 44.11
  C 499.46 31.94 514.56 26.93 527.90 31.21
  Q 538.34 34.56 545.44 42.65
  A 0.64 0.63 -42.9 0 0 546.36 42.68
  Q 550.94 38.16 556.23 36.21
  Q 557.82 35.63 564.18 34.91
  C 575.70 33.62 585.01 38.29 589.34 49.38
  A 0.65 0.64 -22.2 0 0 590.20 49.74
  Q 594.25 47.95 598.97 48.62
  Z"
/>
<path d="
  M 430.99 164.28
  L 428.53 164.45
  Q 428.08 164.16 428.12 163.75
  Q 428.30 162.03 429.08 159.74
  Q 429.37 159.26 429.37 159.08
  A 0.25 0.25 0.0 0 1 429.87 159.02
  L 430.99 164.28
  Z"
/>
</g>
<g fill="#2f5d9e">
<path d="
  M 1281.01 121.39
  L 1279.04 116.33
  Q 1308.84 102.04 1342.20 102.67
  A 0.96 0.95 7.7 0 0 1343.14 101.96
  Q 1349.82 77.35 1370.54 62.03
  Q 1376.54 57.59 1381.87 55.34
  Q 1396.63 49.12 1413.27 47.87
  Q 1419.47 53.79 1424.71 61.48
  A 0.76 0.75 62.3 0 0 1425.61 61.77
  Q 1436.23 57.62 1447.48 59.19
  C 1458.12 60.67 1460.96 68.70 1457.20 77.95
  A 1.28 1.28 0.0 0 0 1458.21 79.70
  L 1502.32 85.67
  A 0.42 0.42 0.0 0 1 1502.44 86.46
  C 1483.78 95.34 1464.01 101.56 1444.30 105.93
  Q 1426.44 109.90 1411.74 110.97
  Q 1396.24 112.10 1376.23 108.24
  C 1374.21 107.85 1372.83 106.60 1371.23 106.25
  A 0.25 0.25 0.0 0 0 1370.99 106.67
  Q 1378.62 114.51 1387.91 117.81
  Q 1392.28 119.36 1394.78 120.13
  A 0.32 0.32 0.0 0 1 1394.69 120.75
  L 1281.01 121.39
  Z"
/>
<path d="
  M 1041.08 198.80
  Q 1041.39 199.23 1041.77 199.26
  Q 1054.05 200.22 1061.81 201.47
  Q 1076.86 203.91 1093.16 210.46
  L 1102.47 223.86
  Q 1089.98 226.33 1085.75 226.77
  Q 1049.04 230.56 1012.51 225.41
  Q 1006.04 224.50 993.23 221.74
  L 992.26 219.65
  Q 991.78 215.87 988.90 215.84
  Q 982.82 215.78 977.16 215.20
  L 976.73 203.58
  Q 994.39 199.42 1012.26 198.63
  C 1020.58 198.27 1030.91 199.05 1040.23 199.12
  Q 1040.59 199.12 1041.08 198.80
  Z"
/>
</g>
<path fill="#446ea3" d="
  M 598.97 48.62
  Q 608.00 49.63 611.49 57.43
  Q 612.99 60.79 613.90 62.52
  C 617.49 69.43 615.41 80.03 606.48 81.45
  A 1.17 1.17 0.0 0 0 605.53 82.28
  C 603.53 89.17 597.83 89.74 591.44 89.26
  A 0.56 0.55 5.3 0 0 590.84 89.75
  C 589.50 101.79 579.35 109.75 567.67 110.33
  Q 554.03 111.00 545.16 100.54
  A 0.92 0.91 -38.3 0 0 543.92 100.40
  Q 533.95 107.79 523.02 103.45
  A 0.32 0.32 0.0 0 0 522.61 103.88
  Q 524.73 108.66 524.82 114.01
  C 525.02 126.38 514.86 133.18 503.88 135.17
  Q 490.03 137.68 476.23 134.01
  Q 471.80 132.83 467.96 130.34
  A 0.50 0.50 0.0 0 0 467.19 130.72
  C 466.51 140.05 461.26 148.48 450.77 147.87
  Q 445.65 147.57 440.69 145.21
  L 433.96 139.92
  C 435.72 136.69 436.98 131.96 440.19 129.94
  C 442.50 128.49 445.72 130.31 447.84 131.51
  C 450.82 133.20 454.96 132.90 457.49 130.48
  C 459.42 128.64 459.84 124.90 459.62 122.38
  C 459.23 117.90 457.95 113.75 461.55 111.28
  C 468.73 106.36 472.62 113.23 478.55 115.84
  C 490.96 121.30 500.24 113.93 504.02 102.36
  A 4.39 4.36 -6.8 0 1 505.89 100.00
  C 509.71 97.65 512.88 96.22 514.23 92.82
  A 2.25 2.20 -38.6 0 0 514.37 91.69
  C 513.83 87.86 512.79 84.42 515.06 81.83
  Q 520.88 75.19 528.14 77.91
  Q 532.70 79.62 533.83 79.75
  Q 540.52 80.56 544.84 74.88
  A 1.56 1.26 85.9 0 0 544.95 74.71
  L 546.82 70.42
  A 4.63 4.62 0.6 0 1 549.30 68.00
  C 551.82 66.98 554.82 65.41 556.14 63.38
  Q 556.53 62.77 556.73 62.59
  A 0.42 0.42 0.0 0 1 557.43 62.90
  C 557.53 69.92 563.78 74.33 570.24 74.76
  C 579.07 75.36 586.54 69.16 584.79 59.74
  A 0.53 0.53 0.0 0 1 585.34 59.11
  Q 589.25 59.34 593.69 60.27
  Q 596.68 60.90 597.77 60.41
  Q 599.90 59.46 600.48 57.45
  Q 601.78 52.96 598.97 48.62
  Z"
/>
<ellipse fill="#8a735f" cx="0.00" cy="0.00" transform="translate(250.09,382.62) rotate(-47.1)" rx="1.03" ry="0.83"/>

</svg>