<?xml version="1.0" encoding="UTF-8" standalone="no"?>
<!DOCTYPE svg PUBLIC "-//W3C//DTD SVG 1.1//EN" "http://www.w3.org/Graphics/SVG/1.1/DTD/svg11.dtd">
<svg xmlns="http://www.w3.org/2000/svg" version="1.1" viewBox="0.00 0.00 1536.00 1024.00" preserveAspectRatio="none">

<g stroke-width="2.00" fill="none" stroke-linecap="butt">
<path stroke="#2b2f4f" vector-effect="non-scaling-stroke" d="
  M 281.99 186.10
  Q 282.16 188.17 283.93 189.63"
/>
<path stroke="#242e50" vector-effect="non-scaling-stroke" d="
  M 283.93 189.63
  Q 287.17 191.36 290.46 192.78
  Q 292.50 193.66 292.02 195.19"
/>
<path stroke="#56576b" vector-effect="non-scaling-stroke" d="
  M 292.02 195.19
  L 292.19 222.84"
/>
<path stroke="#39405d" vector-effect="non-scaling-stroke" d="
  M 292.19 222.84
  L 292.11 230.45"
/>
<path stroke="#5a5a6e" vector-effect="non-scaling-stroke" d="
  M 292.11 230.45
  L 292.39 253.19"
/>
<path stroke="#634c3e" vector-effect="non-scaling-stroke" d="
  M 317.30 194.63
  L 292.02 195.19"
/>
<path stroke="#785e4b" vector-effect="non-scaling-stroke" d="
  M 292.19 222.84
  Q 303.60 222.71 315.00 222.61
  C 318.09 222.58 318.72 221.99 318.82 218.99
  Q 319.13 210.25 318.98 198.01
  Q 318.94 195.09 317.30 194.63"
/>
</g>

<path fill="#fcf1d4" d="
  M 1338.31 133.35
  Q 1340.44 140.25 1341.13 143.87
  C 1349.08 185.90 1330.88 226.97 1293.77 248.28
  C 1239.10 279.68 1168.78 251.78 1150.15 191.49
  C 1131.52 131.19 1173.85 68.49 1236.70 63.57
  C 1279.36 60.24 1317.56 83.88 1334.70 123.07
  Q 1336.18 126.45 1338.31 133.35
  Z"
/>
<path fill="#fcf1d4" d="
  M 105.75 102.73
  L 113.65 105.96
  A 1.02 1.02 0.0 0 1 113.65 107.85
  L 105.76 111.11
  A 1.02 1.02 0.0 0 0 105.21 111.67
  L 101.98 119.57
  A 1.02 1.02 0.0 0 1 100.09 119.57
  L 96.83 111.68
  A 1.02 1.02 0.0 0 0 96.27 111.13
  L 88.37 107.90
  A 1.02 1.02 0.0 0 1 88.37 106.01
  L 96.26 102.75
  A 1.02 1.02 0.0 0 0 96.81 102.19
  L 100.04 94.29
  A 1.02 1.02 0.0 0 1 101.93 94.29
  L 105.19 102.18
  A 1.02 1.02 0.0 0 0 105.75 102.73
  Z"
/>
<path fill="#fcf1d4" d="
  M 1435.44 122.75
  L 1443.30 126.08
  A 0.99 0.99 0.0 0 1 1443.31 127.90
  L 1435.47 131.28
  A 0.99 0.99 0.0 0 0 1434.95 131.80
  L 1431.62 139.66
  A 0.99 0.99 0.0 0 1 1429.80 139.67
  L 1426.42 131.83
  A 0.99 0.99 0.0 0 0 1425.90 131.31
  L 1418.04 127.98
  A 0.99 0.99 0.0 0 1 1418.03 126.16
  L 1425.87 122.78
  A 0.99 0.99 0.0 0 0 1426.39 122.26
  L 1429.72 114.40
  A 0.99 0.99 0.0 0 1 1431.54 114.39
  L 1434.92 122.23
  A 0.99 0.99 0.0 0 0 1435.44 122.75
  Z"
/>
<path fill="#e9ddc0" d="
  M 1302.44 195.27
  C 1301.69 198.25 1303.26 201.16 1304.93 204.06
  C 1306.14 206.16 1306.95 210.34 1306.95 213.03
  C 1306.92 225.90 1297.97 233.78 1285.67 235.75
  C 1271.82 237.98 1253.68 229.31 1251.05 214.01
  C 1249.01 202.12 1257.72 197.58 1266.00 192.26
  C 1271.47 188.74 1269.97 184.13 1272.06 179.22
  Q 1276.42 168.98 1288.51 171.20
  Q 1294.94 172.39 1299.20 177.24
  C 1304.23 182.98 1304.17 188.46 1302.44 195.27
  Z"
/>
<path fill="#957559" d="
  M 317.30 194.63
  Q 318.94 195.09 318.98 198.01
  Q 319.13 210.25 318.82 218.99
  C 318.72 221.99 318.09 222.58 315.00 222.61
  Q 303.60 222.71 292.19 222.84
  L 292.02 195.19
  L 317.30 194.63
  Z"
/>
<path fill="#fcf1d4" d="
  M 191.39 204.45
  L 199.38 207.80
  A 0.97 0.97 0.0 0 1 199.38 209.59
  L 191.36 212.88
  A 0.97 0.97 0.0 0 0 190.83 213.41
  L 187.48 221.40
  A 0.97 0.97 0.0 0 1 185.69 221.40
  L 182.40 213.38
  A 0.97 0.97 0.0 0 0 181.87 212.85
  L 173.88 209.50
  A 0.97 0.97 0.0 0 1 173.88 207.71
  L 181.90 204.42
  A 0.97 0.97 0.0 0 0 182.43 203.89
  L 185.78 195.90
  A 0.97 0.97 0.0 0 1 187.57 195.90
  L 190.86 203.92
  A 0.97 0.97 0.0 0 0 191.39 204.45
  Z"
/>

</svg>