<?xml version="1.0" encoding="UTF-8" standalone="no"?>
<!DOCTYPE svg PUBLIC "-//W3C//DTD SVG 1.1//EN" "http://www.w3.org/Graphics/SVG/1.1/DTD/svg11.dtd">
<svg xmlns="http://www.w3.org/2000/svg" version="1.1" viewBox="9.47 875.35 1536.53 99.48" preserveAspectRatio="none">

<g stroke-width="2.00" fill="none" stroke-linecap="butt">
<path stroke="#3a4862" vector-effect="non-scaling-stroke" d="
  M 1536.00 932.30
  Q 1521.80 929.30 1507.01 931.45
  C 1499.97 932.47 1489.99 935.29 1487.49 942.77
  C 1483.33 955.24 1502.09 957.26 1510.28 957.45
  Q 1519.06 957.67 1528.74 957.12
  Q 1532.38 956.92 1536.00 956.42"
/>
</g>

<path fill="#545e71" d="
  M 1376.05 885.67
  C 1389.11 885.86 1411.73 888.93 1412.59 906.16
  C 1413.12 916.96 1402.34 922.21 1392.90 923.98
  Q 1385.17 925.44 1375.48 925.29
  Q 1365.78 925.15 1358.10 923.48
  C 1348.71 921.43 1338.09 915.87 1338.94 905.09
  C 1340.29 887.89 1362.99 885.48 1376.05 885.67
  Z"
/>
<path fill="#6d727e" d="
  M 150.13 928.69
  C 136.40 929.98 124.84 929.31 112.32 924.47
  C 106.29 922.13 97.45 916.32 96.45 909.48
  C 95.60 903.73 98.93 898.38 103.62 895.14
  Q 112.51 889.02 124.25 887.43
  Q 137.97 885.58 151.72 887.36
  C 161.93 888.68 178.11 893.70 180.00 905.70
  C 182.35 920.63 161.19 927.65 150.13 928.69
  Z"
/>
<path fill="#4a556b" d="
  M 851.99 886.67
  C 863.83 886.71 876.43 887.82 886.15 895.46
  Q 896.46 903.55 886.81 912.23
  Q 884.94 913.91 879.51 915.74
  C 870.79 918.69 860.86 919.33 851.88 919.30
  C 842.89 919.27 832.97 918.56 824.27 915.55
  Q 818.85 913.68 816.99 911.99
  Q 807.40 903.24 817.76 895.22
  C 827.55 887.65 840.15 886.63 851.99 886.67
  Z"
/>
<path fill="#545e71" d="
  M 532.59 888.92
  C 541.60 889.03 550.94 889.87 558.99 892.96
  C 565.68 895.54 573.08 901.85 570.54 910.11
  C 567.91 918.65 555.18 920.33 547.75 920.56
  Q 542.38 920.72 532.20 920.59
  Q 522.01 920.47 516.65 920.17
  C 509.23 919.76 496.54 917.77 494.13 909.17
  C 491.79 900.85 499.34 894.72 506.10 892.31
  C 514.22 889.41 523.57 888.81 532.59 888.92
  Z"
/>
<path fill="#6d727e" d="
  M 676.32 909.31
  C 673.37 920.59 649.75 920.47 640.02 920.63
  C 627.49 920.83 613.83 921.04 600.58 919.15
  C 594.03 918.21 586.23 915.54 585.09 908.23
  C 582.88 894.01 595.03 889.70 606.53 889.29
  Q 632.94 888.36 652.24 889.73
  Q 660.22 890.29 667.16 893.33
  C 673.06 895.91 678.15 902.34 676.32 909.31
  Z"
/>
<path fill="#545e71" d="
  M 753.24 888.93
  Q 762.96 888.88 771.87 890.00
  C 780.31 891.05 800.15 895.95 800.20 906.93
  C 800.25 917.90 780.45 922.98 772.02 924.11
  Q 763.12 925.30 753.40 925.34
  Q 743.69 925.39 734.77 924.27
  C 726.34 923.22 706.50 918.32 706.45 907.34
  C 706.40 896.37 726.20 891.29 734.62 890.16
  Q 743.53 888.97 753.24 888.93
  Z"
/>
<path fill="#545e71" d="
  M 1237.37 906.85
  C 1237.22 916.66 1227.77 921.74 1219.26 923.03
  Q 1206.48 924.97 1193.50 922.81
  C 1184.12 921.25 1177.26 916.25 1177.42 905.91
  C 1177.58 895.58 1184.60 890.79 1194.02 889.53
  Q 1207.06 887.78 1219.78 890.12
  C 1228.24 891.67 1237.53 897.04 1237.37 906.85
  Z"
/>
<path fill="#6d727e" d="
  M 296.78 889.33
  C 307.86 889.35 330.67 891.49 329.20 907.75
  C 327.98 921.31 305.98 919.95 296.74 919.94
  C 287.50 919.93 265.50 921.23 264.31 907.67
  C 262.89 891.41 285.70 889.32 296.78 889.33
  Z"
/>
<path fill="#545e71" d="
  M 910.58 913.47
  C 902.97 908.16 904.81 900.51 912.12 896.05
  Q 917.84 892.56 922.65 891.40
  Q 947.86 885.35 971.56 894.94
  Q 973.60 895.77 977.08 898.51
  C 981.03 901.64 982.77 906.14 981.22 910.86
  C 979.32 916.65 972.42 919.66 966.74 920.50
  C 955.62 922.17 944.07 921.58 933.23 920.57
  C 925.37 919.85 917.04 917.97 910.58 913.47
  Z"
/>
<path fill="#545e71" d="
  M 1507.64 910.77
  C 1507.23 925.70 1483.24 929.86 1471.50 929.72
  C 1458.02 929.57 1445.94 928.80 1434.25 922.53
  C 1429.12 919.78 1423.46 914.60 1423.63 908.44
  C 1423.80 902.28 1429.74 897.43 1435.01 894.96
  C 1447.03 889.35 1459.14 889.25 1472.60 889.84
  C 1484.34 890.36 1508.06 895.84 1507.64 910.77
  Z"
/>
<path fill="#545e71" d="
  M 39.77 890.08
  C 51.75 889.20 63.45 890.83 74.27 896.00
  C 78.76 898.14 82.78 901.17 85.30 906.13
  C 87.51 910.49 86.43 915.94 83.23 919.28
  C 79.12 923.57 72.88 926.50 66.53 927.92
  Q 54.19 930.69 41.45 930.01
  Q 31.04 929.45 26.56 926.01
  C 19.51 920.60 19.47 912.08 21.01 903.78
  C 22.86 893.79 29.93 890.81 39.77 890.08
  Z"
/>
<path fill="#6d727e" d="
  M 1167.27 909.11
  C 1167.32 917.31 1157.10 922.35 1150.03 924.59
  Q 1139.46 927.94 1125.00 928.47
  C 1112.74 928.93 1085.07 927.70 1084.94 909.67
  C 1084.82 891.65 1112.47 890.04 1124.73 890.33
  Q 1139.20 890.66 1149.82 893.86
  C 1156.92 896.00 1167.21 900.91 1167.27 909.11
  Z"
/>
<path fill="#6d727e" d="
  M 418.94 913.71
  Q 417.35 909.95 418.11 903.85
  C 418.92 897.30 425.66 894.57 431.21 893.19
  Q 447.06 889.23 464.01 891.31
  C 468.29 891.83 472.63 892.67 475.70 895.08
  Q 481.91 899.93 481.50 908.79
  C 481.12 917.17 474.34 921.54 466.93 923.62
  Q 451.17 928.06 434.95 924.80
  C 428.94 923.59 421.42 919.60 418.94 913.71
  Z"
/>
<path fill="#6d727e" d="
  M 1245.63 910.15
  C 1245.50 892.12 1273.17 890.49 1285.44 890.77
  Q 1299.92 891.10 1310.55 894.29
  C 1317.66 896.43 1327.96 901.34 1328.02 909.54
  C 1328.08 917.75 1317.85 922.81 1310.77 925.05
  Q 1300.20 928.40 1285.73 928.94
  C 1273.46 929.40 1245.76 928.19 1245.63 910.15
  Z"
/>
<path fill="#6d727e" d="
  M 998.13 905.83
  C 1000.39 900.92 1005.98 898.43 1011.90 896.36
  Q 1028.36 890.60 1045.38 892.24
  C 1053.13 892.99 1059.68 895.47 1064.94 900.54
  C 1069.16 904.62 1071.12 911.60 1067.35 916.37
  C 1063.98 920.64 1056.96 923.43 1051.18 924.68
  Q 1028.90 929.47 1007.14 922.16
  Q 1004.05 921.12 1000.50 917.83
  Q 994.97 912.70 998.13 905.83
  Z"
/>
<path fill="#6d727e" d="
  M 253.46 910.42
  C 253.61 919.36 250.31 925.71 241.17 927.88
  Q 229.56 930.64 214.09 928.63
  C 205.12 927.46 190.33 922.30 190.15 911.49
  C 189.96 900.69 204.57 895.03 213.49 893.56
  Q 228.88 891.02 240.59 893.38
  C 249.79 895.23 253.31 901.48 253.46 910.42
  Z"
/>
<path fill="#6d727e" d="
  M 356.56 925.73
  C 347.57 923.77 339.95 916.14 340.49 906.73
  C 340.85 900.56 345.77 897.09 351.38 895.88
  Q 368.14 892.25 385.24 894.44
  C 391.66 895.26 399.23 896.87 404.04 901.20
  C 408.32 905.05 407.18 911.46 403.77 915.06
  C 392.65 926.77 371.07 928.90 356.56 925.73
  Z"
/>
<path fill="#8f8d89" d="
  M 947.37 939.23
  C 948.58 942.69 945.17 946.80 942.36 948.63
  Q 937.87 951.54 930.82 953.06
  Q 911.74 957.15 892.10 956.03
  C 882.00 955.46 857.88 955.33 862.84 937.47
  C 865.09 929.35 875.47 926.84 882.43 926.12
  Q 899.21 924.37 917.05 925.73
  C 925.84 926.39 944.10 929.85 947.37 939.23
  Z"
/>
<path fill="#6d727e" d="
  M 779.01 958.43
  C 772.33 957.41 752.10 952.69 754.93 942.18
  C 757.85 931.37 785.05 926.86 792.77 926.49
  Q 800.64 926.11 811.22 926.70
  C 820.95 927.24 830.66 929.00 838.54 934.19
  C 842.18 936.59 845.15 940.11 844.38 944.81
  C 842.94 953.67 826.62 957.46 819.89 958.57
  Q 800.63 961.75 779.01 958.43
  Z"
/>
<path fill="#545e71" d="
  M 694.21 926.63
  C 706.56 926.59 723.03 929.49 730.84 940.14
  Q 733.70 944.03 732.14 948.17
  A 2.57 2.49 79.1 0 1 731.54 949.09
  C 727.52 952.95 721.87 954.61 716.62 955.69
  Q 706.77 957.70 694.29 957.73
  Q 681.81 957.76 671.94 955.80
  C 666.69 954.75 661.03 953.12 656.99 949.28
  A 2.57 2.49 -79.4 0 1 656.38 948.37
  Q 654.80 944.24 657.64 940.33
  C 665.39 929.64 681.85 926.66 694.21 926.63
  Z"
/>
<path fill="#6d727e" d="
  M 594.54 962.29
  C 581.98 962.24 570.03 960.73 558.75 955.87
  Q 556.28 954.80 552.15 950.45
  A 2.81 2.79 11.1 0 1 551.65 949.71
  C 546.64 938.92 561.89 932.83 569.52 930.83
  Q 580.12 928.06 594.69 928.13
  Q 609.26 928.19 619.84 931.05
  C 627.45 933.11 642.65 939.33 637.55 950.08
  A 2.81 2.79 -10.6 0 1 637.04 950.81
  Q 632.87 955.13 630.39 956.17
  C 619.07 960.94 607.11 962.35 594.54 962.29
  Z"
/>
<path fill="#4a556b" d="
  M 972.64 934.34
  C 976.60 931.68 982.77 930.32 987.62 929.86
  Q 1010.21 927.75 1031.04 936.71
  C 1036.76 939.17 1045.22 947.42 1037.07 953.06
  C 1031.26 957.10 1022.55 958.05 1015.24 958.34
  C 1002.71 958.84 990.04 958.42 978.50 955.00
  C 975.65 954.16 970.48 952.14 968.44 949.49
  C 964.07 943.80 967.33 937.91 972.64 934.34
  Z"
/>
<path fill="#6d727e" d="
  M 1138.92 935.47
  C 1152.37 929.54 1170.74 928.30 1185.00 930.25
  C 1193.92 931.47 1207.25 935.83 1205.55 947.59
  C 1204.51 954.74 1194.82 957.63 1188.69 958.43
  Q 1165.82 961.42 1144.77 955.88
  Q 1140.82 954.85 1137.25 952.85
  C 1127.65 947.48 1129.81 939.49 1138.92 935.47
  Z"
/>
<path fill="#6d727e" d="
  M 533.76 947.10
  C 531.54 956.44 514.56 959.09 506.75 959.27
  C 497.23 959.50 456.92 961.57 460.19 943.15
  C 461.71 934.63 472.68 931.49 480.37 930.60
  Q 501.47 928.15 521.15 933.10
  C 527.96 934.82 535.72 938.82 533.76 947.10
  Z"
/>
<path fill="#4a556b" d="
  M 1536.00 932.30
  L 1536.00 956.42
  Q 1532.38 956.92 1528.74 957.12
  Q 1519.06 957.67 1510.28 957.45
  C 1502.09 957.26 1483.33 955.24 1487.49 942.77
  C 1489.99 935.29 1499.97 932.47 1507.01 931.45
  Q 1521.80 929.30 1536.00 932.30
  Z"
/>
<path fill="#545e71" d="
  M 1113.12 951.80
  Q 1108.31 955.51 1101.19 956.68
  C 1088.06 958.83 1074.52 958.78 1061.48 955.75
  C 1057.52 954.82 1052.20 952.40 1052.09 947.31
  C 1051.89 937.90 1059.20 933.76 1067.39 932.22
  Q 1086.54 928.67 1104.42 933.92
  Q 1107.92 934.96 1111.65 937.66
  C 1116.61 941.26 1118.67 947.49 1113.12 951.80
  Z"
/>
<path fill="#6d727e" d="
  M 1367.44 946.74
  C 1368.06 954.27 1355.36 958.11 1349.81 959.09
  Q 1332.87 962.05 1315.87 959.62
  C 1307.67 958.44 1293.12 953.98 1299.36 942.10
  C 1302.07 936.94 1308.39 933.99 1314.57 932.78
  Q 1333.46 929.07 1351.36 933.31
  C 1357.74 934.82 1366.84 939.42 1367.44 946.74
  Z"
/>
<path fill="#4a556b" d="
  M 437.22 938.99
  C 442.32 942.68 444.45 949.09 438.74 953.52
  Q 433.80 957.34 426.48 958.55
  C 412.99 960.77 399.07 960.72 385.66 957.62
  C 381.59 956.67 376.12 954.18 376.00 948.95
  C 375.79 939.28 383.30 935.01 391.72 933.43
  Q 411.40 929.76 429.79 935.15
  Q 433.39 936.21 437.22 938.99
  Z"
/>
<path fill="#545e71" d="
  M 1419.25 963.03
  C 1410.46 962.80 1390.28 960.72 1386.71 950.87
  C 1384.91 945.90 1389.77 939.78 1393.61 937.35
  Q 1399.82 933.42 1408.28 932.54
  Q 1431.26 930.16 1452.09 936.67
  C 1457.11 938.23 1464.49 941.62 1467.64 946.32
  C 1471.92 952.70 1465.21 958.27 1459.46 959.83
  Q 1448.38 962.84 1439.85 963.07
  Q 1430.63 963.31 1419.25 963.03
  Z"
/>
<path fill="#4a556b" d="
  M 1282.74 945.72
  C 1283.40 953.81 1273.05 956.61 1266.82 957.54
  Q 1247.94 960.35 1230.42 956.77
  C 1225.19 955.71 1219.78 952.47 1219.61 946.06
  C 1219.41 938.60 1227.42 934.76 1233.96 933.50
  Q 1237.27 932.86 1244.67 932.49
  Q 1256.65 931.89 1267.24 933.99
  C 1272.88 935.11 1282.19 939.03 1282.74 945.72
  Z"
/>
<path fill="#545e71" d="
  M 138.75 953.69
  C 135.91 943.77 150.37 937.38 157.67 935.73
  C 170.17 932.91 213.52 930.16 215.78 948.93
  C 216.74 956.83 211.61 960.11 204.91 961.90
  Q 198.57 963.59 192.49 963.77
  Q 178.61 964.19 164.01 963.44
  C 157.78 963.12 140.83 960.95 138.75 953.69
  Z"
/>
<path fill="#6d727e" d="
  M 87.01 964.63
  C 79.23 964.83 72.05 964.48 64.48 962.85
  C 56.86 961.20 49.15 955.91 54.65 947.08
  C 60.16 938.24 76.70 935.92 86.24 935.67
  C 95.77 935.41 112.41 936.85 118.38 945.38
  C 124.35 953.91 116.93 959.60 109.40 961.65
  C 101.94 963.69 94.79 964.42 87.01 964.63
  Z"
/>

</svg>