<?xml version="1.0" encoding="UTF-8" standalone="no"?>
<!DOCTYPE svg PUBLIC "-//W3C//DTD SVG 1.1//EN" "http://www.w3.org/Graphics/SVG/1.1/DTD/svg11.dtd">
<svg xmlns="http://www.w3.org/2000/svg" version="1.1" viewBox="0.00 0.00 1536.00 1024.00" preserveAspectRatio="none">

<g stroke-width="2.00" fill="none" stroke-linecap="butt">
<path stroke="#385078" vector-effect="non-scaling-stroke" d="
  M 0.00 946.14
  C 2.50 949.40 9.09 950.71 12.82 951.14
  Q 27.78 952.86 42.00 950.91
  C 46.36 950.31 56.45 947.66 58.78 943.29
  C 62.88 935.57 52.98 930.34 46.65 928.88
  Q 38.82 927.08 28.28 927.09
  Q 16.98 927.10 13.72 927.54
  Q 6.25 928.56 0.00 932.19"
/>
</g>

<path fill="#55647e" d="
  M 0.00 946.14
  L 0.00 932.19
  Q 6.25 928.56 13.72 927.54
  Q 16.98 927.10 28.28 927.09
  Q 38.82 927.08 46.65 928.88
  C 52.98 930.34 62.88 935.57 58.78 943.29
  C 56.45 947.66 46.36 950.31 42.00 950.91
  Q 27.78 952.86 12.82 951.14
  C 9.09 950.71 2.50 949.40 0.00 946.14
  Z"
/>

</svg>