<?xml version="1.0" encoding="UTF-8" standalone="no"?>
<!DOCTYPE svg PUBLIC "-//W3C//DTD SVG 1.1//EN" "http://www.w3.org/Graphics/SVG/1.1/DTD/svg11.dtd">
<svg xmlns="http://www.w3.org/2000/svg" version="1.1" viewBox="0.00 0.00 1536.00 1024.00">

<g stroke-width="2.00" fill="none" stroke-linecap="butt">
<path stroke="#385078" vector-effect="non-scaling-stroke" d="
  M 0.00 946.14
  C 2.50 949.40 9.09 950.71 12.82 951.14
  Q 27.78 952.86 42.00 950.91
  C 46.36 950.31 56.45 947.66 58.78 943.29
  C 62.88 935.57 52.98 930.34 46.65 928.88
  Q 38.82 927.08 28.28 927.09
  Q 16.98 927.10 13.72 927.54
  Q 6.25 928.56 0.00 932.19"
/>
</g>

<path fill="#55647e" d="
  M 0.00 946.14
  L 0.00 932.19
  Q 6.25 928.56 13.72 927.54
  Q 16.98 927.10 28.28 927.09
  Q 38.82 927.08 46.65 928.88
  C 52.98 930.34 62.88 935.57 58.78 943.29
  C 56.45 947.66 46.36 950.31 42.00 950.91
  Q 27.78 952.86 12.82 951.14
  C 9.09 950.71 2.50 949.40 0.00 946.14
  Z"
/>
<path d="
  M 1195.53 891.52
  C 1207.15 891.62 1219.38 892.08 1228.99 896.80
  C 1238.36 901.41 1234.08 908.62 1226.54 911.13
  C 1216.39 914.50 1206.00 914.91 1195.33 914.82
  C 1184.66 914.72 1174.28 914.13 1164.19 910.58
  C 1156.69 907.94 1152.54 900.66 1161.98 896.22
  C 1171.68 891.66 1183.92 891.42 1195.53 891.52
  Z"
/>
<path d="
  M 1350.43 893.79
  C 1356.89 894.04 1362.56 894.66 1368.92 896.44
  C 1375.84 898.37 1384.62 904.36 1377.81 912.25
  Q 1376.10 914.23 1370.70 916.12
  Q 1361.20 919.46 1349.44 919.00
  Q 1337.69 918.54 1328.48 914.47
  Q 1323.24 912.17 1321.69 910.06
  C 1315.52 901.67 1324.74 896.38 1331.78 894.99
  C 1338.26 893.71 1343.96 893.54 1350.43 893.79
  Z"
/>
<path d="
  M 1042.16 904.18
  Q 1050.73 904.23 1056.73 904.98
  C 1060.15 905.41 1068.04 907.65 1068.02 911.95
  C 1067.99 916.24 1060.07 918.39 1056.65 918.78
  Q 1050.64 919.46 1042.07 919.41
  Q 1033.50 919.36 1027.49 918.61
  C 1024.08 918.18 1016.18 915.94 1016.21 911.65
  C 1016.23 907.35 1024.15 905.20 1027.57 904.81
  Q 1033.58 904.13 1042.16 904.18
  Z"
/>
<path d="
  M 758.34 914.20
  C 761.34 916.28 759.42 919.80 756.87 921.15
  Q 753.79 922.79 749.43 923.94
  C 737.29 927.14 723.67 927.85 711.98 927.27
  Q 702.87 926.82 693.97 922.48
  C 691.28 921.17 688.44 918.87 688.59 915.80
  C 688.96 907.99 702.76 906.22 709.27 906.22
  C 723.20 906.22 735.59 908.00 748.49 910.24
  Q 754.00 911.20 758.34 914.20
  Z"
/>
<path d="
  M 262.02 922.39
  C 260.87 926.75 255.97 930.29 251.61 931.60
  Q 229.80 938.13 206.57 932.66
  C 199.93 931.10 191.48 925.80 197.90 917.96
  C 204.44 909.97 217.31 910.23 226.55 909.83
  Q 239.71 909.26 251.42 912.09
  C 255.56 913.09 263.48 916.84 262.02 922.39
  Z"
/>
<path d="
  M 441.57 911.97
  Q 448.90 912.19 455.50 913.24
  C 460.78 914.08 471.98 917.91 469.75 925.86
  C 467.59 933.55 454.65 936.60 447.73 936.90
  Q 442.76 937.11 440.84 937.05
  Q 438.91 937.00 433.97 936.49
  C 427.08 935.80 414.33 932.00 412.63 924.20
  C 410.86 916.13 422.27 912.96 427.59 912.43
  Q 434.23 911.76 441.57 911.97
  Z"
/>
<path d="
  M 1130.97 933.49
  C 1128.84 937.02 1123.65 938.46 1119.41 939.38
  C 1110.86 941.22 1100.95 942.37 1091.61 942.42
  C 1084.08 942.47 1054.97 945.51 1053.74 933.43
  C 1053.32 929.36 1058.49 926.09 1061.95 925.20
  Q 1067.27 923.83 1072.25 923.51
  Q 1092.93 922.16 1109.02 922.25
  C 1115.61 922.29 1123.52 922.59 1128.20 926.06
  C 1130.40 927.69 1132.64 930.71 1130.97 933.49
  Z"
/>
<path d="
  M 558.18 938.04
  C 556.50 933.60 564.37 929.32 567.62 928.23
  C 579.15 924.34 591.86 924.00 603.75 925.51
  C 608.37 926.10 618.17 928.55 619.76 933.96
  Q 621.29 939.15 616.77 942.58
  A 3.96 3.75 14.1 0 1 615.90 943.07
  Q 609.14 945.76 601.43 945.88
  Q 591.65 946.04 578.75 945.78
  Q 573.21 945.67 568.15 944.58
  C 563.49 943.58 559.85 942.44 558.18 938.04
  Z"
/>
<path d="
  M 313.50 925.18
  C 325.21 925.11 337.55 925.40 347.31 930.03
  C 356.81 934.54 352.61 941.87 345.04 944.50
  C 334.85 948.05 324.38 948.61 313.62 948.67
  C 302.86 948.72 292.39 948.28 282.16 944.84
  C 274.57 942.29 270.28 935.00 279.74 930.39
  C 289.45 925.65 301.78 925.24 313.50 925.18
  Z"
/>
<path d="
  M 176.34 935.25
  C 177.39 937.74 174.87 940.21 172.72 941.26
  Q 168.68 943.21 164.12 943.88
  Q 150.41 945.88 136.00 944.70
  Q 134.84 944.61 131.12 943.74
  C 124.19 942.11 123.77 934.78 129.41 931.24
  Q 133.11 928.92 137.33 928.30
  Q 151.77 926.19 165.81 929.19
  C 169.50 929.98 174.85 931.72 176.34 935.25
  Z"
/>
<path d="
  M 767.88 952.49
  C 756.18 952.57 743.86 952.32 734.10 947.72
  C 724.59 943.23 728.78 935.90 736.34 933.26
  C 746.50 929.69 756.95 929.11 767.70 929.02
  C 778.45 928.94 788.91 929.37 799.13 932.78
  C 806.72 935.31 811.02 942.57 801.58 947.20
  C 791.89 951.95 779.58 952.40 767.88 952.49
  Z"
/>
<path d="
  M 386.50 936.83
  C 394.44 936.92 401.69 936.54 408.82 940.11
  C 412.45 941.92 413.98 946.14 409.70 948.47
  C 403.33 951.93 393.57 952.12 386.25 952.04
  C 378.31 951.95 371.06 952.33 363.92 948.76
  C 360.30 946.95 358.77 942.73 363.05 940.40
  C 369.42 936.93 379.18 936.75 386.50 936.83
  Z"
/>
<path d="
  M 1436.95 925.16
  C 1436.94 932.48 1429.99 934.75 1423.80 935.78
  Q 1413.87 937.43 1403.25 936.41
  C 1395.58 935.68 1388.07 935.41 1382.40 929.89
  Q 1379.99 927.55 1380.32 924.72
  C 1380.91 919.71 1388.23 917.75 1392.57 917.34
  Q 1402.04 916.45 1411.41 916.59
  C 1419.07 916.71 1423.69 916.68 1430.09 918.41
  Q 1434.93 919.71 1436.70 923.92
  A 3.29 3.16 34.8 0 1 1436.95 925.16
  Z"
/>
<path d="
  M 1228.95 935.00
  C 1227.32 929.59 1236.94 926.96 1240.57 926.40
  Q 1257.01 923.85 1274.50 925.50
  C 1278.92 925.92 1283.61 927.27 1287.17 930.05
  C 1289.89 932.17 1290.65 935.49 1287.90 938.08
  Q 1286.26 939.62 1282.18 940.84
  Q 1277.52 942.24 1270.25 942.51
  Q 1251.82 943.18 1238.20 940.59
  C 1234.82 939.94 1230.03 938.61 1228.95 935.00
  Z"
/>
<path d="
  M 1515.04 939.99
  C 1514.92 947.42 1502.57 950.38 1496.50 951.03
  C 1482.74 952.50 1467.95 952.44 1454.88 948.12
  C 1450.89 946.80 1444.36 943.45 1444.44 938.83
  C 1444.52 934.20 1451.15 931.07 1455.18 929.88
  C 1468.39 926.00 1483.17 926.43 1496.87 928.36
  C 1502.92 929.21 1515.16 932.57 1515.04 939.99
  Z"
/>
<path d="
  M 1387.16 946.12
  C 1387.17 954.32 1365.42 955.07 1359.00 955.24
  Q 1358.75 955.25 1334.75 955.45
  Q 1326.18 955.52 1318.84 953.30
  Q 1312.23 951.30 1312.23 946.17
  Q 1312.22 941.03 1318.83 939.02
  Q 1326.17 936.79 1334.74 936.85
  Q 1358.74 937.03 1358.99 937.03
  C 1365.41 937.20 1387.16 937.93 1387.16 946.12
  Z"
/>
<path d="
  M 363.11 897.38
  C 374.39 897.38 386.29 897.71 395.67 902.22
  C 404.81 906.62 400.71 913.66 393.41 916.16
  C 383.57 919.53 373.48 920.02 363.11 920.02
  C 352.74 920.02 342.65 919.54 332.82 916.17
  C 325.51 913.68 321.42 906.64 330.55 902.24
  C 339.93 897.72 351.82 897.38 363.11 897.38
  Z"
/>
<path d="
  M 792.57 910.04
  Q 794.44 905.79 800.37 904.63
  Q 806.49 903.43 809.25 903.41
  Q 838.92 903.24 842.74 903.44
  C 848.52 903.74 856.41 908.43 851.53 915.19
  C 849.06 918.61 842.89 920.17 837.97 920.32
  Q 823.36 920.78 809.78 919.88
  C 804.89 919.56 792.40 917.78 792.32 911.25
  A 2.88 2.82 -33.9 0 1 792.57 910.04
  Z"
/>
<path d="
  M 572.23 913.91
  C 572.16 920.76 562.11 922.48 556.25 922.48
  Q 539.53 922.49 532.51 921.92
  C 526.70 921.45 508.30 920.68 508.37 913.27
  C 508.44 905.86 526.86 905.45 532.68 905.10
  Q 539.71 904.67 556.42 905.01
  C 562.28 905.13 572.30 907.05 572.23 913.91
  Z"
/>
<path d="
  M 975.74 920.01
  C 977.22 926.56 961.60 930.11 957.23 930.82
  Q 944.31 932.92 929.49 931.89
  C 923.97 931.50 897.93 928.59 904.08 917.32
  C 906.46 912.95 915.01 911.26 919.43 910.82
  C 928.94 909.87 972.96 907.73 975.74 920.01
  Z"
/>
<path d="
  M 69.59 918.71
  C 74.49 911.62 86.98 911.80 94.83 911.86
  C 104.26 911.93 112.62 912.21 119.88 916.81
  C 121.33 917.73 123.37 919.69 123.61 921.86
  C 124.54 930.25 106.12 931.60 100.75 931.74
  Q 90.00 932.03 79.58 931.82
  C 74.79 931.72 69.71 929.31 68.55 924.44
  Q 67.81 921.30 69.59 918.71
  Z"
/>
<path d="
  M 674.35 930.14
  A 0.39 0.39 0.0 0 1 673.94 930.62
  Q 663.10 929.75 642.26 929.82
  Q 632.84 929.85 625.10 926.00
  Q 623.72 925.31 622.28 922.46
  C 616.68 911.41 661.47 913.30 666.77 913.42
  Q 672.57 913.54 676.14 917.86
  C 678.17 920.33 674.79 922.53 673.44 924.54
  A 1.27 1.26 55.6 0 0 673.26 925.52
  L 674.35 930.14
  Z"
/>
<path d="
  M 828.33 937.80
  Q 829.11 935.53 832.98 934.17
  Q 855.58 926.22 879.27 926.34
  C 885.26 926.37 899.12 927.14 899.88 935.51
  C 900.65 943.97 886.48 945.73 880.64 946.35
  Q 859.28 948.61 839.77 945.81
  C 835.50 945.19 826.34 943.60 828.33 937.80
  Z"
/>
<path d="
  M 1172.95 954.73
  C 1161.24 954.65 1148.91 954.21 1139.21 949.46
  C 1129.77 944.83 1134.06 937.55 1141.66 935.02
  C 1151.89 931.60 1162.36 931.17 1173.12 931.25
  C 1183.87 931.32 1194.34 931.90 1204.51 935.47
  C 1212.08 938.11 1216.27 945.45 1206.76 949.94
  C 1196.99 954.55 1184.66 954.81 1172.95 954.73
  Z"
/>

</svg>