<?xml version="1.0" encoding="UTF-8" standalone="no"?>
<!DOCTYPE svg PUBLIC "-//W3C//DTD SVG 1.1//EN" "http://www.w3.org/Graphics/SVG/1.1/DTD/svg11.dtd">
<svg preserveAspectRatio="none" xmlns="http://www.w3.org/2000/svg" version="1.1" viewBox="0.00 634.39 1556.00 101.06">
<g stroke-width="2.00" fill="none" stroke-linecap="butt">
<path stroke="#b5b8cb" vector-effect="non-scaling-stroke" d="
  M 1536.00 644.39
  L 0.00 644.42"
/>
<path stroke="#b5b8cb" vector-effect="non-scaling-stroke" d="
  M 1536.00 646.50
  Q 1535.69 646.56 1535.80 647.18"
/>
<path stroke="#8d92b4" vector-effect="non-scaling-stroke" d="
  M 1535.80 647.18
  L 1324.10 647.38
  A 0.51 0.50 -14.4 0 0 1323.65 648.13
  C 1324.42 649.51 1326.84 651.04 1329.12 652.64
  Q 1331.25 654.14 1333.63 656.66
  Q 1335.92 659.08 1341.46 663.06
  C 1346.53 666.70 1352.93 673.06 1357.61 676.98
  Q 1367.30 685.08 1375.80 691.94
  Q 1379.26 694.73 1382.35 697.98"
/>
<path stroke="#53597a" vector-effect="non-scaling-stroke" d="
  M 1382.35 697.98
  L 1377.96 697.99"
/>
<path stroke="#8d92b4" vector-effect="non-scaling-stroke" d="
  M 1377.96 697.99
  Q 1378.03 697.85 1378.06 697.74
  A 0.27 0.26 16.5 0 0 1377.89 697.44
  Q 1376.90 697.08 1375.92 696.34
  C 1369.47 691.44 1363.07 685.28 1356.39 679.89
  Q 1345.49 671.09 1336.21 662.97
  C 1332.37 659.61 1327.02 655.98 1323.64 652.46
  Q 1323.62 652.44 1318.47 648.18
  A 2.15 2.12 66.2 0 0 1317.29 647.71
  Q 1313.56 647.44 1313.05 647.46
  Q 1302.35 647.96 1291.17 647.70
  Q 1279.30 647.42 1273.34 647.42
  C 1221.78 647.40 1195.44 646.98 1153.93 647.51
  C 1131.18 647.80 1104.94 647.28 1081.01 647.49
  A 0.72 0.72 0.0 0 0 1080.43 648.63
  L 1115.28 697.88"
/>
<path stroke="#53597a" vector-effect="non-scaling-stroke" d="
  M 1115.28 697.88
  Q 1113.62 698.37 1111.71 698.00"
/>
<path stroke="#8d92b4" vector-effect="non-scaling-stroke" d="
  M 1111.71 698.00
  L 1075.98 648.38
  A 2.25 2.24 -17.8 0 0 1074.16 647.45
  L 887.70 647.45
  A 0.57 0.56 82.8 0 0 887.16 648.16
  L 900.25 697.91"
/>
<path stroke="#53597a" vector-effect="non-scaling-stroke" d="
  M 900.25 697.91
  L 896.31 697.93"
/>
<path stroke="#8d92b4" vector-effect="non-scaling-stroke" d="
  M 896.31 697.93
  L 883.43 648.03
  A 0.76 0.76 0.0 0 0 882.70 647.47
  L 680.17 647.47
  A 0.88 0.88 0.0 0 0 679.32 648.11
  L 665.61 697.12
  A 0.58 0.58 0.0 0 0 666.17 697.85
  L 687.04 697.85"
/>
<path stroke="#53597a" vector-effect="non-scaling-stroke" d="
  M 687.04 697.85
  L 661.69 697.89"
/>
<path stroke="#8d92b4" vector-effect="non-scaling-stroke" d="
  M 661.69 697.89
  L 675.19 648.43
  A 0.80 0.80 0.0 0 0 674.40 647.42
  Q 662.86 647.70 648.50 647.43
  Q 646.84 647.40 587.50 647.39
  Q 557.96 647.39 494.75 647.43
  Q 493.12 647.43 490.82 647.90
  A 1.07 1.04 6.2 0 0 490.09 648.47
  C 487.98 652.79 484.12 657.13 481.57 661.39
  Q 476.81 669.35 467.58 683.72
  C 464.68 688.23 462.64 692.90 459.57 697.12
  A 0.46 0.45 22.1 0 0 459.88 697.84
  L 460.29 697.91"
/>
<path stroke="#53597a" vector-effect="non-scaling-stroke" d="
  M 460.29 697.91
  L 455.48 698.06"
/>
<path stroke="#8d92b4" vector-effect="non-scaling-stroke" d="
  M 455.48 698.06
  Q 455.50 695.67 456.36 694.37
  Q 463.90 682.88 470.82 671.97
  C 472.66 669.07 474.63 666.42 476.57 662.49
  A 5.84 5.05 -25.4 0 1 476.96 661.81
  L 485.87 648.63
  A 0.63 0.63 0.0 0 0 485.36 647.65
  Q 420.64 647.25 369.00 647.40
  C 319.84 647.54 273.31 647.31 220.00 647.57
  C 217.85 647.58 216.35 647.60 214.89 649.07
  Q 208.88 655.09 202.79 659.79
  Q 200.28 661.72 193.18 668.21
  C 188.82 672.19 183.29 676.50 178.50 680.97
  Q 176.07 683.25 173.28 685.14
  A 4.53 4.30 -83.3 0 0 172.56 685.74
  Q 167.09 691.20 161.53 696.28
  Q 160.22 697.47 161.54 697.93"
/>
<path stroke="#53597a" vector-effect="non-scaling-stroke" d="
  M 161.54 697.93
  L 155.03 697.91"
/>
<path stroke="#8d92b4" vector-effect="non-scaling-stroke" d="
  M 155.03 697.91
  C 158.66 693.40 163.12 689.91 169.17 684.68
  C 171.98 682.26 174.08 679.76 176.50 677.98
  Q 178.82 676.27 182.18 673.19
  Q 189.69 666.32 198.74 659.42
  A 11.58 11.57 -88.5 0 0 200.52 657.73
  Q 203.81 653.78 210.48 649.00
  Q 211.12 648.54 211.42 647.95
  A 0.54 0.53 10.0 0 0 210.88 647.18
  Q 206.24 647.68 199.00 647.57
  Q 170.45 647.16 142.25 647.30
  Q 126.69 647.37 121.50 647.39
  Q 71.64 647.63 22.00 647.16
  Q 10.99 647.06 0.00 646.97"
/>
<path stroke="#d7d9e8" vector-effect="non-scaling-stroke" d="
  M 1536.00 666.08
  L 1535.80 647.18"
/>
<path stroke="#757a96" vector-effect="non-scaling-stroke" d="
  M 155.03 697.91
  L 0.00 697.94"
/>
<path stroke="#757a96" vector-effect="non-scaling-stroke" d="
  M 455.48 698.06
  L 161.54 697.93"
/>
<path stroke="#757a96" vector-effect="non-scaling-stroke" d="
  M 661.69 697.89
  L 460.29 697.91"
/>
<path stroke="#757a96" vector-effect="non-scaling-stroke" d="
  M 896.31 697.93
  L 687.04 697.85"
/>
<path stroke="#757a96" vector-effect="non-scaling-stroke" d="
  M 1111.71 698.00
  L 900.25 697.91"
/>
<path stroke="#757a96" vector-effect="non-scaling-stroke" d="
  M 1377.96 697.99
  L 1115.28 697.88"
/>
<path stroke="#757a96" vector-effect="non-scaling-stroke" d="
  M 1536.00 698.09
  L 1382.35 697.98"
/>
<path stroke="#757a96" vector-effect="non-scaling-stroke" d="
  M 1536.00 701.27
  L 1397.83 701.21
  A 0.59 0.59 0.0 0 0 1397.24 701.80
  L 1397.24 713.10
  A 0.64 0.64 0.0 0 0 1397.88 713.74
  L 1535.73 713.78"
/>
<path stroke="#9da0ae" vector-effect="non-scaling-stroke" d="
  M 1535.73 713.78
  Q 1535.86 713.75 1536.00 713.72"
/>
<path stroke="#9da0ae" vector-effect="non-scaling-stroke" d="
  M 1536.00 725.44
  L 0.00 725.45"
/>
<path stroke="#9da0ae" vector-effect="non-scaling-stroke" d="
  M 0.00 713.60
  Q 0.38 713.49 0.19 713.43"
/>
<path stroke="#757a96" vector-effect="non-scaling-stroke" d="
  M 0.19 713.43
  L 100.63 713.64
  A 0.43 0.43 0.0 0 0 101.06 713.21
  L 101.06 701.83
  A 0.39 0.39 0.0 0 0 100.67 701.44
  L 0.00 701.37"
/>
<path stroke="#d7d9e8" vector-effect="non-scaling-stroke" d="
  M 0.19 713.43
  Q 0.00 712.93 0.00 712.37"
/>
<path stroke="#d7d9e8" vector-effect="non-scaling-stroke" d="
  M 1536.00 712.72
  L 1535.73 713.78"
/>
</g>

<path fill="#3a405c" d="
  M 155.03 697.91
  L 161.54 697.93
  L 455.48 698.06
  L 460.29 697.91
  L 661.69 697.89
  L 687.04 697.85
  L 896.31 697.93
  L 900.25 697.91
  L 1111.71 698.00
  Q 1113.62 698.37 1115.28 697.88
  L 1377.96 697.99
  L 1382.35 697.98
  L 1536.00 698.09
  L 1536.00 701.27
  L 1397.83 701.21
  A 0.59 0.59 0.0 0 0 1397.24 701.80
  L 1397.24 713.10
  A 0.64 0.64 0.0 0 0 1397.88 713.74
  L 1535.73 713.78
  Q 1535.86 713.75 1536.00 713.72
  L 1536.00 725.44
  L 0.00 725.45
  L 0.00 713.60
  Q 0.38 713.49 0.19 713.43
  L 100.63 713.64
  A 0.43 0.43 0.0 0 0 101.06 713.21
  L 101.06 701.83
  A 0.39 0.39 0.0 0 0 100.67 701.44
  L 0.00 701.37
  L 0.00 697.94
  L 155.03 697.91
  Z"
/>
<g fill="#afb3d0">
<path d="
  M 155.03 697.91
  L 0.00 697.94
  L 0.00 646.97
  Q 10.99 647.06 22.00 647.16
  Q 71.64 647.63 121.50 647.39
  Q 126.69 647.37 142.25 647.30
  Q 170.45 647.16 199.00 647.57
  Q 206.24 647.68 210.88 647.18
  A 0.54 0.53 10.0 0 1 211.42 647.95
  Q 211.12 648.54 210.48 649.00
  Q 203.81 653.78 200.52 657.73
  A 11.58 11.57 -88.5 0 1 198.74 659.42
  Q 189.69 666.32 182.18 673.19
  Q 178.82 676.27 176.50 677.98
  C 174.08 679.76 171.98 682.26 169.17 684.68
  C 163.12 689.91 158.66 693.40 155.03 697.91
  Z"
/>
<path d="
  M 455.48 698.06
  L 161.54 697.93
  Q 160.22 697.47 161.53 696.28
  Q 167.09 691.20 172.56 685.74
  A 4.53 4.30 -83.3 0 1 173.28 685.14
  Q 176.07 683.25 178.50 680.97
  C 183.29 676.50 188.82 672.19 193.18 668.21
  Q 200.28 661.72 202.79 659.79
  Q 208.88 655.09 214.89 649.07
  C 216.35 647.60 217.85 647.58 220.00 647.57
  C 273.31 647.31 319.84 647.54 369.00 647.40
  Q 420.64 647.25 485.36 647.65
  A 0.63 0.63 0.0 0 1 485.87 648.63
  L 476.96 661.81
  A 5.84 5.05 -25.4 0 0 476.57 662.49
  C 474.63 666.42 472.66 669.07 470.82 671.97
  Q 463.90 682.88 456.36 694.37
  Q 455.50 695.67 455.48 698.06
  Z"
/>
<path d="
  M 661.69 697.89
  L 460.29 697.91
  L 459.88 697.84
  A 0.46 0.45 22.1 0 1 459.57 697.12
  C 462.64 692.90 464.68 688.23 467.58 683.72
  Q 476.81 669.35 481.57 661.39
  C 484.12 657.13 487.98 652.79 490.09 648.47
  A 1.07 1.04 6.2 0 1 490.82 647.90
  Q 493.12 647.43 494.75 647.43
  Q 557.96 647.39 587.50 647.39
  Q 646.84 647.40 648.50 647.43
  Q 662.86 647.70 674.40 647.42
  A 0.80 0.80 0.0 0 1 675.19 648.43
  L 661.69 697.89
  Z"
/>
<path d="
  M 896.31 697.93
  L 687.04 697.85
  L 666.17 697.85
  A 0.58 0.58 0.0 0 1 665.61 697.12
  L 679.32 648.11
  A 0.88 0.88 0.0 0 1 680.17 647.47
  L 882.70 647.47
  A 0.76 0.76 0.0 0 1 883.43 648.03
  L 896.31 697.93
  Z"
/>
<path d="
  M 1111.71 698.00
  L 900.25 697.91
  L 887.16 648.16
  A 0.57 0.56 82.8 0 1 887.70 647.45
  L 1074.16 647.45
  A 2.25 2.24 -17.8 0 1 1075.98 648.38
  L 1111.71 698.00
  Z"
/>
<path d="
  M 1377.96 697.99
  L 1115.28 697.88
  L 1080.43 648.63
  A 0.72 0.72 0.0 0 1 1081.01 647.49
  C 1104.94 647.28 1131.18 647.80 1153.93 647.51
  C 1195.44 646.98 1221.78 647.40 1273.34 647.42
  Q 1279.30 647.42 1291.17 647.70
  Q 1302.35 647.96 1313.05 647.46
  Q 1313.56 647.44 1317.29 647.71
  A 2.15 2.12 66.2 0 1 1318.47 648.18
  Q 1323.62 652.44 1323.64 652.46
  C 1327.02 655.98 1332.37 659.61 1336.21 662.97
  Q 1345.49 671.09 1356.39 679.89
  C 1363.07 685.28 1369.47 691.44 1375.92 696.34
  Q 1376.90 697.08 1377.89 697.44
  A 0.27 0.26 16.5 0 1 1378.06 697.74
  Q 1378.03 697.85 1377.96 697.99
  Z"
/>
<path d="
  M 1535.80 647.18
  L 1536.00 666.08
  L 1536.00 698.09
  L 1382.35 697.98
  Q 1379.26 694.73 1375.80 691.94
  Q 1367.30 685.08 1357.61 676.98
  C 1352.93 673.06 1346.53 666.70 1341.46 663.06
  Q 1335.92 659.08 1333.63 656.66
  Q 1331.25 654.14 1329.12 652.64
  C 1326.84 651.04 1324.42 649.51 1323.65 648.13
  A 0.51 0.50 -14.4 0 1 1324.10 647.38
  L 1535.80 647.18
  Z"
/>
<path d="
  M 0.19 713.43
  Q 0.00 712.93 0.00 712.37
  L 0.00 701.37
  L 100.67 701.44
  A 0.39 0.39 0.0 0 1 101.06 701.83
  L 101.06 713.21
  A 0.43 0.43 0.0 0 1 100.63 713.64
  L 0.19 713.43
  Z"
/>
<path d="
  M 1536.00 701.27
  L 1536.00 712.72
  L 1535.73 713.78
  L 1397.88 713.74
  A 0.64 0.64 0.0 0 1 1397.24 713.10
  L 1397.24 701.80
  A 0.59 0.59 0.0 0 1 1397.83 701.21
  L 1536.00 701.27
  Z"
/>
</g>
<path fill="#6b7197" d="
  M 1536.00 644.39
  L 1536.00 646.50
  Q 1535.69 646.56 1535.80 647.18
  L 1324.10 647.38
  A 0.51 0.50 -14.4 0 0 1323.65 648.13
  C 1324.42 649.51 1326.84 651.04 1329.12 652.64
  Q 1331.25 654.14 1333.63 656.66
  Q 1335.92 659.08 1341.46 663.06
  C 1346.53 666.70 1352.93 673.06 1357.61 676.98
  Q 1367.30 685.08 1375.80 691.94
  Q 1379.26 694.73 1382.35 697.98
  L 1377.96 697.99
  Q 1378.03 697.85 1378.06 697.74
  A 0.27 0.26 16.5 0 0 1377.89 697.44
  Q 1376.90 697.08 1375.92 696.34
  C 1369.47 691.44 1363.07 685.28 1356.39 679.89
  Q 1345.49 671.09 1336.21 662.97
  C 1332.37 659.61 1327.02 655.98 1323.64 652.46
  Q 1323.62 652.44 1318.47 648.18
  A 2.15 2.12 66.2 0 0 1317.29 647.71
  Q 1313.56 647.44 1313.05 647.46
  Q 1302.35 647.96 1291.17 647.70
  Q 1279.30 647.42 1273.34 647.42
  C 1221.78 647.40 1195.44 646.98 1153.93 647.51
  C 1131.18 647.80 1104.94 647.28 1081.01 647.49
  A 0.72 0.72 0.0 0 0 1080.43 648.63
  L 1115.28 697.88
  Q 1113.62 698.37 1111.71 698.00
  L 1075.98 648.38
  A 2.25 2.24 -17.8 0 0 1074.16 647.45
  L 887.70 647.45
  A 0.57 0.56 82.8 0 0 887.16 648.16
  L 900.25 697.91
  L 896.31 697.93
  L 883.43 648.03
  A 0.76 0.76 0.0 0 0 882.70 647.47
  L 680.17 647.47
  A 0.88 0.88 0.0 0 0 679.32 648.11
  L 665.61 697.12
  A 0.58 0.58 0.0 0 0 666.17 697.85
  L 687.04 697.85
  L 661.69 697.89
  L 675.19 648.43
  A 0.80 0.80 0.0 0 0 674.40 647.42
  Q 662.86 647.70 648.50 647.43
  Q 646.84 647.40 587.50 647.39
  Q 557.96 647.39 494.75 647.43
  Q 493.12 647.43 490.82 647.90
  A 1.07 1.04 6.2 0 0 490.09 648.47
  C 487.98 652.79 484.12 657.13 481.57 661.39
  Q 476.81 669.35 467.58 683.72
  C 464.68 688.23 462.64 692.90 459.57 697.12
  A 0.46 0.45 22.1 0 0 459.88 697.84
  L 460.29 697.91
  L 455.48 698.06
  Q 455.50 695.67 456.36 694.37
  Q 463.90 682.88 470.82 671.97
  C 472.66 669.07 474.63 666.42 476.57 662.49
  A 5.84 5.05 -25.4 0 1 476.96 661.81
  L 485.87 648.63
  A 0.63 0.63 0.0 0 0 485.36 647.65
  Q 420.64 647.25 369.00 647.40
  C 319.84 647.54 273.31 647.31 220.00 647.57
  C 217.85 647.58 216.35 647.60 214.89 649.07
  Q 208.88 655.09 202.79 659.79
  Q 200.28 661.72 193.18 668.21
  C 188.82 672.19 183.29 676.50 178.50 680.97
  Q 176.07 683.25 173.28 685.14
  A 4.53 4.30 -83.3 0 0 172.56 685.74
  Q 167.09 691.20 161.53 696.28
  Q 160.22 697.47 161.54 697.93
  L 155.03 697.91
  C 158.66 693.40 163.12 689.91 169.17 684.68
  C 171.98 682.26 174.08 679.76 176.50 677.98
  Q 178.82 676.27 182.18 673.19
  Q 189.69 666.32 198.74 659.42
  A 11.58 11.57 -88.5 0 0 200.52 657.73
  Q 203.81 653.78 210.48 649.00
  Q 211.12 648.54 211.42 647.95
  A 0.54 0.53 10.0 0 0 210.88 647.18
  Q 206.24 647.68 199.00 647.57
  Q 170.45 647.16 142.25 647.30
  Q 126.69 647.37 121.50 647.39
  Q 71.64 647.63 22.00 647.16
  Q 10.99 647.06 0.00 646.97
  L 0.00 644.42
  L 1536.00 644.39
  Z"
/>
<g fill="#afb3d0">
<rect x="284.51" y="701.25" width="169.04" height="12.52" rx="0.60"/>
<rect x="-58.02" y="-6.24" transform="translate(1053.47,707.52) rotate(-0.1)" width="116.04" height="12.48" rx="0.87"/>
<rect x="104.40" y="701.27" width="176.78" height="12.48" rx="0.83"/>
<rect x="457.24" y="701.31" width="134.48" height="12.46" rx="0.87"/>
<rect x="595.18" y="701.30" width="134.82" height="12.44" rx="0.90"/>
<rect x="-65.84" y="-6.21" transform="translate(799.25,707.55) rotate(-0.1)" width="131.68" height="12.42" rx="0.89"/>
<rect x="868.44" y="701.27" width="123.80" height="12.50" rx="0.93"/>
<rect x="1114.78" y="701.29" width="145.08" height="12.46" rx="0.82"/>
<rect x="-65.59" y="-6.26" transform="translate(1329.16,707.50) rotate(-0.1)" width="131.18" height="12.52" rx="1.10"/>
</g>
</svg>
