<?xml version="1.0" encoding="UTF-8" standalone="no"?>
<!DOCTYPE svg PUBLIC "-//W3C//DTD SVG 1.1//EN" "http://www.w3.org/Graphics/SVG/1.1/DTD/svg11.dtd">
<svg preserveAspectRatio="none" xmlns="http://www.w3.org/2000/svg" version="1.1" viewBox="0.00 722.97 1556.00 145.17">
<g stroke-width="2.00" fill="none" stroke-linecap="butt">
<path stroke="#a8b0cf" vector-effect="non-scaling-stroke" d="
  M 1536.00 732.97
  L 0.00 733.02"
/>
<path stroke="#5768a4" vector-effect="non-scaling-stroke" d="
  M 1536.00 735.87
  C 1526.42 736.66 1516.70 736.18 1509.28 737.07
  C 1503.78 737.73 1497.66 738.69 1493.74 742.32
  A 1.23 1.23 0.0 0 0 1493.90 744.25
  Q 1499.61 747.97 1506.62 749.14
  Q 1514.61 750.48 1524.87 751.89
  Q 1529.85 752.57 1536.00 751.23"
/>
<path stroke="#5768a4" vector-effect="non-scaling-stroke" d="
  M 1536.00 760.50
  Q 1531.00 762.10 1527.76 765.26
  A 2.46 2.46 0.0 0 0 1527.79 768.82
  L 1531.99 772.74"
/>
<path stroke="#495b98" vector-effect="non-scaling-stroke" d="
  M 1531.99 772.74
  Q 1527.13 769.78 1524.82 769.47
  Q 1520.97 768.96 1519.41 769.74
  Q 1511.10 773.92 1501.98 775.16"
/>
<path stroke="#5768a4" vector-effect="non-scaling-stroke" d="
  M 1501.98 775.16
  L 1487.79 770.58
  A 0.66 0.66 0.0 0 1 1487.66 769.39
  Q 1489.05 768.54 1491.21 768.17
  Q 1508.94 765.09 1517.37 763.43
  Q 1521.52 762.60 1524.60 760.32
  A 1.34 1.34 0.0 0 0 1524.50 758.10
  Q 1521.95 756.56 1518.88 755.63
  Q 1507.44 752.15 1495.35 752.39
  Q 1489.67 752.50 1484.93 755.64
  A 0.99 0.98 -32.1 0 0 1484.62 756.96
  L 1486.16 759.63
  A 0.36 0.36 0.0 0 1 1485.77 760.16
  C 1476.14 758.06 1467.39 759.53 1456.07 761.08
  Q 1447.60 762.24 1442.85 767.51
  A 2.18 2.13 70.3 0 0 1442.32 768.66
  Q 1442.16 769.85 1442.67 771.20
  A 1.65 1.64 -88.2 0 0 1443.52 772.11
  L 1448.96 774.54"
/>
<path stroke="#495b98" vector-effect="non-scaling-stroke" d="
  M 1448.96 774.54
  L 1431.04 778.21"
/>
<path stroke="#5768a4" vector-effect="non-scaling-stroke" d="
  M 1431.04 778.21
  C 1434.47 777.13 1441.45 773.14 1437.32 768.66
  C 1433.60 764.65 1428.55 763.45 1422.36 761.36
  A 7.42 7.38 54.1 0 0 1420.02 760.98
  Q 1417.27 760.99 1401.38 760.89
  Q 1388.29 760.80 1376.77 763.80
  C 1372.67 764.87 1367.99 766.26 1368.70 770.95
  C 1369.58 776.72 1384.25 779.85 1389.68 780.03
  C 1396.63 780.27 1403.09 780.92 1410.19 780.56
  Q 1417.24 780.21 1424.31 779.69"
/>
<path stroke="#495b98" vector-effect="non-scaling-stroke" d="
  M 1424.31 779.69
  Q 1417.49 781.54 1410.41 781.86
  C 1408.00 781.97 1404.87 782.39 1403.21 783.63
  C 1399.44 786.44 1397.65 787.80 1393.63 787.23
  Q 1382.07 785.60 1372.21 780.05
  C 1367.28 777.28 1363.21 774.34 1357.53 773.26"
/>
<path stroke="#5768a4" vector-effect="non-scaling-stroke" d="
  M 1357.53 773.26
  L 1361.77 770.49
  A 0.80 0.80 0.0 0 0 1361.91 769.27
  Q 1355.64 762.75 1345.83 760.92
  Q 1335.05 758.90 1328.90 758.80
  Q 1312.59 758.53 1294.17 761.92
  Q 1287.87 763.08 1283.50 767.68
  A 1.54 1.52 72.2 0 0 1283.09 768.49
  Q 1282.73 770.75 1284.04 771.71
  Q 1287.60 774.28 1294.05 776.62"
/>
<path stroke="#495b98" vector-effect="non-scaling-stroke" d="
  M 1294.05 776.62
  Q 1281.23 774.99 1277.56 775.30
  C 1256.74 777.11 1242.16 778.71 1227.97 778.34"
/>
<path stroke="#5768a4" vector-effect="non-scaling-stroke" d="
  M 1227.97 778.34
  C 1236.06 778.10 1244.04 776.53 1251.96 775.02
  C 1259.25 773.63 1263.72 773.66 1270.38 773.36
  C 1273.46 773.22 1278.13 773.44 1277.86 770.01
  A 1.35 1.35 0.0 0 0 1277.37 769.06
  Q 1268.55 761.86 1260.76 760.25
  Q 1247.34 757.46 1231.75 758.17
  Q 1226.15 758.43 1214.29 759.94"
/>
<path stroke="#495b98" vector-effect="non-scaling-stroke" d="
  M 1214.29 759.94
  Q 1213.64 757.09 1211.55 755.00"
/>
<path stroke="#5768a4" vector-effect="non-scaling-stroke" d="
  M 1211.55 755.00
  Q 1223.36 752.64 1234.59 748.17
  A 2.02 1.98 4.8 0 0 1235.52 747.40
  Q 1236.53 745.83 1236.44 744.19
  A 2.31 2.28 -65.3 0 0 1235.99 742.95
  Q 1232.28 737.99 1225.82 737.58
  C 1214.22 736.86 1197.34 735.93 1182.78 736.43
  Q 1169.94 736.88 1166.80 737.42
  Q 1164.48 737.81 1158.92 740.35
  A 1.88 1.86 88.9 0 0 1157.95 741.37
  Q 1156.99 743.82 1158.29 745.24
  C 1163.43 750.81 1170.59 752.21 1177.72 754.04"
/>
<path stroke="#495b98" vector-effect="non-scaling-stroke" d="
  M 1177.72 754.04
  Q 1176.21 755.95 1175.77 758.47"
/>
<path stroke="#5768a4" vector-effect="non-scaling-stroke" d="
  M 1175.77 758.47
  C 1162.56 755.78 1148.35 757.02 1135.43 760.43
  Q 1129.17 762.08 1124.42 766.07
  A 2.96 2.95 54.4 0 0 1123.79 769.88
  Q 1125.64 772.89 1130.04 774.68"
/>
<path stroke="#495b98" vector-effect="non-scaling-stroke" d="
  M 1130.04 774.68
  L 1112.20 772.95"
/>
<path stroke="#5768a4" vector-effect="non-scaling-stroke" d="
  M 1112.20 772.95
  Q 1115.47 771.14 1117.46 768.38
  A 1.44 1.44 0.0 0 0 1117.35 766.57
  C 1112.07 760.78 1098.29 758.81 1090.70 758.83
  Q 1075.41 758.87 1064.77 761.34"
/>
<path stroke="#495b98" vector-effect="non-scaling-stroke" d="
  M 1064.77 761.34
  Q 1052.55 759.91 1045.04 770.23"
/>
<path stroke="#5768a4" vector-effect="non-scaling-stroke" d="
  M 1045.04 770.23
  C 1048.06 763.88 1040.06 760.27 1035.23 759.29
  Q 1029.77 758.19 1020.02 757.25
  Q 1013.78 756.65 1007.53 757.52
  C 999.12 758.69 986.88 759.42 984.74 766.47
  Q 983.74 769.75 987.57 771.94"
/>
<path stroke="#495b98" vector-effect="non-scaling-stroke" d="
  M 987.57 771.94
  C 984.24 770.05 980.67 768.50 977.13 769.80
  Q 971.60 771.83 965.23 773.15"
/>
<path stroke="#5768a4" vector-effect="non-scaling-stroke" d="
  M 965.23 773.15
  Q 969.57 771.79 973.86 770.07
  Q 978.88 768.07 979.87 762.68
  A 0.81 0.80 -65.7 0 0 979.58 761.90
  C 974.85 758.24 968.55 757.71 961.83 757.05
  Q 951.09 756.00 940.42 757.89
  C 932.92 759.21 926.84 760.41 922.61 766.59
  A 1.27 1.27 0.0 0 0 923.05 768.42
  Q 930.78 772.62 939.99 773.92"
/>
<path stroke="#495b98" vector-effect="non-scaling-stroke" d="
  M 939.99 773.92
  L 906.25 772.96"
/>
<path stroke="#5768a4" vector-effect="non-scaling-stroke" d="
  M 906.25 772.96
  C 909.13 771.95 919.38 768.03 917.30 763.37
  C 915.70 759.79 912.42 759.00 908.37 757.99
  Q 884.46 752.00 860.63 758.67
  C 856.88 759.72 853.05 763.61 856.88 767.38
  Q 860.09 770.55 864.83 772.18"
/>
<path stroke="#495b98" vector-effect="non-scaling-stroke" d="
  M 864.83 772.18
  L 844.25 773.56"
/>
<path stroke="#5768a4" vector-effect="non-scaling-stroke" d="
  M 844.25 773.56
  L 850.27 770.18
  A 0.85 0.85 0.0 0 0 850.58 769.00
  C 845.62 760.74 835.13 756.99 825.95 756.91
  Q 812.57 756.79 800.47 759.90
  Q 793.40 761.71 789.92 767.28
  A 1.67 1.67 0.0 0 0 790.37 769.53
  L 795.25 773.01"
/>
<path stroke="#495b98" vector-effect="non-scaling-stroke" d="
  M 795.25 773.01
  L 781.45 771.47"
/>
<path stroke="#5768a4" vector-effect="non-scaling-stroke" d="
  M 781.45 771.47
  Q 783.82 769.44 785.22 766.83
  A 1.32 1.31 45.7 0 0 785.23 765.60
  C 784.20 763.60 782.07 762.28 779.80 761.77
  Q 764.14 758.25 754.01 758.57
  Q 740.73 759.00 727.59 762.31
  Q 720.99 763.98 717.23 768.32
  A 1.85 1.84 -27.5 0 0 716.80 769.68
  L 717.12 772.77"
/>
<path stroke="#495b98" vector-effect="non-scaling-stroke" d="
  M 717.12 772.77
  L 700.61 773.04"
/>
<path stroke="#5768a4" vector-effect="non-scaling-stroke" d="
  M 700.61 773.04
  Q 707.09 770.32 712.21 766.55
  A 1.68 1.68 0.0 0 0 712.17 763.81
  C 709.58 762.02 706.98 761.54 704.05 760.62
  Q 679.36 752.88 653.27 759.26
  C 648.66 760.39 644.38 762.99 643.70 767.96
  A 2.19 2.18 25.3 0 0 644.38 769.85
  Q 647.00 772.29 650.97 773.74"
/>
<path stroke="#495b98" vector-effect="non-scaling-stroke" d="
  M 650.97 773.74
  L 635.98 770.32"
/>
<path stroke="#5768a4" vector-effect="non-scaling-stroke" d="
  M 635.98 770.32
  Q 637.46 769.18 638.23 767.68
  A 0.71 0.70 -53.6 0 0 638.11 766.87
  C 632.37 760.86 620.75 759.19 612.45 759.03
  C 599.99 758.80 589.91 760.46 577.44 761.90
  Q 571.20 762.63 568.13 767.74
  A 1.75 1.73 -52.9 0 0 568.42 769.91
  L 570.54 771.90"
/>
<path stroke="#495b98" vector-effect="non-scaling-stroke" d="
  M 570.54 771.90
  Q 567.99 770.78 566.24 768.40
  A 0.43 0.43 0.0 0 0 565.47 768.61
  Q 565.32 770.00 566.16 771.62
  A 1.17 1.14 -46.8 0 1 566.18 772.62
  Q 565.50 774.10 563.73 774.74"
/>
<path stroke="#5768a4" vector-effect="non-scaling-stroke" d="
  M 563.73 774.74
  Q 564.73 772.33 564.85 770.02
  A 1.14 1.13 4.8 0 0 563.84 768.83
  C 555.09 767.84 547.88 765.60 538.22 762.79
  C 529.92 760.38 522.58 761.75 514.74 764.80"
/>
<path stroke="#495b98" vector-effect="non-scaling-stroke" d="
  M 514.74 764.80
  Q 507.84 759.02 499.16 756.23"
/>
<path stroke="#5768a4" vector-effect="non-scaling-stroke" d="
  M 499.16 756.23
  C 513.64 756.04 528.40 758.33 539.49 746.53
  A 1.63 1.62 47.3 0 0 539.57 744.39
  C 534.28 737.90 527.40 737.41 518.57 737.06
  Q 489.36 735.87 464.73 737.89
  Q 460.51 738.24 455.54 739.81
  C 453.35 740.50 452.69 742.53 453.31 744.32
  A 1.86 1.86 0.0 0 0 453.96 745.20
  Q 459.53 749.21 466.95 750.99
  Q 476.94 753.40 487.30 755.22"
/>
<path stroke="#495b98" vector-effect="non-scaling-stroke" d="
  M 487.30 755.22
  Q 484.06 756.96 486.00 759.34"
/>
<path stroke="#5768a4" vector-effect="non-scaling-stroke" d="
  M 486.00 759.34
  Q 480.20 759.28 474.50 759.32
  C 470.77 759.34 465.87 761.21 467.19 765.99
  Q 468.62 771.16 474.08 772.36"
/>
<path stroke="#495b98" vector-effect="non-scaling-stroke" d="
  M 474.08 772.36
  Q 467.53 772.06 461.31 773.26"
/>
<path stroke="#5768a4" vector-effect="non-scaling-stroke" d="
  M 461.31 773.26
  Q 465.11 767.47 463.88 760.42
  A 0.83 0.83 0.0 0 0 463.32 759.76
  C 450.49 755.51 435.81 756.97 423.26 759.84
  C 418.01 761.04 411.91 763.19 413.05 770.13"
/>
<path stroke="#495b98" vector-effect="non-scaling-stroke" d="
  M 413.05 770.13
  L 404.97 770.04"
/>
<path stroke="#5768a4" vector-effect="non-scaling-stroke" d="
  M 404.97 770.04
  C 406.68 768.05 408.58 766.61 406.76 763.54
  C 404.67 760.02 399.02 758.24 394.99 757.51
  Q 373.09 753.56 351.92 758.25
  C 348.29 759.05 343.54 760.70 340.10 762.80
  Q 336.66 764.90 336.61 768.43
  A 2.10 2.10 0.0 0 0 336.88 769.46
  C 339.47 774.04 346.80 775.60 352.02 776.36
  Q 360.37 777.57 369.08 778.59"
/>
<path stroke="#495b98" vector-effect="non-scaling-stroke" d="
  M 369.08 778.59
  Q 364.21 780.58 357.02 779.30
  A 0.41 0.40 9.0 0 0 356.55 779.64
  L 356.51 779.94
  A 0.42 0.41 21.1 0 1 355.87 780.22
  Q 355.22 779.80 354.86 780.20
  A 0.41 0.41 0.0 0 0 355.11 780.88
  C 359.34 781.47 363.27 782.22 364.94 786.17
  A 1.59 1.58 -11.7 0 1 363.49 788.37
  C 361.11 788.40 358.11 788.13 355.61 787.21
  Q 349.22 784.87 342.44 783.58
  C 340.39 783.19 337.88 781.66 336.35 780.26
  Q 330.63 775.05 322.68 773.93"
/>
<path stroke="#5768a4" vector-effect="non-scaling-stroke" d="
  M 322.68 773.93
  Q 327.39 771.88 329.63 768.46
  A 2.33 2.32 -51.9 0 0 329.27 765.47
  Q 325.32 761.81 320.94 760.58
  Q 305.37 756.22 288.96 757.57
  Q 281.27 758.20 273.82 759.16"
/>
<path stroke="#495b98" vector-effect="non-scaling-stroke" d="
  M 273.82 759.16
  C 265.31 756.56 255.12 755.82 246.24 755.40"
/>
<path stroke="#5768a4" vector-effect="non-scaling-stroke" d="
  M 246.24 755.40
  Q 250.84 755.45 261.81 755.20
  Q 274.49 754.92 285.51 750.12
  Q 290.78 747.82 294.95 743.68
  A 1.46 1.46 0.0 0 0 295.03 741.68
  Q 292.48 738.74 288.23 737.33
  A 3.78 3.42 52.3 0 0 287.28 737.16
  Q 256.57 736.12 228.44 736.94
  C 222.30 737.11 213.99 737.94 212.71 745.30
  A 1.14 1.14 0.0 0 0 213.15 746.41
  C 220.16 751.67 229.30 752.72 237.72 754.56"
/>
<path stroke="#495b98" vector-effect="non-scaling-stroke" d="
  M 237.72 754.56
  Q 231.02 754.68 228.38 758.69"
/>
<path stroke="#5768a4" vector-effect="non-scaling-stroke" d="
  M 228.38 758.69
  Q 213.59 755.74 198.57 758.49
  C 191.84 759.72 185.14 759.92 180.33 765.62"
/>
<path stroke="#495b98" vector-effect="non-scaling-stroke" d="
  M 180.33 765.62
  Q 174.16 761.53 167.05 762.05"
/>
<path stroke="#5768a4" vector-effect="non-scaling-stroke" d="
  M 167.05 762.05
  L 143.47 762.21
  A 0.51 0.51 0.0 0 0 142.96 762.75
  L 143.31 770.14"
/>
<path stroke="#495b98" vector-effect="non-scaling-stroke" d="
  M 143.31 770.14
  C 141.53 768.50 140.54 770.15 139.80 771.57"
/>
<path stroke="#5768a4" vector-effect="non-scaling-stroke" d="
  M 139.80 771.57
  Q 140.30 765.45 135.05 762.48
  Q 132.18 760.87 129.86 760.90
  Q 123.16 761.00 113.41 759.72
  C 105.27 758.65 87.98 758.62 83.37 767.23
  A 1.17 1.17 0.0 0 0 83.42 768.44
  C 86.35 773.00 91.24 774.10 96.77 775.45
  Q 101.83 776.68 107.01 777.42"
/>
<path stroke="#495b98" vector-effect="non-scaling-stroke" d="
  M 107.01 777.42
  L 94.55 776.50
  A 0.20 0.20 0.0 0 0 94.38 776.82
  Q 97.13 780.18 99.62 781.04
  Q 106.37 783.39 110.29 785.22
  A 1.44 1.44 0.0 0 1 110.49 787.71
  C 95.03 798.20 70.07 797.26 54.79 786.68
  A 0.89 0.88 22.1 0 1 54.42 785.81
  Q 54.89 783.07 54.65 781.63
  C 53.80 776.52 41.70 777.07 37.80 777.05
  Q 33.42 777.03 26.97 775.00"
/>
<path stroke="#5768a4" vector-effect="non-scaling-stroke" d="
  M 26.97 775.00
  Q 47.39 778.67 66.95 771.76
  Q 73.03 769.62 77.69 765.09
  A 1.64 1.63 46.5 0 0 77.75 762.81
  Q 73.86 758.61 67.97 757.44
  C 52.15 754.31 36.90 756.09 20.85 758.58
  C 15.39 759.43 9.63 761.58 7.50 767.21
  A 1.76 1.76 0.0 0 0 8.02 769.18
  C 11.82 772.31 17.50 773.19 23.97 774.45"
/>
<path stroke="#495b98" vector-effect="non-scaling-stroke" d="
  M 23.97 774.45
  L 16.46 773.67
  A 1.01 1.01 0.0 0 0 15.67 773.95
  L 13.57 776.06
  A 1.05 1.05 0.0 0 0 13.95 777.79
  Q 22.72 780.99 31.08 785.98
  A 0.58 0.58 0.0 0 1 30.85 787.06
  Q 26.79 787.53 22.32 789.03
  C 14.99 791.51 7.57 792.73 0.00 793.43"
/>
<path stroke="#5768a4" vector-effect="non-scaling-stroke" d="
  M 0.00 751.72
  Q 10.65 753.88 19.36 752.97
  Q 24.89 752.39 40.70 749.49
  Q 46.61 748.41 51.47 743.77
  A 0.79 0.79 0.0 0 0 51.61 742.80
  L 49.75 739.58
  A 0.59 0.58 -8.1 0 0 49.41 739.33
  Q 39.66 736.93 27.37 736.82
  Q 14.78 736.70 0.00 735.27"
/>
<path stroke="#4f629c" vector-effect="non-scaling-stroke" d="
  M 1211.55 755.00
  Q 1194.48 756.59 1177.72 754.04"
/>
<path stroke="#4f629c" vector-effect="non-scaling-stroke" d="
  M 246.24 755.40
  L 237.72 754.56"
/>
<path stroke="#4f629c" vector-effect="non-scaling-stroke" d="
  M 499.16 756.23
  L 487.30 755.22"
/>
<path stroke="#4f629c" vector-effect="non-scaling-stroke" d="
  M 1501.98 775.16
  C 1496.21 776.05 1490.48 777.17 1484.70 777.15
  Q 1470.34 777.10 1456.05 775.68
  Q 1452.48 775.33 1448.96 774.54"
/>
<path stroke="#4f629c" vector-effect="non-scaling-stroke" d="
  M 273.82 759.16
  C 267.80 760.27 258.95 761.99 255.32 767.33
  A 2.39 2.39 0.0 0 0 255.42 770.16
  C 259.21 774.96 265.29 776.12 271.50 777.12
  Q 279.74 778.44 290.28 778.74
  Q 306.97 779.22 322.68 773.93"
/>
<path stroke="#4f629c" vector-effect="non-scaling-stroke" d="
  M 369.08 778.59
  Q 385.51 778.67 400.08 773.08
  Q 402.50 772.15 404.97 770.04"
/>
<path stroke="#4f629c" vector-effect="non-scaling-stroke" d="
  M 413.05 770.13
  Q 421.29 775.35 431.88 775.82
  Q 447.00 776.51 461.31 773.26"
/>
<path stroke="#4f629c" vector-effect="non-scaling-stroke" d="
  M 474.08 772.36
  C 483.54 775.25 490.73 773.07 499.64 769.82
  A 2.42 2.34 -74.6 0 0 500.30 769.43
  Q 502.37 767.65 500.36 765.39
  C 496.63 761.18 491.99 760.42 486.00 759.34"
/>
<path stroke="#4f629c" vector-effect="non-scaling-stroke" d="
  M 514.74 764.80
  Q 509.39 767.19 505.22 770.74
  A 1.91 1.90 47.2 0 0 505.12 773.54
  Q 508.92 777.29 515.12 777.98
  Q 531.66 779.80 547.72 778.40
  Q 554.96 777.77 563.73 774.74"
/>
<path stroke="#4f629c" vector-effect="non-scaling-stroke" d="
  M 570.54 771.90
  Q 576.51 774.74 580.17 775.11
  Q 588.58 775.94 596.92 777.01
  Q 617.66 779.66 635.98 770.32"
/>
<path stroke="#4f629c" vector-effect="non-scaling-stroke" d="
  M 650.97 773.74
  Q 666.20 778.60 680.57 777.38
  Q 689.51 776.62 700.61 773.04"
/>
<path stroke="#4f629c" vector-effect="non-scaling-stroke" d="
  M 717.12 772.77
  Q 729.46 777.06 742.13 777.85
  Q 758.33 778.86 774.61 774.59
  Q 777.51 773.83 781.45 771.47"
/>
<path stroke="#4f629c" vector-effect="non-scaling-stroke" d="
  M 795.25 773.01
  Q 819.81 781.67 844.25 773.56"
/>
<path stroke="#4f629c" vector-effect="non-scaling-stroke" d="
  M 864.83 772.18
  Q 885.23 778.14 906.25 772.96"
/>
<path stroke="#4f629c" vector-effect="non-scaling-stroke" d="
  M 939.99 773.92
  Q 952.55 775.75 965.23 773.15"
/>
<path stroke="#4f629c" vector-effect="non-scaling-stroke" d="
  M 987.57 771.94
  Q 990.96 773.73 994.92 774.72
  C 1002.94 776.72 1011.41 778.73 1019.98 777.69
  Q 1027.91 776.72 1032.95 775.40
  Q 1039.66 773.65 1045.04 770.23"
/>
<path stroke="#4f629c" vector-effect="non-scaling-stroke" d="
  M 1064.77 761.34
  C 1060.29 762.23 1053.46 764.29 1050.66 768.20
  A 3.12 3.09 36.4 0 0 1051.33 772.47
  Q 1053.13 773.82 1056.10 774.67
  Q 1068.17 778.10 1084.22 778.20
  Q 1098.73 778.29 1112.20 772.95"
/>
<path stroke="#4f629c" vector-effect="non-scaling-stroke" d="
  M 1130.04 774.68
  Q 1132.29 775.90 1136.43 776.75
  Q 1162.32 782.11 1185.35 774.14
  Q 1186.59 773.71 1188.42 772.33
  C 1191.41 770.08 1190.20 766.08 1187.63 764.09
  Q 1182.42 760.05 1175.77 758.47"
/>
<path stroke="#4f629c" vector-effect="non-scaling-stroke" d="
  M 1214.29 759.94
  C 1207.06 761.23 1200.76 762.91 1196.65 768.89
  A 1.68 1.67 -54.5 0 0 1197.03 771.19
  C 1199.28 772.84 1201.76 774.14 1204.53 774.87
  Q 1216.02 777.90 1227.97 778.34"
/>
<path stroke="#4f629c" vector-effect="non-scaling-stroke" d="
  M 1294.05 776.62
  C 1312.54 780.13 1329.23 779.36 1346.30 776.58
  Q 1351.54 775.73 1357.53 773.26"
/>
<path stroke="#4f629c" vector-effect="non-scaling-stroke" d="
  M 1424.31 779.69
  L 1431.04 778.21"
/>
<path stroke="#4f629c" vector-effect="non-scaling-stroke" d="
  M 1531.99 772.74
  Q 1533.87 773.97 1536.00 773.99"
/>
<path stroke="#3a4c82" vector-effect="non-scaling-stroke" d="
  M 1536.00 843.55
  Q 1533.79 843.05 1531.62 843.13
  C 1528.59 843.25 1526.53 845.40 1523.63 846.08
  Q 1506.30 850.15 1485.74 849.57
  C 1474.96 849.27 1467.58 848.63 1458.72 848.62
  Q 1440.80 848.59 1425.68 848.73
  Q 1404.10 848.92 1366.89 848.12
  Q 1353.95 847.84 1343.24 848.65
  C 1325.49 849.99 1307.56 848.95 1291.76 848.27
  Q 1290.08 848.20 1281.24 848.74
  C 1268.46 849.52 1255.68 849.65 1242.30 849.86
  Q 1236.57 849.95 1221.70 848.23
  C 1214.26 847.38 1198.62 844.02 1202.17 833.53
  Q 1203.75 828.88 1207.29 826.33
  A 0.62 0.61 23.8 0 0 1206.86 825.22
  L 1200.35 826.00
  A 12.87 12.68 45.4 0 1 1197.05 825.95
  L 1189.84 824.88
  A 0.71 0.71 0.0 0 0 1189.23 826.08
  C 1192.65 829.50 1195.40 835.74 1189.09 838.14
  Q 1181.07 841.18 1166.65 843.27
  C 1161.94 843.95 1155.34 843.30 1150.89 843.87
  A 22.10 21.32 -56.1 0 0 1147.46 844.61
  C 1144.11 845.63 1141.21 847.01 1137.71 846.76
  Q 1133.08 846.42 1127.89 844.81
  C 1122.26 843.07 1119.92 839.49 1118.95 833.79
  A 0.92 0.92 0.0 0 0 1117.34 833.35
  C 1113.67 837.72 1111.89 842.16 1106.75 844.51
  Q 1096.69 849.11 1084.65 849.14
  Q 1068.85 849.18 1058.24 848.29
  C 1051.11 847.69 1039.48 845.01 1039.48 836.08
  Q 1039.49 832.59 1041.70 827.35
  A 0.35 0.35 0.0 0 0 1041.38 826.87
  L 1032.84 826.87
  A 0.36 0.36 0.0 0 0 1032.48 827.25
  Q 1032.51 827.79 1032.64 828.47
  C 1033.83 834.82 1030.61 837.24 1024.71 839.02
  Q 1014.23 842.18 1002.65 843.46
  Q 998.98 843.87 994.94 843.36
  Q 985.09 842.10 976.96 840.10
  Q 967.94 837.89 965.24 836.16
  A 0.52 0.51 26.0 0 1 965.03 835.56
  Q 966.69 830.61 971.14 826.96
  A 0.34 0.34 0.0 0 0 971.02 826.37
  C 959.63 823.20 951.29 821.80 940.78 822.75
  A 0.08 0.07 -34.0 0 0 940.75 822.89
  C 946.58 825.25 963.56 832.88 956.28 841.85
  Q 954.80 843.68 951.57 845.05
  C 941.14 849.49 932.96 849.68 920.10 849.79
  C 909.94 849.87 898.03 849.33 887.47 846.46
  Q 885.51 845.92 882.75 845.76
  Q 873.39 845.20 844.74 845.95
  Q 831.13 846.30 813.37 843.77
  C 804.27 842.47 797.32 841.71 789.76 842.97
  Q 772.52 845.83 771.16 845.97
  C 752.83 847.80 739.23 845.80 717.49 843.68
  A 1.75 1.75 0.0 0 0 716.41 843.92
  Q 707.91 848.97 696.56 849.30
  C 682.71 849.70 669.15 849.77 656.25 847.73
  A 2.41 2.26 61.8 0 1 655.45 847.46
  Q 652.14 845.65 650.33 844.24
  C 643.97 839.28 637.83 843.87 631.66 847.02
  Q 629.25 848.25 623.51 848.44
  Q 604.07 849.09 582.53 847.22
  C 574.98 846.56 567.31 842.62 559.22 844.67
  Q 552.30 846.42 547.57 846.46
  Q 532.59 846.61 517.67 847.47
  C 512.61 847.77 506.93 847.42 503.23 844.73
  Q 502.90 844.48 496.00 838.41
  A 1.57 1.57 0.0 0 0 493.64 838.74
  C 489.34 845.40 480.87 848.12 473.25 848.52
  Q 449.16 849.75 425.93 848.60
  Q 421.63 848.39 406.48 848.70
  C 391.04 849.02 380.61 848.87 361.41 848.87
  C 352.35 848.87 344.10 847.67 334.82 848.19
  Q 334.29 848.21 325.64 848.82
  C 319.61 849.24 314.53 848.36 308.24 848.92
  Q 294.62 850.12 289.56 849.93
  C 278.25 849.50 268.90 848.82 258.47 849.03
  C 249.77 849.21 241.44 848.50 231.58 848.69
  Q 211.42 849.08 187.31 847.80
  C 180.60 847.44 174.13 848.60 167.49 848.43
  Q 164.29 848.36 161.99 848.47
  Q 133.88 849.92 127.25 849.63
  Q 97.21 848.30 72.11 849.31
  C 58.77 849.85 49.14 848.86 34.24 848.23
  Q 26.62 847.92 20.05 848.38
  C 12.80 848.90 6.73 848.84 0.00 848.84"
/>
<path stroke="#4f629c" vector-effect="non-scaling-stroke" d="
  M 23.97 774.45
  L 26.97 775.00"
/>
<path stroke="#4f629c" vector-effect="non-scaling-stroke" d="
  M 107.01 777.42
  Q 120.14 779.02 132.44 775.94
  Q 136.73 774.87 139.80 771.57"
/>
<path stroke="#4f629c" vector-effect="non-scaling-stroke" d="
  M 143.31 770.14
  Q 147.12 772.90 150.78 772.27
  C 159.51 770.77 167.61 770.45 175.21 766.93
  A 0.91 0.91 0.0 0 0 175.30 765.32
  Q 171.61 763.07 167.05 762.05"
/>
<path stroke="#4f629c" vector-effect="non-scaling-stroke" d="
  M 180.33 765.62
  Q 179.68 767.39 180.08 768.98
  A 1.17 1.17 0.0 0 0 180.64 769.72
  Q 183.33 771.25 186.35 771.92
  Q 197.09 774.33 207.75 776.51
  C 218.28 778.66 231.55 777.00 241.10 774.34
  Q 245.68 773.07 248.43 769.57
  A 2.23 2.21 49.3 0 0 248.61 767.10
  C 245.18 761.03 234.76 759.25 228.38 758.69"
/>
<path stroke="#99a1ba" vector-effect="non-scaling-stroke" d="
  M 1536.00 858.13
  L 0.00 858.14"
/>
</g>

<path fill="#415590" d="
  M 237.72 754.56
  L 246.24 755.40
  C 255.12 755.82 265.31 756.56 273.82 759.16
  C 267.80 760.27 258.95 761.99 255.32 767.33
  A 2.39 2.39 0.0 0 0 255.42 770.16
  C 259.21 774.96 265.29 776.12 271.50 777.12
  Q 279.74 778.44 290.28 778.74
  Q 306.97 779.22 322.68 773.93
  Q 330.63 775.05 336.35 780.26
  C 337.88 781.66 340.39 783.19 342.44 783.58
  Q 349.22 784.87 355.61 787.21
  C 358.11 788.13 361.11 788.40 363.49 788.37
  A 1.59 1.58 -11.7 0 0 364.94 786.17
  C 363.27 782.22 359.34 781.47 355.11 780.88
  A 0.41 0.41 0.0 0 1 354.86 780.20
  Q 355.22 779.80 355.87 780.22
  A 0.42 0.41 21.1 0 0 356.51 779.94
  L 356.55 779.64
  A 0.41 0.40 9.0 0 1 357.02 779.30
  Q 364.21 780.58 369.08 778.59
  Q 385.51 778.67 400.08 773.08
  Q 402.50 772.15 404.97 770.04
  L 413.05 770.13
  Q 421.29 775.35 431.88 775.82
  Q 447.00 776.51 461.31 773.26
  Q 467.53 772.06 474.08 772.36
  C 483.54 775.25 490.73 773.07 499.64 769.82
  A 2.42 2.34 -74.6 0 0 500.30 769.43
  Q 502.37 767.65 500.36 765.39
  C 496.63 761.18 491.99 760.42 486.00 759.34
  Q 484.06 756.96 487.30 755.22
  L 499.16 756.23
  Q 507.84 759.02 514.74 764.80
  Q 509.39 767.19 505.22 770.74
  A 1.91 1.90 47.2 0 0 505.12 773.54
  Q 508.92 777.29 515.12 777.98
  Q 531.66 779.80 547.72 778.40
  Q 554.96 777.77 563.73 774.74
  Q 565.50 774.10 566.18 772.62
  A 1.17 1.14 -46.8 0 0 566.16 771.62
  Q 565.32 770.00 565.47 768.61
  A 0.43 0.43 0.0 0 1 566.24 768.40
  Q 567.99 770.78 570.54 771.90
  Q 576.51 774.74 580.17 775.11
  Q 588.58 775.94 596.92 777.01
  Q 617.66 779.66 635.98 770.32
  L 650.97 773.74
  Q 666.20 778.60 680.57 777.38
  Q 689.51 776.62 700.61 773.04
  L 717.12 772.77
  Q 729.46 777.06 742.13 777.85
  Q 758.33 778.86 774.61 774.59
  Q 777.51 773.83 781.45 771.47
  L 795.25 773.01
  Q 819.81 781.67 844.25 773.56
  L 864.83 772.18
  Q 885.23 778.14 906.25 772.96
  L 939.99 773.92
  Q 952.55 775.75 965.23 773.15
  Q 971.60 771.83 977.13 769.80
  C 980.67 768.50 984.24 770.05 987.57 771.94
  Q 990.96 773.73 994.92 774.72
  C 1002.94 776.72 1011.41 778.73 1019.98 777.69
  Q 1027.91 776.72 1032.95 775.40
  Q 1039.66 773.65 1045.04 770.23
  Q 1052.55 759.91 1064.77 761.34
  C 1060.29 762.23 1053.46 764.29 1050.66 768.20
  A 3.12 3.09 36.4 0 0 1051.33 772.47
  Q 1053.13 773.82 1056.10 774.67
  Q 1068.17 778.10 1084.22 778.20
  Q 1098.73 778.29 1112.20 772.95
  L 1130.04 774.68
  Q 1132.29 775.90 1136.43 776.75
  Q 1162.32 782.11 1185.35 774.14
  Q 1186.59 773.71 1188.42 772.33
  C 1191.41 770.08 1190.20 766.08 1187.63 764.09
  Q 1182.42 760.05 1175.77 758.47
  Q 1176.21 755.95 1177.72 754.04
  Q 1194.48 756.59 1211.55 755.00
  Q 1213.64 757.09 1214.29 759.94
  C 1207.06 761.23 1200.76 762.91 1196.65 768.89
  A 1.68 1.67 -54.5 0 0 1197.03 771.19
  C 1199.28 772.84 1201.76 774.14 1204.53 774.87
  Q 1216.02 777.90 1227.97 778.34
  C 1242.16 778.71 1256.74 777.11 1277.56 775.30
  Q 1281.23 774.99 1294.05 776.62
  C 1312.54 780.13 1329.23 779.36 1346.30 776.58
  Q 1351.54 775.73 1357.53 773.26
  C 1363.21 774.34 1367.28 777.28 1372.21 780.05
  Q 1382.07 785.60 1393.63 787.23
  C 1397.65 787.80 1399.44 786.44 1403.21 783.63
  C 1404.87 782.39 1408.00 781.97 1410.41 781.86
  Q 1417.49 781.54 1424.31 779.69
  L 1431.04 778.21
  L 1448.96 774.54
  Q 1452.48 775.33 1456.05 775.68
  Q 1470.34 777.10 1484.70 777.15
  C 1490.48 777.17 1496.21 776.05 1501.98 775.16
  Q 1511.10 773.92 1519.41 769.74
  Q 1520.97 768.96 1524.82 769.47
  Q 1527.13 769.78 1531.99 772.74
  Q 1533.87 773.97 1536.00 773.99
  L 1536.00 843.55
  Q 1533.79 843.05 1531.62 843.13
  C 1528.59 843.25 1526.53 845.40 1523.63 846.08
  Q 1506.30 850.15 1485.74 849.57
  C 1474.96 849.27 1467.58 848.63 1458.72 848.62
  Q 1440.80 848.59 1425.68 848.73
  Q 1404.10 848.92 1366.89 848.12
  Q 1353.95 847.84 1343.24 848.65
  C 1325.49 849.99 1307.56 848.95 1291.76 848.27
  Q 1290.08 848.20 1281.24 848.74
  C 1268.46 849.52 1255.68 849.65 1242.30 849.86
  Q 1236.57 849.95 1221.70 848.23
  C 1214.26 847.38 1198.62 844.02 1202.17 833.53
  Q 1203.75 828.88 1207.29 826.33
  A 0.62 0.61 23.8 0 0 1206.86 825.22
  L 1200.35 826.00
  A 12.87 12.68 45.4 0 1 1197.05 825.95
  L 1189.84 824.88
  A 0.71 0.71 0.0 0 0 1189.23 826.08
  C 1192.65 829.50 1195.40 835.74 1189.09 838.14
  Q 1181.07 841.18 1166.65 843.27
  C 1161.94 843.95 1155.34 843.30 1150.89 843.87
  A 22.10 21.32 -56.1 0 0 1147.46 844.61
  C 1144.11 845.63 1141.21 847.01 1137.71 846.76
  Q 1133.08 846.42 1127.89 844.81
  C 1122.26 843.07 1119.92 839.49 1118.95 833.79
  A 0.92 0.92 0.0 0 0 1117.34 833.35
  C 1113.67 837.72 1111.89 842.16 1106.75 844.51
  Q 1096.69 849.11 1084.65 849.14
  Q 1068.85 849.18 1058.24 848.29
  C 1051.11 847.69 1039.48 845.01 1039.48 836.08
  Q 1039.49 832.59 1041.70 827.35
  A 0.35 0.35 0.0 0 0 1041.38 826.87
  L 1032.84 826.87
  A 0.36 0.36 0.0 0 0 1032.48 827.25
  Q 1032.51 827.79 1032.64 828.47
  C 1033.83 834.82 1030.61 837.24 1024.71 839.02
  Q 1014.23 842.18 1002.65 843.46
  Q 998.98 843.87 994.94 843.36
  Q 985.09 842.10 976.96 840.10
  Q 967.94 837.89 965.24 836.16
  A 0.52 0.51 26.0 0 1 965.03 835.56
  Q 966.69 830.61 971.14 826.96
  A 0.34 0.34 0.0 0 0 971.02 826.37
  C 959.63 823.20 951.29 821.80 940.78 822.75
  A 0.08 0.07 -34.0 0 0 940.75 822.89
  C 946.58 825.25 963.56 832.88 956.28 841.85
  Q 954.80 843.68 951.57 845.05
  C 941.14 849.49 932.96 849.68 920.10 849.79
  C 909.94 849.87 898.03 849.33 887.47 846.46
  Q 885.51 845.92 882.75 845.76
  Q 873.39 845.20 844.74 845.95
  Q 831.13 846.30 813.37 843.77
  C 804.27 842.47 797.32 841.71 789.76 842.97
  Q 772.52 845.83 771.16 845.97
  C 752.83 847.80 739.23 845.80 717.49 843.68
  A 1.75 1.75 0.0 0 0 716.41 843.92
  Q 707.91 848.97 696.56 849.30
  C 682.71 849.70 669.15 849.77 656.25 847.73
  A 2.41 2.26 61.8 0 1 655.45 847.46
  Q 652.14 845.65 650.33 844.24
  C 643.97 839.28 637.83 843.87 631.66 847.02
  Q 629.25 848.25 623.51 848.44
  Q 604.07 849.09 582.53 847.22
  C 574.98 846.56 567.31 842.62 559.22 844.67
  Q 552.30 846.42 547.57 846.46
  Q 532.59 846.61 517.67 847.47
  C 512.61 847.77 506.93 847.42 503.23 844.73
  Q 502.90 844.48 496.00 838.41
  A 1.57 1.57 0.0 0 0 493.64 838.74
  C 489.34 845.40 480.87 848.12 473.25 848.52
  Q 449.16 849.75 425.93 848.60
  Q 421.63 848.39 406.48 848.70
  C 391.04 849.02 380.61 848.87 361.41 848.87
  C 352.35 848.87 344.10 847.67 334.82 848.19
  Q 334.29 848.21 325.64 848.82
  C 319.61 849.24 314.53 848.36 308.24 848.92
  Q 294.62 850.12 289.56 849.93
  C 278.25 849.50 268.90 848.82 258.47 849.03
  C 249.77 849.21 241.44 848.50 231.58 848.69
  Q 211.42 849.08 187.31 847.80
  C 180.60 847.44 174.13 848.60 167.49 848.43
  Q 164.29 848.36 161.99 848.47
  Q 133.88 849.92 127.25 849.63
  Q 97.21 848.30 72.11 849.31
  C 58.77 849.85 49.14 848.86 34.24 848.23
  Q 26.62 847.92 20.05 848.38
  C 12.80 848.90 6.73 848.84 0.00 848.84
  L 0.00 793.43
  C 7.57 792.73 14.99 791.51 22.32 789.03
  Q 26.79 787.53 30.85 787.06
  A 0.58 0.58 0.0 0 0 31.08 785.98
  Q 22.72 780.99 13.95 777.79
  A 1.05 1.05 0.0 0 1 13.57 776.06
  L 15.67 773.95
  A 1.01 1.01 0.0 0 1 16.46 773.67
  L 23.97 774.45
  L 26.97 775.00
  Q 33.42 777.03 37.80 777.05
  C 41.70 777.07 53.80 776.52 54.65 781.63
  Q 54.89 783.07 54.42 785.81
  A 0.89 0.88 22.1 0 0 54.79 786.68
  C 70.07 797.26 95.03 798.20 110.49 787.71
  A 1.44 1.44 0.0 0 0 110.29 785.22
  Q 106.37 783.39 99.62 781.04
  Q 97.13 780.18 94.38 776.82
  A 0.20 0.20 0.0 0 1 94.55 776.50
  L 107.01 777.42
  Q 120.14 779.02 132.44 775.94
  Q 136.73 774.87 139.80 771.57
  C 140.54 770.15 141.53 768.50 143.31 770.14
  Q 147.12 772.90 150.78 772.27
  C 159.51 770.77 167.61 770.45 175.21 766.93
  A 0.91 0.91 0.0 0 0 175.30 765.32
  Q 171.61 763.07 167.05 762.05
  Q 174.16 761.53 180.33 765.62
  Q 179.68 767.39 180.08 768.98
  A 1.17 1.17 0.0 0 0 180.64 769.72
  Q 183.33 771.25 186.35 771.92
  Q 197.09 774.33 207.75 776.51
  C 218.28 778.66 231.55 777.00 241.10 774.34
  Q 245.68 773.07 248.43 769.57
  A 2.23 2.21 49.3 0 0 248.61 767.10
  C 245.18 761.03 234.76 759.25 228.38 758.69
  Q 231.02 754.68 237.72 754.56
  Z"
/>
<g fill="#5d6ea8">
<path d="
  M 0.00 751.72
  L 0.00 735.27
  Q 14.78 736.70 27.37 736.82
  Q 39.66 736.93 49.41 739.33
  A 0.59 0.58 -8.1 0 1 49.75 739.58
  L 51.61 742.80
  A 0.79 0.79 0.0 0 1 51.47 743.77
  Q 46.61 748.41 40.70 749.49
  Q 24.89 752.39 19.36 752.97
  Q 10.65 753.88 0.00 751.72
  Z"
/>
<path d="
  M 1536.00 735.87
  L 1536.00 751.23
  Q 1529.85 752.57 1524.87 751.89
  Q 1514.61 750.48 1506.62 749.14
  Q 1499.61 747.97 1493.90 744.25
  A 1.23 1.23 0.0 0 1 1493.74 742.32
  C 1497.66 738.69 1503.78 737.73 1509.28 737.07
  C 1516.70 736.18 1526.42 736.66 1536.00 735.87
  Z"
/>
<path d="
  M 1211.55 755.00
  Q 1194.48 756.59 1177.72 754.04
  C 1170.59 752.21 1163.43 750.81 1158.29 745.24
  Q 1156.99 743.82 1157.95 741.37
  A 1.88 1.86 88.9 0 1 1158.92 740.35
  Q 1164.48 737.81 1166.80 737.42
  Q 1169.94 736.88 1182.78 736.43
  C 1197.34 735.93 1214.22 736.86 1225.82 737.58
  Q 1232.28 737.99 1235.99 742.95
  A 2.31 2.28 -65.3 0 1 1236.44 744.19
  Q 1236.53 745.83 1235.52 747.40
  A 2.02 1.98 4.8 0 1 1234.59 748.17
  Q 1223.36 752.64 1211.55 755.00
  Z"
/>
<path d="
  M 246.24 755.40
  L 237.72 754.56
  C 229.30 752.72 220.16 751.67 213.15 746.41
  A 1.14 1.14 0.0 0 1 212.71 745.30
  C 213.99 737.94 222.30 737.11 228.44 736.94
  Q 256.57 736.12 287.28 737.16
  A 3.78 3.42 52.3 0 1 288.23 737.33
  Q 292.48 738.74 295.03 741.68
  A 1.46 1.46 0.0 0 1 294.95 743.68
  Q 290.78 747.82 285.51 750.12
  Q 274.49 754.92 261.81 755.20
  Q 250.84 755.45 246.24 755.40
  Z"
/>
<path d="
  M 499.16 756.23
  L 487.30 755.22
  Q 476.94 753.40 466.95 750.99
  Q 459.53 749.21 453.96 745.20
  A 1.86 1.86 0.0 0 1 453.31 744.32
  C 452.69 742.53 453.35 740.50 455.54 739.81
  Q 460.51 738.24 464.73 737.89
  Q 489.36 735.87 518.57 737.06
  C 527.40 737.41 534.28 737.90 539.57 744.39
  A 1.63 1.62 47.3 0 1 539.49 746.53
  C 528.40 758.33 513.64 756.04 499.16 756.23
  Z"
/>
<path d="
  M 1501.98 775.16
  C 1496.21 776.05 1490.48 777.17 1484.70 777.15
  Q 1470.34 777.10 1456.05 775.68
  Q 1452.48 775.33 1448.96 774.54
  L 1443.52 772.11
  A 1.65 1.64 -88.2 0 1 1442.67 771.20
  Q 1442.16 769.85 1442.32 768.66
  A 2.18 2.13 70.3 0 1 1442.85 767.51
  Q 1447.60 762.24 1456.07 761.08
  C 1467.39 759.53 1476.14 758.06 1485.77 760.16
  A 0.36 0.36 0.0 0 0 1486.16 759.63
  L 1484.62 756.96
  A 0.99 0.98 -32.1 0 1 1484.93 755.64
  Q 1489.67 752.50 1495.35 752.39
  Q 1507.44 752.15 1518.88 755.63
  Q 1521.95 756.56 1524.50 758.10
  A 1.34 1.34 0.0 0 1 1524.60 760.32
  Q 1521.52 762.60 1517.37 763.43
  Q 1508.94 765.09 1491.21 768.17
  Q 1489.05 768.54 1487.66 769.39
  A 0.66 0.66 0.0 0 0 1487.79 770.58
  L 1501.98 775.16
  Z"
/>
<path d="
  M 906.25 772.96
  Q 885.23 778.14 864.83 772.18
  Q 860.09 770.55 856.88 767.38
  C 853.05 763.61 856.88 759.72 860.63 758.67
  Q 884.46 752.00 908.37 757.99
  C 912.42 759.00 915.70 759.79 917.30 763.37
  C 919.38 768.03 909.13 771.95 906.25 772.96
  Z"
/>
<path d="
  M 26.97 775.00
  L 23.97 774.45
  C 17.50 773.19 11.82 772.31 8.02 769.18
  A 1.76 1.76 0.0 0 1 7.50 767.21
  C 9.63 761.58 15.39 759.43 20.85 758.58
  C 36.90 756.09 52.15 754.31 67.97 757.44
  Q 73.86 758.61 77.75 762.81
  A 1.64 1.63 46.5 0 1 77.69 765.09
  Q 73.03 769.62 66.95 771.76
  Q 47.39 778.67 26.97 775.00
  Z"
/>
<path d="
  M 404.97 770.04
  Q 402.50 772.15 400.08 773.08
  Q 385.51 778.67 369.08 778.59
  Q 360.37 777.57 352.02 776.36
  C 346.80 775.60 339.47 774.04 336.88 769.46
  A 2.10 2.10 0.0 0 1 336.61 768.43
  Q 336.66 764.90 340.10 762.80
  C 343.54 760.70 348.29 759.05 351.92 758.25
  Q 373.09 753.56 394.99 757.51
  C 399.02 758.24 404.67 760.02 406.76 763.54
  C 408.58 766.61 406.68 768.05 404.97 770.04
  Z"
/>
<path d="
  M 700.61 773.04
  Q 689.51 776.62 680.57 777.38
  Q 666.20 778.60 650.97 773.74
  Q 647.00 772.29 644.38 769.85
  A 2.19 2.18 25.3 0 1 643.70 767.96
  C 644.38 762.99 648.66 760.39 653.27 759.26
  Q 679.36 752.88 704.05 760.62
  C 706.98 761.54 709.58 762.02 712.17 763.81
  A 1.68 1.68 0.0 0 1 712.21 766.55
  Q 707.09 770.32 700.61 773.04
  Z"
/>
<path d="
  M 965.23 773.15
  Q 952.55 775.75 939.99 773.92
  Q 930.78 772.62 923.05 768.42
  A 1.27 1.27 0.0 0 1 922.61 766.59
  C 926.84 760.41 932.92 759.21 940.42 757.89
  Q 951.09 756.00 961.83 757.05
  C 968.55 757.71 974.85 758.24 979.58 761.90
  A 0.81 0.80 -65.7 0 1 979.87 762.68
  Q 978.88 768.07 973.86 770.07
  Q 969.57 771.79 965.23 773.15
  Z"
/>
<path d="
  M 844.25 773.56
  Q 819.81 781.67 795.25 773.01
  L 790.37 769.53
  A 1.67 1.67 0.0 0 1 789.92 767.28
  Q 793.40 761.71 800.47 759.90
  Q 812.57 756.79 825.95 756.91
  C 835.13 756.99 845.62 760.74 850.58 769.00
  A 0.85 0.85 0.0 0 1 850.27 770.18
  L 844.25 773.56
  Z"
/>
<path d="
  M 228.38 758.69
  C 234.76 759.25 245.18 761.03 248.61 767.10
  A 2.23 2.21 49.3 0 1 248.43 769.57
  Q 245.68 773.07 241.10 774.34
  C 231.55 777.00 218.28 778.66 207.75 776.51
  Q 197.09 774.33 186.35 771.92
  Q 183.33 771.25 180.64 769.72
  A 1.17 1.17 0.0 0 1 180.08 768.98
  Q 179.68 767.39 180.33 765.62
  C 185.14 759.92 191.84 759.72 198.57 758.49
  Q 213.59 755.74 228.38 758.69
  Z"
/>
<path d="
  M 461.31 773.26
  Q 447.00 776.51 431.88 775.82
  Q 421.29 775.35 413.05 770.13
  C 411.91 763.19 418.01 761.04 423.26 759.84
  C 435.81 756.97 450.49 755.51 463.32 759.76
  A 0.83 0.83 0.0 0 1 463.88 760.42
  Q 465.11 767.47 461.31 773.26
  Z"
/>
<path d="
  M 1045.04 770.23
  Q 1039.66 773.65 1032.95 775.40
  Q 1027.91 776.72 1019.98 777.69
  C 1011.41 778.73 1002.94 776.72 994.92 774.72
  Q 990.96 773.73 987.57 771.94
  Q 983.74 769.75 984.74 766.47
  C 986.88 759.42 999.12 758.69 1007.53 757.52
  Q 1013.78 756.65 1020.02 757.25
  Q 1029.77 758.19 1035.23 759.29
  C 1040.06 760.27 1048.06 763.88 1045.04 770.23
  Z"
/>
<path d="
  M 1175.77 758.47
  Q 1182.42 760.05 1187.63 764.09
  C 1190.20 766.08 1191.41 770.08 1188.42 772.33
  Q 1186.59 773.71 1185.35 774.14
  Q 1162.32 782.11 1136.43 776.75
  Q 1132.29 775.90 1130.04 774.68
  Q 1125.64 772.89 1123.79 769.88
  A 2.96 2.95 54.4 0 1 1124.42 766.07
  Q 1129.17 762.08 1135.43 760.43
  C 1148.35 757.02 1162.56 755.78 1175.77 758.47
  Z"
/>
<path d="
  M 322.68 773.93
  Q 306.97 779.22 290.28 778.74
  Q 279.74 778.44 271.50 777.12
  C 265.29 776.12 259.21 774.96 255.42 770.16
  A 2.39 2.39 0.0 0 1 255.32 767.33
  C 258.95 761.99 267.80 760.27 273.82 759.16
  Q 281.27 758.20 288.96 757.57
  Q 305.37 756.22 320.94 760.58
  Q 325.32 761.81 329.27 765.47
  A 2.33 2.32 -51.9 0 1 329.63 768.46
  Q 327.39 771.88 322.68 773.93
  Z"
/>
<path d="
  M 1227.97 778.34
  Q 1216.02 777.90 1204.53 774.87
  C 1201.76 774.14 1199.28 772.84 1197.03 771.19
  A 1.68 1.67 -54.5 0 1 1196.65 768.89
  C 1200.76 762.91 1207.06 761.23 1214.29 759.94
  Q 1226.15 758.43 1231.75 758.17
  Q 1247.34 757.46 1260.76 760.25
  Q 1268.55 761.86 1277.37 769.06
  A 1.35 1.35 0.0 0 1 1277.86 770.01
  C 1278.13 773.44 1273.46 773.22 1270.38 773.36
  C 1263.72 773.66 1259.25 773.63 1251.96 775.02
  C 1244.04 776.53 1236.06 778.10 1227.97 778.34
  Z"
/>
<path d="
  M 781.45 771.47
  Q 777.51 773.83 774.61 774.59
  Q 758.33 778.86 742.13 777.85
  Q 729.46 777.06 717.12 772.77
  L 716.80 769.68
  A 1.85 1.84 -27.5 0 1 717.23 768.32
  Q 720.99 763.98 727.59 762.31
  Q 740.73 759.00 754.01 758.57
  Q 764.14 758.25 779.80 761.77
  C 782.07 762.28 784.20 763.60 785.23 765.60
  A 1.32 1.31 45.7 0 1 785.22 766.83
  Q 783.82 769.44 781.45 771.47
  Z"
/>
<path d="
  M 1357.53 773.26
  Q 1351.54 775.73 1346.30 776.58
  C 1329.23 779.36 1312.54 780.13 1294.05 776.62
  Q 1287.60 774.28 1284.04 771.71
  Q 1282.73 770.75 1283.09 768.49
  A 1.54 1.52 72.2 0 1 1283.50 767.68
  Q 1287.87 763.08 1294.17 761.92
  Q 1312.59 758.53 1328.90 758.80
  Q 1335.05 758.90 1345.83 760.92
  Q 1355.64 762.75 1361.91 769.27
  A 0.80 0.80 0.0 0 1 1361.77 770.49
  L 1357.53 773.26
  Z"
/>
<path d="
  M 1112.20 772.95
  Q 1098.73 778.29 1084.22 778.20
  Q 1068.17 778.10 1056.10 774.67
  Q 1053.13 773.82 1051.33 772.47
  A 3.12 3.09 36.4 0 1 1050.66 768.20
  C 1053.46 764.29 1060.29 762.23 1064.77 761.34
  Q 1075.41 758.87 1090.70 758.83
  C 1098.29 758.81 1112.07 760.78 1117.35 766.57
  A 1.44 1.44 0.0 0 1 1117.46 768.38
  Q 1115.47 771.14 1112.20 772.95
  Z"
/>
<path d="
  M 635.98 770.32
  Q 617.66 779.66 596.92 777.01
  Q 588.58 775.94 580.17 775.11
  Q 576.51 774.74 570.54 771.90
  L 568.42 769.91
  A 1.75 1.73 -52.9 0 1 568.13 767.74
  Q 571.20 762.63 577.44 761.90
  C 589.91 760.46 599.99 758.80 612.45 759.03
  C 620.75 759.19 632.37 760.86 638.11 766.87
  A 0.71 0.70 -53.6 0 1 638.23 767.68
  Q 637.46 769.18 635.98 770.32
  Z"
/>
<path d="
  M 139.80 771.57
  Q 136.73 774.87 132.44 775.94
  Q 120.14 779.02 107.01 777.42
  Q 101.83 776.68 96.77 775.45
  C 91.24 774.10 86.35 773.00 83.42 768.44
  A 1.17 1.17 0.0 0 1 83.37 767.23
  C 87.98 758.62 105.27 758.65 113.41 759.72
  Q 123.16 761.00 129.86 760.90
  Q 132.18 760.87 135.05 762.48
  Q 140.30 765.45 139.80 771.57
  Z"
/>
<path d="
  M 486.00 759.34
  C 491.99 760.42 496.63 761.18 500.36 765.39
  Q 502.37 767.65 500.30 769.43
  A 2.42 2.34 -74.6 0 1 499.64 769.82
  C 490.73 773.07 483.54 775.25 474.08 772.36
  Q 468.62 771.16 467.19 765.99
  C 465.87 761.21 470.77 759.34 474.50 759.32
  Q 480.20 759.28 486.00 759.34
  Z"
/>
<path d="
  M 1536.00 760.50
  L 1536.00 773.99
  Q 1533.87 773.97 1531.99 772.74
  L 1527.79 768.82
  A 2.46 2.46 0.0 0 1 1527.76 765.26
  Q 1531.00 762.10 1536.00 760.50
  Z"
/>
<path d="
  M 1431.04 778.21
  L 1424.31 779.69
  Q 1417.24 780.21 1410.19 780.56
  C 1403.09 780.92 1396.63 780.27 1389.68 780.03
  C 1384.25 779.85 1369.58 776.72 1368.70 770.95
  C 1367.99 766.26 1372.67 764.87 1376.77 763.80
  Q 1388.29 760.80 1401.38 760.89
  Q 1417.27 760.99 1420.02 760.98
  A 7.42 7.38 54.1 0 1 1422.36 761.36
  C 1428.55 763.45 1433.60 764.65 1437.32 768.66
  C 1441.45 773.14 1434.47 777.13 1431.04 778.21
  Z"
/>
<path d="
  M 167.05 762.05
  Q 171.61 763.07 175.30 765.32
  A 0.91 0.91 0.0 0 1 175.21 766.93
  C 167.61 770.45 159.51 770.77 150.78 772.27
  Q 147.12 772.90 143.31 770.14
  L 142.96 762.75
  A 0.51 0.51 0.0 0 1 143.47 762.21
  L 167.05 762.05
  Z"
/>
<path d="
  M 563.73 774.74
  Q 554.96 777.77 547.72 778.40
  Q 531.66 779.80 515.12 777.98
  Q 508.92 777.29 505.12 773.54
  A 1.91 1.90 47.2 0 1 505.22 770.74
  Q 509.39 767.19 514.74 764.80
  C 522.58 761.75 529.92 760.38 538.22 762.79
  C 547.88 765.60 555.09 767.84 563.84 768.83
  A 1.14 1.13 4.8 0 1 564.85 770.02
  Q 564.73 772.33 563.73 774.74
  Z"
/>
</g>
<path fill="#50619f" d="
  M 1536.00 732.97
  L 1536.00 735.87
  C 1526.42 736.66 1516.70 736.18 1509.28 737.07
  C 1503.78 737.73 1497.66 738.69 1493.74 742.32
  A 1.23 1.23 0.0 0 0 1493.90 744.25
  Q 1499.61 747.97 1506.62 749.14
  Q 1514.61 750.48 1524.87 751.89
  Q 1529.85 752.57 1536.00 751.23
  L 1536.00 760.50
  Q 1531.00 762.10 1527.76 765.26
  A 2.46 2.46 0.0 0 0 1527.79 768.82
  L 1531.99 772.74
  Q 1527.13 769.78 1524.82 769.47
  Q 1520.97 768.96 1519.41 769.74
  Q 1511.10 773.92 1501.98 775.16
  L 1487.79 770.58
  A 0.66 0.66 0.0 0 1 1487.66 769.39
  Q 1489.05 768.54 1491.21 768.17
  Q 1508.94 765.09 1517.37 763.43
  Q 1521.52 762.60 1524.60 760.32
  A 1.34 1.34 0.0 0 0 1524.50 758.10
  Q 1521.95 756.56 1518.88 755.63
  Q 1507.44 752.15 1495.35 752.39
  Q 1489.67 752.50 1484.93 755.64
  A 0.99 0.98 -32.1 0 0 1484.62 756.96
  L 1486.16 759.63
  A 0.36 0.36 0.0 0 1 1485.77 760.16
  C 1476.14 758.06 1467.39 759.53 1456.07 761.08
  Q 1447.60 762.24 1442.85 767.51
  A 2.18 2.13 70.3 0 0 1442.32 768.66
  Q 1442.16 769.85 1442.67 771.20
  A 1.65 1.64 -88.2 0 0 1443.52 772.11
  L 1448.96 774.54
  L 1431.04 778.21
  C 1434.47 777.13 1441.45 773.14 1437.32 768.66
  C 1433.60 764.65 1428.55 763.45 1422.36 761.36
  A 7.42 7.38 54.1 0 0 1420.02 760.98
  Q 1417.27 760.99 1401.38 760.89
  Q 1388.29 760.80 1376.77 763.80
  C 1372.67 764.87 1367.99 766.26 1368.70 770.95
  C 1369.58 776.72 1384.25 779.85 1389.68 780.03
  C 1396.63 780.27 1403.09 780.92 1410.19 780.56
  Q 1417.24 780.21 1424.31 779.69
  Q 1417.49 781.54 1410.41 781.86
  C 1408.00 781.97 1404.87 782.39 1403.21 783.63
  C 1399.44 786.44 1397.65 787.80 1393.63 787.23
  Q 1382.07 785.60 1372.21 780.05
  C 1367.28 777.28 1363.21 774.34 1357.53 773.26
  L 1361.77 770.49
  A 0.80 0.80 0.0 0 0 1361.91 769.27
  Q 1355.64 762.75 1345.83 760.92
  Q 1335.05 758.90 1328.90 758.80
  Q 1312.59 758.53 1294.17 761.92
  Q 1287.87 763.08 1283.50 767.68
  A 1.54 1.52 72.2 0 0 1283.09 768.49
  Q 1282.73 770.75 1284.04 771.71
  Q 1287.60 774.28 1294.05 776.62
  Q 1281.23 774.99 1277.56 775.30
  C 1256.74 777.11 1242.16 778.71 1227.97 778.34
  C 1236.06 778.10 1244.04 776.53 1251.96 775.02
  C 1259.25 773.63 1263.72 773.66 1270.38 773.36
  C 1273.46 773.22 1278.13 773.44 1277.86 770.01
  A 1.35 1.35 0.0 0 0 1277.37 769.06
  Q 1268.55 761.86 1260.76 760.25
  Q 1247.34 757.46 1231.75 758.17
  Q 1226.15 758.43 1214.29 759.94
  Q 1213.64 757.09 1211.55 755.00
  Q 1223.36 752.64 1234.59 748.17
  A 2.02 1.98 4.8 0 0 1235.52 747.40
  Q 1236.53 745.83 1236.44 744.19
  A 2.31 2.28 -65.3 0 0 1235.99 742.95
  Q 1232.28 737.99 1225.82 737.58
  C 1214.22 736.86 1197.34 735.93 1182.78 736.43
  Q 1169.94 736.88 1166.80 737.42
  Q 1164.48 737.81 1158.92 740.35
  A 1.88 1.86 88.9 0 0 1157.95 741.37
  Q 1156.99 743.82 1158.29 745.24
  C 1163.43 750.81 1170.59 752.21 1177.72 754.04
  Q 1176.21 755.95 1175.77 758.47
  C 1162.56 755.78 1148.35 757.02 1135.43 760.43
  Q 1129.17 762.08 1124.42 766.07
  A 2.96 2.95 54.4 0 0 1123.79 769.88
  Q 1125.64 772.89 1130.04 774.68
  L 1112.20 772.95
  Q 1115.47 771.14 1117.46 768.38
  A 1.44 1.44 0.0 0 0 1117.35 766.57
  C 1112.07 760.78 1098.29 758.81 1090.70 758.83
  Q 1075.41 758.87 1064.77 761.34
  Q 1052.55 759.91 1045.04 770.23
  C 1048.06 763.88 1040.06 760.27 1035.23 759.29
  Q 1029.77 758.19 1020.02 757.25
  Q 1013.78 756.65 1007.53 757.52
  C 999.12 758.69 986.88 759.42 984.74 766.47
  Q 983.74 769.75 987.57 771.94
  C 984.24 770.05 980.67 768.50 977.13 769.80
  Q 971.60 771.83 965.23 773.15
  Q 969.57 771.79 973.86 770.07
  Q 978.88 768.07 979.87 762.68
  A 0.81 0.80 -65.7 0 0 979.58 761.90
  C 974.85 758.24 968.55 757.71 961.83 757.05
  Q 951.09 756.00 940.42 757.89
  C 932.92 759.21 926.84 760.41 922.61 766.59
  A 1.27 1.27 0.0 0 0 923.05 768.42
  Q 930.78 772.62 939.99 773.92
  L 906.25 772.96
  C 909.13 771.95 919.38 768.03 917.30 763.37
  C 915.70 759.79 912.42 759.00 908.37 757.99
  Q 884.46 752.00 860.63 758.67
  C 856.88 759.72 853.05 763.61 856.88 767.38
  Q 860.09 770.55 864.83 772.18
  L 844.25 773.56
  L 850.27 770.18
  A 0.85 0.85 0.0 0 0 850.58 769.00
  C 845.62 760.74 835.13 756.99 825.95 756.91
  Q 812.57 756.79 800.47 759.90
  Q 793.40 761.71 789.92 767.28
  A 1.67 1.67 0.0 0 0 790.37 769.53
  L 795.25 773.01
  L 781.45 771.47
  Q 783.82 769.44 785.22 766.83
  A 1.32 1.31 45.7 0 0 785.23 765.60
  C 784.20 763.60 782.07 762.28 779.80 761.77
  Q 764.14 758.25 754.01 758.57
  Q 740.73 759.00 727.59 762.31
  Q 720.99 763.98 717.23 768.32
  A 1.85 1.84 -27.5 0 0 716.80 769.68
  L 717.12 772.77
  L 700.61 773.04
  Q 707.09 770.32 712.21 766.55
  A 1.68 1.68 0.0 0 0 712.17 763.81
  C 709.58 762.02 706.98 761.54 704.05 760.62
  Q 679.36 752.88 653.27 759.26
  C 648.66 760.39 644.38 762.99 643.70 767.96
  A 2.19 2.18 25.3 0 0 644.38 769.85
  Q 647.00 772.29 650.97 773.74
  L 635.98 770.32
  Q 637.46 769.18 638.23 767.68
  A 0.71 0.70 -53.6 0 0 638.11 766.87
  C 632.37 760.86 620.75 759.19 612.45 759.03
  C 599.99 758.80 589.91 760.46 577.44 761.90
  Q 571.20 762.63 568.13 767.74
  A 1.75 1.73 -52.9 0 0 568.42 769.91
  L 570.54 771.90
  Q 567.99 770.78 566.24 768.40
  A 0.43 0.43 0.0 0 0 565.47 768.61
  Q 565.32 770.00 566.16 771.62
  A 1.17 1.14 -46.8 0 1 566.18 772.62
  Q 565.50 774.10 563.73 774.74
  Q 564.73 772.33 564.85 770.02
  A 1.14 1.13 4.8 0 0 563.84 768.83
  C 555.09 767.84 547.88 765.60 538.22 762.79
  C 529.92 760.38 522.58 761.75 514.74 764.80
  Q 507.84 759.02 499.16 756.23
  C 513.64 756.04 528.40 758.33 539.49 746.53
  A 1.63 1.62 47.3 0 0 539.57 744.39
  C 534.28 737.90 527.40 737.41 518.57 737.06
  Q 489.36 735.87 464.73 737.89
  Q 460.51 738.24 455.54 739.81
  C 453.35 740.50 452.69 742.53 453.31 744.32
  A 1.86 1.86 0.0 0 0 453.96 745.20
  Q 459.53 749.21 466.95 750.99
  Q 476.94 753.40 487.30 755.22
  Q 484.06 756.96 486.00 759.34
  Q 480.20 759.28 474.50 759.32
  C 470.77 759.34 465.87 761.21 467.19 765.99
  Q 468.62 771.16 474.08 772.36
  Q 467.53 772.06 461.31 773.26
  Q 465.11 767.47 463.88 760.42
  A 0.83 0.83 0.0 0 0 463.32 759.76
  C 450.49 755.51 435.81 756.97 423.26 759.84
  C 418.01 761.04 411.91 763.19 413.05 770.13
  L 404.97 770.04
  C 406.68 768.05 408.58 766.61 406.76 763.54
  C 404.67 760.02 399.02 758.24 394.99 757.51
  Q 373.09 753.56 351.92 758.25
  C 348.29 759.05 343.54 760.70 340.10 762.80
  Q 336.66 764.90 336.61 768.43
  A 2.10 2.10 0.0 0 0 336.88 769.46
  C 339.47 774.04 346.80 775.60 352.02 776.36
  Q 360.37 777.57 369.08 778.59
  Q 364.21 780.58 357.02 779.30
  A 0.41 0.40 9.0 0 0 356.55 779.64
  L 356.51 779.94
  A 0.42 0.41 21.1 0 1 355.87 780.22
  Q 355.22 779.80 354.86 780.20
  A 0.41 0.41 0.0 0 0 355.11 780.88
  C 359.34 781.47 363.27 782.22 364.94 786.17
  A 1.59 1.58 -11.7 0 1 363.49 788.37
  C 361.11 788.40 358.11 788.13 355.61 787.21
  Q 349.22 784.87 342.44 783.58
  C 340.39 783.19 337.88 781.66 336.35 780.26
  Q 330.63 775.05 322.68 773.93
  Q 327.39 771.88 329.63 768.46
  A 2.33 2.32 -51.9 0 0 329.27 765.47
  Q 325.32 761.81 320.94 760.58
  Q 305.37 756.22 288.96 757.57
  Q 281.27 758.20 273.82 759.16
  C 265.31 756.56 255.12 755.82 246.24 755.40
  Q 250.84 755.45 261.81 755.20
  Q 274.49 754.92 285.51 750.12
  Q 290.78 747.82 294.95 743.68
  A 1.46 1.46 0.0 0 0 295.03 741.68
  Q 292.48 738.74 288.23 737.33
  A 3.78 3.42 52.3 0 0 287.28 737.16
  Q 256.57 736.12 228.44 736.94
  C 222.30 737.11 213.99 737.94 212.71 745.30
  A 1.14 1.14 0.0 0 0 213.15 746.41
  C 220.16 751.67 229.30 752.72 237.72 754.56
  Q 231.02 754.68 228.38 758.69
  Q 213.59 755.74 198.57 758.49
  C 191.84 759.72 185.14 759.92 180.33 765.62
  Q 174.16 761.53 167.05 762.05
  L 143.47 762.21
  A 0.51 0.51 0.0 0 0 142.96 762.75
  L 143.31 770.14
  C 141.53 768.50 140.54 770.15 139.80 771.57
  Q 140.30 765.45 135.05 762.48
  Q 132.18 760.87 129.86 760.90
  Q 123.16 761.00 113.41 759.72
  C 105.27 758.65 87.98 758.62 83.37 767.23
  A 1.17 1.17 0.0 0 0 83.42 768.44
  C 86.35 773.00 91.24 774.10 96.77 775.45
  Q 101.83 776.68 107.01 777.42
  L 94.55 776.50
  A 0.20 0.20 0.0 0 0 94.38 776.82
  Q 97.13 780.18 99.62 781.04
  Q 106.37 783.39 110.29 785.22
  A 1.44 1.44 0.0 0 1 110.49 787.71
  C 95.03 798.20 70.07 797.26 54.79 786.68
  A 0.89 0.88 22.1 0 1 54.42 785.81
  Q 54.89 783.07 54.65 781.63
  C 53.80 776.52 41.70 777.07 37.80 777.05
  Q 33.42 777.03 26.97 775.00
  Q 47.39 778.67 66.95 771.76
  Q 73.03 769.62 77.69 765.09
  A 1.64 1.63 46.5 0 0 77.75 762.81
  Q 73.86 758.61 67.97 757.44
  C 52.15 754.31 36.90 756.09 20.85 758.58
  C 15.39 759.43 9.63 761.58 7.50 767.21
  A 1.76 1.76 0.0 0 0 8.02 769.18
  C 11.82 772.31 17.50 773.19 23.97 774.45
  L 16.46 773.67
  A 1.01 1.01 0.0 0 0 15.67 773.95
  L 13.57 776.06
  A 1.05 1.05 0.0 0 0 13.95 777.79
  Q 22.72 780.99 31.08 785.98
  A 0.58 0.58 0.0 0 1 30.85 787.06
  Q 26.79 787.53 22.32 789.03
  C 14.99 791.51 7.57 792.73 0.00 793.43
  L 0.00 751.72
  Q 10.65 753.88 19.36 752.97
  Q 24.89 752.39 40.70 749.49
  Q 46.61 748.41 51.47 743.77
  A 0.79 0.79 0.0 0 0 51.61 742.80
  L 49.75 739.58
  A 0.59 0.58 -8.1 0 0 49.41 739.33
  Q 39.66 736.93 27.37 736.82
  Q 14.78 736.70 0.00 735.27
  L 0.00 733.02
  L 1536.00 732.97
  Z"
/>
<path fill="#334274" d="
  M 1536.00 843.55
  L 1536.00 858.13
  L 0.00 858.14
  L 0.00 848.84
  C 6.73 848.84 12.80 848.90 20.05 848.38
  Q 26.62 847.92 34.24 848.23
  C 49.14 848.86 58.77 849.85 72.11 849.31
  Q 97.21 848.30 127.25 849.63
  Q 133.88 849.92 161.99 848.47
  Q 164.29 848.36 167.49 848.43
  C 174.13 848.60 180.60 847.44 187.31 847.80
  Q 211.42 849.08 231.58 848.69
  C 241.44 848.50 249.77 849.21 258.47 849.03
  C 268.90 848.82 278.25 849.50 289.56 849.93
  Q 294.62 850.12 308.24 848.92
  C 314.53 848.36 319.61 849.24 325.64 848.82
  Q 334.29 848.21 334.82 848.19
  C 344.10 847.67 352.35 848.87 361.41 848.87
  C 380.61 848.87 391.04 849.02 406.48 848.70
  Q 421.63 848.39 425.93 848.60
  Q 449.16 849.75 473.25 848.52
  C 480.87 848.12 489.34 845.40 493.64 838.74
  A 1.57 1.57 0.0 0 1 496.00 838.41
  Q 502.90 844.48 503.23 844.73
  C 506.93 847.42 512.61 847.77 517.67 847.47
  Q 532.59 846.61 547.57 846.46
  Q 552.30 846.42 559.22 844.67
  C 567.31 842.62 574.98 846.56 582.53 847.22
  Q 604.07 849.09 623.51 848.44
  Q 629.25 848.25 631.66 847.02
  C 637.83 843.87 643.97 839.28 650.33 844.24
  Q 652.14 845.65 655.45 847.46
  A 2.41 2.26 61.8 0 0 656.25 847.73
  C 669.15 849.77 682.71 849.70 696.56 849.30
  Q 707.91 848.97 716.41 843.92
  A 1.75 1.75 0.0 0 1 717.49 843.68
  C 739.23 845.80 752.83 847.80 771.16 845.97
  Q 772.52 845.83 789.76 842.97
  C 797.32 841.71 804.27 842.47 813.37 843.77
  Q 831.13 846.30 844.74 845.95
  Q 873.39 845.20 882.75 845.76
  Q 885.51 845.92 887.47 846.46
  C 898.03 849.33 909.94 849.87 920.10 849.79
  C 932.96 849.68 941.14 849.49 951.57 845.05
  Q 954.80 843.68 956.28 841.85
  C 963.56 832.88 946.58 825.25 940.75 822.89
  A 0.08 0.07 -34.0 0 1 940.78 822.75
  C 951.29 821.80 959.63 823.20 971.02 826.37
  A 0.34 0.34 0.0 0 1 971.14 826.96
  Q 966.69 830.61 965.03 835.56
  A 0.52 0.51 26.0 0 0 965.24 836.16
  Q 967.94 837.89 976.96 840.10
  Q 985.09 842.10 994.94 843.36
  Q 998.98 843.87 1002.65 843.46
  Q 1014.23 842.18 1024.71 839.02
  C 1030.61 837.24 1033.83 834.82 1032.64 828.47
  Q 1032.51 827.79 1032.48 827.25
  A 0.36 0.36 0.0 0 1 1032.84 826.87
  L 1041.38 826.87
  A 0.35 0.35 0.0 0 1 1041.70 827.35
  Q 1039.49 832.59 1039.48 836.08
  C 1039.48 845.01 1051.11 847.69 1058.24 848.29
  Q 1068.85 849.18 1084.65 849.14
  Q 1096.69 849.11 1106.75 844.51
  C 1111.89 842.16 1113.67 837.72 1117.34 833.35
  A 0.92 0.92 0.0 0 1 1118.95 833.79
  C 1119.92 839.49 1122.26 843.07 1127.89 844.81
  Q 1133.08 846.42 1137.71 846.76
  C 1141.21 847.01 1144.11 845.63 1147.46 844.61
  A 22.10 21.32 -56.1 0 1 1150.89 843.87
  C 1155.34 843.30 1161.94 843.95 1166.65 843.27
  Q 1181.07 841.18 1189.09 838.14
  C 1195.40 835.74 1192.65 829.50 1189.23 826.08
  A 0.71 0.71 0.0 0 1 1189.84 824.88
  L 1197.05 825.95
  A 12.87 12.68 45.4 0 0 1200.35 826.00
  L 1206.86 825.22
  A 0.62 0.61 23.8 0 1 1207.29 826.33
  Q 1203.75 828.88 1202.17 833.53
  C 1198.62 844.02 1214.26 847.38 1221.70 848.23
  Q 1236.57 849.95 1242.30 849.86
  C 1255.68 849.65 1268.46 849.52 1281.24 848.74
  Q 1290.08 848.20 1291.76 848.27
  C 1307.56 848.95 1325.49 849.99 1343.24 848.65
  Q 1353.95 847.84 1366.89 848.12
  Q 1404.10 848.92 1425.68 848.73
  Q 1440.80 848.59 1458.72 848.62
  C 1467.58 848.63 1474.96 849.27 1485.74 849.57
  Q 1506.30 850.15 1523.63 846.08
  C 1526.53 845.40 1528.59 843.25 1531.62 843.13
  Q 1533.79 843.05 1536.00 843.55
  Z"
/>
<g stroke-width="2.00" fill="none" stroke-linecap="butt">
<path stroke="#5768a4" vector-effect="non-scaling-stroke" d="
  M 360.75 809.93
  Q 342.97 804.36 326.86 803.16
  Q 312.17 802.05 291.93 802.87"
/>
<path stroke="#5768a4" vector-effect="non-scaling-stroke" d="
  M 1320.72 803.66
  Q 1297.75 796.93 1276.82 797.71
  Q 1259.86 798.34 1242.90 798.76"
/>
<path stroke="#5768a4" vector-effect="non-scaling-stroke" d="
  M 536.62 804.73
  Q 530.32 803.53 523.88 803.56
  Q 512.94 803.61 502.03 804.49
  Q 497.98 804.82 497.11 804.78
  Q 485.01 804.22 480.04 803.95
  C 474.60 803.66 468.63 804.36 462.98 804.98"
/>
<path stroke="#5768a4" vector-effect="non-scaling-stroke" d="
  M 73.24 801.56
  Q 67.75 803.47 64.19 803.56
  Q 49.27 803.96 34.36 804.39
  Q 30.43 804.51 16.96 803.54
  Q 10.94 803.10 6.76 799.79"
/>
</g>
<g fill="#5d6ea8">
<path d="
  M 167.28 736.10
  C 170.80 736.20 175.42 736.06 179.32 736.46
  Q 186.06 737.16 197.04 738.48
  Q 202.95 739.20 206.95 743.14
  A 1.56 1.52 19.2 0 1 207.39 744.02
  C 208.25 750.52 191.45 754.17 186.38 755.26
  Q 180.17 756.60 171.88 756.50
  Q 152.27 756.27 146.99 755.75
  C 143.64 755.42 125.79 752.53 125.87 747.50
  Q 125.93 743.45 129.90 741.83
  Q 138.21 738.46 145.64 737.72
  C 155.38 736.75 159.72 735.90 167.28 736.10
  Z"
/>
<path d="
  M 1013.31 744.60
  Q 1010.71 747.33 1007.73 748.76
  C 1002.05 751.47 999.50 753.01 994.47 753.73
  Q 986.05 754.95 977.01 753.07
  C 968.19 751.24 962.08 750.07 955.42 746.23
  A 2.04 1.94 1.5 0 1 954.70 745.51
  Q 953.14 742.88 955.12 740.49
  A 2.21 2.12 -80.6 0 1 955.91 739.90
  Q 961.57 737.40 964.52 737.19
  Q 974.36 736.45 986.24 736.83
  Q 986.77 736.85 987.20 736.41
  A 0.80 0.78 -67.4 0 1 987.72 736.19
  Q 1001.37 735.87 1011.78 740.44
  Q 1013.48 741.18 1013.63 743.72
  A 1.18 1.18 0.0 0 1 1013.31 744.60
  Z"
/>
<path d="
  M 1363.66 736.22
  C 1367.75 736.56 1374.91 737.13 1380.93 737.17
  C 1389.63 737.22 1397.00 737.09 1404.20 740.08
  Q 1408.43 741.84 1409.15 746.20
  A 1.29 1.26 -29.7 0 1 1408.85 747.25
  Q 1406.07 750.47 1402.97 751.50
  Q 1388.57 756.24 1372.02 756.25
  C 1359.36 756.26 1348.61 755.29 1338.02 748.99
  C 1335.74 747.64 1333.41 744.93 1334.08 742.21
  A 2.37 2.30 -20.6 0 1 1334.46 741.40
  Q 1337.96 736.57 1343.03 736.57
  Q 1350.13 736.58 1353.35 736.36
  Q 1360.02 735.91 1363.66 736.22
  Z"
/>
<path d="
  M 380.78 743.17
  Q 383.50 738.28 389.65 737.64
  Q 404.58 736.08 420.27 736.68
  C 429.98 737.05 439.15 737.38 446.58 742.65
  A 1.57 1.56 8.9 0 1 447.19 743.48
  Q 447.80 745.49 446.84 746.36
  C 443.19 749.68 439.40 751.52 434.61 752.71
  Q 411.05 758.54 388.15 750.79
  C 385.60 749.93 383.27 748.32 381.29 746.45
  A 2.71 2.70 -53.9 0 1 380.78 743.17
  Z"
/>
<path d="
  M 677.64 741.32
  A 0.83 0.83 0.0 0 1 677.74 742.34
  C 670.15 754.00 643.20 752.34 631.59 750.41
  C 627.75 749.77 621.22 748.04 620.24 743.76
  C 618.70 737.07 628.12 736.25 632.63 736.33
  Q 641.31 736.49 660.50 736.69
  C 666.54 736.75 673.58 737.05 677.64 741.32
  Z"
/>
<path d="
  M 949.08 747.14
  A 1.60 1.60 0.0 0 1 948.55 747.90
  C 939.80 754.72 926.76 756.50 916.10 754.77
  Q 908.84 753.59 900.80 751.50
  Q 894.52 749.86 890.50 745.74
  A 2.49 2.48 -42.5 0 1 890.66 742.12
  Q 895.60 737.86 902.63 737.33
  C 914.53 736.44 925.31 735.43 937.67 737.73
  Q 945.64 739.22 949.09 743.36
  A 2.16 2.15 19.3 0 1 949.54 744.29
  Q 949.72 745.17 949.08 747.14
  Z"
/>
<path d="
  M 1076.52 746.09
  Q 1076.24 746.91 1075.65 747.33
  C 1066.76 753.53 1055.07 755.06 1043.27 754.72
  C 1035.54 754.50 1020.68 752.65 1017.66 745.57
  C 1016.25 742.28 1022.31 739.03 1024.72 738.26
  Q 1026.20 737.79 1032.35 737.13
  Q 1049.10 735.32 1067.88 738.09
  C 1071.85 738.67 1078.19 741.19 1076.52 746.09
  Z"
/>
<path d="
  M 1243.65 747.37
  C 1239.89 737.16 1252.43 736.96 1259.38 736.77
  Q 1263.22 736.67 1285.01 736.39
  Q 1300.56 736.20 1313.91 736.80
  C 1319.31 737.05 1324.62 738.15 1327.00 743.68
  A 1.91 1.89 58.0 0 1 1326.50 745.88
  Q 1321.25 750.38 1314.38 752.42
  C 1302.14 756.04 1291.43 756.19 1278.04 755.60
  Q 1264.44 755.01 1252.54 751.74
  Q 1248.46 750.61 1244.21 748.06
  A 1.34 1.29 -85.1 0 1 1243.65 747.37
  Z"
/>
<path d="
  M 1427.22 736.55
  A 0.86 0.85 31.1 0 1 1427.62 738.16
  Q 1420.45 741.89 1413.40 741.94
  A 2.75 2.74 89.8 0 1 1410.64 739.19
  L 1410.64 738.60
  A 2.05 2.04 -90.0 0 1 1412.68 736.55
  L 1427.22 736.55
  Z"
/>
<path d="
  M 1417.45 748.91
  C 1422.24 743.80 1428.52 740.92 1435.51 739.48
  Q 1446.85 737.16 1459.63 736.76
  C 1466.10 736.56 1471.35 737.49 1479.23 738.29
  Q 1485.82 738.96 1489.35 743.92
  A 2.35 2.34 54.2 0 1 1488.83 747.16
  C 1482.81 751.56 1475.05 754.43 1467.38 755.23
  Q 1449.79 757.06 1443.48 756.62
  Q 1440.05 756.39 1419.38 753.02
  A 2.11 2.10 69.1 0 1 1418.38 752.57
  Q 1416.84 751.30 1417.02 749.84
  A 1.62 1.59 70.3 0 1 1417.45 748.91
  Z"
/>
<path d="
  M 544.96 745.94
  Q 545.47 742.94 547.42 741.85
  Q 555.33 737.40 565.94 737.11
  Q 566.53 737.09 586.61 736.62
  C 593.60 736.45 598.77 737.57 607.73 738.52
  C 612.26 739.01 619.35 744.72 613.02 749.33
  Q 606.65 753.96 597.90 754.53
  Q 592.27 754.90 584.79 755.35
  Q 576.02 755.88 571.65 755.58
  Q 560.54 754.80 550.30 751.50
  Q 546.33 750.22 545.07 747.02
  A 1.99 1.94 -51.6 0 1 544.96 745.94
  Z"
/>
<path d="
  M 818.12 743.70
  C 813.33 751.72 798.28 754.76 789.64 755.12
  Q 773.91 755.78 759.84 752.90
  C 754.85 751.88 747.05 749.77 745.60 744.22
  A 1.36 1.36 0.0 0 1 745.87 743.00
  C 750.97 736.88 757.15 737.00 766.15 736.67
  Q 768.87 736.57 806.25 736.79
  Q 812.18 736.83 816.99 739.60
  Q 818.03 740.20 818.33 742.70
  A 1.55 1.53 57.4 0 1 818.12 743.70
  Z"
/>
<path d="
  M 823.37 743.59
  Q 823.36 742.38 823.83 741.24
  A 1.87 1.83 86.0 0 1 824.56 740.38
  Q 829.81 737.07 837.65 736.81
  Q 859.51 736.08 879.11 738.41
  Q 880.93 738.63 884.85 740.28
  A 1.25 1.23 -0.4 0 1 885.51 740.92
  Q 886.23 742.56 885.73 744.05
  A 1.52 1.49 82.3 0 1 885.14 744.84
  Q 881.06 747.61 875.80 748.80
  Q 869.08 750.31 859.31 751.94
  Q 851.85 753.18 846.43 752.60
  C 838.57 751.76 829.30 750.64 823.75 744.54
  A 1.45 1.43 -67.2 0 1 823.37 743.59
  Z"
/>
<path d="
  M 1153.12 744.55
  Q 1153.04 745.78 1152.36 747.02
  A 1.75 1.72 -89.1 0 1 1151.66 747.71
  C 1142.43 752.60 1131.95 754.58 1120.26 754.98
  Q 1104.34 755.53 1090.90 752.70
  Q 1085.21 751.49 1081.30 746.50
  A 1.50 1.48 28.0 0 1 1080.99 745.51
  C 1081.16 742.02 1086.10 739.46 1088.94 738.27
  A 3.27 2.98 -57.1 0 1 1089.78 738.05
  Q 1106.94 736.43 1110.09 736.46
  Q 1133.53 736.72 1140.30 737.56
  C 1145.73 738.23 1149.48 739.44 1152.82 743.60
  A 1.35 1.32 -63.2 0 1 1153.12 744.55
  Z"
/>
<path d="
  M 54.81 744.23
  Q 56.79 739.67 61.79 738.31
  Q 67.74 736.68 76.04 736.79
  Q 108.72 737.21 111.58 737.12
  Q 117.23 736.94 121.67 740.04
  A 2.59 2.58 -50.6 0 1 122.05 743.96
  Q 118.47 747.67 112.93 749.02
  C 101.93 751.70 90.64 755.10 78.89 753.27
  Q 67.89 751.55 62.72 750.10
  C 59.90 749.31 57.33 747.82 55.18 745.89
  A 1.46 1.46 0.0 0 1 54.81 744.23
  Z"
/>
<path d="
  M 301.66 743.38
  Q 301.61 742.12 302.85 739.40
  A 1.61 1.61 0.0 0 1 303.94 738.51
  Q 310.95 736.84 316.76 736.86
  Q 331.26 736.91 365.57 737.27
  Q 370.35 737.32 374.71 738.70
  A 1.61 1.57 -8.5 0 1 375.50 739.27
  Q 376.94 741.24 375.97 743.80
  A 1.77 1.73 83.1 0 1 375.34 744.62
  C 368.94 749.23 362.97 749.59 353.26 751.59
  Q 345.72 753.14 338.60 753.01
  Q 322.94 752.71 312.37 750.42
  Q 306.47 749.15 302.30 744.86
  A 2.24 2.20 22.1 0 1 301.66 743.38
  Z"
/>
<path d="
  M 739.81 744.36
  A 2.97 2.97 0.0 0 1 738.62 748.20
  Q 732.41 751.82 725.21 753.76
  Q 721.34 754.81 715.51 755.14
  Q 707.43 755.59 705.70 755.33
  Q 694.79 753.67 691.64 752.87
  Q 686.47 751.57 682.93 749.20
  C 679.91 747.18 680.67 743.43 682.92 741.25
  C 686.48 737.81 694.00 736.96 699.36 736.94
  Q 714.66 736.87 727.90 738.19
  C 732.34 738.63 737.81 740.12 739.81 744.36
  Z"
/>
<path d="
  M 568.70 762.78
  Q 563.79 767.32 557.13 765.54
  Q 549.61 763.54 545.34 762.55
  A 0.78 0.78 0.0 0 1 545.38 761.03
  Q 556.53 759.07 568.50 761.98
  A 0.47 0.47 0.0 0 1 568.70 762.78
  Z"
/>
<path d="
  M 212.10 784.79
  C 211.67 788.83 205.20 791.67 201.39 793.34
  Q 197.94 794.85 191.89 795.89
  Q 176.42 798.54 162.42 796.82
  Q 154.85 795.90 143.41 793.14
  C 138.52 791.96 133.18 787.40 137.29 782.39
  C 138.33 781.12 141.88 779.66 143.19 779.42
  Q 159.53 776.41 174.98 776.32
  Q 180.11 776.29 186.41 777.36
  C 196.35 779.03 203.64 779.73 211.35 783.46
  A 1.33 1.33 0.0 0 1 212.10 784.79
  Z"
/>
<path d="
  M 360.75 809.93
  Q 342.97 804.36 326.86 803.16
  Q 312.17 802.05 291.93 802.87
  A 37.77 14.33 -0.2 0 1 299.49 793.29
  A 37.68 14.30 -0.1 0 1 311.45 789.34
  A 37.81 14.25 -0.2 0 1 324.88 787.66
  A 37.78 14.33 -0.1 0 1 357.22 792.04
  A 37.73 14.31 -0.1 0 1 365.46 797.29
  A 37.84 14.34 0.0 0 1 366.98 799.72
  A 37.71 14.30 0.6 0 1 367.19 803.24
  A 37.80 14.33 -0.2 0 1 360.75 809.93
  Z"
/>
<path d="
  M 1320.72 803.66
  Q 1297.75 796.93 1276.82 797.71
  Q 1259.86 798.34 1242.90 798.76
  C 1247.23 792.96 1255.72 790.79 1262.63 789.43
  Q 1277.16 786.56 1291.06 787.67
  Q 1292.36 787.78 1303.26 789.99
  C 1308.16 790.99 1324.64 796.03 1320.72 803.66
  Z"
/>
<path d="
  M 536.62 804.73
  Q 530.32 803.53 523.88 803.56
  Q 512.94 803.61 502.03 804.49
  Q 497.98 804.82 497.11 804.78
  Q 485.01 804.22 480.04 803.95
  C 474.60 803.66 468.63 804.36 462.98 804.98
  C 462.41 799.60 467.68 797.13 472.20 795.92
  C 479.78 793.90 490.37 791.79 498.92 791.74
  Q 515.52 791.65 530.59 796.69
  C 534.03 797.84 537.88 800.46 536.62 804.73
  Z"
/>
<path d="
  M 73.24 801.56
  Q 67.75 803.47 64.19 803.56
  Q 49.27 803.96 34.36 804.39
  Q 30.43 804.51 16.96 803.54
  Q 10.94 803.10 6.76 799.79
  Q 27.61 790.02 51.38 792.88
  Q 55.55 793.38 59.49 794.71
  C 64.32 796.33 69.36 798.12 73.24 801.56
  Z"
/>
</g>
<g fill="#50619f">
<path d="
  M 889.52 784.07
  C 894.20 780.58 899.54 779.46 905.62 778.26
  C 916.60 776.10 928.80 777.09 939.27 778.55
  C 946.13 779.51 952.42 780.42 957.31 784.40
  A 1.24 1.23 50.8 0 1 957.11 786.45
  Q 955.20 787.44 953.60 788.03
  Q 924.28 798.82 894.83 788.65
  Q 891.89 787.63 889.52 785.88
  A 1.13 1.12 45.1 0 1 889.52 784.07
  Z"
/>
<path d="
  M 873.74 783.38
  A 0.80 0.80 0.0 0 1 873.70 784.81
  C 868.98 787.01 863.38 787.91 853.52 790.18
  C 839.40 793.43 827.46 794.47 815.37 787.72
  A 0.86 0.86 0.0 0 1 815.33 786.24
  Q 820.33 783.10 827.05 782.69
  A 5.57 5.44 -52.8 0 0 827.98 782.55
  Q 842.19 778.98 854.02 777.71
  C 860.08 777.06 868.45 780.52 873.74 783.38
  Z"
/>
<path d="
  M 493.51 780.87
  A 1.20 1.20 0.0 0 1 493.76 782.94
  Q 490.37 785.43 485.09 787.54
  C 469.23 793.88 451.80 795.92 436.30 787.17
  A 0.69 0.68 -52.1 0 1 436.17 786.08
  Q 440.08 782.31 445.95 781.20
  Q 446.39 781.11 462.62 778.51
  Q 468.96 777.50 474.40 777.71
  Q 481.62 778.00 486.60 778.14
  A 2.25 2.14 -31.5 0 1 487.40 778.31
  L 493.51 780.87
  Z"
/>
<path d="
  M 1033.75 784.63
  C 1028.86 789.57 1023.65 790.05 1017.01 790.45
  C 1011.78 790.76 1006.09 793.30 1001.40 792.96
  C 991.78 792.27 981.27 790.42 973.32 785.07
  A 0.60 0.60 0.0 0 1 973.12 784.30
  C 975.99 778.60 980.45 777.92 986.17 778.66
  Q 996.46 779.99 1004.28 781.97
  Q 1009.68 783.33 1012.58 787.99
  A 0.48 0.48 0.0 0 0 1013.35 788.04
  C 1017.90 782.51 1027.59 782.74 1033.62 784.17
  A 0.28 0.27 -61.1 0 1 1033.75 784.63
  Z"
/>
<path d="
  M 416.66 782.59
  C 410.00 788.93 401.58 789.88 393.06 791.10
  C 383.57 792.45 376.41 793.65 368.80 790.17
  A 1.69 1.68 -67.1 0 1 367.93 788.02
  Q 369.80 783.21 375.39 782.57
  Q 389.69 780.93 396.18 779.59
  C 401.03 778.58 406.26 778.14 410.44 778.86
  C 414.45 779.55 418.93 781.22 423.82 781.67
  Q 428.20 782.07 432.30 783.06
  A 1.37 1.37 0.0 0 1 432.00 785.76
  C 427.34 785.85 423.00 784.26 417.64 782.38
  A 0.95 0.94 32.5 0 0 416.66 782.59
  Z"
/>
<path d="
  M 615.05 787.87
  A 1.41 1.41 0.0 0 1 614.53 785.87
  C 617.72 780.85 622.56 779.97 628.20 779.04
  Q 635.13 777.90 641.12 779.97
  A 1.09 1.09 0.0 0 1 641.86 781.00
  Q 641.86 783.40 641.22 785.13
  A 1.71 1.70 84.9 0 1 640.48 786.02
  C 634.11 789.85 622.49 791.87 615.05 787.87
  Z"
/>
<path d="
  M 663.76 787.06
  A 0.89 0.89 0.0 0 1 663.85 785.67
  C 669.53 781.68 678.59 781.04 685.89 780.24
  C 695.42 779.19 702.94 778.00 710.69 779.53
  A 1.45 1.45 0.0 0 1 711.53 780.03
  Q 713.17 782.04 711.68 784.70
  Q 710.87 786.13 706.96 787.89
  Q 692.03 794.62 676.00 792.59
  Q 668.93 791.69 663.76 787.06
  Z"
/>
<path d="
  M 1534.47 790.08
  Q 1531.81 795.36 1525.38 796.19
  C 1517.53 797.20 1506.47 797.99 1497.83 796.19
  C 1487.24 793.99 1481.16 792.34 1472.15 790.78
  Q 1461.41 788.91 1453.52 787.04
  Q 1449.14 786.01 1445.79 784.51
  A 1.15 1.15 0.0 0 1 1445.86 782.38
  Q 1452.64 779.85 1460.24 781.27
  C 1469.31 782.96 1478.27 784.64 1486.21 784.56
  C 1489.02 784.53 1491.88 783.61 1494.46 783.12
  A 19.14 18.86 40.0 0 1 1498.44 782.80
  Q 1502.11 782.91 1505.20 782.87
  C 1508.64 782.83 1512.92 779.61 1516.18 779.09
  C 1521.96 778.18 1525.59 779.11 1529.66 783.71
  Q 1534.39 789.06 1534.40 789.08
  A 0.99 0.99 0.0 0 1 1534.47 790.08
  Z"
/>
<path d="
  M 805.67 786.24
  A 0.60 0.59 7.7 0 1 806.11 786.81
  L 806.11 787.37
  A 0.46 0.45 3.4 0 1 805.60 787.82
  Q 804.34 787.67 803.51 786.75
  A 0.52 0.51 38.7 0 0 802.68 786.84
  Q 800.22 791.25 795.95 792.87
  C 784.43 797.27 769.87 798.52 757.72 794.57
  C 751.48 792.55 746.29 791.42 741.78 788.18
  A 0.97 0.96 44.4 0 1 741.76 786.62
  Q 744.60 784.51 748.26 783.98
  C 753.12 783.28 757.17 783.24 761.95 782.09
  C 773.88 779.23 787.05 777.91 798.43 783.51
  Q 801.80 785.16 805.67 786.24
  Z"
/>
<path d="
  M 1197.90 780.53
  Q 1201.95 780.21 1204.01 780.63
  Q 1216.66 783.15 1226.19 783.77
  C 1230.59 784.05 1233.75 784.99 1236.50 788.04
  A 0.81 0.81 0.0 0 1 1236.02 789.39
  C 1229.33 790.44 1224.40 789.31 1216.87 787.52
  Q 1205.69 784.87 1197.83 780.86
  A 0.18 0.17 -33.5 0 1 1197.90 780.53
  Z"
/>
<path d="
  M 1043.52 788.11
  Q 1045.91 786.85 1051.80 783.36
  C 1056.97 780.30 1064.03 783.77 1069.57 783.96
  C 1073.05 784.07 1077.28 782.75 1081.28 782.31
  Q 1093.75 780.95 1105.59 780.16
  C 1111.04 779.80 1116.31 780.47 1119.62 784.91
  A 0.45 0.44 -29.6 0 1 1119.43 785.59
  Q 1113.97 787.74 1107.42 788.89
  Q 1106.02 789.14 1089.39 792.06
  Q 1083.01 793.18 1076.12 792.58
  C 1072.14 792.24 1066.09 790.48 1060.98 790.06
  Q 1046.30 788.85 1043.60 788.56
  A 0.24 0.24 0.0 0 1 1043.52 788.11
  Z"
/>
<path d="
  M 1124.26 781.16
  C 1130.55 781.13 1136.57 782.63 1140.15 788.23
  A 0.98 0.98 0.0 0 1 1139.26 789.73
  C 1132.76 789.32 1126.38 789.12 1123.63 782.09
  A 0.68 0.68 0.0 0 1 1124.26 781.16
  Z"
/>
<path d="
  M 301.90 786.29
  Q 289.63 789.84 283.34 789.70
  Q 276.57 789.56 265.44 785.35
  C 263.84 784.75 261.98 783.16 261.11 781.74
  A 0.60 0.60 0.0 0 1 261.73 780.84
  Q 271.24 782.50 283.16 784.21
  Q 283.97 784.32 288.16 785.86
  A 2.28 2.17 -36.9 0 0 289.18 785.98
  C 293.27 785.44 297.36 784.12 301.92 785.95
  A 0.18 0.18 0.0 0 1 301.90 786.29
  Z"
/>
<path d="
  M 1146.16 786.05
  C 1150.03 784.55 1153.90 784.43 1158.81 784.42
  C 1162.48 784.41 1165.34 783.62 1169.25 782.55
  C 1172.00 781.80 1174.94 781.54 1177.54 781.49
  A 1.33 1.33 0.0 0 1 1178.43 783.84
  Q 1170.40 790.65 1159.86 791.30
  C 1154.65 791.63 1150.00 791.27 1145.87 788.05
  A 1.16 1.16 0.0 0 1 1146.16 786.05
  Z"
/>
<path d="
  M 238.42 784.73
  A 0.51 0.51 0.0 0 1 238.26 785.67
  L 220.61 789.12
  A 3.73 3.72 -17.2 0 1 216.47 786.94
  L 216.40 786.77
  A 2.36 2.35 73.7 0 1 218.07 783.72
  C 225.17 782.00 231.80 780.74 238.42 784.73
  Z"
/>
<path d="
  M 609.37 791.14
  Q 605.82 791.51 602.16 790.55
  C 592.88 788.12 587.17 787.45 582.23 783.70
  A 0.86 0.85 59.2 0 1 582.61 782.17
  Q 590.84 780.91 598.57 782.62
  C 603.73 783.76 607.88 784.81 610.20 789.65
  A 1.04 1.04 0.0 0 1 609.37 791.14
  Z"
/>
<path d="
  M 1363.36 782.42
  Q 1361.62 785.49 1359.69 785.96
  C 1347.94 788.81 1334.36 794.91 1322.54 789.11
  A 1.26 1.26 0.0 0 1 1322.43 786.91
  Q 1327.20 783.96 1333.24 783.68
  Q 1347.45 783.04 1353.75 782.95
  Q 1355.16 782.93 1358.67 783.91
  A 1.08 1.08 0.0 0 0 1359.49 783.81
  L 1362.82 781.88
  A 0.40 0.39 89.9 0 1 1363.36 782.42
  Z"
/>
<path d="
  M 1433.39 783.73
  A 0.71 0.71 0.0 0 1 1433.73 785.02
  Q 1421.85 793.14 1407.91 791.64
  A 1.09 1.09 0.0 0 1 1406.94 790.59
  Q 1406.89 789.25 1407.68 787.20
  A 1.60 1.59 2.9 0 1 1408.77 786.22
  Q 1410.84 785.67 1424.03 783.93
  Q 1428.69 783.31 1433.39 783.73
  Z"
/>
<path d="
  M 503.46 783.75
  Q 514.21 782.84 524.83 783.93
  Q 527.85 784.24 530.29 785.17
  A 1.73 1.72 -39.7 0 1 529.98 788.48
  C 520.16 790.27 512.51 788.27 503.28 785.18
  A 0.74 0.73 -37.9 0 1 503.46 783.75
  Z"
/>
<path d="
  M 116.16 787.37
  Q 116.09 786.54 116.83 785.51
  A 1.78 1.73 10.0 0 1 117.83 784.83
  Q 123.68 783.27 129.98 784.73
  A 1.04 1.03 89.0 0 1 130.75 785.48
  Q 131.11 786.89 130.30 788.80
  A 1.10 1.10 0.0 0 1 129.62 789.41
  Q 122.93 791.43 116.90 788.45
  A 1.35 1.33 -79.7 0 1 116.16 787.37
  Z"
/>
<path d="
  M 534.14 788.73
  Q 537.06 785.60 541.58 785.09
  Q 564.68 782.48 586.14 788.08
  Q 595.79 790.60 602.74 792.32
  A 0.68 0.68 0.0 0 1 602.89 793.58
  Q 599.52 795.34 596.50 796.03
  C 576.45 800.65 552.19 804.06 534.32 790.73
  A 1.35 1.35 0.0 0 1 534.14 788.73
  Z"
/>
<path d="
  M 215.01 799.44
  A 1.41 1.40 29.0 0 1 214.41 797.35
  C 217.81 792.47 223.50 791.27 229.30 789.95
  Q 230.46 789.69 241.49 787.70
  C 251.49 785.90 259.81 786.87 269.84 789.48
  C 276.07 791.10 281.14 792.91 284.49 798.18
  A 1.25 1.24 -24.2 0 1 283.78 800.04
  C 265.46 805.26 247.44 803.81 227.18 802.34
  Q 220.69 801.87 215.01 799.44
  Z"
/>
<path d="
  M 1234.88 801.72
  Q 1212.80 805.43 1191.76 804.64
  C 1180.03 804.20 1170.82 803.99 1161.90 799.33
  A 1.50 1.50 0.0 0 1 1161.53 796.94
  C 1166.67 791.81 1173.89 790.44 1181.35 789.32
  Q 1204.72 785.80 1227.85 793.66
  Q 1232.84 795.36 1235.13 801.28
  A 0.33 0.32 75.4 0 1 1234.88 801.72
  Z"
/>
<path d="
  M 1330.69 800.36
  C 1334.49 795.81 1339.73 794.01 1345.39 792.86
  Q 1353.15 791.28 1361.03 789.49
  C 1370.79 787.27 1383.01 789.61 1392.16 793.05
  Q 1398.89 795.58 1402.00 801.00
  A 0.46 0.46 0.0 0 1 1401.78 801.65
  Q 1393.28 805.24 1384.58 805.69
  Q 1382.14 805.81 1366.86 804.81
  Q 1355.51 804.06 1343.02 803.46
  Q 1338.22 803.23 1330.85 800.91
  A 0.35 0.34 29.1 0 1 1330.69 800.36
  Z"
/>
<path d="
  M 914.15 802.10
  Q 912.01 802.57 903.47 802.81
  C 895.06 803.04 885.67 804.08 878.42 803.99
  Q 858.28 803.75 853.30 803.80
  Q 849.10 803.85 839.21 806.03
  A 1.12 1.08 -34.4 0 1 838.38 805.89
  Q 835.75 804.27 836.87 801.33
  A 1.87 1.77 82.4 0 1 837.44 800.54
  Q 842.47 796.52 846.84 795.54
  Q 856.11 793.47 873.34 791.82
  Q 881.02 791.08 888.28 792.37
  C 897.34 793.96 906.89 796.19 914.24 801.66
  A 0.25 0.25 0.0 0 1 914.15 802.10
  Z"
/>
<path d="
  M 1153.01 806.10
  A 2.31 2.31 0.0 0 1 1152.18 808.21
  C 1146.19 813.07 1139.47 814.47 1131.49 815.69
  Q 1118.67 817.64 1106.82 816.44
  C 1098.95 815.64 1088.09 812.70 1083.36 805.61
  A 1.64 1.64 0.0 0 1 1083.27 803.94
  Q 1086.61 797.58 1093.32 795.57
  Q 1104.10 792.34 1118.25 791.61
  Q 1130.44 790.98 1144.68 796.59
  C 1149.31 798.41 1152.33 801.14 1153.01 806.10
  Z"
/>
<path d="
  M 453.36 806.09
  C 444.52 810.76 432.57 811.92 424.81 813.72
  Q 417.48 815.41 412.11 815.29
  C 401.19 815.04 392.73 814.26 383.15 810.11
  Q 378.57 808.13 375.23 803.86
  A 1.84 1.84 0.0 0 1 375.52 801.29
  Q 381.29 796.60 388.57 795.30
  C 408.50 791.73 424.07 789.78 441.72 794.44
  Q 449.06 796.38 454.77 801.42
  A 1.10 1.09 -57.9 0 1 455.05 802.67
  L 453.84 805.57
  A 1.07 1.02 88.9 0 1 453.36 806.09
  Z"
/>
<path d="
  M 1075.50 802.00
  Q 1046.87 804.93 1021.33 805.11
  Q 1018.09 805.13 1009.11 804.24
  A 0.44 0.43 16.8 0 1 1008.77 803.61
  C 1011.09 799.16 1015.67 797.09 1020.38 795.61
  C 1027.99 793.21 1035.13 791.39 1042.75 792.12
  Q 1052.29 793.04 1060.83 794.92
  C 1066.36 796.15 1071.49 797.91 1075.61 801.64
  A 0.21 0.20 62.4 0 1 1075.50 802.00
  Z"
/>
<path d="
  M 1486.95 801.31
  A 2.50 2.49 30.0 0 1 1487.72 804.17
  Q 1485.15 810.81 1477.48 813.01
  Q 1456.92 818.89 1434.66 817.36
  C 1426.52 816.79 1418.39 815.30 1412.41 810.03
  C 1409.43 807.41 1408.21 803.00 1410.95 799.98
  C 1414.83 795.72 1423.93 793.75 1429.39 793.07
  Q 1447.87 790.75 1467.66 794.03
  C 1475.36 795.31 1481.27 796.75 1486.95 801.31
  Z"
/>
<path d="
  M 680.72 803.16
  Q 680.74 806.32 678.56 808.67
  C 671.31 816.50 659.18 816.83 648.69 817.11
  C 637.18 817.43 617.37 818.34 611.00 806.03
  Q 610.50 805.07 611.22 801.97
  A 1.76 1.74 74.0 0 1 611.69 801.11
  Q 615.78 796.93 621.54 795.51
  C 633.88 792.45 644.60 791.96 657.25 792.83
  C 665.15 793.37 674.82 796.04 680.31 802.10
  A 1.58 1.57 -66.2 0 1 680.72 803.16
  Z"
/>
<path d="
  M 687.51 804.81
  Q 689.10 799.87 693.92 797.93
  C 704.31 793.76 714.41 791.77 725.62 792.30
  C 736.81 792.83 752.18 794.04 760.06 802.58
  A 1.77 1.77 0.0 0 1 760.45 804.33
  C 757.93 812.15 748.51 816.38 741.14 816.62
  Q 733.58 816.86 719.98 817.43
  Q 707.63 817.95 697.04 814.57
  A 2.36 2.34 -13.5 0 1 696.13 814.02
  L 687.82 806.05
  A 1.21 1.20 -59.3 0 1 687.51 804.81
  Z"
/>
<path d="
  M 925.08 802.14
  Q 928.16 798.34 933.02 797.25
  Q 942.36 795.15 947.87 794.09
  C 958.58 792.02 967.25 792.03 977.34 792.67
  Q 980.63 792.88 985.74 794.12
  C 991.32 795.48 997.57 796.86 1000.61 801.74
  A 2.11 2.02 29.2 0 1 1000.92 802.75
  C 1001.53 818.20 972.48 817.16 963.04 817.27
  Q 953.08 817.39 939.41 814.11
  C 933.52 812.70 926.85 809.84 924.77 803.86
  A 1.82 1.80 -35.1 0 1 925.08 802.14
  Z"
/>
<path d="
  M 142.91 804.16
  C 135.30 806.69 129.41 809.16 119.41 813.48
  C 117.28 814.40 113.12 815.12 110.05 815.35
  Q 102.33 815.94 93.28 815.74
  Q 88.78 815.64 85.14 813.66
  C 80.96 811.40 79.39 806.22 83.49 802.93
  Q 85.43 801.37 89.03 800.26
  C 96.82 797.85 107.57 794.70 115.53 794.51
  Q 124.40 794.30 132.71 796.08
  Q 138.45 797.31 143.09 803.58
  A 0.38 0.37 -28.0 0 1 142.91 804.16
  Z"
/>
<path d="
  M 1320.72 803.66
  Q 1317.42 810.23 1309.17 812.63
  Q 1299.57 815.43 1293.54 815.77
  C 1277.76 816.67 1255.95 817.67 1243.97 804.77
  Q 1241.40 802.01 1242.90 798.76
  Q 1259.86 798.34 1276.82 797.71
  Q 1297.75 796.93 1320.72 803.66
  Z"
/>
<path d="
  M 6.76 799.79
  Q 10.94 803.10 16.96 803.54
  Q 30.43 804.51 34.36 804.39
  Q 49.27 803.96 64.19 803.56
  Q 67.75 803.47 73.24 801.56
  Q 75.68 807.77 69.34 811.35
  Q 59.33 816.99 48.73 817.75
  Q 32.76 818.89 16.97 815.82
  Q 13.40 815.12 10.51 813.44
  Q 3.44 809.32 6.76 799.79
  Z"
/>
<path d="
  M 360.75 809.93
  A 37.43 14.34 0.1 0 1 353.52 812.93
  A 37.77 14.33 -0.1 0 1 318.58 815.61
  A 37.79 14.33 -0.1 0 1 306.84 813.36
  A 37.71 14.31 -0.1 0 1 293.56 806.21
  A 37.20 14.12 -0.3 0 1 291.93 802.87
  Q 312.17 802.05 326.86 803.16
  Q 342.97 804.36 360.75 809.93
  Z"
/>
<path d="
  M 536.62 804.73
  C 533.59 813.44 519.26 816.75 511.14 816.81
  Q 510.17 816.82 502.72 817.21
  C 492.69 817.73 467.23 816.93 462.98 804.98
  C 468.63 804.36 474.60 803.66 480.04 803.95
  Q 485.01 804.22 497.11 804.78
  Q 497.98 804.82 502.03 804.49
  Q 512.94 803.61 523.88 803.56
  Q 530.32 803.53 536.62 804.73
  Z"
/>
</g>
</svg>
