<?xml version="1.0" encoding="UTF-8" standalone="no"?>
<!DOCTYPE svg PUBLIC "-//W3C//DTD SVG 1.1//EN" "http://www.w3.org/Graphics/SVG/1.1/DTD/svg11.dtd">
<svg xmlns="http://www.w3.org/2000/svg" version="1.1" viewBox="0.00 0.00 1536.00 1024.00">
<path fill="#fdfdfd" d="
  M 1536.00 0.00
  L 1536.00 1024.00
  L 0.00 1024.00
  L 0.00 0.00
  L 1536.00 0.00
  Z"
/>
<path fill="#351f16" d="
  M 864.64 217.30
  C 868.63 219.95 869.32 225.42 866.66 229.36
  Q 865.83 230.61 861.84 233.09
  Q 843.02 244.79 828.75 256.75
  Q 789.65 289.50 769.26 335.73
  Q 763.12 349.65 758.45 368.90
  Q 754.09 386.87 753.75 403.45
  Q 753.30 425.56 756.56 443.75
  C 764.77 489.51 789.10 531.30 823.96 561.79
  C 833.02 569.71 843.28 577.58 853.40 583.82
  Q 918.10 623.66 995.20 616.39
  C 998.27 616.10 1002.60 614.74 1005.42 615.40
  C 1011.16 616.74 1013.79 621.01 1012.32 626.61
  Q 1011.84 628.46 1008.93 631.41
  Q 991.44 649.19 970.20 662.93
  Q 955.02 672.74 940.62 679.57
  C 907.65 695.19 871.63 703.49 834.93 703.32
  C 830.12 703.30 822.72 703.37 816.03 703.03
  Q 787.11 701.55 756.73 691.78
  Q 727.99 682.53 704.53 668.25
  Q 641.68 629.99 610.01 565.57
  Q 585.41 515.51 586.19 457.01
  Q 586.21 455.87 586.95 443.33
  C 587.89 427.56 590.97 410.44 594.78 397.26
  Q 597.48 387.94 602.31 375.20
  C 618.46 332.53 646.80 296.56 682.73 268.47
  Q 687.21 264.97 703.69 253.96
  Q 709.57 250.02 722.81 243.24
  Q 733.65 237.67 742.67 234.09
  Q 797.82 212.19 857.62 215.65
  Q 862.58 215.93 864.64 217.30
  Z"
/>
<g stroke-width="2.00" fill="none" stroke-linecap="butt">
<path stroke="#fef3ab" vector-effect="non-scaling-stroke" d="
  M 911.05 625.18
  Q 899.93 624.33 888.94 623.65
  C 881.75 623.20 875.74 621.32 867.92 619.95
  Q 863.65 619.20 857.49 617.38
  Q 848.75 614.78 842.80 612.92
  Q 828.49 608.45 809.11 598.79
  Q 805.57 597.02 802.42 595.09
  C 797.46 592.05 791.08 588.54 786.12 585.21
  Q 756.33 565.25 733.52 536.99
  Q 711.27 509.42 699.18 475.82
  C 685.97 439.09 684.37 398.32 695.25 360.61
  Q 699.70 345.23 707.87 329.98
  Q 716.21 314.41 725.97 302.21
  Q 740.25 284.36 759.72 269.10
  C 768.25 262.42 778.06 256.84 786.35 251.85
  Q 790.31 249.47 800.82 244.08
  C 809.77 239.48 818.80 236.39 829.06 231.99
  A 0.59 0.59 0.0 0 0 829.12 230.93
  Q 828.52 230.59 827.81 230.65"
/>
<path stroke="#fef3ab" vector-effect="non-scaling-stroke" d="
  M 957.96 632.31
  Q 958.47 633.26 957.48 633.74
  Q 956.89 634.02 955.36 634.15
  A 3.13 2.97 -56.8 0 0 954.56 634.34
  C 948.88 636.48 942.12 639.38 935.50 641.27
  Q 892.62 653.50 848.23 649.05
  C 823.94 646.61 799.31 640.42 776.97 630.23
  Q 766.68 625.54 756.13 619.85
  C 744.54 613.60 734.69 606.33 723.95 598.03
  C 712.44 589.15 701.97 578.02 692.30 566.97
  Q 680.40 553.38 670.76 536.26
  Q 660.79 518.54 658.16 512.13
  Q 651.61 496.12 649.73 489.78
  C 641.04 460.51 637.93 429.73 643.02 399.34
  Q 646.75 377.07 655.03 357.01
  Q 664.39 334.38 681.10 311.75
  Q 686.99 303.78 696.30 294.07
  Q 708.67 281.18 712.93 277.69
  Q 728.41 264.99 734.03 261.56
  Q 746.57 253.90 749.82 251.87
  C 755.84 248.11 759.31 246.36 766.24 242.63
  A 0.47 0.46 -35.6 0 0 766.37 241.91
  Q 766.20 241.74 765.97 241.93"
/>
<path stroke="#f8d970" vector-effect="non-scaling-stroke" d="
  M 967.82 632.69
  Q 966.68 634.37 963.77 635.28
  A 4.71 4.66 -71.9 0 0 962.37 636.00
  Q 960.07 637.75 956.90 639.12
  C 945.33 644.13 937.60 647.65 926.16 650.69
  Q 914.35 653.84 911.17 654.60
  Q 899.47 657.42 882.50 658.72
  Q 833.91 662.46 787.98 646.84
  C 783.46 645.31 780.38 643.61 776.79 642.38
  C 771.20 640.46 765.39 636.76 759.55 634.12
  Q 754.26 631.73 750.52 629.46
  Q 732.89 618.81 720.92 609.18
  C 714.50 604.02 705.76 596.72 699.22 589.80
  Q 687.04 576.92 675.02 561.35
  Q 666.03 549.71 656.00 530.48
  Q 645.53 510.40 640.03 494.50
  Q 637.04 485.84 632.53 467.55
  C 631.30 462.59 631.06 458.61 630.10 454.20
  Q 629.09 449.58 628.47 444.12
  Q 626.53 427.23 627.13 410.25
  Q 627.23 407.54 628.34 391.59
  Q 628.87 383.99 629.66 380.00
  C 631.35 371.37 632.15 364.55 634.57 356.04
  C 636.06 350.83 637.43 344.00 639.94 338.35
  A 2.96 2.75 -14.6 0 1 640.43 337.58
  Q 643.11 334.54 643.91 330.66"
/>
</g>
<g fill="#feec82">
<path d="
  M 911.05 625.18
  Q 899.93 624.33 888.94 623.65
  C 881.75 623.20 875.74 621.32 867.92 619.95
  Q 863.65 619.20 857.49 617.38
  Q 848.75 614.78 842.80 612.92
  Q 828.49 608.45 809.11 598.79
  Q 805.57 597.02 802.42 595.09
  C 797.46 592.05 791.08 588.54 786.12 585.21
  Q 756.33 565.25 733.52 536.99
  Q 711.27 509.42 699.18 475.82
  C 685.97 439.09 684.37 398.32 695.25 360.61
  Q 699.70 345.23 707.87 329.98
  Q 716.21 314.41 725.97 302.21
  Q 740.25 284.36 759.72 269.10
  C 768.25 262.42 778.06 256.84 786.35 251.85
  Q 790.31 249.47 800.82 244.08
  C 809.77 239.48 818.80 236.39 829.06 231.99
  A 0.59 0.59 0.0 0 0 829.12 230.93
  Q 828.52 230.59 827.81 230.65
  L 837.35 230.17
  A 0.34 0.34 0.0 0 1 837.56 230.79
  Q 821.21 241.93 806.11 256.38
  Q 771.93 289.08 753.67 333.14
  C 739.49 367.37 735.50 404.77 740.48 441.34
  Q 741.03 445.36 742.10 449.73
  C 742.93 453.07 743.69 457.51 744.52 460.89
  C 751.04 487.29 762.99 513.20 779.28 535.46
  Q 814.72 583.89 869.24 609.72
  Q 889.40 619.27 911.05 625.18
  Z"
/>
<path d="
  M 765.97 241.93
  Q 766.20 241.74 766.37 241.91
  A 0.47 0.46 -35.6 0 1 766.24 242.63
  C 759.31 246.36 755.84 248.11 749.82 251.87
  Q 746.57 253.90 734.03 261.56
  Q 728.41 264.99 712.93 277.69
  Q 708.67 281.18 696.30 294.07
  Q 686.99 303.78 681.10 311.75
  Q 664.39 334.38 655.03 357.01
  Q 646.75 377.07 643.02 399.34
  C 637.93 429.73 641.04 460.51 649.73 489.78
  Q 651.61 496.12 658.16 512.13
  Q 660.79 518.54 670.76 536.26
  Q 680.40 553.38 692.30 566.97
  C 701.97 578.02 712.44 589.15 723.95 598.03
  C 734.69 606.33 744.54 613.60 756.13 619.85
  Q 766.68 625.54 776.97 630.23
  C 799.31 640.42 823.94 646.61 848.23 649.05
  Q 892.62 653.50 935.50 641.27
  C 942.12 639.38 948.88 636.48 954.56 634.34
  A 3.13 2.97 -56.8 0 1 955.36 634.15
  Q 956.89 634.02 957.48 633.74
  Q 958.47 633.26 957.96 632.31
  L 967.82 632.69
  Q 966.68 634.37 963.77 635.28
  A 4.71 4.66 -71.9 0 0 962.37 636.00
  Q 960.07 637.75 956.90 639.12
  C 945.33 644.13 937.60 647.65 926.16 650.69
  Q 914.35 653.84 911.17 654.60
  Q 899.47 657.42 882.50 658.72
  Q 833.91 662.46 787.98 646.84
  C 783.46 645.31 780.38 643.61 776.79 642.38
  C 771.20 640.46 765.39 636.76 759.55 634.12
  Q 754.26 631.73 750.52 629.46
  Q 732.89 618.81 720.92 609.18
  C 714.50 604.02 705.76 596.72 699.22 589.80
  Q 687.04 576.92 675.02 561.35
  Q 666.03 549.71 656.00 530.48
  Q 645.53 510.40 640.03 494.50
  Q 637.04 485.84 632.53 467.55
  C 631.30 462.59 631.06 458.61 630.10 454.20
  Q 629.09 449.58 628.47 444.12
  Q 626.53 427.23 627.13 410.25
  Q 627.23 407.54 628.34 391.59
  Q 628.87 383.99 629.66 380.00
  C 631.35 371.37 632.15 364.55 634.57 356.04
  C 636.06 350.83 637.43 344.00 639.94 338.35
  A 2.96 2.75 -14.6 0 1 640.43 337.58
  Q 643.11 334.54 643.91 330.66
  C 648.16 324.87 652.70 318.56 657.30 313.65
  C 662.16 308.46 666.66 303.10 672.16 298.04
  Q 681.63 289.34 685.05 286.57
  Q 708.40 267.65 731.21 256.22
  Q 745.83 248.89 765.97 241.93
  Z"
/>
</g>
<path fill="#fef9d3" d="
  M 827.81 230.65
  Q 828.52 230.59 829.12 230.93
  A 0.59 0.59 0.0 0 1 829.06 231.99
  C 818.80 236.39 809.77 239.48 800.82 244.08
  Q 790.31 249.47 786.35 251.85
  C 778.06 256.84 768.25 262.42 759.72 269.10
  Q 740.25 284.36 725.97 302.21
  Q 716.21 314.41 707.87 329.98
  Q 699.70 345.23 695.25 360.61
  C 684.37 398.32 685.97 439.09 699.18 475.82
  Q 711.27 509.42 733.52 536.99
  Q 756.33 565.25 786.12 585.21
  C 791.08 588.54 797.46 592.05 802.42 595.09
  Q 805.57 597.02 809.11 598.79
  Q 828.49 608.45 842.80 612.92
  Q 848.75 614.78 857.49 617.38
  Q 863.65 619.20 867.92 619.95
  C 875.74 621.32 881.75 623.20 888.94 623.65
  Q 899.93 624.33 911.05 625.18
  Q 934.21 630.80 957.96 632.31
  Q 958.47 633.26 957.48 633.74
  Q 956.89 634.02 955.36 634.15
  A 3.13 2.97 -56.8 0 0 954.56 634.34
  C 948.88 636.48 942.12 639.38 935.50 641.27
  Q 892.62 653.50 848.23 649.05
  C 823.94 646.61 799.31 640.42 776.97 630.23
  Q 766.68 625.54 756.13 619.85
  C 744.54 613.60 734.69 606.33 723.95 598.03
  C 712.44 589.15 701.97 578.02 692.30 566.97
  Q 680.40 553.38 670.76 536.26
  Q 660.79 518.54 658.16 512.13
  Q 651.61 496.12 649.73 489.78
  C 641.04 460.51 637.93 429.73 643.02 399.34
  Q 646.75 377.07 655.03 357.01
  Q 664.39 334.38 681.10 311.75
  Q 686.99 303.78 696.30 294.07
  Q 708.67 281.18 712.93 277.69
  Q 728.41 264.99 734.03 261.56
  Q 746.57 253.90 749.82 251.87
  C 755.84 248.11 759.31 246.36 766.24 242.63
  A 0.47 0.46 -35.6 0 0 766.37 241.91
  Q 766.20 241.74 765.97 241.93
  Q 775.92 239.01 781.40 237.65
  Q 804.23 231.98 827.81 230.65
  Z"
/>
<path fill="#f1c65e" d="
  M 643.91 330.66
  Q 643.11 334.54 640.43 337.58
  A 2.96 2.75 -14.6 0 0 639.94 338.35
  C 637.43 344.00 636.06 350.83 634.57 356.04
  C 632.15 364.55 631.35 371.37 629.66 380.00
  Q 628.87 383.99 628.34 391.59
  Q 627.23 407.54 627.13 410.25
  Q 626.53 427.23 628.47 444.12
  Q 629.09 449.58 630.10 454.20
  C 631.06 458.61 631.30 462.59 632.53 467.55
  Q 637.04 485.84 640.03 494.50
  Q 645.53 510.40 656.00 530.48
  Q 666.03 549.71 675.02 561.35
  Q 687.04 576.92 699.22 589.80
  C 705.76 596.72 714.50 604.02 720.92 609.18
  Q 732.89 618.81 750.52 629.46
  Q 754.26 631.73 759.55 634.12
  C 765.39 636.76 771.20 640.46 776.79 642.38
  C 780.38 643.61 783.46 645.31 787.98 646.84
  Q 833.91 662.46 882.50 658.72
  Q 899.47 657.42 911.17 654.60
  Q 914.35 653.84 926.16 650.69
  C 937.60 647.65 945.33 644.13 956.90 639.12
  Q 960.07 637.75 962.37 636.00
  A 4.71 4.66 -71.9 0 1 963.77 635.28
  Q 966.68 634.37 967.82 632.69
  L 984.50 632.21
  A 0.41 0.40 -71.2 0 1 984.82 632.87
  Q 983.95 633.90 983.36 634.38
  Q 929.38 678.33 861.21 686.85
  Q 838.52 689.69 812.00 687.74
  Q 783.97 685.68 754.20 674.99
  C 711.29 659.60 673.29 631.90 646.04 595.21
  Q 636.22 581.98 626.27 563.53
  Q 620.25 552.38 613.69 534.33
  C 603.12 505.24 599.96 473.58 602.32 442.98
  C 605.44 402.42 620.25 363.97 643.91 330.66
  Z"
/>
</svg>
