<?xml version="1.0" encoding="UTF-8" standalone="no"?>
<!DOCTYPE svg PUBLIC "-//W3C//DTD SVG 1.1//EN" "http://www.w3.org/Graphics/SVG/1.1/DTD/svg11.dtd">
<svg xmlns="http://www.w3.org/2000/svg" version="1.1" viewBox="0.00 0.00 1024.00 1536.00">
<path fill="#fefefe" d="
  M 1024.00 0.00
  L 1024.00 1536.00
  L 0.00 1536.00
  L 0.00 0.00
  L 1024.00 0.00
  Z"
/>
<g stroke-width="2.00" fill="none" stroke-linecap="butt">
<path stroke="#1f1b1b" vector-effect="non-scaling-stroke" d="
  M 570.93 362.92
  Q 569.49 364.01 569.39 366.90
  A 1.33 1.33 0.0 0 1 568.06 368.18
  L 566.83 368.18
  A 1.46 1.46 0.0 0 1 565.38 366.58
  Q 565.52 365.20 565.28 363.02
  A 0.05 0.05 0.0 0 0 565.18 363.02
  L 565.09 364.54"
/>
<path stroke="#875a2a" vector-effect="non-scaling-stroke" d="
  M 565.09 364.54
  Q 565.41 362.96 564.57 362.70
  Q 556.13 360.11 547.75 356.59
  A 0.79 0.78 -76.1 0 0 546.66 357.25
  L 546.43 360.31"
/>
<path stroke="#1f1b1b" vector-effect="non-scaling-stroke" d="
  M 546.43 360.31
  L 546.24 359.09
  A 0.13 0.13 0.0 0 0 546.00 359.05
  Q 545.90 359.23 545.78 359.26
  Q 545.38 359.34 545.20 359.13
  Q 543.34 356.98 540.68 354.62"
/>
<path stroke="#876c39" vector-effect="non-scaling-stroke" d="
  M 540.68 354.62
  Q 513.90 353.96 486.96 354.74"
/>
<path stroke="#1f1b1b" vector-effect="non-scaling-stroke" d="
  M 486.96 354.74
  Q 482.91 356.82 479.20 357.05"
/>
<path stroke="#875a2a" vector-effect="non-scaling-stroke" d="
  M 479.20 357.05
  L 460.43 362.73
  A 1.30 1.29 -16.9 0 0 459.57 364.33
  Q 464.98 382.27 468.69 400.32
  C 470.74 410.32 472.67 418.58 474.83 427.67"
/>
<path stroke="#1f1b1b" vector-effect="non-scaling-stroke" d="
  M 474.83 427.67
  Q 475.82 432.17 474.06 435.79
  A 1.68 1.66 -54.9 0 0 474.38 437.69
  L 477.43 440.74
  A 1.53 1.53 0.0 0 0 478.66 441.18
  L 494.72 439.47
  L 500.14 449.76
  A 0.89 0.87 78.8 0 0 500.82 450.23
  Q 512.54 451.50 524.70 451.19
  A 1.37 1.36 10.0 0 0 525.94 450.33
  L 529.77 440.76
  A 0.67 0.66 -77.2 0 1 530.43 440.34
  C 538.26 440.85 544.13 442.16 550.52 437.72
  Q 551.24 437.22 553.68 437.23"
/>
<path stroke="#342e2b" vector-effect="non-scaling-stroke" d="
  M 499.25 558.28
  L 499.28 522.17"
/>
<path stroke="#feb754" vector-effect="non-scaling-stroke" d="
  M 484.12 389.71
  L 481.52 380.89
  A 0.44 0.44 0.0 0 0 480.92 380.61
  Q 471.98 384.62 472.52 394.78
  Q 472.95 402.74 474.93 409.77
  Q 475.49 411.75 478.87 419.15
  Q 480.99 423.77 482.75 428.55"
/>
<path stroke="#967845" vector-effect="non-scaling-stroke" d="
  M 540.68 354.62
  Q 539.99 361.83 539.10 368.55
  Q 537.75 378.77 537.35 382.47
  Q 535.97 395.09 534.39 407.76
  Q 533.09 418.18 531.42 425.96
  A 1.34 1.33 5.8 0 1 530.11 427.02
  L 494.52 427.19"
/>
<path stroke="#ab8b55" vector-effect="non-scaling-stroke" d="
  M 494.52 427.19
  L 489.14 375.89"
/>
<path stroke="#967845" vector-effect="non-scaling-stroke" d="
  M 489.14 375.89
  L 486.96 354.74"
/>
<path stroke="#433a37" vector-effect="non-scaling-stroke" d="
  M 489.14 375.89
  Q 486.48 380.92 486.34 382.97
  Q 485.97 388.82 484.77 394.55"
/>
<path stroke="#967845" vector-effect="non-scaling-stroke" d="
  M 484.77 394.55
  L 484.12 389.71"
/>
<path stroke="#966635" vector-effect="non-scaling-stroke" d="
  M 484.12 389.71
  Q 482.44 377.86 480.72 366.04
  Q 480.70 365.92 480.32 361.55
  Q 480.10 358.95 479.20 357.05"
/>
<path stroke="#966635" vector-effect="non-scaling-stroke" d="
  M 546.43 360.31
  L 542.82 387.84"
/>
<path stroke="#967845" vector-effect="non-scaling-stroke" d="
  M 542.82 387.84
  L 540.11 407.42"
/>
<path stroke="#966635" vector-effect="non-scaling-stroke" d="
  M 540.11 407.42
  Q 538.71 415.65 537.73 423.88
  C 537.49 425.88 536.54 427.91 539.10 428.80
  Q 547.51 431.73 547.92 431.88
  A 1.54 1.54 0.0 0 0 549.94 430.77
  L 554.01 412.66"
/>
<path stroke="#967845" vector-effect="non-scaling-stroke" d="
  M 554.01 412.66
  L 554.30 411.23"
/>
<path stroke="#966635" vector-effect="non-scaling-stroke" d="
  M 554.30 411.23
  L 565.09 364.54"
/>
<path stroke="#433a37" vector-effect="non-scaling-stroke" d="
  M 494.72 439.47
  Q 496.18 440.05 497.75 440.02
  Q 513.27 439.69 526.75 440.11
  Q 528.72 440.17 530.53 439.35
  A 1.45 1.45 0.0 0 0 531.22 438.69
  L 533.92 433.35
  A 1.87 1.85 27.5 0 0 533.13 430.88
  Q 532.74 430.66 531.50 430.65
  Q 515.30 430.42 492.55 430.64
  A 1.64 1.64 0.0 0 0 490.97 432.66
  Q 491.87 436.43 494.72 439.47"
/>
<path stroke="#966635" vector-effect="non-scaling-stroke" d="
  M 474.83 427.67
  L 475.63 430.22
  A 0.77 0.76 71.6 0 0 476.61 430.72
  L 482.75 428.55"
/>
<path stroke="#967845" vector-effect="non-scaling-stroke" d="
  M 482.75 428.55
  Q 484.93 428.15 486.95 427.50
  Q 487.92 427.19 488.06 426.48
  Q 488.20 425.76 487.87 424.84"
/>
<path stroke="#433a37" vector-effect="non-scaling-stroke" d="
  M 487.87 424.84
  L 488.38 418.37
  A 0.08 0.08 0.0 0 1 488.54 418.36
  L 489.69 426.03
  A 1.00 1.00 0.0 0 0 490.59 426.87
  L 494.52 427.19"
/>
<path stroke="#feb754" vector-effect="non-scaling-stroke" d="
  M 554.30 411.23
  Q 555.10 400.30 552.81 392.95
  C 551.66 389.23 546.48 382.16 542.82 387.84"
/>
<path stroke="#ab8b55" vector-effect="non-scaling-stroke" d="
  M 487.87 424.84
  L 484.77 394.55"
/>
<path stroke="#feb754" vector-effect="non-scaling-stroke" d="
  M 554.01 412.66
  Q 551.19 419.90 547.11 425.26
  A 2.33 2.33 0.0 0 1 543.16 424.88
  Q 539.30 417.02 540.11 407.42"
/>
</g>
<g fill="#2d2726">
<path d="
  M 546.43 360.31
  L 542.82 387.84
  L 540.11 407.42
  Q 538.71 415.65 537.73 423.88
  C 537.49 425.88 536.54 427.91 539.10 428.80
  Q 547.51 431.73 547.92 431.88
  A 1.54 1.54 0.0 0 0 549.94 430.77
  L 554.01 412.66
  L 554.30 411.23
  L 565.09 364.54
  L 565.18 363.02
  A 0.05 0.05 0.0 0 1 565.28 363.02
  Q 565.52 365.20 565.38 366.58
  A 1.46 1.46 0.0 0 0 566.83 368.18
  L 568.06 368.18
  A 1.33 1.33 0.0 0 0 569.39 366.90
  Q 569.49 364.01 570.93 362.92
  L 553.68 437.23
  Q 551.24 437.22 550.52 437.72
  C 544.13 442.16 538.26 440.85 530.43 440.34
  A 0.67 0.66 -77.2 0 0 529.77 440.76
  L 525.94 450.33
  A 1.37 1.36 10.0 0 1 524.70 451.19
  Q 512.54 451.50 500.82 450.23
  A 0.89 0.87 78.8 0 1 500.14 449.76
  L 494.72 439.47
  Q 496.18 440.05 497.75 440.02
  Q 513.27 439.69 526.75 440.11
  Q 528.72 440.17 530.53 439.35
  A 1.45 1.45 0.0 0 0 531.22 438.69
  L 533.92 433.35
  A 1.87 1.85 27.5 0 0 533.13 430.88
  Q 532.74 430.66 531.50 430.65
  Q 515.30 430.42 492.55 430.64
  A 1.64 1.64 0.0 0 0 490.97 432.66
  Q 491.87 436.43 494.72 439.47
  L 478.66 441.18
  A 1.53 1.53 0.0 0 1 477.43 440.74
  L 474.38 437.69
  A 1.68 1.66 -54.9 0 1 474.06 435.79
  Q 475.82 432.17 474.83 427.67
  L 475.63 430.22
  A 0.77 0.76 71.6 0 0 476.61 430.72
  L 482.75 428.55
  Q 484.93 428.15 486.95 427.50
  Q 487.92 427.19 488.06 426.48
  Q 488.20 425.76 487.87 424.84
  L 488.38 418.37
  A 0.08 0.08 0.0 0 1 488.54 418.36
  L 489.69 426.03
  A 1.00 1.00 0.0 0 0 490.59 426.87
  L 494.52 427.19
  L 530.11 427.02
  A 1.34 1.33 5.8 0 0 531.42 425.96
  Q 533.09 418.18 534.39 407.76
  Q 535.97 395.09 537.35 382.47
  Q 537.75 378.77 539.10 368.55
  Q 539.99 361.83 540.68 354.62
  Q 543.34 356.98 545.20 359.13
  Q 545.38 359.34 545.78 359.26
  Q 545.90 359.23 546.00 359.05
  A 0.13 0.13 0.0 0 1 546.24 359.09
  L 546.43 360.31
  Z"
/>
<path d="
  M 486.96 354.74
  L 489.14 375.89
  Q 486.48 380.92 486.34 382.97
  Q 485.97 388.82 484.77 394.55
  L 484.12 389.71
  Q 482.44 377.86 480.72 366.04
  Q 480.70 365.92 480.32 361.55
  Q 480.10 358.95 479.20 357.05
  Q 482.91 356.82 486.96 354.74
  Z"
/>
</g>
<g fill="#fec963">
<path d="
  M 540.68 354.62
  Q 539.99 361.83 539.10 368.55
  Q 537.75 378.77 537.35 382.47
  Q 535.97 395.09 534.39 407.76
  Q 533.09 418.18 531.42 425.96
  A 1.34 1.33 5.8 0 1 530.11 427.02
  L 494.52 427.19
  L 489.14 375.89
  L 486.96 354.74
  Q 513.90 353.96 540.68 354.62
  Z"
/>
<path d="
  M 484.12 389.71
  L 484.77 394.55
  L 487.87 424.84
  Q 488.20 425.76 488.06 426.48
  Q 487.92 427.19 486.95 427.50
  Q 484.93 428.15 482.75 428.55
  Q 480.99 423.77 478.87 419.15
  Q 475.49 411.75 474.93 409.77
  Q 472.95 402.74 472.52 394.78
  Q 471.98 384.62 480.92 380.61
  A 0.44 0.44 0.0 0 1 481.52 380.89
  L 484.12 389.71
  Z"
/>
<path d="
  M 554.30 411.23
  L 554.01 412.66
  Q 551.19 419.90 547.11 425.26
  A 2.33 2.33 0.0 0 1 543.16 424.88
  Q 539.30 417.02 540.11 407.42
  L 542.82 387.84
  C 546.48 382.16 551.66 389.23 552.81 392.95
  Q 555.10 400.30 554.30 411.23
  Z"
/>
</g>
<path fill="#100f0f" d="
  M 570.93 362.92
  Q 569.49 364.01 569.39 366.90
  A 1.33 1.33 0.0 0 1 568.06 368.18
  L 566.83 368.18
  A 1.46 1.46 0.0 0 1 565.38 366.58
  Q 565.52 365.20 565.28 363.02
  A 0.05 0.05 0.0 0 0 565.18 363.02
  L 565.09 364.54
  Q 565.41 362.96 564.57 362.70
  Q 556.13 360.11 547.75 356.59
  A 0.79 0.78 -76.1 0 0 546.66 357.25
  L 546.43 360.31
  L 546.24 359.09
  A 0.13 0.13 0.0 0 0 546.00 359.05
  Q 545.90 359.23 545.78 359.26
  Q 545.38 359.34 545.20 359.13
  Q 543.34 356.98 540.68 354.62
  Q 513.90 353.96 486.96 354.74
  Q 482.91 356.82 479.20 357.05
  L 460.43 362.73
  A 1.30 1.29 -16.9 0 0 459.57 364.33
  Q 464.98 382.27 468.69 400.32
  C 470.74 410.32 472.67 418.58 474.83 427.67
  Q 475.82 432.17 474.06 435.79
  A 1.68 1.66 -54.9 0 0 474.38 437.69
  L 477.43 440.74
  A 1.53 1.53 0.0 0 0 478.66 441.18
  L 494.72 439.47
  L 500.14 449.76
  A 0.89 0.87 78.8 0 0 500.82 450.23
  Q 512.54 451.50 524.70 451.19
  A 1.37 1.36 10.0 0 0 525.94 450.33
  L 529.77 440.76
  A 0.67 0.66 -77.2 0 1 530.43 440.34
  C 538.26 440.85 544.13 442.16 550.52 437.72
  Q 551.24 437.22 553.68 437.23
  Q 553.33 438.07 552.32 438.90
  A 1.58 1.56 65.2 0 0 551.77 440.42
  Q 552.50 444.15 549.53 445.81
  Q 543.26 449.32 535.38 456.12
  Q 534.85 456.56 533.19 460.36
  C 530.85 465.72 529.85 472.66 528.49 476.25
  A 1.46 1.46 0.0 0 0 529.16 478.06
  Q 531.97 479.58 531.66 482.01
  A 2.01 2.01 0.0 0 0 532.10 483.54
  Q 533.93 485.76 534.22 486.53
  C 536.88 493.66 533.77 497.07 528.46 500.86
  A 1.04 1.03 -14.8 0 0 528.03 501.59
  L 527.23 509.89
  A 1.15 1.14 16.8 0 0 527.84 511.02
  C 532.30 513.36 530.48 518.65 526.55 520.56
  A 1.76 1.76 0.0 0 0 525.56 522.11
  Q 525.42 530.34 525.49 537.50
  Q 526.74 652.41 527.91 727.00
  Q 528.83 785.96 531.47 895.58
  Q 532.07 920.50 532.44 929.43
  Q 533.45 954.38 533.39 963.19
  A 0.97 0.95 -77.4 0 0 533.93 964.06
  Q 534.92 964.55 535.62 964.90
  Q 538.84 966.50 537.40 969.38
  A 0.85 0.84 -58.5 0 0 537.65 970.43
  C 542.06 973.73 546.38 978.05 543.29 983.98
  Q 542.67 985.17 538.65 988.06
  A 0.89 0.88 70.0 0 0 538.29 988.85
  Q 538.85 996.35 542.37 1003.20
  A 2.49 2.46 7.8 0 0 542.97 1003.98
  C 544.37 1005.20 546.22 1006.12 547.08 1007.59
  C 549.25 1011.30 548.81 1016.23 544.59 1017.99
  A 1.52 1.50 75.8 0 0 543.67 1019.55
  Q 550.73 1084.12 555.51 1142.46
  A 1.27 1.22 -75.3 0 0 556.02 1143.37
  C 559.22 1145.68 563.06 1148.49 564.30 1152.45
  Q 564.95 1154.54 564.74 1162.55
  A 0.82 0.81 -71.0 0 0 565.06 1163.22
  Q 572.29 1168.77 573.28 1170.25
  Q 575.09 1172.97 577.76 1175.97
  Q 579.13 1177.52 579.58 1181.43
  Q 580.53 1189.80 580.24 1195.01
  C 579.75 1203.89 557.98 1208.41 551.06 1209.57
  C 524.28 1214.05 494.64 1214.11 468.26 1208.52
  Q 457.54 1206.25 448.95 1201.39
  Q 444.67 1198.97 444.69 1193.50
  Q 444.71 1185.49 445.58 1179.81
  C 446.18 1175.93 449.08 1174.44 450.93 1171.44
  Q 454.57 1165.53 460.17 1162.76
  A 0.65 0.65 0.0 0 0 460.50 1161.98
  Q 459.29 1158.19 460.00 1153.40
  C 460.66 1148.97 465.53 1145.31 468.87 1143.14
  A 0.73 0.70 77.6 0 0 469.19 1142.62
  L 481.18 1019.34
  A 1.36 1.36 0.0 0 0 480.57 1018.07
  Q 476.03 1015.06 476.86 1011.02
  Q 478.11 1004.97 483.31 1002.97
  A 1.04 1.03 81.1 0 0 483.98 1002.04
  Q 484.08 1000.13 485.17 998.41
  A 3.54 3.49 -24.9 0 0 485.67 997.07
  L 486.91 988.79
  A 0.48 0.48 0.0 0 0 486.64 988.29
  Q 478.68 984.38 481.72 975.84
  Q 482.76 972.93 487.18 971.02
  A 0.85 0.85 0.0 0 0 487.70 970.30
  C 487.78 969.28 487.11 968.12 487.76 966.93
  Q 488.50 965.57 491.04 964.49
  A 1.07 1.07 0.0 0 0 491.69 963.54
  Q 497.16 763.66 498.94 562.25
  Q 498.96 560.20 499.25 558.28
  L 499.28 522.17
  Q 498.01 520.55 495.72 518.29
  C 493.26 515.86 495.15 511.63 497.93 510.52
  A 0.95 0.95 0.0 0 0 498.52 509.50
  L 497.30 501.38
  A 0.71 0.69 8.5 0 0 496.88 500.83
  Q 488.51 497.20 490.65 488.06
  Q 491.38 484.93 494.99 482.64
  A 1.20 1.20 0.0 0 0 495.53 481.39
  Q 494.99 478.69 497.71 477.34
  A 0.90 0.90 0.0 0 0 498.20 476.51
  C 498.17 475.89 497.45 475.04 497.27 474.18
  Q 494.98 463.60 492.97 459.05
  Q 492.05 456.96 489.18 454.58
  Q 484.19 450.44 475.34 445.21
  C 471.89 443.18 475.47 440.09 473.04 438.36
  C 470.94 436.86 471.41 433.66 470.88 431.47
  Q 462.46 396.49 461.35 391.90
  C 459.52 384.39 455.89 371.80 454.15 363.25
  A 1.43 1.41 -77.9 0 0 453.61 362.40
  Q 448.07 358.32 446.99 357.26
  C 445.51 355.81 445.32 352.44 445.80 350.76
  Q 446.20 349.34 448.22 348.48
  Q 452.59 346.62 457.53 343.88
  A 6.38 6.37 4.8 0 0 459.46 342.25
  Q 470.62 328.31 478.23 313.55
  A 2.58 2.57 -87.6 0 1 479.52 312.36
  Q 480.47 311.97 481.89 311.92
  A 1.14 1.13 4.3 0 0 482.99 310.98
  Q 483.42 308.51 485.91 306.46
  A 2.75 2.72 79.9 0 0 486.75 305.24
  C 487.58 302.81 487.81 300.79 490.10 299.35
  Q 494.54 296.57 500.28 296.42
  A 0.91 0.89 -86.1 0 0 501.14 295.66
  Q 501.64 292.76 504.73 290.96
  A 1.15 1.14 -46.2 0 0 504.69 288.96
  Q 500.44 286.71 501.39 281.68
  C 501.90 278.98 505.45 274.28 508.32 273.21
  C 515.27 270.63 521.92 274.76 524.02 281.27
  Q 525.70 286.49 521.13 289.45
  A 1.04 1.04 0.0 0 0 521.17 291.22
  Q 525.00 293.47 526.81 296.91
  A 0.92 0.91 78.7 0 0 527.52 297.39
  C 531.92 297.92 534.68 298.23 537.76 301.51
  Q 541.61 305.64 542.68 310.94
  A 1.06 1.06 0.0 0 0 543.53 311.78
  Q 546.07 312.24 547.08 313.48
  C 549.58 316.55 551.82 321.65 553.60 324.53
  Q 559.54 334.17 560.55 336.20
  C 561.92 338.95 563.96 340.86 566.44 343.83
  A 2.98 2.95 84.0 0 0 567.26 344.50
  Q 572.57 347.46 575.28 348.64
  C 578.27 349.93 578.87 350.77 578.98 354.02
  Q 579.07 356.51 577.23 357.71
  Q 573.81 359.94 570.93 362.92
  Z"
/>
<g fill="#584c47">
<path d="
  M 494.52 427.19
  L 490.59 426.87
  A 1.00 1.00 0.0 0 1 489.69 426.03
  L 488.54 418.36
  A 0.08 0.08 0.0 0 0 488.38 418.37
  L 487.87 424.84
  L 484.77 394.55
  Q 485.97 388.82 486.34 382.97
  Q 486.48 380.92 489.14 375.89
  L 494.52 427.19
  Z"
/>
<path d="
  M 494.72 439.47
  Q 491.87 436.43 490.97 432.66
  A 1.64 1.64 0.0 0 1 492.55 430.64
  Q 515.30 430.42 531.50 430.65
  Q 532.74 430.66 533.13 430.88
  A 1.87 1.85 27.5 0 1 533.92 433.35
  L 531.22 438.69
  A 1.45 1.45 0.0 0 1 530.53 439.35
  Q 528.72 440.17 526.75 440.11
  Q 513.27 439.69 497.75 440.02
  Q 496.18 440.05 494.72 439.47
  Z"
/>
<path d="
  M 499.28 522.17
  L 499.25 558.28
  Q 498.54 540.62 499.28 522.17
  Z"
/>
</g>
<g fill="#fea444">
<path d="
  M 565.09 364.54
  L 554.30 411.23
  Q 555.10 400.30 552.81 392.95
  C 551.66 389.23 546.48 382.16 542.82 387.84
  L 546.43 360.31
  L 546.66 357.25
  A 0.79 0.78 -76.1 0 1 547.75 356.59
  Q 556.13 360.11 564.57 362.70
  Q 565.41 362.96 565.09 364.54
  Z"
/>
<path d="
  M 479.20 357.05
  Q 480.10 358.95 480.32 361.55
  Q 480.70 365.92 480.72 366.04
  Q 482.44 377.86 484.12 389.71
  L 481.52 380.89
  A 0.44 0.44 0.0 0 0 480.92 380.61
  Q 471.98 384.62 472.52 394.78
  Q 472.95 402.74 474.93 409.77
  Q 475.49 411.75 478.87 419.15
  Q 480.99 423.77 482.75 428.55
  L 476.61 430.72
  A 0.77 0.76 71.6 0 1 475.63 430.22
  L 474.83 427.67
  C 472.67 418.58 470.74 410.32 468.69 400.32
  Q 464.98 382.27 459.57 364.33
  A 1.30 1.29 -16.9 0 1 460.43 362.73
  L 479.20 357.05
  Z"
/>
<path d="
  M 540.11 407.42
  Q 539.30 417.02 543.16 424.88
  A 2.33 2.33 0.0 0 0 547.11 425.26
  Q 551.19 419.90 554.01 412.66
  L 549.94 430.77
  A 1.54 1.54 0.0 0 1 547.92 431.88
  Q 547.51 431.73 539.10 428.80
  C 536.54 427.91 537.49 425.88 537.73 423.88
  Q 538.71 415.65 540.11 407.42
  Z"
/>
</g>
<g stroke-width="2.00" fill="none" stroke-linecap="butt">
<path stroke="#433a37" vector-effect="non-scaling-stroke" d="
  M 519.67 279.61
  Q 520.27 281.83 519.73 283.77
  A 0.90 0.88 -82.7 0 1 518.91 284.42
  L 508.49 284.72
  A 0.72 0.71 53.6 0 1 508.18 284.67
  C 504.65 283.35 506.36 279.30 508.01 277.24"
/>
<path stroke="#ab7846" vector-effect="non-scaling-stroke" d="
  M 504.02 476.64
  Q 504.45 478.74 505.83 480.48"
/>
<path stroke="#433a37" vector-effect="non-scaling-stroke" d="
  M 506.19 483.14
  L 500.83 487.24
  A 0.78 0.78 0.0 0 0 501.03 488.59
  Q 504.42 489.81 508.75 489.99
  Q 517.47 490.34 523.59 489.82
  A 0.92 0.92 0.0 0 0 524.32 488.45
  L 521.49 483.43"
/>
<path stroke="#ab7846" vector-effect="non-scaling-stroke" d="
  M 506.27 512.20
  Q 504.53 512.88 504.58 514.17
  A 0.86 0.84 -69.2 0 0 504.84 514.76
  Q 506.04 515.88 508.00 515.88
  Q 518.51 515.91 525.39 515.99
  A 1.14 1.07 -55.3 0 0 525.91 515.88
  Q 527.28 515.21 526.87 513.25"
/>
<path stroke="#966635" vector-effect="non-scaling-stroke" d="
  M 534.93 968.19
  Q 535.35 969.87 533.16 971.38"
/>
<path stroke="#ab7846" vector-effect="non-scaling-stroke" d="
  M 543.77 1009.03
  Q 543.95 1012.34 541.08 1012.66
  Q 535.72 1013.27 532.47 1013.83
  Q 526.03 1014.93 523.90 1015.05
  Q 510.13 1015.83 496.72 1014.37
  A 0.61 0.57 29.8 0 0 496.34 1014.46
  Q 496.14 1014.60 496.00 1014.57
  C 490.85 1013.48 485.27 1013.37 480.31 1010.44"
/>
<path stroke="#433a37" vector-effect="non-scaling-stroke" d="
  M 547.02 1161.09
  Q 538.98 1162.21 530.88 1163.12
  Q 522.97 1164.01 515.08 1164.12
  Q 503.30 1164.29 499.25 1163.78
  Q 490.50 1162.70 481.38 1161.58"
/>
<path stroke="#433a37" vector-effect="non-scaling-stroke" d="
  M 483.06 1173.61
  Q 481.63 1175.74 476.39 1182.54
  Q 474.84 1184.54 476.26 1187.33"
/>
<path stroke="#433a37" vector-effect="non-scaling-stroke" d="
  M 543.78 1188.40
  Q 549.11 1187.12 553.02 1183.71
  A 1.59 1.58 66.3 0 0 553.56 1182.32
  Q 552.89 1176.13 547.24 1173.04"
/>
</g>
<path fill="#fefefe" d="
  M 508.55 376.81
  C 514.30 375.85 521.16 376.57 525.39 380.91
  C 533.69 389.41 531.92 402.35 521.90 408.09
  C 512.95 413.20 499.06 409.81 495.48 399.61
  C 491.79 389.11 496.91 378.76 508.55 376.81
  Z"
/>
<g fill="#2d2726">
<path d="
  M 508.01 277.24
  C 506.36 279.30 504.65 283.35 508.18 284.67
  A 0.72 0.71 53.6 0 0 508.49 284.72
  L 518.91 284.42
  A 0.90 0.88 -82.7 0 0 519.73 283.77
  Q 520.27 281.83 519.67 279.61
  Q 521.35 282.20 520.02 284.50
  Q 517.90 288.17 516.92 290.85
  A 0.62 0.62 0.0 0 1 516.34 291.25
  L 509.44 291.25
  A 0.85 0.84 -2.2 0 1 508.59 290.47
  C 508.35 287.55 507.88 286.82 506.24 283.95
  Q 504.16 280.31 508.01 277.24
  Z"
/>
<path d="
  M 491.76 305.59
  A 0.29 0.28 6.4 0 1 491.43 305.18
  C 494.07 300.34 499.01 299.24 503.73 297.03
  C 510.28 293.97 517.71 293.49 524.00 297.37
  Q 527.44 299.50 527.57 299.53
  A 0.67 0.67 0.0 0 1 528.13 300.27
  L 527.54 305.41
  A 0.53 0.52 -86.3 0 1 527.02 305.87
  Q 509.68 305.82 498.31 304.89
  Q 495.25 304.64 491.76 305.59
  Z"
/>
<path d="
  M 482.35 342.87
  Q 479.60 346.12 475.55 347.55
  Q 463.29 351.89 452.51 354.57
  A 3.85 3.84 -25.4 0 1 448.50 353.15
  L 448.41 353.04
  A 1.94 1.93 -27.5 0 1 449.36 350.04
  Q 457.79 347.28 461.45 345.71
  Q 464.61 344.35 466.68 341.21
  Q 471.87 333.33 477.35 321.82
  Q 480.89 314.40 489.35 312.63
  C 496.84 311.06 501.40 309.94 507.70 310.46
  Q 508.70 310.54 519.83 310.46
  C 526.81 310.40 534.56 311.17 540.57 313.71
  Q 542.82 314.67 545.00 317.61
  Q 549.02 323.05 553.90 332.16
  C 556.09 336.24 560.09 340.57 561.08 344.64
  A 1.12 1.12 0.0 0 0 561.76 345.41
  Q 566.21 347.10 571.49 349.24
  Q 573.04 349.86 575.57 352.86
  A 0.85 0.84 37.0 0 1 575.70 353.73
  Q 575.07 355.19 574.09 355.70
  A 1.69 1.66 -52.9 0 1 573.00 355.86
  Q 561.26 353.58 549.38 349.44
  Q 546.49 348.44 541.51 348.42
  Q 519.89 348.33 501.16 348.31
  Q 489.85 348.29 483.19 347.82
  A 0.94 0.94 0.0 0 1 482.32 346.79
  L 482.69 343.01
  A 0.19 0.19 0.0 0 0 482.35 342.87
  Z"
/>
<path d="
  M 523.16 456.39
  L 523.16 472.52
  A 1.52 1.52 0.0 0 1 521.64 474.04
  L 505.84 474.04
  A 1.52 1.52 0.0 0 1 504.34 472.75
  L 501.92 456.62
  A 1.52 1.52 0.0 0 1 503.42 454.87
  L 521.64 454.87
  A 1.52 1.52 0.0 0 1 523.16 456.39
  Z"
/>
<path d="
  M 506.19 483.14
  L 500.83 487.24
  A 0.78 0.78 0.0 0 0 501.03 488.59
  Q 504.42 489.81 508.75 489.99
  Q 517.47 490.34 523.59 489.82
  A 0.92 0.92 0.0 0 0 524.32 488.45
  L 521.49 483.43
  Q 527.38 482.63 529.80 486.88
  A 3.41 3.32 -39.2 0 1 529.35 490.79
  Q 525.51 495.07 518.87 495.03
  C 508.66 494.98 501.23 495.27 495.05 489.12
  A 1.65 1.64 41.3 0 1 494.90 486.94
  L 497.69 483.32
  A 2.48 2.47 -67.3 0 1 499.96 482.38
  L 506.19 483.14
  Z"
/>
<path d="
  M 520.23 510.37
  L 505.76 510.37
  A 0.65 0.64 82.3 0 1 505.14 509.89
  Q 504.13 506.24 504.64 503.30
  C 505.21 499.94 508.84 499.98 511.73 499.87
  Q 514.68 499.75 520.33 500.34
  A 1.34 1.34 0.0 0 1 521.52 501.80
  L 520.73 509.91
  A 0.50 0.50 0.0 0 1 520.23 510.37
  Z"
/>
<path d="
  M 518.98 522.98
  A 0.75 0.75 0.0 0 1 519.63 523.69
  C 519.98 532.12 520.30 537.57 520.07 545.74
  C 519.52 564.66 520.56 586.75 520.63 605.11
  Q 520.64 606.82 520.42 610.38
  C 520.28 612.73 520.61 614.85 520.60 617.87
  C 520.57 628.00 520.37 633.16 520.61 644.06
  C 520.99 661.04 521.02 674.01 521.15 687.50
  Q 521.52 726.01 522.93 827.25
  C 523.12 841.60 522.76 851.60 523.46 860.95
  Q 524.10 869.44 523.96 877.58
  C 523.71 891.95 524.76 907.59 524.68 921.14
  Q 524.57 939.64 524.90 959.47
  A 0.88 0.88 0.0 0 1 524.22 960.34
  Q 512.77 962.95 501.18 960.64
  A 1.63 1.62 -85.5 0 1 499.88 959.11
  Q 499.71 954.97 499.71 954.96
  C 500.01 933.52 499.88 920.37 500.47 899.03
  Q 501.47 862.21 501.90 809.74
  Q 501.97 801.91 502.19 796.28
  C 502.75 782.03 502.60 767.15 502.91 753.78
  Q 503.14 744.24 503.20 724.72
  Q 503.25 709.81 503.54 690.75
  Q 503.73 678.51 503.72 676.75
  C 503.66 661.36 504.52 642.90 504.48 632.00
  Q 504.37 600.54 504.71 586.53
  Q 504.96 576.65 504.86 575.94
  C 504.32 571.81 505.04 567.50 505.07 562.22
  Q 505.20 541.48 505.10 530.30
  C 505.08 527.17 505.68 523.35 509.32 522.83
  Q 513.24 522.27 518.98 522.98
  Z"
/>
<path d="
  M 533.16 971.38
  Q 535.35 969.87 534.93 968.19
  C 538.01 972.63 539.70 974.78 540.24 979.53
  A 1.21 1.20 62.5 0 1 539.95 980.46
  Q 539.19 981.30 537.09 982.08
  Q 532.54 983.78 526.69 985.45
  Q 522.79 986.56 515.95 986.58
  C 506.26 986.60 500.67 986.37 491.93 983.88
  Q 487.37 982.59 484.74 980.94
  A 1.12 1.12 0.0 0 1 484.21 979.99
  Q 484.19 977.17 485.30 974.58
  A 1.40 1.35 87.5 0 1 485.85 973.96
  L 489.41 971.91
  A 1.20 1.18 35.0 0 1 490.25 971.77
  Q 492.40 972.21 500.72 973.80
  Q 517.44 977.01 533.16 971.38
  Z"
/>
<path d="
  M 513.12 1004.53
  Q 507.56 1004.60 501.96 1004.23
  Q 500.37 1004.12 498.60 1003.62
  A 0.83 0.81 10.9 0 1 498.00 1002.75
  L 498.96 993.43
  A 1.44 1.43 4.0 0 1 500.46 992.14
  Q 500.57 992.15 512.97 992.00
  Q 525.36 991.86 525.48 991.85
  A 1.44 1.43 -5.4 0 1 527.01 993.10
  L 528.19 1002.39
  A 0.83 0.81 -12.3 0 1 527.61 1003.28
  Q 525.85 1003.82 524.26 1003.97
  Q 518.67 1004.47 513.12 1004.53
  Z"
/>
<path d="
  M 489.44 1144.68
  A 1.77 1.77 0.0 0 1 488.59 1143.22
  Q 488.27 1133.01 489.46 1120.73
  Q 490.01 1115.04 490.15 1108.10
  C 490.25 1102.81 491.23 1097.21 491.49 1091.27
  Q 491.92 1081.40 492.75 1072.03
  Q 493.55 1062.82 494.63 1041.31
  Q 495.12 1031.56 496.22 1024.65
  A 1.85 1.84 -85.1 0 1 498.06 1023.09
  Q 511.83 1023.25 523.49 1022.68
  Q 526.44 1022.54 528.85 1023.09
  A 1.30 1.29 83.6 0 1 529.73 1023.80
  Q 530.62 1025.73 530.82 1029.23
  Q 531.38 1039.00 533.18 1064.05
  C 534.33 1080.00 534.85 1095.31 536.30 1112.85
  C 537.18 1123.41 537.03 1131.54 537.43 1143.78
  A 1.97 1.96 -6.3 0 1 535.82 1145.78
  Q 512.29 1150.23 491.35 1145.43
  Q 490.23 1145.17 489.44 1144.68
  Z"
/>
<path d="
  M 547.02 1161.09
  L 547.03 1166.40
  A 1.22 1.22 0.0 0 1 546.07 1167.59
  Q 539.49 1169.01 531.83 1170.24
  C 524.57 1171.40 518.31 1170.82 510.77 1171.14
  C 503.03 1171.45 494.69 1170.61 487.18 1169.32
  Q 483.78 1168.74 480.78 1167.09
  A 0.88 0.88 0.0 0 1 480.53 1165.75
  Q 482.85 1163.00 481.38 1161.58
  Q 490.50 1162.70 499.25 1163.78
  Q 503.30 1164.29 515.08 1164.12
  Q 522.97 1164.01 530.88 1163.12
  Q 538.98 1162.21 547.02 1161.09
  Z"
/>
<path d="
  M 483.06 1173.61
  Q 481.63 1175.74 476.39 1182.54
  Q 474.84 1184.54 476.26 1187.33
  C 473.09 1187.13 469.83 1186.92 466.89 1185.98
  C 461.67 1184.31 455.33 1182.54 452.30 1177.93
  A 2.80 2.79 46.0 0 1 452.35 1174.77
  Q 455.58 1170.22 459.95 1167.02
  A 2.10 2.08 -44.6 0 1 462.43 1167.03
  Q 465.65 1169.44 469.41 1170.40
  Q 476.19 1172.14 483.06 1173.61
  Z"
/>
<path d="
  M 543.78 1188.40
  Q 549.11 1187.12 553.02 1183.71
  A 1.59 1.58 66.3 0 0 553.56 1182.32
  Q 552.89 1176.13 547.24 1173.04
  Q 551.04 1171.73 554.80 1170.65
  Q 559.71 1169.25 563.14 1167.28
  A 2.06 2.06 0.0 0 1 565.56 1167.55
  L 568.45 1170.18
  A 2.63 2.26 -4.4 0 0 568.75 1170.40
  C 572.58 1172.83 576.93 1176.45 571.81 1180.41
  Q 568.10 1183.29 559.75 1185.37
  Q 552.50 1187.18 549.75 1187.38
  A 3.47 3.45 33.1 0 0 548.78 1187.58
  Q 546.41 1188.42 543.78 1188.40
  Z"
/>
<path d="
  M 469.32 1200.37
  A 1.18 1.17 -77.2 0 1 468.66 1199.31
  L 468.66 1190.99
  A 1.43 1.42 5.5 0 1 470.36 1189.60
  Q 491.18 1193.68 513.61 1194.08
  C 526.38 1194.31 541.20 1192.21 552.07 1190.52
  Q 556.17 1189.89 560.39 1188.66
  A 0.96 0.96 0.0 0 1 561.62 1189.58
  L 561.62 1197.65
  A 1.91 1.91 0.0 0 1 560.35 1199.45
  C 546.18 1204.56 533.43 1205.44 517.53 1206.10
  C 502.55 1206.72 489.23 1205.24 475.30 1202.44
  Q 472.32 1201.84 469.32 1200.37
  Z"
/>
</g>
<g fill="#584c47">
<path d="
  M 519.67 279.61
  Q 520.27 281.83 519.73 283.77
  A 0.90 0.88 -82.7 0 1 518.91 284.42
  L 508.49 284.72
  A 0.72 0.71 53.6 0 1 508.18 284.67
  C 504.65 283.35 506.36 279.30 508.01 277.24
  C 512.06 273.60 517.09 275.38 519.67 279.61
  Z"
/>
<path d="
  M 504.02 476.64
  Q 504.45 478.74 505.83 480.48
  L 498.30 480.43
  A 0.61 0.61 0.0 0 1 497.74 479.59
  L 498.69 477.22
  A 1.31 1.31 0.0 0 1 499.99 476.40
  L 504.02 476.64
  Z"
/>
<path d="
  M 521.49 483.43
  L 524.32 488.45
  A 0.92 0.92 0.0 0 1 523.59 489.82
  Q 517.47 490.34 508.75 489.99
  Q 504.42 489.81 501.03 488.59
  A 0.78 0.78 0.0 0 1 500.83 487.24
  L 506.19 483.14
  Q 514.41 482.44 521.49 483.43
  Z"
/>
<path d="
  M 506.27 512.20
  Q 504.53 512.88 504.58 514.17
  A 0.86 0.84 -69.2 0 0 504.84 514.76
  Q 506.04 515.88 508.00 515.88
  Q 518.51 515.91 525.39 515.99
  A 1.14 1.07 -55.3 0 0 525.91 515.88
  Q 527.28 515.21 526.87 513.25
  Q 527.74 513.35 527.54 514.52
  C 526.93 518.17 524.14 517.87 520.56 517.87
  Q 510.57 517.89 500.71 517.61
  A 3.06 3.06 0.0 0 1 497.76 514.88
  L 497.74 514.74
  A 2.47 2.31 87.6 0 1 500.10 512.00
  L 506.27 512.20
  Z"
/>
<path d="
  M 480.31 1010.44
  C 485.27 1013.37 490.85 1013.48 496.00 1014.57
  Q 496.14 1014.60 496.34 1014.46
  A 0.61 0.57 29.8 0 1 496.72 1014.37
  Q 510.13 1015.83 523.90 1015.05
  Q 526.03 1014.93 532.47 1013.83
  Q 535.72 1013.27 541.08 1012.66
  Q 543.95 1012.34 543.77 1009.03
  Q 544.71 1010.83 543.61 1013.16
  A 1.83 1.81 -4.1 0 1 542.96 1013.90
  Q 540.10 1015.78 536.69 1016.12
  C 533.81 1016.42 531.11 1017.55 528.47 1017.58
  C 513.23 1017.74 498.77 1018.23 484.97 1015.30
  Q 481.63 1014.59 480.31 1010.44
  Z"
/>
<path d="
  M 547.02 1161.09
  Q 538.98 1162.21 530.88 1163.12
  Q 522.97 1164.01 515.08 1164.12
  Q 503.30 1164.29 499.25 1163.78
  Q 490.50 1162.70 481.38 1161.58
  Q 475.49 1160.71 469.91 1159.19
  Q 466.35 1158.22 464.43 1155.12
  A 2.67 2.67 0.0 0 1 464.58 1152.08
  L 468.81 1146.60
  A 1.57 1.57 0.0 0 1 470.82 1146.19
  Q 472.92 1147.34 473.44 1147.53
  Q 476.28 1148.58 486.43 1150.77
  Q 491.18 1151.79 499.65 1152.24
  Q 515.30 1153.08 528.61 1152.15
  C 533.36 1151.81 536.15 1151.22 540.68 1150.71
  Q 542.33 1150.52 545.43 1149.72
  Q 551.46 1148.18 553.85 1146.99
  A 2.01 2.01 0.0 0 1 555.94 1147.17
  Q 559.08 1149.49 560.72 1151.91
  A 3.32 3.31 43.6 0 1 560.81 1155.46
  C 558.71 1158.96 550.75 1160.21 547.02 1161.09
  Z"
/>
<path d="
  M 547.24 1173.04
  Q 552.89 1176.13 553.56 1182.32
  A 1.59 1.58 66.3 0 1 553.02 1183.71
  Q 549.11 1187.12 543.78 1188.40
  Q 531.88 1190.28 526.25 1190.53
  Q 516.66 1190.97 497.06 1190.28
  C 492.40 1190.12 488.52 1189.28 483.98 1188.98
  C 481.65 1188.84 478.77 1187.92 476.26 1187.33
  Q 474.84 1184.54 476.39 1182.54
  Q 481.63 1175.74 483.06 1173.61
  Q 488.22 1174.29 493.39 1174.95
  Q 499.35 1175.69 503.77 1175.71
  C 509.02 1175.72 513.59 1176.14 519.41 1175.82
  Q 533.45 1175.05 547.24 1173.04
  Z"
/>
</g>
<g fill="#fea444">
<path d="
  M 505.83 480.48
  Q 504.45 478.74 504.02 476.64
  L 525.99 476.41
  A 1.93 1.93 0.0 0 1 527.92 478.05
  L 528.11 479.37
  A 1.50 1.50 0.0 0 1 526.59 481.09
  L 505.83 480.48
  Z"
/>
<path d="
  M 526.87 513.25
  Q 527.28 515.21 525.91 515.88
  A 1.14 1.07 -55.3 0 1 525.39 515.99
  Q 518.51 515.91 508.00 515.88
  Q 506.04 515.88 504.84 514.76
  A 0.86 0.84 -69.2 0 1 504.58 514.17
  Q 504.53 512.88 506.27 512.20
  L 525.31 512.27
  A 1.55 1.55 0.0 0 1 526.18 512.56
  Q 526.62 512.88 526.87 513.25
  Z"
/>
<path d="
  M 534.93 968.19
  Q 535.35 969.87 533.16 971.38
  Q 512.18 974.03 491.79 970.96
  C 488.59 970.47 490.46 965.15 493.95 965.91
  Q 497.99 966.79 502.12 966.97
  C 511.70 967.39 521.84 967.69 531.26 965.84
  Q 533.92 965.32 534.93 968.19
  Z"
/>
<path d="
  M 543.77 1009.03
  Q 543.95 1012.34 541.08 1012.66
  Q 535.72 1013.27 532.47 1013.83
  Q 526.03 1014.93 523.90 1015.05
  Q 510.13 1015.83 496.72 1014.37
  A 0.61 0.57 29.8 0 0 496.34 1014.46
  Q 496.14 1014.60 496.00 1014.57
  C 490.85 1013.48 485.27 1013.37 480.31 1010.44
  Q 480.91 1006.53 484.70 1005.79
  A 2.60 2.55 50.5 0 1 486.20 1005.95
  C 487.83 1006.65 489.58 1007.32 491.29 1007.59
  Q 513.48 1011.13 535.26 1007.85
  Q 537.08 1007.58 540.49 1005.87
  A 1.10 1.09 46.4 0 1 541.52 1005.90
  Q 543.29 1006.93 543.77 1009.03
  Z"
/>
</g>
<g fill="#584c47">
<path d="
  M 485.83 339.45
  Q 490.68 332.18 494.30 321.77
  C 495.20 319.17 497.25 315.08 499.03 313.31
  C 500.93 311.41 504.17 310.66 506.93 310.71
  Q 511.89 310.80 524.96 310.63
  Q 526.37 310.61 528.08 311.79
  A 2.14 2.09 3.4 0 1 528.69 312.46
  Q 530.56 315.77 531.53 317.97
  Q 536.21 328.48 538.61 333.40
  Q 540.25 336.77 542.90 339.17
  A 0.66 0.66 0.0 0 1 542.54 340.31
  C 540.86 340.53 537.33 340.90 534.80 340.89
  Q 513.76 340.87 498.53 340.86
  Q 492.17 340.86 486.11 340.07
  A 0.40 0.40 0.0 0 1 485.83 339.45
  Z"
/>
<path d="
  M 527.96 980.22
  Q 527.98 983.00 523.17 983.20
  Q 518.20 983.41 513.23 983.45
  Q 508.25 983.48 503.29 983.34
  Q 498.47 983.21 498.45 980.43
  Q 498.43 977.65 503.24 977.45
  Q 508.21 977.23 513.18 977.20
  Q 518.15 977.16 523.12 977.30
  Q 527.94 977.44 527.96 980.22
  Z"
/>
</g>
</svg>
