<?xml version="1.0" encoding="UTF-8" standalone="no"?>
<!DOCTYPE svg PUBLIC "-//W3C//DTD SVG 1.1//EN" "http://www.w3.org/Graphics/SVG/1.1/DTD/svg11.dtd">
<svg xmlns="http://www.w3.org/2000/svg" version="1.1" viewBox="423.15 365.05 177.33 741.18">

<path fill="#070e2a" d="
  M 490.73 619.82
  A 0.46 0.45 -51.4 0 0 490.65 619.07
  C 485.99 616.59 485.74 613.28 485.17 608.27
  A 1.67 1.66 -86.2 0 0 483.92 606.84
  C 475.48 604.74 469.36 599.60 472.48 590.02
  A 0.63 0.62 -75.8 0 0 472.01 589.22
  C 468.13 588.46 466.02 585.34 468.18 581.68
  A 1.61 1.58 58.1 0 0 468.39 580.75
  Q 468.05 577.05 467.29 573.70
  Q 463.95 559.03 462.00 551.82
  Q 457.94 536.80 456.70 530.72
  C 454.94 522.18 451.93 512.31 449.76 502.55
  Q 447.87 494.06 443.53 477.22
  A 1.87 1.83 14.1 0 0 442.96 476.29
  Q 440.49 474.14 437.74 472.43
  A 1.25 1.11 82.3 0 1 437.52 472.24
  L 433.62 467.79
  A 1.93 1.91 -65.7 0 1 433.15 466.53
  L 433.15 459.78
  A 1.62 1.59 58.5 0 1 433.31 459.08
  Q 436.84 451.64 444.33 455.80
  A 1.24 1.22 -48.8 0 0 445.66 455.70
  Q 462.41 443.10 480.33 430.10
  Q 487.01 425.25 492.07 422.29
  A 0.79 0.78 71.4 0 0 492.45 421.52
  C 491.68 415.60 497.32 414.45 501.85 412.56
  A 2.10 2.09 86.0 0 0 503.08 411.14
  L 504.38 405.96
  A 1.31 1.30 30.8 0 0 504.07 404.76
  C 501.74 402.01 497.30 399.45 499.09 394.89
  C 499.62 393.54 501.21 392.20 502.18 390.94
  A 3.31 3.29 -19.1 0 0 502.79 389.69
  C 503.88 385.30 507.86 375.05 513.79 377.30
  A 2.29 2.23 -9.7 0 1 514.69 377.92
  Q 519.62 383.54 521.25 390.47
  A 3.97 3.95 -72.0 0 0 522.08 392.11
  L 524.81 395.29
  A 2.46 2.45 28.5 0 1 525.38 397.20
  Q 525.15 398.88 523.47 401.07
  Q 522.50 402.34 519.91 404.54
  A 1.92 1.90 61.1 0 0 519.33 406.58
  L 520.76 411.03
  A 2.69 2.65 15.8 0 0 521.30 411.98
  C 523.42 414.28 524.35 414.52 527.09 414.85
  C 530.37 415.25 531.66 418.12 531.02 421.28
  A 1.00 0.99 -79.4 0 0 531.81 422.45
  Q 532.99 422.67 534.06 423.42
  Q 555.99 438.76 576.83 455.74
  A 0.63 0.62 -37.9 0 0 577.48 455.82
  C 583.52 453.04 587.03 453.83 590.28 459.67
  A 1.65 1.62 -58.6 0 1 590.48 460.53
  L 590.23 467.17
  A 1.68 1.64 -23.0 0 1 589.78 468.25
  Q 589.00 469.20 585.50 472.76
  Q 584.09 474.21 582.04 474.51
  A 3.04 2.82 -1.2 0 0 579.50 476.97
  Q 579.09 480.21 578.75 481.49
  Q 574.55 497.46 569.38 520.30
  C 567.66 527.90 565.15 537.35 563.26 545.69
  C 560.93 555.93 557.17 568.34 554.72 580.44
  A 1.54 1.51 37.3 0 0 554.87 581.49
  Q 557.20 585.88 553.06 588.54
  Q 552.33 589.01 551.83 589.42
  A 0.89 0.88 65.7 0 0 551.51 590.28
  C 552.26 594.30 552.38 598.40 549.73 601.25
  Q 546.95 604.25 543.28 605.54
  Q 539.60 606.82 537.90 608.37
  A 1.78 1.75 66.8 0 0 537.33 609.82
  Q 537.78 615.23 534.06 618.99
  A 0.56 0.55 47.4 0 0 534.03 619.74
  Q 537.48 623.83 532.84 627.43
  A 2.57 2.55 -19.0 0 0 531.85 629.45
  L 531.85 912.40
  A 0.89 0.89 0.0 0 0 532.54 913.27
  C 537.22 914.41 538.16 920.39 541.22 922.84
  C 544.17 925.20 544.43 927.94 542.09 930.63
  Q 541.29 931.55 541.99 932.83
  A 1.58 1.52 30.8 0 1 542.18 933.53
  L 542.45 941.18
  A 1.19 1.18 -82.4 0 0 543.28 942.27
  C 547.26 943.54 551.39 945.93 552.08 950.12
  C 552.92 955.26 549.50 957.98 545.60 960.28
  A 1.68 1.67 -18.0 0 0 544.79 961.86
  L 552.27 1042.56
  A 0.36 0.36 0.0 0 0 552.34 1042.74
  Q 552.35 1042.75 553.96 1044.30
  C 556.86 1047.10 555.88 1050.58 555.93 1054.07
  A 0.74 0.73 4.3 0 0 556.55 1054.78
  C 562.11 1055.67 567.64 1059.46 567.78 1065.53
  Q 568.15 1081.00 568.59 1090.96
  A 2.89 2.77 -37.8 0 1 568.44 1091.98
  Q 566.97 1096.15 561.25 1096.16
  Q 493.22 1096.23 461.81 1096.12
  C 458.33 1096.11 455.94 1095.46 454.80 1092.24
  A 2.54 2.46 36.9 0 1 454.66 1091.36
  Q 455.05 1079.18 455.18 1065.77
  C 455.25 1059.20 460.94 1055.05 466.97 1054.83
  A 0.61 0.60 -4.4 0 0 467.55 1054.16
  C 467.00 1049.61 466.75 1046.96 470.63 1043.40
  A 3.51 3.50 -18.8 0 0 471.75 1041.13
  L 478.71 961.45
  A 1.35 1.34 -77.2 0 0 477.85 960.07
  Q 470.18 957.13 471.82 949.24
  C 472.59 945.57 477.41 943.11 480.72 942.12
  A 1.07 1.06 -8.5 0 0 481.48 941.10
  L 481.48 930.98
  A 0.35 0.33 -65.8 0 0 481.41 930.77
  Q 481.24 930.53 480.78 929.98
  C 478.57 927.37 480.02 924.36 482.99 923.57
  A 1.09 1.07 -0.1 0 0 483.77 922.80
  Q 485.51 915.96 491.31 912.62
  A 1.15 1.15 0.0 0 0 491.89 911.62
  Q 492.02 732.21 491.95 634.25
  Q 491.95 632.37 492.37 628.46
  A 1.00 0.99 -67.9 0 0 492.00 627.57
  Q 491.49 627.15 490.66 626.70
  C 487.79 625.15 488.56 621.64 490.73 619.82
  Z"
/>
<path stroke="#fdf2c9" stroke-width="2.00" fill="none" stroke-linecap="butt" vector-effect="non-scaling-stroke" d="
  M 532.49 532.85
  L 525.85 526.71
  A 0.57 0.57 0.0 0 0 525.08 526.70
  Q 522.49 529.01 519.54 531.79
  C 513.27 537.70 507.44 535.43 501.09 530.47
  Q 498.01 528.07 493.89 525.55
  A 6.65 0.50 45.2 0 1 490.52 522.63
  Q 488.62 520.80 489.42 523.18"
/>

<g fill="#fde795">
<path d="
  M 532.49 532.85
  L 525.85 526.71
  A 0.57 0.57 0.0 0 0 525.08 526.70
  Q 522.49 529.01 519.54 531.79
  C 513.27 537.70 507.44 535.43 501.09 530.47
  Q 498.01 528.07 493.89 525.55
  A 6.65 0.50 45.2 0 1 490.52 522.63
  Q 488.62 520.80 489.42 523.18
  Q 485.72 500.47 482.06 477.50
  Q 481.66 474.99 482.74 473.81
  Q 484.77 471.60 487.01 470.14
  A 1.09 1.03 27.1 0 1 487.59 469.97
  L 535.30 469.97
  A 1.18 1.16 63.4 0 1 536.02 470.22
  L 541.35 474.46
  A 1.21 1.21 0.0 0 1 541.80 475.50
  Q 541.47 479.74 540.98 482.50
  Q 536.56 507.58 532.49 532.85
  Z"
/>
<path d="
  M 472.14 473.28
  A 2.31 2.30 11.4 0 1 473.15 474.79
  C 475.02 484.84 476.31 495.60 477.90 504.70
  Q 480.67 520.60 481.40 525.34
  Q 487.61 565.26 488.75 574.00
  C 489.43 579.10 483.82 579.32 479.97 579.82
  Q 475.24 580.44 474.13 575.83
  C 469.76 557.63 465.89 540.64 461.15 522.04
  Q 455.58 500.21 450.32 477.18
  A 1.96 1.95 -27.3 0 1 450.93 475.28
  L 454.98 471.69
  A 1.47 1.46 22.3 0 1 455.87 471.32
  L 467.31 470.62
  A 1.93 1.88 59.0 0 1 468.46 470.92
  L 472.14 473.28
  Z"
/>
<path d="
  M 573.29 476.77
  Q 568.83 495.77 549.19 576.16
  C 548.21 580.14 542.99 579.86 539.77 579.46
  C 536.71 579.08 534.34 577.36 534.70 573.99
  Q 534.97 571.45 535.13 570.43
  Q 539.49 542.57 542.57 521.64
  C 544.76 506.74 548.60 486.02 550.39 475.42
  A 2.14 2.12 77.6 0 1 551.28 474.02
  L 555.41 471.13
  A 1.25 1.21 27.3 0 1 556.10 470.92
  L 566.75 471.20
  A 2.10 2.08 64.6 0 1 567.97 471.64
  L 572.86 475.53
  A 1.25 1.24 26.1 0 1 573.29 476.77
  Z"
/>
</g>
<g fill="#222b55">
<path d="
  M 510.02 383.70
  A 1.57 1.56 -44.2 0 1 512.85 383.74
  Q 515.90 390.45 516.49 396.42
  A 2.54 2.54 0.0 0 1 513.96 399.21
  L 507.16 399.21
  A 1.05 1.04 -88.0 0 1 506.12 398.09
  Q 506.72 390.39 510.02 383.70
  Z"
/>
<path d="
  M 509.52 413.27
  A 0.84 0.84 0.0 0 1 508.68 412.43
  L 508.68 411.69
  A 6.12 2.49 -90.0 0 1 511.17 405.57
  L 512.61 405.57
  A 6.12 2.49 -90.0 0 1 515.10 411.69
  L 515.10 412.43
  A 0.84 0.84 0.0 0 1 514.26 413.27
  L 509.52 413.27
  Z"
/>
<path d="
  M 519.31 426.34
  Q 528.69 437.24 536.81 449.95
  Q 537.62 451.22 538.02 452.47
  A 0.89 0.89 0.0 0 1 537.17 453.64
  L 486.78 453.64
  A 1.04 1.04 0.0 0 1 485.80 452.24
  C 486.67 449.86 487.99 447.76 490.46 445.51
  Q 492.13 444.00 493.40 441.90
  Q 498.22 433.91 503.20 426.50
  A 1.55 1.52 -72.7 0 1 504.47 425.82
  L 518.18 425.82
  A 1.51 1.48 69.3 0 1 519.31 426.34
  Z"
/>
<path d="
  M 493.43 428.34
  A 0.81 0.81 0.0 0 1 494.61 429.37
  Q 492.31 433.98 487.06 439.91
  C 483.59 443.81 481.41 447.62 479.29 451.43
  A 1.74 1.74 0.0 0 1 477.17 452.22
  C 473.11 450.74 470.42 452.58 467.18 454.81
  A 1.22 1.14 26.0 0 1 466.50 455.02
  L 458.74 455.02
  A 0.83 0.83 0.0 0 1 458.17 453.59
  C 460.75 451.15 465.20 449.30 467.32 447.10
  C 472.26 441.96 478.68 439.68 484.44 434.84
  Q 486.99 432.70 493.43 428.34
  Z"
/>
<path d="
  M 530.26 428.41
  C 534.14 429.54 537.78 432.58 541.14 434.77
  C 546.15 438.03 550.71 442.00 555.61 445.39
  A 10.73 10.57 -3.1 0 1 557.49 447.05
  Q 560.96 450.93 564.98 453.57
  A 0.45 0.45 0.0 0 1 564.78 454.39
  L 557.00 455.11
  A 3.69 3.68 -27.2 0 1 554.27 454.24
  Q 551.25 451.67 546.41 452.40
  A 1.58 1.56 65.3 0 1 544.98 451.86
  Q 540.45 446.54 536.99 442.26
  Q 535.66 440.62 530.96 432.54
  Q 529.35 429.76 529.58 428.80
  A 0.55 0.54 -74.6 0 1 530.26 428.41
  Z"
/>
<path d="
  M 528.65 606.60
  A 1.88 1.88 0.0 0 1 530.53 608.48
  L 530.53 608.88
  A 8.78 7.83 -90.0 0 1 522.70 617.66
  L 499.22 617.66
  A 8.78 7.83 -90.0 0 1 491.39 608.88
  L 491.39 608.48
  A 1.88 1.88 0.0 0 1 493.27 606.60
  L 528.65 606.60
  Z"
/>
<path d="
  M 499.05 630.62
  A 2.04 2.03 8.2 0 1 500.89 629.25
  Q 512.33 628.73 521.50 629.60
  C 524.41 629.88 525.30 633.38 525.34 636.25
  Q 525.50 647.49 525.50 647.50
  Q 525.54 682.92 525.54 854.75
  Q 525.54 901.88 525.45 906.25
  C 525.35 910.94 523.04 911.61 518.79 911.70
  Q 511.64 911.83 501.88 911.61
  A 2.13 2.01 57.6 0 1 500.98 911.38
  Q 498.68 910.20 498.49 907.28
  Q 498.19 902.83 498.20 899.50
  Q 498.39 779.77 498.31 635.50
  Q 498.31 632.80 499.05 630.62
  Z"
/>
<path d="
  M 533.83 922.69
  A 2.04 2.04 0.0 0 1 532.39 926.17
  L 492.76 926.17
  A 2.50 2.50 0.0 0 1 490.80 922.12
  L 492.09 920.50
  A 6.37 6.36 19.2 0 1 497.07 918.10
  L 526.47 918.10
  A 6.67 6.65 -22.4 0 1 531.19 920.06
  L 533.83 922.69
  Z"
/>
<path d="
  M 491.38 941.89
  A 2.57 2.57 0.0 0 1 488.80 939.32
  L 488.80 935.54
  A 5.02 4.31 -0.1 0 1 493.81 931.22
  L 530.29 931.16
  A 5.02 4.31 -0.1 0 1 535.32 935.46
  L 535.32 939.24
  A 2.57 2.57 0.0 0 1 532.76 941.81
  L 491.38 941.89
  Z"
/>
<path d="
  M 512.01 947.31
  C 522.78 947.33 531.98 947.14 539.70 947.43
  Q 542.41 947.54 545.47 950.96
  A 1.07 1.05 -60.7 0 1 545.72 951.87
  Q 544.92 956.26 540.99 956.28
  Q 526.38 956.34 511.99 956.32
  Q 497.60 956.29 482.99 956.19
  Q 479.06 956.15 478.28 951.76
  A 1.07 1.05 60.9 0 1 478.53 950.85
  Q 481.60 947.44 484.31 947.35
  C 492.03 947.08 501.24 947.30 512.01 947.31
  Z"
/>
<path d="
  M 535.73 1041.44
  L 488.24 1041.44
  A 1.94 1.93 61.9 0 1 487.16 1041.11
  Q 485.15 1039.78 485.15 1037.42
  Q 485.13 1031.67 485.75 1022.76
  Q 486.79 1007.81 489.10 981.09
  Q 489.28 978.90 489.37 971.64
  C 489.45 964.98 490.92 964.55 496.80 964.46
  Q 507.39 964.28 528.25 964.44
  Q 529.70 964.45 531.42 965.06
  A 1.26 1.26 0.0 0 1 532.19 965.83
  Q 532.97 968.01 533.08 969.92
  Q 534.11 987.95 536.91 1020.25
  Q 537.79 1030.37 537.65 1039.55
  A 1.92 1.92 0.0 0 1 535.73 1041.44
  Z"
/>
<path d="
  M 475.69 1055.58
  A 1.79 1.79 0.0 0 1 473.91 1053.78
  L 473.91 1051.86
  A 4.09 4.03 0.1 0 1 478.01 1047.84
  L 544.97 1047.96
  A 4.09 4.03 0.1 0 1 549.05 1052.00
  L 549.05 1053.92
  A 1.79 1.79 0.0 0 1 547.25 1055.70
  L 475.69 1055.58
  Z"
/>
<path d="
  M 469.58 1084.66
  A 1.58 1.57 -86.0 0 1 468.58 1083.50
  Q 467.23 1076.93 467.95 1070.72
  C 468.96 1062.09 475.32 1062.08 482.44 1062.14
  Q 513.11 1062.40 547.59 1062.30
  A 2.59 2.45 53.7 0 1 548.47 1062.46
  Q 553.44 1064.34 554.26 1069.31
  Q 555.22 1075.09 554.82 1083.38
  C 554.70 1085.87 553.13 1085.45 550.95 1085.45
  Q 532.33 1085.47 505.59 1085.08
  C 496.19 1084.95 483.81 1085.76 473.25 1085.36
  Q 471.26 1085.28 469.58 1084.66
  Z"
/>
</g>
<path fill="#fdfdfd" d="
  M 511.90 502.72
  A 2.05 2.05 0.0 0 1 513.70 503.58
  Q 516.07 506.92 516.80 511.38
  A 2.00 1.98 68.1 0 1 515.98 513.33
  Q 510.22 517.38 503.91 513.67
  A 1.02 1.01 15.1 0 1 503.42 512.82
  C 503.29 506.88 505.52 503.11 511.90 502.72
  Z"
/>
</svg>
