<?xml version="1.0" encoding="UTF-8" standalone="no"?>
<!DOCTYPE svg PUBLIC "-//W3C//DTD SVG 1.1//EN" "http://www.w3.org/Graphics/SVG/1.1/DTD/svg11.dtd">
<svg xmlns="http://www.w3.org/2000/svg" version="1.1" viewBox="0.00 0.00 1536.00 1024.00">
<path fill="#fefdfd" d="
  M 1536.00 0.00
  L 1536.00 1024.00
  L 0.00 1024.00
  L 0.00 0.00
  L 1536.00 0.00
  Z"
/>
<path fill="#171b2d" d="
  M 618.62 398.74
  Q 629.41 387.40 643.06 381.56
  Q 646.45 380.11 653.63 377.77
  C 667.36 373.30 682.21 374.86 693.90 383.21
  A 0.97 0.97 0.0 0 0 694.73 383.35
  Q 707.00 379.78 717.24 386.98
  C 719.10 388.29 720.69 390.31 722.25 392.30
  A 1.18 1.17 68.7 0 0 723.27 392.75
  Q 727.91 392.42 731.36 393.34
  A 0.65 0.64 -69.9 0 0 732.11 392.99
  Q 735.78 385.36 740.84 382.34
  Q 752.19 375.55 765.43 381.65
  A 0.82 0.82 0.0 0 0 766.19 381.61
  Q 771.36 378.51 774.24 377.50
  C 782.34 374.66 793.03 375.33 799.46 381.61
  A 0.52 0.52 0.0 0 0 800.26 381.52
  C 807.47 370.34 820.48 364.87 833.37 368.42
  A 2.88 2.85 47.4 0 0 834.62 368.48
  L 841.98 367.17
  A 1.82 1.80 45.4 0 1 842.66 367.18
  C 845.53 367.76 848.02 367.62 850.59 368.35
  Q 860.21 371.07 865.92 377.14
  Q 871.02 382.55 871.29 382.75
  A 4.48 4.40 8.0 0 1 872.75 384.65
  L 873.28 385.95
  A 0.86 0.86 0.0 0 0 874.23 386.46
  Q 885.33 384.35 895.04 389.70
  Q 900.36 392.64 901.39 393.17
  A 0.85 0.84 40.2 0 0 902.28 393.10
  C 909.12 387.93 916.70 384.76 924.97 387.37
  Q 932.59 389.76 937.47 396.32
  A 1.23 1.22 -23.8 0 0 938.69 396.79
  Q 946.08 395.30 953.49 397.37
  A 0.58 0.57 15.8 0 0 954.19 396.99
  C 956.99 388.02 964.93 381.50 973.75 378.72
  Q 987.41 374.41 999.90 381.13
  A 1.12 1.12 0.0 0 0 1000.95 381.15
  C 1014.67 374.16 1029.88 378.42 1039.35 389.57
  Q 1046.28 397.73 1045.57 408.13
  A 0.60 0.60 0.0 0 0 1046.40 408.72
  C 1056.93 404.28 1067.98 405.76 1075.66 414.40
  C 1081.57 421.04 1082.99 429.54 1081.06 437.97
  A 0.58 0.58 0.0 0 0 1081.49 438.66
  Q 1090.18 440.75 1095.82 445.91
  Q 1107.16 456.28 1103.13 471.84
  Q 1102.20 475.43 1097.63 481.95
  A 1.29 1.29 0.0 0 0 1097.39 482.73
  Q 1097.77 495.14 1094.94 507.18
  C 1092.50 517.57 1087.24 524.80 1079.06 530.54
  A 1.59 1.57 -12.3 0 0 1078.41 531.54
  Q 1068.46 581.75 1065.80 593.53
  Q 1062.47 608.28 1061.93 612.38
  Q 1061.19 618.08 1059.34 621.09
  Q 1055.31 627.63 1048.72 630.19
  Q 1045.21 631.56 1037.10 631.56
  Q 758.90 631.55 498.38 631.54
  Q 490.15 631.54 486.81 630.19
  Q 480.58 627.69 476.74 621.61
  Q 474.69 618.38 473.82 611.61
  Q 473.17 606.57 468.45 585.29
  Q 466.63 577.07 457.66 531.60
  A 1.36 1.34 11.4 0 0 457.09 530.75
  Q 445.39 522.87 441.54 509.75
  Q 437.86 497.20 438.60 482.74
  A 1.50 1.48 31.0 0 0 438.37 481.85
  C 437.28 480.13 435.82 478.36 435.04 476.91
  Q 429.15 465.85 433.23 454.82
  C 437.62 442.98 449.65 438.43 461.21 437.21
  A 0.44 0.44 0.0 0 0 461.59 436.84
  Q 461.62 436.64 461.31 436.21
  Q 461.13 435.97 461.11 435.75
  Q 460.40 428.77 460.49 426.74
  C 461.30 406.89 478.85 398.39 496.47 405.07
  A 0.70 0.69 26.5 0 0 497.30 404.80
  Q 502.83 396.07 509.49 391.59
  Q 522.63 382.75 537.83 388.45
  A 0.75 0.74 33.8 0 0 538.61 388.30
  Q 555.24 372.63 576.73 381.08
  A 1.47 1.44 -44.0 0 0 577.76 381.09
  C 584.14 378.77 591.10 378.11 597.70 380.41
  Q 611.48 385.21 618.24 398.68
  A 0.24 0.23 53.7 0 0 618.62 398.74
  Z"
/>
<g stroke-width="2.00" fill="none" stroke-linecap="butt">
<path stroke="#feef99" vector-effect="non-scaling-stroke" d="
  M 826.24 380.89
  L 828.95 383.44
  A 0.30 0.29 -28.6 0 1 828.80 383.94
  Q 824.29 384.81 820.40 386.97
  C 818.06 388.26 816.11 391.50 814.51 393.72
  Q 813.56 395.05 810.90 396.45"
/>
<path stroke="#feef99" vector-effect="non-scaling-stroke" d="
  M 835.27 388.66
  L 855.01 384.26"
/>
<path stroke="#49990d" vector-effect="non-scaling-stroke" d="
  M 676.16 389.16
  C 672.11 397.00 662.78 404.14 653.96 398.24
  A 2.68 2.54 -20.0 0 0 653.08 397.86
  Q 650.95 397.34 647.95 396.53
  Q 645.55 395.89 646.73 394.43"
/>
<path stroke="#a38014" vector-effect="non-scaling-stroke" d="
  M 633.80 403.35
  L 630.40 407.51
  A 0.98 0.98 0.0 0 0 631.01 409.10
  Q 631.87 409.23 632.78 408.72
  Q 633.35 408.40 634.39 408.59
  Q 635.19 408.73 636.47 408.07
  Q 644.66 403.81 650.19 401.74
  Q 651.60 401.21 653.61 399.81
  A 0.82 0.82 0.0 0 0 653.38 398.35
  Q 647.11 396.38 640.81 398.11
  A 2.87 2.77 18.1 0 0 639.88 398.56
  L 634.14 402.84"
/>
<path stroke="#eeb12a" vector-effect="non-scaling-stroke" d="
  M 777.49 430.42
  L 774.27 425.57
  A 0.91 0.91 0.0 0 0 773.60 425.17
  L 768.91 424.73
  A 0.79 0.78 -83.5 0 0 768.06 425.41
  Q 767.29 431.09 763.77 430.61"
/>
<path stroke="#7b8716" vector-effect="non-scaling-stroke" d="
  M 775.81 431.49
  L 769.73 432.83"
/>
<path stroke="#b3550a" vector-effect="non-scaling-stroke" d="
  M 894.09 415.48
  C 885.82 415.69 880.43 414.85 875.36 408.54
  A 7.09 6.92 16.3 0 1 874.26 406.59
  L 872.72 402.38"
/>
<path stroke="#20a00f" vector-effect="non-scaling-stroke" d="
  M 533.02 447.74
  L 535.66 452.88
  A 0.57 0.57 0.0 0 1 535.47 453.62
  Q 529.09 457.86 521.63 459.91
  Q 520.03 460.35 517.15 463.78
  A 0.82 0.81 -64.5 0 1 516.37 464.06
  C 507.76 462.54 500.32 455.15 491.70 463.59"
/>
<path stroke="#20a00f" vector-effect="non-scaling-stroke" d="
  M 483.57 447.32
  Q 485.71 442.30 489.91 439.41
  Q 492.30 437.77 498.13 436.29
  Q 502.40 435.20 506.68 433.98"
/>
<path stroke="#49990d" vector-effect="non-scaling-stroke" d="
  M 932.98 431.89
  Q 934.84 428.60 937.51 425.93
  Q 940.53 422.90 941.00 421.64
  Q 942.59 417.34 941.64 412.73
  A 1.30 1.28 84.2 0 0 940.38 411.69
  L 934.81 411.69"
/>
<path stroke="#a38014" vector-effect="non-scaling-stroke" d="
  M 929.16 428.29
  L 939.18 424.11
  A 1.40 1.40 0.0 0 0 940.04 422.95
  L 940.84 414.40
  A 0.94 0.94 0.0 0 0 939.91 413.37
  L 932.73 413.26"
/>
<path stroke="#20a00f" vector-effect="non-scaling-stroke" d="
  M 1057.81 451.93
  Q 1054.60 449.30 1053.61 445.28
  A 0.46 0.46 0.0 0 0 1053.04 444.95
  L 1041.81 448.06"
/>
<path stroke="#20a00f" vector-effect="non-scaling-stroke" d="
  M 1090.34 459.63
  C 1083.45 466.35 1074.94 464.42 1066.26 463.18
  Q 1062.75 462.68 1060.79 459.66
  A 0.08 0.07 52.5 0 0 1060.68 459.64
  Q 1060.62 459.69 1060.43 459.75
  A 0.18 0.18 0.0 0 1 1060.20 459.56
  L 1060.23 459.16
  A 0.02 0.02 0.0 0 0 1060.20 459.14
  C 1056.27 461.46 1052.17 461.60 1047.72 460.91"
/>
<path stroke="#92af28" vector-effect="non-scaling-stroke" d="
  M 1047.72 460.91
  L 1051.23 458.01
  A 1.32 1.29 -15.6 0 0 1051.68 457.23
  Q 1051.90 455.95 1052.39 454.38
  A 1.19 1.05 -79.2 0 0 1051.48 452.84
  Q 1051.06 452.82 1050.48 453.05
  Q 1049.02 453.64 1044.39 456.15
  Q 1041.35 457.80 1041.97 460.99"
/>
<path stroke="#20a00f" vector-effect="non-scaling-stroke" d="
  M 1041.97 460.99
  L 1038.94 450.26"
/>
<path stroke="#8a9c26" vector-effect="non-scaling-stroke" d="
  M 1041.97 460.99
  C 1043.49 462.18 1045.94 461.45 1047.72 460.91"
/>
<path stroke="#41860b" vector-effect="non-scaling-stroke" d="
  M 835.32 447.13
  L 839.66 451.92"
/>
<path stroke="#7b8716" vector-effect="non-scaling-stroke" d="
  M 839.66 451.92
  Q 840.58 455.31 843.19 455.62
  Q 845.42 455.88 846.20 456.20"
/>
<path stroke="#20a00f" vector-effect="non-scaling-stroke" d="
  M 846.20 456.20
  Q 862.40 462.07 868.13 445.38"
/>
<path stroke="#839a17" vector-effect="non-scaling-stroke" d="
  M 846.20 456.20
  Q 848.30 453.98 847.00 449.76
  Q 846.47 448.05 843.79 448.48"
/>
<path stroke="#49990d" vector-effect="non-scaling-stroke" d="
  M 843.79 448.48
  L 837.96 442.35"
/>
<path stroke="#a38014" vector-effect="non-scaling-stroke" d="
  M 843.79 448.48
  Q 840.38 448.69 839.66 451.92"
/>
<path stroke="#20a00f" vector-effect="non-scaling-stroke" d="
  M 765.83 453.19
  C 761.16 457.28 751.65 462.56 745.29 460.53
  Q 737.57 458.07 730.67 458.63"
/>
<path stroke="#20a00f" vector-effect="non-scaling-stroke" d="
  M 961.43 455.63
  Q 948.21 461.85 933.80 459.25"
/>
<path stroke="#20a00f" vector-effect="non-scaling-stroke" d="
  M 478.29 461.76
  Q 477.48 462.68 475.69 461.67"
/>
<path stroke="#839a17" vector-effect="non-scaling-stroke" d="
  M 475.69 461.67
  Q 476.20 461.67 476.17 461.33
  Q 476.10 460.66 475.34 460.40
  C 470.76 458.81 468.04 458.02 462.93 457.53
  A 1.16 1.16 0.0 0 0 461.95 459.46
  L 463.50 461.22
  A 2.10 2.10 0.0 0 0 465.03 461.93
  L 470.71 462.06"
/>
<path stroke="#20a00f" vector-effect="non-scaling-stroke" d="
  M 470.71 462.06
  Q 465.75 462.21 460.88 463.10
  C 458.45 463.54 450.20 463.49 446.33 461.62
  A 1.02 1.01 -81.8 0 1 445.76 460.85
  L 445.46 458.74"
/>
<path stroke="#7b8716" vector-effect="non-scaling-stroke" d="
  M 475.69 461.67
  Q 473.22 461.43 470.71 462.06"
/>
<path stroke="#ec962f" vector-effect="non-scaling-stroke" d="
  M 1079.74 495.92
  L 1075.98 496.57
  A 2.14 1.94 -60.3 0 0 1075.40 496.76
  C 1070.57 499.16 1066.10 501.79 1061.97 502.15
  C 1052.74 502.97 1043.54 502.50 1034.31 502.72
  Q 1022.09 503.01 1016.18 502.86
  C 1000.39 502.48 990.64 502.21 976.27 502.56
  Q 949.47 503.20 923.74 502.81
  Q 903.07 502.50 892.41 502.66
  Q 872.16 502.95 861.10 502.62
  C 847.67 502.23 832.41 503.00 817.97 502.86
  Q 785.48 502.55 753.00 502.65
  Q 721.39 502.75 701.50 502.94
  Q 682.56 503.12 640.50 502.35
  Q 633.88 502.22 618.75 502.59
  C 604.77 502.94 590.38 503.04 575.42 502.62
  C 564.71 502.32 553.75 502.72 541.54 502.61
  Q 523.30 502.44 512.78 502.67
  C 501.30 502.92 492.08 502.61 479.65 502.67
  C 472.34 502.71 468.06 501.58 463.01 497.06
  Q 461.49 495.70 458.73 494.60
  Q 458.69 494.58 457.25 494.56
  Q 456.32 494.54 455.64 492.98"
/>
</g>
<g fill="#fefdfd">
<path d="
  M 826.24 380.89
  L 828.95 383.44
  A 0.30 0.29 -28.6 0 1 828.80 383.94
  Q 824.29 384.81 820.40 386.97
  C 818.06 388.26 816.11 391.50 814.51 393.72
  Q 813.56 395.05 810.90 396.45
  C 808.12 387.02 817.30 379.80 826.24 380.89
  Z"
/>
<path d="
  M 855.01 384.26
  L 835.27 388.66
  Q 838.48 382.91 842.39 381.90
  Q 848.74 380.26 855.01 384.26
  Z"
/>
<path d="
  M 602.25 417.73
  A 0.50 0.50 0.0 0 0 602.48 418.51
  Q 603.94 419.02 606.37 419.94
  C 614.71 423.09 616.99 433.05 612.34 440.20
  Q 607.31 447.91 597.19 445.94
  A 0.45 0.44 1.0 0 0 596.67 446.44
  C 597.72 453.26 597.12 459.10 590.63 462.59
  C 579.57 468.56 568.09 464.61 566.00 451.78
  A 0.65 0.65 0.0 0 0 564.98 451.36
  Q 559.51 455.29 552.73 455.13
  C 547.71 455.02 544.73 452.97 542.97 448.35
  C 541.76 445.18 538.72 442.91 537.36 439.76
  C 533.77 431.41 539.29 421.90 548.21 420.84
  A 0.53 0.53 0.0 0 0 548.56 419.98
  C 546.24 417.02 544.20 414.18 543.65 410.61
  C 542.46 402.81 547.73 396.05 554.94 393.64
  Q 564.07 390.59 570.46 397.12
  C 572.04 398.74 572.74 400.39 573.59 402.41
  A 0.60 0.59 -45.5 0 0 574.69 402.40
  Q 577.10 396.48 582.81 394.15
  C 597.11 388.33 613.25 403.78 602.25 417.73
  Z"
/>
</g>
<path fill="#c05b09" d="
  M 894.09 415.48
  C 885.82 415.69 880.43 414.85 875.36 408.54
  A 7.09 6.92 16.3 0 1 874.26 406.59
  L 872.72 402.38
  Q 877.46 398.31 882.11 399.13
  Q 889.52 400.42 894.68 405.45
  C 896.51 407.23 898.31 408.75 898.75 411.58
  A 1.79 1.79 0.0 0 1 898.12 413.24
  Q 896.44 414.62 894.09 415.48
  Z"
/>
<g fill="#188d0d">
<path d="
  M 506.68 433.98
  Q 502.40 435.20 498.13 436.29
  Q 492.30 437.77 489.91 439.41
  Q 485.71 442.30 483.57 447.32
  C 475.00 441.43 473.02 431.90 475.03 422.32
  C 476.33 416.14 482.46 415.58 487.95 416.07
  Q 496.44 416.84 500.86 423.86
  Q 503.77 428.48 506.68 433.98
  Z"
/>
<path d="
  M 1057.81 451.93
  Q 1054.60 449.30 1053.61 445.28
  A 0.46 0.46 0.0 0 0 1053.04 444.95
  L 1041.81 448.06
  Q 1047.97 437.59 1044.85 425.87
  A 2.56 2.56 0.0 0 1 1045.58 423.33
  C 1050.00 419.27 1059.35 416.86 1064.27 421.66
  Q 1067.35 424.68 1067.67 429.14
  Q 1068.55 441.56 1057.93 450.25
  A 0.81 0.77 -11.3 0 0 1057.71 450.56
  Q 1057.48 451.28 1057.81 451.93
  Z"
/>
<path d="
  M 835.32 447.13
  L 839.66 451.92
  Q 840.58 455.31 843.19 455.62
  Q 845.42 455.88 846.20 456.20
  Q 862.40 462.07 868.13 445.38
  Q 870.54 448.50 871.11 452.56
  Q 871.69 456.70 870.06 459.88
  Q 865.03 469.76 854.81 470.78
  C 846.53 471.61 837.81 469.07 833.60 461.68
  Q 832.18 459.18 831.37 457.80
  A 1.09 1.09 0.0 0 0 829.34 458.27
  Q 828.95 463.58 824.20 466.40
  Q 818.96 469.52 812.40 466.73
  C 805.33 463.72 799.78 454.70 801.71 446.70
  Q 804.55 434.92 816.19 435.12
  C 821.25 435.20 824.91 438.54 826.60 443.01
  Q 827.64 445.76 827.93 446.77
  A 0.50 0.50 0.0 0 0 828.88 446.81
  Q 829.26 445.84 829.31 444.25
  Q 829.40 441.54 829.33 431.30
  A 2.04 2.04 0.0 0 1 831.37 429.25
  L 831.69 429.25
  A 1.83 1.83 0.0 0 1 833.52 431.08
  Q 833.50 438.33 833.50 445.45
  Q 833.50 446.36 834.01 447.01
  Q 834.43 447.54 835.32 447.13
  Z"
/>
<path d="
  M 775.81 431.49
  Q 776.54 443.57 776.53 459.26
  Q 776.53 463.64 775.48 467.39
  A 1.31 1.29 84.1 0 1 774.84 468.19
  Q 773.65 468.83 772.26 467.91
  A 0.99 0.98 -75.4 0 1 771.81 467.14
  Q 770.98 455.75 771.24 443.50
  Q 771.35 437.83 769.73 432.83
  L 775.81 431.49
  Z"
/>
<path d="
  M 790.47 460.48
  L 779.98 463.23
  A 0.75 0.75 0.0 0 1 779.07 462.29
  Q 781.63 453.55 787.72 447.24
  A 1.35 1.35 0.0 0 1 790.03 448.02
  C 790.50 451.79 791.92 456.22 791.00 459.94
  A 0.75 0.74 -89.8 0 1 790.47 460.48
  Z"
/>
<path d="
  M 491.70 463.59
  C 500.32 455.15 507.76 462.54 516.37 464.06
  A 0.82 0.81 -64.5 0 0 517.15 463.78
  Q 520.03 460.35 521.63 459.91
  Q 529.09 457.86 535.47 453.62
  A 0.57 0.57 0.0 0 0 535.66 452.88
  L 533.02 447.74
  L 536.68 452.17
  A 2.79 2.71 23.4 0 1 537.29 453.64
  C 538.00 460.82 530.92 466.29 524.78 468.53
  Q 517.29 471.26 509.43 470.51
  Q 504.85 470.07 500.45 466.92
  A 4.57 4.42 -16.2 0 0 499.39 466.36
  L 491.70 463.59
  Z"
/>
<path d="
  M 1038.94 450.26
  L 1041.97 460.99
  C 1043.49 462.18 1045.94 461.45 1047.72 460.91
  C 1052.17 461.60 1056.27 461.46 1060.20 459.14
  A 0.02 0.02 0.0 0 1 1060.23 459.16
  L 1060.20 459.56
  A 0.18 0.18 0.0 0 0 1060.43 459.75
  Q 1060.62 459.69 1060.68 459.64
  A 0.08 0.07 52.5 0 1 1060.79 459.66
  Q 1062.75 462.68 1066.26 463.18
  C 1074.94 464.42 1083.45 466.35 1090.34 459.63
  Q 1093.33 474.44 1079.02 476.04
  Q 1074.05 476.60 1068.80 474.81
  C 1064.59 473.37 1059.62 469.52 1056.84 467.57
  A 1.87 1.86 48.4 0 0 1054.89 467.45
  Q 1051.63 469.20 1047.56 469.89
  C 1041.14 470.99 1035.61 471.17 1030.70 466.43
  A 2.47 2.46 32.2 0 1 1030.10 463.80
  L 1033.69 454.02
  A 3.03 3.00 -4.9 0 1 1035.05 452.42
  L 1038.94 450.26
  Z"
/>
<path d="
  M 730.67 458.63
  Q 737.57 458.07 745.29 460.53
  C 751.65 462.56 761.16 457.28 765.83 453.19
  Q 767.69 458.48 764.69 462.68
  C 757.55 472.67 744.46 473.95 734.73 466.79
  Q 730.28 463.51 730.67 458.63
  Z"
/>
<path d="
  M 961.43 455.63
  Q 962.10 462.58 956.29 467.04
  C 948.26 473.20 937.86 471.24 930.34 465.47
  A 1.72 1.71 41.4 0 1 930.17 462.89
  L 933.80 459.25
  Q 948.21 461.85 961.43 455.63
  Z"
/>
<path d="
  M 445.46 458.74
  L 445.76 460.85
  A 1.02 1.01 -81.8 0 0 446.33 461.62
  C 450.20 463.49 458.45 463.54 460.88 463.10
  Q 465.75 462.21 470.71 462.06
  Q 473.22 461.43 475.69 461.67
  Q 477.48 462.68 478.29 461.76
  L 481.68 465.87
  A 0.47 0.47 0.0 0 1 481.59 466.55
  Q 472.89 472.60 464.37 475.03
  C 456.85 477.19 452.34 475.79 447.30 470.25
  Q 443.34 465.89 445.46 458.74
  Z"
/>
<path d="
  M 703.78 463.55
  A 0.62 0.62 0.0 0 1 704.38 464.19
  L 704.18 472.31
  A 2.45 1.87 -88.6 0 1 702.25 474.72
  L 701.51 474.70
  A 2.45 1.87 -88.6 0 1 699.70 472.20
  L 699.90 464.08
  A 0.62 0.62 0.0 0 1 700.54 463.47
  L 703.78 463.55
  Z"
/>
</g>
<g fill="#fee135">
<path d="
  M 826.24 380.89
  Q 831.85 381.76 835.27 388.66
  L 855.01 384.26
  C 860.26 388.10 863.06 395.57 857.31 400.29
  A 0.44 0.43 42.8 0 0 857.34 400.98
  C 864.61 406.03 862.64 414.86 855.30 418.68
  A 2.31 2.28 30.7 0 1 854.30 418.93
  Q 851.48 419.00 849.53 420.39
  C 847.95 421.51 846.51 421.38 845.00 420.59
  A 0.54 0.54 0.0 0 0 844.21 421.03
  C 844.00 424.66 841.19 425.75 837.71 426.65
  C 831.06 428.37 825.36 426.08 824.23 418.80
  A 0.52 0.51 -13.0 0 0 823.56 418.39
  Q 813.78 421.61 809.19 414.73
  C 806.15 410.20 806.27 404.12 810.88 400.91
  Q 811.91 400.20 812.20 399.90
  A 0.68 0.67 -36.9 0 0 812.32 399.10
  L 810.90 396.45
  Q 813.56 395.05 814.51 393.72
  C 816.11 391.50 818.06 388.26 820.40 386.97
  Q 824.29 384.81 828.80 383.94
  A 0.30 0.29 -28.6 0 0 828.95 383.44
  L 826.24 380.89
  Z"
/>
<path d="
  M 777.49 430.42
  L 774.27 425.57
  A 0.91 0.91 0.0 0 0 773.60 425.17
  L 768.91 424.73
  A 0.79 0.78 -83.5 0 0 768.06 425.41
  Q 767.29 431.09 763.77 430.61
  Q 755.50 431.90 752.00 426.28
  Q 749.54 422.34 748.93 421.55
  Q 746.06 417.85 745.83 417.03
  Q 744.32 411.61 749.23 409.02
  A 0.48 0.48 0.0 0 0 749.30 408.21
  C 746.92 406.34 744.95 404.59 744.69 401.56
  C 744.37 397.84 747.28 394.23 750.89 393.10
  Q 752.96 392.46 756.09 393.15
  Q 762.34 394.52 765.15 400.49
  A 0.45 0.45 0.0 0 0 766.00 400.39
  Q 766.67 397.06 770.02 396.70
  A 1.41 1.39 17.6 0 0 770.89 396.26
  Q 772.47 394.57 773.14 393.89
  Q 778.58 388.36 785.36 389.50
  Q 789.35 390.17 790.58 395.45
  A 2.39 2.38 -43.2 0 1 790.54 396.70
  L 788.71 402.69
  A 2.20 2.19 -12.5 0 1 788.05 403.72
  L 784.47 406.88
  A 0.68 0.67 25.5 0 0 784.89 408.06
  L 788.90 408.24
  A 1.50 1.44 59.4 0 1 789.58 408.43
  C 799.49 414.00 798.71 428.25 785.12 427.74
  A 1.32 1.30 -67.5 0 0 784.11 428.17
  Q 781.61 430.96 777.49 430.42
  Z"
/>
<path d="
  M 1027.71 419.01
  C 1034.95 421.21 1041.16 428.38 1039.43 436.19
  C 1037.78 443.66 1033.34 446.71 1025.44 447.11
  A 0.52 0.52 0.0 0 0 1024.98 447.78
  C 1026.25 451.81 1025.38 456.93 1022.19 459.96
  C 1014.25 467.50 1001.53 466.63 996.70 456.06
  A 0.60 0.59 49.3 0 0 995.66 455.98
  Q 994.31 458.07 992.16 459.21
  C 981.40 464.92 968.92 460.82 969.54 447.04
  A 0.70 0.69 4.9 0 0 968.93 446.32
  C 960.63 445.30 956.83 438.13 957.43 430.30
  C 957.91 424.08 964.03 419.52 969.78 418.39
  A 0.61 0.60 -24.7 0 0 970.14 417.42
  C 962.42 407.58 967.13 394.19 979.26 391.54
  Q 992.47 388.65 998.31 401.28
  A 0.37 0.36 46.3 0 0 998.97 401.30
  C 1004.42 390.54 1017.12 388.34 1026.16 395.96
  C 1032.97 401.71 1033.70 411.95 1027.53 418.31
  A 0.42 0.42 0.0 0 0 1027.71 419.01
  Z"
/>
</g>
<g fill="#dd811e">
<path d="
  M 633.80 403.35
  Q 633.73 403.10 634.14 402.84
  L 639.88 398.56
  A 2.87 2.77 18.1 0 1 640.81 398.11
  Q 647.11 396.38 653.38 398.35
  A 0.82 0.82 0.0 0 1 653.61 399.81
  Q 651.60 401.21 650.19 401.74
  Q 644.66 403.81 636.47 408.07
  Q 635.19 408.73 634.39 408.59
  Q 633.35 408.40 632.78 408.72
  Q 631.87 409.23 631.01 409.10
  A 0.98 0.98 0.0 0 1 630.40 407.51
  L 633.80 403.35
  Z"
/>
<path d="
  M 929.16 428.29
  Q 926.96 427.16 926.02 425.73
  A 2.66 2.66 0.0 0 1 926.07 422.74
  L 932.73 413.26
  L 939.91 413.37
  A 0.94 0.94 0.0 0 1 940.84 414.40
  L 940.04 422.95
  A 1.40 1.40 0.0 0 1 939.18 424.11
  L 929.16 428.29
  Z"
/>
<path d="
  M 777.49 430.42
  Q 775.71 430.59 775.81 431.49
  L 769.73 432.83
  L 763.77 430.61
  Q 767.29 431.09 768.06 425.41
  A 0.79 0.78 -83.5 0 1 768.91 424.73
  L 773.60 425.17
  A 0.91 0.91 0.0 0 1 774.27 425.57
  L 777.49 430.42
  Z"
/>
<path d="
  M 843.79 448.48
  Q 846.47 448.05 847.00 449.76
  Q 848.30 453.98 846.20 456.20
  Q 845.42 455.88 843.19 455.62
  Q 840.58 455.31 839.66 451.92
  Q 840.38 448.69 843.79 448.48
  Z"
/>
<path d="
  M 475.69 461.67
  Q 473.22 461.43 470.71 462.06
  L 465.03 461.93
  A 2.10 2.10 0.0 0 1 463.50 461.22
  L 461.95 459.46
  A 1.16 1.16 0.0 0 1 462.93 457.53
  C 468.04 458.02 470.76 458.81 475.34 460.40
  Q 476.10 460.66 476.17 461.33
  Q 476.20 461.67 475.69 461.67
  Z"
/>
<path d="
  M 1079.74 495.92
  Q 1079.23 499.50 1078.49 503.31
  Q 1077.59 507.94 1076.10 510.34
  Q 1071.47 517.79 1062.98 520.48
  Q 1059.06 521.73 1052.25 521.73
  Q 767.75 521.78 483.25 521.71
  Q 479.05 521.71 475.60 521.34
  C 468.22 520.56 460.62 514.32 458.32 506.95
  Q 457.14 503.15 455.64 492.98
  Q 456.32 494.54 457.25 494.56
  Q 458.69 494.58 458.73 494.60
  Q 461.49 495.70 463.01 497.06
  C 468.06 501.58 472.34 502.71 479.65 502.67
  C 492.08 502.61 501.30 502.92 512.78 502.67
  Q 523.30 502.44 541.54 502.61
  C 553.75 502.72 564.71 502.32 575.42 502.62
  C 590.38 503.04 604.77 502.94 618.75 502.59
  Q 633.88 502.22 640.50 502.35
  Q 682.56 503.12 701.50 502.94
  Q 721.39 502.75 753.00 502.65
  Q 785.48 502.55 817.97 502.86
  C 832.41 503.00 847.67 502.23 861.10 502.62
  Q 872.16 502.95 892.41 502.66
  Q 903.07 502.50 923.74 502.81
  Q 949.47 503.20 976.27 502.56
  C 990.64 502.21 1000.39 502.48 1016.18 502.86
  Q 1022.09 503.01 1034.31 502.72
  C 1043.54 502.50 1052.74 502.97 1061.97 502.15
  C 1066.10 501.79 1070.57 499.16 1075.40 496.76
  A 2.14 1.94 -60.3 0 1 1075.98 496.57
  L 1079.74 495.92
  Z"
/>
</g>
<path fill="#3692f9" d="
  M 915.47 434.23
  Q 918.65 432.50 920.77 432.77
  A 3.23 2.73 -25.8 0 1 921.51 432.96
  Q 923.03 433.56 926.72 436.13
  C 930.87 439.02 931.32 444.50 929.57 448.79
  A 3.33 3.22 -34.2 0 0 929.32 449.99
  Q 929.23 453.79 928.99 454.44
  Q 925.90 462.58 917.70 460.48
  A 0.92 0.91 14.8 0 0 916.60 461.11
  Q 915.05 466.62 910.24 468.14
  C 903.42 470.30 894.86 468.77 895.13 459.75
  A 0.75 0.75 0.0 0 0 894.02 459.07
  C 890.22 461.15 884.69 461.34 881.97 457.30
  C 876.67 449.42 874.85 436.16 886.47 432.97
  C 888.00 432.55 890.31 433.07 891.97 432.93
  A 0.84 0.82 -83.9 0 0 892.71 432.32
  Q 894.37 426.25 895.41 425.07
  C 902.44 417.09 917.94 421.80 914.88 433.77
  A 0.41 0.41 0.0 0 0 915.47 434.23
  Z"
/>
<g fill="#fbab3f">
<path d="
  M 1047.72 460.91
  C 1045.94 461.45 1043.49 462.18 1041.97 460.99
  Q 1041.35 457.80 1044.39 456.15
  Q 1049.02 453.64 1050.48 453.05
  Q 1051.06 452.82 1051.48 452.84
  A 1.19 1.05 -79.2 0 1 1052.39 454.38
  Q 1051.90 455.95 1051.68 457.23
  A 1.32 1.29 -15.6 0 1 1051.23 458.01
  L 1047.72 460.91
  Z"
/>
<path d="
  M 1079.74 495.92
  L 1075.98 496.57
  A 2.14 1.94 -60.3 0 0 1075.40 496.76
  C 1070.57 499.16 1066.10 501.79 1061.97 502.15
  C 1052.74 502.97 1043.54 502.50 1034.31 502.72
  Q 1022.09 503.01 1016.18 502.86
  C 1000.39 502.48 990.64 502.21 976.27 502.56
  Q 949.47 503.20 923.74 502.81
  Q 903.07 502.50 892.41 502.66
  Q 872.16 502.95 861.10 502.62
  C 847.67 502.23 832.41 503.00 817.97 502.86
  Q 785.48 502.55 753.00 502.65
  Q 721.39 502.75 701.50 502.94
  Q 682.56 503.12 640.50 502.35
  Q 633.88 502.22 618.75 502.59
  C 604.77 502.94 590.38 503.04 575.42 502.62
  C 564.71 502.32 553.75 502.72 541.54 502.61
  Q 523.30 502.44 512.78 502.67
  C 501.30 502.92 492.08 502.61 479.65 502.67
  C 472.34 502.71 468.06 501.58 463.01 497.06
  Q 461.49 495.70 458.73 494.60
  Q 458.69 494.58 457.25 494.56
  Q 456.32 494.54 455.64 492.98
  L 455.42 489.05
  A 1.39 1.38 89.0 0 1 456.83 487.59
  Q 465.86 487.80 474.00 487.81
  Q 570.02 487.89 599.25 488.07
  Q 603.17 488.10 605.75 488.07
  Q 633.59 487.83 669.75 487.87
  Q 722.98 487.93 774.82 488.09
  Q 795.28 488.15 815.75 488.12
  Q 893.62 488.01 922.25 487.85
  Q 957.97 487.65 993.27 487.95
  Q 1004.40 488.04 1023.27 487.86
  C 1040.30 487.70 1059.49 488.36 1077.02 487.63
  Q 1078.39 487.57 1079.56 487.78
  A 0.73 0.73 0.0 0 1 1080.15 488.53
  L 1079.74 495.92
  Z"
/>
</g>
<path fill="#fd1219" d="
  M 686.64 410.50
  A 0.95 0.95 0.0 0 0 687.83 409.58
  Q 687.82 400.19 696.68 397.14
  Q 703.83 394.69 710.12 398.76
  Q 714.38 401.52 715.45 408.18
  A 0.55 0.54 79.2 0 0 716.11 408.63
  Q 716.65 408.51 719.06 407.85
  Q 728.79 405.19 734.41 413.08
  C 737.30 417.15 737.82 424.73 737.58 430.31
  C 737.47 433.06 737.25 434.80 735.44 436.93
  Q 732.83 439.99 730.96 443.12
  A 5.79 5.34 84.7 0 1 730.22 444.09
  Q 726.76 447.67 725.62 449.15
  C 722.50 453.22 719.02 454.83 714.67 452.04
  A 1.02 1.02 0.0 0 0 713.27 452.33
  Q 709.13 458.54 702.07 458.50
  C 697.32 458.48 692.24 455.31 690.42 451.03
  A 1.12 1.12 0.0 0 0 689.57 450.36
  C 688.62 450.20 687.48 450.94 686.47 450.76
  C 679.28 449.45 672.78 447.24 671.62 439.44
  Q 670.62 432.74 675.48 428.20
  A 0.50 0.50 0.0 0 0 675.41 427.41
  Q 673.07 425.90 672.29 423.05
  Q 670.38 416.04 676.11 411.56
  C 679.55 408.87 682.65 409.47 686.64 410.50
  Z"
/>
<g fill="#a64e0b">
<path d="
  M 872.72 402.38
  L 874.26 406.59
  A 7.09 6.92 16.3 0 0 875.36 408.54
  C 880.43 414.85 885.82 415.69 894.09 415.48
  Q 889.05 419.08 884.23 422.73
  Q 883.53 423.26 882.04 426.08
  A 2.75 2.68 -6.8 0 1 881.37 426.91
  Q 877.54 430.14 873.83 426.62
  Q 871.04 423.95 870.60 423.41
  A 4.22 3.55 -85.0 0 1 870.27 422.94
  Q 868.97 420.76 870.36 418.48
  A 2.08 1.95 -24.8 0 0 870.59 417.91
  Q 872.45 410.25 872.72 402.38
  Z"
/>
<path d="
  M 1059.30 532.03
  A 0.48 0.47 -84.9 0 1 1059.76 532.59
  Q 1056.47 550.93 1054.37 560.77
  C 1050.80 577.53 1047.80 595.02 1044.30 609.82
  C 1043.54 613.02 1041.52 613.83 1038.25 613.89
  Q 1032.06 614.01 1014.50 613.99
  Q 965.06 613.93 934.75 613.90
  Q 915.92 613.88 905.32 613.98
  Q 883.11 614.20 875.90 614.03
  Q 864.69 613.76 860.46 613.90
  C 849.03 614.28 840.69 613.66 829.01 613.96
  Q 820.80 614.17 813.00 614.13
  Q 789.60 614.02 649.53 613.91
  C 625.43 613.90 608.19 614.12 583.25 613.99
  Q 536.11 613.75 498.50 614.05
  C 493.50 614.09 491.76 611.37 490.87 606.60
  Q 488.57 594.26 483.81 572.09
  C 482.32 565.17 480.36 558.72 479.28 551.73
  Q 479.02 550.02 476.35 532.94
  A 0.79 0.79 0.0 0 1 477.13 532.03
  L 1059.30 532.03
  Z"
/>
</g>
<g fill="#28b210">
<path d="
  M 676.16 389.16
  C 672.11 397.00 662.78 404.14 653.96 398.24
  A 2.68 2.54 -20.0 0 0 653.08 397.86
  Q 650.95 397.34 647.95 396.53
  Q 645.55 395.89 646.73 394.43
  Q 652.21 392.48 657.63 390.38
  Q 665.39 387.35 676.16 389.16
  Z"
/>
<path d="
  M 533.02 447.74
  L 535.66 452.88
  A 0.57 0.57 0.0 0 1 535.47 453.62
  Q 529.09 457.86 521.63 459.91
  Q 520.03 460.35 517.15 463.78
  A 0.82 0.81 -64.5 0 1 516.37 464.06
  C 507.76 462.54 500.32 455.15 491.70 463.59
  Q 481.60 458.51 483.57 447.32
  Q 485.71 442.30 489.91 439.41
  Q 492.30 437.77 498.13 436.29
  Q 502.40 435.20 506.68 433.98
  Q 508.26 434.76 509.38 435.98
  A 1.85 1.84 53.5 0 0 511.67 436.33
  L 513.45 435.29
  A 0.71 0.71 0.0 0 0 513.40 434.04
  Q 513.27 433.98 510.50 431.50
  Q 502.47 424.30 506.70 413.98
  C 509.00 408.36 514.35 403.85 519.43 401.19
  Q 523.81 398.90 528.17 399.95
  C 532.35 400.95 533.46 403.77 533.35 407.85
  A 4.27 4.20 -52.1 0 0 533.48 408.97
  L 535.29 415.86
  A 3.11 3.08 60.4 0 1 534.48 418.84
  Q 531.25 422.06 528.76 426.55
  A 3.89 3.85 -8.7 0 1 528.15 427.37
  Q 526.14 429.44 523.03 430.55
  C 520.21 431.56 518.90 432.28 517.08 434.03
  A 0.50 0.50 0.0 0 0 517.43 434.89
  Q 523.61 434.80 527.91 438.50
  A 3.64 3.63 -83.5 0 1 528.75 439.56
  L 533.02 447.74
  Z"
/>
<path d="
  M 932.98 431.89
  Q 934.84 428.60 937.51 425.93
  Q 940.53 422.90 941.00 421.64
  Q 942.59 417.34 941.64 412.73
  A 1.30 1.28 84.2 0 0 940.38 411.69
  L 934.81 411.69
  C 941.08 409.34 946.28 408.34 952.30 410.82
  A 1.85 1.83 -82.3 0 1 953.42 412.30
  Q 953.62 414.05 952.80 415.59
  Q 950.67 419.55 948.25 426.05
  C 946.65 430.36 941.74 433.52 937.69 435.66
  A 1.00 0.99 48.1 0 1 936.68 435.60
  Q 934.52 434.10 932.98 431.89
  Z"
/>
<path d="
  M 645.78 440.52
  C 648.29 439.89 650.10 439.41 652.29 440.63
  Q 656.47 442.96 658.11 447.09
  Q 661.97 456.80 654.44 463.90
  C 644.18 473.57 627.38 473.13 615.95 465.51
  Q 609.76 461.38 610.80 452.65
  A 2.18 2.16 66.2 0 1 611.20 451.60
  C 612.76 449.36 615.23 448.15 617.71 447.07
  A 2.56 2.54 -88.9 0 0 618.99 445.83
  Q 620.21 443.27 621.25 439.56
  C 622.29 435.85 627.80 434.44 631.37 434.12
  C 636.32 433.68 641.53 436.73 644.80 440.24
  A 1.01 0.98 -28.4 0 0 645.78 440.52
  Z"
/>
<path d="
  M 868.13 445.38
  Q 862.40 462.07 846.20 456.20
  Q 848.30 453.98 847.00 449.76
  Q 846.47 448.05 843.79 448.48
  L 837.96 442.35
  C 843.31 437.78 848.07 434.77 855.47 437.33
  C 860.80 439.18 864.35 441.24 868.13 445.38
  Z"
/>
<path d="
  M 765.83 453.19
  C 761.16 457.28 751.65 462.56 745.29 460.53
  Q 737.57 458.07 730.67 458.63
  Q 731.12 454.70 733.33 453.06
  Q 739.04 448.84 741.41 446.13
  Q 747.01 439.71 755.31 442.68
  Q 762.99 445.43 765.83 453.19
  Z"
/>
<path d="
  M 961.43 455.63
  Q 948.21 461.85 933.80 459.25
  Q 935.68 452.45 937.71 448.74
  Q 938.97 446.44 941.91 445.24
  C 950.05 441.93 954.06 446.63 959.84 451.40
  Q 961.13 452.47 961.43 455.63
  Z"
/>
<path d="
  M 1057.81 451.93
  L 1059.87 454.81
  A 0.55 0.54 53.3 0 0 1060.64 454.93
  Q 1064.45 451.97 1067.71 451.19
  Q 1081.78 447.78 1090.34 459.63
  C 1083.45 466.35 1074.94 464.42 1066.26 463.18
  Q 1062.75 462.68 1060.79 459.66
  A 0.08 0.07 52.5 0 0 1060.68 459.64
  Q 1060.62 459.69 1060.43 459.75
  A 0.18 0.18 0.0 0 1 1060.20 459.56
  L 1060.23 459.16
  A 0.02 0.02 0.0 0 0 1060.20 459.14
  C 1056.27 461.46 1052.17 461.60 1047.72 460.91
  L 1051.23 458.01
  A 1.32 1.29 -15.6 0 0 1051.68 457.23
  Q 1051.90 455.95 1052.39 454.38
  A 1.19 1.05 -79.2 0 0 1051.48 452.84
  Q 1051.06 452.82 1050.48 453.05
  Q 1049.02 453.64 1044.39 456.15
  Q 1041.35 457.80 1041.97 460.99
  L 1038.94 450.26
  L 1041.81 448.06
  L 1053.04 444.95
  A 0.46 0.46 0.0 0 1 1053.61 445.28
  Q 1054.60 449.30 1057.81 451.93
  Z"
/>
<path d="
  M 478.29 461.76
  Q 477.48 462.68 475.69 461.67
  Q 476.20 461.67 476.17 461.33
  Q 476.10 460.66 475.34 460.40
  C 470.76 458.81 468.04 458.02 462.93 457.53
  A 1.16 1.16 0.0 0 0 461.95 459.46
  L 463.50 461.22
  A 2.10 2.10 0.0 0 0 465.03 461.93
  L 470.71 462.06
  Q 465.75 462.21 460.88 463.10
  C 458.45 463.54 450.20 463.49 446.33 461.62
  A 1.02 1.01 -81.8 0 1 445.76 460.85
  L 445.46 458.74
  Q 453.87 447.77 468.74 450.46
  Q 470.54 450.79 472.78 453.04
  C 475.09 455.35 476.63 458.77 478.29 461.76
  Z"
/>
</g>
<g fill="#126b09">
<path d="
  M 692.88 472.53
  A 0.78 0.77 78.2 0 1 692.20 473.58
  Q 677.62 474.28 661.71 472.72
  A 0.87 0.85 82.2 0 1 660.99 472.16
  Q 660.42 470.63 661.54 469.21
  Q 665.29 464.48 666.71 462.09
  A 7.06 6.93 -23.4 0 0 667.45 460.27
  C 668.08 457.70 669.54 452.89 672.77 455.29
  Q 676.18 457.82 680.05 458.56
  Q 684.65 459.44 685.27 459.89
  C 689.60 463.02 690.63 466.67 692.88 472.53
  Z"
/>
<path d="
  M 558.86 472.91
  Q 555.25 468.84 550.85 473.13
  A 1.44 1.39 -69.0 0 1 550.03 473.51
  Q 543.38 474.21 537.28 472.79
  A 1.45 1.44 11.4 0 1 536.18 471.14
  C 537.05 466.22 539.72 464.71 542.81 461.22
  A 1.45 1.44 -61.0 0 1 544.30 460.79
  Q 551.99 463.11 559.40 462.47
  A 3.01 3.01 0.0 0 1 562.32 464.07
  Q 565.07 469.32 569.25 472.66
  A 0.33 0.32 64.1 0 1 569.05 473.24
  L 559.59 473.24
  A 0.97 0.97 0.0 0 1 558.86 472.91
  Z"
/>
<path d="
  M 710.33 472.86
  Q 709.89 471.71 710.14 470.48
  Q 711.87 462.26 719.85 461.42
  C 722.84 461.10 724.84 465.53 725.27 467.98
  A 2.44 2.44 0.0 0 1 724.09 470.53
  Q 718.45 473.81 711.51 473.70
  A 1.30 1.29 80.2 0 1 710.33 472.86
  Z"
/>
<path d="
  M 589.69 473.75
  A 0.37 0.37 0.0 0 1 589.50 473.06
  Q 595.16 469.66 600.03 464.04
  C 601.44 462.41 603.06 462.38 604.49 464.15
  Q 608.04 468.57 611.56 472.25
  A 0.89 0.89 0.0 0 1 610.91 473.75
  L 589.69 473.75
  Z"
/>
<path d="
  M 977.06 471.24
  A 0.85 0.85 0.0 0 1 976.62 472.67
  Q 969.84 474.06 963.28 473.46
  A 1.06 1.06 0.0 0 1 962.54 471.76
  L 967.39 465.42
  A 1.29 1.29 0.0 0 1 969.06 465.09
  Q 973.74 467.81 977.06 471.24
  Z"
/>
<path d="
  M 881.44 466.33
  A 0.70 0.69 48.2 0 1 882.43 466.39
  L 886.31 470.79
  A 1.18 1.18 0.0 0 1 885.51 472.75
  L 876.08 473.39
  A 0.98 0.98 0.0 0 1 875.36 471.68
  L 881.44 466.33
  Z"
/>
<path d="
  M 993.16 468.34
  A 0.93 0.93 0.0 0 1 994.42 469.51
  L 991.89 476.40
  A 0.95 0.95 0.0 0 1 991.26 476.98
  Q 988.99 477.59 987.75 476.23
  A 1.03 1.03 0.0 0 1 987.51 475.26
  Q 988.81 470.31 993.16 468.34
  Z"
/>
<path d="
  M 1018.49 473.26
  Q 1018.35 472.59 1019.19 472.16
  Q 1022.23 470.59 1023.31 469.56
  A 1.10 1.10 0.0 0 1 1024.89 469.62
  L 1027.32 472.38
  A 0.76 0.76 0.0 0 1 1026.75 473.64
  L 1018.96 473.64
  A 0.48 0.48 0.0 0 1 1018.49 473.26
  Z"
/>
<path d="
  M 919.08 472.75
  Q 919.99 471.18 921.48 470.46
  A 1.17 1.15 46.5 0 1 922.57 470.50
  L 925.97 472.47
  A 0.68 0.68 0.0 0 1 925.63 473.74
  L 919.65 473.74
  A 0.66 0.66 0.0 0 1 919.08 472.75
  Z"
/>
</g>
<g fill="#697f09">
<path d="
  M 633.80 403.35
  L 630.40 407.51
  A 0.98 0.98 0.0 0 0 631.01 409.10
  Q 631.87 409.23 632.78 408.72
  Q 633.35 408.40 634.39 408.59
  Q 635.19 408.73 636.47 408.07
  Q 644.66 403.81 650.19 401.74
  Q 651.60 401.21 653.61 399.81
  A 0.82 0.82 0.0 0 0 653.38 398.35
  Q 647.11 396.38 640.81 398.11
  A 2.87 2.77 18.1 0 0 639.88 398.56
  L 634.14 402.84
  Q 638.99 396.83 646.73 394.43
  Q 645.55 395.89 647.95 396.53
  Q 650.95 397.34 653.08 397.86
  A 2.68 2.54 -20.0 0 1 653.96 398.24
  C 662.78 404.14 672.11 397.00 676.16 389.16
  Q 680.53 389.92 684.16 393.03
  A 0.64 0.64 0.0 0 1 684.26 393.90
  L 679.76 399.89
  A 2.12 2.01 -83.3 0 1 678.99 400.53
  Q 678.95 400.55 675.85 401.62
  Q 667.77 404.41 666.23 412.94
  Q 665.49 417.04 665.18 421.48
  C 664.79 427.03 653.30 429.85 647.82 430.46
  A 3.39 3.36 63.4 0 1 645.13 429.55
  C 638.92 423.68 631.04 422.65 623.23 419.98
  A 1.53 1.52 16.8 0 1 622.24 418.15
  Q 622.78 416.09 624.35 414.12
  Q 627.36 410.34 630.31 406.55
  Q 631.38 405.18 633.80 403.35
  Z"
/>
<path d="
  M 926.01 409.68
  Q 921.20 412.87 919.59 417.99
  A 0.91 0.91 0.0 0 1 918.17 418.44
  L 913.20 414.64
  A 3.48 3.40 -15.9 0 0 912.28 414.14
  Q 910.08 413.37 907.13 413.39
  A 1.51 1.51 0.0 0 1 905.63 412.14
  Q 904.85 407.71 908.31 404.78
  C 912.53 401.20 920.12 397.95 925.02 402.10
  Q 927.88 404.53 926.74 408.68
  A 1.82 1.79 -9.4 0 1 926.01 409.68
  Z"
/>
<path d="
  M 932.98 431.89
  L 929.16 428.29
  L 939.18 424.11
  A 1.40 1.40 0.0 0 0 940.04 422.95
  L 940.84 414.40
  A 0.94 0.94 0.0 0 0 939.91 413.37
  L 932.73 413.26
  L 934.81 411.69
  L 940.38 411.69
  A 1.30 1.28 84.2 0 1 941.64 412.73
  Q 942.59 417.34 941.00 421.64
  Q 940.53 422.90 937.51 425.93
  Q 934.84 428.60 932.98 431.89
  Z"
/>
<path d="
  M 837.96 442.35
  L 843.79 448.48
  Q 840.38 448.69 839.66 451.92
  L 835.32 447.13
  Q 836.07 444.18 837.96 442.35
  Z"
/>
</g>
<path fill="#c05b09" d="
  M 586.40 542.83
  A 0.78 0.77 -74.0 0 1 587.04 544.00
  L 586.84 544.30
  A 1.99 1.98 17.3 0 1 585.21 545.15
  L 572.87 545.15
  A 0.55 0.55 0.0 0 0 572.75 546.23
  C 581.09 548.19 588.47 548.18 604.29 549.16
  C 610.58 549.55 616.59 549.59 623.31 548.88
  Q 631.73 547.98 637.44 547.70
  Q 645.85 547.28 649.26 546.75
  C 662.40 544.71 680.27 544.88 689.04 543.88
  Q 704.11 542.16 715.75 541.99
  Q 742.26 541.61 756.63 541.95
  Q 763.49 542.12 774.72 541.73
  Q 778.98 541.58 792.81 541.87
  Q 809.59 542.23 845.79 542.05
  C 864.75 541.95 880.47 542.43 896.67 541.41
  C 905.08 540.89 910.91 541.44 921.12 541.85
  C 929.81 542.21 937.42 542.22 945.15 541.83
  Q 948.55 541.66 954.78 541.94
  Q 971.51 542.69 988.31 542.12
  C 999.64 541.74 1015.44 542.44 1024.40 542.18
  C 1033.36 541.92 1042.62 543.36 1040.41 555.09
  Q 1036.72 574.67 1033.37 587.65
  C 1029.84 601.35 1020.74 601.09 1008.25 600.99
  C 990.82 600.85 975.49 600.40 958.90 600.60
  C 948.90 600.72 938.07 600.14 925.81 600.39
  Q 899.79 600.92 891.34 600.75
  Q 860.26 600.10 838.17 600.26
  C 802.84 600.53 769.77 600.73 731.96 600.19
  Q 724.82 600.09 689.09 600.59
  Q 659.19 601.01 590.70 600.98
  C 577.35 600.97 560.83 601.41 545.84 600.70
  C 537.75 600.31 528.28 600.73 519.50 600.75
  C 511.22 600.76 503.44 597.60 501.34 588.89
  Q 498.36 576.54 494.76 557.49
  C 493.66 551.63 492.68 544.09 500.66 542.66
  Q 505.81 541.74 512.55 541.79
  Q 527.12 541.90 564.09 541.82
  C 572.56 541.80 578.89 542.64 586.40 542.83
  Z"
/>
<ellipse fill="#171b2d" cx="0.00" cy="0.00" transform="translate(771.23,411.33) rotate(-3.5)" rx="8.57" ry="6.21"/>
<g fill="#fee135">
<rect x="-9.08" y="-8.16" transform="translate(703.35,425.96) rotate(-3.0)" width="18.16" height="16.32" rx="7.50"/>
<ellipse cx="0.00" cy="0.00" transform="translate(905.64,444.17) rotate(-5.5)" rx="7.14" ry="6.47"/>
<path d="
  M 512.45 443.16
  Q 512.53 443.23 514.46 444.31
  C 519.24 446.98 521.26 455.27 514.22 456.94
  C 510.26 457.88 505.92 455.01 505.56 450.74
  Q 505.39 448.76 505.74 444.72
  A 2.53 2.53 0.0 0 1 508.56 442.43
  L 511.73 442.81
  A 1.23 1.22 70.8 0 1 512.45 443.16
  Z"
/>
</g>
<g fill="#dd811e">
<ellipse cx="0.00" cy="0.00" transform="translate(835.64,402.43) rotate(-176.5)" rx="6.46" ry="5.73"/>
<path d="
  M 679.69 426.68
  A 0.24 0.23 -73.5 0 1 679.33 426.88
  C 674.85 423.98 674.06 419.22 674.67 414.24
  A 0.56 0.56 0.0 0 1 675.28 413.75
  L 679.04 414.10
  A 0.72 0.72 0.0 0 1 679.69 414.82
  L 679.69 426.68
  Z"
/>
<ellipse cx="0.00" cy="0.00" transform="translate(998.29,425.88) rotate(-174.9)" rx="9.50" ry="9.12"/>
<path d="
  M 631.93 449.21
  Q 632.77 448.89 636.20 449.63
  A 4.25 4.25 0.0 0 1 639.42 452.71
  L 639.94 454.68
  A 2.04 2.03 -5.1 0 1 637.81 457.22
  Q 635.45 457.04 631.49 456.63
  C 628.63 456.34 627.02 453.74 628.26 451.13
  A 1.50 1.47 89.6 0 1 628.94 450.43
  Q 629.84 450.00 631.93 449.21
  Z"
/>
</g>
<ellipse fill="#fbab3f" cx="0.00" cy="0.00" transform="translate(574.57,425.82) rotate(-15.3)" rx="8.68" ry="8.48"/>
<g fill="#a64e0b">
<path d="
  M 1004.21 558.88
  A 0.45 0.45 0.0 0 1 1003.90 558.09
  Q 1008.45 554.18 1014.88 553.33
  C 1019.90 552.66 1030.06 552.69 1033.01 557.21
  Q 1034.71 559.79 1034.91 563.75
  A 0.31 0.31 0.0 0 1 1034.43 564.03
  Q 1032.35 562.74 1029.41 561.91
  Q 1016.59 558.26 1004.21 558.88
  Z"
/>
<path d="
  M 736.48 555.01
  A 0.36 0.35 -85.6 0 1 736.17 554.64
  L 736.17 554.63
  A 0.27 0.27 0.0 0 1 736.44 554.38
  C 742.23 554.26 748.14 554.87 753.88 554.88
  Q 774.31 554.95 806.84 554.59
  C 814.56 554.50 823.35 553.61 830.43 554.05
  Q 850.31 555.27 852.83 555.47
  Q 863.88 556.35 868.69 557.29
  A 0.43 0.42 -40.4 0 1 868.62 558.13
  Q 867.94 558.15 834.32 561.13
  Q 821.89 562.24 817.36 562.27
  C 807.21 562.34 799.00 562.01 785.97 561.18
  Q 777.65 560.65 771.64 559.72
  Q 759.81 557.89 736.48 555.01
  Z"
/>
<path d="
  M 948.31 554.37
  Q 967.81 554.15 989.04 556.61
  Q 993.61 557.14 996.04 558.13
  Q 997.33 558.66 997.36 560.34
  A 0.66 0.65 83.7 0 1 996.84 561.00
  C 987.41 562.99 980.91 562.32 970.30 561.19
  Q 959.02 559.99 948.26 554.61
  A 0.13 0.13 0.0 0 1 948.31 554.37
  Z"
/>
<path d="
  M 522.25 556.17
  A 0.52 0.51 45.3 0 1 522.25 555.14
  Q 534.55 554.20 545.69 556.15
  Q 552.02 557.26 556.45 557.35
  C 564.21 557.51 570.64 558.18 577.77 559.72
  A 0.75 0.75 0.0 0 1 577.62 561.20
  C 569.81 561.34 561.27 560.19 553.22 561.40
  Q 529.49 564.96 505.17 560.70
  A 0.47 0.47 0.0 0 1 505.17 559.77
  Q 516.52 557.87 528.81 558.64
  C 535.06 559.04 540.49 559.97 546.50 559.30
  A 0.43 0.43 0.0 0 0 546.50 558.44
  L 522.25 556.17
  Z"
/>
<path d="
  M 967.18 570.52
  C 963.28 571.79 959.65 572.38 955.70 575.35
  Q 953.71 576.84 949.13 577.10
  Q 937.58 577.76 924.94 578.62
  Q 912.73 579.44 904.41 578.90
  Q 892.31 578.12 880.30 576.95
  Q 875.19 576.45 870.18 574.80
  A 0.45 0.45 0.0 0 1 870.28 573.93
  Q 878.81 573.12 887.71 572.98
  Q 895.78 572.86 942.25 572.47
  Q 952.69 572.39 967.12 569.97
  A 0.23 0.22 77.9 0 1 967.38 570.14
  L 967.39 570.15
  A 0.31 0.31 0.0 0 1 967.18 570.52
  Z"
/>
<path d="
  M 741.51 575.13
  C 739.25 575.86 737.73 576.37 736.23 576.58
  Q 722.76 578.44 719.34 578.53
  Q 699.61 579.08 683.08 579.99
  C 677.55 580.30 673.15 580.03 667.80 579.90
  Q 664.26 579.81 661.69 579.54
  C 645.36 577.84 635.30 576.51 623.48 576.14
  Q 616.07 575.91 612.58 575.43
  A 0.68 0.67 -44.2 0 1 612.60 574.09
  C 625.60 572.70 638.91 572.31 655.25 572.45
  Q 700.94 572.81 741.38 574.19
  A 0.48 0.48 0.0 0 1 741.51 575.13
  Z"
/>
<path d="
  M 558.66 594.34
  L 555.14 591.65
  A 0.65 0.64 -20.2 0 1 555.67 590.51
  Q 561.62 591.77 564.00 592.21
  Q 567.00 592.76 577.53 592.86
  C 588.76 592.96 599.68 591.53 610.65 591.11
  Q 617.85 590.83 630.11 589.03
  Q 654.89 585.39 661.86 584.24
  Q 666.37 583.50 672.61 582.90
  A 0.46 0.46 0.0 0 1 673.09 583.24
  L 673.18 583.57
  A 0.50 0.50 0.0 0 1 672.80 584.18
  C 669.60 584.87 666.98 585.47 664.41 585.75
  C 653.15 586.97 645.93 587.65 636.54 590.24
  C 628.86 592.36 617.17 592.63 612.46 593.27
  C 604.59 594.33 598.49 594.41 591.94 594.97
  C 582.25 595.79 570.94 597.41 564.25 598.39
  C 558.73 599.20 553.84 598.77 548.80 598.00
  A 0.38 0.37 -47.7 0 1 548.77 597.27
  L 558.59 594.69
  A 0.20 0.20 0.0 0 0 558.66 594.34
  Z"
/>
<path d="
  M 524.62 588.40
  A 0.42 0.41 -89.2 0 1 524.26 588.02
  L 524.24 587.69
  A 0.19 0.18 86.9 0 1 524.41 587.49
  L 532.25 586.96
  A 1.59 1.51 -57.9 0 0 532.79 586.82
  L 536.23 585.33
  A 2.24 2.23 38.5 0 1 537.58 585.18
  Q 546.87 587.03 553.30 590.12
  A 0.55 0.55 0.0 0 1 553.21 591.15
  C 549.00 592.27 544.84 592.46 540.44 591.36
  Q 533.24 589.58 524.62 588.40
  Z"
/>
</g>
</svg>
