<?xml version="1.0" encoding="UTF-8" standalone="no"?>
<!DOCTYPE svg PUBLIC "-//W3C//DTD SVG 1.1//EN" "http://www.w3.org/Graphics/SVG/1.1/DTD/svg11.dtd">
<svg xmlns="http://www.w3.org/2000/svg" version="1.1" viewBox="0.00 0.00 1024.00 1024.00">
<path fill="#fefdfd" d="
  M 1024.00 0.00
  L 1024.00 1024.00
  L 0.00 1024.00
  L 0.00 0.00
  L 1024.00 0.00
  Z"
/>
<path fill="#98663b" d="
  M 518.00 288.69
  C 534.95 289.30 551.23 291.24 566.97 295.36
  Q 570.69 296.34 582.16 299.81
  Q 588.75 301.81 596.89 305.54
  C 608.57 310.89 616.74 314.37 625.30 320.27
  C 629.69 323.30 633.77 325.38 638.39 328.84
  Q 651.89 338.96 662.77 349.49
  Q 668.29 354.83 675.96 363.80
  Q 713.79 408.13 724.16 465.23
  Q 735.01 524.94 713.46 581.63
  Q 705.28 603.14 690.71 625.22
  Q 689.95 626.37 682.22 636.87
  Q 677.46 643.32 673.10 648.01
  Q 661.16 660.83 654.00 666.99
  C 626.98 690.25 595.12 706.97 560.51 714.43
  C 542.86 718.23 524.20 720.17 505.95 719.52
  C 489.00 718.91 472.73 716.97 456.98 712.84
  Q 453.26 711.87 441.79 708.40
  Q 435.20 706.40 427.06 702.67
  C 415.38 697.32 407.21 693.84 398.65 687.94
  C 394.26 684.91 390.18 682.83 385.56 679.37
  Q 372.06 669.25 361.18 658.72
  Q 355.66 653.38 347.99 644.41
  Q 310.16 600.08 299.79 542.98
  Q 288.94 483.27 310.49 426.58
  Q 318.67 405.07 333.24 382.99
  Q 334.00 381.84 341.73 371.34
  Q 346.49 364.89 350.85 360.20
  Q 362.79 347.38 369.95 341.22
  C 396.97 317.96 428.83 301.24 463.45 293.78
  C 481.10 289.98 499.75 288.03 518.00 288.69
  Z"
/>
<path fill="#fef7d9" d="
  M 363.47 653.02
  C 360.26 649.43 356.11 645.49 352.49 641.23
  Q 338.98 625.34 331.64 612.29
  Q 321.28 593.87 318.31 586.70
  Q 312.89 573.64 310.16 563.16
  C 308.68 557.48 305.86 546.83 304.43 538.45
  Q 302.11 524.87 302.01 505.50
  Q 301.80 461.42 317.88 423.12
  C 320.86 416.04 325.19 408.24 328.84 401.33
  C 332.51 394.39 338.19 385.50 343.73 378.42
  Q 357.93 360.28 367.44 351.45
  Q 372.65 346.62 384.70 336.83
  C 390.31 332.28 393.79 330.22 401.34 325.35
  Q 420.09 313.25 441.98 305.76
  Q 449.18 303.30 459.63 300.40
  Q 468.55 297.92 477.66 296.59
  Q 509.65 291.91 541.90 295.92
  Q 550.42 296.98 557.01 298.77
  C 565.15 300.99 569.27 301.47 576.69 303.97
  Q 593.58 309.66 600.89 313.15
  Q 604.32 314.79 615.39 320.73
  Q 621.90 324.23 629.25 329.35
  Q 639.78 336.69 647.26 343.02
  C 653.78 348.54 659.42 354.29 665.21 360.03
  Q 668.55 363.34 677.93 374.66
  Q 681.28 378.69 682.78 381.08
  C 684.95 384.53 686.99 387.17 688.64 390.07
  C 693.03 397.83 698.00 404.71 701.05 411.86
  Q 709.78 432.34 712.22 439.77
  Q 723.24 473.39 722.06 511.29
  Q 721.97 514.15 721.22 521.14
  C 720.74 525.54 720.71 529.54 720.04 534.27
  C 717.97 548.92 714.62 563.13 709.17 576.64
  C 705.35 586.10 701.47 597.10 698.10 602.64
  Q 696.30 605.60 687.55 619.64
  Q 682.29 628.09 676.71 634.84
  Q 667.85 645.56 664.51 649.01
  Q 649.38 664.63 630.48 677.94
  Q 625.64 681.35 620.64 684.00
  C 616.17 686.35 612.24 689.27 607.29 691.73
  Q 577.86 706.28 546.26 711.73
  C 522.82 715.78 498.13 714.87 474.88 711.40
  Q 472.22 711.00 460.50 708.39
  C 450.09 706.06 440.35 701.66 430.74 698.37
  Q 427.98 697.42 424.59 695.75
  C 422.13 694.54 419.15 693.45 416.58 691.92
  Q 412.35 689.40 405.58 685.56
  Q 400.22 682.52 394.84 678.82
  Q 384.92 671.99 374.83 663.71
  C 370.76 660.37 366.14 656.00 363.47 653.02
  Z"
/>
<g fill="#e7cda1">
<path d="
  M 539.37 325.23
  C 537.06 328.05 533.79 328.65 530.28 328.31
  A 3.39 3.36 -52.7 0 0 528.71 328.53
  Q 522.13 331.17 515.71 331.09
  A 7.26 7.10 35.9 0 0 513.49 331.42
  Q 508.56 332.97 501.38 332.91
  A 1.11 0.90 -32.4 0 1 501.13 332.88
  L 494.98 331.64
  A 1.57 0.64 -4.5 0 1 494.76 331.57
  Q 491.50 330.19 490.15 329.95
  C 486.29 329.28 483.96 327.96 482.16 325.13
  A 1.35 1.34 -43.7 0 1 482.20 323.61
  C 486.52 317.63 492.25 316.49 499.11 315.28
  C 503.61 314.48 506.32 314.83 511.00 314.91
  C 513.49 314.95 515.27 315.97 517.34 316.43
  Q 526.30 318.43 532.55 318.70
  A 3.10 3.08 -29.8 0 1 533.85 319.05
  Q 537.17 320.81 539.42 324.07
  A 0.95 0.95 0.0 0 1 539.37 325.23
  Z"
/>
<ellipse cx="0.00" cy="0.00" transform="translate(443.01,333.50) rotate(-22.3)" rx="3.12" ry="1.34"/>
<ellipse cx="0.00" cy="0.00" transform="translate(460.73,334.07) rotate(-6.4)" rx="2.30" ry="1.05"/>
<path d="
  M 390.76 371.13
  A 1.00 1.00 0.0 0 1 389.76 370.06
  L 389.79 369.57
  A 1.04 1.02 83.4 0 1 390.50 368.66
  L 393.25 367.77
  A 0.75 0.71 -83.9 0 0 393.66 367.42
  Q 396.48 362.15 398.22 358.07
  C 399.41 355.29 401.38 352.66 402.94 350.63
  A 2.75 2.71 2.5 0 1 403.69 349.95
  C 408.50 346.95 412.73 343.22 417.31 341.02
  Q 424.64 337.51 428.55 336.59
  Q 431.16 335.97 433.22 337.22
  A 1.56 1.55 -53.2 0 1 433.56 339.60
  L 425.65 348.22
  A 1.47 1.46 -16.6 0 0 425.34 348.79
  C 424.37 352.46 419.71 359.25 415.37 360.22
  Q 412.94 360.76 411.59 361.49
  C 407.83 363.54 401.07 362.41 400.16 367.83
  A 0.74 0.74 0.0 0 1 400.00 368.15
  L 397.67 370.69
  A 1.36 1.34 20.9 0 1 396.67 371.13
  L 390.76 371.13
  Z"
/>
<path d="
  M 335.15 438.23
  Q 333.85 437.55 333.88 436.25
  C 333.94 433.87 332.60 432.32 331.70 431.04
  C 330.44 429.25 330.92 427.13 331.86 425.06
  Q 336.17 415.57 336.96 412.96
  Q 338.07 409.26 339.97 406.12
  C 341.60 403.40 343.17 399.68 344.87 397.42
  C 348.71 392.31 351.20 388.78 354.10 386.31
  A 4.93 4.87 -3.0 0 0 354.83 385.51
  Q 358.89 379.85 365.96 375.45
  C 367.51 374.48 369.08 373.76 370.83 373.93
  Q 374.32 374.27 377.93 372.53
  C 379.49 371.78 381.28 371.77 382.17 373.54
  A 1.24 1.20 -46.4 0 1 382.18 374.60
  L 381.46 376.10
  A 0.75 0.72 -34.4 0 0 381.40 376.39
  L 381.39 384.13
  A 5.30 5.23 39.5 0 0 381.50 385.20
  C 382.11 388.11 383.73 390.98 382.75 395.14
  Q 381.79 399.26 380.86 403.35
  C 379.99 407.17 377.74 408.92 375.34 411.54
  A 3.74 3.63 74.2 0 0 374.50 413.10
  Q 373.08 418.57 369.76 422.27
  A 3.58 3.50 73.3 0 0 368.96 423.80
  L 368.38 426.31
  A 3.60 3.53 -15.1 0 1 367.31 428.13
  Q 364.61 430.60 363.10 434.57
  A 1.03 1.03 0.0 0 1 361.66 435.12
  Q 360.84 434.70 359.84 433.62
  A 0.69 0.69 0.0 0 0 358.68 433.87
  Q 357.44 437.54 354.42 439.88
  A 1.18 1.17 47.5 0 1 352.91 439.81
  L 351.56 438.58
  A 1.01 1.00 22.0 0 0 349.87 439.29
  Q 349.82 441.35 350.84 442.11
  A 3.06 2.79 -46.2 0 0 354.47 441.87
  Q 356.47 440.18 358.79 437.21
  A 1.59 1.58 -64.7 0 1 360.39 436.63
  Q 361.94 436.97 362.38 437.06
  C 363.21 437.24 363.85 437.02 363.87 436.14
  C 363.90 434.36 366.47 432.53 368.28 432.07
  Q 369.84 431.68 371.63 430.63
  A 0.01 0.01 0.0 0 0 371.64 430.62
  L 376.20 425.54
  A 2.63 2.62 -25.5 0 0 376.86 423.70
  C 376.74 420.73 377.37 417.91 379.17 415.42
  C 380.66 413.34 381.14 411.81 381.00 408.85
  C 380.85 405.86 383.73 401.76 385.20 399.21
  C 387.98 394.44 392.80 399.64 390.80 403.03
  Q 390.10 404.23 390.09 404.24
  A 0.81 0.80 29.6 0 0 390.34 405.13
  C 390.77 405.49 391.49 405.77 391.83 406.39
  Q 394.84 411.89 394.77 418.28
  A 1.25 1.25 0.0 0 0 396.49 419.46
  C 401.61 417.42 404.00 422.30 405.69 426.64
  A 1.20 1.19 51.0 0 1 405.58 427.72
  Q 404.60 429.23 404.65 431.35
  A 0.76 0.75 -0.4 0 0 405.41 432.09
  L 405.69 432.09
  A 0.43 0.42 0.0 0 0 406.12 431.67
  L 406.12 427.81
  A 1.13 1.12 -19.1 0 1 406.56 426.92
  Q 408.50 425.44 407.28 423.61
  Q 405.49 420.93 402.40 418.43
  Q 400.93 417.24 400.91 415.35
  Q 400.87 411.87 397.82 409.29
  C 394.50 406.47 398.75 399.77 400.91 397.66
  C 403.35 395.28 400.54 391.71 402.46 388.47
  Q 403.41 386.89 404.89 382.98
  A 1.66 1.47 75.1 0 1 405.04 382.68
  L 411.54 372.12
  A 4.26 4.16 89.3 0 1 412.74 370.86
  Q 416.47 368.30 418.11 365.80
  A 3.20 3.14 -89.1 0 1 419.04 364.88
  L 430.08 357.84
  A 1.52 0.37 -16.8 0 0 430.23 357.76
  C 432.89 356.61 434.27 356.11 436.07 354.85
  Q 439.72 352.29 444.27 352.40
  A 1.56 1.46 30.9 0 0 444.91 352.26
  L 448.65 350.49
  A 3.56 3.54 -57.3 0 1 450.23 350.14
  Q 452.72 350.15 455.40 348.76
  C 460.87 345.92 466.09 345.40 471.03 349.65
  C 473.31 351.61 477.87 350.96 481.33 350.62
  A 3.20 3.20 0.0 0 1 484.57 352.54
  L 485.64 355.05
  A 2.13 2.11 -11.6 0 0 487.59 356.33
  L 492.86 356.33
  A 1.32 1.32 0.0 0 1 494.18 357.65
  L 494.18 361.21
  A 1.35 1.34 13.1 0 0 494.94 362.42
  Q 497.86 363.87 499.31 364.66
  Q 501.29 365.74 500.56 369.11
  A 1.43 1.42 21.7 0 0 501.23 370.65
  C 504.09 372.32 507.97 374.28 508.63 378.61
  A 1.95 1.85 -38.1 0 1 508.47 379.68
  C 507.35 382.09 506.14 385.47 507.52 387.94
  C 508.66 389.98 509.50 393.41 508.13 395.54
  Q 506.27 398.45 500.86 400.51
  A 1.78 1.71 10.6 0 0 500.22 400.93
  L 495.71 405.54
  A 2.41 2.40 55.9 0 0 495.21 408.16
  Q 497.13 412.75 497.01 417.51
  Q 496.92 421.37 496.76 425.17
  A 3.16 3.15 62.5 0 1 496.26 426.77
  Q 494.33 429.78 493.10 431.17
  Q 492.69 431.64 488.03 434.43
  A 4.07 4.06 -62.7 0 1 486.21 435.01
  Q 483.25 435.24 482.63 435.63
  Q 480.02 437.25 476.94 440.19
  Q 476.23 440.88 472.18 442.11
  A 8.76 8.55 19.1 0 0 470.01 443.13
  C 464.16 446.91 458.31 448.77 452.64 444.07
  A 1.56 1.54 -33.5 0 0 451.17 443.78
  L 441.54 446.91
  A 3.92 3.78 35.3 0 1 440.28 447.10
  L 430.13 446.89
  A 3.74 3.66 -57.2 0 0 428.38 447.29
  Q 422.51 450.28 418.51 444.80
  A 0.48 0.48 0.0 0 0 417.65 445.08
  L 417.65 448.78
  A 1.65 1.65 0.0 0 1 417.32 449.77
  Q 415.40 452.30 414.16 455.36
  C 412.10 460.42 407.54 463.97 403.25 466.54
  A 1.73 1.73 0.0 0 0 402.47 467.55
  Q 401.38 471.46 403.34 474.21
  A 2.94 2.94 0.0 0 1 403.85 475.45
  Q 404.33 478.30 405.51 481.85
  C 406.21 483.95 405.93 485.34 404.63 487.29
  C 403.25 489.37 403.78 491.15 406.28 491.31
  Q 413.23 491.76 417.60 495.24
  A 5.69 5.40 88.1 0 1 418.42 496.05
  Q 423.52 502.29 426.86 507.37
  Q 429.44 511.31 430.26 515.36
  A 3.92 3.89 44.8 0 1 430.27 516.80
  Q 429.37 521.71 429.99 525.91
  C 430.62 530.23 427.50 531.53 424.64 533.27
  A 2.53 2.50 -88.5 0 0 423.89 533.99
  Q 421.88 536.96 424.08 540.20
  A 1.71 1.69 -60.2 0 1 424.36 541.26
  Q 423.97 546.43 421.28 549.38
  C 419.45 551.38 418.68 553.23 416.68 555.14
  A 1.39 1.39 0.0 0 0 416.64 557.10
  C 419.26 559.86 419.48 563.49 415.97 565.64
  Q 415.21 566.11 413.11 567.61
  A 1.28 1.27 -41.5 0 0 412.98 569.59
  Q 414.70 571.17 415.81 573.28
  A 1.77 1.75 28.8 0 1 416.01 573.96
  L 416.41 579.37
  A 1.97 1.96 3.4 0 1 414.07 581.44
  Q 412.01 581.04 410.45 580.02
  A 1.03 1.00 28.0 0 0 408.93 580.46
  Q 408.72 580.99 409.18 581.60
  Q 410.23 582.99 412.39 586.07
  A 9.28 9.05 -70.8 0 1 413.71 588.89
  Q 414.30 591.05 415.75 595.09
  C 416.52 597.24 415.25 598.45 414.92 600.45
  A 1.23 1.14 40.2 0 0 415.00 601.12
  L 416.13 603.75
  A 1.19 1.10 39.4 0 1 416.21 604.34
  C 415.55 609.46 415.78 611.11 412.43 613.99
  Q 405.30 620.09 396.46 616.60
  C 395.39 616.18 393.94 614.83 392.76 614.29
  A 2.43 2.36 52.2 0 0 391.48 614.11
  L 389.12 614.45
  A 1.09 1.03 54.2 0 1 388.45 614.32
  L 381.31 610.36
  A 0.91 0.75 -5.7 0 1 381.13 610.24
  Q 378.49 607.81 372.96 602.37
  Q 370.49 599.94 364.45 589.48
  A 1.65 1.64 33.5 0 1 364.25 588.52
  L 364.67 584.76
  A 3.97 3.84 41.9 0 0 364.57 583.35
  L 363.79 580.43
  A 1.06 1.04 -39.9 0 1 363.86 579.73
  L 367.76 571.51
  A 2.30 2.25 -3.9 0 1 368.59 570.58
  L 375.93 565.90
  A 1.01 1.00 38.3 0 1 376.80 565.80
  L 379.68 566.83
  A 4.12 4.10 -37.0 0 0 381.35 567.06
  Q 382.43 566.99 383.86 566.45
  C 386.36 565.49 388.88 567.02 392.56 568.41
  A 2.79 2.77 -42.1 0 0 394.25 568.49
  L 397.04 567.72
  A 2.12 2.09 42.9 0 1 398.01 567.69
  Q 400.24 568.12 402.13 569.73
  A 0.63 0.63 0.0 0 0 403.10 568.97
  Q 401.68 566.23 399.78 564.86
  A 1.20 1.18 18.4 0 1 399.29 563.90
  L 399.29 562.67
  A 1.68 1.67 25.6 0 0 398.92 561.62
  L 396.61 558.70
  A 1.43 1.43 0.0 0 1 396.30 557.81
  L 396.30 556.06
  A 1.75 1.74 23.0 0 0 395.80 554.84
  Q 394.60 553.61 394.89 551.37
  A 2.51 2.36 -72.4 0 0 393.70 548.90
  Q 386.91 545.17 382.32 541.17
  A 0.66 0.66 0.0 0 0 381.23 541.56
  Q 380.49 545.92 377.56 548.95
  A 0.89 0.88 43.9 0 0 377.59 550.21
  Q 378.99 551.54 379.54 553.73
  Q 381.06 559.83 374.31 560.96
  A 0.93 0.92 89.6 0 0 373.55 561.74
  Q 373.32 563.28 371.81 564.54
  A 1.62 1.58 -64.6 0 1 370.78 564.92
  Q 368.96 564.91 368.42 563.62
  C 367.18 560.71 370.51 560.42 372.54 560.57
  A 0.48 0.48 0.0 0 0 373.03 559.94
  L 372.68 558.85
  A 1.19 1.18 87.2 0 0 371.83 558.07
  L 367.00 556.95
  A 2.08 2.08 0.0 0 0 364.64 558.08
  L 363.33 560.84
  A 1.79 1.76 -3.3 0 1 362.63 561.61
  Q 359.21 563.67 357.69 565.49
  C 354.65 569.12 351.31 565.87 349.86 562.92
  A 1.24 1.24 0.0 0 0 349.00 562.26
  C 347.06 561.87 345.15 562.16 343.93 560.55
  C 342.61 558.80 340.41 555.59 337.85 556.25
  Q 334.08 557.23 335.18 561.16
  A 1.15 1.15 0.0 0 1 333.47 562.45
  C 331.89 561.48 330.77 558.89 329.27 556.44
  Q 328.77 555.62 325.96 552.29
  Q 321.94 547.54 320.05 542.50
  A 0.63 0.56 -78.3 0 0 319.93 542.29
  L 317.72 539.40
  A 1.19 1.11 19.8 0 1 317.53 539.03
  Q 315.93 533.53 315.53 531.00
  Q 312.31 510.24 313.77 489.37
  Q 314.12 484.34 315.56 477.15
  Q 316.78 471.09 317.42 464.94
  Q 317.70 462.23 319.66 458.64
  C 320.99 456.21 321.79 452.51 323.24 450.51
  Q 327.60 444.51 335.21 439.10
  A 0.51 0.51 0.0 0 0 335.15 438.23
  Z"
/>
<path d="
  M 535.83 350.96
  A 0.15 0.15 0.0 0 1 535.69 350.80
  L 535.70 350.66
  A 1.85 1.47 3.6 0 1 537.64 349.31
  L 537.89 349.33
  A 1.85 1.47 3.6 0 1 539.65 350.91
  L 539.64 351.05
  A 0.15 0.15 0.0 0 1 539.48 351.19
  L 535.83 350.96
  Z"
/>
<path d="
  M 597.21 371.87
  A 1.39 1.39 0.0 0 1 595.20 373.07
  C 587.41 369.16 580.69 365.18 576.76 356.86
  A 1.90 1.88 -56.4 0 1 576.58 355.93
  C 576.80 352.57 582.07 353.51 584.26 354.56
  Q 587.24 355.98 590.22 357.45
  A 6.31 6.26 78.9 0 1 591.58 358.37
  Q 594.15 360.68 596.07 363.68
  C 597.84 366.43 597.35 367.98 597.21 371.87
  Z"
/>
<ellipse cx="0.00" cy="0.00" transform="translate(534.51,358.73) rotate(-169.0)" rx="3.38" ry="3.07"/>
<path d="
  M 514.02 360.21
  L 514.79 361.41
  A 1.51 1.51 0.0 0 1 514.17 363.58
  Q 511.20 365.02 509.05 363.05
  A 1.15 1.14 50.1 0 1 509.21 361.24
  L 511.65 359.68
  A 1.72 1.72 0.0 0 1 514.02 360.21
  Z"
/>
<path d="
  M 647.20 373.64
  A 1.03 1.03 0.0 0 1 646.18 375.34
  Q 643.55 374.66 641.87 372.60
  C 641.58 372.25 641.51 371.73 641.63 371.34
  A 1.44 1.44 0.0 0 1 643.82 370.60
  Q 645.45 371.72 647.20 373.64
  Z"
/>
<path d="
  M 625.11 387.91
  C 623.37 389.52 622.09 393.88 618.71 392.70
  Q 615.27 391.49 612.25 390.96
  A 3.98 3.95 65.5 0 1 610.85 390.43
  C 607.15 388.15 599.80 380.84 606.25 376.89
  A 2.08 2.07 27.4 0 1 607.23 376.58
  C 610.99 376.36 614.45 375.51 618.00 377.55
  Q 623.25 380.55 625.37 386.93
  A 0.94 0.92 -30.6 0 1 625.11 387.91
  Z"
/>
<path d="
  M 573.98 382.92
  A 1.78 1.78 0.0 0 1 574.78 380.06
  L 576.83 379.39
  A 3.59 3.59 0.0 0 1 580.81 380.65
  L 584.25 385.24
  A 0.54 0.51 78.9 0 0 584.50 385.42
  C 585.47 385.76 586.58 385.51 587.48 385.78
  Q 591.86 387.07 594.26 390.74
  C 595.12 392.06 596.15 394.35 594.57 395.70
  Q 592.59 397.38 589.89 396.11
  Q 585.07 393.83 580.76 391.23
  C 578.61 389.93 578.23 387.61 576.70 385.94
  Q 575.15 384.25 573.98 382.92
  Z"
/>
<path d="
  M 514.47 383.91
  Q 515.34 381.04 518.71 380.46
  A 2.55 2.55 0.0 0 1 520.26 380.68
  C 524.04 382.50 529.71 384.23 526.91 388.87
  Q 524.43 392.96 519.50 392.98
  C 517.91 392.99 516.34 391.29 515.62 390.37
  Q 513.38 387.48 514.47 383.91
  Z"
/>
<path d="
  M 532.08 404.55
  Q 530.68 407.43 526.68 406.49
  Q 522.20 405.45 520.51 400.29
  A 3.56 2.54 64.5 0 1 521.12 396.84
  C 523.05 395.23 527.08 393.49 529.44 395.36
  Q 534.58 399.40 532.08 404.55
  Z"
/>
<path d="
  M 548.07 454.66
  C 546.92 451.47 546.19 448.92 542.55 448.69
  A 1.64 1.59 -23.7 0 1 541.66 448.36
  Q 539.32 446.62 539.24 444.51
  Q 539.00 437.83 536.03 434.13
  A 3.57 3.55 20.2 0 1 535.34 432.65
  Q 534.78 429.86 534.86 428.54
  C 535.04 425.87 532.96 423.12 533.13 420.77
  Q 533.32 418.30 534.86 413.14
  A 3.15 3.09 72.3 0 1 535.35 412.17
  C 536.69 410.42 538.45 408.36 540.43 406.81
  Q 542.53 405.16 543.39 403.11
  A 1.27 1.27 0.0 0 1 544.06 402.44
  L 550.70 399.59
  A 4.58 4.48 -74.3 0 0 551.62 399.06
  L 555.04 396.49
  A 1.65 1.61 -65.5 0 1 555.89 396.16
  Q 560.13 395.76 563.57 397.23
  A 3.91 3.89 39.1 0 0 567.33 396.85
  C 570.79 394.46 572.51 393.59 576.72 395.55
  A 1.86 1.86 0.0 0 1 577.64 396.50
  Q 578.68 398.93 580.02 399.84
  A 2.13 2.11 -27.3 0 0 581.17 400.20
  C 584.80 400.26 588.05 399.69 591.14 402.35
  A 4.33 4.26 73.5 0 0 592.62 403.17
  Q 596.61 404.45 598.45 406.87
  C 601.88 411.39 605.42 416.54 604.00 421.24
  Q 603.82 421.84 602.71 424.99
  A 0.55 0.53 39.1 0 0 602.77 425.47
  L 605.46 429.69
  A 3.30 3.30 0.0 0 1 605.66 432.86
  L 604.72 434.83
  A 1.09 0.98 63.8 0 0 604.63 435.15
  L 604.04 441.27
  A 3.47 3.47 0.0 0 1 602.56 443.80
  L 597.79 447.10
  A 2.53 2.49 0.5 0 0 597.16 447.71
  Q 594.97 450.63 592.24 452.33
  A 2.74 2.67 0.7 0 0 591.40 453.13
  Q 589.98 455.19 589.63 455.67
  Q 585.37 461.57 577.96 461.39
  C 576.03 461.34 574.65 462.87 573.07 463.29
  Q 570.69 463.94 567.50 463.92
  C 565.20 463.90 564.40 463.52 562.95 461.75
  Q 561.61 460.12 560.19 459.55
  A 3.01 2.90 -32.1 0 0 559.23 459.35
  C 554.45 459.23 549.65 459.03 548.07 454.66
  Z"
/>
<path d="
  M 523.63 426.84
  Q 522.96 428.39 519.95 431.35
  C 515.63 435.60 511.92 439.90 506.10 433.41
  C 504.69 431.84 504.72 429.76 506.14 428.23
  Q 507.03 427.27 507.38 426.72
  A 2.26 2.19 -27.9 0 0 507.70 425.73
  Q 507.94 421.62 511.50 419.07
  C 514.28 417.07 515.14 416.09 518.32 417.63
  Q 523.82 420.28 523.82 425.94
  A 2.23 2.23 0.0 0 1 523.63 426.84
  Z"
/>
<path d="
  M 683.73 431.77
  L 683.09 430.27
  A 0.54 0.53 -5.0 0 1 683.71 429.54
  Q 685.14 429.88 685.33 430.89
  C 686.27 435.82 690.45 436.77 692.62 440.89
  A 2.26 2.24 4.4 0 0 693.32 441.70
  Q 694.87 442.82 695.90 444.86
  C 699.39 451.77 702.85 459.32 703.38 466.13
  Q 703.77 471.03 704.32 475.36
  A 8.42 7.99 43.5 0 1 704.39 476.70
  Q 704.37 477.62 702.39 486.57
  Q 701.64 489.96 698.72 491.36
  A 2.10 2.09 -30.5 0 1 696.11 490.69
  L 693.97 487.67
  A 1.73 1.73 0.0 0 0 692.67 486.95
  Q 692.27 486.93 690.51 487.07
  C 688.32 487.25 686.67 486.49 685.26 484.66
  Q 676.86 473.68 676.80 460.56
  A 2.73 2.71 -61.6 0 0 676.37 459.09
  L 674.49 456.13
  A 4.52 4.50 -57.6 0 1 673.82 453.10
  L 675.63 439.98
  A 0.12 0.06 73.2 0 1 675.64 439.93
  Q 677.98 435.15 683.40 432.62
  A 0.66 0.65 -24.2 0 0 683.73 431.77
  Z"
/>
<path d="
  M 525.65 441.86
  Q 521.73 443.13 520.06 438.43
  A 1.56 1.56 0.0 0 1 521.03 436.43
  C 524.10 435.38 526.49 437.24 529.41 438.31
  A 0.31 0.30 53.0 0 1 529.33 438.90
  Q 527.20 439.03 526.44 441.10
  A 1.26 1.25 0.9 0 1 525.65 441.86
  Z"
/>
<path d="
  M 501.93 441.92
  Q 499.41 445.89 494.17 446.75
  A 2.14 1.99 47.1 0 1 493.21 446.68
  C 491.33 446.09 489.58 443.39 491.38 441.59
  Q 495.87 437.09 501.42 440.02
  A 1.35 1.34 30.1 0 1 501.93 441.92
  Z"
/>
<path d="
  M 505.01 442.52
  C 507.86 441.00 512.26 439.05 513.68 442.70
  A 1.29 1.29 0.0 0 1 513.35 444.13
  Q 510.20 446.98 506.50 447.43
  A 1.88 1.86 77.1 0 1 504.51 446.17
  Q 503.96 444.52 504.35 443.31
  A 1.37 1.36 85.0 0 1 505.01 442.52
  Z"
/>
<path d="
  M 510.96 452.33
  A 1.86 1.81 80.8 0 1 511.76 451.19
  L 519.43 446.30
  A 4.72 4.69 30.1 0 1 522.21 445.57
  Q 527.06 445.82 530.82 447.77
  A 4.49 4.33 -28.1 0 0 532.51 448.25
  Q 536.03 448.51 538.50 450.24
  A 3.15 3.05 88.7 0 1 539.24 450.97
  Q 542.77 455.94 545.06 460.69
  C 547.47 465.68 544.81 469.79 541.33 473.29
  Q 538.28 476.38 534.60 473.99
  A 1.69 1.69 0.0 0 0 532.15 474.71
  Q 530.60 478.09 526.75 477.44
  A 1.59 0.96 -13.9 0 1 526.49 477.36
  L 517.46 473.27
  A 2.77 2.77 0.0 0 1 516.53 472.57
  L 511.35 466.64
  A 3.36 3.31 17.3 0 1 510.62 465.27
  Q 509.26 459.94 510.96 452.33
  Z"
/>
<path d="
  M 463.88 453.43
  A 1.51 1.51 0.0 0 1 463.48 451.39
  Q 464.95 449.07 467.40 447.74
  A 1.69 1.44 -63.5 0 1 467.73 447.60
  L 474.59 445.68
  A 1.90 1.87 -38.5 0 1 476.00 445.83
  Q 478.24 447.01 479.73 449.77
  A 1.03 1.03 0.0 0 1 479.51 451.03
  Q 476.14 454.06 474.44 454.73
  Q 468.86 456.92 463.88 453.43
  Z"
/>
<path d="
  M 652.26 462.61
  C 648.89 463.29 647.30 457.79 646.86 455.27
  A 3.77 3.75 -30.3 0 1 647.66 452.25
  L 650.60 448.68
  A 1.10 1.09 17.9 0 1 651.37 448.29
  C 653.00 448.16 654.05 448.19 654.86 449.91
  Q 657.92 456.38 653.24 462.03
  A 1.74 1.74 0.0 0 1 652.26 462.61
  Z"
/>
<path d="
  M 620.83 532.34
  A 3.27 3.26 46.0 0 1 617.07 532.27
  Q 614.55 530.42 612.62 530.23
  Q 610.55 530.03 605.06 531.65
  A 2.82 2.79 41.8 0 1 603.72 531.72
  C 598.66 530.79 595.98 526.57 592.21 521.75
  A 3.33 3.19 86.5 0 0 591.44 521.04
  Q 590.09 520.13 587.98 519.08
  Q 587.30 518.74 584.19 515.35
  A 3.68 3.67 14.9 0 1 583.45 514.08
  Q 582.73 511.84 580.73 508.11
  Q 580.29 507.30 580.66 504.01
  A 2.13 2.11 37.9 0 0 580.53 503.00
  C 578.81 498.69 578.48 494.45 577.04 490.04
  C 575.95 486.72 576.62 482.05 579.87 480.13
  Q 581.09 479.41 580.96 477.73
  Q 580.66 473.65 581.50 471.13
  A 3.69 3.39 -21.6 0 1 581.93 470.24
  Q 585.83 464.39 591.07 463.46
  A 2.43 2.41 14.9 0 0 592.52 462.63
  C 595.00 459.63 596.91 455.77 601.09 453.65
  C 605.19 451.57 608.39 450.16 612.31 452.98
  A 1.86 1.86 0.0 0 0 614.22 453.13
  C 622.34 449.08 626.48 449.93 633.93 454.98
  A 2.62 2.56 -25.8 0 0 635.24 455.42
  C 638.34 455.59 639.24 454.15 642.37 457.36
  C 644.99 460.05 645.12 461.97 645.29 465.57
  A 2.31 2.28 26.7 0 0 645.69 466.76
  Q 647.14 468.86 646.87 471.07
  A 1.48 1.48 0.0 0 0 647.36 472.37
  L 650.05 474.78
  A 4.44 4.37 9.2 0 1 651.12 476.24
  Q 651.69 477.48 651.66 480.27
  A 3.09 3.04 24.3 0 0 652.49 482.41
  Q 655.63 485.81 654.38 491.33
  A 3.01 2.98 -26.3 0 1 654.18 491.91
  C 652.54 495.57 653.54 497.44 654.34 500.05
  A 1.67 1.65 -44.7 0 1 654.33 501.07
  Q 652.42 506.90 650.77 508.44
  Q 647.25 511.73 645.61 516.76
  Q 644.24 520.94 640.43 523.57
  A 1.42 1.40 21.0 0 1 639.90 523.80
  L 634.61 525.10
  A 1.01 0.99 -74.9 0 0 634.10 525.40
  Q 630.54 529.23 628.06 529.62
  Q 623.86 530.29 620.83 532.34
  Z"
/>
<path d="
  M 459.08 517.17
  A 2.68 2.64 -13.3 0 1 457.49 516.20
  L 454.09 511.79
  A 1.37 1.37 0.0 0 1 453.80 511.04
  L 453.67 509.57
  A 2.68 2.68 0.0 0 0 453.11 508.12
  Q 452.69 507.54 448.12 501.40
  C 446.95 499.83 446.74 498.17 447.09 496.13
  Q 447.72 492.37 448.39 486.92
  Q 448.86 483.02 453.24 478.76
  A 6.72 6.66 -8.8 0 0 454.53 477.01
  Q 456.88 472.46 462.36 467.43
  A 4.88 4.84 -79.9 0 1 463.37 466.72
  Q 467.04 464.81 470.06 461.66
  Q 471.42 460.25 475.03 459.82
  Q 482.74 458.91 483.81 458.72
  A 2.37 2.34 -36.7 0 1 485.24 458.92
  L 488.02 460.24
  A 1.81 1.75 57.4 0 0 488.73 460.41
  Q 494.69 460.73 499.45 464.74
  A 3.15 3.05 -14.9 0 0 500.49 465.32
  L 504.38 466.61
  A 2.82 2.60 69.2 0 1 505.06 466.95
  C 508.95 469.59 509.19 473.50 508.11 477.79
  A 1.66 1.65 -68.1 0 0 508.88 479.61
  C 513.08 482.07 514.13 486.58 514.98 491.48
  C 515.65 495.40 514.05 497.66 511.44 500.45
  A 5.23 5.19 75.0 0 0 510.26 502.51
  C 509.81 504.07 510.26 506.56 509.74 508.75
  Q 508.42 514.32 502.73 514.12
  A 2.77 2.76 16.6 0 0 500.26 515.45
  Q 496.94 520.91 490.89 523.17
  Q 490.00 523.50 486.65 522.80
  A 2.57 2.53 -39.7 0 0 485.94 522.74
  L 480.31 522.97
  A 1.66 1.60 56.3 0 1 479.49 522.79
  Q 476.07 520.99 472.45 522.64
  A 3.59 3.59 0.0 0 1 468.36 521.84
  Q 465.01 518.29 459.08 517.17
  Z"
/>
<path d="
  M 662.63 464.52
  A 1.11 1.11 0.0 0 1 663.68 463.36
  L 664.19 463.33
  A 3.38 3.30 -3.0 0 1 667.73 466.45
  L 667.74 466.57
  A 3.38 3.30 -3.0 0 1 664.54 470.04
  L 664.03 470.07
  A 1.11 1.11 0.0 0 1 662.86 469.02
  L 662.63 464.52
  Z"
/>
<path d="
  M 555.39 468.41
  C 556.89 469.96 556.83 472.42 558.68 473.97
  Q 559.45 474.61 560.39 476.11
  A 1.62 1.61 31.3 0 1 560.62 477.04
  Q 560.24 482.35 554.38 482.10
  A 1.23 1.19 -21.9 0 1 553.62 481.79
  L 551.25 479.61
  A 2.24 2.23 -53.0 0 1 550.86 476.80
  L 553.15 473.09
  A 1.98 1.76 68.3 0 0 553.39 472.43
  L 554.00 468.85
  A 0.82 0.82 0.0 0 1 555.39 468.41
  Z"
/>
<path d="
  M 431.56 479.07
  Q 432.97 479.51 432.99 479.56
  A 2.70 2.46 -22.9 0 1 431.45 482.90
  Q 429.65 483.65 427.95 480.96
  A 0.90 0.90 0.0 0 1 428.31 479.68
  L 429.82 478.92
  A 0.57 0.56 59.2 0 0 430.02 478.10
  C 428.39 475.77 426.37 474.51 428.84 471.56
  C 432.47 467.21 438.27 474.40 431.48 478.31
  A 0.42 0.42 0.0 0 0 431.56 479.07
  Z"
/>
<path d="
  M 664.31 488.65
  Q 664.38 486.86 665.03 485.72
  A 1.63 1.63 0.0 0 1 667.41 485.22
  C 669.86 487.03 673.48 489.69 672.25 493.47
  A 1.13 1.12 -69.5 0 1 670.74 494.16
  Q 666.71 492.43 664.61 489.61
  A 1.53 1.50 28.1 0 1 664.31 488.65
  Z"
/>
<path d="
  M 656.66 512.02
  Q 653.60 507.77 655.84 502.46
  Q 657.29 499.00 658.78 497.58
  C 661.12 495.35 663.63 497.48 664.94 499.92
  A 2.58 2.56 30.7 0 1 665.26 501.16
  Q 665.28 505.84 663.02 508.65
  Q 662.69 509.06 657.82 512.23
  A 0.86 0.86 0.0 0 1 656.66 512.02
  Z"
/>
<path d="
  M 449.27 512.95
  L 447.45 514.11
  A 0.57 0.57 0.0 0 1 446.58 513.73
  Q 446.24 511.79 444.52 512.16
  A 1.05 1.04 6.6 0 0 443.81 512.72
  L 442.58 515.32
  A 1.34 1.34 0.0 0 1 441.88 515.99
  C 439.29 517.11 437.90 513.94 435.89 513.00
  Q 431.43 510.94 430.44 505.46
  A 2.03 2.02 -33.4 0 1 430.76 503.93
  C 432.86 500.81 435.90 499.49 439.28 501.53
  C 441.55 502.90 443.52 501.94 445.67 505.35
  Q 447.79 508.72 449.57 511.67
  A 0.94 0.93 58.3 0 1 449.27 512.95
  Z"
/>
<path d="
  M 688.74 502.60
  Q 688.50 502.80 688.28 502.72
  A 1.13 1.08 -40.2 0 1 688.50 500.61
  Q 688.78 500.55 688.89 500.68
  A 1.37 1.35 49.9 0 1 688.74 502.60
  Z"
/>
<path d="
  M 686.01 566.51
  A 0.53 0.53 0.0 0 1 685.10 566.10
  Q 685.20 564.53 684.67 562.82
  A 1.05 1.04 0.6 0 0 684.00 562.14
  Q 682.01 561.45 680.17 559.94
  A 0.87 0.87 0.0 0 0 678.95 560.05
  C 676.50 562.92 673.88 565.79 669.85 563.20
  A 0.53 0.53 0.0 0 0 669.03 563.64
  L 669.03 566.20
  A 0.97 0.97 0.0 0 0 669.72 567.13
  Q 670.62 567.41 671.62 567.40
  A 2.63 2.62 -1.1 0 1 674.26 569.93
  C 674.46 575.44 674.40 579.10 672.81 584.62
  A 2.87 2.77 -18.4 0 1 672.26 585.67
  Q 670.55 587.74 668.90 590.39
  C 666.18 594.78 662.68 597.44 657.68 599.21
  Q 654.79 600.23 653.00 598.78
  C 649.99 596.33 651.73 592.70 651.65 590.05
  Q 651.58 587.80 649.71 585.44
  A 1.85 1.84 -6.0 0 0 649.04 584.90
  L 645.13 583.05
  A 1.53 1.48 -2.8 0 1 644.55 582.54
  C 643.01 580.15 644.99 575.15 645.94 573.01
  A 4.15 4.09 76.2 0 1 646.51 572.05
  Q 650.21 567.26 651.30 566.04
  C 653.67 563.38 656.98 562.96 659.80 562.15
  A 0.77 0.76 67.9 0 0 660.26 561.05
  Q 658.92 558.56 655.72 556.47
  A 1.50 1.50 0.0 0 1 655.04 555.31
  C 654.88 553.29 654.60 551.93 653.53 549.88
  Q 651.98 546.94 651.54 544.36
  A 4.71 4.56 -41.9 0 1 651.69 542.22
  Q 652.86 538.47 652.35 534.06
  A 5.68 5.56 -39.4 0 1 652.62 531.57
  Q 653.93 527.80 654.67 524.19
  Q 655.69 519.19 660.32 518.09
  A 1.53 1.50 89.2 0 0 661.46 516.90
  Q 662.11 513.51 663.74 512.03
  A 1.96 1.94 -13.7 0 0 664.29 511.14
  Q 665.59 506.66 668.18 505.41
  Q 672.81 503.17 676.21 506.77
  A 0.83 0.83 0.0 0 0 677.38 506.81
  Q 681.05 503.39 685.07 507.05
  Q 687.32 509.09 690.10 511.00
  A 5.34 5.32 10.0 0 1 692.25 514.06
  Q 693.51 518.92 695.48 522.11
  A 1.51 1.37 30.8 0 1 695.70 522.83
  L 695.89 530.43
  A 0.81 0.81 0.0 0 0 697.29 530.95
  L 697.85 530.34
  A 2.40 2.38 -22.2 0 0 698.48 528.86
  L 698.93 521.88
  A 4.36 4.36 0.0 0 1 699.38 520.23
  Q 700.66 517.66 701.60 513.94
  Q 701.96 512.54 703.05 512.17
  A 1.13 1.05 -15.5 0 1 704.50 512.92
  Q 705.16 516.03 704.01 518.04
  A 3.27 3.23 -31.2 0 0 703.59 519.71
  C 703.66 523.67 703.78 527.55 701.06 530.67
  A 1.63 1.62 -23.3 0 0 700.67 531.64
  Q 700.42 536.30 699.61 538.10
  Q 697.12 543.62 695.81 547.86
  A 2.56 2.49 75.5 0 1 695.24 548.86
  Q 693.69 550.57 692.54 552.68
  C 691.01 555.48 685.05 558.55 687.80 561.96
  A 1.33 1.32 -54.0 0 1 688.00 563.26
  Q 687.23 565.28 686.01 566.51
  Z"
/>
<path d="
  M 453.92 522.57
  A 0.64 0.63 49.8 0 0 455.08 522.67
  C 457.44 518.34 461.87 521.21 464.34 523.42
  A 3.56 3.53 23.1 0 1 465.51 526.30
  Q 465.44 527.26 464.85 530.89
  C 463.72 537.96 450.76 534.98 450.67 529.13
  A 0.44 0.43 77.0 0 0 450.05 528.74
  Q 447.02 530.20 444.58 528.30
  A 2.50 2.42 31.3 0 1 443.81 525.35
  Q 445.09 522.52 444.83 517.99
  A 1.42 1.42 0.0 0 1 446.73 516.57
  Q 448.83 517.33 452.21 517.78
  C 454.10 518.03 455.14 519.60 454.42 521.34
  Q 453.92 522.55 453.92 522.57
  Z"
/>
<path d="
  M 526.24 523.94
  A 0.48 0.48 0.0 0 1 526.39 524.84
  Q 524.70 525.71 523.80 527.15
  A 2.90 2.88 -60.7 0 1 520.05 528.22
  Q 515.93 526.17 518.52 522.15
  A 2.78 2.65 -57.8 0 1 522.19 521.22
  Q 523.02 521.73 524.62 523.57
  A 0.57 0.57 0.0 0 0 524.97 523.76
  L 526.24 523.94
  Z"
/>
<path d="
  M 515.17 533.77
  Q 513.89 534.40 512.91 533.86
  A 1.32 1.32 0.0 0 1 512.29 533.07
  Q 511.51 530.19 513.07 529.44
  Q 514.62 528.68 516.40 531.07
  A 1.32 1.32 0.0 0 1 516.64 532.05
  Q 516.46 533.15 515.17 533.77
  Z"
/>
<path d="
  M 473.83 536.59
  C 472.92 534.03 474.36 532.28 475.96 530.16
  Q 476.42 529.53 477.12 529.54
  A 3.07 2.72 0.5 0 1 480.13 532.26
  C 480.14 535.74 479.34 540.25 474.53 537.45
  A 1.59 1.59 0.0 0 1 473.83 536.59
  Z"
/>
<path d="
  M 433.82 535.72
  A 1.71 1.71 0.0 0 1 432.56 533.67
  L 433.25 530.87
  A 1.14 1.14 0.0 0 1 434.90 530.14
  Q 437.44 531.53 437.03 534.79
  A 1.50 1.50 0.0 0 1 435.19 536.06
  L 433.82 535.72
  Z"
/>
<path d="
  M 530.06 530.68
  Q 530.87 531.83 530.72 532.86
  A 0.80 0.70 37.3 0 1 529.31 532.96
  Q 529.00 532.41 529.41 530.80
  A 0.37 0.36 -55.4 0 1 530.06 530.68
  Z"
/>
<path d="
  M 603.79 553.32
  L 601.17 556.50
  A 0.96 0.37 -20.8 0 1 601.08 556.58
  C 597.08 559.13 590.75 561.94 586.82 558.20
  A 2.25 2.23 -78.3 0 1 586.25 557.32
  Q 585.58 555.30 583.53 552.35
  C 581.31 549.16 583.50 543.07 586.14 540.67
  C 589.60 537.52 595.85 531.39 598.84 537.10
  A 2.40 2.39 -13.7 0 0 600.97 538.39
  L 606.45 538.39
  A 1.45 1.43 -15.8 0 1 607.67 539.06
  L 609.05 541.22
  A 1.87 1.86 -16.7 0 0 610.66 542.08
  Q 612.81 542.04 615.35 543.13
  A 0.87 0.80 13.6 0 0 616.55 542.46
  Q 616.58 541.74 617.14 541.47
  Q 617.66 541.21 618.30 541.80
  C 621.01 544.33 620.59 548.10 620.29 550.91
  A 1.07 1.06 -73.6 0 1 618.76 551.75
  C 616.55 550.64 613.33 554.05 611.51 555.66
  A 1.73 1.71 39.0 0 1 609.51 555.86
  L 604.80 553.14
  A 0.80 0.80 0.0 0 0 603.79 553.32
  Z"
/>
<path d="
  M 480.73 598.06
  L 475.38 602.74
  A 3.74 3.73 16.3 0 1 473.97 603.51
  C 471.13 604.36 468.02 604.12 465.16 605.74
  C 462.82 607.05 459.99 606.77 457.27 605.58
  Q 454.16 604.21 449.64 604.73
  Q 447.29 605.00 445.43 603.62
  Q 441.75 600.90 437.68 600.40
  A 5.06 5.03 -22.5 0 1 435.22 599.39
  Q 430.25 595.56 428.25 591.74
  Q 423.90 583.44 421.84 579.32
  A 6.92 6.87 26.4 0 1 421.24 577.56
  Q 420.59 574.41 419.32 571.85
  A 4.87 4.82 -51.9 0 1 418.94 568.58
  L 422.80 552.01
  A 2.45 2.42 73.5 0 1 423.39 550.91
  Q 427.66 546.37 432.47 544.44
  Q 434.75 543.53 436.96 541.77
  Q 441.90 537.85 449.26 536.23
  C 451.99 535.63 453.00 537.05 454.76 538.31
  A 1.52 1.50 60.6 0 0 455.71 538.58
  Q 459.29 538.36 462.25 538.62
  C 465.35 538.89 467.73 540.68 469.68 542.36
  A 2.95 2.94 68.3 0 0 471.27 543.05
  Q 474.35 543.41 477.14 545.41
  C 478.92 546.68 481.50 547.09 482.90 548.61
  Q 486.32 552.29 487.53 555.96
  C 488.20 557.99 487.57 560.88 487.42 562.73
  A 1.81 1.79 -63.9 0 0 487.87 564.07
  L 491.56 568.29
  A 3.64 3.64 0.0 0 1 492.42 570.21
  Q 492.99 574.76 490.19 579.90
  A 0.68 0.68 0.0 0 0 490.11 580.22
  L 490.11 586.54
  A 0.99 0.97 -28.2 0 1 489.94 587.09
  Q 487.64 590.64 485.86 591.89
  Q 481.80 594.76 481.30 597.09
  A 1.76 1.75 -14.8 0 1 480.73 598.06
  Z"
/>
<path d="
  M 631.81 550.71
  Q 631.07 548.12 630.96 545.49
  C 630.89 543.55 632.24 539.13 634.97 539.85
  Q 636.87 540.35 637.89 541.13
  C 639.64 542.48 638.91 546.18 637.74 547.85
  Q 636.33 549.85 633.39 551.38
  A 1.11 1.11 0.0 0 1 631.81 550.71
  Z"
/>
<ellipse cx="0.00" cy="0.00" transform="translate(577.77,562.64) rotate(-136.2)" rx="2.05" ry="0.95"/>
<path d="
  M 361.93 578.01
  A 0.74 0.73 17.2 0 1 361.07 578.46
  Q 359.68 578.13 357.58 576.76
  C 354.43 574.69 356.79 569.44 358.64 567.40
  Q 359.85 566.06 361.94 566.76
  Q 366.17 568.18 364.15 572.77
  Q 362.67 576.12 361.93 578.01
  Z"
/>
<ellipse cx="0.00" cy="0.00" transform="translate(637.97,571.76) rotate(-73.9)" rx="3.80" ry="1.79"/>
<path d="
  M 589.76 574.74
  L 589.76 572.84
  A 1.92 1.91 -9.7 0 1 591.05 571.03
  Q 592.82 570.42 594.18 570.12
  Q 595.08 569.92 595.45 570.85
  C 596.29 572.98 592.57 574.94 590.96 575.56
  A 0.88 0.88 0.0 0 1 589.76 574.74
  Z"
/>
<path d="
  M 627.64 578.73
  C 628.98 581.26 629.45 584.78 628.48 587.80
  Q 627.85 589.78 627.70 590.86
  C 627.23 594.33 624.90 597.16 621.89 599.40
  Q 619.57 601.13 618.27 601.34
  A 3.44 3.44 0.0 0 1 616.92 601.29
  Q 614.32 600.64 613.77 600.79
  C 610.97 601.55 607.94 601.89 606.54 599.06
  A 1.10 1.09 44.7 0 1 606.53 598.10
  L 607.47 596.13
  A 4.18 4.16 -30.8 0 0 607.85 594.64
  C 608.26 588.56 607.70 584.31 611.56 580.51
  Q 615.37 576.76 621.44 576.40
  Q 625.51 576.16 627.09 577.93
  A 4.41 4.35 10.9 0 1 627.64 578.73
  Z"
/>
<rect x="-3.33" y="-3.64" transform="translate(523.16,581.88) rotate(44.5)" width="6.66" height="7.28" rx="2.76"/>
<path d="
  M 604.08 595.25
  A 0.61 0.61 0.0 0 1 603.01 595.75
  Q 601.44 593.86 599.89 593.05
  A 2.18 2.18 0.0 0 1 598.75 591.46
  Q 597.57 583.92 603.11 580.29
  A 2.27 2.23 79.1 0 0 604.08 578.83
  L 604.12 578.61
  A 0.93 0.92 -62.8 0 1 605.67 578.11
  Q 607.16 579.53 607.63 581.21
  A 0.69 0.69 0.0 0 1 607.21 582.03
  C 605.29 582.77 605.70 585.68 604.84 587.34
  Q 603.21 590.52 604.08 595.25
  Z"
/>
<path d="
  M 354.02 602.76
  A 0.79 0.79 0.0 0 1 352.69 603.41
  Q 351.13 601.95 348.47 599.79
  Q 343.94 596.10 341.16 590.63
  Q 339.03 586.42 340.88 582.42
  A 1.53 1.53 0.0 0 1 343.38 582.00
  Q 346.45 585.23 349.76 590.59
  Q 353.43 596.57 354.02 602.76
  Z"
/>
<path d="
  M 636.82 595.74
  L 634.32 596.82
  A 1.16 1.16 0.0 0 1 632.71 595.59
  L 633.48 589.97
  A 3.12 3.10 82.4 0 1 635.34 587.53
  L 637.51 586.60
  A 1.34 1.33 -3.0 0 1 639.32 588.22
  L 637.07 595.48
  A 0.41 0.41 0.0 0 1 636.82 595.74
  Z"
/>
<path d="
  M 590.29 589.68
  L 590.31 589.70
  A 0.52 0.52 0.0 0 1 590.38 590.36
  Q 589.50 591.67 588.14 591.90
  A 1.09 1.09 0.0 0 0 587.34 592.49
  Q 586.23 594.74 583.75 594.92
  A 0.58 0.57 5.9 0 1 583.15 594.19
  Q 583.25 593.88 583.66 593.66
  Q 586.93 591.91 589.77 589.65
  A 0.39 0.39 0.0 0 1 590.29 589.68
  Z"
/>
<path d="
  M 497.41 610.90
  Q 497.33 610.93 497.24 610.98
  C 492.14 613.45 482.15 612.97 481.99 605.17
  A 2.91 2.86 -36.5 0 1 482.15 604.17
  C 483.40 600.52 486.83 595.99 490.72 594.41
  C 494.61 592.83 500.23 593.69 503.68 595.44
  A 2.91 2.86 -7.6 0 1 504.48 596.04
  C 509.80 601.75 502.97 609.06 497.59 610.83
  Q 497.49 610.87 497.41 610.90
  Z"
/>
<rect x="-4.22" y="-0.71" transform="translate(578.38,596.90) rotate(-29.4)" width="8.44" height="1.42" rx="0.66"/>
<path d="
  M 637.48 596.84
  Q 638.27 598.37 637.86 600.03
  A 1.67 1.63 18.7 0 0 638.83 601.94
  Q 639.84 602.38 640.34 602.60
  C 642.24 603.47 641.06 606.73 640.14 607.85
  A 1.83 1.83 0.0 0 1 637.40 607.97
  Q 635.69 606.18 633.96 604.75
  C 630.98 602.29 636.29 599.56 637.02 596.89
  A 0.25 0.25 0.0 0 1 637.48 596.84
  Z"
/>
<path d="
  M 417.99 622.17
  C 416.55 620.73 414.99 617.94 416.75 616.23
  Q 418.52 614.51 419.04 613.96
  A 0.96 0.95 -45.7 0 0 419.03 612.62
  L 417.43 611.00
  A 0.96 0.89 19.6 0 1 417.19 610.54
  Q 416.60 607.52 419.01 603.71
  A 2.14 2.14 0.0 0 1 421.25 602.76
  Q 428.81 604.32 430.49 611.20
  A 3.76 3.71 -71.2 0 0 431.17 612.61
  Q 436.94 619.94 437.12 620.16
  C 440.52 624.13 439.51 633.48 432.29 631.75
  Q 426.75 630.42 424.30 628.15
  Q 419.92 624.10 417.99 622.17
  Z"
/>
<path d="
  M 566.40 605.23
  A 0.63 0.63 0.0 0 0 566.06 606.17
  L 568.54 610.08
  A 0.77 0.76 35.9 0 1 568.64 610.68
  Q 567.91 613.68 565.28 614.95
  A 1.37 1.35 -46.7 0 1 564.21 614.99
  Q 558.85 612.94 560.69 607.44
  A 2.25 2.22 83.1 0 1 561.62 606.24
  C 564.17 604.61 566.83 602.56 568.47 603.59
  A 0.56 0.56 0.0 0 1 568.34 604.59
  L 566.40 605.23
  Z"
/>
<path d="
  M 448.02 617.87
  Q 445.11 620.68 441.19 615.95
  A 2.05 2.05 0.0 0 1 441.67 612.92
  L 442.28 612.54
  A 2.16 2.15 -35.6 0 1 445.13 613.01
  L 448.09 616.69
  A 0.88 0.88 0.0 0 1 448.02 617.87
  Z"
/>
<path d="
  M 633.37 626.08
  A 0.19 0.19 0.0 0 1 633.11 626.16
  L 632.71 625.95
  A 2.82 1.60 -61.7 0 1 632.64 622.71
  L 634.57 619.13
  A 2.82 1.60 -61.7 0 1 637.31 617.41
  L 637.71 617.62
  A 0.19 0.19 0.0 0 1 637.79 617.88
  L 633.37 626.08
  Z"
/>
<ellipse cx="0.00" cy="0.00" transform="translate(369.04,622.73) rotate(-140.6)" rx="6.10" ry="1.21"/>
<path d="
  M 444.28 625.20
  Q 446.33 623.63 447.91 624.95
  Q 451.14 627.63 449.21 630.73
  A 1.21 1.21 0.0 0 0 449.32 632.17
  C 450.53 633.55 451.21 634.87 450.36 636.65
  C 448.31 640.92 442.45 635.89 440.76 633.53
  A 1.38 1.38 0.0 0 1 441.14 631.57
  L 442.33 630.81
  A 1.31 1.31 0.0 0 0 442.91 629.99
  L 443.88 625.82
  A 1.11 1.10 -12.4 0 1 444.28 625.20
  Z"
/>
<path d="
  M 385.21 630.54
  A 0.13 0.13 0.0 0 1 385.19 630.72
  L 385.15 630.75
  A 2.63 2.38 52.7 0 1 381.66 630.10
  L 381.46 629.85
  A 2.63 2.38 52.7 0 1 381.76 626.31
  L 381.80 626.28
  A 0.13 0.13 0.0 0 1 381.99 626.31
  L 385.21 630.54
  Z"
/>
<path d="
  M 614.38 639.60
  L 620.16 633.29
  A 1.91 1.91 0.0 0 1 621.69 632.68
  Q 624.46 632.89 627.10 630.09
  A 3.73 3.40 -56.7 0 1 630.96 629.10
  Q 631.56 629.33 631.63 630.99
  C 631.72 633.33 628.80 636.12 626.97 637.62
  C 625.35 638.95 624.54 639.09 622.53 638.38
  Q 621.22 637.92 620.49 638.52
  Q 618.15 640.46 615.42 641.27
  A 1.02 1.02 0.0 0 1 614.38 639.60
  Z"
/>
<path d="
  M 571.83 649.48
  A 1.56 1.56 0.0 0 1 571.02 646.98
  L 581.46 634.31
  A 3.19 3.15 7.0 0 1 582.55 633.47
  Q 590.82 629.62 593.70 629.51
  Q 597.36 629.36 598.27 632.60
  A 2.16 2.15 -41.4 0 1 598.18 634.01
  C 595.05 641.48 591.56 644.11 584.29 647.41
  A 4.75 4.72 31.6 0 1 582.46 647.84
  Q 579.77 647.91 578.95 648.44
  Q 575.78 650.50 571.83 649.48
  Z"
/>
<path d="
  M 394.69 636.24
  A 1.40 1.39 64.7 0 1 395.29 634.55
  C 400.68 631.45 405.13 634.00 410.25 636.91
  C 414.91 639.56 418.33 643.32 422.08 646.64
  Q 426.03 650.13 428.80 655.67
  A 1.22 1.21 67.3 0 1 428.11 657.36
  C 424.55 658.58 420.76 658.35 417.32 656.95
  C 414.96 655.98 413.39 655.72 411.55 654.61
  Q 404.75 650.50 399.49 644.84
  C 397.12 642.28 395.66 638.85 394.69 636.24
  Z"
/>
<path d="
  M 523.16 637.20
  A 0.49 0.49 0.0 0 1 523.02 638.06
  L 519.68 639.14
  A 1.06 1.06 0.0 0 1 518.30 638.19
  L 518.29 637.87
  A 1.36 1.36 0.0 0 1 519.61 636.40
  Q 522.00 636.34 523.16 637.20
  Z"
/>
<path d="
  M 478.11 643.36
  A 0.30 0.30 0.0 0 1 478.10 643.90
  Q 476.89 644.43 473.91 645.01
  Q 466.69 646.40 462.27 641.00
  A 0.65 0.65 0.0 0 1 462.58 639.97
  L 467.04 638.52
  A 1.38 1.36 -41.2 0 1 468.05 638.58
  L 478.11 643.36
  Z"
/>
<ellipse cx="0.00" cy="0.00" transform="translate(614.03,657.71) rotate(-35.3)" rx="2.59" ry="0.88"/>
<path d="
  M 608.54 659.19
  A 0.20 0.20 0.0 0 1 608.50 659.47
  L 608.10 659.77
  A 3.88 0.53 -37.6 0 1 604.70 661.72
  L 604.55 661.51
  A 3.88 0.53 -37.6 0 1 607.30 658.73
  L 607.69 658.42
  A 0.20 0.20 0.0 0 1 607.97 658.46
  L 608.54 659.19
  Z"
/>
<path d="
  M 474.94 684.23
  A 0.48 0.47 -57.0 0 1 475.08 684.92
  L 475.05 684.97
  A 0.52 0.51 -56.3 0 1 474.37 685.11
  Q 471.89 683.63 469.53 684.13
  A 1.98 1.90 -38.5 0 1 468.36 684.02
  Q 466.45 683.23 465.84 680.93
  A 1.01 1.00 -1.0 0 1 467.04 679.69
  L 469.43 680.25
  A 0.89 0.88 -5.7 0 1 470.02 680.73
  C 471.31 683.49 472.95 683.06 474.94 684.23
  Z"
/>
<ellipse cx="0.00" cy="0.00" transform="translate(505.78,687.64) rotate(-0.7)" rx="6.42" ry="2.00"/>
</g>
<g fill="#98663b">
<ellipse cx="0.00" cy="0.00" transform="translate(501.69,419.59) rotate(-0.4)" rx="2.00" ry="1.38"/>
<ellipse cx="0.00" cy="0.00" transform="translate(558.30,529.66) rotate(-116.0)" rx="1.97" ry="0.76"/>
</g>
<g fill="#fef7d9">
<path d="
  M 385.80 443.95
  L 385.80 444.31
  A 0.41 0.40 73.5 0 1 385.62 444.65
  C 383.03 446.46 379.05 450.16 382.28 453.27
  Q 384.28 455.20 385.47 458.52
  Q 385.73 459.26 385.33 460.81
  A 1.03 1.01 27.4 0 0 385.67 461.86
  L 388.53 464.22
  A 0.39 0.38 -23.0 0 1 388.25 464.90
  Q 380.94 464.36 381.55 471.61
  A 1.40 1.39 -9.3 0 1 380.48 473.09
  Q 379.46 473.34 378.58 473.90
  A 1.38 1.37 -12.3 0 0 377.96 474.86
  Q 377.38 478.70 378.87 481.20
  A 1.71 1.70 81.9 0 0 379.86 481.95
  C 382.85 482.82 384.85 487.38 384.57 489.93
  A 0.86 0.85 18.0 0 0 385.01 490.78
  Q 386.18 491.41 387.85 491.01
  A 0.84 0.84 0.0 0 0 388.47 490.39
  L 388.80 488.95
  A 0.71 0.70 11.3 0 1 389.61 488.42
  Q 391.05 488.68 392.62 489.83
  A 0.68 0.68 0.0 0 1 392.34 491.05
  L 388.78 491.67
  A 1.38 1.37 14.3 0 0 387.96 492.15
  L 383.47 497.58
  A 1.65 1.63 67.7 0 0 383.11 498.45
  L 382.72 501.87
  A 1.53 1.52 73.6 0 1 382.18 502.87
  Q 378.97 505.51 377.10 509.01
  A 0.57 0.57 0.0 0 1 376.06 508.94
  Q 374.72 505.29 371.98 502.26
  A 1.50 1.46 -65.3 0 1 371.60 501.19
  C 371.65 499.94 372.57 498.86 371.45 497.76
  Q 369.05 495.40 369.61 493.01
  Q 370.68 488.45 372.83 485.09
  A 4.38 4.36 -28.1 0 0 373.52 482.84
  C 373.62 477.65 374.07 475.25 373.68 470.98
  Q 373.51 469.13 373.85 466.26
  Q 374.02 464.76 372.44 460.81
  A 7.65 7.10 -64.7 0 1 372.06 459.61
  Q 371.40 456.77 371.48 455.51
  Q 371.59 453.52 370.63 444.19
  Q 370.40 441.92 368.06 440.22
  C 367.43 439.76 367.09 439.13 367.27 438.43
  A 1.95 1.95 0.0 0 1 369.42 437.01
  Q 369.99 437.09 373.71 437.74
  A 1.94 1.93 68.4 0 1 374.56 438.11
  Q 375.73 439.00 376.41 440.23
  A 1.21 1.20 41.3 0 1 376.48 441.26
  Q 375.50 443.66 375.59 447.48
  A 2.33 1.97 -87.9 0 0 377.33 449.70
  Q 379.10 449.91 380.44 446.28
  A 2.63 2.63 0.0 0 1 382.38 444.62
  Q 383.66 444.35 385.07 443.53
  A 0.49 0.48 74.8 0 1 385.80 443.95
  Z"
/>
<path d="
  M 389.26 479.46
  L 389.26 475.85
  A 0.95 0.95 0.0 0 1 390.42 474.92
  L 396.04 476.23
  A 0.84 0.84 0.0 0 1 395.99 477.88
  C 394.29 478.18 391.90 477.81 389.84 479.72
  A 0.35 0.35 0.0 0 1 389.26 479.46
  Z"
/>
</g>
</svg>
