<?xml version="1.0" encoding="UTF-8" standalone="no"?>
<!DOCTYPE svg PUBLIC "-//W3C//DTD SVG 1.1//EN" "http://www.w3.org/Graphics/SVG/1.1/DTD/svg11.dtd">
<svg xmlns="http://www.w3.org/2000/svg" version="1.1" viewBox="0.00 0.00 1024.00 1024.00">
<path fill="#ffffff" d="
  M 1024.00 0.00
  L 1024.00 1024.00
  L 0.00 1024.00
  L 0.00 0.00
  L 1024.00 0.00
  Z"
/>
<path fill="#e2c386" d="
  M 828.26 498.38
  C 828.01 532.77 822.21 566.68 811.13 597.53
  Q 783.51 674.45 722.87 727.91
  Q 687.87 758.77 643.95 778.58
  C 584.43 805.43 516.81 812.22 453.05 799.11
  Q 397.71 787.73 349.28 757.02
  Q 302.01 727.04 267.02 680.94
  C 226.10 627.03 204.16 561.41 204.67 493.75
  C 205.17 426.09 228.07 360.80 269.79 307.50
  Q 305.46 261.93 353.17 232.66
  Q 402.05 202.67 457.56 192.11
  C 521.50 179.95 589.01 187.74 648.13 215.47
  Q 691.75 235.93 726.29 267.31
  Q 786.13 321.66 812.60 398.99
  C 823.22 429.99 828.52 463.99 828.26 498.38
  Z"
/>
<path stroke="#f8e8bd" stroke-width="2.00" fill="none" stroke-linecap="butt" vector-effect="non-scaling-stroke" d="
  M 811.16 477.49
  Q 810.93 480.00 810.74 482.50
  C 810.40 487.05 809.19 491.01 808.66 495.37
  Q 806.81 510.46 804.01 523.53
  Q 802.13 532.30 796.51 548.86
  Q 791.76 562.84 788.09 571.77
  C 785.30 578.55 780.19 587.49 777.37 592.87
  C 771.65 603.81 764.47 613.65 756.82 624.54
  Q 753.58 629.16 751.57 631.44
  C 746.61 637.05 742.78 642.08 737.19 647.65
  Q 733.25 651.58 727.15 657.89
  C 722.57 662.63 717.75 665.88 713.40 670.14
  Q 709.10 674.35 702.73 678.88
  Q 689.73 688.12 687.42 689.66
  Q 658.56 708.83 624.12 721.83
  Q 610.82 726.85 596.85 730.31
  C 577.03 735.22 556.93 739.27 536.48 740.20
  Q 505.85 741.60 482.76 739.15
  Q 462.40 736.99 433.32 729.53
  C 414.53 724.71 397.06 716.96 379.33 708.67
  Q 371.58 705.05 366.10 701.85
  Q 336.01 684.31 310.33 661.67
  C 305.95 657.82 302.42 654.04 297.74 649.35
  Q 293.56 645.16 288.74 639.38
  Q 280.99 630.09 272.15 618.12
  Q 264.43 607.68 260.26 600.24
  Q 253.67 588.50 250.01 581.31
  Q 241.38 564.36 235.42 545.07
  Q 226.50 516.18 224.61 486.24
  Q 224.26 480.75 223.94 475.24
  Q 223.59 469.30 223.68 464.24
  Q 223.79 458.22 223.88 452.19"
/>
<path fill="#fef3d0" d="
  M 811.16 477.49
  Q 810.93 480.00 810.74 482.50
  C 810.40 487.05 809.19 491.01 808.66 495.37
  Q 806.81 510.46 804.01 523.53
  Q 802.13 532.30 796.51 548.86
  Q 791.76 562.84 788.09 571.77
  C 785.30 578.55 780.19 587.49 777.37 592.87
  C 771.65 603.81 764.47 613.65 756.82 624.54
  Q 753.58 629.16 751.57 631.44
  C 746.61 637.05 742.78 642.08 737.19 647.65
  Q 733.25 651.58 727.15 657.89
  C 722.57 662.63 717.75 665.88 713.40 670.14
  Q 709.10 674.35 702.73 678.88
  Q 689.73 688.12 687.42 689.66
  Q 658.56 708.83 624.12 721.83
  Q 610.82 726.85 596.85 730.31
  C 577.03 735.22 556.93 739.27 536.48 740.20
  Q 505.85 741.60 482.76 739.15
  Q 462.40 736.99 433.32 729.53
  C 414.53 724.71 397.06 716.96 379.33 708.67
  Q 371.58 705.05 366.10 701.85
  Q 336.01 684.31 310.33 661.67
  C 305.95 657.82 302.42 654.04 297.74 649.35
  Q 293.56 645.16 288.74 639.38
  Q 280.99 630.09 272.15 618.12
  Q 264.43 607.68 260.26 600.24
  Q 253.67 588.50 250.01 581.31
  Q 241.38 564.36 235.42 545.07
  Q 226.50 516.18 224.61 486.24
  Q 224.26 480.75 223.94 475.24
  Q 223.59 469.30 223.68 464.24
  Q 223.79 458.22 223.88 452.19
  Q 230.41 405.84 249.79 365.78
  Q 255.02 354.98 265.91 337.05
  Q 269.71 330.80 272.66 326.92
  C 275.89 322.65 278.42 318.63 282.32 313.87
  C 287.52 307.53 291.71 301.81 297.19 295.97
  Q 311.08 281.15 326.24 268.74
  Q 330.28 265.44 340.40 257.71
  C 354.97 246.59 371.16 237.29 387.63 229.18
  C 400.29 222.95 415.09 217.60 427.64 213.42
  Q 432.00 211.97 442.96 209.05
  Q 449.58 207.30 458.50 205.59
  Q 499.00 197.82 540.91 200.99
  Q 600.20 205.47 652.98 232.76
  Q 680.28 246.88 702.55 264.70
  Q 726.06 283.50 746.11 307.56
  C 773.31 340.19 792.32 378.73 803.04 419.76
  C 804.95 427.07 806.31 435.72 807.99 444.00
  Q 810.22 455.02 811.16 477.49
  Z"
/>
<path fill="#f1ddaa" d="
  M 223.88 452.19
  Q 223.79 458.22 223.68 464.24
  Q 223.59 469.30 223.94 475.24
  Q 224.26 480.75 224.61 486.24
  Q 226.50 516.18 235.42 545.07
  Q 241.38 564.36 250.01 581.31
  Q 253.67 588.50 260.26 600.24
  Q 264.43 607.68 272.15 618.12
  Q 280.99 630.09 288.74 639.38
  Q 293.56 645.16 297.74 649.35
  C 302.42 654.04 305.95 657.82 310.33 661.67
  Q 336.01 684.31 366.10 701.85
  Q 371.58 705.05 379.33 708.67
  C 397.06 716.96 414.53 724.71 433.32 729.53
  Q 462.40 736.99 482.76 739.15
  Q 505.85 741.60 536.48 740.20
  C 556.93 739.27 577.03 735.22 596.85 730.31
  Q 610.82 726.85 624.12 721.83
  Q 658.56 708.83 687.42 689.66
  Q 689.73 688.12 702.73 678.88
  Q 709.10 674.35 713.40 670.14
  C 717.75 665.88 722.57 662.63 727.15 657.89
  Q 733.25 651.58 737.19 647.65
  C 742.78 642.08 746.61 637.05 751.57 631.44
  Q 753.58 629.16 756.82 624.54
  C 764.47 613.65 771.65 603.81 777.37 592.87
  C 780.19 587.49 785.30 578.55 788.09 571.77
  Q 791.76 562.84 796.51 548.86
  Q 802.13 532.30 804.01 523.53
  Q 806.81 510.46 808.66 495.37
  C 809.19 491.01 810.40 487.05 810.74 482.50
  Q 810.93 480.00 811.16 477.49
  Q 811.32 482.45 811.93 487.39
  Q 812.75 494.12 812.66 496.66
  C 812.50 500.98 812.76 505.09 812.39 509.10
  Q 810.19 533.54 808.81 540.77
  Q 805.42 558.49 805.19 559.71
  Q 804.08 565.56 802.91 569.17
  C 801.47 573.60 800.83 577.15 799.27 581.63
  Q 793.30 598.79 788.09 611.94
  C 785.46 618.58 780.75 626.65 778.44 632.32
  C 776.99 635.89 774.61 638.90 771.86 643.62
  Q 759.56 664.73 743.81 682.80
  Q 740.78 686.26 739.07 688.56
  C 736.83 691.57 733.52 693.89 731.14 697.27
  A 2.57 2.30 -8.1 0 1 730.87 697.59
  L 720.88 707.64
  A 3.15 2.10 -74.7 0 1 720.57 707.91
  Q 717.77 710.00 716.22 711.62
  C 712.92 715.06 709.75 717.27 706.50 720.36
  C 701.35 725.26 693.83 729.98 689.44 733.48
  Q 684.06 737.76 678.07 741.44
  C 664.55 749.77 652.55 756.85 638.89 762.85
  C 631.80 765.96 624.64 769.44 617.73 771.88
  Q 607.22 775.59 593.95 779.13
  Q 581.50 782.45 570.02 784.70
  C 543.78 789.84 515.48 790.33 487.53 788.26
  Q 474.76 787.32 460.43 784.18
  Q 447.57 781.37 433.74 777.72
  Q 422.05 774.62 413.25 771.01
  Q 399.54 765.37 383.04 757.63
  Q 375.62 754.15 368.73 749.95
  C 363.82 746.95 354.02 741.58 347.27 736.37
  C 341.41 731.86 338.89 730.03 332.80 725.52
  Q 328.51 722.34 325.08 719.22
  C 318.59 713.31 313.06 708.56 307.35 702.65
  C 300.50 695.54 296.56 691.87 291.21 685.34
  C 288.64 682.20 284.97 678.69 282.33 674.83
  Q 278.95 669.90 273.01 662.20
  C 269.18 657.25 265.45 650.74 261.80 644.48
  Q 249.97 624.18 244.58 611.06
  Q 239.99 599.87 234.78 584.61
  Q 229.88 570.23 227.01 557.38
  Q 215.38 505.40 223.88 452.19
  Z"
/>
<path stroke="#f8ecca" stroke-width="2.00" fill="none" stroke-linecap="butt" vector-effect="non-scaling-stroke" d="
  M 338.72 310.16
  Q 341.82 306.75 345.68 300.71
  Q 352.03 290.76 348.08 281.70"
/>
<g fill="#f1ddaa">
<path d="
  M 666.86 355.39
  Q 653.83 352.80 643.45 345.01
  Q 627.31 332.88 620.61 313.36
  Q 617.39 303.98 618.24 293.90
  Q 619.41 279.95 630.41 271.64
  C 642.37 262.61 661.95 265.15 674.28 271.53
  C 686.08 277.63 695.43 285.78 702.47 297.04
  C 713.23 314.23 714.21 337.60 696.15 350.12
  C 687.97 355.79 676.68 357.33 666.86 355.39
  Z"
/>
<path d="
  M 348.08 281.70
  Q 352.03 290.76 345.68 300.71
  Q 341.82 306.75 338.72 310.16
  C 332.27 316.81 322.36 324.30 312.47 322.19
  Q 311.61 322.01 310.11 320.21
  A 2.44 2.29 -74.3 0 1 309.63 319.29
  Q 308.20 313.71 310.58 307.76
  Q 315.72 294.90 329.59 285.38
  Q 338.82 279.04 348.08 281.70
  Z"
/>
<ellipse cx="0.00" cy="0.00" transform="translate(540.22,337.39) rotate(-17.5)" rx="11.69" ry="8.09"/>
<ellipse cx="0.00" cy="0.00" transform="translate(337.81,402.72) rotate(-62.3)" rx="53.75" ry="46.14"/>
<ellipse cx="0.00" cy="0.00" transform="translate(745.88,387.74) rotate(-116.7)" rx="30.11" ry="18.23"/>
<ellipse cx="0.00" cy="0.00" transform="translate(265.93,461.33) rotate(-87.3)" rx="19.13" ry="11.38"/>
<path d="
  M 772.73 522.22
  A 1.55 1.55 0.0 0 1 774.88 521.81
  L 775.97 522.55
  A 4.11 3.97 34.1 0 1 777.15 528.14
  L 776.81 528.64
  A 4.11 3.97 34.1 0 1 771.18 529.62
  L 770.09 528.88
  A 1.55 1.55 0.0 0 1 769.68 526.73
  L 772.73 522.22
  Z"
/>
<ellipse cx="0.00" cy="0.00" transform="translate(740.50,568.57) rotate(-67.8)" rx="20.85" ry="12.73"/>
<path d="
  M 631.59 661.25
  C 613.16 659.83 597.47 645.96 592.43 628.33
  C 589.47 617.96 589.25 605.87 592.79 595.07
  C 596.20 584.70 601.42 575.11 609.56 567.66
  Q 616.77 561.08 623.01 557.58
  Q 633.82 551.50 646.70 550.56
  Q 659.77 549.61 671.75 555.31
  C 675.68 557.18 677.90 558.90 681.48 561.96
  Q 696.11 574.46 697.65 593.77
  Q 698.88 609.25 692.80 623.86
  C 690.44 629.53 687.35 632.94 683.42 638.32
  C 676.79 647.39 665.50 654.48 655.43 658.15
  Q 644.28 662.22 631.59 661.25
  Z"
/>
<ellipse cx="0.00" cy="0.00" transform="translate(346.69,634.98) rotate(-136.2)" rx="33.73" ry="21.92"/>
<ellipse cx="0.00" cy="0.00" transform="translate(563.71,686.44) rotate(-17.3)" rx="22.56" ry="14.70"/>
</g>
<path fill="#fefaea" d="
  M 338.72 310.16
  Q 341.82 306.75 345.68 300.71
  Q 352.03 290.76 348.08 281.70
  Q 356.02 271.46 358.68 268.93
  Q 379.49 249.13 404.35 236.40
  C 419.95 228.41 437.17 221.12 454.71 216.24
  Q 481.02 208.93 507.65 206.75
  Q 522.28 205.55 535.19 208.56
  Q 541.47 210.02 544.42 214.98
  A 2.96 2.96 0.0 0 1 544.73 217.27
  C 542.70 224.54 537.44 229.51 531.35 233.59
  C 522.83 239.28 514.19 244.45 504.38 249.47
  Q 495.41 254.05 493.15 255.33
  C 483.87 260.56 472.40 265.73 464.51 269.89
  C 451.76 276.63 440.21 281.59 428.13 287.67
  C 417.98 292.77 402.12 298.96 394.68 302.36
  C 386.50 306.09 376.45 309.25 367.63 311.36
  Q 359.17 313.38 350.66 312.56
  C 347.20 312.23 342.69 310.90 338.72 310.16
  Z"
/>
</svg>
