<?xml version="1.0" encoding="UTF-8" standalone="no"?>
<!DOCTYPE svg PUBLIC "-//W3C//DTD SVG 1.1//EN" "http://www.w3.org/Graphics/SVG/1.1/DTD/svg11.dtd">
<svg xmlns="http://www.w3.org/2000/svg" version="1.1" viewBox="0.00 0.00 1536.00 1024.00">

<g stroke-width="2.00" fill="none" stroke-linecap="butt">
<path stroke="#483f41" vector-effect="non-scaling-stroke" d="
  M 694.59 167.44
  L 694.31 170.82
  A 0.33 0.32 -49.3 0 1 693.67 170.87
  Q 692.73 166.78 693.38 162.16
  A 2.06 2.06 0.0 0 0 691.72 159.85
  C 679.25 157.55 665.18 155.88 650.99 153.37
  C 627.36 149.18 615.07 147.23 602.05 143.98
  A 1.43 1.43 0.0 0 0 600.36 144.88
  L 595.61 157.95
  A 1.21 1.20 -72.9 0 0 596.44 159.52
  Q 618.21 165.23 637.69 168.62
  Q 661.65 172.80 681.00 175.18
  Q 689.37 176.21 695.13 175.98"
/>
<path stroke="#936756" vector-effect="non-scaling-stroke" d="
  M 690.75 192.96
  L 637.53 186.01"
/>
<path stroke="#492e29" vector-effect="non-scaling-stroke" d="
  M 637.53 186.01
  Q 634.14 184.77 631.80 184.40
  C 618.10 182.19 606.30 179.50 595.34 176.74
  A 1.23 1.23 0.0 0 0 593.82 177.82
  Q 593.12 185.45 592.82 194.80
  Q 592.77 196.45 591.65 200.32"
/>
<path stroke="#ad6b52" vector-effect="non-scaling-stroke" d="
  M 637.53 186.01
  Q 636.03 185.68 635.44 188.49
  A 1.23 1.22 7.1 0 1 634.18 189.46
  Q 633.40 189.43 632.01 189.17
  C 626.72 188.19 623.01 193.46 622.45 198.20
  Q 621.67 204.92 626.58 209.73
  Q 628.19 211.31 628.91 212.05
  A 0.99 0.99 0.0 0 1 629.16 212.99
  Q 625.19 228.38 610.70 231.86"
/>
<path stroke="#966d65" vector-effect="non-scaling-stroke" d="
  M 655.13 248.67
  L 609.92 235.55"
/>
<path stroke="#32303d" vector-effect="non-scaling-stroke" d="
  M 672.18 258.14
  Q 675.62 262.81 675.94 264.84
  C 676.88 270.84 672.13 273.69 667.38 275.56
  A 1.37 1.36 -20.9 0 0 666.60 277.30
  Q 671.79 291.52 673.28 306.59
  C 674.58 319.71 677.45 331.83 681.56 344.04"
/>
<path stroke="#32303d" vector-effect="non-scaling-stroke" d="
  M 688.24 411.71
  L 688.01 410.87
  A 0.39 0.39 0.0 0 0 687.25 410.92
  C 686.51 417.01 688.70 422.12 689.29 427.78
  Q 690.80 442.23 691.13 452.23
  C 691.50 463.63 692.63 474.93 693.21 488.45
  Q 693.33 491.31 692.80 499.78
  Q 691.96 513.03 695.60 525.35"
/>
<path stroke="#32303d" vector-effect="non-scaling-stroke" d="
  M 691.20 649.91
  L 627.38 651.23"
/>
<path stroke="#32303d" vector-effect="non-scaling-stroke" d="
  M 622.70 652.06
  Q 620.22 650.86 617.67 650.73
  Q 588.66 649.28 559.90 648.81"
/>
<path stroke="#352322" vector-effect="non-scaling-stroke" d="
  M 590.08 736.88
  Q 583.49 741.76 579.00 750.49
  Q 577.17 754.03 576.51 756.48"
/>
<path stroke="#352322" vector-effect="non-scaling-stroke" d="
  M 540.95 807.29
  Q 538.64 808.17 537.15 810.21
  Q 527.36 823.62 518.26 837.75
  A 2.04 2.01 9.9 0 1 516.99 838.63
  C 510.72 840.00 507.18 838.06 501.12 835.06
  Q 493.48 831.28 485.60 826.58
  Q 478.62 822.42 474.16 815.26
  A 2.73 2.72 49.5 0 1 474.41 812.05
  Q 478.27 807.56 483.40 799.44
  Q 492.65 784.78 500.61 775.09
  Q 504.22 770.68 506.09 763.67"
/>
<path stroke="#352322" vector-effect="non-scaling-stroke" d="
  M 525.69 734.87
  Q 527.31 734.16 529.18 731.57
  Q 540.30 716.15 547.36 703.37"
/>
<path stroke="#352322" vector-effect="non-scaling-stroke" d="
  M 748.47 813.14
  C 747.79 818.85 750.65 824.51 753.40 831.61
  A 3.21 3.13 14.5 0 0 753.92 832.47
  Q 754.69 833.38 754.83 834.51
  A 1.26 1.22 -26.9 0 1 754.47 835.55
  C 749.57 840.41 747.13 843.08 741.50 845.49
  Q 731.91 849.60 720.84 852.13
  Q 713.47 853.81 705.67 852.50"
/>
<path stroke="#936756" vector-effect="non-scaling-stroke" d="
  M 748.47 489.24
  Q 739.20 502.55 726.63 513.86"
/>
<path stroke="#98604b" vector-effect="non-scaling-stroke" d="
  M 763.31 536.71
  L 756.10 537.66"
/>
<path stroke="#4f271e" vector-effect="non-scaling-stroke" d="
  M 1009.58 772.65
  L 1026.84 782.35
  A 0.60 0.60 0.0 0 0 1027.63 781.48
  Q 1022.83 774.60 1022.67 766.36
  A 0.54 0.54 0.0 0 0 1021.68 766.08
  Q 1019.84 769.04 1018.29 767.61"
/>
<path stroke="#4f271e" vector-effect="non-scaling-stroke" d="
  M 1063.93 734.40
  Q 1063.65 739.89 1066.08 747.90
  Q 1068.03 754.34 1069.82 769.02
  C 1070.70 776.24 1068.58 785.42 1062.16 789.62
  C 1057.26 792.82 1049.97 792.22 1044.01 791.28
  A 0.47 0.47 0.0 0 0 1043.73 792.16
  L 1059.91 800.38
  A 1.15 1.15 0.0 0 0 1061.56 799.58
  Q 1062.96 792.43 1070.41 788.59
  A 1.08 1.08 0.0 0 1 1071.92 789.19
  Q 1071.95 789.26 1071.22 789.72"
/>
<path stroke="#4f271e" vector-effect="non-scaling-stroke" d="
  M 1024.25 845.53
  Q 1024.11 844.90 1024.33 844.63
  C 1028.44 839.70 1036.55 837.53 1040.38 834.78
  C 1046.64 830.28 1052.87 822.94 1055.57 815.27
  Q 1056.02 813.97 1058.00 808.71
  Q 1058.72 806.80 1056.68 805.77
  Q 1042.79 798.72 1024.20 788.56
  Q 1017.41 784.84 1014.96 783.60
  Q 1009.98 781.09 1003.36 776.63
  Q 1002.62 776.13 1001.21 775.90"
/>
<path stroke="#4f271e" vector-effect="non-scaling-stroke" d="
  M 1017.05 851.00
  Q 1006.50 855.75 1006.70 870.15"
/>
<path stroke="#4f271e" vector-effect="non-scaling-stroke" d="
  M 991.48 883.14
  C 989.20 874.28 991.39 865.91 994.25 856.74
  Q 995.06 854.16 994.25 850.24"
/>
<path stroke="#4f271e" vector-effect="non-scaling-stroke" d="
  M 954.34 838.61
  Q 949.28 835.57 943.17 834.22
  C 940.65 833.66 939.35 832.91 937.50 831.67
  A 0.76 0.75 -64.8 0 0 936.35 832.09
  Q 933.39 842.58 924.98 849.37"
/>
<path stroke="#4f271e" vector-effect="non-scaling-stroke" d="
  M 1073.72 737.52
  Q 1081.38 742.20 1085.66 748.65
  C 1088.88 753.50 1088.93 758.33 1094.50 761.56
  Q 1096.16 762.52 1102.73 765.07
  A 1.40 1.40 0.0 0 1 1103.63 766.22
  Q 1104.38 772.64 1109.11 777.27
  A 0.68 0.67 -50.3 0 1 1109.19 778.14
  L 1102.31 787.89"
/>
</g>
<path fill="#35364c" d="
  M 609.92 235.55
  L 655.13 248.67
  Q 664.28 252.67 672.18 258.14
  Q 675.62 262.81 675.94 264.84
  C 676.88 270.84 672.13 273.69 667.38 275.56
  A 1.37 1.36 -20.9 0 0 666.60 277.30
  Q 671.79 291.52 673.28 306.59
  C 674.58 319.71 677.45 331.83 681.56 344.04
  Q 682.67 349.87 683.34 355.99
  Q 686.32 383.20 688.14 410.51
  Q 688.18 411.11 688.24 411.71
  L 688.01 410.87
  A 0.39 0.39 0.0 0 0 687.25 410.92
  C 686.51 417.01 688.70 422.12 689.29 427.78
  Q 690.80 442.23 691.13 452.23
  C 691.50 463.63 692.63 474.93 693.21 488.45
  Q 693.33 491.31 692.80 499.78
  Q 691.96 513.03 695.60 525.35
  Q 698.92 578.98 701.67 633.00
  Q 702.05 640.38 701.91 643.18
  Q 701.73 646.89 698.33 649.11
  Q 696.26 650.46 691.20 649.91
  L 627.38 651.23
  Q 625.57 651.03 623.73 650.82
  Q 622.49 650.67 622.70 652.06
  Q 620.22 650.86 617.67 650.73
  Q 588.66 649.28 559.90 648.81
  Q 537.65 648.09 527.78 648.17
  Q 522.65 648.22 520.81 644.89
  Q 519.65 642.79 520.16 636.96
  Q 527.17 556.60 534.38 483.33
  Q 538.41 442.50 543.04 406.27
  Q 546.00 383.16 550.93 359.84
  Q 556.28 334.59 563.65 314.53
  Q 573.36 288.05 588.28 262.71
  A 0.52 0.51 31.6 0 0 588.11 262.01
  Q 580.28 257.17 576.50 249.27
  C 574.47 245.03 573.46 237.21 577.02 233.35
  C 580.59 229.47 585.55 229.52 590.38 230.36
  Q 595.12 231.19 609.92 235.55
  Z"
/>
<g fill="#633225">
<path d="
  M 637.53 186.01
  Q 636.03 185.68 635.44 188.49
  A 1.23 1.22 7.1 0 1 634.18 189.46
  Q 633.40 189.43 632.01 189.17
  C 626.72 188.19 623.01 193.46 622.45 198.20
  Q 621.67 204.92 626.58 209.73
  Q 628.19 211.31 628.91 212.05
  A 0.99 0.99 0.0 0 1 629.16 212.99
  Q 625.19 228.38 610.70 231.86
  C 600.34 224.32 593.55 212.76 591.65 200.32
  Q 592.77 196.45 592.82 194.80
  Q 593.12 185.45 593.82 177.82
  A 1.23 1.23 0.0 0 1 595.34 176.74
  C 606.30 179.50 618.10 182.19 631.80 184.40
  Q 634.14 184.77 637.53 186.01
  Z"
/>
<path d="
  M 1073.72 737.52
  Q 1081.38 742.20 1085.66 748.65
  C 1088.88 753.50 1088.93 758.33 1094.50 761.56
  Q 1096.16 762.52 1102.73 765.07
  A 1.40 1.40 0.0 0 1 1103.63 766.22
  Q 1104.38 772.64 1109.11 777.27
  A 0.68 0.67 -50.3 0 1 1109.19 778.14
  L 1102.31 787.89
  Q 1096.78 791.71 1088.99 790.44
  C 1081.78 789.26 1077.22 788.23 1071.22 789.72
  Q 1071.95 789.26 1071.92 789.19
  A 1.08 1.08 0.0 0 0 1070.41 788.59
  Q 1062.96 792.43 1061.56 799.58
  A 1.15 1.15 0.0 0 1 1059.91 800.38
  L 1043.73 792.16
  A 0.47 0.47 0.0 0 1 1044.01 791.28
  C 1049.97 792.22 1057.26 792.82 1062.16 789.62
  C 1068.58 785.42 1070.70 776.24 1069.82 769.02
  Q 1068.03 754.34 1066.08 747.90
  Q 1063.65 739.89 1063.93 734.40
  Q 1070.19 735.11 1073.72 737.52
  Z"
/>
<path d="
  M 1001.21 775.90
  Q 1002.62 776.13 1003.36 776.63
  Q 1009.98 781.09 1014.96 783.60
  Q 1017.41 784.84 1024.20 788.56
  Q 1042.79 798.72 1056.68 805.77
  Q 1058.72 806.80 1058.00 808.71
  Q 1056.02 813.97 1055.57 815.27
  C 1052.87 822.94 1046.64 830.28 1040.38 834.78
  C 1036.55 837.53 1028.44 839.70 1024.33 844.63
  Q 1024.11 844.90 1024.25 845.53
  Q 1023.78 845.41 1023.46 845.69
  Q 1020.11 848.57 1017.05 851.00
  Q 1006.50 855.75 1006.70 870.15
  Q 1006.82 871.44 1007.37 872.45
  A 1.73 1.64 1.5 0 0 1008.03 873.11
  Q 1014.23 876.53 1013.46 883.70
  A 2.67 2.67 0.0 0 1 1011.16 886.07
  C 1004.86 886.95 996.34 887.42 991.48 883.14
  C 989.20 874.28 991.39 865.91 994.25 856.74
  Q 995.06 854.16 994.25 850.24
  L 994.88 843.92
  A 0.70 0.70 0.0 0 0 994.21 843.15
  C 988.89 842.94 983.73 843.37 978.29 842.88
  Q 966.03 841.78 954.34 838.61
  Q 949.28 835.57 943.17 834.22
  C 940.65 833.66 939.35 832.91 937.50 831.67
  A 0.76 0.75 -64.8 0 0 936.35 832.09
  Q 933.39 842.58 924.98 849.37
  Q 919.69 852.87 915.64 854.15
  Q 907.09 856.86 905.72 857.67
  Q 896.70 862.97 894.85 872.83
  A 1.96 1.95 29.7 0 0 895.32 874.52
  Q 900.02 879.76 897.50 886.95
  A 2.20 2.20 0.0 0 1 895.35 888.43
  C 889.83 888.26 883.67 887.25 879.71 883.37
  C 874.04 877.82 876.82 870.00 879.77 863.52
  Q 884.08 854.06 890.66 843.44
  Q 893.16 839.40 893.68 833.99
  Q 894.59 824.55 894.71 816.35
  C 894.84 808.29 897.44 798.17 902.82 792.05
  A 0.25 0.25 0.0 0 0 902.62 791.64
  Q 897.38 791.90 893.00 791.53
  C 880.02 790.44 868.75 784.10 861.85 773.12
  C 856.39 764.42 855.69 753.46 859.49 744.32
  C 860.71 741.37 864.17 734.60 867.79 737.17
  Q 868.73 737.84 869.91 740.96
  Q 873.56 750.57 876.60 755.40
  Q 878.99 759.19 885.22 765.56
  Q 898.08 778.69 916.67 781.26
  A 3.64 3.54 -45.7 0 0 917.83 781.23
  Q 924.21 780.00 930.50 780.01
  Q 946.82 780.02 961.22 780.10
  C 967.17 780.13 973.93 779.75 980.32 779.68
  Q 985.28 779.62 1001.21 775.90
  Z"
/>
<path d="
  M 1009.58 772.65
  L 1018.29 767.61
  Q 1019.84 769.04 1021.68 766.08
  A 0.54 0.54 0.0 0 1 1022.67 766.36
  Q 1022.83 774.60 1027.63 781.48
  A 0.60 0.60 0.0 0 1 1026.84 782.35
  L 1009.58 772.65
  Z"
/>
</g>
<g fill="#f6a37e">
<path d="
  M 637.53 186.01
  L 690.75 192.96
  Q 689.84 199.81 689.11 206.61
  Q 688.03 216.67 687.07 220.15
  C 683.48 233.22 672.34 248.12 656.82 247.52
  A 1.48 1.44 -62.0 0 0 655.88 247.82
  Q 655.48 248.13 655.13 248.67
  L 609.92 235.55
  Q 610.80 233.88 610.70 231.86
  Q 625.19 228.38 629.16 212.99
  A 0.99 0.99 0.0 0 0 628.91 212.05
  Q 628.19 211.31 626.58 209.73
  Q 621.67 204.92 622.45 198.20
  C 623.01 193.46 626.72 188.19 632.01 189.17
  Q 633.40 189.43 634.18 189.46
  A 1.23 1.22 7.1 0 0 635.44 188.49
  Q 636.03 185.68 637.53 186.01
  Z"
/>
<path d="
  M 748.47 489.24
  Q 764.30 494.32 771.65 507.33
  C 777.32 517.36 776.02 530.75 764.39 535.68
  A 1.88 1.88 0.0 0 0 763.67 536.24
  L 763.31 536.71
  L 756.10 537.66
  Q 755.81 537.64 754.91 537.53
  Q 751.78 537.12 748.78 535.94
  Q 739.41 532.24 733.40 524.10
  Q 729.86 519.32 726.63 513.86
  Q 739.20 502.55 748.47 489.24
  Z"
/>
</g>
<g fill="#2f2a2d">
<path d="
  M 694.59 167.44
  L 694.31 170.82
  A 0.33 0.32 -49.3 0 1 693.67 170.87
  Q 692.73 166.78 693.38 162.16
  A 2.06 2.06 0.0 0 0 691.72 159.85
  C 679.25 157.55 665.18 155.88 650.99 153.37
  C 627.36 149.18 615.07 147.23 602.05 143.98
  A 1.43 1.43 0.0 0 0 600.36 144.88
  L 595.61 157.95
  A 1.21 1.20 -72.9 0 0 596.44 159.52
  Q 618.21 165.23 637.69 168.62
  Q 661.65 172.80 681.00 175.18
  Q 689.37 176.21 695.13 175.98
  Q 704.06 178.41 716.43 182.58
  C 718.90 183.41 723.63 184.67 724.38 187.05
  C 726.75 194.67 713.14 194.72 709.25 194.58
  Q 700.53 194.26 690.75 192.96
  L 637.53 186.01
  Q 634.14 184.77 631.80 184.40
  C 618.10 182.19 606.30 179.50 595.34 176.74
  A 1.23 1.23 0.0 0 0 593.82 177.82
  Q 593.12 185.45 592.82 194.80
  Q 592.77 196.45 591.65 200.32
  Q 590.35 192.12 591.47 183.92
  Q 591.51 183.62 592.46 176.67
  A 0.66 0.66 0.0 0 0 592.03 175.96
  C 584.18 173.14 574.13 169.85 568.06 163.77
  Q 566.66 162.37 566.57 159.97
  C 566.33 153.13 573.02 154.31 577.82 155.16
  Q 590.49 157.40 594.01 158.18
  A 0.90 0.89 -74.9 0 0 595.05 157.58
  Q 600.09 141.37 606.48 125.73
  Q 608.82 120.01 611.72 115.48
  C 616.56 107.92 624.51 107.69 633.02 108.66
  Q 650.81 110.68 669.13 114.27
  Q 678.69 116.15 681.17 117.32
  C 688.26 120.70 692.26 125.80 693.21 133.57
  Q 695.27 150.47 694.59 167.44
  Z"
/>
<path d="
  M 672.18 258.14
  C 675.48 260.19 679.77 263.23 681.51 266.73
  C 683.86 271.45 671.91 275.31 669.08 275.99
  A 0.68 0.68 0.0 0 0 668.58 276.84
  C 674.98 298.92 678.59 318.76 681.56 344.04
  C 677.45 331.83 674.58 319.71 673.28 306.59
  Q 671.79 291.52 666.60 277.30
  A 1.37 1.36 -20.9 0 1 667.38 275.56
  C 672.13 273.69 676.88 270.84 675.94 264.84
  Q 675.62 262.81 672.18 258.14
  Z"
/>
<path d="
  M 688.24 411.71
  L 688.78 416.79
  A 2.79 2.75 -66.2 0 0 689.27 418.08
  Q 697.90 430.13 703.53 436.24
  C 711.94 445.35 715.74 449.67 722.74 456.86
  Q 741.98 476.64 747.97 483.29
  Q 750.21 485.79 748.47 489.24
  Q 739.20 502.55 726.63 513.86
  C 723.56 516.52 721.07 518.25 717.33 515.21
  Q 705.77 505.82 694.30 496.37
  A 0.21 0.21 0.0 0 0 693.95 496.54
  L 695.60 525.35
  Q 691.96 513.03 692.80 499.78
  Q 693.33 491.31 693.21 488.45
  C 692.63 474.93 691.50 463.63 691.13 452.23
  Q 690.80 442.23 689.29 427.78
  C 688.70 422.12 686.51 417.01 687.25 410.92
  A 0.39 0.39 0.0 0 1 688.01 410.87
  L 688.24 411.71
  Z"
/>
<path d="
  M 622.70 652.06
  Q 617.82 676.17 612.46 700.23
  Q 611.61 704.04 609.62 707.41
  Q 600.54 722.84 590.08 736.88
  Q 583.49 741.76 579.00 750.49
  Q 577.17 754.03 576.51 756.48
  L 540.95 807.29
  Q 538.64 808.17 537.15 810.21
  Q 527.36 823.62 518.26 837.75
  A 2.04 2.01 9.9 0 1 516.99 838.63
  C 510.72 840.00 507.18 838.06 501.12 835.06
  Q 493.48 831.28 485.60 826.58
  Q 478.62 822.42 474.16 815.26
  A 2.73 2.72 49.5 0 1 474.41 812.05
  Q 478.27 807.56 483.40 799.44
  Q 492.65 784.78 500.61 775.09
  Q 504.22 770.68 506.09 763.67
  L 525.69 734.87
  Q 527.31 734.16 529.18 731.57
  Q 540.30 716.15 547.36 703.37
  Q 549.96 698.38 554.61 691.86
  Q 555.85 690.11 556.17 687.41
  Q 558.42 668.44 559.90 648.81
  Q 588.66 649.28 617.67 650.73
  Q 620.22 650.86 622.70 652.06
  Z"
/>
<path d="
  M 691.20 649.91
  Q 696.43 665.34 701.47 679.30
  Q 702.85 683.12 708.45 702.80
  Q 710.96 711.60 720.03 736.50
  C 731.39 767.66 740.48 790.78 748.47 813.14
  C 747.79 818.85 750.65 824.51 753.40 831.61
  A 3.21 3.13 14.5 0 0 753.92 832.47
  Q 754.69 833.38 754.83 834.51
  A 1.26 1.22 -26.9 0 1 754.47 835.55
  C 749.57 840.41 747.13 843.08 741.50 845.49
  Q 731.91 849.60 720.84 852.13
  Q 713.47 853.81 705.67 852.50
  Q 682.01 789.35 658.35 726.05
  Q 654.97 717.02 651.49 708.01
  Q 648.20 699.49 644.16 690.18
  Q 636.54 672.62 628.86 655.14
  Q 628.45 654.19 627.38 651.23
  L 691.20 649.91
  Z"
/>
</g>
<g fill="#3a1c17">
<path d="
  M 763.31 536.71
  Q 765.14 541.56 766.46 544.04
  Q 781.63 572.55 799.61 596.67
  Q 824.83 630.49 857.57 661.18
  Q 890.67 692.21 927.87 719.37
  C 953.45 738.05 978.40 754.33 1009.58 772.65
  L 1026.84 782.35
  A 0.60 0.60 0.0 0 0 1027.63 781.48
  Q 1022.83 774.60 1022.67 766.36
  A 0.54 0.54 0.0 0 0 1021.68 766.08
  Q 1019.84 769.04 1018.29 767.61
  Q 1022.43 764.70 1024.10 760.82
  Q 1025.31 757.99 1025.32 757.97
  Q 1026.82 754.97 1029.32 749.56
  Q 1030.48 747.05 1034.68 741.82
  C 1040.77 734.24 1050.85 730.80 1060.38 733.42
  Q 1062.51 734.00 1063.93 734.40
  Q 1063.65 739.89 1066.08 747.90
  Q 1068.03 754.34 1069.82 769.02
  C 1070.70 776.24 1068.58 785.42 1062.16 789.62
  C 1057.26 792.82 1049.97 792.22 1044.01 791.28
  A 0.47 0.47 0.0 0 0 1043.73 792.16
  L 1059.91 800.38
  A 1.15 1.15 0.0 0 0 1061.56 799.58
  Q 1062.96 792.43 1070.41 788.59
  A 1.08 1.08 0.0 0 1 1071.92 789.19
  Q 1071.95 789.26 1071.22 789.72
  C 1067.12 791.38 1065.16 795.11 1063.20 799.22
  A 5.34 5.16 -28.5 0 0 1062.78 800.55
  C 1060.91 811.23 1059.69 817.94 1054.69 826.47
  A 2.95 2.60 86.4 0 1 1054.27 827.01
  L 1052.39 828.89
  A 1.79 1.78 68.4 0 0 1051.87 830.10
  Q 1051.72 835.46 1053.35 837.86
  Q 1060.83 848.87 1066.86 862.57
  C 1067.93 865.02 1068.92 866.19 1071.54 867.29
  Q 1078.47 870.22 1081.31 877.42
  C 1083.77 883.65 1076.33 883.66 1072.24 883.29
  C 1065.39 882.66 1054.59 879.42 1050.93 872.86
  C 1046.74 865.33 1044.76 857.48 1036.68 852.57
  C 1032.79 850.21 1028.13 848.46 1024.25 845.53
  Q 1024.11 844.90 1024.33 844.63
  C 1028.44 839.70 1036.55 837.53 1040.38 834.78
  C 1046.64 830.28 1052.87 822.94 1055.57 815.27
  Q 1056.02 813.97 1058.00 808.71
  Q 1058.72 806.80 1056.68 805.77
  Q 1042.79 798.72 1024.20 788.56
  Q 1017.41 784.84 1014.96 783.60
  Q 1009.98 781.09 1003.36 776.63
  Q 1002.62 776.13 1001.21 775.90
  Q 1001.23 775.36 1000.54 774.94
  Q 969.75 756.48 944.28 738.95
  C 904.09 711.27 867.01 681.00 833.22 646.28
  Q 792.85 604.82 764.06 553.20
  Q 759.24 544.54 756.10 537.66
  L 763.31 536.71
  Z"
/>
<path d="
  M 547.36 703.37
  Q 540.30 716.15 529.18 731.57
  Q 527.31 734.16 525.69 734.87
  L 547.36 703.37
  Z"
/>
<path d="
  M 590.08 736.88
  L 576.51 756.48
  Q 577.17 754.03 579.00 750.49
  Q 583.49 741.76 590.08 736.88
  Z"
/>
<path d="
  M 1102.31 787.89
  L 1109.19 778.14
  A 0.68 0.67 -50.3 0 0 1109.11 777.27
  Q 1104.38 772.64 1103.63 766.22
  A 1.40 1.40 0.0 0 0 1102.73 765.07
  Q 1096.16 762.52 1094.50 761.56
  C 1088.93 758.33 1088.88 753.50 1085.66 748.65
  Q 1081.38 742.20 1073.72 737.52
  Q 1086.21 742.12 1089.96 754.74
  Q 1090.28 755.80 1092.23 758.21
  C 1095.74 762.53 1104.81 764.29 1109.59 765.64
  C 1114.73 767.09 1113.61 773.43 1111.77 776.85
  C 1109.21 781.62 1107.39 785.16 1102.31 787.89
  Z"
/>
<path d="
  M 506.09 763.67
  Q 504.22 770.68 500.61 775.09
  Q 492.65 784.78 483.40 799.44
  Q 478.27 807.56 474.41 812.05
  A 2.73 2.72 49.5 0 0 474.16 815.26
  Q 478.62 822.42 485.60 826.58
  Q 493.48 831.28 501.12 835.06
  C 507.18 838.06 510.72 840.00 516.99 838.63
  A 2.04 2.01 9.9 0 0 518.26 837.75
  Q 527.36 823.62 537.15 810.21
  Q 538.64 808.17 540.95 807.29
  Q 530.70 822.06 520.35 836.74
  C 518.65 839.16 517.65 841.33 514.66 840.51
  A 0.31 0.30 88.8 0 0 514.29 840.90
  C 517.64 851.42 525.23 859.94 533.54 866.97
  Q 535.75 868.83 537.63 869.79
  A 4.00 3.75 -23.7 0 0 538.65 870.15
  Q 544.04 871.30 546.08 871.59
  C 553.39 872.61 558.31 876.53 557.61 884.48
  C 556.94 892.06 548.21 890.53 543.08 890.11
  Q 521.83 888.39 502.85 879.93
  Q 500.80 879.02 489.30 871.76
  Q 476.77 863.85 475.86 863.29
  C 469.03 859.11 463.47 855.78 458.83 851.08
  C 453.66 845.85 457.25 839.87 461.15 834.89
  Q 467.48 826.83 475.70 819.75
  A 0.72 0.72 0.0 0 0 475.65 818.62
  C 472.54 816.40 471.46 814.00 473.85 810.60
  Q 490.15 787.42 506.09 763.67
  Z"
/>
<path d="
  M 748.47 813.14
  Q 752.12 822.60 756.16 831.93
  Q 757.63 835.33 754.63 837.63
  Q 753.49 838.49 751.44 839.71
  A 0.60 0.60 0.0 0 0 751.35 840.69
  C 760.79 848.78 777.63 851.53 789.96 851.82
  A 6.84 6.77 39.3 0 0 791.56 851.67
  C 796.51 850.64 803.10 846.57 807.45 847.30
  C 812.22 848.10 820.34 852.92 817.10 858.79
  Q 816.36 860.12 812.94 862.69
  Q 807.73 866.62 801.80 869.04
  C 795.71 871.52 788.18 874.05 782.56 875.63
  Q 762.40 881.33 743.88 885.86
  Q 734.67 888.12 726.59 889.10
  C 714.99 890.51 712.44 883.38 712.02 873.49
  Q 711.60 863.73 712.39 854.93
  A 0.50 0.50 0.0 0 0 711.90 854.38
  Q 710.22 854.34 708.52 854.57
  Q 706.89 854.78 705.67 852.50
  Q 713.47 853.81 720.84 852.13
  Q 731.91 849.60 741.50 845.49
  C 747.13 843.08 749.57 840.41 754.47 835.55
  A 1.26 1.22 -26.9 0 0 754.83 834.51
  Q 754.69 833.38 753.92 832.47
  A 3.21 3.13 14.5 0 1 753.40 831.61
  C 750.65 824.51 747.79 818.85 748.47 813.14
  Z"
/>
<path d="
  M 954.34 838.61
  Q 951.43 845.75 947.73 851.26
  Q 946.72 852.76 946.91 856.99
  C 947.07 860.34 948.11 866.62 950.60 869.00
  A 2.37 2.33 -18.4 0 0 951.89 869.63
  Q 960.97 870.98 961.17 880.83
  Q 961.21 882.77 958.65 883.63
  C 950.86 886.26 940.50 886.71 936.33 878.19
  Q 929.88 864.98 924.98 849.37
  Q 933.39 842.58 936.35 832.09
  A 0.76 0.75 -64.8 0 1 937.50 831.67
  C 939.35 832.91 940.65 833.66 943.17 834.22
  Q 949.28 835.57 954.34 838.61
  Z"
/>
<path d="
  M 991.48 883.14
  Q 987.57 879.01 988.84 873.03
  C 990.62 864.67 992.79 857.89 994.25 850.24
  Q 995.06 854.16 994.25 856.74
  C 991.39 865.91 989.20 874.28 991.48 883.14
  Z"
/>
<path d="
  M 1017.05 851.00
  Q 1009.51 859.53 1006.70 870.15
  Q 1006.50 855.75 1017.05 851.00
  Z"
/>
</g>
<path fill="#615355" d="
  M 694.59 167.44
  L 695.13 175.98
  Q 689.37 176.21 681.00 175.18
  Q 661.65 172.80 637.69 168.62
  Q 618.21 165.23 596.44 159.52
  A 1.21 1.20 -72.9 0 1 595.61 157.95
  L 600.36 144.88
  A 1.43 1.43 0.0 0 1 602.05 143.98
  C 615.07 147.23 627.36 149.18 650.99 153.37
  C 665.18 155.88 679.25 157.55 691.72 159.85
  A 2.06 2.06 0.0 0 1 693.38 162.16
  Q 692.73 166.78 693.67 170.87
  A 0.33 0.32 -49.3 0 0 694.31 170.82
  L 694.59 167.44
  Z"
/>
<path stroke="#936756" stroke-width="2.00" fill="none" stroke-linecap="butt" vector-effect="non-scaling-stroke" d="
  M 644.21 527.80
  Q 629.40 536.23 613.49 540.74
  A 0.58 0.57 -15.9 0 0 613.09 541.44
  L 616.06 552.22"
/>
<path fill="#f6a37e" d="
  M 644.21 527.80
  Q 649.28 533.31 650.68 535.33
  Q 657.79 545.58 656.66 557.75
  C 655.53 569.91 646.12 575.28 634.72 571.74
  C 625.34 568.83 619.43 561.25 616.06 552.22
  L 613.09 541.44
  A 0.58 0.57 -15.9 0 1 613.49 540.74
  Q 629.40 536.23 644.21 527.80
  Z"
/>
<path fill="#2f2a2d" d="
  M 644.21 527.80
  Q 629.40 536.23 613.49 540.74
  A 0.58 0.57 -15.9 0 0 613.09 541.44
  L 616.06 552.22
  Q 614.35 550.55 613.34 548.43
  Q 610.17 541.75 610.09 541.50
  A 0.58 0.58 0.0 0 0 609.51 541.09
  Q 609.18 541.10 609.07 541.05
  Q 605.26 539.17 602.74 533.27
  C 589.76 502.75 577.27 469.39 568.10 436.14
  C 565.36 426.18 563.48 417.61 564.83 407.35
  C 566.78 392.43 574.11 370.69 576.67 360.65
  C 580.98 343.76 587.84 323.63 592.54 307.11
  Q 595.47 296.81 598.51 292.81
  Q 605.70 283.34 618.65 283.66
  Q 627.36 283.87 634.66 288.11
  C 649.88 296.97 649.46 310.12 645.13 324.89
  Q 634.61 360.85 631.51 370.31
  Q 628.33 380.02 617.75 411.23
  C 616.70 414.34 616.67 417.68 617.38 421.22
  Q 620.90 438.75 621.88 442.33
  C 629.61 470.40 636.05 489.05 644.48 516.27
  Q 646.54 522.93 644.21 527.80
  Z"
/>
<g fill="#3a1c17">
<ellipse cx="0.00" cy="0.00" transform="translate(1081.02,756.67) rotate(-100.6)" rx="3.24" ry="2.79"/>
<path d="
  M 1099.67 786.90
  A 0.26 0.26 0.0 0 1 1099.72 787.41
  Q 1092.69 789.21 1086.10 786.86
  Q 1082.53 785.58 1078.91 784.37
  A 0.33 0.32 17.6 0 1 1078.70 783.97
  L 1078.78 783.69
  A 0.16 0.15 15.4 0 1 1078.97 783.59
  L 1088.01 786.28
  A 4.41 4.13 -33.9 0 0 1089.06 786.45
  L 1099.67 786.90
  Z"
/>
</g>
</svg>
