<?xml version="1.0" encoding="UTF-8" standalone="no"?>
<!DOCTYPE svg PUBLIC "-//W3C//DTD SVG 1.1//EN" "http://www.w3.org/Graphics/SVG/1.1/DTD/svg11.dtd">
<svg xmlns="http://www.w3.org/2000/svg" version="1.1" viewBox="0.00 0.00 712.71 971.53">

<path fill="#141727" d="
  M 379.37 937.62
  Q 378.65 940.88 376.60 942.84
  C 374.01 945.30 372.60 945.78 368.86 945.70
  Q 361.25 945.52 351.09 945.70
  C 346.86 945.78 344.24 945.10 342.49 941.43
  A 0.51 0.50 -41.9 0 0 341.61 941.39
  Q 339.03 945.60 333.77 945.61
  Q 326.24 945.63 317.95 945.50
  A 3.98 3.74 51.6 0 1 317.00 945.36
  Q 313.87 944.44 311.55 941.57
  Q 310.36 940.10 310.06 936.48
  Q 309.50 929.94 306.01 923.46
  A 1.97 1.96 48.0 0 0 302.66 923.28
  Q 296.50 932.30 288.14 939.64
  C 283.07 944.08 278.56 945.61 271.61 945.78
  C 265.12 945.93 259.94 943.80 255.28 939.40
  Q 250.39 934.78 251.71 927.13
  C 252.49 922.59 257.26 919.27 260.94 916.52
  A 6.45 6.44 -87.3 0 0 261.96 915.59
  Q 266.56 910.40 270.85 902.94
  A 0.80 0.79 -35.7 0 0 270.94 902.41
  L 270.22 898.73
  A 0.78 0.78 0.0 0 0 269.42 898.10
  C 264.83 898.30 261.14 898.55 258.91 893.82
  Q 256.99 889.75 258.04 885.35
  A 0.89 0.88 -83.5 0 0 257.18 884.26
  C 250.21 884.31 242.68 883.99 236.50 880.22
  C 226.30 873.98 221.80 863.46 220.45 851.80
  C 219.64 844.86 222.15 838.13 229.70 836.93
  C 233.59 836.32 237.06 835.45 240.70 834.21
  C 243.39 833.30 244.66 832.39 246.03 829.84
  C 249.80 822.81 254.64 815.74 261.99 811.82
  Q 272.64 806.14 284.78 808.16
  C 286.94 808.52 288.71 809.36 290.68 809.74
  A 3.92 3.92 0.0 0 0 292.20 809.74
  Q 300.91 807.98 310.03 814.04
  Q 321.09 821.38 322.79 832.34
  A 0.77 0.77 0.0 0 0 323.56 833.00
  Q 326.07 832.96 327.28 832.71
  Q 341.28 829.89 350.28 825.28
  C 367.14 816.66 381.37 803.22 391.74 787.26
  Q 396.24 780.32 404.63 767.38
  Q 408.97 760.69 412.61 756.15
  A 0.88 0.87 51.7 0 0 412.71 755.24
  Q 409.68 748.99 412.53 742.94
  Q 414.01 739.81 414.38 738.18
  C 416.78 727.66 425.51 720.96 435.02 717.38
  A 0.87 0.86 80.9 0 0 435.58 716.60
  Q 435.77 711.95 439.21 708.70
  Q 444.53 703.68 461.87 687.37
  Q 468.46 681.18 474.80 675.87
  A 3.90 3.88 -4.2 0 0 475.58 674.97
  C 476.73 673.14 477.78 671.77 478.71 669.93
  Q 484.65 658.13 495.24 637.97
  Q 500.29 628.37 504.87 623.44
  A 0.75 0.73 50.0 0 0 504.94 622.53
  C 502.15 618.32 503.69 611.89 506.29 608.22
  A 0.50 0.49 33.5 0 0 506.14 607.51
  C 498.14 602.79 490.38 592.25 489.99 583.01
  Q 489.90 580.97 489.85 580.12
  A 1.98 1.94 23.1 0 0 489.36 578.94
  C 487.12 576.42 485.45 574.89 484.91 572.58
  C 483.17 565.18 487.16 563.10 491.25 558.36
  A 1.56 1.56 0.0 0 0 491.63 557.34
  L 491.63 550.31
  A 0.54 0.53 -88.3 0 0 491.13 549.77
  Q 486.64 549.45 480.90 548.38
  C 469.79 546.31 458.58 536.39 461.09 524.09
  C 461.84 520.40 465.68 516.56 469.70 516.55
  Q 484.86 516.52 499.08 515.97
  A 1.09 1.07 -72.0 0 0 499.89 515.55
  Q 506.24 507.36 509.73 504.19
  C 523.20 491.94 540.19 487.57 558.04 490.72
  C 567.05 492.30 573.28 493.70 581.34 497.48
  Q 586.50 499.90 590.33 503.05
  C 602.16 512.74 608.12 525.72 607.60 540.89
  Q 607.44 545.60 607.13 551.69
  A 1.24 1.13 63.1 0 1 607.01 552.12
  L 605.75 554.49
  A 2.73 2.68 -30.5 0 0 605.43 555.68
  Q 604.90 567.92 597.60 578.53
  A 0.35 0.35 0.0 0 0 597.89 579.08
  Q 613.49 579.02 616.36 594.76
  Q 616.63 596.24 616.27 601.48
  C 615.90 606.91 613.20 611.57 609.24 615.00
  A 0.61 0.61 0.0 0 0 609.19 615.87
  Q 615.88 623.17 620.14 632.33
  C 622.24 636.85 624.30 642.50 626.81 647.78
  Q 633.09 660.99 635.83 666.37
  Q 638.36 671.34 640.41 677.11
  C 646.95 695.57 653.01 714.24 659.56 733.20
  Q 660.31 735.38 658.63 739.58
  A 0.90 0.78 -40.7 0 0 658.57 739.98
  Q 658.64 740.56 659.32 741.09
  Q 659.63 741.33 659.76 741.59
  Q 666.28 754.32 667.41 759.07
  Q 667.69 760.22 667.63 765.17
  C 667.51 774.43 660.96 778.82 654.05 783.56
  C 647.23 788.24 637.40 790.27 630.83 783.94
  Q 628.57 781.75 628.36 781.63
  A 1.74 1.72 53.2 0 0 627.09 781.44
  Q 622.58 782.55 619.26 779.62
  Q 616.68 777.35 615.61 772.20
  Q 613.96 764.31 613.82 756.67
  A 1.15 1.14 21.1 0 0 613.46 755.86
  Q 611.15 753.70 610.81 752.94
  Q 607.60 745.91 606.00 741.67
  A 0.39 0.39 0.0 0 0 605.25 741.76
  C 604.59 747.70 602.48 754.49 597.73 758.22
  A 1.27 1.26 -19.6 0 0 597.26 759.20
  L 597.26 763.86
  A 1.74 1.67 28.9 0 0 597.56 764.82
  Q 599.03 766.90 599.96 768.79
  C 603.39 775.77 607.84 784.17 612.31 793.50
  Q 616.36 801.94 621.58 809.24
  Q 630.31 821.45 643.29 839.52
  Q 657.05 858.67 663.87 867.38
  Q 666.18 870.33 666.61 872.80
  A 1.07 1.05 -81.5 0 0 667.16 873.56
  C 672.88 876.61 682.36 883.45 684.34 889.63
  Q 686.04 894.97 684.06 900.86
  C 682.77 904.73 677.98 908.85 674.96 912.74
  Q 668.57 920.97 658.07 934.56
  Q 653.69 940.23 650.97 942.00
  C 647.00 944.60 643.16 945.72 637.94 945.71
  Q 620.40 945.67 614.75 945.59
  C 612.64 945.57 609.95 944.78 608.14 943.50
  Q 601.13 938.59 602.76 929.01
  C 603.27 926.03 604.03 924.60 606.36 922.39
  Q 613.85 915.26 619.13 905.99
  A 1.05 1.05 0.0 0 0 619.07 904.85
  Q 613.14 896.68 606.92 889.57
  Q 595.18 876.15 578.72 856.04
  C 570.26 845.70 562.58 837.70 556.47 827.77
  A 0.47 0.47 0.0 0 0 555.66 827.78
  Q 547.58 841.67 542.40 856.89
  Q 541.64 859.11 525.62 905.07
  C 524.54 908.15 523.75 909.48 522.12 912.45
  A 1.71 1.71 0.0 0 0 521.92 913.43
  C 523.02 923.85 521.70 943.51 507.82 945.68
  Q 504.61 946.18 495.80 943.84
  Q 466.16 935.97 439.71 930.00
  A 5.79 5.68 -22.3 0 1 437.99 929.30
  Q 427.94 923.11 430.78 911.52
  Q 433.10 902.04 443.25 900.18
  Q 455.05 898.03 465.33 893.72
  A 0.78 0.78 0.0 0 0 465.81 893.10
  Q 466.23 890.27 466.89 888.13
  Q 475.22 861.06 485.30 826.59
  Q 486.24 823.37 487.03 819.43
  Q 488.15 813.84 488.77 812.26
  Q 499.49 784.86 507.40 765.75
  A 0.47 0.46 -48.1 0 0 507.38 765.36
  Q 504.34 760.05 502.84 754.00
  A 8.38 8.11 -69.5 0 0 501.74 751.48
  Q 498.88 747.12 498.57 743.95
  Q 497.94 737.41 498.29 731.23
  A 0.27 0.27 0.0 0 0 497.86 730.99
  Q 483.78 741.06 471.56 751.52
  Q 469.84 753.00 466.04 752.73
  A 0.97 0.96 -69.4 0 0 465.19 753.12
  Q 460.93 758.84 457.71 761.69
  C 453.51 765.41 442.45 772.38 436.78 769.95
  Q 434.60 769.02 434.01 769.09
  Q 425.02 770.16 419.09 765.15
  A 1.02 1.02 0.0 0 0 417.58 765.37
  Q 409.30 778.10 402.11 789.11
  C 389.51 808.39 373.16 824.53 352.89 834.58
  Q 339.09 841.42 322.33 843.05
  A 0.95 0.95 0.0 0 0 321.47 844.00
  L 321.47 844.71
  A 1.77 1.76 -15.0 0 1 320.58 846.24
  L 318.18 847.63
  A 0.33 0.33 0.0 0 0 318.30 848.24
  Q 321.52 848.64 324.45 852.90
  A 1.61 1.60 -16.9 0 0 325.75 853.59
  Q 345.92 853.70 363.76 853.57
  Q 371.91 853.51 378.31 855.61
  A 0.77 0.76 29.1 0 0 379.13 855.38
  C 386.37 847.01 394.66 837.56 402.66 830.93
  C 405.90 828.24 410.49 827.39 413.85 830.36
  C 416.55 832.76 415.39 839.53 415.40 842.75
  C 415.44 848.75 415.78 854.39 414.25 859.26
  Q 410.53 871.06 398.10 875.56
  A 1.05 1.05 0.0 0 0 397.45 876.85
  L 398.03 878.84
  A 0.78 0.65 -58.3 0 1 398.06 879.05
  L 398.18 894.96
  A 1.92 1.92 0.0 0 0 399.26 896.67
  Q 405.06 899.45 407.47 901.02
  C 412.39 904.22 413.53 908.71 413.49 914.62
  Q 413.40 929.25 413.29 938.55
  A 2.24 2.23 -34.2 0 1 413.13 939.38
  Q 410.85 945.33 404.25 945.53
  Q 399.60 945.67 386.90 945.67
  Q 382.19 945.67 380.44 941.34
  Q 379.63 939.35 379.73 937.62
  Q 379.86 935.39 379.37 937.62
  Z"
/>
<path fill="#fdfdfe" d="
  M 346.01 923.76
  L 343.86 927.51
  A 0.48 0.48 0.0 0 1 342.97 927.33
  L 341.65 916.01
  A 0.40 0.40 0.0 0 1 342.05 915.57
  L 345.39 915.57
  A 0.58 0.58 0.0 0 1 345.97 916.08
  L 346.55 921.12
  A 4.26 4.26 0.0 0 1 346.01 923.76
  Z"
/>
<g fill="#1278a5">
<path d="
  M 487.12 853.36
  Q 487.08 851.39 487.38 850.66
  Q 489.36 845.89 491.75 835.98
  Q 492.86 831.38 499.27 810.72
  Q 501.07 804.92 503.91 799.15
  C 506.61 793.69 507.95 788.25 510.59 781.77
  Q 516.23 767.91 521.12 757.94
  A 1.23 1.23 0.0 0 1 522.43 757.26
  Q 533.56 759.12 548.42 760.60
  C 556.10 761.36 563.49 760.84 571.83 761.04
  Q 576.51 761.14 579.18 760.81
  Q 581.36 760.54 586.37 759.36
  A 0.82 0.82 0.0 0 1 587.36 760.32
  Q 586.80 763.14 585.04 766.81
  Q 581.09 775.03 573.31 784.55
  Q 568.27 790.71 565.42 795.05
  C 559.07 804.71 556.32 809.33 550.70 817.81
  Q 546.32 824.39 542.60 831.58
  Q 539.88 836.84 538.20 842.00
  Q 535.75 849.53 531.85 859.34
  Q 527.47 870.36 525.40 876.61
  Q 518.43 897.62 516.17 904.54
  A 1.64 1.64 0.0 0 1 514.22 905.63
  Q 494.51 900.82 476.90 893.29
  A 2.04 2.03 -69.8 0 1 475.76 890.82
  L 485.04 860.73
  A 1.89 1.51 -38.7 0 0 485.12 860.37
  Q 485.59 856.50 486.87 854.32
  A 1.85 1.79 60.6 0 0 487.12 853.36
  Z"
/>
<path d="
  M 561.66 819.31
  A 2.31 2.31 0.0 0 1 561.64 816.84
  Q 567.95 806.66 574.59 797.60
  Q 578.04 792.90 581.48 788.24
  C 585.57 782.67 587.65 778.72 590.95 773.03
  A 0.94 0.94 0.0 0 1 592.42 772.83
  Q 594.45 774.82 595.28 776.97
  C 599.11 786.90 602.58 795.77 607.62 804.31
  Q 611.01 810.08 616.01 816.90
  C 621.63 824.58 624.13 828.64 628.85 834.62
  C 633.99 841.13 638.74 849.07 644.36 855.89
  Q 649.79 862.47 655.84 872.57
  A 0.90 0.90 0.0 0 1 655.78 873.59
  C 648.11 883.71 637.81 890.60 627.42 897.08
  A 2.09 2.09 0.0 0 1 624.76 896.70
  Q 609.13 879.10 593.80 860.45
  Q 592.54 858.92 591.08 857.73
  A 3.40 2.95 86.9 0 1 590.49 857.12
  Q 586.36 851.59 577.95 841.53
  Q 569.15 830.99 561.66 819.31
  Z"
/>
</g>
<g fill="#fbd191">
<path d="
  M 502.28 588.34
  Q 506.10 590.59 511.62 591.21
  C 517.23 591.85 521.92 589.01 524.47 584.21
  C 525.82 581.66 522.30 579.83 520.41 580.02
  A 1.61 1.59 17.3 0 0 519.34 580.57
  C 517.14 583.10 514.50 586.13 510.87 584.22
  C 508.84 583.15 505.42 583.31 503.61 583.13
  A 1.62 1.62 0.0 0 0 502.29 583.63
  Q 501.83 584.13 501.70 584.59
  A 0.81 0.81 0.0 0 1 500.11 584.47
  L 499.06 575.35
  A 1.76 1.74 -83.4 0 0 497.94 573.92
  C 495.18 572.88 491.02 570.81 494.39 567.36
  C 497.24 564.44 499.89 563.03 500.29 558.01
  Q 500.71 552.71 500.89 549.30
  A 0.85 0.85 0.0 0 1 501.74 548.49
  L 550.71 548.49
  A 0.60 0.59 90.0 0 1 551.30 549.09
  Q 551.28 555.94 555.78 561.42
  C 557.18 563.11 559.89 564.55 560.92 565.87
  A 1.35 1.34 67.8 0 0 561.74 566.22
  L 566.20 566.54
  A 1.54 1.51 24.2 0 0 567.39 566.10
  C 570.17 563.32 572.27 560.99 576.31 560.23
  C 581.07 559.34 585.06 563.50 585.44 568.11
  Q 585.81 572.60 582.52 576.00
  C 578.90 579.74 575.17 580.07 569.98 579.85
  A 1.23 1.19 -66.6 0 0 569.06 580.23
  Q 565.78 583.65 569.11 586.79
  A 0.79 0.78 56.3 0 1 568.85 588.10
  C 556.37 592.66 543.16 598.90 532.94 607.21
  A 0.67 0.67 0.0 0 1 531.85 606.77
  C 531.64 605.13 531.11 604.22 529.23 604.10
  C 525.22 603.84 522.15 603.95 518.66 602.90
  C 512.86 601.15 502.53 595.34 501.76 588.68
  A 0.35 0.35 0.0 0 1 502.28 588.34
  Z"
/>
<path d="
  M 458.02 746.52
  A 0.59 0.59 0.0 0 1 458.10 747.24
  Q 451.99 757.42 440.62 760.91
  A 2.30 2.20 -50.1 0 1 439.81 761.00
  Q 438.65 760.89 437.65 759.92
  Q 437.09 759.37 437.50 758.68
  Q 440.36 753.76 439.93 749.92
  A 1.50 1.50 0.0 0 1 440.77 748.40
  C 444.32 746.69 448.52 742.42 447.90 738.14
  A 1.12 1.11 66.8 0 0 446.11 737.42
  L 441.79 740.83
  A 1.24 1.20 -61.6 0 1 440.96 741.09
  L 432.98 740.60
  A 4.29 4.29 0.0 0 0 429.64 741.87
  C 427.02 744.52 426.50 745.52 422.35 745.36
  A 0.86 0.86 0.0 0 1 421.53 744.57
  Q 421.38 742.70 422.22 740.93
  C 424.83 735.44 428.32 729.58 434.47 727.19
  Q 434.64 727.13 439.72 725.40
  A 0.65 0.64 62.9 0 1 440.46 725.64
  L 447.73 736.25
  A 1.39 1.26 0.6 0 0 448.14 736.63
  Q 449.83 737.63 451.69 739.96
  C 453.71 742.46 455.99 744.43 458.02 746.52
  Z"
/>
<path d="
  M 631.35 768.35
  A 1.80 1.79 -49.0 0 0 628.14 768.58
  C 627.33 770.59 626.72 772.79 625.78 772.92
  A 1.84 1.83 -16.0 0 1 623.81 771.83
  Q 622.92 769.73 622.91 767.06
  Q 622.89 759.28 622.88 756.43
  A 1.04 1.03 84.6 0 1 623.72 755.41
  Q 625.93 755.02 627.49 754.47
  Q 638.10 750.71 649.35 745.46
  A 0.83 0.83 0.0 0 1 650.39 745.75
  Q 655.51 753.45 658.37 760.43
  A 4.38 4.24 -60.5 0 1 658.68 761.62
  Q 659.20 765.97 656.76 770.01
  A 1.47 1.47 0.0 0 1 656.05 770.63
  L 652.26 772.25
  A 1.35 1.35 0.0 0 0 651.69 772.71
  L 649.67 775.46
  A 4.04 4.04 0.0 0 1 646.42 777.10
  L 642.25 777.10
  A 1.24 1.17 -53.8 0 0 641.82 777.18
  C 635.69 779.35 633.58 772.19 631.35 768.35
  Z"
/>
<path d="
  M 432.45 750.78
  A 0.52 0.52 0.0 0 1 433.07 751.39
  Q 432.07 756.39 428.13 759.19
  A 1.83 1.79 32.1 0 1 426.75 759.49
  Q 425.47 759.25 423.78 758.21
  A 0.63 0.62 -59.1 0 1 423.57 757.35
  Q 426.65 752.05 432.45 750.78
  Z"
/>
<path d="
  M 307.98 847.94
  Q 308.12 849.02 305.78 851.54
  Q 299.96 857.84 298.60 859.09
  Q 287.03 869.79 272.21 875.22
  A 1.76 1.75 48.1 0 1 270.82 875.14
  Q 267.16 873.35 264.51 873.70
  Q 259.05 874.43 250.70 874.46
  C 240.20 874.51 234.19 867.93 230.99 858.56
  A 1.26 1.24 52.4 0 1 231.12 857.49
  C 232.09 855.93 234.02 853.95 234.43 852.35
  Q 235.28 849.02 234.58 845.98
  A 0.87 0.87 0.0 0 1 235.26 844.93
  Q 239.35 844.14 244.53 842.55
  C 248.63 841.29 251.03 839.57 253.27 835.54
  Q 253.82 834.54 256.67 829.68
  Q 264.75 815.91 280.80 817.15
  A 1.25 1.23 -14.4 0 1 281.72 817.68
  Q 282.25 818.46 282.30 819.62
  A 1.06 1.04 13.8 0 0 282.84 820.50
  Q 285.67 822.05 287.53 820.98
  C 292.42 818.16 296.50 817.19 301.69 819.55
  C 307.17 822.05 314.17 828.36 314.53 835.04
  C 314.75 839.11 311.72 841.62 307.63 841.26
  Q 303.88 840.94 300.01 839.33
  Q 298.52 838.70 297.59 839.99
  C 295.84 842.41 299.25 845.76 301.29 846.69
  C 302.93 847.44 305.86 847.17 307.32 847.30
  A 0.74 0.73 88.5 0 1 307.98 847.94
  Z"
/>
<path d="
  M 405.55 840.04
  A 0.48 0.48 0.0 0 1 406.38 840.36
  C 406.50 848.48 407.61 857.32 401.60 863.35
  Q 396.68 868.28 389.32 869.41
  Q 385.18 870.05 386.96 874.64
  C 389.60 881.47 389.16 887.27 389.17 896.00
  C 389.17 899.27 392.50 902.25 395.15 904.05
  C 399.57 907.06 402.84 908.36 404.13 911.74
  A 1.05 1.05 0.0 0 1 404.19 912.09
  L 404.19 934.97
  A 1.13 1.13 0.0 0 1 403.06 936.10
  L 390.52 936.10
  A 1.75 1.75 0.0 0 1 388.77 934.36
  Q 388.76 928.10 387.25 922.49
  A 4.51 4.48 8.5 0 0 385.27 919.83
  Q 382.71 918.26 379.37 917.48
  Q 365.64 914.28 364.33 913.77
  Q 359.42 911.83 355.06 905.91
  A 2.46 2.46 0.0 0 0 354.16 905.17
  C 352.91 904.58 350.98 904.59 349.67 906.00
  Q 349.00 906.72 347.49 906.65
  Q 346.82 906.61 330.70 906.55
  A 1.88 1.88 0.0 0 0 329.00 909.24
  Q 334.77 921.20 333.80 935.26
  A 0.89 0.88 1.7 0 1 332.91 936.09
  L 320.90 936.09
  A 2.21 2.19 -1.9 0 1 318.70 934.05
  Q 318.04 924.42 312.16 916.55
  Q 309.17 912.53 303.72 912.68
  C 301.48 912.74 300.70 912.73 299.22 914.55
  Q 293.95 921.00 286.06 929.33
  Q 280.91 934.77 277.08 935.55
  A 5.50 5.50 0.0 0 1 276.09 935.66
  Q 268.37 935.87 265.90 935.35
  C 264.25 935.00 261.30 932.85 261.15 930.94
  C 260.88 927.56 263.27 926.18 266.15 924.12
  A 7.51 7.33 3.4 0 0 267.27 923.15
  Q 275.66 914.40 280.84 902.79
  A 1.68 1.66 -39.1 0 0 280.95 901.80
  L 279.62 894.90
  A 1.74 1.74 0.0 0 1 280.67 892.95
  C 285.45 890.99 290.69 889.71 295.74 887.14
  Q 305.64 882.09 313.31 875.08
  Q 317.63 871.14 321.52 863.20
  A 0.82 0.82 0.0 0 1 322.27 862.74
  Q 344.52 862.98 366.48 862.74
  Q 374.21 862.65 380.24 866.65
  A 1.11 1.10 -40.6 0 0 381.33 866.73
  Q 383.55 865.64 384.42 864.14
  Q 387.21 859.33 390.06 856.30
  Q 393.64 852.49 395.07 850.82
  C 398.78 846.49 402.44 843.47 405.55 840.04
  Z"
/>
<path d="
  M 355.60 920.00
  A 0.39 0.39 0.0 0 1 356.15 919.61
  Q 363.29 922.73 372.08 924.29
  A 0.72 0.72 0.0 0 1 372.64 925.21
  L 369.56 935.19
  A 1.23 1.21 8.3 0 1 368.39 936.05
  L 352.09 936.05
  A 1.40 1.40 0.0 0 1 350.86 933.98
  C 353.70 928.75 355.99 925.15 355.60 920.00
  Z"
/>
</g>
<g fill="#23284a">
<path d="
  M 596.02 553.45
  A 2.02 2.02 0.0 0 1 597.47 556.01
  L 594.01 566.98
  A 0.64 0.64 0.0 0 1 592.81 567.03
  C 591.38 563.43 588.22 558.00 584.80 556.14
  Q 579.51 553.25 573.52 554.71
  C 570.61 555.41 567.66 558.45 564.59 559.48
  A 1.59 1.59 0.0 0 1 563.46 559.45
  Q 556.82 556.76 558.48 549.34
  A 0.58 0.57 -79.4 0 1 559.11 548.90
  Q 567.60 549.93 589.81 552.12
  C 591.74 552.31 594.61 553.05 596.02 553.45
  Z"
/>
<path d="
  M 510.62 745.02
  A 2.58 2.56 -84.0 0 1 508.98 742.98
  Q 508.39 738.95 509.43 733.94
  C 509.95 731.44 509.53 727.15 509.86 724.03
  Q 511.07 712.66 511.76 702.71
  Q 512.44 692.82 513.91 681.41
  Q 516.15 663.94 517.27 657.28
  Q 517.86 653.80 522.35 639.03
  Q 523.73 634.50 525.61 630.67
  C 529.16 623.45 530.57 619.31 536.66 615.35
  C 542.57 611.50 550.22 605.64 559.31 601.76
  Q 561.57 600.80 585.64 590.40
  Q 592.86 587.28 600.60 588.03
  Q 602.85 588.25 604.52 590.29
  Q 609.41 596.28 606.31 604.92
  C 605.47 607.24 603.23 609.17 600.96 610.42
  A 3.66 3.64 -48.7 0 1 597.85 610.63
  Q 579.70 603.55 565.66 616.67
  C 556.39 625.33 554.64 638.92 559.25 650.29
  Q 562.30 657.80 567.24 665.77
  Q 572.90 674.90 579.16 684.71
  Q 585.65 694.87 589.48 703.28
  Q 594.49 714.32 597.91 722.82
  C 598.68 724.72 597.60 726.98 597.51 728.39
  Q 597.15 733.82 596.04 742.62
  Q 595.52 746.80 593.28 747.91
  C 587.39 750.84 580.82 751.60 573.50 751.64
  Q 569.39 751.66 555.57 751.58
  Q 550.74 751.55 546.94 751.13
  C 543.26 750.72 539.61 750.74 535.50 749.92
  Q 528.79 748.57 522.76 747.93
  Q 519.18 747.55 516.60 746.79
  Q 510.76 745.07 510.62 745.02
  Z"
/>
<path d="
  M 515.20 610.82
  Q 516.59 610.37 518.16 611.08
  A 1.30 1.27 -87.5 0 1 518.85 611.85
  Q 521.24 618.88 518.54 626.07
  A 0.85 0.85 0.0 0 1 517.16 626.39
  Q 510.13 619.76 514.25 611.63
  A 1.63 1.59 3.8 0 1 515.20 610.82
  Z"
/>
<path d="
  M 648.97 733.29
  A 3.26 3.25 -15.5 0 1 647.02 736.73
  Q 632.85 742.79 621.80 747.04
  Q 619.84 747.80 618.31 747.22
  A 1.20 1.18 88.6 0 1 617.63 746.56
  Q 617.57 746.40 615.02 740.79
  Q 611.27 732.50 598.15 701.19
  Q 595.55 694.99 592.00 689.32
  Q 580.00 670.14 572.14 657.63
  Q 567.88 650.84 566.23 644.54
  A 8.88 8.61 -55.4 0 1 565.96 642.93
  C 565.84 641.27 565.53 637.62 565.85 635.40
  C 567.61 623.39 577.26 616.25 589.21 616.98
  C 596.76 617.43 603.54 622.37 607.39 628.89
  Q 610.90 634.84 613.54 640.69
  C 618.96 652.66 622.34 660.94 627.11 670.15
  Q 629.80 675.33 631.08 678.97
  Q 640.80 706.63 646.65 723.59
  Q 648.31 728.41 648.97 733.29
  Z"
/>
<path d="
  M 513.02 628.80
  Q 514.62 631.20 514.23 634.09
  Q 512.99 643.53 507.49 653.49
  Q 505.44 657.22 504.70 661.32
  Q 500.04 687.25 498.88 715.32
  C 498.75 718.41 497.15 720.29 494.51 722.26
  C 488.04 727.06 480.94 731.62 474.98 737.68
  Q 471.83 740.88 469.02 742.80
  C 467.65 743.73 466.56 742.69 465.50 741.78
  Q 460.04 737.15 457.38 733.62
  Q 453.15 728.01 446.25 720.65
  Q 444.50 718.78 444.00 716.61
  A 2.12 2.12 0.0 0 1 444.83 714.42
  Q 449.65 710.99 453.71 706.76
  C 461.72 698.45 472.61 689.78 479.59 683.59
  C 482.26 681.22 484.83 678.01 486.65 674.48
  Q 493.43 661.42 494.74 658.29
  Q 499.16 647.81 501.51 644.06
  Q 507.78 634.04 511.85 628.76
  A 0.72 0.72 0.0 0 1 513.02 628.80
  Z"
/>
<path d="
  M 612.51 935.58
  Q 608.99 930.96 613.19 926.69
  C 616.64 923.19 622.31 919.99 624.79 914.07
  Q 626.79 909.31 628.00 907.14
  A 1.88 1.85 1.4 0 1 628.84 906.35
  Q 636.40 902.72 642.76 897.76
  Q 653.32 889.53 662.06 881.89
  A 0.97 0.97 0.0 0 1 663.20 881.78
  C 668.73 884.98 676.27 890.25 673.82 897.82
  C 673.03 900.26 669.88 904.63 667.90 907.00
  Q 658.28 918.52 648.11 932.08
  C 646.10 934.75 642.26 935.59 638.39 935.62
  Q 628.60 935.67 613.64 936.12
  A 1.37 1.35 -18.9 0 1 612.51 935.58
  Z"
/>
<path d="
  M 511.87 914.54
  Q 512.84 920.89 511.47 928.05
  Q 509.79 936.84 500.90 934.92
  Q 491.86 932.97 474.28 928.03
  C 464.32 925.22 455.86 923.97 444.86 921.10
  Q 440.02 919.83 439.43 916.25
  C 438.68 911.63 442.10 908.38 446.43 907.39
  C 450.68 906.41 456.05 906.00 460.57 904.73
  Q 465.23 903.42 470.40 901.04
  A 2.66 2.66 0.0 0 1 472.58 901.04
  Q 491.92 909.77 511.19 913.83
  A 0.88 0.86 2.1 0 1 511.87 914.54
  Z"
/>
</g>
<g fill="#f32e3e">
<path d="
  M 276.51 884.47
  A 1.72 1.71 66.2 0 1 277.44 882.06
  Q 280.85 880.82 292.01 874.78
  Q 299.73 870.60 305.25 864.50
  Q 308.55 860.84 311.70 856.73
  A 1.91 1.90 -53.1 0 1 314.34 856.35
  L 314.84 856.72
  A 1.67 1.67 0.0 0 1 315.27 858.94
  C 309.77 867.87 301.36 874.74 291.92 879.42
  Q 288.48 881.13 279.02 885.44
  A 1.89 1.88 -25.9 0 1 276.57 884.60
  L 276.51 884.47
  Z"
/>
<path d="
  M 270.50 884.96
  C 274.26 889.14 269.46 893.74 265.14 890.70
  A 1.15 1.14 -74.7 0 1 264.66 889.85
  Q 264.43 887.04 264.97 885.40
  A 2.32 2.20 77.2 0 1 265.47 884.56
  Q 267.88 882.05 270.50 884.96
  Z"
/>
</g>
<path fill="#283671" d="
  M 503.82 524.68
  A 2.11 2.11 0.0 0 0 505.54 523.82
  L 509.02 519.08
  A 2.89 2.69 88.0 0 1 509.28 518.78
  Q 511.84 516.22 517.36 509.88
  C 520.23 506.58 526.69 502.91 532.06 501.83
  Q 533.63 501.52 537.74 500.09
  A 3.97 3.89 -55.1 0 1 538.91 499.87
  Q 551.68 499.53 556.96 500.69
  Q 562.01 501.80 567.47 502.60
  Q 582.11 504.76 591.22 517.07
  Q 595.59 522.98 596.52 526.94
  Q 598.67 536.06 598.63 545.09
  A 1.17 1.17 0.0 0 1 597.12 546.20
  Q 594.54 545.41 592.24 545.06
  Q 577.82 542.83 565.61 542.10
  C 562.93 541.94 560.84 540.89 558.09 541.10
  A 3.85 3.29 41.3 0 1 557.38 541.09
  Q 549.11 540.07 546.06 540.05
  Q 506.29 539.82 499.79 539.68
  Q 498.05 539.64 493.22 539.87
  C 484.90 540.25 476.64 538.17 471.49 531.02
  Q 470.33 529.41 470.22 527.70
  A 1.96 1.96 0.0 0 1 471.88 525.64
  Q 475.29 525.13 480.91 524.86
  Q 489.43 524.46 503.82 524.68
  Z"
/>
<g fill="#141727">
<ellipse cx="0.00" cy="0.00" transform="translate(518.70,559.69) rotate(-81.2)" rx="6.67" ry="5.35"/>
<path d="
  M 565.44 722.18
  L 565.44 724.02
  A 0.80 0.30 -65.3 0 1 565.43 724.15
  Q 565.07 727.50 561.13 724.85
  C 559.35 723.65 557.92 720.74 556.02 718.98
  Q 546.70 710.31 539.84 699.62
  A 2.83 2.81 -60.1 0 1 539.39 697.93
  Q 539.70 692.29 545.36 690.70
  A 1.69 1.67 -28.1 0 1 547.07 691.21
  C 549.10 693.51 549.86 696.41 551.66 698.86
  Q 555.68 704.31 556.84 705.46
  Q 559.16 707.79 564.36 710.99
  C 566.93 712.57 570.11 712.57 572.51 714.23
  C 575.61 716.39 573.53 720.98 570.42 721.81
  A 1.79 1.75 42.9 0 1 569.59 721.83
  L 566.65 721.20
  A 1.00 1.00 0.0 0 0 565.44 722.18
  Z"
/>
<ellipse cx="0.00" cy="0.00" transform="translate(262.98,841.66) rotate(-84.3)" rx="5.60" ry="4.92"/>
</g>
</svg>
