<?xml version="1.0" encoding="UTF-8" standalone="no"?>
<!DOCTYPE svg PUBLIC "-//W3C//DTD SVG 1.1//EN" "http://www.w3.org/Graphics/SVG/1.1/DTD/svg11.dtd">
<svg xmlns="http://www.w3.org/2000/svg" version="1.1" viewBox="0.00 0.00 1024.00 1536.00">

<g stroke-width="2.00" fill="none" stroke-linecap="butt">
<path stroke="#232123" vector-effect="non-scaling-stroke" d="
  M 516.01 214.44
  L 515.50 215.45
  A 0.76 0.76 0.0 0 1 514.09 215.31
  L 512.43 209.38
  A 0.78 0.78 0.0 0 0 510.90 209.59
  L 510.90 234.72
  A 0.75 0.74 80.8 0 0 511.88 235.43
  Q 516.31 233.94 518.04 230.58"
/>
<path stroke="#232123" vector-effect="non-scaling-stroke" d="
  M 523.93 253.94
  Q 523.88 254.88 523.60 255.30
  A 0.33 0.32 56.3 0 1 523.01 255.18
  L 521.96 249.39
  A 0.69 0.69 0.0 0 0 521.38 248.83
  Q 513.97 247.72 506.94 248.92
  A 0.94 0.94 0.0 0 0 506.15 249.85
  L 506.15 254.97
  A 0.81 0.80 61.8 0 1 506.02 255.41
  L 504.22 258.14
  A 0.71 0.70 20.0 0 0 504.73 259.23
  Q 512.13 260.05 519.11 260.27
  Q 523.95 260.42 526.93 258.46"
/>
<path stroke="#232123" vector-effect="non-scaling-stroke" d="
  M 528.86 262.34
  Q 528.18 263.42 526.07 263.11
  Q 522.79 262.64 519.99 262.23"
/>
<path stroke="#232123" vector-effect="non-scaling-stroke" d="
  M 519.99 262.23
  L 502.66 262.38
  A 1.34 1.34 0.0 0 0 501.51 263.06
  Q 495.49 273.88 489.06 283.55
  Q 488.43 284.49 485.26 287.02
  A 1.02 1.01 -24.4 0 0 484.89 288.00
  L 485.43 290.96
  A 1.24 1.24 0.0 0 0 486.53 291.97
  Q 494.92 292.80 503.21 292.65
  Q 517.20 292.40 531.32 292.26
  Q 537.55 292.20 542.39 293.54
  Q 560.47 298.52 570.95 301.99
  A 1.66 1.66 0.0 0 0 573.13 300.41
  L 573.13 298.87
  A 2.89 2.88 -78.4 0 0 571.39 296.22
  L 566.55 294.11"
/>
<path stroke="#232123" vector-effect="non-scaling-stroke" d="
  M 566.55 294.11
  Q 567.56 294.05 567.25 293.03"
/>
<path stroke="#232123" vector-effect="non-scaling-stroke" d="
  M 544.44 410.46
  Q 543.74 411.02 543.02 411.10
  A 0.91 0.91 0.0 0 0 542.63 412.77
  C 546.23 415.07 549.77 414.83 552.01 419.50
  Q 555.36 426.45 549.85 430.89
  C 546.74 433.40 543.45 433.51 540.27 430.93
  A 1.18 1.15 -80.6 0 1 539.90 430.40
  Q 539.46 429.16 538.27 428.88
  A 0.41 0.41 0.0 0 1 537.98 428.35
  L 538.70 426.17
  A 0.54 0.53 -71.7 0 1 539.38 425.82
  L 539.63 425.91
  A 0.42 0.42 0.0 0 1 539.90 426.44
  L 539.44 427.84
  A 0.53 0.53 0.0 0 0 540.09 428.52
  L 544.05 427.41
  A 1.02 1.02 0.0 0 0 544.66 425.92
  L 544.50 425.65
  A 2.98 2.98 0.0 0 0 541.62 424.17
  Q 535.56 424.78 532.57 429.33
  Q 530.63 432.29 528.08 436.57
  C 526.47 439.28 524.11 438.74 523.74 443.57
  Q 523.54 446.05 523.94 453.36
  C 524.04 455.18 525.73 457.53 524.52 458.99
  A 1.09 1.07 61.6 0 0 524.28 459.82
  Q 524.44 460.92 525.93 461.51
  A 0.29 0.29 0.0 0 1 525.82 462.06
  L 518.47 462.06
  A 0.30 0.30 0.0 0 1 518.30 461.52
  Q 518.94 461.05 519.46 460.21
  A 1.24 1.18 62.1 0 0 519.64 459.57
  L 519.82 445.49
  A 0.14 0.14 0.0 0 1 520.10 445.47
  Q 521.07 451.64 521.04 459.24
  A 0.67 0.67 0.0 0 0 521.67 459.92
  L 521.72 459.92
  A 0.68 0.67 6.9 0 0 522.44 459.36
  C 523.36 453.62 522.32 447.67 522.57 442.82
  Q 522.81 438.23 522.37 427.70
  A 0.94 0.93 11.4 0 0 521.84 426.91
  C 516.51 424.42 511.29 425.76 505.67 427.81
  A 0.80 0.80 0.0 0 0 505.14 428.56
  L 505.14 459.89
  A 0.55 0.55 0.0 0 0 505.59 460.43
  L 510.65 461.41
  A 0.30 0.30 0.0 0 1 510.61 462.00
  L 496.09 462.90
  A 0.33 0.33 0.0 0 1 495.74 462.63
  L 495.68 462.32
  A 0.54 0.54 0.0 0 1 496.13 461.70
  Q 499.50 461.17 498.79 457.59
  A 0.40 0.40 0.0 0 0 498.14 457.37
  L 491.52 463.03"
/>
<path stroke="#232123" vector-effect="non-scaling-stroke" d="
  M 473.30 384.56
  L 473.71 383.61
  A 0.20 0.20 0.0 0 1 474.08 383.60
  C 476.44 388.50 477.62 394.18 475.66 399.43
  A 1.10 1.10 0.0 0 0 476.89 400.90
  L 496.19 397.39
  A 0.57 0.56 79.5 0 1 496.85 397.85
  L 497.74 402.75
  A 1.69 1.68 -4.0 0 0 499.34 404.13
  Q 510.15 404.52 520.99 404.29
  Q 524.58 404.21 527.13 404.61
  Q 535.50 405.91 543.85 406.63
  A 0.73 0.70 -64.3 0 0 544.42 406.42
  L 549.26 401.58
  A 1.47 1.47 0.0 0 0 548.68 399.15
  L 528.13 392.37
  A 0.09 0.08 28.7 0 1 528.09 392.24
  Q 528.11 392.21 528.13 392.19
  A 0.28 0.03 27.7 0 1 528.38 392.29
  Q 528.79 392.49 529.29 392.24"
/>
<path stroke="#835e1f" vector-effect="non-scaling-stroke" d="
  M 529.29 392.24
  L 542.36 395.51
  A 1.42 1.42 0.0 0 0 544.09 394.44
  Q 544.66 391.90 545.34 388.92
  Q 547.07 381.35 553.74 349.63
  C 555.88 339.48 557.47 326.40 559.27 319.19
  Q 560.04 316.11 559.83 312.93
  A 0.86 0.86 0.0 0 0 559.19 312.15
  L 536.33 306.22
  A 0.71 0.69 -63.6 0 0 535.58 306.48
  Q 535.12 307.12 535.16 308.11"
/>
<path stroke="#232123" vector-effect="non-scaling-stroke" d="
  M 535.16 308.11
  Q 534.88 309.39 534.40 310.02
  A 0.30 0.30 0.0 0 1 533.86 309.86
  L 533.64 306.41
  A 0.64 0.64 0.0 0 0 533.05 305.81
  L 527.27 305.39"
/>
<path stroke="#835e1f" vector-effect="non-scaling-stroke" d="
  M 527.27 305.39
  L 519.30 305.45"
/>
<path stroke="#232123" vector-effect="non-scaling-stroke" d="
  M 519.30 305.45
  C 529.38 303.14 537.76 303.89 547.90 307.21
  Q 555.45 309.67 565.62 311.29
  A 0.61 0.61 0.0 0 0 566.30 310.52
  L 565.21 306.61
  A 0.77 0.76 -4.5 0 0 564.56 306.06
  Q 562.13 305.76 561.69 305.56
  Q 554.48 302.28 548.86 301.17
  Q 539.33 299.29 535.72 297.29
  A 0.95 0.93 -44.8 0 0 534.79 297.30
  L 531.90 298.97
  A 1.22 1.20 32.2 0 1 531.21 299.12
  Q 510.81 297.68 488.22 299.82
  Q 481.95 300.42 473.10 303.03
  Q 464.13 305.67 457.07 307.79"
/>
<path stroke="#232123" vector-effect="non-scaling-stroke" d="
  M 449.25 302.30
  L 482.56 292.92
  A 1.01 1.00 87.7 0 0 483.26 292.15
  Q 483.59 290.42 483.25 288.18
  A 0.72 0.72 0.0 0 0 482.33 287.61
  C 474.76 289.97 465.51 293.68 456.51 292.15"
/>
<path stroke="#8f692b" vector-effect="non-scaling-stroke" d="
  M 527.27 305.39
  Q 528.61 305.35 529.21 306.07
  A 0.87 0.87 0.0 0 1 529.40 306.64
  L 528.33 324.91
  A 1.68 1.67 32.3 0 0 528.54 325.83
  L 532.00 331.81
  A 0.25 0.25 0.0 0 0 532.47 331.71
  L 535.16 308.11"
/>
<path stroke="#f6c64a" vector-effect="non-scaling-stroke" d="
  M 494.22 376.30
  L 489.49 331.85"
/>
<path stroke="#232123" vector-effect="non-scaling-stroke" d="
  M 546.58 411.37
  L 545.61 411.69
  A 0.37 0.37 0.0 0 0 545.57 412.38
  L 549.55 414.23
  A 0.70 0.56 -6.5 0 1 549.71 414.33
  Q 553.23 417.35 553.79 421.25
  C 554.53 426.46 554.21 433.56 547.59 434.48
  C 544.65 434.89 542.44 434.84 539.46 433.23
  Q 536.27 431.50 533.96 433.94
  Q 528.86 439.33 528.53 439.75
  C 525.38 443.75 525.72 446.95 525.97 452.60
  Q 526.04 454.21 527.98 457.73
  A 1.38 1.36 -53.6 0 1 528.12 458.71
  Q 528.10 458.80 528.10 458.81
  A 1.43 1.41 -60.4 0 0 528.41 459.96
  L 530.62 462.62
  A 1.17 1.16 -59.8 0 1 530.87 463.58
  L 530.34 466.30
  A 0.83 0.82 4.3 0 1 529.55 466.97
  Q 520.81 467.22 519.50 467.11
  Q 512.40 466.56 511.09 466.74
  A 8.18 8.14 -43.7 0 1 508.52 466.69
  Q 506.57 466.33 505.77 466.47
  Q 499.27 467.60 496.16 466.89
  Q 496.08 466.88 494.84 466.92
  Q 493.21 466.98 492.85 465.17
  A 0.90 0.87 7.1 0 0 492.35 464.55
  Q 491.96 464.37 491.84 464.53"
/>
<path stroke="#2f2c2f" vector-effect="non-scaling-stroke" d="
  M 519.99 262.23
  Q 526.03 272.72 531.61 283.65
  Q 532.11 284.61 534.34 287.09
  A 0.96 0.95 -24.5 0 0 535.16 287.39
  L 537.45 287.08
  A 2.98 2.86 46.2 0 1 538.41 287.12
  C 543.56 288.24 548.51 290.52 553.70 291.69
  Q 560.08 293.13 566.55 294.11"
/>
<path stroke="#8f692b" vector-effect="non-scaling-stroke" d="
  M 519.30 305.45
  L 493.29 305.34
  A 1.34 1.33 88.4 0 0 491.95 306.76
  Q 492.37 312.92 493.15 318.76
  Q 494.13 326.13 489.49 331.85"
/>
<path stroke="#96894e" vector-effect="non-scaling-stroke" d="
  M 489.49 331.85
  L 488.61 324.57"
/>
<path stroke="#8f692b" vector-effect="non-scaling-stroke" d="
  M 488.61 324.57
  L 486.46 307.53
  A 1.30 1.29 -11.2 0 0 484.83 306.44
  L 464.64 312.09
  A 1.31 1.31 0.0 0 0 463.71 313.61
  Q 466.29 326.46 467.84 335.05
  Q 469.06 341.81 470.72 349.54
  Q 471.82 354.63 473.55 364.06
  Q 476.22 378.66 480.78 394.43
  A 1.04 1.04 0.0 0 0 481.97 395.17
  L 493.72 393.03
  A 1.88 1.87 83.6 0 0 495.26 391.09
  L 494.85 382.90"
/>
<path stroke="#96894e" vector-effect="non-scaling-stroke" d="
  M 494.85 382.90
  L 494.22 376.30"
/>
<path stroke="#8f692b" vector-effect="non-scaling-stroke" d="
  M 494.22 376.30
  L 494.33 371.64
  A 0.20 0.20 0.0 0 1 494.57 371.44
  L 494.86 371.50
  A 0.19 0.18 -2.0 0 1 495.01 371.63
  L 496.18 376.93
  A 0.92 0.89 88.9 0 0 496.89 377.63
  L 497.18 377.69
  A 0.66 0.65 5.3 0 1 497.72 378.33
  Q 497.75 381.10 499.21 384.79
  A 2.18 2.17 -60.7 0 1 499.36 385.33
  Q 499.87 388.46 499.88 389.62
  Q 499.89 392.01 502.68 392.08
  Q 512.68 392.35 521.36 392.14
  A 2.13 2.12 -88.7 0 0 523.42 390.17
  C 523.66 387.07 523.55 384.50 524.84 382.71
  A 0.74 0.74 0.0 0 1 526.09 382.78
  Q 528.26 386.68 528.14 390.60
  A 1.33 1.32 -69.3 0 0 528.63 391.69
  L 529.29 392.24"
/>
<path stroke="#232123" vector-effect="non-scaling-stroke" d="
  M 525.88 504.82
  L 500.94 505.13
  A 1.50 1.50 0.0 0 0 499.46 506.60
  L 499.44 507.90
  A 0.97 0.96 89.2 0 0 500.45 508.89
  Q 510.76 508.41 522.24 509.91
  A 0.42 0.41 4.0 0 1 522.60 510.32
  L 522.59 510.71
  A 0.63 0.62 -0.0 0 1 521.97 511.32
  C 516.25 511.42 510.95 511.68 505.92 514.43
  A 1.11 1.10 -8.9 0 0 505.36 515.19
  Q 504.71 518.37 504.69 520.93
  Q 504.42 557.35 504.58 577.46
  C 504.74 596.92 504.35 621.03 504.56 634.59
  C 504.86 653.38 504.28 670.45 504.63 688.33
  Q 504.68 690.99 504.89 693.46
  Q 505.34 698.62 505.33 698.65
  A 0.54 0.53 -69.8 0 0 505.60 699.24
  L 509.00 701.14
  A 0.71 0.71 0.0 0 1 508.72 702.46
  L 501.97 703.12
  A 0.87 0.87 0.0 0 0 501.18 704.04
  Q 501.21 704.72 500.99 705.09
  A 0.46 0.46 0.0 0 0 501.38 705.79
  L 523.93 706.22
  A 1.01 1.01 0.0 0 0 524.78 704.63
  C 521.87 700.44 522.27 697.39 522.36 691.22
  C 522.69 667.76 523.19 655.80 522.90 637.20
  C 522.54 614.89 523.14 586.54 522.82 563.64
  C 522.60 547.70 522.17 530.81 523.10 514.43
  A 0.41 0.40 -87.8 0 1 523.51 514.04
  L 523.81 514.05
  A 0.26 0.26 0.0 0 1 524.07 514.29
  L 524.40 518.71"
/>
<path stroke="#232123" vector-effect="non-scaling-stroke" d="
  M 526.51 707.01
  Q 523.75 708.82 521.24 708.83
  C 512.07 708.84 505.83 708.10 499.17 710.24
  A 1.62 1.62 0.0 0 0 498.43 710.73
  Q 496.44 713.06 498.08 715.51
  A 1.54 1.50 73.0 0 0 499.32 716.19
  L 527.27 716.71
  A 0.36 0.36 0.0 0 1 527.62 717.07
  Q 527.61 717.47 527.22 717.67
  C 522.54 720.10 517.38 719.33 509.34 719.42
  Q 505.33 719.46 501.03 720.30
  A 1.54 1.54 0.0 0 0 501.30 723.35
  L 523.89 723.77
  A 0.75 0.75 0.0 0 1 524.62 724.51
  L 524.66 729.22"
/>
<path stroke="#232123" vector-effect="non-scaling-stroke" d="
  M 527.51 964.11
  L 508.43 964.92
  A 1.49 1.49 0.0 0 0 508.42 967.90
  L 525.88 968.77"
/>
<path stroke="#232123" vector-effect="non-scaling-stroke" d="
  M 525.62 975.71
  L 525.40 988.01
  A 0.16 0.15 40.6 0 1 525.09 988.03
  Q 523.56 980.61 523.90 972.70
  A 0.83 0.83 0.0 0 0 523.13 971.83
  Q 515.48 971.31 508.70 973.36
  A 0.89 0.88 82.7 0 0 508.07 974.18
  Q 507.97 977.21 507.66 982.19
  Q 507.24 989.13 507.04 1018.93
  C 506.92 1036.17 506.46 1048.59 506.27 1065.89
  Q 506.21 1071.24 503.71 1076.23
  A 0.61 0.61 0.0 0 0 504.23 1077.12
  L 528.01 1077.88"
/>
<path stroke="#232123" vector-effect="non-scaling-stroke" d="
  M 532.74 1087.75
  Q 519.96 1089.80 504.93 1089.41
  Q 496.90 1089.20 490.92 1087.74"
/>
<path stroke="#f6c64a" vector-effect="non-scaling-stroke" d="
  M 488.61 324.57
  Q 484.28 322.29 479.57 321.46
  A 0.49 0.49 0.0 0 0 479.00 321.88
  Q 478.75 323.83 479.05 326.76
  Q 481.00 345.99 481.91 354.54
  Q 482.25 357.79 483.53 364.34
  Q 484.33 368.45 484.82 374.23
  Q 485.12 377.75 486.38 383.66
  A 0.77 0.76 -2.1 0 0 487.03 384.26
  Q 491.05 384.82 494.85 382.90"
/>
<path stroke="#232123" vector-effect="non-scaling-stroke" d="
  M 532.40 1110.78
  L 532.08 1109.67
  A 0.35 0.35 0.0 0 0 531.41 1109.66
  L 527.76 1120.70
  A 1.10 1.08 -85.1 0 1 526.89 1121.44
  Q 519.75 1122.54 513.57 1121.44
  C 504.80 1119.89 503.96 1111.98 503.90 1104.65
  A 1.57 1.53 71.9 0 1 504.51 1103.41
  Q 508.72 1100.22 514.71 1098.85
  Q 518.30 1098.03 525.26 1098.33
  Q 530.90 1098.57 537.35 1097.60
  A 0.68 0.68 0.0 0 0 537.84 1096.58
  L 537.26 1095.56
  A 1.05 1.03 -15.0 0 0 536.36 1095.05
  C 517.56 1095.15 505.68 1095.56 492.14 1094.11
  Q 488.43 1093.71 486.18 1090.25"
/>
<path stroke="#232123" vector-effect="non-scaling-stroke" d="
  M 533.80 1129.82
  Q 525.89 1131.77 515.73 1131.46
  Q 511.81 1131.34 492.74 1131.80
  Q 491.40 1131.83 490.87 1130.71
  A 0.48 0.48 0.0 0 1 491.14 1130.06
  Q 492.15 1129.70 491.92 1128.58"
/>
<path stroke="#232123" vector-effect="non-scaling-stroke" d="
  M 535.80 1140.48
  Q 534.98 1137.95 531.70 1138.19
  C 523.68 1138.78 514.24 1138.88 505.34 1137.94
  C 499.60 1137.33 492.49 1135.43 487.14 1139.35"
/>
<path stroke="#232123" vector-effect="non-scaling-stroke" d="
  M 534.35 1141.80
  L 492.62 1143.55
  A 0.29 0.29 0.0 0 0 492.34 1143.85
  L 492.42 1145.05
  A 0.32 0.32 0.0 0 0 492.72 1145.35
  Q 511.90 1146.84 530.84 1146.73
  A 0.86 0.86 0.0 0 0 531.60 1146.27
  Q 533.30 1143.06 534.81 1143.59"
/>
<path stroke="#232123" vector-effect="non-scaling-stroke" d="
  M 533.97 1148.96
  Q 528.31 1151.97 522.73 1151.43
  C 516.15 1150.80 509.77 1149.89 505.21 1153.24
  C 503.03 1154.84 502.05 1158.83 501.73 1161.49
  Q 501.20 1165.86 500.62 1177.28
  Q 500.61 1177.49 500.57 1177.50
  A 0.42 0.29 84.1 0 1 500.22 1177.09
  L 499.13 1159.61
  A 0.69 0.49 88.4 0 0 498.65 1158.97
  L 498.61 1158.97
  A 0.64 0.63 -85.9 0 0 497.94 1159.56
  C 497.13 1170.04 496.30 1178.74 496.20 1189.28
  Q 496.07 1202.09 495.66 1205.60
  Q 494.34 1216.95 493.69 1224.53
  C 493.32 1228.88 493.87 1232.66 497.35 1235.58
  A 1.67 1.61 10.9 0 1 497.85 1236.29
  C 499.67 1241.18 505.11 1241.63 509.52 1241.21
  Q 521.39 1240.07 533.99 1241.37
  Q 535.37 1241.51 538.55 1241.48
  Q 540.96 1241.46 543.13 1241.69"
/>
<path stroke="#232123" vector-effect="non-scaling-stroke" d="
  M 546.63 1252.20
  Q 541.80 1253.63 538.81 1253.64
  Q 513.96 1253.74 488.77 1254.10
  C 485.06 1254.15 465.90 1254.73 471.01 1263.59
  A 0.85 0.84 74.4 0 0 471.76 1264.02
  Q 485.39 1263.74 488.13 1264.05
  Q 506.79 1266.16 517.76 1265.83
  Q 539.24 1265.18 556.57 1265.14
  A 0.71 0.70 -1.7 0 1 557.28 1265.80
  L 557.34 1266.74
  A 0.63 0.62 83.8 0 1 556.82 1267.39
  C 551.95 1268.19 546.77 1267.78 541.97 1269.41
  A 0.36 0.35 -26.3 0 0 541.79 1269.94
  L 545.82 1276.22
  A 4.91 4.64 22.1 0 1 546.38 1277.45
  C 547.33 1280.67 547.98 1284.86 549.57 1287.28
  C 551.96 1290.94 555.63 1294.80 560.17 1296.06
  Q 561.18 1296.34 565.14 1298.21
  C 570.45 1300.72 576.22 1300.91 581.96 1300.33"
/>
<path stroke="#232123" vector-effect="non-scaling-stroke" d="
  M 442.14 1300.48
  Q 455.63 1302.17 469.22 1301.09
  A 0.13 0.13 0.0 0 0 469.34 1300.95
  L 469.32 1300.66
  A 0.29 0.29 0.0 0 0 469.05 1300.38
  Q 465.92 1300.16 463.48 1298.49
  A 0.39 0.39 0.0 0 1 463.50 1297.83
  C 467.07 1295.65 470.90 1293.12 473.09 1289.78
  C 475.66 1285.85 474.14 1279.60 476.62 1275.30
  Q 478.32 1272.35 481.75 1269.96
  A 0.26 0.26 0.0 0 0 481.66 1269.50
  C 473.46 1267.67 465.43 1269.45 456.93 1270.73"
/>
<path stroke="#232123" vector-effect="non-scaling-stroke" d="
  M 534.07 1153.12
  Q 530.24 1167.90 535.97 1181.11"
/>
</g>
<g fill="#2f2c2f">
<path d="
  M 516.01 214.44
  L 518.04 230.58
  Q 516.31 233.94 511.88 235.43
  A 0.75 0.74 80.8 0 1 510.90 234.72
  L 510.90 209.59
  A 0.78 0.78 0.0 0 1 512.43 209.38
  L 514.09 215.31
  A 0.76 0.76 0.0 0 0 515.50 215.45
  L 516.01 214.44
  Z"
/>
<path d="
  M 523.93 253.94
  Q 523.60 257.47 526.93 258.46
  Q 523.95 260.42 519.11 260.27
  Q 512.13 260.05 504.73 259.23
  A 0.71 0.70 20.0 0 1 504.22 258.14
  L 506.02 255.41
  A 0.81 0.80 61.8 0 0 506.15 254.97
  L 506.15 249.85
  A 0.94 0.94 0.0 0 1 506.94 248.92
  Q 513.97 247.72 521.38 248.83
  A 0.69 0.69 0.0 0 1 521.96 249.39
  L 523.01 255.18
  A 0.33 0.32 56.3 0 0 523.60 255.30
  Q 523.88 254.88 523.93 253.94
  Z"
/>
<path d="
  M 519.99 262.23
  Q 526.03 272.72 531.61 283.65
  Q 532.11 284.61 534.34 287.09
  A 0.96 0.95 -24.5 0 0 535.16 287.39
  L 537.45 287.08
  A 2.98 2.86 46.2 0 1 538.41 287.12
  C 543.56 288.24 548.51 290.52 553.70 291.69
  Q 560.08 293.13 566.55 294.11
  L 571.39 296.22
  A 2.89 2.88 -78.4 0 1 573.13 298.87
  L 573.13 300.41
  A 1.66 1.66 0.0 0 1 570.95 301.99
  Q 560.47 298.52 542.39 293.54
  Q 537.55 292.20 531.32 292.26
  Q 517.20 292.40 503.21 292.65
  Q 494.92 292.80 486.53 291.97
  A 1.24 1.24 0.0 0 1 485.43 290.96
  L 484.89 288.00
  A 1.02 1.01 -24.4 0 1 485.26 287.02
  Q 488.43 284.49 489.06 283.55
  Q 495.49 273.88 501.51 263.06
  A 1.34 1.34 0.0 0 1 502.66 262.38
  L 519.99 262.23
  Z"
/>
<path d="
  M 528.86 262.34
  C 529.83 263.47 532.15 262.88 533.46 263.06
  A 2.49 2.47 -20.6 0 1 534.73 263.63
  Q 539.29 267.52 545.46 273.29
  Q 554.66 281.89 563.33 288.91
  Q 564.53 289.88 566.02 290.37
  Q 567.08 290.73 567.27 291.34
  Q 567.47 292.01 567.25 293.03
  Q 567.56 294.05 566.55 294.11
  Q 560.08 293.13 553.70 291.69
  C 548.51 290.52 543.56 288.24 538.41 287.12
  A 2.98 2.86 46.2 0 0 537.45 287.08
  L 535.16 287.39
  A 0.96 0.95 -24.5 0 1 534.34 287.09
  Q 532.11 284.61 531.61 283.65
  Q 526.03 272.72 519.99 262.23
  Q 522.79 262.64 526.07 263.11
  Q 528.18 263.42 528.86 262.34
  Z"
/>
<path d="
  M 449.25 302.30
  L 449.89 296.90
  A 2.53 2.52 -89.0 0 1 452.19 294.67
  Q 456.28 294.34 456.51 292.15
  C 465.51 293.68 474.76 289.97 482.33 287.61
  A 0.72 0.72 0.0 0 1 483.25 288.18
  Q 483.59 290.42 483.26 292.15
  A 1.01 1.00 87.7 0 1 482.56 292.92
  L 449.25 302.30
  Z"
/>
<path d="
  M 519.30 305.45
  L 493.29 305.34
  A 1.34 1.33 88.4 0 0 491.95 306.76
  Q 492.37 312.92 493.15 318.76
  Q 494.13 326.13 489.49 331.85
  L 488.61 324.57
  L 486.46 307.53
  A 1.30 1.29 -11.2 0 0 484.83 306.44
  L 464.64 312.09
  A 1.31 1.31 0.0 0 0 463.71 313.61
  Q 466.29 326.46 467.84 335.05
  Q 469.06 341.81 470.72 349.54
  Q 471.82 354.63 473.55 364.06
  Q 476.22 378.66 480.78 394.43
  A 1.04 1.04 0.0 0 0 481.97 395.17
  L 493.72 393.03
  A 1.88 1.87 83.6 0 0 495.26 391.09
  L 494.85 382.90
  L 494.22 376.30
  L 494.33 371.64
  A 0.20 0.20 0.0 0 1 494.57 371.44
  L 494.86 371.50
  A 0.19 0.18 -2.0 0 1 495.01 371.63
  L 496.18 376.93
  A 0.92 0.89 88.9 0 0 496.89 377.63
  L 497.18 377.69
  A 0.66 0.65 5.3 0 1 497.72 378.33
  Q 497.75 381.10 499.21 384.79
  A 2.18 2.17 -60.7 0 1 499.36 385.33
  Q 499.87 388.46 499.88 389.62
  Q 499.89 392.01 502.68 392.08
  Q 512.68 392.35 521.36 392.14
  A 2.13 2.12 -88.7 0 0 523.42 390.17
  C 523.66 387.07 523.55 384.50 524.84 382.71
  A 0.74 0.74 0.0 0 1 526.09 382.78
  Q 528.26 386.68 528.14 390.60
  A 1.33 1.32 -69.3 0 0 528.63 391.69
  L 529.29 392.24
  Q 528.79 392.49 528.38 392.29
  A 0.28 0.03 27.7 0 0 528.13 392.19
  Q 528.11 392.21 528.09 392.24
  A 0.09 0.08 28.7 0 0 528.13 392.37
  L 548.68 399.15
  A 1.47 1.47 0.0 0 1 549.26 401.58
  L 544.42 406.42
  A 0.73 0.70 -64.3 0 1 543.85 406.63
  Q 535.50 405.91 527.13 404.61
  Q 524.58 404.21 520.99 404.29
  Q 510.15 404.52 499.34 404.13
  A 1.69 1.68 -4.0 0 1 497.74 402.75
  L 496.85 397.85
  A 0.57 0.56 79.5 0 0 496.19 397.39
  L 476.89 400.90
  A 1.10 1.10 0.0 0 1 475.66 399.43
  C 477.62 394.18 476.44 388.50 474.08 383.60
  A 0.20 0.20 0.0 0 0 473.71 383.61
  L 473.30 384.56
  L 459.05 314.85
  A 0.79 0.79 0.0 0 0 458.41 314.23
  Q 456.27 313.84 455.13 311.66
  A 1.22 1.20 -50.5 0 1 455.05 310.74
  Q 455.44 309.52 457.07 307.79
  Q 464.13 305.67 473.10 303.03
  Q 481.95 300.42 488.22 299.82
  Q 510.81 297.68 531.21 299.12
  A 1.22 1.20 32.2 0 0 531.90 298.97
  L 534.79 297.30
  A 0.95 0.93 -44.8 0 1 535.72 297.29
  Q 539.33 299.29 548.86 301.17
  Q 554.48 302.28 561.69 305.56
  Q 562.13 305.76 564.56 306.06
  A 0.77 0.76 -4.5 0 1 565.21 306.61
  L 566.30 310.52
  A 0.61 0.61 0.0 0 1 565.62 311.29
  Q 555.45 309.67 547.90 307.21
  C 537.76 303.89 529.38 303.14 519.30 305.45
  Z"
/>
<path d="
  M 535.16 308.11
  L 532.47 331.71
  A 0.25 0.25 0.0 0 1 532.00 331.81
  L 528.54 325.83
  A 1.68 1.67 32.3 0 1 528.33 324.91
  L 529.40 306.64
  A 0.87 0.87 0.0 0 0 529.21 306.07
  Q 528.61 305.35 527.27 305.39
  L 533.05 305.81
  A 0.64 0.64 0.0 0 1 533.64 306.41
  L 533.86 309.86
  A 0.30 0.30 0.0 0 0 534.40 310.02
  Q 534.88 309.39 535.16 308.11
  Z"
/>
<path d="
  M 544.44 410.46
  Q 545.19 411.17 546.58 411.37
  L 545.61 411.69
  A 0.37 0.37 0.0 0 0 545.57 412.38
  L 549.55 414.23
  A 0.70 0.56 -6.5 0 1 549.71 414.33
  Q 553.23 417.35 553.79 421.25
  C 554.53 426.46 554.21 433.56 547.59 434.48
  C 544.65 434.89 542.44 434.84 539.46 433.23
  Q 536.27 431.50 533.96 433.94
  Q 528.86 439.33 528.53 439.75
  C 525.38 443.75 525.72 446.95 525.97 452.60
  Q 526.04 454.21 527.98 457.73
  A 1.38 1.36 -53.6 0 1 528.12 458.71
  Q 528.10 458.80 528.10 458.81
  A 1.43 1.41 -60.4 0 0 528.41 459.96
  L 530.62 462.62
  A 1.17 1.16 -59.8 0 1 530.87 463.58
  L 530.34 466.30
  A 0.83 0.82 4.3 0 1 529.55 466.97
  Q 520.81 467.22 519.50 467.11
  Q 512.40 466.56 511.09 466.74
  A 8.18 8.14 -43.7 0 1 508.52 466.69
  Q 506.57 466.33 505.77 466.47
  Q 499.27 467.60 496.16 466.89
  Q 496.08 466.88 494.84 466.92
  Q 493.21 466.98 492.85 465.17
  A 0.90 0.87 7.1 0 0 492.35 464.55
  Q 491.96 464.37 491.84 464.53
  Q 491.90 463.69 491.52 463.03
  L 498.14 457.37
  A 0.40 0.40 0.0 0 1 498.79 457.59
  Q 499.50 461.17 496.13 461.70
  A 0.54 0.54 0.0 0 0 495.68 462.32
  L 495.74 462.63
  A 0.33 0.33 0.0 0 0 496.09 462.90
  L 510.61 462.00
  A 0.30 0.30 0.0 0 0 510.65 461.41
  L 505.59 460.43
  A 0.55 0.55 0.0 0 1 505.14 459.89
  L 505.14 428.56
  A 0.80 0.80 0.0 0 1 505.67 427.81
  C 511.29 425.76 516.51 424.42 521.84 426.91
  A 0.94 0.93 11.4 0 1 522.37 427.70
  Q 522.81 438.23 522.57 442.82
  C 522.32 447.67 523.36 453.62 522.44 459.36
  A 0.68 0.67 6.9 0 1 521.72 459.92
  L 521.67 459.92
  A 0.67 0.67 0.0 0 1 521.04 459.24
  Q 521.07 451.64 520.10 445.47
  A 0.14 0.14 0.0 0 0 519.82 445.49
  L 519.64 459.57
  A 1.24 1.18 62.1 0 1 519.46 460.21
  Q 518.94 461.05 518.30 461.52
  A 0.30 0.30 0.0 0 0 518.47 462.06
  L 525.82 462.06
  A 0.29 0.29 0.0 0 0 525.93 461.51
  Q 524.44 460.92 524.28 459.82
  A 1.09 1.07 61.6 0 1 524.52 458.99
  C 525.73 457.53 524.04 455.18 523.94 453.36
  Q 523.54 446.05 523.74 443.57
  C 524.11 438.74 526.47 439.28 528.08 436.57
  Q 530.63 432.29 532.57 429.33
  Q 535.56 424.78 541.62 424.17
  A 2.98 2.98 0.0 0 1 544.50 425.65
  L 544.66 425.92
  A 1.02 1.02 0.0 0 1 544.05 427.41
  L 540.09 428.52
  A 0.53 0.53 0.0 0 1 539.44 427.84
  L 539.90 426.44
  A 0.42 0.42 0.0 0 0 539.63 425.91
  L 539.38 425.82
  A 0.54 0.53 -71.7 0 0 538.70 426.17
  L 537.98 428.35
  A 0.41 0.41 0.0 0 0 538.27 428.88
  Q 539.46 429.16 539.90 430.40
  A 1.18 1.15 -80.6 0 0 540.27 430.93
  C 543.45 433.51 546.74 433.40 549.85 430.89
  Q 555.36 426.45 552.01 419.50
  C 549.77 414.83 546.23 415.07 542.63 412.77
  A 0.91 0.91 0.0 0 1 543.02 411.10
  Q 543.74 411.02 544.44 410.46
  Z"
/>
<path d="
  M 525.88 504.82
  Q 525.84 505.92 526.58 507.67
  A 0.93 0.93 0.0 0 1 526.47 508.59
  Q 524.74 510.94 524.67 511.76
  Q 524.36 515.23 524.40 518.71
  L 524.07 514.29
  A 0.26 0.26 0.0 0 0 523.81 514.05
  L 523.51 514.04
  A 0.41 0.40 -87.8 0 0 523.10 514.43
  C 522.17 530.81 522.60 547.70 522.82 563.64
  C 523.14 586.54 522.54 614.89 522.90 637.20
  C 523.19 655.80 522.69 667.76 522.36 691.22
  C 522.27 697.39 521.87 700.44 524.78 704.63
  A 1.01 1.01 0.0 0 1 523.93 706.22
  L 501.38 705.79
  A 0.46 0.46 0.0 0 1 500.99 705.09
  Q 501.21 704.72 501.18 704.04
  A 0.87 0.87 0.0 0 1 501.97 703.12
  L 508.72 702.46
  A 0.71 0.71 0.0 0 0 509.00 701.14
  L 505.60 699.24
  A 0.54 0.53 -69.8 0 1 505.33 698.65
  Q 505.34 698.62 504.89 693.46
  Q 504.68 690.99 504.63 688.33
  C 504.28 670.45 504.86 653.38 504.56 634.59
  C 504.35 621.03 504.74 596.92 504.58 577.46
  Q 504.42 557.35 504.69 520.93
  Q 504.71 518.37 505.36 515.19
  A 1.11 1.10 -8.9 0 1 505.92 514.43
  C 510.95 511.68 516.25 511.42 521.97 511.32
  A 0.63 0.62 -0.0 0 0 522.59 510.71
  L 522.60 510.32
  A 0.42 0.41 4.0 0 0 522.24 509.91
  Q 510.76 508.41 500.45 508.89
  A 0.97 0.96 89.2 0 1 499.44 507.90
  L 499.46 506.60
  A 1.50 1.50 0.0 0 1 500.94 505.13
  L 525.88 504.82
  Z"
/>
<path d="
  M 524.66 729.22
  L 524.62 724.51
  A 0.75 0.75 0.0 0 0 523.89 723.77
  L 501.30 723.35
  A 1.54 1.54 0.0 0 1 501.03 720.30
  Q 505.33 719.46 509.34 719.42
  C 517.38 719.33 522.54 720.10 527.22 717.67
  Q 527.61 717.47 527.62 717.07
  A 0.36 0.36 0.0 0 0 527.27 716.71
  L 499.32 716.19
  A 1.54 1.50 73.0 0 1 498.08 715.51
  Q 496.44 713.06 498.43 710.73
  A 1.62 1.62 0.0 0 1 499.17 710.24
  C 505.83 708.10 512.07 708.84 521.24 708.83
  Q 523.75 708.82 526.51 707.01
  Q 527.17 709.17 528.38 711.38
  Q 529.23 712.92 529.19 713.77
  C 529.11 715.76 528.64 716.85 527.26 718.26
  C 525.72 719.83 527.39 721.74 526.79 722.99
  Q 526.27 724.07 525.48 724.91
  A 1.20 1.20 0.0 0 0 525.17 725.57
  L 524.66 729.22
  Z"
/>
<path d="
  M 527.51 964.11
  Q 529.13 967.74 525.88 968.77
  L 508.42 967.90
  A 1.49 1.49 0.0 0 1 508.43 964.92
  L 527.51 964.11
  Z"
/>
<path d="
  M 525.62 975.71
  Q 526.10 993.60 526.70 1011.49
  Q 527.70 1041.12 528.21 1070.75
  Q 528.28 1074.47 528.01 1077.88
  L 504.23 1077.12
  A 0.61 0.61 0.0 0 1 503.71 1076.23
  Q 506.21 1071.24 506.27 1065.89
  C 506.46 1048.59 506.92 1036.17 507.04 1018.93
  Q 507.24 989.13 507.66 982.19
  Q 507.97 977.21 508.07 974.18
  A 0.89 0.88 82.7 0 1 508.70 973.36
  Q 515.48 971.31 523.13 971.83
  A 0.83 0.83 0.0 0 1 523.90 972.70
  Q 523.56 980.61 525.09 988.03
  A 0.16 0.15 40.6 0 0 525.40 988.01
  L 525.62 975.71
  Z"
/>
<path d="
  M 532.40 1110.78
  L 532.08 1109.67
  A 0.35 0.35 0.0 0 0 531.41 1109.66
  L 527.76 1120.70
  A 1.10 1.08 -85.1 0 1 526.89 1121.44
  Q 519.75 1122.54 513.57 1121.44
  C 504.80 1119.89 503.96 1111.98 503.90 1104.65
  A 1.57 1.53 71.9 0 1 504.51 1103.41
  Q 508.72 1100.22 514.71 1098.85
  Q 518.30 1098.03 525.26 1098.33
  Q 530.90 1098.57 537.35 1097.60
  A 0.68 0.68 0.0 0 0 537.84 1096.58
  L 537.26 1095.56
  A 1.05 1.03 -15.0 0 0 536.36 1095.05
  C 517.56 1095.15 505.68 1095.56 492.14 1094.11
  Q 488.43 1093.71 486.18 1090.25
  L 490.92 1087.74
  Q 496.90 1089.20 504.93 1089.41
  Q 519.96 1089.80 532.74 1087.75
  Q 534.90 1088.17 537.49 1089.82
  Q 540.82 1091.93 539.89 1096.12
  A 2.97 2.80 -22.2 0 1 539.37 1097.26
  Q 534.77 1103.38 532.40 1110.78
  Z"
/>
<path d="
  M 491.92 1128.58
  Q 492.15 1129.70 491.14 1130.06
  A 0.48 0.48 0.0 0 0 490.87 1130.71
  Q 491.40 1131.83 492.74 1131.80
  Q 511.81 1131.34 515.73 1131.46
  Q 525.89 1131.77 533.80 1129.82
  Q 539.28 1131.82 537.77 1137.99
  Q 537.35 1139.69 535.80 1140.48
  Q 534.98 1137.95 531.70 1138.19
  C 523.68 1138.78 514.24 1138.88 505.34 1137.94
  C 499.60 1137.33 492.49 1135.43 487.14 1139.35
  Q 485.28 1135.77 486.78 1132.60
  C 487.75 1130.55 490.24 1130.17 491.92 1128.58
  Z"
/>
<path d="
  M 534.35 1141.80
  L 534.81 1143.59
  Q 533.30 1143.06 531.60 1146.27
  A 0.86 0.86 0.0 0 1 530.84 1146.73
  Q 511.90 1146.84 492.72 1145.35
  A 0.32 0.32 0.0 0 1 492.42 1145.05
  L 492.34 1143.85
  A 0.29 0.29 0.0 0 1 492.62 1143.55
  L 534.35 1141.80
  Z"
/>
<path d="
  M 533.97 1148.96
  L 534.07 1153.12
  Q 530.24 1167.90 535.97 1181.11
  Q 538.40 1209.79 543.37 1238.49
  Q 543.62 1239.95 543.13 1241.69
  Q 540.96 1241.46 538.55 1241.48
  Q 535.37 1241.51 533.99 1241.37
  Q 521.39 1240.07 509.52 1241.21
  C 505.11 1241.63 499.67 1241.18 497.85 1236.29
  A 1.67 1.61 10.9 0 0 497.35 1235.58
  C 493.87 1232.66 493.32 1228.88 493.69 1224.53
  Q 494.34 1216.95 495.66 1205.60
  Q 496.07 1202.09 496.20 1189.28
  C 496.30 1178.74 497.13 1170.04 497.94 1159.56
  A 0.64 0.63 -85.9 0 1 498.61 1158.97
  L 498.65 1158.97
  A 0.69 0.49 88.4 0 1 499.13 1159.61
  L 500.22 1177.09
  A 0.42 0.29 84.1 0 0 500.57 1177.50
  Q 500.61 1177.49 500.62 1177.28
  Q 501.20 1165.86 501.73 1161.49
  C 502.05 1158.83 503.03 1154.84 505.21 1153.24
  C 509.77 1149.89 516.15 1150.80 522.73 1151.43
  Q 528.31 1151.97 533.97 1148.96
  Z"
/>
<path d="
  M 546.63 1252.20
  Q 550.10 1254.11 553.60 1255.64
  Q 555.15 1256.32 557.25 1260.28
  A 1.86 1.82 31.5 0 1 557.47 1261.15
  L 557.47 1265.53
  A 1.13 1.13 0.0 0 0 558.44 1266.65
  L 561.28 1267.08
  A 3.37 3.03 -25.4 0 1 562.15 1267.34
  Q 568.82 1270.43 569.28 1277.24
  C 569.94 1286.77 569.68 1293.48 577.07 1299.37
  A 1.44 1.37 -19.9 0 0 577.71 1299.65
  L 581.96 1300.33
  C 576.22 1300.91 570.45 1300.72 565.14 1298.21
  Q 561.18 1296.34 560.17 1296.06
  C 555.63 1294.80 551.96 1290.94 549.57 1287.28
  C 547.98 1284.86 547.33 1280.67 546.38 1277.45
  A 4.91 4.64 22.1 0 0 545.82 1276.22
  L 541.79 1269.94
  A 0.36 0.35 -26.3 0 1 541.97 1269.41
  C 546.77 1267.78 551.95 1268.19 556.82 1267.39
  A 0.63 0.62 83.8 0 0 557.34 1266.74
  L 557.28 1265.80
  A 0.71 0.70 -1.7 0 0 556.57 1265.14
  Q 539.24 1265.18 517.76 1265.83
  Q 506.79 1266.16 488.13 1264.05
  Q 485.39 1263.74 471.76 1264.02
  A 0.85 0.84 74.4 0 1 471.01 1263.59
  C 465.90 1254.73 485.06 1254.15 488.77 1254.10
  Q 513.96 1253.74 538.81 1253.64
  Q 541.80 1253.63 546.63 1252.20
  Z"
/>
<path d="
  M 442.14 1300.48
  Q 451.28 1298.67 453.65 1289.49
  Q 454.11 1287.73 454.14 1281.97
  Q 454.18 1275.10 456.93 1270.73
  C 465.43 1269.45 473.46 1267.67 481.66 1269.50
  A 0.26 0.26 0.0 0 1 481.75 1269.96
  Q 478.32 1272.35 476.62 1275.30
  C 474.14 1279.60 475.66 1285.85 473.09 1289.78
  C 470.90 1293.12 467.07 1295.65 463.50 1297.83
  A 0.39 0.39 0.0 0 0 463.48 1298.49
  Q 465.92 1300.16 469.05 1300.38
  A 0.29 0.29 0.0 0 1 469.32 1300.66
  L 469.34 1300.95
  A 0.13 0.13 0.0 0 1 469.22 1301.09
  Q 455.63 1302.17 442.14 1300.48
  Z"
/>
</g>
<g fill="#eea626">
<path d="
  M 519.30 305.45
  L 527.27 305.39
  Q 528.61 305.35 529.21 306.07
  A 0.87 0.87 0.0 0 1 529.40 306.64
  L 528.33 324.91
  A 1.68 1.67 32.3 0 0 528.54 325.83
  L 532.00 331.81
  A 0.25 0.25 0.0 0 0 532.47 331.71
  L 535.16 308.11
  Q 535.12 307.12 535.58 306.48
  A 0.71 0.69 -63.6 0 1 536.33 306.22
  L 559.19 312.15
  A 0.86 0.86 0.0 0 1 559.83 312.93
  Q 560.04 316.11 559.27 319.19
  C 557.47 326.40 555.88 339.48 553.74 349.63
  Q 547.07 381.35 545.34 388.92
  Q 544.66 391.90 544.09 394.44
  A 1.42 1.42 0.0 0 1 542.36 395.51
  L 529.29 392.24
  L 528.63 391.69
  A 1.33 1.32 -69.3 0 1 528.14 390.60
  Q 528.26 386.68 526.09 382.78
  A 0.74 0.74 0.0 0 0 524.84 382.71
  C 523.55 384.50 523.66 387.07 523.42 390.17
  A 2.13 2.12 -88.7 0 1 521.36 392.14
  Q 512.68 392.35 502.68 392.08
  Q 499.89 392.01 499.88 389.62
  Q 499.87 388.46 499.36 385.33
  A 2.18 2.17 -60.7 0 0 499.21 384.79
  Q 497.75 381.10 497.72 378.33
  A 0.66 0.65 5.3 0 0 497.18 377.69
  L 496.89 377.63
  A 0.92 0.89 88.9 0 1 496.18 376.93
  L 495.01 371.63
  A 0.19 0.18 -2.0 0 0 494.86 371.50
  L 494.57 371.44
  A 0.20 0.20 0.0 0 0 494.33 371.64
  L 494.22 376.30
  L 489.49 331.85
  Q 494.13 326.13 493.15 318.76
  Q 492.37 312.92 491.95 306.76
  A 1.34 1.33 88.4 0 1 493.29 305.34
  L 519.30 305.45
  Z"
/>
<path d="
  M 488.61 324.57
  Q 484.28 322.29 479.57 321.46
  A 0.49 0.49 0.0 0 0 479.00 321.88
  Q 478.75 323.83 479.05 326.76
  Q 481.00 345.99 481.91 354.54
  Q 482.25 357.79 483.53 364.34
  Q 484.33 368.45 484.82 374.23
  Q 485.12 377.75 486.38 383.66
  A 0.77 0.76 -2.1 0 0 487.03 384.26
  Q 491.05 384.82 494.85 382.90
  L 495.26 391.09
  A 1.88 1.87 83.6 0 1 493.72 393.03
  L 481.97 395.17
  A 1.04 1.04 0.0 0 1 480.78 394.43
  Q 476.22 378.66 473.55 364.06
  Q 471.82 354.63 470.72 349.54
  Q 469.06 341.81 467.84 335.05
  Q 466.29 326.46 463.71 313.61
  A 1.31 1.31 0.0 0 1 464.64 312.09
  L 484.83 306.44
  A 1.30 1.29 -11.2 0 1 486.46 307.53
  L 488.61 324.57
  Z"
/>
</g>
<path fill="#fde66d" d="
  M 488.61 324.57
  L 489.49 331.85
  L 494.22 376.30
  L 494.85 382.90
  Q 491.05 384.82 487.03 384.26
  A 0.77 0.76 -2.1 0 1 486.38 383.66
  Q 485.12 377.75 484.82 374.23
  Q 484.33 368.45 483.53 364.34
  Q 482.25 357.79 481.91 354.54
  Q 481.00 345.99 479.05 326.76
  Q 478.75 323.83 479.00 321.88
  A 0.49 0.49 0.0 0 1 479.57 321.46
  Q 484.28 322.29 488.61 324.57
  Z"
/>
<g fill="#171517">
<path d="
  M 516.01 214.44
  L 515.50 215.45
  A 0.76 0.76 0.0 0 1 514.09 215.31
  L 512.43 209.38
  A 0.78 0.78 0.0 0 0 510.90 209.59
  L 510.90 234.72
  A 0.75 0.74 80.8 0 0 511.88 235.43
  Q 516.31 233.94 518.04 230.58
  Q 524.12 232.88 521.70 239.21
  A 0.86 0.85 17.7 0 0 522.29 240.34
  Q 524.40 240.89 526.05 242.61
  A 3.35 3.02 37.8 0 1 526.71 246.29
  Q 526.11 247.42 524.32 248.51
  A 0.96 0.92 75.0 0 0 523.87 249.32
  L 523.93 253.94
  Q 523.88 254.88 523.60 255.30
  A 0.33 0.32 56.3 0 1 523.01 255.18
  L 521.96 249.39
  A 0.69 0.69 0.0 0 0 521.38 248.83
  Q 513.97 247.72 506.94 248.92
  A 0.94 0.94 0.0 0 0 506.15 249.85
  L 506.15 254.97
  A 0.81 0.80 61.8 0 1 506.02 255.41
  L 504.22 258.14
  A 0.71 0.70 20.0 0 0 504.73 259.23
  Q 512.13 260.05 519.11 260.27
  Q 523.95 260.42 526.93 258.46
  Q 528.26 259.66 528.86 262.34
  Q 528.18 263.42 526.07 263.11
  Q 522.79 262.64 519.99 262.23
  L 502.66 262.38
  A 1.34 1.34 0.0 0 0 501.51 263.06
  Q 495.49 273.88 489.06 283.55
  Q 488.43 284.49 485.26 287.02
  A 1.02 1.01 -24.4 0 0 484.89 288.00
  L 485.43 290.96
  A 1.24 1.24 0.0 0 0 486.53 291.97
  Q 494.92 292.80 503.21 292.65
  Q 517.20 292.40 531.32 292.26
  Q 537.55 292.20 542.39 293.54
  Q 560.47 298.52 570.95 301.99
  A 1.66 1.66 0.0 0 0 573.13 300.41
  L 573.13 298.87
  A 2.89 2.88 -78.4 0 0 571.39 296.22
  L 566.55 294.11
  Q 567.56 294.05 567.25 293.03
  Q 568.87 294.78 572.66 295.07
  A 2.07 2.07 0.0 0 1 574.57 297.29
  L 574.11 303.31
  A 1.71 1.71 0.0 0 1 572.86 304.83
  L 568.30 306.11
  A 1.18 1.17 -15.7 0 0 567.48 307.56
  L 568.62 311.63
  A 1.51 1.50 74.5 0 1 567.57 313.49
  L 565.78 314.00
  A 1.56 1.54 -2.5 0 0 564.67 315.20
  L 548.95 396.29
  A 1.54 1.52 22.8 0 0 549.59 397.84
  Q 553.17 400.30 550.09 404.16
  Q 549.28 405.17 547.97 405.56
  A 1.03 1.01 -88.7 0 0 547.30 406.21
  Q 546.50 408.66 544.44 410.46
  Q 543.74 411.02 543.02 411.10
  A 0.91 0.91 0.0 0 0 542.63 412.77
  C 546.23 415.07 549.77 414.83 552.01 419.50
  Q 555.36 426.45 549.85 430.89
  C 546.74 433.40 543.45 433.51 540.27 430.93
  A 1.18 1.15 -80.6 0 1 539.90 430.40
  Q 539.46 429.16 538.27 428.88
  A 0.41 0.41 0.0 0 1 537.98 428.35
  L 538.70 426.17
  A 0.54 0.53 -71.7 0 1 539.38 425.82
  L 539.63 425.91
  A 0.42 0.42 0.0 0 1 539.90 426.44
  L 539.44 427.84
  A 0.53 0.53 0.0 0 0 540.09 428.52
  L 544.05 427.41
  A 1.02 1.02 0.0 0 0 544.66 425.92
  L 544.50 425.65
  A 2.98 2.98 0.0 0 0 541.62 424.17
  Q 535.56 424.78 532.57 429.33
  Q 530.63 432.29 528.08 436.57
  C 526.47 439.28 524.11 438.74 523.74 443.57
  Q 523.54 446.05 523.94 453.36
  C 524.04 455.18 525.73 457.53 524.52 458.99
  A 1.09 1.07 61.6 0 0 524.28 459.82
  Q 524.44 460.92 525.93 461.51
  A 0.29 0.29 0.0 0 1 525.82 462.06
  L 518.47 462.06
  A 0.30 0.30 0.0 0 1 518.30 461.52
  Q 518.94 461.05 519.46 460.21
  A 1.24 1.18 62.1 0 0 519.64 459.57
  L 519.82 445.49
  A 0.14 0.14 0.0 0 1 520.10 445.47
  Q 521.07 451.64 521.04 459.24
  A 0.67 0.67 0.0 0 0 521.67 459.92
  L 521.72 459.92
  A 0.68 0.67 6.9 0 0 522.44 459.36
  C 523.36 453.62 522.32 447.67 522.57 442.82
  Q 522.81 438.23 522.37 427.70
  A 0.94 0.93 11.4 0 0 521.84 426.91
  C 516.51 424.42 511.29 425.76 505.67 427.81
  A 0.80 0.80 0.0 0 0 505.14 428.56
  L 505.14 459.89
  A 0.55 0.55 0.0 0 0 505.59 460.43
  L 510.65 461.41
  A 0.30 0.30 0.0 0 1 510.61 462.00
  L 496.09 462.90
  A 0.33 0.33 0.0 0 1 495.74 462.63
  L 495.68 462.32
  A 0.54 0.54 0.0 0 1 496.13 461.70
  Q 499.50 461.17 498.79 457.59
  A 0.40 0.40 0.0 0 0 498.14 457.37
  L 491.52 463.03
  L 489.21 460.96
  A 1.39 1.39 0.0 0 1 490.44 458.56
  C 494.64 459.52 497.51 456.26 497.65 452.45
  C 497.79 448.40 497.93 444.38 494.99 440.83
  Q 491.94 437.14 487.83 434.94
  A 1.24 1.23 -45.2 0 0 486.63 434.95
  Q 484.11 436.37 481.86 436.88
  C 476.75 438.05 470.95 434.87 468.81 430.49
  Q 467.16 427.10 467.75 422.10
  C 468.48 415.95 474.07 411.71 480.05 411.11
  A 0.53 0.52 62.8 0 0 480.34 410.19
  Q 476.05 406.37 473.37 402.47
  Q 472.28 400.88 473.46 398.99
  C 473.81 398.42 474.78 398.20 475.27 397.68
  A 1.05 1.04 62.0 0 0 475.54 396.78
  L 473.30 384.56
  L 473.71 383.61
  A 0.20 0.20 0.0 0 1 474.08 383.60
  C 476.44 388.50 477.62 394.18 475.66 399.43
  A 1.10 1.10 0.0 0 0 476.89 400.90
  L 496.19 397.39
  A 0.57 0.56 79.5 0 1 496.85 397.85
  L 497.74 402.75
  A 1.69 1.68 -4.0 0 0 499.34 404.13
  Q 510.15 404.52 520.99 404.29
  Q 524.58 404.21 527.13 404.61
  Q 535.50 405.91 543.85 406.63
  A 0.73 0.70 -64.3 0 0 544.42 406.42
  L 549.26 401.58
  A 1.47 1.47 0.0 0 0 548.68 399.15
  L 528.13 392.37
  A 0.09 0.08 28.7 0 1 528.09 392.24
  Q 528.11 392.21 528.13 392.19
  A 0.28 0.03 27.7 0 1 528.38 392.29
  Q 528.79 392.49 529.29 392.24
  L 542.36 395.51
  A 1.42 1.42 0.0 0 0 544.09 394.44
  Q 544.66 391.90 545.34 388.92
  Q 547.07 381.35 553.74 349.63
  C 555.88 339.48 557.47 326.40 559.27 319.19
  Q 560.04 316.11 559.83 312.93
  A 0.86 0.86 0.0 0 0 559.19 312.15
  L 536.33 306.22
  A 0.71 0.69 -63.6 0 0 535.58 306.48
  Q 535.12 307.12 535.16 308.11
  Q 534.88 309.39 534.40 310.02
  A 0.30 0.30 0.0 0 1 533.86 309.86
  L 533.64 306.41
  A 0.64 0.64 0.0 0 0 533.05 305.81
  L 527.27 305.39
  L 519.30 305.45
  C 529.38 303.14 537.76 303.89 547.90 307.21
  Q 555.45 309.67 565.62 311.29
  A 0.61 0.61 0.0 0 0 566.30 310.52
  L 565.21 306.61
  A 0.77 0.76 -4.5 0 0 564.56 306.06
  Q 562.13 305.76 561.69 305.56
  Q 554.48 302.28 548.86 301.17
  Q 539.33 299.29 535.72 297.29
  A 0.95 0.93 -44.8 0 0 534.79 297.30
  L 531.90 298.97
  A 1.22 1.20 32.2 0 1 531.21 299.12
  Q 510.81 297.68 488.22 299.82
  Q 481.95 300.42 473.10 303.03
  Q 464.13 305.67 457.07 307.79
  Q 451.04 304.83 449.25 302.30
  L 482.56 292.92
  A 1.01 1.00 87.7 0 0 483.26 292.15
  Q 483.59 290.42 483.25 288.18
  A 0.72 0.72 0.0 0 0 482.33 287.61
  C 474.76 289.97 465.51 293.68 456.51 292.15
  Q 462.36 288.05 467.61 283.36
  C 474.60 277.10 481.64 270.94 488.64 264.64
  Q 490.47 262.99 492.84 263.14
  A 1.25 1.25 0.0 0 0 494.15 262.08
  C 494.64 258.74 497.30 258.67 499.61 257.49
  A 1.48 1.46 -11.9 0 0 500.40 256.30
  L 500.87 250.20
  A 1.14 1.14 0.0 0 0 500.36 249.16
  Q 498.32 247.79 497.03 245.48
  A 1.03 1.02 45.8 0 1 497.04 244.47
  C 498.82 241.32 500.72 241.08 504.18 239.85
  A 0.63 0.63 0.0 0 0 504.42 238.82
  C 501.59 235.89 500.53 233.26 505.40 230.70
  A 2.38 2.35 77.1 0 0 506.66 228.67
  Q 506.86 220.43 508.06 212.12
  Q 508.41 209.70 510.62 207.72
  C 511.99 206.50 513.95 208.00 514.52 209.24
  Q 515.46 211.31 516.01 214.44
  Z"
/>
<path d="
  M 546.58 411.37
  Q 555.35 414.09 556.29 423.25
  C 557.31 433.26 547.06 441.02 538.36 434.70
  A 2.00 2.00 0.0 0 0 536.03 434.69
  Q 532.19 437.43 529.48 441.25
  Q 527.41 444.18 527.47 444.98
  C 527.84 450.10 526.01 454.06 530.68 457.89
  A 1.81 1.79 -25.5 0 0 531.80 458.28
  L 534.46 458.28
  A 0.93 0.92 80.1 0 1 535.33 458.90
  Q 535.99 460.73 532.96 462.48
  A 1.69 1.67 70.8 0 0 532.14 464.20
  L 532.53 466.62
  A 0.73 0.66 50.0 0 1 532.52 466.93
  Q 531.81 469.81 530.01 470.79
  Q 525.59 473.20 525.04 478.28
  Q 524.03 487.52 523.92 488.21
  A 1.58 1.57 -59.7 0 0 524.24 489.46
  Q 528.73 495.05 529.12 496.35
  Q 530.75 501.77 525.88 504.82
  L 500.94 505.13
  A 1.50 1.50 0.0 0 0 499.46 506.60
  L 499.44 507.90
  A 0.97 0.96 89.2 0 0 500.45 508.89
  Q 510.76 508.41 522.24 509.91
  A 0.42 0.41 4.0 0 1 522.60 510.32
  L 522.59 510.71
  A 0.63 0.62 -0.0 0 1 521.97 511.32
  C 516.25 511.42 510.95 511.68 505.92 514.43
  A 1.11 1.10 -8.9 0 0 505.36 515.19
  Q 504.71 518.37 504.69 520.93
  Q 504.42 557.35 504.58 577.46
  C 504.74 596.92 504.35 621.03 504.56 634.59
  C 504.86 653.38 504.28 670.45 504.63 688.33
  Q 504.68 690.99 504.89 693.46
  Q 505.34 698.62 505.33 698.65
  A 0.54 0.53 -69.8 0 0 505.60 699.24
  L 509.00 701.14
  A 0.71 0.71 0.0 0 1 508.72 702.46
  L 501.97 703.12
  A 0.87 0.87 0.0 0 0 501.18 704.04
  Q 501.21 704.72 500.99 705.09
  A 0.46 0.46 0.0 0 0 501.38 705.79
  L 523.93 706.22
  A 1.01 1.01 0.0 0 0 524.78 704.63
  C 521.87 700.44 522.27 697.39 522.36 691.22
  C 522.69 667.76 523.19 655.80 522.90 637.20
  C 522.54 614.89 523.14 586.54 522.82 563.64
  C 522.60 547.70 522.17 530.81 523.10 514.43
  A 0.41 0.40 -87.8 0 1 523.51 514.04
  L 523.81 514.05
  A 0.26 0.26 0.0 0 1 524.07 514.29
  L 524.40 518.71
  Q 524.47 604.22 524.36 689.72
  C 524.36 693.43 524.65 697.21 525.05 701.00
  A 3.62 3.53 29.5 0 0 525.38 702.13
  Q 526.57 704.60 526.51 707.01
  Q 523.75 708.82 521.24 708.83
  C 512.07 708.84 505.83 708.10 499.17 710.24
  A 1.62 1.62 0.0 0 0 498.43 710.73
  Q 496.44 713.06 498.08 715.51
  A 1.54 1.50 73.0 0 0 499.32 716.19
  L 527.27 716.71
  A 0.36 0.36 0.0 0 1 527.62 717.07
  Q 527.61 717.47 527.22 717.67
  C 522.54 720.10 517.38 719.33 509.34 719.42
  Q 505.33 719.46 501.03 720.30
  A 1.54 1.54 0.0 0 0 501.30 723.35
  L 523.89 723.77
  A 0.75 0.75 0.0 0 1 524.62 724.51
  L 524.66 729.22
  L 524.63 946.15
  A 1.87 1.86 20.3 0 0 525.29 947.57
  Q 527.33 949.28 526.72 952.21
  A 1.90 1.88 31.1 0 0 527.13 953.82
  C 528.06 954.92 529.08 955.56 529.44 956.89
  Q 530.50 960.72 527.51 964.11
  L 508.43 964.92
  A 1.49 1.49 0.0 0 0 508.42 967.90
  L 525.88 968.77
  L 525.62 975.71
  L 525.40 988.01
  A 0.16 0.15 40.6 0 1 525.09 988.03
  Q 523.56 980.61 523.90 972.70
  A 0.83 0.83 0.0 0 0 523.13 971.83
  Q 515.48 971.31 508.70 973.36
  A 0.89 0.88 82.7 0 0 508.07 974.18
  Q 507.97 977.21 507.66 982.19
  Q 507.24 989.13 507.04 1018.93
  C 506.92 1036.17 506.46 1048.59 506.27 1065.89
  Q 506.21 1071.24 503.71 1076.23
  A 0.61 0.61 0.0 0 0 504.23 1077.12
  L 528.01 1077.88
  Q 528.84 1079.07 529.74 1079.36
  A 2.71 2.71 0.0 0 1 531.60 1082.28
  Q 531.39 1083.89 531.13 1085.77
  Q 531.06 1086.31 532.74 1087.75
  Q 519.96 1089.80 504.93 1089.41
  Q 496.90 1089.20 490.92 1087.74
  C 496.05 1084.96 489.27 1081.50 495.02 1078.90
  A 1.45 1.45 0.0 0 0 495.88 1077.59
  Q 496.43 1027.18 498.45 970.94
  C 498.52 969.01 497.06 968.76 496.69 967.25
  C 496.33 965.76 497.89 964.61 496.38 963.32
  C 493.83 961.16 493.30 956.85 496.36 954.82
  Q 497.55 954.03 497.93 953.74
  A 0.91 0.90 46.8 0 0 497.97 952.34
  C 495.96 950.54 497.49 948.80 498.81 947.42
  A 3.35 3.33 -23.2 0 0 499.74 945.11
  L 499.69 727.19
  A 3.60 3.14 -55.1 0 0 499.61 726.45
  C 499.21 724.53 497.49 723.74 497.93 721.29
  Q 498.25 719.50 496.92 718.19
  C 494.27 715.62 494.39 711.75 497.43 709.57
  A 1.33 1.32 63.0 0 0 497.91 708.06
  Q 496.95 705.21 498.90 703.34
  A 2.77 2.77 0.0 0 0 499.73 701.71
  Q 500.00 699.73 499.98 693.25
  C 499.91 673.80 499.72 655.62 499.77 634.91
  Q 499.79 626.44 499.79 587.25
  Q 499.80 514.39 499.91 513.86
  Q 499.91 513.83 499.97 512.68
  Q 500.07 510.72 498.51 509.85
  A 2.35 2.10 -61.9 0 1 497.78 506.84
  Q 498.99 504.51 496.51 502.84
  C 494.93 501.78 494.81 499.70 494.88 497.65
  Q 494.96 494.84 497.89 493.55
  A 1.28 1.23 66.6 0 0 498.50 491.90
  Q 497.95 490.60 498.28 489.50
  A 0.95 0.90 -17.0 0 1 498.50 489.11
  L 499.97 487.64
  A 0.97 0.97 0.0 0 0 500.25 486.87
  C 499.73 480.86 499.61 474.98 495.15 471.64
  C 492.46 469.62 490.76 468.01 491.84 464.53
  Q 491.96 464.37 492.35 464.55
  A 0.90 0.87 7.1 0 1 492.85 465.17
  Q 493.21 466.98 494.84 466.92
  Q 496.08 466.88 496.16 466.89
  Q 499.27 467.60 505.77 466.47
  Q 506.57 466.33 508.52 466.69
  A 8.18 8.14 -43.7 0 0 511.09 466.74
  Q 512.40 466.56 519.50 467.11
  Q 520.81 467.22 529.55 466.97
  A 0.83 0.82 4.3 0 0 530.34 466.30
  L 530.87 463.58
  A 1.17 1.16 -59.8 0 0 530.62 462.62
  L 528.41 459.96
  A 1.43 1.41 -60.4 0 1 528.10 458.81
  Q 528.10 458.80 528.12 458.71
  A 1.38 1.36 -53.6 0 0 527.98 457.73
  Q 526.04 454.21 525.97 452.60
  C 525.72 446.95 525.38 443.75 528.53 439.75
  Q 528.86 439.33 533.96 433.94
  Q 536.27 431.50 539.46 433.23
  C 542.44 434.84 544.65 434.89 547.59 434.48
  C 554.21 433.56 554.53 426.46 553.79 421.25
  Q 553.23 417.35 549.71 414.33
  A 0.70 0.56 -6.5 0 0 549.55 414.23
  L 545.57 412.38
  A 0.37 0.37 0.0 0 1 545.61 411.69
  L 546.58 411.37
  Z"
/>
<path d="
  M 486.18 1090.25
  Q 488.43 1093.71 492.14 1094.11
  C 505.68 1095.56 517.56 1095.15 536.36 1095.05
  A 1.05 1.03 -15.0 0 1 537.26 1095.56
  L 537.84 1096.58
  A 0.68 0.68 0.0 0 1 537.35 1097.60
  Q 530.90 1098.57 525.26 1098.33
  Q 518.30 1098.03 514.71 1098.85
  Q 508.72 1100.22 504.51 1103.41
  A 1.57 1.53 71.9 0 0 503.90 1104.65
  C 503.96 1111.98 504.80 1119.89 513.57 1121.44
  Q 519.75 1122.54 526.89 1121.44
  A 1.10 1.08 -85.1 0 0 527.76 1120.70
  L 531.41 1109.66
  A 0.35 0.35 0.0 0 1 532.08 1109.67
  L 532.40 1110.78
  Q 531.63 1113.40 529.90 1121.17
  Q 529.38 1123.46 530.07 1124.65
  A 1.89 1.86 -89.6 0 0 530.72 1125.32
  C 531.88 1126.04 532.51 1126.13 532.85 1127.59
  Q 533.12 1128.76 533.80 1129.82
  Q 525.89 1131.77 515.73 1131.46
  Q 511.81 1131.34 492.74 1131.80
  Q 491.40 1131.83 490.87 1130.71
  A 0.48 0.48 0.0 0 1 491.14 1130.06
  Q 492.15 1129.70 491.92 1128.58
  C 491.96 1126.98 492.41 1125.57 493.95 1124.96
  Q 494.47 1124.75 494.80 1124.46
  A 1.02 1.00 65.0 0 0 495.13 1123.52
  C 493.53 1114.48 490.49 1104.56 484.79 1097.40
  A 2.43 2.38 -72.4 0 1 484.36 1096.55
  Q 483.31 1092.79 486.18 1090.25
  Z"
/>
<path d="
  M 535.80 1140.48
  Q 534.77 1141.03 534.35 1141.80
  L 492.62 1143.55
  A 0.29 0.29 0.0 0 0 492.34 1143.85
  L 492.42 1145.05
  A 0.32 0.32 0.0 0 0 492.72 1145.35
  Q 511.90 1146.84 530.84 1146.73
  A 0.86 0.86 0.0 0 0 531.60 1146.27
  Q 533.30 1143.06 534.81 1143.59
  C 536.32 1145.60 534.62 1147.09 533.97 1148.96
  Q 528.31 1151.97 522.73 1151.43
  C 516.15 1150.80 509.77 1149.89 505.21 1153.24
  C 503.03 1154.84 502.05 1158.83 501.73 1161.49
  Q 501.20 1165.86 500.62 1177.28
  Q 500.61 1177.49 500.57 1177.50
  A 0.42 0.29 84.1 0 1 500.22 1177.09
  L 499.13 1159.61
  A 0.69 0.49 88.4 0 0 498.65 1158.97
  L 498.61 1158.97
  A 0.64 0.63 -85.9 0 0 497.94 1159.56
  C 497.13 1170.04 496.30 1178.74 496.20 1189.28
  Q 496.07 1202.09 495.66 1205.60
  Q 494.34 1216.95 493.69 1224.53
  C 493.32 1228.88 493.87 1232.66 497.35 1235.58
  A 1.67 1.61 10.9 0 1 497.85 1236.29
  C 499.67 1241.18 505.11 1241.63 509.52 1241.21
  Q 521.39 1240.07 533.99 1241.37
  Q 535.37 1241.51 538.55 1241.48
  Q 540.96 1241.46 543.13 1241.69
  Q 548.04 1243.00 548.86 1246.59
  A 1.77 1.74 -39.0 0 1 548.73 1247.75
  L 546.63 1252.20
  Q 541.80 1253.63 538.81 1253.64
  Q 513.96 1253.74 488.77 1254.10
  C 485.06 1254.15 465.90 1254.73 471.01 1263.59
  A 0.85 0.84 74.4 0 0 471.76 1264.02
  Q 485.39 1263.74 488.13 1264.05
  Q 506.79 1266.16 517.76 1265.83
  Q 539.24 1265.18 556.57 1265.14
  A 0.71 0.70 -1.7 0 1 557.28 1265.80
  L 557.34 1266.74
  A 0.63 0.62 83.8 0 1 556.82 1267.39
  C 551.95 1268.19 546.77 1267.78 541.97 1269.41
  A 0.36 0.35 -26.3 0 0 541.79 1269.94
  L 545.82 1276.22
  A 4.91 4.64 22.1 0 1 546.38 1277.45
  C 547.33 1280.67 547.98 1284.86 549.57 1287.28
  C 551.96 1290.94 555.63 1294.80 560.17 1296.06
  Q 561.18 1296.34 565.14 1298.21
  C 570.45 1300.72 576.22 1300.91 581.96 1300.33
  C 584.37 1301.81 584.16 1305.60 583.77 1307.85
  A 2.31 2.31 0.0 0 1 581.49 1309.77
  L 442.13 1309.77
  A 1.99 1.98 -3.6 0 1 440.16 1308.04
  Q 439.34 1301.60 442.14 1300.48
  Q 455.63 1302.17 469.22 1301.09
  A 0.13 0.13 0.0 0 0 469.34 1300.95
  L 469.32 1300.66
  A 0.29 0.29 0.0 0 0 469.05 1300.38
  Q 465.92 1300.16 463.48 1298.49
  A 0.39 0.39 0.0 0 1 463.50 1297.83
  C 467.07 1295.65 470.90 1293.12 473.09 1289.78
  C 475.66 1285.85 474.14 1279.60 476.62 1275.30
  Q 478.32 1272.35 481.75 1269.96
  A 0.26 0.26 0.0 0 0 481.66 1269.50
  C 473.46 1267.67 465.43 1269.45 456.93 1270.73
  Q 461.04 1267.00 465.45 1266.95
  A 0.76 0.75 7.1 0 0 466.17 1266.40
  Q 466.76 1264.35 466.74 1262.34
  C 466.68 1257.57 472.41 1254.66 476.35 1253.33
  A 1.24 1.23 67.7 0 0 477.06 1251.62
  L 475.55 1248.49
  A 0.37 0.05 82.0 0 0 475.53 1248.42
  Q 474.26 1243.70 479.83 1242.31
  A 1.15 1.15 0.0 0 0 480.70 1241.13
  Q 480.58 1239.14 480.80 1237.27
  C 481.93 1227.55 484.74 1212.99 485.93 1200.52
  Q 485.93 1200.47 488.27 1177.81
  C 489.15 1169.27 489.68 1159.65 490.05 1151.50
  Q 490.24 1147.45 489.02 1145.92
  A 0.80 0.79 -47.0 0 1 488.99 1144.95
  L 490.08 1143.40
  A 1.38 1.38 0.0 0 0 489.82 1141.52
  L 487.14 1139.35
  C 492.49 1135.43 499.60 1137.33 505.34 1137.94
  C 514.24 1138.88 523.68 1138.78 531.70 1138.19
  Q 534.98 1137.95 535.80 1140.48
  Z"
/>
<path d="
  M 534.07 1153.12
  L 535.97 1181.11
  Q 530.24 1167.90 534.07 1153.12
  Z"
/>
</g>
<path stroke="#979697" stroke-width="2.00" fill="none" stroke-linecap="butt" vector-effect="non-scaling-stroke" d="
  M 482.72 430.60
  Q 483.72 429.39 483.54 428.55
  A 0.46 0.46 0.0 0 0 482.87 428.24
  C 480.33 429.64 476.36 428.00 478.39 424.81
  C 480.27 421.87 484.60 422.06 486.96 423.51
  Q 490.07 425.42 492.35 428.23
  C 494.19 430.49 496.38 434.54 499.18 437.47"
/>
<g fill="#ffffff">
<path d="
  M 524.59 436.47
  Q 525.11 429.66 525.12 429.40
  C 525.23 423.83 528.57 419.27 533.34 416.31
  C 537.06 414.00 541.10 414.70 545.03 416.01
  C 550.31 417.78 553.77 425.17 549.08 429.53
  Q 546.42 432.00 542.67 431.22
  A 0.97 0.97 0.0 0 1 542.61 429.34
  L 544.66 428.76
  A 2.04 2.03 75.8 0 0 546.09 426.35
  Q 545.31 422.89 542.49 422.51
  C 534.15 421.37 529.68 432.21 525.73 436.93
  A 0.65 0.65 0.0 0 1 524.59 436.47
  Z"
/>
<path d="
  M 499.18 437.47
  C 496.38 434.54 494.19 430.49 492.35 428.23
  Q 490.07 425.42 486.96 423.51
  C 484.60 422.06 480.27 421.87 478.39 424.81
  C 476.36 428.00 480.33 429.64 482.87 428.24
  A 0.46 0.46 0.0 0 1 483.54 428.55
  Q 483.72 429.39 482.72 430.60
  C 473.63 434.67 470.22 424.07 475.81 418.65
  C 478.94 415.61 488.52 414.20 492.19 416.84
  Q 498.30 421.24 499.50 426.52
  Q 500.33 430.17 499.18 437.47
  Z"
/>
</g>
<g fill="#2f2c2f">
<path d="
  M 525.45 244.33
  A 0.55 0.54 -17.8 0 1 524.97 245.26
  L 511.03 242.56
  A 0.73 0.73 0.0 0 1 510.45 241.70
  L 510.79 239.98
  A 0.85 0.85 0.0 0 1 511.60 239.29
  Q 519.84 239.04 525.45 244.33
  Z"
/>
<path d="
  M 482.72 430.60
  Q 483.72 429.39 483.54 428.55
  A 0.46 0.46 0.0 0 0 482.87 428.24
  C 480.33 429.64 476.36 428.00 478.39 424.81
  C 480.27 421.87 484.60 422.06 486.96 423.51
  Q 490.07 425.42 492.35 428.23
  C 494.19 430.49 496.38 434.54 499.18 437.47
  Q 500.49 441.23 500.62 445.97
  Q 500.65 446.94 500.06 447.55
  A 0.33 0.33 0.0 0 1 499.50 447.38
  C 498.29 440.82 494.83 437.69 489.89 432.66
  A 0.91 0.90 58.0 0 0 488.96 432.44
  C 482.66 434.57 476.77 436.42 471.68 431.34
  A 2.34 2.33 -77.3 0 1 471.10 430.42
  Q 470.28 428.02 470.26 423.79
  C 470.24 417.97 473.15 414.88 478.71 413.20
  Q 483.27 411.83 486.49 411.84
  A 0.36 0.36 0.0 0 1 486.59 412.54
  Q 483.14 413.48 478.11 415.59
  Q 473.98 417.31 471.86 421.34
  A 1.88 1.86 58.7 0 0 471.64 422.26
  C 471.71 426.70 472.81 430.48 476.87 432.67
  A 1.89 1.88 -32.7 0 0 477.85 432.88
  Q 480.21 432.72 482.12 432.11
  Q 483.27 431.74 483.23 430.77
  Q 483.21 430.36 482.72 430.60
  Z"
/>
<path d="
  M 506.30 421.41
  A 1.14 1.13 -86.3 0 1 505.24 420.19
  L 505.38 418.46
  A 1.32 1.32 0.0 0 1 506.73 417.23
  Q 513.55 417.35 520.68 415.61
  A 0.95 0.95 0.0 0 1 521.85 416.61
  L 521.65 419.30
  A 1.60 1.58 88.0 0 1 520.31 420.75
  Q 513.40 421.84 506.30 421.41
  Z"
/>
<path d="
  M 504.51 471.95
  A 0.69 0.69 0.0 0 1 505.30 471.14
  C 506.83 471.36 508.67 471.44 510.41 471.11
  Q 517.58 469.75 525.59 470.18
  A 0.83 0.83 0.0 0 1 526.24 471.47
  Q 521.89 477.99 521.69 485.76
  A 0.50 0.50 0.0 0 1 521.18 486.25
  L 508.28 486.01
  A 1.49 1.49 0.0 0 1 506.84 484.79
  L 504.51 471.95
  Z"
/>
<path d="
  M 500.30 491.03
  A 0.03 0.03 0.0 0 1 500.27 491.00
  L 500.27 490.97
  A 3.61 3.28 0.8 0 1 503.92 487.74
  L 519.72 487.96
  A 3.61 3.28 0.8 0 1 523.29 491.29
  L 523.29 491.32
  A 0.03 0.03 0.0 0 1 523.26 491.35
  L 500.30 491.03
  Z"
/>
<path d="
  M 496.83 497.88
  Q 498.97 493.80 504.79 493.59
  Q 512.99 493.29 524.59 493.72
  A 1.01 1.00 -14.2 0 1 525.42 494.21
  Q 527.11 497.08 527.23 500.77
  A 0.60 0.58 -5.5 0 1 526.72 501.37
  Q 518.56 502.59 514.26 501.76
  Q 504.93 499.97 497.16 498.55
  A 0.46 0.46 0.0 0 1 496.83 497.88
  Z"
/>
<path d="
  M 501.12 949.25
  A 0.18 0.18 0.0 0 1 501.00 948.98
  L 501.65 947.96
  A 0.46 0.45 13.8 0 1 501.99 947.76
  L 508.15 947.15
  A 1.50 1.50 0.0 0 0 508.97 944.50
  C 508.04 943.72 506.40 942.91 505.61 941.38
  Q 504.13 938.49 504.24 935.13
  Q 504.61 922.87 504.68 873.62
  Q 504.72 848.07 504.56 840.38
  C 504.22 823.84 504.49 815.59 504.64 800.87
  Q 504.75 790.91 504.60 785.08
  Q 504.06 764.00 504.91 740.12
  C 505.14 733.45 505.09 729.15 511.88 727.57
  Q 517.24 726.32 522.90 726.14
  A 0.45 0.45 0.0 0 1 523.37 726.61
  C 523.11 732.59 522.88 736.84 522.87 741.57
  C 522.75 787.21 522.99 862.54 522.73 921.93
  Q 522.65 939.51 521.92 944.24
  A 0.73 0.72 -0.6 0 1 521.33 944.84
  L 512.91 946.32
  A 0.04 0.04 0.0 0 0 512.88 946.37
  L 512.91 946.62
  A 0.24 0.23 85.7 0 0 513.14 946.83
  Q 519.41 946.79 524.50 949.09
  A 0.79 0.79 0.0 0 1 524.21 950.60
  Q 512.43 951.06 501.12 949.25
  Z"
/>
<path d="
  M 527.32 956.96
  C 525.76 961.06 522.39 961.60 518.42 961.43
  C 514.50 961.25 501.63 960.92 500.07 956.22
  A 1.50 1.50 0.0 0 1 501.47 954.25
  Q 516.66 954.03 519.39 954.15
  Q 523.28 954.32 527.02 956.19
  A 0.62 0.61 23.8 0 1 527.32 956.96
  Z"
/>
<path d="
  M 504.81 983.14
  Q 505.71 983.16 505.68 985.53
  C 505.36 1007.97 505.45 1020.39 504.77 1028.33
  C 504.37 1032.96 504.71 1037.81 504.62 1041.89
  C 504.42 1050.69 504.64 1059.92 504.58 1068.02
  Q 504.56 1071.38 503.35 1071.36
  Q 502.14 1071.34 502.23 1067.98
  C 502.44 1059.88 502.96 1050.67 503.06 1041.86
  C 503.10 1037.78 503.60 1032.95 503.35 1028.31
  C 502.94 1020.35 503.43 1007.94 503.86 985.50
  Q 503.90 983.13 504.81 983.14
  Z"
/>
<ellipse cx="0.00" cy="0.00" transform="translate(519.30,1081.49) rotate(-178.4)" rx="6.01" ry="1.15"/>
<ellipse cx="0.00" cy="0.00" transform="translate(521.12,1126.85) rotate(-2.3)" rx="7.99" ry="1.58"/>
<path d="
  M 542.87 1244.59
  Q 541.59 1247.49 538.82 1247.90
  Q 526.56 1249.70 517.53 1248.48
  Q 510.39 1247.52 499.45 1247.04
  Q 496.97 1246.93 494.22 1245.74
  A 0.78 0.78 0.0 0 1 494.53 1244.25
  L 542.65 1244.25
  A 0.24 0.24 0.0 0 1 542.87 1244.59
  Z"
/>
<path d="
  M 550.41 1300.09
  Q 546.51 1301.48 540.74 1301.42
  Q 536.33 1301.38 523.99 1301.47
  C 510.22 1301.58 494.93 1300.63 481.98 1301.12
  Q 477.28 1301.30 475.21 1299.28
  A 0.46 0.45 49.7 0 1 475.26 1298.58
  Q 479.21 1295.81 480.96 1292.42
  A 6.75 6.55 -26.9 0 0 481.61 1290.53
  C 482.26 1287.11 482.61 1281.07 484.06 1275.93
  A 3.55 3.50 75.6 0 1 484.96 1274.39
  L 489.03 1270.33
  A 2.77 2.75 15.0 0 1 490.32 1269.59
  Q 492.83 1268.94 495.43 1268.81
  Q 508.25 1268.14 525.68 1268.66
  Q 533.81 1268.91 538.61 1274.57
  C 542.05 1278.62 542.29 1283.84 543.34 1290.18
  C 543.78 1292.78 545.59 1296.82 548.36 1298.23
  Q 549.84 1298.98 550.51 1299.53
  A 0.33 0.33 0.0 0 1 550.41 1300.09
  Z"
/>
</g>
<g fill="#fde66d">
<path d="
  M 532.25 380.67
  A 2.91 2.91 0.0 0 1 528.60 377.63
  Q 530.19 357.34 531.68 346.49
  C 532.29 341.98 531.87 334.75 533.20 330.58
  Q 534.44 326.71 536.82 318.39
  A 0.97 0.97 0.0 0 1 537.79 317.69
  L 541.95 317.85
  A 1.23 1.23 0.0 0 1 543.13 318.97
  C 543.31 320.85 543.21 324.94 542.83 327.91
  Q 541.58 337.51 540.09 350.75
  Q 539.09 359.51 536.83 375.58
  A 6.12 6.11 86.6 0 1 532.34 380.65
  L 532.25 380.67
  Z"
/>
<path d="
  M 523.32 380.15
  Q 510.91 383.54 500.10 379.03
  A 2.17 2.17 0.0 0 1 498.78 377.25
  L 494.65 334.73
  A 1.43 1.41 -37.9 0 1 494.74 334.05
  Q 496.42 329.62 499.51 327.50
  Q 501.76 325.96 507.02 325.61
  Q 517.30 324.92 527.27 328.12
  A 0.94 0.94 0.0 0 1 527.92 329.09
  L 524.10 379.21
  A 1.07 1.06 -5.5 0 1 523.32 380.15
  Z"
/>
</g>
<g fill="#171517">
<path d="
  M 520.73 976.42
  C 520.34 987.29 521.07 997.44 521.12 1007.55
  Q 521.33 1057.21 521.52 1066.18
  Q 521.59 1069.19 522.71 1072.26
  A 1.23 1.23 0.0 0 1 521.89 1073.87
  L 520.94 1074.14
  A 0.95 0.94 79.1 0 1 519.75 1073.33
  Q 519.59 1071.78 519.58 1070.17
  Q 519.52 1058.01 518.94 1035.98
  Q 518.37 1014.34 518.73 976.35
  A 0.98 0.98 0.0 0 1 519.74 975.38
  L 519.76 975.38
  A 1.01 1.00 -88.3 0 1 520.73 976.42
  Z"
/>
<path d="
  M 528.61 1188.34
  L 527.96 1163.23
  A 3.91 3.89 -81.6 0 0 525.29 1159.62
  L 524.87 1159.48
  A 1.50 1.50 0.0 0 0 522.90 1160.96
  Q 523.50 1177.21 524.77 1192.94
  C 525.11 1197.22 524.95 1201.52 525.34 1205.35
  Q 526.94 1220.79 528.75 1234.02
  A 0.91 0.91 0.0 0 1 527.56 1235.01
  L 527.04 1234.84
  A 1.84 1.83 -86.0 0 1 525.80 1233.41
  Q 524.91 1228.31 524.59 1222.57
  C 524.08 1213.29 523.66 1210.51 522.86 1200.96
  C 521.84 1188.71 521.93 1177.84 521.59 1159.09
  A 1.04 0.99 59.5 0 1 521.71 1158.57
  L 522.56 1156.92
  A 0.93 0.92 30.3 0 1 523.90 1156.57
  Q 527.62 1159.05 528.74 1161.25
  A 2.91 2.91 0.0 0 1 529.04 1162.35
  C 529.19 1164.34 529.91 1166.40 529.95 1168.44
  Q 530.18 1179.48 529.93 1185.37
  Q 529.87 1186.95 529.11 1188.45
  A 0.26 0.26 0.0 0 1 528.61 1188.34
  Z"
/>
<path d="
  M 503.72 1160.57
  A 0.31 0.31 0.0 0 1 504.18 1160.30
  L 504.79 1160.66
  A 0.48 0.48 0.0 0 1 505.01 1160.98
  Q 505.50 1163.74 505.22 1171.21
  Q 503.65 1212.38 502.03 1229.64
  C 501.84 1231.63 502.29 1233.27 501.98 1235.09
  A 0.73 0.73 0.0 0 1 500.82 1235.56
  L 500.68 1235.45
  A 2.08 2.06 22.0 0 1 499.86 1233.55
  Q 500.56 1227.62 500.66 1225.50
  Q 501.75 1200.64 503.52 1176.00
  Q 503.79 1172.14 503.72 1160.57
  Z"
/>
<path d="
  M 532.07 1216.55
  Q 533.04 1218.98 533.15 1220.19
  Q 534.17 1231.42 534.86 1235.07
  A 0.64 0.63 -13.4 0 1 534.41 1235.80
  Q 532.94 1236.23 530.69 1235.00
  A 0.68 0.68 0.0 0 1 530.38 1234.16
  C 531.24 1231.81 531.69 1229.08 531.61 1226.45
  Q 531.29 1216.61 531.33 1216.54
  A 0.40 0.40 0.0 0 1 532.07 1216.55
  Z"
/>
</g>
</svg>
