<?xml version="1.0" encoding="UTF-8" standalone="no"?>
<!DOCTYPE svg PUBLIC "-//W3C//DTD SVG 1.1//EN" "http://www.w3.org/Graphics/SVG/1.1/DTD/svg11.dtd">
<svg xmlns="http://www.w3.org/2000/svg" version="1.1" viewBox="0.00 0.00 1273.70 872.85">

<g stroke-width="2.00" fill="none" stroke-linecap="butt">
<path stroke="#344c83" vector-effect="non-scaling-stroke" d="
  M 636.01 211.29
  Q 631.13 213.09 625.64 214.94
  Q 619.64 216.96 615.28 218.62
  Q 594.27 226.63 573.27 234.79"
/>
<path stroke="#4a5175" vector-effect="non-scaling-stroke" d="
  M 573.27 234.79
  L 503.57 251.51"
/>
<path stroke="#8c6a63" vector-effect="non-scaling-stroke" d="
  M 641.20 239.87
  Q 610.12 241.08 580.92 238.90
  Q 578.11 238.69 575.44 238.08"
/>
<path stroke="#302135" vector-effect="non-scaling-stroke" d="
  M 575.44 238.08
  L 573.27 234.79"
/>
<path stroke="#a26f56" vector-effect="non-scaling-stroke" d="
  M 575.44 238.08
  Q 574.94 237.94 574.65 238.03
  Q 574.38 238.11 574.30 238.66
  Q 572.58 250.16 567.80 261.07
  C 566.01 265.15 563.31 268.89 558.61 269.18
  A 0.85 0.85 0.0 0 1 557.74 268.54
  Q 556.94 265.40 555.16 262.12
  C 550.04 252.65 537.14 254.25 532.19 262.61
  Q 525.75 273.52 532.28 284.14
  Q 536.35 290.74 543.74 292.51
  A 0.47 0.47 0.0 0 1 544.07 293.12
  Q 540.56 303.35 534.22 312.35"
/>
<path stroke="#8a8461" vector-effect="non-scaling-stroke" d="
  M 585.50 337.49
  Q 584.39 339.22 584.27 341.54
  A 0.77 0.76 -77.8 0 1 583.23 342.21
  C 576.24 339.45 570.04 337.28 562.15 333.93
  Q 547.62 327.75 533.00 322.94"
/>
<path stroke="#1e5f47" vector-effect="non-scaling-stroke" d="
  M 604.08 371.31
  Q 602.40 371.23 600.86 369.91
  A 1.24 1.19 63.0 0 0 599.99 369.61
  Q 587.88 370.29 576.70 365.55
  C 565.20 360.68 560.43 359.17 550.05 354.89
  C 533.49 348.06 512.72 345.30 499.34 360.33
  Q 495.04 365.17 493.94 366.96
  C 490.08 373.21 485.82 379.17 482.24 385.60
  A 1.06 1.03 -79.4 0 1 481.50 386.12
  L 479.88 386.37"
/>
<path stroke="#1e5f47" vector-effect="non-scaling-stroke" d="
  M 610.51 385.48
  C 611.38 388.92 612.20 391.92 612.81 395.68
  Q 615.55 412.54 616.64 420.55
  Q 618.58 434.75 620.65 460.62
  C 621.17 467.16 621.23 475.57 622.18 483.00"
/>
<path stroke="#204549" vector-effect="non-scaling-stroke" d="
  M 605.30 551.77
  Q 604.94 551.38 604.51 551.45
  C 597.79 552.54 591.37 552.48 584.62 552.61
  Q 560.53 553.07 536.53 550.91"
/>
<path stroke="#1e5f47" vector-effect="non-scaling-stroke" d="
  M 536.53 550.91
  L 522.47 546.66
  A 4.26 3.62 -18.7 0 1 521.84 546.41
  C 516.28 543.58 509.95 537.84 508.24 531.66
  C 506.79 526.39 507.40 519.85 508.33 515.34
  Q 513.86 488.49 515.09 484.60
  Q 521.32 465.03 525.21 456.72
  Q 536.33 432.95 543.74 412.06
  C 544.60 409.62 545.06 406.72 545.65 403.68
  A 0.32 0.31 -23.9 0 0 545.07 403.46
  Q 540.31 411.08 533.96 417.31
  Q 527.73 423.42 525.77 425.90
  C 521.20 431.70 514.77 437.58 509.28 443.89
  Q 499.60 455.01 499.55 455.06
  Q 495.45 459.29 491.84 464.73
  C 489.04 468.96 483.24 474.99 481.35 481.79"
/>
<path stroke="#92926a" vector-effect="non-scaling-stroke" d="
  M 444.79 535.59
  Q 444.17 535.57 443.64 535.34
  Q 427.80 528.34 412.79 519.68
  Q 406.66 516.14 400.62 510.67"
/>
<path stroke="#183640" vector-effect="non-scaling-stroke" d="
  M 536.53 550.91
  Q 509.60 552.18 483.32 548.33"
/>
<path stroke="#3f2830" vector-effect="non-scaling-stroke" d="
  M 695.34 753.24
  Q 695.19 753.38 695.15 753.56
  A 0.23 0.22 -10.4 0 1 695.05 753.70
  Q 680.85 761.11 666.74 768.69
  Q 650.06 777.65 632.62 785.24"
/>
<path stroke="#8d8ea1" vector-effect="non-scaling-stroke" d="
  M 632.62 785.24
  Q 630.64 782.23 629.36 779.39
  Q 600.96 716.19 583.12 676.54
  Q 579.95 669.50 576.06 663.38
  C 565.91 647.42 557.18 634.60 548.73 622.97
  A 0.41 0.41 0.0 0 0 548.03 623.03
  Q 537.37 644.43 524.09 662.61
  C 521.77 665.78 519.07 668.34 516.70 671.19
  Q 515.09 673.12 511.01 677.51
  Q 471.74 719.70 438.24 755.24
  Q 434.26 759.46 430.11 763.53"
/>
<path stroke="#3f2830" vector-effect="non-scaling-stroke" d="
  M 430.11 763.53
  Q 423.96 760.76 418.14 757.63
  Q 395.96 745.72 375.43 731.16
  C 373.66 729.90 371.16 728.63 369.24 727.03"
/>
<path stroke="#8a8461" vector-effect="non-scaling-stroke" d="
  M 716.46 489.42
  L 689.32 525.61"
/>
<path stroke="#917d7c" vector-effect="non-scaling-stroke" d="
  M 690.33 814.97
  C 681.30 818.44 672.04 822.29 662.74 824.22
  C 655.11 825.81 646.81 824.87 641.50 818.25
  Q 637.67 813.49 635.67 807.70"
/>
<path stroke="#b1998e" vector-effect="non-scaling-stroke" d="
  M 632.62 785.24
  Q 631.60 790.47 632.10 794.48
  Q 632.79 800.12 635.67 807.70"
/>
<path stroke="#dfe3ed" vector-effect="non-scaling-stroke" d="
  M 635.67 807.70
  Q 620.12 807.28 604.56 806.81
  C 573.25 805.86 539.14 805.93 510.56 806.13
  Q 484.63 806.32 451.23 807.70"
/>
<path stroke="#b1998e" vector-effect="non-scaling-stroke" d="
  M 451.23 807.70
  C 451.79 796.51 446.86 785.86 440.66 776.85
  Q 435.74 769.69 430.11 763.53"
/>
<path stroke="#917d7c" vector-effect="non-scaling-stroke" d="
  M 451.23 807.70
  C 450.87 818.14 442.32 824.83 432.24 824.76
  Q 425.92 824.72 422.04 823.47
  Q 409.84 819.53 398.40 810.77"
/>
<path stroke="#8c6a63" vector-effect="non-scaling-stroke" d="
  M 750.28 524.12
  Q 747.34 530.44 742.06 533.05
  Q 739.90 534.12 737.44 535.12
  A 0.42 0.42 0.0 0 0 737.26 535.75
  L 739.44 538.76"
/>
<path stroke="#d0864d" vector-effect="non-scaling-stroke" d="
  M 734.27 541.75
  Q 733.84 541.51 733.52 541.94"
/>
<path stroke="#a26f56" vector-effect="non-scaling-stroke" d="
  M 733.52 541.94
  C 729.22 544.12 724.79 543.68 719.37 542.62
  Q 713.47 541.46 709.19 537.14
  C 708.22 536.17 707.94 535.14 707.49 533.92
  A 0.74 0.74 0.0 0 0 706.67 533.44
  Q 700.77 534.38 695.95 530.51
  Q 695.15 529.87 694.31 530.95"
/>
<path stroke="#5e382c" vector-effect="non-scaling-stroke" d="
  M 1070.60 630.26
  Q 1069.82 634.73 1071.32 639.45
  Q 1076.07 654.40 1086.38 665.46
  Q 1095.26 674.99 1098.96 677.62
  Q 1107.78 683.90 1112.63 686.36
  Q 1125.92 693.13 1142.25 694.00"
/>
<path stroke="#5e382c" vector-effect="non-scaling-stroke" d="
  M 1131.32 716.71
  C 1127.14 716.36 1122.62 716.39 1118.83 715.64
  C 1104.97 712.87 1091.19 707.13 1079.98 698.20
  Q 1072.16 691.97 1071.33 691.15
  Q 1054.40 674.32 1047.09 651.92"
/>
<path stroke="#743d1f" vector-effect="non-scaling-stroke" d="
  M 733.52 541.94
  L 733.77 542.40"
/>
<path stroke="#5e382c" vector-effect="non-scaling-stroke" d="
  M 1220.31 613.53
  Q 1210.11 619.73 1215.80 630.23
  Q 1219.16 636.42 1225.68 637.12
  A 0.73 0.73 0.0 0 1 1226.34 637.89
  C 1226.03 642.84 1226.03 649.90 1222.16 652.80
  Q 1207.64 663.68 1190.70 655.47
  Q 1184.84 652.63 1180.74 648.76
  A 1.63 1.62 41.7 0 0 1178.39 648.89
  L 1178.28 649.02
  A 2.15 2.13 46.1 0 0 1178.24 651.73
  Q 1182.12 656.63 1186.54 658.98
  C 1196.85 664.47 1211.83 665.38 1221.59 658.97
  A 0.93 0.90 -60.8 0 1 1222.09 658.82
  L 1224.43 658.82
  A 0.56 0.56 0.0 0 0 1224.66 657.75
  C 1222.37 656.73 1224.35 654.00 1225.49 652.46
  C 1228.66 648.18 1228.57 644.36 1228.78 638.56
  A 1.88 1.88 0.0 0 1 1230.00 636.86
  Q 1235.98 634.58 1238.11 628.21
  Q 1238.85 626.02 1239.71 623.72"
/>
<path stroke="#83441a" vector-effect="non-scaling-stroke" d="
  M 1241.54 630.66
  Q 1239.48 635.16 1241.31 640.30"
/>
<path stroke="#793d11" vector-effect="non-scaling-stroke" d="
  M 1130.34 721.65
  Q 1123.36 732.72 1115.56 742.14
  C 1112.92 745.33 1110.02 747.38 1107.54 749.86
  C 1103.39 754.02 1097.40 757.77 1092.31 761.23
  A 1.19 1.17 -10.4 0 0 1091.84 761.90
  L 1091.75 762.26"
/>
<path stroke="#d1aa8b" vector-effect="non-scaling-stroke" d="
  M 1091.75 762.26
  Q 1091.19 762.20 1090.97 762.47
  C 1087.10 767.36 1084.36 772.24 1080.88 777.03
  Q 1078.81 779.90 1075.42 785.21
  Q 1067.46 797.67 1058.24 809.93"
/>
<path stroke="#b08e78" vector-effect="non-scaling-stroke" d="
  M 1058.24 809.93
  Q 1054.26 814.32 1050.02 817.27
  Q 1043.27 821.97 1034.53 822.04
  Q 1020.62 822.16 1017.37 809.67"
/>
<path stroke="#d1aa8b" vector-effect="non-scaling-stroke" d="
  M 1017.37 809.67
  Q 1016.46 802.00 1017.99 798.25
  C 1021.53 789.52 1027.30 779.48 1029.83 771.84
  Q 1031.44 766.97 1033.31 762.73
  A 0.44 0.44 0.0 0 0 1032.88 762.11
  Q 1007.96 763.21 983.77 757.44
  Q 972.86 754.84 968.57 753.36"
/>
<path stroke="#793d11" vector-effect="non-scaling-stroke" d="
  M 968.57 753.36
  Q 959.70 751.82 952.90 749.32
  Q 950.18 748.32 940.21 744.08
  A 0.66 0.66 0.0 0 0 939.43 744.28
  Q 931.69 754.06 922.02 763.52
  Q 920.29 765.22 916.36 768.34
  A 1.31 1.29 76.4 0 0 915.89 769.12
  L 915.78 769.70"
/>
<path stroke="#d1aa8b" vector-effect="non-scaling-stroke" d="
  M 915.78 769.70
  Q 915.62 769.73 915.48 769.77
  Q 915.35 769.80 915.22 769.92
  Q 894.81 789.67 875.63 810.63
  Q 874.33 812.05 870.81 815.17"
/>
<path stroke="#b08e78" vector-effect="non-scaling-stroke" d="
  M 870.81 815.17
  Q 869.03 816.19 866.93 817.95
  Q 863.94 820.45 857.38 821.65
  Q 849.51 823.08 843.55 817.18"
/>
<path stroke="#dfe3ed" vector-effect="non-scaling-stroke" d="
  M 938.40 810.68
  Q 931.49 810.60 925.01 810.93
  Q 902.22 812.12 879.44 813.57
  Q 877.04 813.73 875.09 814.15
  Q 873.06 814.58 870.81 815.17"
/>
<path stroke="#83441a" vector-effect="non-scaling-stroke" d="
  M 899.14 667.59
  C 899.15 668.37 899.17 668.75 898.59 669.32
  Q 891.57 676.12 889.61 680.12
  Q 888.33 682.71 886.89 684.76"
/>
<path stroke="#dfe3ed" vector-effect="non-scaling-stroke" d="
  M 1140.80 813.02
  Q 1137.20 813.09 1133.86 812.83
  Q 1127.68 812.35 1127.63 812.35
  Q 1086.25 810.23 1074.00 810.19
  Q 1062.33 810.15 1058.24 809.93"
/>
<path stroke="#a79386" vector-effect="non-scaling-stroke" d="
  M 968.57 753.36
  C 964.54 766.48 963.52 782.19 973.75 792.56
  A 7.20 7.13 -10.5 0 0 976.07 794.14
  Q 979.99 795.79 983.07 797.39
  Q 991.13 801.61 990.75 809.96"
/>
<path stroke="#877773" vector-effect="non-scaling-stroke" d="
  M 990.75 809.96
  Q 989.09 816.78 983.35 819.14
  C 973.41 823.24 961.96 822.20 951.57 819.65
  Q 946.00 818.28 942.21 814.52
  Q 940.07 812.39 938.40 810.68"
/>
<path stroke="#a79386" vector-effect="non-scaling-stroke" d="
  M 938.40 810.68
  Q 924.04 791.53 915.78 769.70"
/>
<path stroke="#877773" vector-effect="non-scaling-stroke" d="
  M 1189.82 817.37
  Q 1186.31 819.39 1181.94 820.46
  Q 1170.77 823.22 1159.52 820.71
  Q 1149.02 818.37 1140.80 813.02"
/>
<path stroke="#a79386" vector-effect="non-scaling-stroke" d="
  M 1140.80 813.02
  Q 1132.37 807.12 1122.06 797.18
  Q 1106.33 782.01 1096.24 768.77
  Q 1093.24 764.83 1091.75 762.26"
/>
<path stroke="#dfe3ed" vector-effect="non-scaling-stroke" d="
  M 1017.37 809.67
  L 990.75 809.96"
/>
<path stroke="#83441a" vector-effect="non-scaling-stroke" d="
  M 864.03 629.92
  C 851.99 634.51 836.86 637.51 832.92 620.62
  Q 832.39 618.34 831.61 610.86"
/>
</g>
<path fill="#4e7bc3" d="
  M 636.01 211.29
  Q 631.13 213.09 625.64 214.94
  Q 619.64 216.96 615.28 218.62
  Q 594.27 226.63 573.27 234.79
  L 503.57 251.51
  Q 502.00 246.47 501.31 239.25
  C 499.81 223.47 503.54 206.15 514.90 194.80
  Q 520.79 188.91 527.60 184.87
  Q 554.67 168.82 585.97 171.96
  C 602.18 173.58 617.51 184.38 626.89 197.36
  Q 629.82 201.41 636.01 211.29
  Z"
/>
<path fill="#1a1c42" d="
  M 641.20 239.87
  Q 610.12 241.08 580.92 238.90
  Q 578.11 238.69 575.44 238.08
  L 573.27 234.79
  Q 594.27 226.63 615.28 218.62
  Q 619.64 216.96 625.64 214.94
  Q 631.13 213.09 636.01 211.29
  Q 651.84 205.47 666.24 204.97
  Q 671.52 204.78 677.26 206.47
  C 685.77 208.96 689.57 217.22 684.08 224.85
  Q 679.30 231.49 670.91 234.32
  Q 655.63 239.47 641.20 239.87
  Z"
/>
<path fill="#452627" d="
  M 573.27 234.79
  L 575.44 238.08
  Q 574.94 237.94 574.65 238.03
  Q 574.38 238.11 574.30 238.66
  Q 572.58 250.16 567.80 261.07
  C 566.01 265.15 563.31 268.89 558.61 269.18
  A 0.85 0.85 0.0 0 1 557.74 268.54
  Q 556.94 265.40 555.16 262.12
  C 550.04 252.65 537.14 254.25 532.19 262.61
  Q 525.75 273.52 532.28 284.14
  Q 536.35 290.74 543.74 292.51
  A 0.47 0.47 0.0 0 1 544.07 293.12
  Q 540.56 303.35 534.22 312.35
  Q 530.23 311.67 526.44 308.06
  Q 518.23 300.25 513.23 290.72
  Q 503.52 272.19 503.57 251.51
  L 573.27 234.79
  Z"
/>
<path fill="#feb784" d="
  M 575.44 238.08
  Q 578.11 238.69 580.92 238.90
  Q 610.12 241.08 641.20 239.87
  Q 645.36 254.38 645.75 270.25
  Q 645.95 278.31 644.88 284.47
  C 639.95 312.95 615.57 331.41 587.04 332.13
  A 0.84 0.83 -85.9 0 0 586.23 332.84
  L 585.50 337.49
  Q 584.39 339.22 584.27 341.54
  A 0.77 0.76 -77.8 0 1 583.23 342.21
  C 576.24 339.45 570.04 337.28 562.15 333.93
  Q 547.62 327.75 533.00 322.94
  Q 534.77 317.55 534.22 312.35
  Q 540.56 303.35 544.07 293.12
  A 0.47 0.47 0.0 0 0 543.74 292.51
  Q 536.35 290.74 532.28 284.14
  Q 525.75 273.52 532.19 262.61
  C 537.14 254.25 550.04 252.65 555.16 262.12
  Q 556.94 265.40 557.74 268.54
  A 0.85 0.85 0.0 0 0 558.61 269.18
  C 563.31 268.89 566.01 265.15 567.80 261.07
  Q 572.58 250.16 574.30 238.66
  Q 574.38 238.11 574.65 238.03
  Q 574.94 237.94 575.44 238.08
  Z"
/>
<ellipse fill="#452627" cx="0.00" cy="0.00" transform="translate(616.96,262.87) rotate(-91.9)" rx="11.26" ry="8.43"/>
<path fill="#15503e" d="
  M 533.00 322.94
  Q 547.62 327.75 562.15 333.93
  C 570.04 337.28 576.24 339.45 583.23 342.21
  A 0.77 0.76 -77.8 0 0 584.27 341.54
  Q 584.39 339.22 585.50 337.49
  C 593.07 337.34 596.56 341.55 600.59 347.91
  C 604.18 353.60 607.57 362.76 603.06 368.88
  A 0.74 0.73 -43.5 0 0 603.03 369.71
  L 604.08 371.31
  Q 602.40 371.23 600.86 369.91
  A 1.24 1.19 63.0 0 0 599.99 369.61
  Q 587.88 370.29 576.70 365.55
  C 565.20 360.68 560.43 359.17 550.05 354.89
  C 533.49 348.06 512.72 345.30 499.34 360.33
  Q 495.04 365.17 493.94 366.96
  C 490.08 373.21 485.82 379.17 482.24 385.60
  A 1.06 1.03 -79.4 0 1 481.50 386.12
  L 479.88 386.37
  C 464.35 373.31 465.31 352.30 473.65 335.63
  C 477.14 328.66 481.71 322.84 489.18 320.48
  Q 492.66 319.37 498.97 319.32
  Q 515.92 319.16 533.00 322.94
  Z"
/>
<path fill="#266d4f" d="
  M 604.08 371.31
  Q 608.52 377.83 610.51 385.48
  C 611.38 388.92 612.20 391.92 612.81 395.68
  Q 615.55 412.54 616.64 420.55
  Q 618.58 434.75 620.65 460.62
  C 621.17 467.16 621.23 475.57 622.18 483.00
  Q 623.18 501.37 623.09 519.73
  C 623.07 525.20 622.50 530.40 622.03 535.76
  Q 621.69 539.69 619.02 545.06
  A 4.06 3.99 -9.0 0 1 618.17 546.21
  Q 613.21 550.94 606.25 551.23
  Q 605.60 551.26 605.30 551.77
  Q 604.94 551.38 604.51 551.45
  C 597.79 552.54 591.37 552.48 584.62 552.61
  Q 560.53 553.07 536.53 550.91
  L 522.47 546.66
  A 4.26 3.62 -18.7 0 1 521.84 546.41
  C 516.28 543.58 509.95 537.84 508.24 531.66
  C 506.79 526.39 507.40 519.85 508.33 515.34
  Q 513.86 488.49 515.09 484.60
  Q 521.32 465.03 525.21 456.72
  Q 536.33 432.95 543.74 412.06
  C 544.60 409.62 545.06 406.72 545.65 403.68
  A 0.32 0.31 -23.9 0 0 545.07 403.46
  Q 540.31 411.08 533.96 417.31
  Q 527.73 423.42 525.77 425.90
  C 521.20 431.70 514.77 437.58 509.28 443.89
  Q 499.60 455.01 499.55 455.06
  Q 495.45 459.29 491.84 464.73
  C 489.04 468.96 483.24 474.99 481.35 481.79
  L 481.15 481.30
  A 0.41 0.40 -41.8 0 0 480.42 481.26
  C 478.60 484.55 476.18 488.92 473.00 493.82
  Q 470.63 497.46 466.38 504.41
  Q 453.49 525.50 447.96 533.68
  Q 446.99 535.12 444.79 535.59
  Q 444.17 535.57 443.64 535.34
  Q 427.80 528.34 412.79 519.68
  Q 406.66 516.14 400.62 510.67
  Q 400.45 508.21 401.01 507.28
  Q 413.43 486.64 426.83 465.62
  Q 427.79 464.12 428.71 462.68
  Q 438.28 447.77 439.20 446.37
  Q 443.78 439.45 450.15 430.40
  Q 464.98 409.34 480.07 386.93
  A 0.38 0.37 -41.3 0 0 480.10 386.56
  Q 479.99 386.33 479.88 386.37
  L 481.50 386.12
  A 1.06 1.03 -79.4 0 0 482.24 385.60
  C 485.82 379.17 490.08 373.21 493.94 366.96
  Q 495.04 365.17 499.34 360.33
  C 512.72 345.30 533.49 348.06 550.05 354.89
  C 560.43 359.17 565.20 360.68 576.70 365.55
  Q 587.88 370.29 599.99 369.61
  A 1.24 1.19 63.0 0 1 600.86 369.91
  Q 602.40 371.23 604.08 371.31
  Z"
/>
<path fill="#15503e" d="
  M 610.51 385.48
  C 611.66 386.99 613.18 388.45 614.19 389.85
  Q 630.83 412.91 650.58 436.64
  Q 654.44 441.28 658.66 444.61
  Q 679.35 460.96 696.40 472.34
  Q 700.00 474.74 705.50 477.91
  Q 712.43 481.91 714.49 483.51
  Q 716.79 485.31 716.46 489.42
  L 689.32 525.61
  Q 684.29 528.75 678.83 525.17
  C 661.17 513.57 644.03 501.76 627.78 488.21
  Q 626.16 486.86 622.18 483.00
  C 621.23 475.57 621.17 467.16 620.65 460.62
  Q 618.58 434.75 616.64 420.55
  Q 615.55 412.54 612.81 395.68
  C 612.20 391.92 611.38 388.92 610.51 385.48
  Z"
/>
<path fill="#15503e" d="
  M 536.53 550.91
  Q 509.60 552.18 483.32 548.33
  Q 473.43 544.76 472.97 534.16
  C 472.76 529.24 472.72 524.66 473.54 519.66
  Q 476.67 500.58 481.35 481.79
  C 483.24 474.99 489.04 468.96 491.84 464.73
  Q 495.45 459.29 499.55 455.06
  Q 499.60 455.01 509.28 443.89
  C 514.77 437.58 521.20 431.70 525.77 425.90
  Q 527.73 423.42 533.96 417.31
  Q 540.31 411.08 545.07 403.46
  A 0.32 0.31 -23.9 0 1 545.65 403.68
  C 545.06 406.72 544.60 409.62 543.74 412.06
  Q 536.33 432.95 525.21 456.72
  Q 521.32 465.03 515.09 484.60
  Q 513.86 488.49 508.33 515.34
  C 507.40 519.85 506.79 526.39 508.24 531.66
  C 509.95 537.84 516.28 543.58 521.84 546.41
  A 4.26 3.62 -18.7 0 0 522.47 546.66
  L 536.53 550.91
  Z"
/>
<path fill="#15503e" d="
  M 545.63 492.58
  L 542.17 489.12
  A 1.62 1.62 0.0 0 1 542.48 486.59
  C 553.39 479.96 561.00 470.96 566.40 459.00
  Q 569.81 451.45 572.01 445.67
  A 1.19 1.18 -79.7 0 1 573.10 444.91
  Q 577.71 444.87 581.01 447.32
  A 1.33 1.31 19.6 0 1 581.55 448.44
  Q 581.25 456.24 578.39 463.40
  C 573.21 476.37 565.50 487.13 552.20 491.96
  Q 549.87 492.80 546.56 492.94
  A 1.24 1.21 65.4 0 1 545.63 492.58
  Z"
/>
<path fill="#feb784" d="
  M 716.46 489.42
  Q 718.97 490.00 721.23 491.04
  Q 730.17 495.13 736.95 498.81
  Q 746.84 504.17 750.14 516.13
  A 4.94 4.78 -53.1 0 1 750.31 517.48
  L 750.28 524.12
  Q 747.34 530.44 742.06 533.05
  Q 739.90 534.12 737.44 535.12
  A 0.42 0.42 0.0 0 0 737.26 535.75
  L 739.44 538.76
  L 734.27 541.75
  Q 733.84 541.51 733.52 541.94
  C 729.22 544.12 724.79 543.68 719.37 542.62
  Q 713.47 541.46 709.19 537.14
  C 708.22 536.17 707.94 535.14 707.49 533.92
  A 0.74 0.74 0.0 0 0 706.67 533.44
  Q 700.77 534.38 695.95 530.51
  Q 695.15 529.87 694.31 530.95
  Q 692.96 528.15 690.44 525.81
  Q 690.21 525.59 689.32 525.61
  L 716.46 489.42
  Z"
/>
<path fill="#feb784" d="
  M 400.62 510.67
  Q 406.66 516.14 412.79 519.68
  Q 427.80 528.34 443.64 535.34
  Q 444.17 535.57 444.79 535.59
  Q 444.62 535.66 444.48 535.79
  A 0.53 0.52 -27.3 0 0 444.33 536.24
  C 445.80 545.33 445.77 559.96 435.67 564.70
  A 3.17 3.15 28.8 0 1 434.66 564.99
  Q 432.97 565.20 431.50 564.05
  A 0.89 0.89 0.0 0 0 430.23 564.24
  C 422.00 576.05 408.21 579.06 395.68 571.89
  C 386.94 566.89 378.94 555.89 380.36 545.24
  Q 380.85 541.56 385.55 533.49
  Q 392.44 521.65 400.62 510.67
  Z"
/>
<path fill="#1a1c42" d="
  M 750.28 524.12
  L 749.78 530.82
  A 1.14 1.14 0.0 0 0 750.33 531.88
  Q 779.29 549.29 802.22 561.52
  Q 832.26 577.54 867.36 592.33
  Q 905.89 608.56 957.66 622.63
  C 985.06 630.07 1014.12 634.99 1043.07 638.60
  Q 1048.49 639.28 1050.41 639.22
  A 1.53 1.50 -63.4 0 0 1051.28 638.92
  C 1056.47 635.02 1061.04 631.60 1066.87 629.87
  Q 1068.97 629.25 1070.60 630.26
  Q 1069.82 634.73 1071.32 639.45
  Q 1076.07 654.40 1086.38 665.46
  Q 1095.26 674.99 1098.96 677.62
  Q 1107.78 683.90 1112.63 686.36
  Q 1125.92 693.13 1142.25 694.00
  Q 1143.94 696.09 1142.79 699.59
  C 1140.99 705.04 1139.30 712.36 1134.94 715.78
  A 1.49 1.42 -69.0 0 1 1134.39 716.04
  L 1131.32 716.71
  C 1127.14 716.36 1122.62 716.39 1118.83 715.64
  C 1104.97 712.87 1091.19 707.13 1079.98 698.20
  Q 1072.16 691.97 1071.33 691.15
  Q 1054.40 674.32 1047.09 651.92
  L 1046.81 650.23
  A 0.71 0.70 87.4 0 0 1046.17 649.64
  Q 1041.01 649.34 1038.74 649.04
  Q 967.31 639.43 901.05 616.17
  C 887.04 611.25 871.30 605.64 857.64 599.68
  Q 814.51 580.89 773.90 557.82
  Q 764.92 552.71 744.20 540.29
  Q 742.34 539.18 739.44 538.76
  L 737.26 535.75
  A 0.42 0.42 0.0 0 1 737.44 535.12
  Q 739.90 534.12 742.06 533.05
  Q 747.34 530.44 750.28 524.12
  Z"
/>
<path fill="#452627" d="
  M 733.52 541.94
  L 733.77 542.40
  Q 722.09 552.51 707.52 546.20
  Q 696.93 541.61 694.31 530.95
  Q 695.15 529.87 695.95 530.51
  Q 700.77 534.38 706.67 533.44
  A 0.74 0.74 0.0 0 1 707.49 533.92
  C 707.94 535.14 708.22 536.17 709.19 537.14
  Q 713.47 541.46 719.37 542.62
  C 724.79 543.68 729.22 544.12 733.52 541.94
  Z"
/>
<path fill="#a25416" d="
  M 734.27 541.75
  L 733.77 542.40
  L 733.52 541.94
  Q 733.84 541.51 734.27 541.75
  Z"
/>
<path fill="#1a1c42" d="
  M 536.53 550.91
  Q 560.53 553.07 584.62 552.61
  C 591.37 552.48 597.79 552.54 604.51 551.45
  Q 604.94 551.38 605.30 551.77
  Q 607.53 558.90 612.06 568.70
  C 620.77 587.53 630.51 607.84 638.81 626.27
  Q 667.76 690.53 685.84 731.18
  Q 690.72 742.16 695.34 753.24
  Q 695.19 753.38 695.15 753.56
  A 0.23 0.22 -10.4 0 1 695.05 753.70
  Q 680.85 761.11 666.74 768.69
  Q 650.06 777.65 632.62 785.24
  Q 630.64 782.23 629.36 779.39
  Q 600.96 716.19 583.12 676.54
  Q 579.95 669.50 576.06 663.38
  C 565.91 647.42 557.18 634.60 548.73 622.97
  A 0.41 0.41 0.0 0 0 548.03 623.03
  Q 537.37 644.43 524.09 662.61
  C 521.77 665.78 519.07 668.34 516.70 671.19
  Q 515.09 673.12 511.01 677.51
  Q 471.74 719.70 438.24 755.24
  Q 434.26 759.46 430.11 763.53
  Q 423.96 760.76 418.14 757.63
  Q 395.96 745.72 375.43 731.16
  C 373.66 729.90 371.16 728.63 369.24 727.03
  Q 371.97 722.56 373.79 720.53
  Q 387.09 705.68 434.41 654.02
  Q 435.20 653.16 443.76 644.14
  Q 450.40 637.14 457.28 628.52
  Q 458.60 626.87 459.58 624.81
  C 468.83 605.49 476.71 582.84 484.23 563.20
  A 1.21 1.20 -57.5 0 0 483.95 561.91
  L 482.40 560.35
  A 2.70 2.69 -68.3 0 1 481.60 558.48
  Q 481.47 553.27 483.32 548.33
  Q 509.60 552.18 536.53 550.91
  Z"
/>
<path fill="#a25416" d="
  M 1220.31 613.53
  Q 1210.11 619.73 1215.80 630.23
  Q 1219.16 636.42 1225.68 637.12
  A 0.73 0.73 0.0 0 1 1226.34 637.89
  C 1226.03 642.84 1226.03 649.90 1222.16 652.80
  Q 1207.64 663.68 1190.70 655.47
  Q 1184.84 652.63 1180.74 648.76
  A 1.63 1.62 41.7 0 0 1178.39 648.89
  L 1178.28 649.02
  A 2.15 2.13 46.1 0 0 1178.24 651.73
  Q 1182.12 656.63 1186.54 658.98
  C 1196.85 664.47 1211.83 665.38 1221.59 658.97
  A 0.93 0.90 -60.8 0 1 1222.09 658.82
  L 1224.43 658.82
  A 0.56 0.56 0.0 0 0 1224.66 657.75
  C 1222.37 656.73 1224.35 654.00 1225.49 652.46
  C 1228.66 648.18 1228.57 644.36 1228.78 638.56
  A 1.88 1.88 0.0 0 1 1230.00 636.86
  Q 1235.98 634.58 1238.11 628.21
  Q 1238.85 626.02 1239.71 623.72
  L 1241.54 630.66
  Q 1239.48 635.16 1241.31 640.30
  C 1239.89 647.49 1232.91 656.80 1227.77 660.31
  A 2.46 2.40 89.2 0 0 1227.08 661.04
  Q 1223.63 666.83 1216.76 671.60
  Q 1196.54 685.64 1170.95 686.15
  Q 1161.63 686.33 1151.97 685.65
  Q 1150.78 685.57 1148.32 687.33
  Q 1144.58 690.02 1142.25 694.00
  Q 1125.92 693.13 1112.63 686.36
  Q 1107.78 683.90 1098.96 677.62
  Q 1095.26 674.99 1086.38 665.46
  Q 1076.07 654.40 1071.32 639.45
  Q 1069.82 634.73 1070.60 630.26
  Q 1081.96 607.04 1101.39 592.65
  Q 1123.36 576.38 1150.73 578.89
  C 1165.08 580.20 1178.03 587.79 1187.59 598.02
  C 1192.54 603.32 1197.14 607.80 1203.93 610.04
  Q 1211.92 612.69 1220.31 613.53
  Z"
/>
<path fill="#63331d" d="
  M 1141.15 598.72
  C 1141.26 607.36 1139.34 615.63 1137.55 625.06
  C 1134.86 639.20 1136.95 654.28 1125.64 664.87
  Q 1124.11 666.30 1121.79 667.32
  Q 1110.63 672.24 1099.72 667.26
  Q 1089.94 662.80 1088.97 652.00
  Q 1088.91 651.31 1087.68 629.25
  C 1087.12 619.35 1087.23 608.47 1096.13 601.91
  C 1101.82 597.72 1107.59 594.55 1114.87 593.50
  C 1122.41 592.42 1133.16 592.00 1139.51 595.84
  A 3.41 3.40 -74.8 0 1 1141.15 598.72
  Z"
/>
<path fill="#a25416" d="
  M 864.03 629.92
  C 851.99 634.51 836.86 637.51 832.92 620.62
  Q 832.39 618.34 831.61 610.86
  Q 833.97 608.16 837.12 607.36
  C 851.41 603.76 860.52 618.66 864.03 629.92
  Z"
/>
<path fill="#63331d" d="
  M 864.03 629.92
  Q 866.07 634.96 868.24 639.83
  C 872.11 648.52 877.86 656.52 885.82 661.64
  Q 891.90 665.55 899.14 667.59
  C 899.15 668.37 899.17 668.75 898.59 669.32
  Q 891.57 676.12 889.61 680.12
  Q 888.33 682.71 886.89 684.76
  Q 870.45 684.21 858.64 675.37
  Q 839.85 661.31 832.32 639.07
  Q 829.94 632.06 828.89 624.73
  Q 827.79 616.98 831.61 610.86
  Q 832.39 618.34 832.92 620.62
  C 836.86 637.51 851.99 634.51 864.03 629.92
  Z"
/>
<ellipse fill="#1a1c42" cx="0.00" cy="0.00" transform="translate(1161.05,621.70) rotate(-94.2)" rx="9.09" ry="8.32"/>
<path fill="#1a1c42" d="
  M 1239.71 623.72
  Q 1238.85 626.02 1238.11 628.21
  Q 1235.98 634.58 1230.00 636.86
  A 1.88 1.88 0.0 0 0 1228.78 638.56
  C 1228.57 644.36 1228.66 648.18 1225.49 652.46
  C 1224.35 654.00 1222.37 656.73 1224.66 657.75
  A 0.56 0.56 0.0 0 1 1224.43 658.82
  L 1222.09 658.82
  A 0.93 0.90 -60.8 0 0 1221.59 658.97
  C 1211.83 665.38 1196.85 664.47 1186.54 658.98
  Q 1182.12 656.63 1178.24 651.73
  A 2.15 2.13 46.1 0 1 1178.28 649.02
  L 1178.39 648.89
  A 1.63 1.62 41.7 0 1 1180.74 648.76
  Q 1184.84 652.63 1190.70 655.47
  Q 1207.64 663.68 1222.16 652.80
  C 1226.03 649.90 1226.03 642.84 1226.34 637.89
  A 0.73 0.73 0.0 0 0 1225.68 637.12
  Q 1219.16 636.42 1215.80 630.23
  Q 1210.11 619.73 1220.31 613.53
  Q 1234.18 610.37 1239.71 623.72
  Z"
/>
<path fill="#ffffff" d="
  M 632.62 785.24
  Q 631.60 790.47 632.10 794.48
  Q 632.79 800.12 635.67 807.70
  Q 620.12 807.28 604.56 806.81
  C 573.25 805.86 539.14 805.93 510.56 806.13
  Q 484.63 806.32 451.23 807.70
  C 451.79 796.51 446.86 785.86 440.66 776.85
  Q 435.74 769.69 430.11 763.53
  Q 434.26 759.46 438.24 755.24
  Q 471.74 719.70 511.01 677.51
  Q 515.09 673.12 516.70 671.19
  C 519.07 668.34 521.77 665.78 524.09 662.61
  Q 537.37 644.43 548.03 623.03
  A 0.41 0.41 0.0 0 1 548.73 622.97
  C 557.18 634.60 565.91 647.42 576.06 663.38
  Q 579.95 669.50 583.12 676.54
  Q 600.96 716.19 629.36 779.39
  Q 630.64 782.23 632.62 785.24
  Z"
/>
<path fill="#63331d" d="
  M 1241.54 630.66
  Q 1242.44 635.54 1241.31 640.30
  Q 1239.48 635.16 1241.54 630.66
  Z"
/>
<path fill="#a25416" d="
  M 1047.09 651.92
  Q 1054.40 674.32 1071.33 691.15
  Q 1072.16 691.97 1079.98 698.20
  C 1091.19 707.13 1104.97 712.87 1118.83 715.64
  C 1122.62 716.39 1127.14 716.36 1131.32 716.71
  L 1130.34 721.65
  Q 1123.36 732.72 1115.56 742.14
  C 1112.92 745.33 1110.02 747.38 1107.54 749.86
  C 1103.39 754.02 1097.40 757.77 1092.31 761.23
  A 1.19 1.17 -10.4 0 0 1091.84 761.90
  L 1091.75 762.26
  Q 1091.19 762.20 1090.97 762.47
  C 1087.10 767.36 1084.36 772.24 1080.88 777.03
  Q 1078.81 779.90 1075.42 785.21
  Q 1067.46 797.67 1058.24 809.93
  Q 1054.26 814.32 1050.02 817.27
  Q 1043.27 821.97 1034.53 822.04
  Q 1020.62 822.16 1017.37 809.67
  Q 1016.46 802.00 1017.99 798.25
  C 1021.53 789.52 1027.30 779.48 1029.83 771.84
  Q 1031.44 766.97 1033.31 762.73
  A 0.44 0.44 0.0 0 0 1032.88 762.11
  Q 1007.96 763.21 983.77 757.44
  Q 972.86 754.84 968.57 753.36
  Q 959.70 751.82 952.90 749.32
  Q 950.18 748.32 940.21 744.08
  A 0.66 0.66 0.0 0 0 939.43 744.28
  Q 931.69 754.06 922.02 763.52
  Q 920.29 765.22 916.36 768.34
  A 1.31 1.29 76.4 0 0 915.89 769.12
  L 915.78 769.70
  Q 915.62 769.73 915.48 769.77
  Q 915.35 769.80 915.22 769.92
  Q 894.81 789.67 875.63 810.63
  Q 874.33 812.05 870.81 815.17
  Q 869.03 816.19 866.93 817.95
  Q 863.94 820.45 857.38 821.65
  Q 849.51 823.08 843.55 817.18
  Q 834.20 807.99 838.22 796.52
  Q 840.33 790.52 846.07 782.80
  Q 859.75 764.40 872.86 742.60
  Q 875.74 737.81 879.05 728.44
  C 881.61 721.21 881.46 713.09 882.23 703.50
  Q 882.87 695.64 886.89 684.76
  Q 888.33 682.71 889.61 680.12
  Q 891.57 676.12 898.59 669.32
  C 899.17 668.75 899.15 668.37 899.14 667.59
  Q 898.98 667.82 899.55 667.72
  A 1.59 1.53 23.5 0 0 900.14 667.50
  C 910.76 660.96 922.96 658.10 934.68 656.31
  Q 939.85 655.53 949.37 655.20
  Q 968.47 654.56 1000.25 657.56
  Q 1011.55 658.62 1023.61 656.88
  Q 1026.92 656.40 1035.34 654.32
  Q 1041.09 652.90 1047.09 651.92
  Z"
/>
<path fill="#4f260c" d="
  M 1130.34 721.65
  Q 1143.66 747.13 1158.28 769.28
  Q 1164.65 778.93 1171.05 785.46
  C 1176.01 790.53 1181.68 793.05 1188.51 796.00
  C 1198.94 800.50 1200.18 811.58 1189.82 817.37
  Q 1186.31 819.39 1181.94 820.46
  Q 1170.77 823.22 1159.52 820.71
  Q 1149.02 818.37 1140.80 813.02
  Q 1132.37 807.12 1122.06 797.18
  Q 1106.33 782.01 1096.24 768.77
  Q 1093.24 764.83 1091.75 762.26
  L 1091.84 761.90
  A 1.19 1.17 -10.4 0 1 1092.31 761.23
  C 1097.40 757.77 1103.39 754.02 1107.54 749.86
  C 1110.02 747.38 1112.92 745.33 1115.56 742.14
  Q 1123.36 732.72 1130.34 721.65
  Z"
/>
<path fill="#63331d" d="
  M 369.24 727.03
  C 371.16 728.63 373.66 729.90 375.43 731.16
  Q 395.96 745.72 418.14 757.63
  Q 423.96 760.76 430.11 763.53
  Q 435.74 769.69 440.66 776.85
  C 446.86 785.86 451.79 796.51 451.23 807.70
  C 450.87 818.14 442.32 824.83 432.24 824.76
  Q 425.92 824.72 422.04 823.47
  Q 409.84 819.53 398.40 810.77
  C 384.00 799.98 369.59 788.77 356.65 777.11
  C 346.97 768.39 336.38 756.10 347.03 743.02
  Q 355.36 732.80 364.68 727.40
  Q 366.54 726.32 369.24 727.03
  Z"
/>
<path fill="#4f260c" d="
  M 968.57 753.36
  C 964.54 766.48 963.52 782.19 973.75 792.56
  A 7.20 7.13 -10.5 0 0 976.07 794.14
  Q 979.99 795.79 983.07 797.39
  Q 991.13 801.61 990.75 809.96
  Q 989.09 816.78 983.35 819.14
  C 973.41 823.24 961.96 822.20 951.57 819.65
  Q 946.00 818.28 942.21 814.52
  Q 940.07 812.39 938.40 810.68
  Q 924.04 791.53 915.78 769.70
  L 915.89 769.12
  A 1.31 1.29 76.4 0 1 916.36 768.34
  Q 920.29 765.22 922.02 763.52
  Q 931.69 754.06 939.43 744.28
  A 0.66 0.66 0.0 0 1 940.21 744.08
  Q 950.18 748.32 952.90 749.32
  Q 959.70 751.82 968.57 753.36
  Z"
/>
<path fill="#63331d" d="
  M 690.33 814.97
  C 681.30 818.44 672.04 822.29 662.74 824.22
  C 655.11 825.81 646.81 824.87 641.50 818.25
  Q 637.67 813.49 635.67 807.70
  Q 632.79 800.12 632.10 794.48
  Q 631.60 790.47 632.62 785.24
  Q 650.06 777.65 666.74 768.69
  Q 680.85 761.11 695.05 753.70
  A 0.23 0.22 -10.4 0 0 695.15 753.56
  Q 695.19 753.38 695.34 753.24
  Q 695.54 753.43 695.99 753.32
  Q 710.63 749.94 725.50 750.74
  Q 735.64 751.28 743.72 756.09
  C 751.28 760.58 756.71 771.85 752.30 780.32
  Q 750.87 783.07 746.50 786.50
  Q 744.29 788.24 737.81 792.00
  Q 714.94 805.26 690.33 814.97
  Z"
/>
<path fill="#ffffff" d="
  M 1017.37 809.67
  L 990.75 809.96
  Q 991.13 801.61 983.07 797.39
  Q 979.99 795.79 976.07 794.14
  A 7.20 7.13 -10.5 0 1 973.75 792.56
  C 963.52 782.19 964.54 766.48 968.57 753.36
  Q 972.86 754.84 983.77 757.44
  Q 1007.96 763.21 1032.88 762.11
  A 0.44 0.44 0.0 0 1 1033.31 762.73
  Q 1031.44 766.97 1029.83 771.84
  C 1027.30 779.48 1021.53 789.52 1017.99 798.25
  Q 1016.46 802.00 1017.37 809.67
  Z"
/>
<path fill="#ffffff" d="
  M 1091.75 762.26
  Q 1093.24 764.83 1096.24 768.77
  Q 1106.33 782.01 1122.06 797.18
  Q 1132.37 807.12 1140.80 813.02
  Q 1137.20 813.09 1133.86 812.83
  Q 1127.68 812.35 1127.63 812.35
  Q 1086.25 810.23 1074.00 810.19
  Q 1062.33 810.15 1058.24 809.93
  Q 1067.46 797.67 1075.42 785.21
  Q 1078.81 779.90 1080.88 777.03
  C 1084.36 772.24 1087.10 767.36 1090.97 762.47
  Q 1091.19 762.20 1091.75 762.26
  Z"
/>
<path fill="#ffffff" d="
  M 915.78 769.70
  Q 924.04 791.53 938.40 810.68
  Q 931.49 810.60 925.01 810.93
  Q 902.22 812.12 879.44 813.57
  Q 877.04 813.73 875.09 814.15
  Q 873.06 814.58 870.81 815.17
  Q 874.33 812.05 875.63 810.63
  Q 894.81 789.67 915.22 769.92
  Q 915.35 769.80 915.48 769.77
  Q 915.62 769.73 915.78 769.70
  Z"
/>
<path fill="#bec7da" d="
  M 635.67 807.70
  Q 637.67 813.49 641.50 818.25
  C 646.81 824.87 655.11 825.81 662.74 824.22
  C 672.04 822.29 681.30 818.44 690.33 814.97
  Q 688.84 817.29 692.86 815.73
  Q 695.77 814.60 698.79 813.65
  A 2.74 2.62 -71.2 0 0 699.62 813.22
  Q 702.75 810.88 706.75 811.39
  Q 723.19 813.50 739.28 815.47
  Q 743.65 816.01 748.43 817.00
  C 754.80 818.33 760.46 819.17 765.24 822.06
  A 2.70 2.57 30.0 0 1 766.27 825.57
  C 765.57 826.81 763.94 827.86 762.51 828.31
  Q 755.36 830.54 753.42 830.93
  C 727.24 836.21 699.44 838.02 674.24 839.86
  Q 656.56 841.15 633.17 841.78
  Q 633.06 841.78 623.78 842.06
  Q 548.84 844.25 498.75 843.12
  Q 475.95 842.61 454.30 841.99
  Q 431.91 841.35 416.22 840.12
  C 386.68 837.82 359.53 836.26 333.40 830.87
  Q 326.83 829.51 322.44 826.93
  A 3.05 2.66 29.2 0 1 321.11 823.21
  C 323.63 818.39 348.91 815.36 354.50 814.69
  Q 372.19 812.55 393.80 811.06
  Q 394.65 811.00 396.17 811.26
  Q 397.88 811.56 398.40 810.77
  Q 409.84 819.53 422.04 823.47
  Q 425.92 824.72 432.24 824.76
  C 442.32 824.83 450.87 818.14 451.23 807.70
  Q 484.63 806.32 510.56 806.13
  C 539.14 805.93 573.25 805.86 604.56 806.81
  Q 620.12 807.28 635.67 807.70
  Z"
/>
<path fill="#bec7da" d="
  M 1058.24 809.93
  Q 1062.33 810.15 1074.00 810.19
  Q 1086.25 810.23 1127.63 812.35
  Q 1127.68 812.35 1133.86 812.83
  Q 1137.20 813.09 1140.80 813.02
  Q 1149.02 818.37 1159.52 820.71
  Q 1170.77 823.22 1181.94 820.46
  Q 1186.31 819.39 1189.82 817.37
  Q 1190.20 818.33 1192.00 818.30
  Q 1193.76 818.27 1194.50 818.45
  C 1199.76 819.70 1205.97 820.71 1210.61 823.29
  A 2.55 2.48 28.4 0 1 1211.66 826.65
  C 1209.01 831.62 1181.63 835.14 1175.81 835.80
  C 1142.09 839.59 1110.30 841.66 1075.00 842.69
  Q 1015.45 844.42 946.44 842.44
  C 913.12 841.49 879.35 839.26 851.95 836.10
  Q 840.49 834.78 826.77 831.74
  C 823.77 831.08 819.15 829.65 816.36 827.15
  A 1.93 1.93 0.0 0 1 816.03 824.66
  C 818.56 820.77 834.37 818.37 837.76 818.06
  Q 841.99 817.68 843.55 817.18
  Q 849.51 823.08 857.38 821.65
  Q 863.94 820.45 866.93 817.95
  Q 869.03 816.19 870.81 815.17
  Q 873.06 814.58 875.09 814.15
  Q 877.04 813.73 879.44 813.57
  Q 902.22 812.12 925.01 810.93
  Q 931.49 810.60 938.40 810.68
  Q 940.07 812.39 942.21 814.52
  Q 946.00 818.28 951.57 819.65
  C 961.96 822.20 973.41 823.24 983.35 819.14
  Q 989.09 816.78 990.75 809.96
  L 1017.37 809.67
  Q 1020.62 822.16 1034.53 822.04
  Q 1043.27 821.97 1050.02 817.27
  Q 1054.26 814.32 1058.24 809.93
  Z"
/>
</svg>
